<svg class="main-svg" xmlns="http://www.w3.org/2000/svg" xmlns:xlink="http://www.w3.org/1999/xlink" width="700" height="500" style="" viewBox="0 0 700 500"><rect x="0" y="0" width="700" height="500" style="fill: rgb(255, 255, 255); fill-opacity: 1;"/><defs id="defs-7aa90c"><g class="clips"><clipPath id="clip7aa90cxyplot" class="plotclip"><rect width="602" height="182.4"/></clipPath><clipPath id="clip7aa90cx2y2plot" class="plotclip"><rect width="602" height="182.4"/></clipPath><clipPath class="axesclip" id="clip7aa90cx"><rect x="58" y="0" width="602" height="500"/></clipPath><clipPath class="axesclip" id="clip7aa90cy"><rect x="0" y="60" width="700" height="182.4"/></clipPath><clipPath class="axesclip" id="clip7aa90cxy"><rect x="58" y="60" width="602" height="182.4"/></clipPath><clipPath class="axesclip" id="clip7aa90cy2"><rect x="0" y="257.6" width="700" height="182.4"/></clipPath><clipPath class="axesclip" id="clip7aa90cxy2"><rect x="58" y="257.6" width="602" height="182.4"/></clipPath><clipPath class="axesclip" id="clip7aa90cx2"><rect x="58" y="0" width="602" height="500"/></clipPath><clipPath class="axesclip" id="clip7aa90cx2y"><rect x="58" y="60" width="602" height="182.4"/></clipPath><clipPath class="axesclip" id="clip7aa90cx2y2"><rect x="58" y="257.6" width="602" height="182.4"/></clipPath></g><g class="gradients"/><g class="patterns"/></defs><g class="bglayer"/><g class="layer-below"><g class="imagelayer"/><g class="shapelayer"/></g><g class="cartesianlayer"><g class="subplot xy"><g class="layer-subplot"><g class="shapelayer"/><g class="imagelayer"/></g><g class="gridlayer"><g class="x"><path class="xgrid crisp" transform="translate(147,0)" d="M0,60v182.4" style="stroke: rgb(238, 238, 238); stroke-opacity: 1; stroke-width: 1px;"/><path class="xgrid crisp" transform="translate(248.72,0)" d="M0,60v182.4" style="stroke: rgb(238, 238, 238); stroke-opacity: 1; stroke-width: 1px;"/><path class="xgrid crisp" transform="translate(348.77,0)" d="M0,60v182.4" style="stroke: rgb(238, 238, 238); stroke-opacity: 1; stroke-width: 1px;"/><path class="xgrid crisp" transform="translate(450.49,0)" d="M0,60v182.4" style="stroke: rgb(238, 238, 238); stroke-opacity: 1; stroke-width: 1px;"/><path class="xgrid crisp" transform="translate(550.55,0)" d="M0,60v182.4" style="stroke: rgb(238, 238, 238); stroke-opacity: 1; stroke-width: 1px;"/><path class="xgrid crisp" transform="translate(652.26,0)" d="M0,60v182.4" style="stroke: rgb(238, 238, 238); stroke-opacity: 1; stroke-width: 1px;"/></g><g class="y"><path class="ygrid crisp" transform="translate(0,169.20999999999998)" d="M58,0h602" style="stroke: rgb(238, 238, 238); stroke-opacity: 1; stroke-width: 1px;"/><path class="ygrid crisp" transform="translate(0,115.72999999999999)" d="M58,0h602" style="stroke: rgb(238, 238, 238); stroke-opacity: 1; stroke-width: 1px;"/><path class="ygrid crisp" transform="translate(0,62.25)" d="M58,0h602" style="stroke: rgb(238, 238, 238); stroke-opacity: 1; stroke-width: 1px;"/></g></g><g class="zerolinelayer"><path class="yzl zl crisp" transform="translate(0,222.69)" d="M58,0h602" style="stroke: rgb(68, 68, 68); stroke-opacity: 1; stroke-width: 1px;"/></g><path class="xlines-below"/><path class="ylines-below"/><g class="overlines-below"/><g class="xaxislayer-below"/><g class="yaxislayer-below"/><g class="overaxes-below"/><g class="plot" transform="translate(58,60)" clip-path="url(#clip7aa90cxyplot)"><g class="scatterlayer mlayer"><g class="trace scatter trace4d1b9b" style="stroke-miterlimit: 2; opacity: 1;"><g class="fills"/><g class="errorbars"/><g class="lines"><path class="js-line" d="M0,162.69L41.46,162.14L42.01,161.69L43.67,161.87L44.22,162.11L48.09,161.1L48.65,161.63L50.3,161.26L50.86,160.4L51.41,160.55L51.96,159.87L53.07,160.37L53.62,159.6L54.73,158.68L55.28,160.01L56.39,160.17L56.94,159.06L57.49,159.04L58.04,156.73L58.6,157.79L59.15,156.75L60.81,159.01L61.36,158.08L63.02,153.53L63.57,155.62L64.12,158.64L64.68,155.05L65.23,153.86L65.78,150.53L66.34,152.99L66.89,151.03L68.55,155.84L69.1,153.96L71.31,145.41L71.86,155.62L72.42,154.59L72.97,145.75L73.52,148.74L74.08,145.6L74.63,145.52L75.18,149.97L76.29,153.42L76.84,145.74L77.39,144.62L77.94,147.35L79.6,153.71L80.16,149.53L80.71,142.91L81.26,146.15L81.81,149.04L82.37,132.71L82.92,128.72L83.47,173.28L84.58,141.55L85.13,140.75L85.68,140.52L86.24,138.69L87.9,151.17L88.45,141.47L89,137.65L89.55,138.95L90.11,139.67L91.76,149.61L92.32,137.72L93.42,139.72L93.98,138.99L95.63,150.45L96.19,139.74L96.74,141.22L97.29,139.33L98.95,150.17L99.5,150.52L100.61,127.31L101.16,132.03L101.72,132.26L102.27,137.27L102.82,150.57L103.37,147.71L103.93,133.81L105.03,131.64L105.58,134.21L107.24,151.94L107.8,132.59L108.35,132.65L108.9,133.82L110.01,137.88L110.56,150.54L111.11,148.52L111.67,135.67L112.77,130.22L113.32,136.27L114.43,150.39L114.98,149.64L115.54,136.35L116.09,136.7L116.64,139.71L117.19,145.4L117.75,138.14L118.3,150.99L118.85,150.12L119.4,137.93L119.96,136.94L120.51,140.09L121.06,139.11L121.62,142.75L122.17,154.92L122.72,135.83L123.27,138.98L123.83,137.85L124.38,137.66L125.49,144.59L126.04,154.85L126.59,157.6L127.14,152.65L128.25,140.89L128.8,140.48L129.91,155.19L130.46,151.67L131.57,142.75L132.12,143.22L132.67,141.44L133.22,146.88L133.78,154.43L134.33,153.26L134.88,143.99L135.99,145.57L136.54,145.41L137.65,155.32L138.2,153.67L139.31,145.1L139.86,143.56L140.41,145.14L140.96,150.39L141.52,158.03L142.07,148.76L142.62,145.83L143.18,146.15L143.73,148.34L144.28,147.86L144.83,149.99L145.94,158.07L146.49,155.55L147.6,146.42L148.15,147.4L149.26,156.25L149.81,153.83L150.91,148.86L151.47,149.45L152.02,146.65L152.57,149.33L153.13,156.14L153.68,152.74L154.23,146.66L154.78,147.53L155.34,148.41L155.89,149.67L156.44,155.65L157.55,158.28L158.1,154.89L159.21,149.94L159.76,151.89L160.31,153.2L160.87,157.08L161.42,155.52L161.97,137.86L162.52,148.66L163.08,144.55L163.63,141.99L164.18,148.64L164.73,155.26L165.29,154.27L165.84,143.71L166.39,144.11L166.95,143.51L167.5,141.96L168.05,146.53L168.6,153.11L169.16,152.98L169.71,144.22L170.26,138.82L170.82,140.83L171.37,144.77L171.92,135.16L172.47,151.46L173.03,150.02L173.58,134.89L174.13,136.77L174.69,135.88L175.24,137.2L175.79,141.15L176.34,148.56L176.9,148.24L177.45,137.13L178,133.5L178.55,134.05L179.11,134.59L180.21,150.91L180.77,148.05L182.42,125.95L182.98,134.43L183.53,136.89L184.08,149.6L184.64,147.91L185.19,132.39L185.74,138.26L186.29,131.56L187.4,153.32L187.95,153.27L188.51,148.02L189.06,132.54L190.16,133.56L190.72,150.42L191.27,154.48L191.82,153.5L192.37,149.3L194.03,115.65L194.59,130.83L195.14,135.21L195.69,147.17L196.24,146.25L196.8,128.24L197.35,130.7L197.9,126.15L198.46,125.74L199.01,131.44L200.11,147.22L200.67,129.45L201.22,128.21L201.77,131.17L202.33,132.42L202.88,131.51L203.43,147.44L203.98,146.36L204.54,129.74L205.09,128.05L205.64,130.2L206.19,130.87L206.75,134.29L207.3,147.77L207.85,147.46L208.41,132.59L208.96,133.59L209.51,132.15L210.62,137.93L211.17,148.7L211.72,147.4L212.28,135.3L212.83,130.01L213.38,134.02L214.49,138.7L215.04,146.26L215.59,148.89L216.15,127.78L216.7,137.44L217.25,134.09L217.8,134.8L218.36,134.68L218.91,146.92L219.46,145.66L220.01,128.69L221.12,126.18L221.67,128.79L222.23,131.45L222.78,144.85L223.33,141.09L223.88,130.77L224.99,122.03L225.54,123.92L226.1,126.91L226.65,119.01L227.2,143.13L227.75,124.56L228.31,119.12L228.86,121.47L229.41,118.59L229.97,125.07L230.52,139.46L231.07,138.99L231.62,116.89L232.18,115.28L232.73,115.67L233.28,115.49L234.39,137.32L234.94,132.76L236.05,114.07L236.6,110.14L238.81,139.9L239.36,116.46L239.92,115.24L240.47,115.75L241.02,125.59L242.13,145.41L242.68,139.87L243.79,115.26L244.34,115.33L244.89,115.57L245.44,127.1L246,141.74L246.55,141.49L247.1,118.48L248.21,124.62L248.76,117.56L250.42,143.16L250.97,123.84L251.52,123.12L252.08,136.96L252.63,125.64L253.18,128.58L253.74,144.7L254.29,145.37L254.84,122.13L255.39,121.36L255.95,126L256.5,124.18L257.05,131.52L257.61,147.03L258.16,141.84L258.71,125.5L259.26,121.85L259.82,124.03L260.37,121.6L260.92,129.66L261.47,145.19L262.03,143.28L262.58,125.2L263.69,119.89L264.24,121.02L264.79,126.67L265.34,142.6L265.9,143.65L266.45,122.69L267.56,118.1L268.11,121.71L268.66,126.38L269.21,142.1L269.77,142.65L270.32,123.09L270.87,119.78L271.43,128.18L271.98,133.87L272.53,122.12L273.64,143.11L274.19,120.49L274.74,111.2L275.29,122.01L275.85,139.6L276.4,129.71L277.51,141.45L278.06,132.9L279.16,113.89L279.72,116.53L280.27,123.24L280.82,142.91L281.38,139.86L281.93,116.09L282.48,116.42L283.03,121.78L283.59,111.65L284.14,121.01L284.69,138.85L285.25,138.41L285.8,96.24L286.9,121.71L287.46,122.55L288.56,145.59L289.11,145.55L289.67,127.42L290.22,137.48L290.77,130L291.33,128.69L291.88,133.96L292.43,149.08L292.98,147.75L293.54,129.7L294.64,133.73L295.2,131.43L296.3,152.45L296.85,152.41L297.41,136.72L297.96,132.69L298.51,133.6L299.07,139.74L299.62,136.47L300.17,153.74L300.72,153.73L301.28,146.03L301.83,132.83L302.38,136.66L302.93,105.4L304.04,152.93L304.59,151.23L305.7,137.53L306.25,140.59L306.8,141.1L307.36,143.93L308.46,152.6L309.02,145.31L309.57,141.01L310.12,141.58L310.67,139.87L311.23,141.55L311.78,155.26L312.33,154.38L312.89,143.73L313.99,143.52L314.54,145.05L315.1,147.02L315.65,155.33L316.2,152.96L316.75,141.83L317.31,141.21L317.86,143.43L318.41,144.39L318.97,149.15L319.52,155.23L320.07,154.32L320.62,145.68L322.28,147.85L322.84,150.42L323.39,156.67L323.94,155.85L324.49,148.33L325.05,148.92L325.6,148.24L327.81,157.25L328.36,155.42L328.92,155.11L329.47,145.14L330.57,155.33L331.13,158.49L331.68,158.07L332.23,155.43L332.79,155.59L333.34,143.73L333.89,143.79L334.44,95.91L335,157.79L335.55,157.73L336.1,154.47L336.66,145.27L337.21,149.37L338.87,157.96L339.42,157.69L341.08,150.95L341.63,153.03L342.74,157.8L343.29,156.53L343.84,150.85L344.39,152.77L344.95,154.88L345.5,152.78L346.05,154.78L347.16,158.95L347.71,158.76L348.26,158.22L348.82,154.55L349.37,155.05L349.92,157.47L350.48,159.38L351.03,157.71L352.69,153.61L353.24,155.53L353.79,156.33L354.35,160.27L356,153.53L356.56,155.37L357.66,157.34L358.21,159.41L358.77,160.22L359.32,159.53L359.87,153.97L360.43,155.61L360.98,155.74L361.53,156.72L362.08,159.67L362.64,159.01L363.19,156.38L364.3,154.38L364.85,154.88L366.51,161.23L367.06,159.18L367.61,155.68L368.17,156.59L368.72,156.08L370.38,160.48L370.93,156.04L372.59,156.87L373.14,158.25L373.69,160.8L374.25,160.29L374.8,157.19L375.9,156.31L376.46,157.01L377.56,160.18L378.12,159.47L379.22,157.27L379.77,158.01L380.33,158.91L380.88,161.26L381.43,161.83L381.99,161.21L383.09,159.98L383.64,160.73L384.2,160.36L384.75,161.42L385.3,161.91L385.85,161.28L386.96,160.97L387.51,160.67L388.62,160.73L389.17,160.04L391.38,155.94L391.94,157.24L393.04,161.73L393.59,156.46L395.25,143.53L395.81,128.84L396.91,146.83L397.46,144.55L398.02,123.51L399.67,103.27L400.23,136.72L400.78,144.9L401.33,122.91L402.44,58.11L402.99,71.89L403.54,71.07L404.1,74.39L405.2,115.83L405.76,55.57L407.41,23.21L407.97,52.74L409.07,107.67L409.63,71.1L410.18,63.24L410.73,9.12L412.39,129.61L412.94,125.46L413.49,67.77L414.05,66.74L414.6,75.71L415.15,75.1L415.71,90.52L416.26,131.34L416.81,130.94L417.36,95.73L417.92,86.47L418.47,98.45L419.02,92.03L419.58,106.47L420.68,141.15L421.23,107.34L421.79,92.43L422.34,111.4L422.89,114.33L423.45,125.32L424.55,152.12L425.1,150.78L425.66,147.91L426.21,130.51L426.76,124.52L427.31,129.13L427.87,154.28L428.42,151.3L428.97,122.86L429.53,138.21L430.08,130.01L431.18,137.13L431.74,155.31L432.29,153.86L432.84,136.12L433.95,139.14L434.5,134.89L436.16,156.13L436.71,140.47L437.27,137.71L437.82,142.79L438.92,147L439.48,157L440.03,158.47L440.58,146.89L441.13,144.82L441.69,146.08L442.79,153.57L443.35,158.84L443.9,155.97L444.45,148.3L445.56,148.66L446.11,146.53L447.22,158.84L447.77,158.45L448.32,150.73L448.87,148.44L449.43,150.34L451.09,161.33L451.64,158.16L452.19,155.14L452.74,143.04L454.4,158.89L454.96,160.74L455.51,159.24L456.06,150.85L457.17,152.04L457.72,155.14L458.27,154.57L458.82,159.34L459.38,159.22L459.93,151.23L460.48,151.96L461.04,151.1L461.59,152.14L462.14,154.87L462.69,159.48L463.25,157.5L464.35,150.18L464.91,151.28L465.46,149L466.01,153.41L466.56,159.33L467.12,155.47L468.22,162.69L468.78,162.69L469.33,130.33L469.88,162.69L470.43,147.29L470.99,155.86L471.54,145.14L472.09,155L473.2,140.96L473.75,149.73L474.3,158.31L474.86,149.81L475.41,140.56L475.96,140.78L476.51,140.62L477.07,143.34L477.62,162.69L478.17,162.69L478.73,131.87L479.28,124.7L479.83,136.16L480.38,138.59L480.94,132.48L482.04,156.42L482.6,141.21L483.15,138.92L483.7,125.1L484.81,162.69L485.36,162.69L485.91,162.69L486.46,86.38L487.02,128.27L487.57,124.24L488.12,124.16L488.68,130.4L489.23,162.69L489.78,162.69L490.33,105.39L490.89,121.71L491.44,162.69L491.99,81.9L492.55,122.02L493.65,152.76L494.2,138.36L495.31,121.42L495.86,124.16L496.42,124.66L496.97,139.34L497.52,150.95L498.07,139.14L499.18,124.07L499.73,127.73L500.28,104.95L500.84,141.22L501.39,156.89L501.94,142L502.5,131.67L503.05,132.49L503.6,135.19L504.15,136.06L504.71,162.69L505.26,143.53L505.81,146.32L506.37,142.42L507.47,138.84L508.02,140.38L509.13,151.83L509.68,150.89L510.24,144.26L510.79,144.71L511.34,141.07L513,158.84L513.55,153.38L514.1,146.53L514.66,162.69L515.21,131.36L515.76,150.1L516.87,162.69L517.42,146.59L518.53,150.97L519.08,150.84L519.63,152.6L520.19,162.69L520.74,162.69L521.29,151.66L521.84,162.69L522.4,138.77L524.06,162.69L524.61,162.69L525.16,147.56L525.71,153.7L526.27,154.22L526.82,162.69L527.37,148.63L527.92,162.69L528.48,162.69L529.03,151.25L530.14,162.69L530.69,162.69L531.24,141.73L531.79,162.69L532.35,162.69L532.9,153.48L533.45,157.12L534.01,154.92L535.66,162.69L536.22,162.69L536.77,150.22L537.32,162.77L537.88,162.69L538.43,149.52L539.53,162.69L540.09,162.69L540.64,155.28L541.19,162.69L541.74,154.19L542.3,162.69L542.85,152.89L543.4,162.69L543.96,162.69L544.51,156.27L545.06,162.69L545.61,154.94L547.27,162.69L547.83,162.69L548.38,153.62L548.93,158.76L549.48,162.69L550.04,158.24L550.59,159.16L551.14,162.69L552.8,162.69L553.35,149.4L553.91,162.69L554.46,157.8L555.56,162.69L556.12,160.91L556.67,154.38L557.22,158.55L557.78,158.32L558.33,162.69L559.43,162.69L559.99,155.48L561.09,162.69L561.65,157.73L562.75,162.69L563.3,162.69L563.86,159.25L564.41,162.69L564.96,162.69L565.52,144.46L567.17,162.69L567.73,162.69L568.28,162.69L568.83,146.72L569.38,145.06L569.94,147.48L571.04,162.69L571.6,162.69L572.15,134.53L572.7,146.71L573.25,150.28L573.81,139.02L574.91,162.69L575.47,162.69L576.02,120.93L576.57,162.69L577.12,122.83L577.68,143.76L578.78,162.69L579.34,131.33L580.44,162.69L580.99,90.21L582.1,162.69L582.65,162.69L583.2,102.76L583.76,134.27L584.31,133.55L584.86,131.45L585.42,130.77L585.97,162.69L586.52,162.69L587.07,122.29L588.18,139.87L588.73,136.81L589.84,162.69L590.39,162.69L590.94,110.52L591.5,143.49L592.05,142.14L592.6,142.53L593.16,147.25L594.26,162.69L594.81,146.07L595.37,162.69L595.92,130.19L596.47,162.69L597.02,133.77L598.13,162.69L598.68,162.69L599.24,122.46L599.79,148.56L600.34,152.49L600.89,150.69L602,160.8" style="vector-effect: non-scaling-stroke; fill: none; stroke: rgb(31, 119, 180); stroke-opacity: 1; stroke-width: 2px; opacity: 1;"/></g><g class="points"/><g class="text"/></g></g></g><g class="overplot"/><path class="xlines-above crisp" style="fill: none;" d="M0,0"/><path class="ylines-above crisp" style="fill: none;" d="M0,0"/><g class="overlines-above"/><g class="xaxislayer-above"><g class="xtick"><text text-anchor="middle" x="0" y="255.4" transform="translate(147,0)" style="font-family: 'Open Sans', verdana, arial, sans-serif; font-size: 12px; fill: rgb(68, 68, 68); fill-opacity: 1; white-space: pre; opacity: 1;">Jul 2020</text></g><g class="xtick"><text text-anchor="middle" x="0" y="255.4" style="font-family: 'Open Sans', verdana, arial, sans-serif; font-size: 12px; fill: rgb(68, 68, 68); fill-opacity: 1; white-space: pre; opacity: 1;" transform="translate(248.72,0)">Jan 2021</text></g><g class="xtick"><text text-anchor="middle" x="0" y="255.4" style="font-family: 'Open Sans', verdana, arial, sans-serif; font-size: 12px; fill: rgb(68, 68, 68); fill-opacity: 1; white-space: pre; opacity: 1;" transform="translate(348.77,0)">Jul 2021</text></g><g class="xtick"><text text-anchor="middle" x="0" y="255.4" style="font-family: 'Open Sans', verdana, arial, sans-serif; font-size: 12px; fill: rgb(68, 68, 68); fill-opacity: 1; white-space: pre; opacity: 1;" transform="translate(450.49,0)">Jan 2022</text></g><g class="xtick"><text text-anchor="middle" x="0" y="255.4" style="font-family: 'Open Sans', verdana, arial, sans-serif; font-size: 12px; fill: rgb(68, 68, 68); fill-opacity: 1; white-space: pre; opacity: 1;" transform="translate(550.55,0)">Jul 2022</text></g><g class="xtick"><text text-anchor="middle" x="0" y="255.4" style="font-family: 'Open Sans', verdana, arial, sans-serif; font-size: 12px; fill: rgb(68, 68, 68); fill-opacity: 1; white-space: pre; opacity: 1;" transform="translate(652.26,0)">Jan 2023</text></g></g><g class="yaxislayer-above"><g class="ytick"><text text-anchor="end" x="57" y="4.199999999999999" transform="translate(0,222.69)" style="font-family: 'Open Sans', verdana, arial, sans-serif; font-size: 12px; fill: rgb(68, 68, 68); fill-opacity: 1; white-space: pre; opacity: 1;">0</text></g><g class="ytick"><text text-anchor="end" x="57" y="4.199999999999999" style="font-family: 'Open Sans', verdana, arial, sans-serif; font-size: 12px; fill: rgb(68, 68, 68); fill-opacity: 1; white-space: pre; opacity: 1;" transform="translate(0,169.20999999999998)">100k</text></g><g class="ytick"><text text-anchor="end" x="57" y="4.199999999999999" style="font-family: 'Open Sans', verdana, arial, sans-serif; font-size: 12px; fill: rgb(68, 68, 68); fill-opacity: 1; white-space: pre; opacity: 1;" transform="translate(0,115.72999999999999)">200k</text></g><g class="ytick"><text text-anchor="end" x="57" y="4.199999999999999" style="font-family: 'Open Sans', verdana, arial, sans-serif; font-size: 12px; fill: rgb(68, 68, 68); fill-opacity: 1; white-space: pre; opacity: 1;" transform="translate(0,62.25)">300k</text></g></g><g class="overaxes-above"/></g><g class="subplot x2y2"><g class="layer-subplot"><g class="shapelayer"/><g class="imagelayer"/></g><g class="gridlayer"><g class="x2"><path class="x2grid crisp" transform="translate(147,0)" d="M0,257.6v182.4" style="stroke: rgb(238, 238, 238); stroke-opacity: 1; stroke-width: 1px;"/><path class="x2grid crisp" transform="translate(248.72,0)" d="M0,257.6v182.4" style="stroke: rgb(238, 238, 238); stroke-opacity: 1; stroke-width: 1px;"/><path class="x2grid crisp" transform="translate(348.77,0)" d="M0,257.6v182.4" style="stroke: rgb(238, 238, 238); stroke-opacity: 1; stroke-width: 1px;"/><path class="x2grid crisp" transform="translate(450.49,0)" d="M0,257.6v182.4" style="stroke: rgb(238, 238, 238); stroke-opacity: 1; stroke-width: 1px;"/><path class="x2grid crisp" transform="translate(550.55,0)" d="M0,257.6v182.4" style="stroke: rgb(238, 238, 238); stroke-opacity: 1; stroke-width: 1px;"/><path class="x2grid crisp" transform="translate(652.26,0)" d="M0,257.6v182.4" style="stroke: rgb(238, 238, 238); stroke-opacity: 1; stroke-width: 1px;"/></g><g class="y2"><path class="y2grid crisp" transform="translate(0,388.92)" d="M58,0h602" style="stroke: rgb(238, 238, 238); stroke-opacity: 1; stroke-width: 1px;"/><path class="y2grid crisp" transform="translate(0,350.1)" d="M58,0h602" style="stroke: rgb(238, 238, 238); stroke-opacity: 1; stroke-width: 1px;"/><path class="y2grid crisp" transform="translate(0,311.28000000000003)" d="M58,0h602" style="stroke: rgb(238, 238, 238); stroke-opacity: 1; stroke-width: 1px;"/><path class="y2grid crisp" transform="translate(0,272.47)" d="M58,0h602" style="stroke: rgb(238, 238, 238); stroke-opacity: 1; stroke-width: 1px;"/></g></g><g class="zerolinelayer"><path class="y2zl zl crisp" transform="translate(0,427.74)" d="M58,0h602" style="stroke: rgb(68, 68, 68); stroke-opacity: 1; stroke-width: 1px;"/></g><path class="xlines-below"/><path class="ylines-below"/><g class="overlines-below"/><g class="xaxislayer-below"/><g class="yaxislayer-below"/><g class="overaxes-below"/><g class="plot" transform="translate(58,257.6)" clip-path="url(#clip7aa90cx2y2plot)"><g class="scatterlayer mlayer"><g class="trace scatter trace81d16d" style="stroke-miterlimit: 2; opacity: 1;"><g class="fills"/><g class="errorbars"/><g class="lines"><path class="js-line" d="M0,170.14L36.48,169.4L37.04,169.17L37.59,169.24L38.14,168.51L38.7,168.62L39.25,166.88L39.8,168.78L40.35,166.8L40.91,168.54L41.46,167.11L42.57,164.97L43.12,165.05L44.22,167.53L44.78,166.29L45.33,166.06L45.88,162.22L46.99,162.84L47.54,161.71L48.09,161.87L48.65,165.94L50.3,163.73L50.86,153.64L52.52,161.25L53.07,157.83L53.62,151.5L54.17,153.44L54.73,151L56.39,158.88L56.94,157.87L58.04,144.9L58.6,146.77L59.15,138.03L59.7,145.33L60.26,152.01L60.81,149.56L61.36,138.77L61.91,139.9L62.47,140.67L63.02,132.75L63.57,142.96L64.12,152.43L64.68,141.6L65.23,126.27L65.78,128.37L66.34,128.64L66.89,130.11L67.44,129.53L67.99,144.59L68.55,141.92L69.1,129.22L69.65,128.95L70.21,123.94L70.76,126L71.31,136.6L71.86,151.85L72.42,141.37L72.97,117.15L73.52,123.79L74.08,111.52L75.73,151.66L76.29,136.64L77.39,122.08L77.94,120.91L78.5,137.41L79.05,136.87L79.6,145.53L80.16,140.48L80.71,118.43L81.26,124.14L81.81,122.04L82.37,124.64L83.47,147.51L84.03,140.56L84.58,115.56L85.13,127.28L85.68,124.33L86.24,131.59L86.79,130.11L87.34,147.08L87.9,142.11L88.45,119.01L89,127.98L89.55,121.26L90.11,123.05L90.66,128.99L91.21,148.48L91.76,143.55L92.32,119.67L92.87,124.6L93.42,122.7L93.98,119.75L94.53,133.96L95.08,146.19L95.63,137.72L96.19,119.91L96.74,120.45L97.29,119.71L98.95,142.65L99.5,140.32L100.06,119.01L100.61,119.83L101.16,119.17L102.27,127.48L102.82,147.58L103.37,143.55L103.93,121.3L105.03,123.48L105.58,120.95L106.69,149.8L107.24,146.77L107.8,117.42L108.35,117.11L108.9,122.55L110.01,138.03L110.56,148.05L111.67,123.79L112.22,124.18L112.77,121.92L114.43,147.35L114.98,139.24L115.54,117.65L116.09,124.99L116.64,122.12L118.3,152.47L118.85,142.07L119.4,123.44L119.96,128.25L120.51,131.9L121.06,137.18L121.62,135.32L122.17,154.57L123.83,123.4L124.38,136.48L124.93,137.18L125.49,146.69L126.59,157.71L127.14,149.76L127.7,125.22L128.25,132.33L128.8,137.22L129.36,140.36L129.91,154.41L130.46,152.36L131.01,128.14L133.22,143.7L133.78,156.51L134.33,152.05L134.88,139.31L135.44,133.96L135.99,139.28L136.54,138.23L137.09,142.11L137.65,156.98L138.2,154.96L138.75,136.83L139.31,132.02L139.86,140.13L141.52,156.24L142.07,154.88L142.62,138.69L144.83,149.41L145.39,159.34L145.94,162.61L146.49,155.46L147.6,138.54L148.15,145.18L149.26,161.01L149.81,157.48L150.36,144.98L150.91,147.97L151.47,150.53L152.02,148.28L152.57,155.11L153.13,161.09L153.68,158.41L154.23,149.72L154.78,150.57L155.34,148.75L155.89,147.89L156.44,158.8L157.55,163.73L158.1,158.96L158.65,146.15L159.21,146.73L159.76,159.62L161.42,162.92L161.97,162.45L163.08,133.92L163.63,147.78L164.18,141.64L164.73,164.7L165.29,160.16L165.84,143.82L166.39,140.87L166.95,144.9L168.6,163.23L169.16,156.36L169.71,145.8L170.26,145.95L170.82,142.58L172.47,161.09L173.03,156.51L173.58,143.55L174.13,143.78L174.69,140.6L175.79,145.02L176.34,156.94L176.9,153.64L177.45,139.16L178,137.02L178.55,140.28L179.11,144.48L179.66,143.86L180.21,158.68L181.87,133.61L182.42,128.95L184.08,153.87L184.64,148.36L185.19,132.52L185.74,132.68L186.29,140.63L187.4,158.65L187.95,157.05L188.51,149.25L189.06,129.34L189.61,122.89L190.16,130.7L191.27,158.76L191.82,158.06L194.03,111.21L194.59,128.17L195.14,130.97L195.69,151.12L196.24,151.08L196.8,126.47L197.35,121.07L197.9,125.34L198.46,126.08L199.01,130.77L200.11,151.66L200.67,125.11L201.22,115.99L201.77,117.85L202.33,128.56L202.88,125.69L203.43,147.04L203.98,143.35L204.54,125.3L205.64,114.32L206.19,127.94L206.75,123.87L207.3,148.09L207.85,145.95L208.41,121.19L208.96,123.59L209.51,120.6L210.06,121.57L210.62,133.76L211.17,151.15L211.72,142.15L212.83,117.3L213.38,114.16L215.59,146.42L216.15,127.75L216.7,123.98L217.25,114.28L217.8,118.47L218.36,130.11L218.91,146.61L219.46,142.54L220.01,117.38L221.12,109L221.67,118L222.23,121.54L222.78,140.13L223.33,137.99L223.88,103.33L224.44,98.4L224.99,99.95L225.54,103.6L226.65,127.51L227.2,126.58L227.75,94.4L228.31,77.71L228.86,84.93L229.97,94.21L230.52,128.6L231.07,118.35L231.62,59.51L232.18,66.84L232.73,64.4L233.28,67.04L233.83,78.22L234.39,121.73L234.94,107.91L235.49,47.98L236.05,80.2L236.6,67.11L237.15,33.89L237.7,37.81L238.26,108.73L238.81,92L239.36,28.26L239.92,17.78L240.47,28.26L242.13,121.92L242.68,95.92L243.23,12.23L243.79,27.64L244.34,9.12L244.89,24.49L245.44,77.83L246.55,103.72L247.1,24.3L247.65,36.41L248.21,34.62L248.76,40.6L249.31,58.46L249.87,111.06L250.42,101.97L250.97,40.21L251.52,46.04L252.08,90.52L252.63,52.05L253.18,62.77L253.74,118.35L254.29,116.57L254.84,50.54L255.39,53.22L255.95,52.44L256.5,59.08L258.16,126.47L258.71,54.5L260.92,89.32L261.47,134.35L262.03,127.01L262.58,82.99L263.13,69.95L263.69,81.75L264.79,92.46L265.34,128.95L265.9,128.02L266.45,74.99L267.56,72.66L268.11,87.61L269.77,136.67L270.32,85.36L270.87,74.53L271.43,88.58L271.98,75.96L272.53,94.79L273.08,134.7L273.64,132.64L274.19,79.54L274.74,72.78L275.29,95.84L275.85,123.9L276.4,105.31L276.95,135.98L277.51,125.53L278.06,67.35L278.61,77.28L279.16,72.9L280.27,93.51L280.82,126.66L281.38,130.54L281.93,65.91L282.48,65.25L283.03,80.31L283.59,74.02L284.14,84.54L285.25,132.06L285.8,88.5L286.35,82.21L286.9,91.03L287.46,92.19L288.01,111.25L289.11,142.42L289.67,94.91L290.22,90.02L290.77,95.14L291.33,97.31L291.88,106.63L292.43,140.21L292.98,139.51L293.54,101.86L294.09,108.61L294.64,103.1L295.75,125.18L296.3,148.2L296.85,139.78L297.41,105.74L297.96,110.51L298.51,107.68L299.62,120.8L300.17,151.46L300.72,144.21L301.28,116.61L302.38,114.59L302.93,120.02L303.49,128.17L304.04,151.54L304.59,145.87L305.15,120.1L305.7,116.84L306.25,118.08L306.8,135.78L307.36,133.3L307.91,154.03L308.46,149.02L309.02,122.12L310.67,132.91L311.23,131.36L311.78,155.04L312.33,150.42L312.89,120.91L314.54,135.51L315.1,134.73L315.65,155.04L316.2,154.07L316.75,127.67L318.41,135.43L318.97,146.42L319.52,157.21L320.07,153.95L320.62,136.79L321.18,135.7L321.73,136.33L322.28,138.38L322.84,145.72L323.39,159.34L323.94,157.79L324.49,135.94L325.05,143.08L325.6,139.78L326.71,145.37L327.26,159.62L327.81,161.6L328.36,157.44L328.92,160.47L329.47,138.15L331.68,159.11L332.23,143.82L332.79,139.04L333.34,144.4L334.44,147.39L335,160.51L335.55,159.85L336.1,144.01L336.66,144.32L337.21,145.72L337.76,143.74L338.31,149.17L339.42,162.61L339.97,138.42L342.74,161.36L343.29,162.22L343.84,143.58L344.39,148.01L344.95,153.52L345.5,145.68L346.05,153.99L346.61,164.27L347.16,162.1L347.71,163.34L348.26,162.14L348.82,147.93L349.92,152.09L350.48,165.17L352.69,152.05L353.24,152.78L354.35,165.52L354.9,162.1L356,153.25L356.56,155.66L357.11,154.3L357.66,161.75L358.77,166.14L359.32,164.24L359.87,162.76L360.43,153.29L361.53,158.37L362.08,167.42L363.74,159.69L364.3,160.82L364.85,146.03L365.4,158.22L365.95,167.61L366.51,167.42L367.06,164.58L367.61,155.5L368.17,159.58L369.27,162.1L369.82,166.41L370.38,165.24L370.93,158.68L371.48,159.62L372.03,158.96L372.59,158.3L373.14,161.32L373.69,167.03L374.25,165.56L374.8,157.48L375.9,162.53L376.46,161.05L377.56,167.38L378.12,165.01L378.67,160L379.22,160.82L379.77,162.37L380.33,161.29L380.88,168.08L381.43,166.95L381.99,168.39L382.54,165.75L383.09,158.57L383.64,165.36L384.2,162.45L385.3,168L385.85,166.91L386.41,167.38L386.96,164.47L387.51,165.24L388.07,163.81L388.62,168.93L389.17,168.35L389.72,167.61L390.28,163.11L390.83,165.59L391.38,164.16L391.94,166.84L393.04,168.82L393.59,167.34L394.15,163.11L394.7,170.14L395.25,170.14L395.81,163.61L396.36,165.67L396.91,157.95L397.46,165.67L398.02,164.66L398.57,164.93L399.67,161.09L400.23,163.54L400.78,166.49L401.33,164.27L401.89,157.52L402.44,157.64L402.99,156.51L403.54,154.65L404.1,157.87L404.65,163.19L405.2,159.81L406.86,144.01L407.41,139.86L407.97,142.96L408.52,159.27L410.73,131.32L411.28,132.72L411.84,137.92L412.39,153.87L412.94,153.37L413.49,124.64L414.05,119.56L414.6,134.54L415.15,126.31L415.71,136.02L416.26,157.44L416.81,151.58L417.36,134.23L419.02,124.18L419.58,136.95L420.68,157.48L421.23,138.42L422.34,131.75L422.89,139.35L423.45,143.43L424,160.31L425.1,160.59L425.66,157.25L426.76,143.04L427.31,143.2L428.42,161.98L428.97,151.27L429.53,145.56L430.08,146.34L430.63,152.16L431.18,154.96L431.74,165.28L433.95,152.2L434.5,154.41L436.16,166.25L436.71,154.22L437.27,159.23L437.82,157.95L438.37,160.24L440.03,167.5L440.58,159.23L442.24,160.7L442.79,166.02L443.35,168.62L443.9,163.92L444.45,161.75L445,162.61L445.56,160.51L447.22,168.66L447.77,167.69L448.32,163.73L448.87,163.81L449.43,164.74L449.98,165.83L450.53,168.93L451.09,169.28L451.64,167.65L452.74,159.93L453.3,166.56L454.4,168.08L454.96,168.74L456.06,164.55L456.61,160.74L457.17,165.71L457.72,162.95L458.82,169.51L459.38,166.8L459.93,166.56L460.48,167.65L461.59,162.57L462.14,168.78L462.69,169.63L463.25,168.12L463.8,162.45L464.35,165.24L465.46,164.78L466.01,166.56L466.56,168.35L467.12,167.57L468.22,170.14L468.78,170.14L469.33,150.49L469.88,170.21L470.43,164.93L470.99,168.7L471.54,160.9L472.09,165.01L472.64,173.28L473.2,164.74L474.3,167.73L474.86,167.69L475.41,163.92L475.96,165.28L476.51,165.13L477.62,170.14L478.17,170.14L478.73,167.42L479.28,158.22L479.83,158.53L480.38,164.58L480.94,163.54L481.49,165.71L482.04,168.74L482.6,167.42L483.7,156.98L484.25,170.14L485.91,170.14L486.46,151.97L487.57,164.7L488.12,155.97L488.68,157.17L489.23,170.14L489.78,170.14L490.33,158.37L490.89,157.87L491.44,170.14L491.99,148.09L492.55,159.11L493.65,168.08L494.2,165.4L494.76,154.76L495.31,156.12L495.86,159.15L496.42,159.81L496.97,161.79L497.52,167.96L498.07,164.39L499.18,155.39L499.73,158.61L500.28,158.06L500.84,162.18L501.39,168L501.94,163.61L502.5,156.43L503.05,156.7L503.6,159.69L504.15,159.27L504.71,170.14L506.37,156.51L506.92,158.1L508.58,163.42L509.13,169.05L510.24,158.68L510.79,159.85L511.34,160L511.89,161.52L512.45,163.11L513,167.92L514.1,155.97L514.66,170.14L515.21,151.7L515.76,160.55L516.87,170.14L517.42,158.34L517.97,162.14L518.53,160.55L519.63,164.62L520.19,170.14L520.74,170.14L521.29,162.72L521.84,170.14L522.4,149.68L522.95,164.04L523.5,163.77L524.06,170.14L524.61,170.14L525.16,161.4L525.71,161.25L526.27,165.71L526.82,170.14L527.37,158.61L528.48,170.14L529.03,163.81L530.14,170.14L530.69,170.14L531.24,155.07L531.79,170.14L532.35,170.14L532.9,166.84L534.01,165.52L534.56,166.95L535.66,170.14L536.22,170.14L536.77,161.56L537.32,169.98L537.88,170.14L538.43,160.47L539.53,170.14L540.09,170.14L540.64,166.84L541.19,170.14L541.74,166.56L542.3,170.14L542.85,165.9L543.4,170.14L543.96,170.14L544.51,157.13L545.06,170.14L545.61,162.29L547.27,170.14L547.83,170.14L548.38,163.5L548.93,166.8L549.48,170.14L550.04,166.02L551.7,170.14L552.25,170.14L552.8,170.14L553.35,159.31L553.91,170.14L554.46,166.1L555.56,170.14L556.12,168.31L557.22,162.49L557.78,168L558.88,170.14L559.43,170.14L559.99,162.57L560.54,167.73L561.09,170.14L561.65,168.27L562.2,167.61L562.75,170.14L563.3,170.14L563.86,167.69L564.96,170.14L565.52,161.91L566.62,170.14L567.17,170.14L568.28,170.14L568.83,165.94L571.04,170.14L571.6,170.14L572.15,160.51L572.7,165.59L573.25,167.42L573.81,166.25L574.91,170.14L575.47,170.14L576.02,161.48L576.57,170.14L577.12,159.27L577.68,165.13L578.78,170.14L579.34,164.12L580.44,170.14L580.99,152.75L582.1,170.14L582.65,170.14L583.2,157.02L583.76,163.81L584.31,159.62L584.86,162.26L585.42,164L585.97,170.14L586.52,170.14L587.07,161.17L587.63,160.86L588.18,163.11L588.73,162.72L589.29,170.14L590.39,170.14L590.94,157.83L591.5,161.21L592.05,156.04L593.71,170.14L594.26,170.14L594.81,165.17L595.37,170.14L595.92,153.44L596.47,170.14L597.02,155.85L597.58,170.14L598.68,170.14L599.24,162.14L599.79,166.14L600.34,164.39L602,170.06" style="vector-effect: non-scaling-stroke; fill: none; stroke: rgb(255, 0, 0); stroke-opacity: 1; stroke-width: 2px; opacity: 1;"/></g><g class="points"/><g class="text"/></g></g></g><g class="overplot"/><path class="xlines-above crisp" style="fill: none;" d="M0,0"/><path class="ylines-above crisp" style="fill: none;" d="M0,0"/><g class="overlines-above"/><g class="xaxislayer-above"><g class="x2tick"><text text-anchor="middle" x="0" y="453" transform="translate(147,0)" style="font-family: 'Open Sans', verdana, arial, sans-serif; font-size: 12px; fill: rgb(68, 68, 68); fill-opacity: 1; white-space: pre; opacity: 1;">Jul 2020</text></g><g class="x2tick"><text text-anchor="middle" x="0" y="453" style="font-family: 'Open Sans', verdana, arial, sans-serif; font-size: 12px; fill: rgb(68, 68, 68); fill-opacity: 1; white-space: pre; opacity: 1;" transform="translate(248.72,0)">Jan 2021</text></g><g class="x2tick"><text text-anchor="middle" x="0" y="453" style="font-family: 'Open Sans', verdana, arial, sans-serif; font-size: 12px; fill: rgb(68, 68, 68); fill-opacity: 1; white-space: pre; opacity: 1;" transform="translate(348.77,0)">Jul 2021</text></g><g class="x2tick"><text text-anchor="middle" x="0" y="453" style="font-family: 'Open Sans', verdana, arial, sans-serif; font-size: 12px; fill: rgb(68, 68, 68); fill-opacity: 1; white-space: pre; opacity: 1;" transform="translate(450.49,0)">Jan 2022</text></g><g class="x2tick"><text text-anchor="middle" x="0" y="453" style="font-family: 'Open Sans', verdana, arial, sans-serif; font-size: 12px; fill: rgb(68, 68, 68); fill-opacity: 1; white-space: pre; opacity: 1;" transform="translate(550.55,0)">Jul 2022</text></g><g class="x2tick"><text text-anchor="middle" x="0" y="453" style="font-family: 'Open Sans', verdana, arial, sans-serif; font-size: 12px; fill: rgb(68, 68, 68); fill-opacity: 1; white-space: pre; opacity: 1;" transform="translate(652.26,0)">Jan 2023</text></g></g><g class="yaxislayer-above"><g class="y2tick"><text text-anchor="end" x="57" y="4.199999999999999" transform="translate(0,427.74)" style="font-family: 'Open Sans', verdana, arial, sans-serif; font-size: 12px; fill: rgb(68, 68, 68); fill-opacity: 1; white-space: pre; opacity: 1;">0</text></g><g class="y2tick"><text text-anchor="end" x="57" y="4.199999999999999" style="font-family: 'Open Sans', verdana, arial, sans-serif; font-size: 12px; fill: rgb(68, 68, 68); fill-opacity: 1; white-space: pre; opacity: 1;" transform="translate(0,388.92)">1000</text></g><g class="y2tick"><text text-anchor="end" x="57" y="4.199999999999999" style="font-family: 'Open Sans', verdana, arial, sans-serif; font-size: 12px; fill: rgb(68, 68, 68); fill-opacity: 1; white-space: pre; opacity: 1;" transform="translate(0,350.1)">2000</text></g><g class="y2tick"><text text-anchor="end" x="57" y="4.199999999999999" style="font-family: 'Open Sans', verdana, arial, sans-serif; font-size: 12px; fill: rgb(68, 68, 68); fill-opacity: 1; white-space: pre; opacity: 1;" transform="translate(0,311.28000000000003)">3000</text></g><g class="y2tick"><text text-anchor="end" x="57" y="4.199999999999999" style="font-family: 'Open Sans', verdana, arial, sans-serif; font-size: 12px; fill: rgb(68, 68, 68); fill-opacity: 1; white-space: pre; opacity: 1;" transform="translate(0,272.47)">4000</text></g></g><g class="overaxes-above"/></g></g><g class="polarlayer"/><g class="ternarylayer"/><g class="geolayer"/><g class="funnelarealayer"/><g class="pielayer"/><g class="iciclelayer"/><g class="treemaplayer"/><g class="sunburstlayer"/><g class="glimages"/><defs id="topdefs-7aa90c"><g class="clips"/><clipPath id="legend7aa90c"><rect width="108" height="48" x="0" y="0"/></clipPath></defs><g class="layer-above"><g class="imagelayer"/><g class="shapelayer"/></g><g class="infolayer"><g class="legend" pointer-events="all" transform="translate(88.1,60)"><rect class="bg" shape-rendering="crispEdges" style="stroke: rgb(68, 68, 68); stroke-opacity: 1; fill: rgb(255, 255, 255); fill-opacity: 1; stroke-width: 0px;" width="108" height="48" x="0" y="0"/><g class="scrollbox" transform="" clip-path="url(#legend7aa90c)"><g class="groups"><g class="traces" style="opacity: 1;" transform="translate(0,14.5)"><text class="legendtext" text-anchor="start" x="40" y="4.680000000000001" style="font-family: 'Open Sans', verdana, arial, sans-serif; font-size: 12px; fill: rgb(68, 68, 68); fill-opacity: 1; white-space: pre;">Confirmed</text><g class="layers" style="opacity: 1;"><g class="legendfill"/><g class="legendlines"><path class="js-line" d="M5,0h30" style="fill: none; stroke: rgb(31, 119, 180); stroke-opacity: 1; stroke-width: 2px;"/></g><g class="legendsymbols"><g class="legendpoints"/></g></g><rect class="legendtoggle" x="0" y="-9.5" width="102.1875" height="19" style="fill: rgb(0, 0, 0); fill-opacity: 0;"/></g><g class="traces" style="opacity: 1;" transform="translate(0,33.5)"><text class="legendtext" text-anchor="start" x="40" y="4.680000000000001" style="font-family: 'Open Sans', verdana, arial, sans-serif; font-size: 12px; fill: rgb(68, 68, 68); fill-opacity: 1; white-space: pre;">Death</text><g class="layers" style="opacity: 1;"><g class="legendfill"/><g class="legendlines"><path class="js-line" d="M5,0h30" style="fill: none; stroke: rgb(255, 0, 0); stroke-opacity: 1; stroke-width: 2px;"/></g><g class="legendsymbols"><g class="legendpoints"/></g></g><rect class="legendtoggle" x="0" y="-9.5" width="102.1875" height="19" style="fill: rgb(0, 0, 0); fill-opacity: 0;"/></g></g></g><rect class="scrollbar" rx="20" ry="3" width="0" height="0" style="fill: rgb(128, 139, 164); fill-opacity: 1;" x="0" y="0"/></g><g class="g-gtitle"><text class="gtitle" x="350" y="30" text-anchor="middle" dy="0em" style="font-family: 'Open Sans', verdana, arial, sans-serif; font-size: 17px; fill: rgb(68, 68, 68); opacity: 1; font-weight: normal; white-space: pre;">Brazil - Daily Confirmed and Death Cases</text></g><g class="g-xtitle"/><g class="g-x2title"><text class="x2title" x="359" y="492" text-anchor="middle" style="font-family: 'Open Sans', verdana, arial, sans-serif; font-size: 14px; fill: rgb(68, 68, 68); opacity: 1; font-weight: normal; white-space: pre;">Source: Johns Hopkins University Center for Systems Science and Engineering</text></g><g class="g-ytitle"><text class="ytitle" transform="rotate(-90,20,151.2)" x="20" y="151.2" text-anchor="middle" style="font-family: 'Open Sans', verdana, arial, sans-serif; font-size: 14px; fill: rgb(68, 68, 68); opacity: 1; font-weight: normal; white-space: pre;">Cases</text></g><g class="g-y2title"><text class="y2title" transform="rotate(-90,20,348.8)" x="20" y="348.8" text-anchor="middle" style="font-family: 'Open Sans', verdana, arial, sans-serif; font-size: 14px; fill: rgb(68, 68, 68); opacity: 1; font-weight: normal; white-space: pre;">Cases</text></g></g></svg>