<svg class="main-svg" xmlns="http://www.w3.org/2000/svg" xmlns:xlink="http://www.w3.org/1999/xlink" width="700" height="500" style="" viewBox="0 0 700 500"><rect x="0" y="0" width="700" height="500" style="fill: rgb(255, 255, 255); fill-opacity: 1;"/><defs id="defs-44b918"><g class="clips"><clipPath id="clip44b918xyplot" class="plotclip"><rect width="602" height="182.4"/></clipPath><clipPath id="clip44b918x2y2plot" class="plotclip"><rect width="602" height="182.4"/></clipPath><clipPath class="axesclip" id="clip44b918x"><rect x="58" y="0" width="602" height="500"/></clipPath><clipPath class="axesclip" id="clip44b918y"><rect x="0" y="60" width="700" height="182.4"/></clipPath><clipPath class="axesclip" id="clip44b918xy"><rect x="58" y="60" width="602" height="182.4"/></clipPath><clipPath class="axesclip" id="clip44b918y2"><rect x="0" y="257.6" width="700" height="182.4"/></clipPath><clipPath class="axesclip" id="clip44b918xy2"><rect x="58" y="257.6" width="602" height="182.4"/></clipPath><clipPath class="axesclip" id="clip44b918x2"><rect x="58" y="0" width="602" height="500"/></clipPath><clipPath class="axesclip" id="clip44b918x2y"><rect x="58" y="60" width="602" height="182.4"/></clipPath><clipPath class="axesclip" id="clip44b918x2y2"><rect x="58" y="257.6" width="602" height="182.4"/></clipPath></g><g class="gradients"/></defs><g class="bglayer"/><g class="layer-below"><g class="imagelayer"/><g class="shapelayer"/></g><g class="cartesianlayer"><g class="subplot xy"><g class="layer-subplot"><g class="shapelayer"/><g class="imagelayer"/></g><g class="gridlayer"><g class="x"><path class="xgrid crisp" transform="translate(127.31,0)" d="M0,60v182.4" style="stroke: rgb(238, 238, 238); stroke-opacity: 1; stroke-width: 1px;"/><path class="xgrid crisp" transform="translate(217.41,0)" d="M0,60v182.4" style="stroke: rgb(238, 238, 238); stroke-opacity: 1; stroke-width: 1px;"/><path class="xgrid crisp" transform="translate(308.5,0)" d="M0,60v182.4" style="stroke: rgb(238, 238, 238); stroke-opacity: 1; stroke-width: 1px;"/><path class="xgrid crisp" transform="translate(399.6,0)" d="M0,60v182.4" style="stroke: rgb(238, 238, 238); stroke-opacity: 1; stroke-width: 1px;"/><path class="xgrid crisp" transform="translate(488.71,0)" d="M0,60v182.4" style="stroke: rgb(238, 238, 238); stroke-opacity: 1; stroke-width: 1px;"/><path class="xgrid crisp" transform="translate(578.81,0)" d="M0,60v182.4" style="stroke: rgb(238, 238, 238); stroke-opacity: 1; stroke-width: 1px;"/></g><g class="y"><path class="ygrid crisp" transform="translate(0,178.18)" d="M58,0h602" style="stroke: rgb(238, 238, 238); stroke-opacity: 1; stroke-width: 1px;"/><path class="ygrid crisp" transform="translate(0,123.71000000000001)" d="M58,0h602" style="stroke: rgb(238, 238, 238); stroke-opacity: 1; stroke-width: 1px;"/><path class="ygrid crisp" transform="translate(0,69.24)" d="M58,0h602" style="stroke: rgb(238, 238, 238); stroke-opacity: 1; stroke-width: 1px;"/></g></g><g class="zerolinelayer"><path class="yzl zl crisp" transform="translate(0,232.66)" d="M58,0h602" style="stroke: rgb(68, 68, 68); stroke-opacity: 1; stroke-width: 1px;"/></g><path class="xlines-below"/><path class="ylines-below"/><g class="overlines-below"/><g class="xaxislayer-below"/><g class="yaxislayer-below"/><g class="overaxes-below"/><g class="plot" transform="translate(58, 60)" clip-path="url('#clip44b918xyplot')"><g class="scatterlayer mlayer"><g class="trace scatter trace26cf50" style="stroke-miterlimit: 2; opacity: 1;"><g class="fills"/><g class="errorbars"/><g class="lines"><path class="js-line" d="M0,172.66L67.33,172.3L68.32,171.42L74.26,171.53L75.25,170.62L77.23,170.56L78.22,170.97L79.21,171.47L80.2,171.06L81.19,171.31L82.18,170.66L83.17,169.32L84.16,170.36L85.15,169.11L86.14,169.41L87.13,170.48L88.12,170.38L90.1,169.74L91.09,167.99L92.08,168.29L93.07,166.9L94.06,168.54L95.05,167.92L98.02,164.48L99.01,167.19L100.99,167.51L101.98,165.25L102.97,165.21L103.96,160.5L104.95,162.67L105.94,160.54L107.92,165.42L108.91,165.14L109.9,163.26L110.89,159.67L111.88,158.46L112.88,154L114.86,164.41L115.85,157.09L117.83,151.2L118.82,152.49L119.81,149.99L120.8,154.67L121.79,155.43L122.78,159.92L125.75,143.88L126.74,143.32L127.73,136.4L128.72,154.78L129.71,160.02L130.7,141.13L131.69,141.46L132.68,138.96L133.67,139.07L134.66,143.16L136.64,155.6L137.63,137.69L138.62,136.8L139.61,139.52L142.58,154.01L143.57,150.16L144.56,134.61L145.55,137.59L146.54,147.85L147.53,112.98L149.51,155.48L150.5,147.46L151.49,129.69L152.48,126.11L153.47,129.64L154.46,121.6L157.43,146.45L158.42,135.78L159.41,121.76L160.4,120.25L162.38,131.34L163.37,144.27L164.36,150.62L165.35,123.3L166.34,124.1L167.33,126.22L168.32,123.58L169.31,130.14L171.29,150.55L172.28,127.05L173.27,129.16L174.26,123.19L176.24,141.57L177.23,147.02L178.22,150.59L179.21,127.98L180.2,98.72L181.19,107.33L183.17,116.93L184.16,145.88L185.15,147.29L186.14,128.19L187.13,97.4L188.13,109.64L190.11,123.2L191.1,144.55L192.09,154.53L193.08,116.44L194.07,110.39L195.06,114.76L196.05,117.93L197.04,118.22L198.03,147.59L199.02,148.64L200.01,115.83L201,112.57L201.99,107.19L202.98,117.48L203.97,127.36L204.96,147.49L205.95,151.55L206.94,120.6L207.93,118.95L208.92,123.28L209.91,139.58L210.9,118.15L211.89,147.14L212.88,154.05L213.87,121.3L214.86,121.28L216.84,125.36L217.83,127.61L218.82,155.05L219.81,122.58L220.8,126.18L221.79,121.52L222.78,124.97L223.77,118L225.75,156.84L226.74,161.46L227.73,157.1L228.72,133.64L230.7,125.03L231.69,136.13L232.68,156.57L233.67,156.14L234.66,132.72L235.65,132.54L236.64,133.1L237.63,129.3L238.62,136.64L239.61,154.8L240.6,158.04L241.59,136.35L242.58,172.66L243.57,100.38L244.56,137.89L245.55,141.74L246.54,157.06L247.53,158.32L248.52,137.73L249.51,136.25L250.5,133.26L251.49,172.66L252.48,107.57L253.47,163.44L254.46,159.64L255.45,127L257.43,142.42L258.42,142.76L259.41,143.51L260.4,159.21L261.39,163.47L262.38,161.52L263.38,142.98L264.37,141.58L265.36,138.98L266.35,146.44L267.34,172.66L268.33,143.93L269.32,147.35L270.31,145.62L271.3,145.57L272.29,139.94L273.28,143.26L274.27,157.96L275.26,155.52L276.25,140.2L277.24,141.47L278.23,144.21L280.21,152.01L281.2,161.65L282.19,163.39L283.18,159.75L284.17,146.53L285.16,172.66L286.15,127.82L287.14,148.27L288.13,161.16L289.12,160.76L290.11,146.54L291.1,119.65L293.08,140.98L294.07,130.92L295.06,157.26L296.05,158.09L297.04,134.2L298.03,135.51L300.01,130.82L301,137.12L301.99,152.38L302.98,155L304.96,120.47L305.95,131.68L306.94,135.47L307.93,116.09L308.92,146L309.91,149.63L310.9,117.19L311.89,118.33L312.88,117.71L313.87,121.58L314.86,125.58L315.85,143.93L316.84,150.46L317.83,117L318.82,114.42L319.81,114.54L320.8,113.36L321.79,124.83L322.78,148.88L323.77,145.21L325.75,95.77L326.74,96.58L327.73,115.41L328.72,117.99L329.71,144.93L330.7,145.4L331.69,112.51L332.68,121.78L333.67,109L334.66,145.84L335.65,153.87L336.64,152.52L337.63,150.27L338.63,108.68L339.62,112.03L340.61,110.8L342.59,155.41L343.58,153.76L344.57,150.86L345.56,110.94L346.55,103.55L347.54,76.95L348.53,115.97L349.52,104.79L350.51,140.2L351.5,144.52L352.49,102.9L353.48,106.31L354.47,98.84L355.46,97.27L356.45,105.58L357.44,136.66L358.43,146.87L359.42,105.01L360.41,102.51L361.4,108.25L362.39,111.04L363.38,104.74L364.37,141.8L365.36,143.44L366.35,105.15L367.34,103.45L370.31,108.96L371.3,142.42L372.29,145.86L373.28,113.72L375.26,110.69L376.25,117.23L377.24,172.66L378.23,88.25L379.22,172.66L380.21,91.03L382.19,113.02L383.18,116.5L384.17,124.39L385.16,145.68L386.15,137.58L387.14,112.44L388.13,110.81L389.12,116.14L391.1,112.8L392.09,141.03L393.08,143.26L394.07,104.33L395.06,100.11L396.05,100.75L397.04,101.66L398.03,105.54L399.02,135.58L400.01,133.72L401.99,94.54L402.98,90.83L403.97,90.41L404.96,96.82L405.95,84.94L406.94,137.44L407.93,95.56L408.92,85.63L409.91,90.5L410.9,79.33L411.89,89.66L412.88,124.92L413.88,133.17L414.87,81.22L415.86,74.27L416.85,77.89L417.84,73.98L418.83,86.51L419.82,120.61L420.81,118.95L421.8,82.78L422.79,74.61L423.78,63.54L424.77,80.87L425.76,79.02L426.75,124.36L427.74,130.25L428.73,80.6L429.72,73.91L430.71,73.41L433.68,138.49L434.67,141.45L435.66,77.89L436.65,71.74L437.64,78.25L438.63,70.99L440.61,132.33L441.6,133.67L442.59,83.12L443.58,92.57L444.57,92.93L445.56,79.21L448.53,139.29L449.52,97.07L450.51,85.8L451.5,123.44L452.49,97.37L453.48,95.15L454.47,137.17L455.46,141.46L456.45,94.06L457.44,85.8L458.43,97.06L459.42,98.21L460.41,99.7L461.4,141.13L462.39,145.83L463.38,88.38L464.37,92.8L465.36,92.71L466.35,86.71L467.34,103.55L469.32,145.2L470.31,93.44L471.3,89.1L472.29,91.39L473.28,79.47L474.27,99.65L476.25,139.81L477.24,90.46L479.22,83.28L480.21,88.92L481.2,89.32L482.19,133.63L483.18,131.8L484.17,92.63L485.16,84.97L486.15,99.15L487.14,118.44L488.13,85.86L490.12,139.5L491.11,86.67L492.1,68.5L493.09,81.8L494.08,131.33L495.07,100.73L496.06,129.47L497.05,132.18L498.04,115.01L499.03,79.24L500.02,76.68L501.01,79.89L502,86.91L502.99,131.31L503.98,129.24L504.97,84.83L505.96,68.76L506.95,91.99L507.94,64.98L508.93,83.01L509.92,124.53L510.91,130.27L512.89,47.12L513.88,92.47L514.87,86.29L515.86,102.78L516.85,135.94L517.84,142.36L518.83,101.95L519.82,124.9L520.81,101.66L521.8,101.66L522.79,113.22L523.78,142.39L524.77,147.92L525.76,104.56L526.75,113.8L527.74,114.12L528.73,109.75L529.72,119.81L530.71,149.85L531.7,154.1L533.68,109.75L534.67,115.14L536.65,135.24L537.64,135.48L538.63,156.02L539.62,142.6L540.61,113.26L541.6,118.45L542.59,54.2L543.58,131.16L544.57,152.9L545.56,151.96L547.54,120.35L548.53,126.59L549.52,128.09L550.51,131.71L552.49,156.16L553.48,137.45L554.47,128.3L555.46,129.02L557.44,125.77L558.43,157.52L559.42,159.49L560.41,134.65L561.4,137.31L562.39,129.1L564.38,138.73L565.37,157.45L566.36,156.89L567.35,131.68L568.34,127.21L569.33,133.09L570.32,135.74L571.31,141.73L572.3,156.96L573.29,158.38L574.28,139.02L575.27,139.24L576.26,138.86L577.25,142.86L578.24,145.75L579.23,158.26L580.22,161.25L581.21,145.87L582.2,142.86L583.19,144.02L584.18,144.8L585.17,148.9L587.15,162.68L588.14,157.07L589.13,157.65L590.12,139L591.11,155.28L592.1,157.06L594.08,165.42L595.07,158.05L596.06,156.55L597.05,135.17L598.04,160.45L599.03,9.12L600.02,162.35L601.01,164.07L602,173.28" style="vector-effect: non-scaling-stroke; fill: none; stroke: rgb(31, 119, 180); stroke-opacity: 1; stroke-width: 2px; opacity: 1;"/></g><g class="points"/><g class="text"/></g></g></g><g class="overplot"/><path class="xlines-above crisp" style="fill: none;" d="M0,0"/><path class="ylines-above crisp" style="fill: none;" d="M0,0"/><g class="overlines-above"/><g class="xaxislayer-above"><g class="xtick"><text text-anchor="middle" x="0" y="255.4" transform="translate(127.31,0)" style="font-family: 'Open Sans', verdana, arial, sans-serif; font-size: 12px; fill: rgb(68, 68, 68); fill-opacity: 1; white-space: pre;">Apr 2020</text></g><g class="xtick"><text text-anchor="middle" x="0" y="255.4" transform="translate(217.41,0)" style="font-family: 'Open Sans', verdana, arial, sans-serif; font-size: 12px; fill: rgb(68, 68, 68); fill-opacity: 1; white-space: pre;">Jul 2020</text></g><g class="xtick"><text text-anchor="middle" x="0" y="255.4" transform="translate(308.5,0)" style="font-family: 'Open Sans', verdana, arial, sans-serif; font-size: 12px; fill: rgb(68, 68, 68); fill-opacity: 1; white-space: pre;">Oct 2020</text></g><g class="xtick"><text text-anchor="middle" x="0" y="255.4" transform="translate(399.6,0)" style="font-family: 'Open Sans', verdana, arial, sans-serif; font-size: 12px; fill: rgb(68, 68, 68); fill-opacity: 1; white-space: pre;">Jan 2021</text></g><g class="xtick"><text text-anchor="middle" x="0" y="255.4" transform="translate(488.71,0)" style="font-family: 'Open Sans', verdana, arial, sans-serif; font-size: 12px; fill: rgb(68, 68, 68); fill-opacity: 1; white-space: pre;">Apr 2021</text></g><g class="xtick"><text text-anchor="middle" x="0" y="255.4" transform="translate(578.81,0)" style="font-family: 'Open Sans', verdana, arial, sans-serif; font-size: 12px; fill: rgb(68, 68, 68); fill-opacity: 1; white-space: pre;">Jul 2021</text></g></g><g class="yaxislayer-above"><g class="ytick"><text text-anchor="end" x="57" y="4.199999999999999" transform="translate(0,232.66)" style="font-family: 'Open Sans', verdana, arial, sans-serif; font-size: 12px; fill: rgb(68, 68, 68); fill-opacity: 1; white-space: pre;">0</text></g><g class="ytick"><text text-anchor="end" x="57" y="4.199999999999999" transform="translate(0,178.18)" style="font-family: 'Open Sans', verdana, arial, sans-serif; font-size: 12px; fill: rgb(68, 68, 68); fill-opacity: 1; white-space: pre;">50k</text></g><g class="ytick"><text text-anchor="end" x="57" y="4.199999999999999" transform="translate(0,123.71000000000001)" style="font-family: 'Open Sans', verdana, arial, sans-serif; font-size: 12px; fill: rgb(68, 68, 68); fill-opacity: 1; white-space: pre;">100k</text></g><g class="ytick"><text text-anchor="end" x="57" y="4.199999999999999" transform="translate(0,69.24)" style="font-family: 'Open Sans', verdana, arial, sans-serif; font-size: 12px; fill: rgb(68, 68, 68); fill-opacity: 1; white-space: pre;">150k</text></g></g><g class="overaxes-above"/></g><g class="subplot x2y2"><g class="layer-subplot"><g class="shapelayer"/><g class="imagelayer"/></g><g class="gridlayer"><g class="x2"><path class="x2grid crisp" transform="translate(127.31,0)" d="M0,257.6v182.4" style="stroke: rgb(238, 238, 238); stroke-opacity: 1; stroke-width: 1px;"/><path class="x2grid crisp" transform="translate(217.41,0)" d="M0,257.6v182.4" style="stroke: rgb(238, 238, 238); stroke-opacity: 1; stroke-width: 1px;"/><path class="x2grid crisp" transform="translate(308.5,0)" d="M0,257.6v182.4" style="stroke: rgb(238, 238, 238); stroke-opacity: 1; stroke-width: 1px;"/><path class="x2grid crisp" transform="translate(399.6,0)" d="M0,257.6v182.4" style="stroke: rgb(238, 238, 238); stroke-opacity: 1; stroke-width: 1px;"/><path class="x2grid crisp" transform="translate(488.71,0)" d="M0,257.6v182.4" style="stroke: rgb(238, 238, 238); stroke-opacity: 1; stroke-width: 1px;"/><path class="x2grid crisp" transform="translate(578.81,0)" d="M0,257.6v182.4" style="stroke: rgb(238, 238, 238); stroke-opacity: 1; stroke-width: 1px;"/></g><g class="y2"><path class="y2grid crisp" transform="translate(0,392.25)" d="M58,0h602" style="stroke: rgb(238, 238, 238); stroke-opacity: 1; stroke-width: 1px;"/><path class="y2grid crisp" transform="translate(0,353.61)" d="M58,0h602" style="stroke: rgb(238, 238, 238); stroke-opacity: 1; stroke-width: 1px;"/><path class="y2grid crisp" transform="translate(0,314.98)" d="M58,0h602" style="stroke: rgb(238, 238, 238); stroke-opacity: 1; stroke-width: 1px;"/><path class="y2grid crisp" transform="translate(0,276.34000000000003)" d="M58,0h602" style="stroke: rgb(238, 238, 238); stroke-opacity: 1; stroke-width: 1px;"/></g></g><g class="zerolinelayer"><path class="y2zl zl crisp" transform="translate(0,430.88)" d="M58,0h602" style="stroke: rgb(68, 68, 68); stroke-opacity: 1; stroke-width: 1px;"/></g><path class="xlines-below"/><path class="ylines-below"/><g class="overlines-below"/><g class="xaxislayer-below"/><g class="yaxislayer-below"/><g class="overaxes-below"/><g class="plot" transform="translate(58, 257.6)" clip-path="url('#clip44b918x2y2plot')"><g class="scatterlayer mlayer"><g class="trace scatter trace5c424d" style="stroke-miterlimit: 2; opacity: 1;"><g class="fills"/><g class="errorbars"/><g class="lines"><path class="js-line" d="M0,173.28L65.35,172.55L66.34,172.31L67.33,172.39L68.32,171.66L69.31,171.77L70.3,170.03L71.29,171.93L72.28,169.96L73.27,171.7L74.26,170.27L76.24,168.14L77.23,168.22L79.21,170.69L80.2,169.46L81.19,169.22L82.18,165.4L84.16,166.02L85.15,164.9L86.14,165.05L87.13,169.11L90.1,166.91L91.09,156.86L93.07,159.64L94.06,164.43L95.05,161.03L96.04,154.74L97.03,156.67L98.02,154.23L100.99,162.08L101.98,161.07L103.96,148.17L104.95,150.02L105.94,141.33L106.93,148.59L107.92,155.24L108.91,152.8L109.9,142.06L110.89,143.18L111.88,143.96L112.88,136.07L114.86,155.66L115.85,144.88L116.84,129.62L117.83,139.44L118.82,127.38L119.81,134.61L120.8,136L121.79,148.05L124.76,131.32L125.75,128.62L126.74,129.85L127.73,136.34L128.72,154.74L129.71,149.21L130.7,124.52L131.69,121.16L132.68,116.37L133.67,134.45L134.66,138.35L135.65,153L136.64,147.05L137.63,124.14L138.62,124.06L139.61,125.41L140.6,138.16L141.59,138.82L142.58,149.64L143.57,149.06L144.56,123.75L145.55,124.25L147.53,126.69L148.52,133.8L149.51,149.52L150.5,147.01L151.49,120.2L152.48,127.5L153.47,129.2L154.46,135.03L155.45,130.43L156.44,151.95L157.43,146.54L158.42,123.83L159.41,133.18L160.4,124.91L161.39,123.44L162.38,131.13L163.37,150.02L164.36,149.33L165.35,124.83L166.34,126.03L168.32,126.38L169.31,131.9L170.3,148.9L171.29,144.96L172.28,123.05L173.27,125.64L174.26,122.2L175.25,128.35L177.23,145.62L178.22,148.86L179.21,120.47L180.2,123.67L181.19,122.63L182.18,128.62L183.17,126.49L184.16,151.84L185.15,149.56L186.14,137.7L187.13,111.66L188.13,129.66L189.12,126.45L190.11,131.25L191.1,152.38L192.09,151.61L194.07,117.76L195.06,125.49L197.04,138.32L198.03,151.18L199.02,146.12L200.01,124.06L201,127.88L201.99,124.52L204.96,149.33L205.95,146.85L206.94,121.05L207.93,126.45L208.92,126.76L209.91,132.56L210.9,138.82L211.89,154.19L212.88,151.45L213.87,124.17L216.84,140.25L217.83,143.99L218.82,151.41L219.81,151.91L220.8,126.34L221.79,127.54L222.78,141.06L223.77,138.97L226.74,161.3L227.73,153.81L228.72,131.75L229.71,135.3L231.69,141.83L232.68,157.25L233.67,158.56L234.66,130.28L236.64,141.25L237.63,140.13L238.62,144.73L239.61,159.26L240.6,158.71L241.59,141.1L242.58,173.28L243.57,107.48L244.56,145.12L245.55,139.71L246.54,160.34L247.53,161.03L249.51,133.45L250.5,145.15L251.49,173.28L252.48,122.78L253.47,159.18L254.46,160.8L255.45,141.64L256.44,144.92L257.43,145.12L258.42,146.93L259.41,151.68L260.4,162.08L261.39,165.51L262.38,161.34L263.38,144.34L264.37,145.73L265.36,144.15L266.35,155.47L267.34,173.28L268.33,153.92L269.32,147.74L270.31,151.41L271.3,154.08L272.29,151.22L274.27,164.36L275.26,163.12L276.25,152.07L277.24,153.58L279.22,153.65L280.21,157.56L281.2,165.94L282.19,166.36L283.18,163.89L284.17,149.71L285.16,173.28L286.15,138.16L287.14,163.47L288.13,168.33L289.12,164.36L290.11,166.56L292.09,138.01L293.08,155.66L294.07,137.7L295.06,167.87L296.05,164.93L297.04,146.82L298.03,144.07L299.02,149.87L300.01,151.95L301,158.75L301.99,165.78L302.98,161.61L303.97,148.94L304.96,148.01L305.95,146.58L306.94,153.42L307.93,150.6L308.92,162.77L309.91,162.19L310.9,146.35L311.89,146.31L312.88,144.11L314.86,147.63L315.85,161.19L316.84,158.75L317.83,140.75L318.82,140.98L319.81,143.53L320.8,147.32L321.79,146.78L322.78,162.5L323.77,156.55L324.76,136.04L325.75,137.12L326.74,131.09L327.73,141.48L328.72,146L329.71,157.52L330.7,152.92L331.69,135.88L332.68,136.15L333.67,143.84L335.65,161.42L336.64,159.99L337.63,156.63L338.63,130.36L339.62,127.15L340.61,131.79L342.59,161.15L343.58,161.96L344.57,152.3L345.56,128.04L346.55,125.3L347.54,114.4L348.53,136.11L349.52,128.04L350.51,155.16L351.5,154.74L353.48,124.06L354.47,129.58L355.46,128.81L356.45,132.71L357.44,151.99L358.43,155.82L359.42,127.23L360.41,121.51L361.4,122.44L362.39,130.94L363.38,126.84L364.37,150.41L365.36,149.06L366.35,126.38L368.33,119.73L369.32,130.05L370.31,123.87L371.3,151.68L372.29,150.29L373.28,126.53L374.27,124.83L375.26,125.68L376.25,125.41L377.24,173.28L378.23,115.33L379.22,173.28L380.21,96.55L381.2,121.9L382.19,121.08L383.18,123.52L386.15,152.88L387.14,128.19L388.13,128.85L389.12,120.47L391.1,125.37L392.09,152.92L393.08,148.59L394.07,119.73L395.06,118.11L396.05,113.74L397.04,121.63L398.03,119.73L399.02,145.42L400.01,143.22L401.99,99.49L402.98,107.64L403.97,103.74L404.96,113.2L405.95,131.32L406.94,135.15L408.92,84.96L409.91,87.01L410.9,87.66L411.89,96.13L412.88,129.74L413.88,132.44L414.87,63.52L415.86,70.97L417.84,64.52L418.83,79.09L419.82,123.44L420.81,119.85L421.8,47.68L422.79,95.66L424.77,32.26L425.76,40.45L426.75,109.3L427.74,109.15L428.73,27.24L429.72,23.8L430.71,27.66L431.7,60.39L433.68,125.37L434.67,122.32L435.66,11.21L436.65,25.35L437.64,9.12L438.63,30.6L440.61,103.62L441.6,116.1L442.59,26.16L443.58,39.64L444.57,35.74L445.56,45.59L446.55,60.12L447.54,109.26L448.53,121.24L449.52,44.97L450.51,39.14L451.5,94.97L452.49,60.7L453.48,54.44L454.47,122.86L455.46,129.27L456.45,54.05L457.44,51.08L458.43,57.34L459.42,73.02L460.41,70.67L461.4,126.84L462.39,135.3L463.38,58.69L465.36,74.76L466.35,89.64L467.34,88.21L468.33,133.72L469.32,138.93L470.31,83.99L471.3,76.92L472.29,81.21L474.27,92.65L475.26,133.25L476.25,142.91L477.24,76.19L478.23,71.25L479.22,80.44L481.2,99.91L482.19,140.05L483.18,142.76L484.17,89.33L485.16,80.63L486.15,86.54L487.14,81.68L488.13,95.55L489.13,139.51L490.12,140.05L491.11,80.25L492.1,76.42L494.08,117.1L495.07,108.03L496.06,139.55L497.05,134.26L499.03,68.08L500.02,76.54L502,94.58L502.99,129.66L503.98,141.33L504.97,77.93L505.96,57.49L506.95,83.99L507.94,76.89L508.93,84.38L509.92,133.68L510.91,143.88L511.9,90.95L512.89,80.87L513.88,94.77L514.87,95.97L515.86,111.73L516.85,144.73L517.84,149.4L518.83,100.14L519.82,92.88L520.81,94.89L522.79,110.11L523.78,141.21L524.77,146.43L525.76,104.51L526.75,109.61L527.74,109.96L528.73,114.98L529.72,126.72L530.71,150.29L531.7,144.5L532.69,111.27L533.68,113.16L534.67,113.47L535.66,117.03L536.65,139.74L537.64,136.65L538.63,152.34L539.62,118.26L541.6,118.73L542.59,122.13L543.58,130.47L544.57,154.89L545.56,150.95L546.55,121.78L547.54,121.35L548.53,122.36L549.52,136.07L550.51,138.12L551.5,155.35L552.49,158.25L553.48,126.57L554.47,127.88L557.44,135.03L558.43,157.86L559.42,157.4L560.41,126.49L561.4,135.61L562.39,128.93L563.38,135.96L564.38,137.5L565.37,162.85L566.36,156.51L567.35,130.55L568.34,132.17L570.32,139.67L571.31,146.31L572.3,160.99L573.29,160.88L574.28,138.74L575.27,138.39L576.26,137.74L577.25,143.88L578.24,146.85L579.23,161.77L580.22,163L581.21,140.87L582.2,144.81L583.19,143.76L584.18,144.07L585.17,146.54L586.16,163L587.15,166.25L588.14,161.77L589.13,161.19L590.12,144.19L591.11,147.32L592.1,145.77L593.09,161.96L594.08,164.97L595.07,145.04L596.06,142.37L597.05,148.21L598.04,160.65L599.03,137.16L600.02,163.85L601.01,165.44L602,154.54" style="vector-effect: non-scaling-stroke; fill: none; stroke: rgb(255, 0, 0); stroke-opacity: 1; stroke-width: 2px; opacity: 1;"/></g><g class="points"/><g class="text"/></g></g></g><g class="overplot"/><path class="xlines-above crisp" style="fill: none;" d="M0,0"/><path class="ylines-above crisp" style="fill: none;" d="M0,0"/><g class="overlines-above"/><g class="xaxislayer-above"><g class="x2tick"><text text-anchor="middle" x="0" y="453" transform="translate(127.31,0)" style="font-family: 'Open Sans', verdana, arial, sans-serif; font-size: 12px; fill: rgb(68, 68, 68); fill-opacity: 1; white-space: pre;">Apr 2020</text></g><g class="x2tick"><text text-anchor="middle" x="0" y="453" transform="translate(217.41,0)" style="font-family: 'Open Sans', verdana, arial, sans-serif; font-size: 12px; fill: rgb(68, 68, 68); fill-opacity: 1; white-space: pre;">Jul 2020</text></g><g class="x2tick"><text text-anchor="middle" x="0" y="453" transform="translate(308.5,0)" style="font-family: 'Open Sans', verdana, arial, sans-serif; font-size: 12px; fill: rgb(68, 68, 68); fill-opacity: 1; white-space: pre;">Oct 2020</text></g><g class="x2tick"><text text-anchor="middle" x="0" y="453" transform="translate(399.6,0)" style="font-family: 'Open Sans', verdana, arial, sans-serif; font-size: 12px; fill: rgb(68, 68, 68); fill-opacity: 1; white-space: pre;">Jan 2021</text></g><g class="x2tick"><text text-anchor="middle" x="0" y="453" transform="translate(488.71,0)" style="font-family: 'Open Sans', verdana, arial, sans-serif; font-size: 12px; fill: rgb(68, 68, 68); fill-opacity: 1; white-space: pre;">Apr 2021</text></g><g class="x2tick"><text text-anchor="middle" x="0" y="453" transform="translate(578.81,0)" style="font-family: 'Open Sans', verdana, arial, sans-serif; font-size: 12px; fill: rgb(68, 68, 68); fill-opacity: 1; white-space: pre;">Jul 2021</text></g></g><g class="yaxislayer-above"><g class="y2tick"><text text-anchor="end" x="57" y="4.199999999999999" transform="translate(0,430.88)" style="font-family: 'Open Sans', verdana, arial, sans-serif; font-size: 12px; fill: rgb(68, 68, 68); fill-opacity: 1; white-space: pre;">0</text></g><g class="y2tick"><text text-anchor="end" x="57" y="4.199999999999999" transform="translate(0,392.25)" style="font-family: 'Open Sans', verdana, arial, sans-serif; font-size: 12px; fill: rgb(68, 68, 68); fill-opacity: 1; white-space: pre;">1000</text></g><g class="y2tick"><text text-anchor="end" x="57" y="4.199999999999999" transform="translate(0,353.61)" style="font-family: 'Open Sans', verdana, arial, sans-serif; font-size: 12px; fill: rgb(68, 68, 68); fill-opacity: 1; white-space: pre;">2000</text></g><g class="y2tick"><text text-anchor="end" x="57" y="4.199999999999999" transform="translate(0,314.98)" style="font-family: 'Open Sans', verdana, arial, sans-serif; font-size: 12px; fill: rgb(68, 68, 68); fill-opacity: 1; white-space: pre;">3000</text></g><g class="y2tick"><text text-anchor="end" x="57" y="4.199999999999999" transform="translate(0,276.34000000000003)" style="font-family: 'Open Sans', verdana, arial, sans-serif; font-size: 12px; fill: rgb(68, 68, 68); fill-opacity: 1; white-space: pre;">4000</text></g></g><g class="overaxes-above"/></g></g><g class="polarlayer"/><g class="ternarylayer"/><g class="geolayer"/><g class="funnelarealayer"/><g class="pielayer"/><g class="treemaplayer"/><g class="sunburstlayer"/><g class="glimages"/><defs id="topdefs-44b918"><g class="clips"/><clipPath id="legend44b918"><rect width="108" height="48" x="0" y="0"/></clipPath></defs><g class="layer-above"><g class="imagelayer"/><g class="shapelayer"/></g><g class="infolayer"><g class="legend" pointer-events="all" transform="translate(88.1, 60)"><rect class="bg" shape-rendering="crispEdges" style="stroke: rgb(68, 68, 68); stroke-opacity: 1; fill: rgb(255, 255, 255); fill-opacity: 1; stroke-width: 0px;" width="108" height="48" x="0" y="0"/><g class="scrollbox" transform="translate(0, 0)" clip-path="url('#legend44b918')"><g class="groups"><g class="traces" style="opacity: 1;" transform="translate(0, 14.5)"><text class="legendtext" text-anchor="start" x="40" y="4.680000000000001" style="font-family: 'Open Sans', verdana, arial, sans-serif; font-size: 12px; fill: rgb(68, 68, 68); fill-opacity: 1; white-space: pre;">Confirmed</text><g class="layers" style="opacity: 1;"><g class="legendfill"/><g class="legendlines"><path class="js-line" d="M5,0h30" style="fill: none; stroke: rgb(31, 119, 180); stroke-opacity: 1; stroke-width: 2px;"/></g><g class="legendsymbols"><g class="legendpoints"/></g></g><rect class="legendtoggle" x="0" y="-9.5" width="102.1875" height="19" style="fill: rgb(0, 0, 0); fill-opacity: 0;"/></g><g class="traces" style="opacity: 1;" transform="translate(0, 33.5)"><text class="legendtext" text-anchor="start" x="40" y="4.680000000000001" style="font-family: 'Open Sans', verdana, arial, sans-serif; font-size: 12px; fill: rgb(68, 68, 68); fill-opacity: 1; white-space: pre;">Death</text><g class="layers" style="opacity: 1;"><g class="legendfill"/><g class="legendlines"><path class="js-line" d="M5,0h30" style="fill: none; stroke: rgb(255, 0, 0); stroke-opacity: 1; stroke-width: 2px;"/></g><g class="legendsymbols"><g class="legendpoints"/></g></g><rect class="legendtoggle" x="0" y="-9.5" width="102.1875" height="19" style="fill: rgb(0, 0, 0); fill-opacity: 0;"/></g></g></g><rect class="scrollbar" rx="20" ry="3" width="0" height="0" style="fill: rgb(128, 139, 164); fill-opacity: 1;" x="0" y="0"/></g><g class="g-gtitle"><text class="gtitle" x="350" y="30" text-anchor="middle" dy="0em" style="font-family: 'Open Sans', verdana, arial, sans-serif; font-size: 17px; fill: rgb(68, 68, 68); opacity: 1; font-weight: normal; white-space: pre;">Brazil - Daily Confirmed and Death Cases</text></g><g class="g-xtitle"/><g class="g-x2title"><text class="x2title" x="359" y="492" text-anchor="middle" style="font-family: 'Open Sans', verdana, arial, sans-serif; font-size: 14px; fill: rgb(68, 68, 68); opacity: 1; font-weight: normal; white-space: pre;">Source: Johns Hopkins University Center for Systems Science and Engineering</text></g><g class="g-ytitle"><text class="ytitle" transform="rotate(-90,20,151.2)" x="20" y="151.2" text-anchor="middle" style="font-family: 'Open Sans', verdana, arial, sans-serif; font-size: 14px; fill: rgb(68, 68, 68); opacity: 1; font-weight: normal; white-space: pre;">Cases</text></g><g class="g-y2title"><text class="y2title" transform="rotate(-90,20,348.8)" x="20" y="348.8" text-anchor="middle" style="font-family: 'Open Sans', verdana, arial, sans-serif; font-size: 14px; fill: rgb(68, 68, 68); opacity: 1; font-weight: normal; white-space: pre;">Cases</text></g></g></svg>