<svg class="main-svg" xmlns="http://www.w3.org/2000/svg" xmlns:xlink="http://www.w3.org/1999/xlink" width="700" height="500" style="" viewBox="0 0 700 500"><rect x="0" y="0" width="700" height="500" style="fill: rgb(255, 255, 255); fill-opacity: 1;"/><defs id="defs-e4f79a"><g class="clips"><clipPath id="clipe4f79axyplot" class="plotclip"><rect width="602" height="182.4"/></clipPath><clipPath id="clipe4f79ax2y2plot" class="plotclip"><rect width="602" height="182.4"/></clipPath><clipPath class="axesclip" id="clipe4f79ax"><rect x="58" y="0" width="602" height="500"/></clipPath><clipPath class="axesclip" id="clipe4f79ay"><rect x="0" y="60" width="700" height="182.4"/></clipPath><clipPath class="axesclip" id="clipe4f79axy"><rect x="58" y="60" width="602" height="182.4"/></clipPath><clipPath class="axesclip" id="clipe4f79ay2"><rect x="0" y="257.6" width="700" height="182.4"/></clipPath><clipPath class="axesclip" id="clipe4f79axy2"><rect x="58" y="257.6" width="602" height="182.4"/></clipPath><clipPath class="axesclip" id="clipe4f79ax2"><rect x="58" y="0" width="602" height="500"/></clipPath><clipPath class="axesclip" id="clipe4f79ax2y"><rect x="58" y="60" width="602" height="182.4"/></clipPath><clipPath class="axesclip" id="clipe4f79ax2y2"><rect x="58" y="257.6" width="602" height="182.4"/></clipPath></g><g class="gradients"/></defs><g class="bglayer"/><g class="layer-below"><g class="imagelayer"/><g class="shapelayer"/></g><g class="cartesianlayer"><g class="subplot xy"><g class="layer-subplot"><g class="shapelayer"/><g class="imagelayer"/></g><g class="gridlayer"><g class="x"><path class="xgrid crisp" transform="translate(127.77,0)" d="M0,60v182.4" style="stroke: rgb(238, 238, 238); stroke-opacity: 1; stroke-width: 1px;"/><path class="xgrid crisp" transform="translate(218.47,0)" d="M0,60v182.4" style="stroke: rgb(238, 238, 238); stroke-opacity: 1; stroke-width: 1px;"/><path class="xgrid crisp" transform="translate(310.15999999999997,0)" d="M0,60v182.4" style="stroke: rgb(238, 238, 238); stroke-opacity: 1; stroke-width: 1px;"/><path class="xgrid crisp" transform="translate(401.86,0)" d="M0,60v182.4" style="stroke: rgb(238, 238, 238); stroke-opacity: 1; stroke-width: 1px;"/><path class="xgrid crisp" transform="translate(491.56,0)" d="M0,60v182.4" style="stroke: rgb(238, 238, 238); stroke-opacity: 1; stroke-width: 1px;"/><path class="xgrid crisp" transform="translate(582.26,0)" d="M0,60v182.4" style="stroke: rgb(238, 238, 238); stroke-opacity: 1; stroke-width: 1px;"/></g><g class="y"><path class="ygrid crisp" transform="translate(0,162.05)" d="M58,0h602" style="stroke: rgb(238, 238, 238); stroke-opacity: 1; stroke-width: 1px;"/><path class="ygrid crisp" transform="translate(0,90.81)" d="M58,0h602" style="stroke: rgb(238, 238, 238); stroke-opacity: 1; stroke-width: 1px;"/></g></g><g class="zerolinelayer"><path class="yzl zl crisp" transform="translate(0,233.28)" d="M58,0h602" style="stroke: rgb(68, 68, 68); stroke-opacity: 1; stroke-width: 1px;"/></g><path class="xlines-below"/><path class="ylines-below"/><g class="overlines-below"/><g class="xaxislayer-below"/><g class="yaxislayer-below"/><g class="overaxes-below"/><g class="plot" transform="translate(58, 60)" clip-path="url('#clipe4f79axyplot')"><g class="scatterlayer mlayer"><g class="trace scatter tracedfcbfb" style="stroke-miterlimit: 2; opacity: 1;"><g class="fills"/><g class="errorbars"/><g class="lines"><path class="js-line" d="M0,173.28L67.77,172.82L68.77,171.66L74.75,171.81L75.75,170.61L77.74,170.54L78.74,171.08L79.74,171.73L80.73,171.19L81.73,171.52L82.73,170.67L83.72,168.92L84.72,170.28L85.72,168.64L86.71,169.04L87.71,170.44L88.71,170.3L90.7,169.46L91.7,167.18L92.69,167.57L93.69,165.76L94.69,167.9L95.68,167.09L98.67,162.59L99.67,166.14L101.66,166.55L102.66,163.6L103.66,163.54L104.65,157.39L105.65,160.23L106.65,157.44L108.64,163.82L109.64,163.46L110.63,161L111.63,156.29L112.63,154.72L113.62,148.88L115.62,162.5L116.61,152.92L118.61,145.22L119.6,146.91L120.6,143.64L121.6,149.76L122.59,150.75L123.59,156.63L126.58,135.64L127.58,134.92L128.57,125.88L129.57,149.9L130.57,156.76L131.56,132.06L132.56,132.49L133.56,129.22L134.55,129.36L135.55,134.71L137.54,150.98L138.54,127.56L139.54,126.39L140.53,129.95L143.52,148.9L144.52,143.87L145.52,123.53L146.51,127.42L147.51,140.85L148.51,95.25L150.5,150.82L151.5,140.33L152.49,117.1L153.49,112.41L154.49,117.03L155.48,106.52L158.47,139.01L159.47,125.06L160.47,106.73L161.46,104.75L163.46,119.25L164.45,136.17L165.45,144.46L166.45,108.74L167.44,109.78L168.44,112.56L169.44,109.1L170.43,117.69L172.43,144.38L173.42,113.65L174.42,116.4L175.42,108.6L177.41,132.63L178.41,139.76L179.4,144.42L180.4,114.86L181.4,76.6L182.39,87.86L184.39,100.41L185.38,138.26L186.38,140.11L187.38,115.13L188.37,74.87L189.37,90.88L191.36,108.61L192.36,136.52L193.36,149.57L194.35,99.76L195.35,91.86L196.35,97.58L197.34,101.72L198.34,102.09L199.34,140.5L200.33,141.87L201.33,98.97L202.33,94.7L203.32,87.67L204.32,101.13L205.32,114.05L206.31,140.37L207.31,145.68L208.31,105.2L209.3,103.05L210.3,108.71L211.3,130.03L212.29,102L213.29,139.91L214.29,148.95L215.28,106.13L216.28,106.09L218.27,111.43L219.27,114.37L220.27,150.26L221.26,107.8L222.26,112.51L223.26,106.42L224.25,110.92L225.25,101.82L227.25,152.59L228.24,158.64L229.24,152.94L230.24,122.25L232.23,111L233.23,125.52L234.22,152.24L235.22,151.69L236.22,121.06L237.21,120.82L238.21,121.56L239.21,116.58L240.2,126.19L241.2,149.93L242.2,154.17L243.19,125.8L244.19,173.28L245.19,78.77L246.18,127.82L247.18,132.85L248.18,152.88L249.17,154.54L250.17,127.61L251.17,125.68L252.16,121.77L253.16,173.28L254.16,88.17L255.15,161.23L256.15,156.26L257.15,113.58L259.14,133.75L260.14,134.18L261.13,135.17L262.13,155.7L263.13,161.27L264.12,158.72L265.12,134.48L266.12,132.64L267.11,129.24L268.11,139L269.11,173.28L270.1,135.72L271.1,140.19L272.1,137.92L273.09,137.87L274.09,130.5L275.09,134.84L276.08,154.06L277.08,150.88L278.08,130.84L279.07,132.49L280.07,136.09L282.06,146.29L283.06,158.89L284.06,161.17L285.05,156.41L286.05,139.12L287.05,173.28L288.04,114.65L289.04,141.4L290.04,158.24L291.03,157.73L292.03,139.13L293.03,103.96L295.02,131.87L296.02,118.71L297.01,153.14L298.01,154.23L299.01,123L300,124.71L302,118.58L302.99,126.8L303.99,146.76L304.99,150.19L306.98,105.04L307.98,119.69L308.97,124.66L309.97,99.31L310.97,138.42L311.96,143.17L312.96,100.75L313.96,102.24L314.95,101.43L315.95,106.49L316.95,111.72L317.94,135.72L318.94,144.26L319.94,100.5L320.93,97.13L321.93,97.28L322.93,95.74L323.92,110.74L324.92,142.19L325.92,137.39L327.91,72.74L328.91,73.8L329.9,98.42L330.9,101.8L331.9,137.03L332.89,137.64L333.89,94.64L334.89,106.75L335.88,90.04L336.88,138.21L337.88,148.71L338.87,146.95L339.87,144.01L340.87,89.63L341.86,94L342.86,92.4L344.85,150.73L345.85,148.58L346.85,144.78L347.84,92.58L348.84,82.91L349.84,48.13L350.83,99.15L351.83,84.54L352.83,130.84L353.82,136.49L354.82,82.07L355.82,86.52L356.81,76.75L357.81,74.7L358.81,85.57L359.8,126.21L360.8,139.56L361.8,84.82L362.79,81.55L363.79,89.06L364.79,92.71L365.78,84.48L366.78,132.93L367.78,135.08L368.77,85L369.77,82.79L372.76,89.99L373.76,133.74L374.75,138.25L375.75,96.21L377.75,92.26L378.74,100.81L379.74,173.28L380.74,62.9L381.73,173.28L382.73,66.54L384.72,95.29L385.72,99.84L386.72,110.17L387.71,138.01L388.71,127.41L389.71,94.54L390.7,92.41L391.7,99.37L393.69,95.01L394.69,131.93L395.69,134.83L396.68,83.93L397.68,78.42L398.68,79.26L399.67,80.44L400.67,85.52L401.67,124.8L402.66,122.36L404.66,71.13L405.65,66.29L406.65,65.73L407.65,74.11L408.64,58.58L409.64,127.23L410.64,72.47L411.63,59.48L412.63,65.84L413.63,51.24L414.62,64.75L415.62,110.86L416.62,121.65L417.61,53.71L418.61,44.63L419.61,49.36L420.6,44.25L421.6,60.63L422.6,105.22L423.59,103.05L424.59,55.76L425.59,45.07L426.58,30.59L427.58,53.26L428.58,50.83L429.57,110.13L430.57,117.82L431.57,52.91L432.56,44.15L433.56,43.5L436.55,128.6L437.55,132.47L438.54,49.37L439.54,41.32L440.54,49.83L441.53,40.34L443.53,120.54L444.52,122.3L445.52,56.19L446.52,68.55L447.51,69.03L448.51,51.08L451.5,129.65L452.5,74.44L453.49,59.71L454.49,108.92L455.49,74.83L456.48,71.93L457.48,126.88L458.48,132.48L459.47,70.51L460.47,59.7L461.47,74.42L462.46,75.93L463.46,77.88L464.46,132.06L465.45,138.21L466.45,63.07L467.45,68.86L468.44,68.74L469.44,60.89L470.44,82.91L472.43,137.38L473.43,69.69L474.42,64.02L475.42,67.01L476.42,51.42L477.41,77.82L479.41,130.33L480.4,65.8L482.4,56.4L483.39,63.79L484.39,64.31L485.39,122.25L486.38,119.86L487.38,68.63L488.38,58.62L489.37,77.16L490.37,102.38L491.37,59.78L493.36,129.92L494.36,60.84L495.35,37.08L496.35,54.48L497.35,119.23L498.34,79.23L499.34,116.81L500.34,120.35L501.33,97.9L502.33,51.12L503.33,47.78L504.32,51.97L505.32,61.16L506.32,119.22L507.31,116.51L508.31,58.44L509.31,37.42L510.3,67.8L511.3,32.48L512.3,56.05L513.29,110.34L514.29,117.86L516.28,9.12L517.28,68.42L518.28,60.34L519.27,81.91L520.27,125.26L521.27,133.67L522.26,80.82L523.26,110.83L524.26,80.45L525.25,80.44L526.25,95.56L527.25,133.7L528.25,140.94L529.24,84.23L530.24,96.32L531.24,96.74L532.23,91.02L533.23,104.18L534.23,143.45L535.22,149.02L537.22,91.03L538.21,98.07L540.21,124.36L541.2,124.66L542.2,151.52L543.2,133.97L544.19,95.61L545.19,102.39L546.19,18.37L547.18,119.01L548.18,147.45L549.18,146.21L551.17,104.88L552.17,113.04L553.16,115.01L554.16,119.74L556.15,151.71L557.15,127.24L558.15,115.27L559.14,116.22L561.14,111.97L562.13,153.49L563.13,156.06L564.13,123.58L565.12,127.06L566.12,116.32L568.11,128.91L569.11,153.4L570.11,152.66L571.1,119.69L572.1,113.85L573.1,121.54L574.09,125L575.09,132.84L576.09,152.76L577.08,154.61L578.08,129.3L579.08,129.58L580.07,129.08L581.07,134.32L582.07,138.09L583.06,154.46L584.06,158.37L585.06,138.25L586.05,134.32L587.05,135.84L588.05,136.86L589.04,142.22L591.04,160.24L592.03,152.9L593.03,153.66L594.03,129.27L595.02,150.56L596.02,152.89L598.01,163.81L599.01,154.18L600.01,152.22L601,124.26L602,157.32" style="vector-effect: non-scaling-stroke; fill: none; stroke: rgb(31, 119, 180); stroke-opacity: 1; stroke-width: 2px; opacity: 1;"/></g><g class="points"/><g class="text"/></g></g></g><g class="overplot"/><path class="xlines-above crisp" style="fill: none;" d="M0,0"/><path class="ylines-above crisp" style="fill: none;" d="M0,0"/><g class="overlines-above"/><g class="xaxislayer-above"><g class="xtick"><text text-anchor="middle" x="0" y="255.4" transform="translate(127.77,0)" style="font-family: 'Open Sans', verdana, arial, sans-serif; font-size: 12px; fill: rgb(68, 68, 68); fill-opacity: 1; white-space: pre;">Apr 2020</text></g><g class="xtick"><text text-anchor="middle" x="0" y="255.4" transform="translate(218.47,0)" style="font-family: 'Open Sans', verdana, arial, sans-serif; font-size: 12px; fill: rgb(68, 68, 68); fill-opacity: 1; white-space: pre;">Jul 2020</text></g><g class="xtick"><text text-anchor="middle" x="0" y="255.4" transform="translate(310.15999999999997,0)" style="font-family: 'Open Sans', verdana, arial, sans-serif; font-size: 12px; fill: rgb(68, 68, 68); fill-opacity: 1; white-space: pre;">Oct 2020</text></g><g class="xtick"><text text-anchor="middle" x="0" y="255.4" transform="translate(401.86,0)" style="font-family: 'Open Sans', verdana, arial, sans-serif; font-size: 12px; fill: rgb(68, 68, 68); fill-opacity: 1; white-space: pre;">Jan 2021</text></g><g class="xtick"><text text-anchor="middle" x="0" y="255.4" transform="translate(491.56,0)" style="font-family: 'Open Sans', verdana, arial, sans-serif; font-size: 12px; fill: rgb(68, 68, 68); fill-opacity: 1; white-space: pre;">Apr 2021</text></g><g class="xtick"><text text-anchor="middle" x="0" y="255.4" transform="translate(582.26,0)" style="font-family: 'Open Sans', verdana, arial, sans-serif; font-size: 12px; fill: rgb(68, 68, 68); fill-opacity: 1; white-space: pre;">Jul 2021</text></g></g><g class="yaxislayer-above"><g class="ytick"><text text-anchor="end" x="57" y="4.199999999999999" transform="translate(0,233.28)" style="font-family: 'Open Sans', verdana, arial, sans-serif; font-size: 12px; fill: rgb(68, 68, 68); fill-opacity: 1; white-space: pre;">0</text></g><g class="ytick"><text text-anchor="end" x="57" y="4.199999999999999" transform="translate(0,162.05)" style="font-family: 'Open Sans', verdana, arial, sans-serif; font-size: 12px; fill: rgb(68, 68, 68); fill-opacity: 1; white-space: pre;">50k</text></g><g class="ytick"><text text-anchor="end" x="57" y="4.199999999999999" transform="translate(0,90.81)" style="font-family: 'Open Sans', verdana, arial, sans-serif; font-size: 12px; fill: rgb(68, 68, 68); fill-opacity: 1; white-space: pre;">100k</text></g></g><g class="overaxes-above"/></g><g class="subplot x2y2"><g class="layer-subplot"><g class="shapelayer"/><g class="imagelayer"/></g><g class="gridlayer"><g class="x2"><path class="x2grid crisp" transform="translate(127.77,0)" d="M0,257.6v182.4" style="stroke: rgb(238, 238, 238); stroke-opacity: 1; stroke-width: 1px;"/><path class="x2grid crisp" transform="translate(218.47,0)" d="M0,257.6v182.4" style="stroke: rgb(238, 238, 238); stroke-opacity: 1; stroke-width: 1px;"/><path class="x2grid crisp" transform="translate(310.15999999999997,0)" d="M0,257.6v182.4" style="stroke: rgb(238, 238, 238); stroke-opacity: 1; stroke-width: 1px;"/><path class="x2grid crisp" transform="translate(401.86,0)" d="M0,257.6v182.4" style="stroke: rgb(238, 238, 238); stroke-opacity: 1; stroke-width: 1px;"/><path class="x2grid crisp" transform="translate(491.56,0)" d="M0,257.6v182.4" style="stroke: rgb(238, 238, 238); stroke-opacity: 1; stroke-width: 1px;"/><path class="x2grid crisp" transform="translate(582.26,0)" d="M0,257.6v182.4" style="stroke: rgb(238, 238, 238); stroke-opacity: 1; stroke-width: 1px;"/></g><g class="y2"><path class="y2grid crisp" transform="translate(0,392.25)" d="M58,0h602" style="stroke: rgb(238, 238, 238); stroke-opacity: 1; stroke-width: 1px;"/><path class="y2grid crisp" transform="translate(0,353.61)" d="M58,0h602" style="stroke: rgb(238, 238, 238); stroke-opacity: 1; stroke-width: 1px;"/><path class="y2grid crisp" transform="translate(0,314.98)" d="M58,0h602" style="stroke: rgb(238, 238, 238); stroke-opacity: 1; stroke-width: 1px;"/><path class="y2grid crisp" transform="translate(0,276.34000000000003)" d="M58,0h602" style="stroke: rgb(238, 238, 238); stroke-opacity: 1; stroke-width: 1px;"/></g></g><g class="zerolinelayer"><path class="y2zl zl crisp" transform="translate(0,430.88)" d="M58,0h602" style="stroke: rgb(68, 68, 68); stroke-opacity: 1; stroke-width: 1px;"/></g><path class="xlines-below"/><path class="ylines-below"/><g class="overlines-below"/><g class="xaxislayer-below"/><g class="yaxislayer-below"/><g class="overaxes-below"/><g class="plot" transform="translate(58, 257.6)" clip-path="url('#clipe4f79ax2y2plot')"><g class="scatterlayer mlayer"><g class="trace scatter tracef22b46" style="stroke-miterlimit: 2; opacity: 1;"><g class="fills"/><g class="errorbars"/><g class="lines"><path class="js-line" d="M0,173.28L65.78,172.55L66.78,172.31L67.77,172.39L68.77,171.66L69.77,171.77L70.76,170.03L71.76,171.93L72.76,169.96L73.75,171.7L74.75,170.27L76.75,168.14L77.74,168.22L79.74,170.69L80.73,169.46L81.73,169.22L82.73,165.4L84.72,166.02L85.72,164.9L86.71,165.05L87.71,169.11L90.7,166.91L91.7,156.86L93.69,159.64L94.69,164.43L95.68,161.03L96.68,154.74L97.68,156.67L98.67,154.23L101.66,162.08L102.66,161.07L104.65,148.17L105.65,150.02L106.65,141.33L107.64,148.59L108.64,155.24L109.64,152.8L110.63,142.06L111.63,143.18L112.63,143.96L113.62,136.07L115.62,155.66L116.61,144.88L117.61,129.62L118.61,139.44L119.6,127.38L120.6,134.61L121.6,136L122.59,148.05L125.58,131.32L126.58,128.62L127.58,129.85L128.57,136.34L129.57,154.74L130.57,149.21L131.56,124.52L132.56,121.16L133.56,116.37L134.55,134.45L135.55,138.35L136.55,153L137.54,147.05L138.54,124.14L139.54,124.06L140.53,125.41L141.53,138.16L142.53,138.82L143.52,149.64L144.52,149.06L145.52,123.75L146.51,124.25L148.51,126.69L149.5,133.8L150.5,149.52L151.5,147.01L152.49,120.2L153.49,127.5L154.49,129.2L155.48,135.03L156.48,130.43L157.48,151.95L158.47,146.54L159.47,123.83L160.47,133.18L161.46,124.91L162.46,123.44L163.46,131.13L164.45,150.02L165.45,149.33L166.45,124.83L167.44,126.03L169.44,126.38L170.43,131.9L171.43,148.9L172.43,144.96L173.42,123.05L174.42,125.64L175.42,122.2L176.41,128.35L178.41,145.62L179.4,148.86L180.4,120.47L181.4,123.67L182.39,122.63L183.39,128.62L184.39,126.49L185.38,151.84L186.38,149.56L187.38,137.7L188.37,111.66L189.37,129.66L190.37,126.45L191.36,131.25L192.36,152.38L193.36,151.61L195.35,117.76L196.35,125.49L198.34,138.32L199.34,151.18L200.33,146.12L201.33,124.06L202.33,127.88L203.32,124.52L206.31,149.33L207.31,146.85L208.31,121.05L209.3,126.45L210.3,126.76L211.3,132.56L212.29,138.82L213.29,154.19L214.29,151.45L215.28,124.17L218.27,140.25L219.27,143.99L220.27,151.41L221.26,151.91L222.26,126.34L223.26,127.54L224.25,141.06L225.25,138.97L228.24,161.3L229.24,153.81L230.24,131.75L231.23,135.3L233.23,141.83L234.22,157.25L235.22,158.56L236.22,130.28L238.21,141.25L239.21,140.13L240.2,144.73L241.2,159.26L242.2,158.71L243.19,141.1L244.19,173.28L245.19,107.48L246.18,145.12L247.18,139.71L248.18,160.34L249.17,161.03L251.17,133.45L252.16,145.15L253.16,173.28L254.16,122.78L255.15,159.18L256.15,160.8L257.15,141.64L258.14,144.92L259.14,145.12L260.14,146.93L261.13,151.68L262.13,162.08L263.13,165.51L264.12,161.34L265.12,144.34L266.12,145.73L267.11,144.15L268.11,155.47L269.11,173.28L270.1,153.92L271.1,147.74L272.1,151.41L273.09,154.08L274.09,151.22L276.08,164.36L277.08,163.12L278.08,152.07L279.07,153.58L281.07,153.65L282.06,157.56L283.06,165.94L284.06,166.36L285.05,163.89L286.05,149.71L287.05,173.28L288.04,138.16L289.04,163.47L290.04,168.33L291.03,164.36L292.03,166.56L294.02,138.01L295.02,155.66L296.02,137.7L297.01,167.87L298.01,164.93L299.01,146.82L300,144.07L301,149.87L302,151.95L302.99,158.75L303.99,165.78L304.99,161.61L305.98,148.94L306.98,148.01L307.98,146.58L308.97,153.42L309.97,150.6L310.97,162.77L311.96,162.19L312.96,146.35L313.96,146.31L314.95,144.11L316.95,147.63L317.94,161.19L318.94,158.75L319.94,140.75L320.93,140.98L321.93,143.53L322.93,147.32L323.92,146.78L324.92,162.5L325.92,156.55L326.91,136.04L327.91,137.12L328.91,131.09L329.9,141.48L330.9,146L331.9,157.52L332.89,152.92L333.89,135.88L334.89,136.15L335.88,143.84L337.88,161.42L338.87,159.99L339.87,156.63L340.87,130.36L341.86,127.15L342.86,131.79L344.85,161.15L345.85,161.96L346.85,152.3L347.84,128.04L348.84,125.3L349.84,114.4L350.83,136.11L351.83,128.04L352.83,155.16L353.82,154.74L355.82,124.06L356.81,129.58L357.81,128.81L358.81,132.71L359.8,151.99L360.8,155.82L361.8,127.23L362.79,121.51L363.79,122.44L364.79,130.94L365.78,126.84L366.78,150.41L367.78,149.06L368.77,126.38L370.77,119.73L371.76,130.05L372.76,123.87L373.76,151.68L374.75,150.29L375.75,126.53L376.75,124.83L377.75,125.68L378.74,125.41L379.74,173.28L380.74,115.33L381.73,173.28L382.73,96.55L383.73,121.9L384.72,121.08L385.72,123.52L388.71,152.88L389.71,128.19L390.7,128.85L391.7,120.47L393.69,125.37L394.69,152.92L395.69,148.59L396.68,119.73L397.68,118.11L398.68,113.74L399.67,121.63L400.67,119.73L401.67,145.42L402.66,143.22L404.66,99.49L405.65,107.64L406.65,103.74L407.65,113.2L408.64,131.32L409.64,135.15L411.63,84.96L412.63,87.01L413.63,87.66L414.62,96.13L415.62,129.74L416.62,132.44L417.61,63.52L418.61,70.97L420.6,64.52L421.6,79.09L422.6,123.44L423.59,119.85L424.59,47.68L425.59,95.66L427.58,32.26L428.58,40.45L429.57,109.3L430.57,109.15L431.57,27.24L432.56,23.8L433.56,27.66L434.56,60.39L436.55,125.37L437.55,122.32L438.54,11.21L439.54,25.35L440.54,9.12L441.53,30.6L443.53,103.62L444.52,116.1L445.52,26.16L446.52,39.64L447.51,35.74L448.51,45.59L449.51,60.12L450.5,109.26L451.5,121.24L452.5,44.97L453.49,39.14L454.49,94.97L455.49,60.7L456.48,54.44L457.48,122.86L458.48,129.27L459.47,54.05L460.47,51.08L461.47,57.34L462.46,73.02L463.46,70.67L464.46,126.84L465.45,135.3L466.45,58.69L468.44,74.76L469.44,89.64L470.44,88.21L471.43,133.72L472.43,138.93L473.43,83.99L474.42,76.92L475.42,81.21L477.41,92.65L478.41,133.25L479.41,142.91L480.4,76.19L481.4,71.25L482.4,80.44L484.39,99.91L485.39,140.05L486.38,142.76L487.38,89.33L488.38,80.63L489.37,86.54L490.37,81.68L491.37,95.55L492.36,139.51L493.36,140.05L494.36,80.25L495.35,76.42L497.35,117.1L498.34,108.03L499.34,139.55L500.34,134.26L501.33,81.41L502.33,68.08L505.32,94.58L506.32,129.66L507.31,141.33L508.31,77.93L509.31,57.49L510.3,83.99L511.3,76.89L512.3,84.38L513.29,133.68L514.29,143.88L515.29,90.95L516.28,80.87L517.28,94.77L518.28,95.97L519.27,111.73L520.27,144.73L521.27,149.4L522.26,100.14L523.26,92.88L524.26,94.89L526.25,110.11L527.25,141.21L528.25,146.43L529.24,104.51L530.24,109.61L531.24,109.96L532.23,114.98L533.23,126.72L534.23,150.29L535.22,144.5L536.22,111.27L537.22,113.16L538.21,113.47L539.21,117.03L540.21,139.74L541.2,136.65L542.2,152.34L543.2,118.26L545.19,118.73L546.19,122.13L547.18,130.47L548.18,154.89L549.18,150.95L550.17,121.78L551.17,121.35L552.17,122.36L553.16,136.07L554.16,138.12L555.16,155.35L556.15,158.25L557.15,126.57L558.15,127.88L561.14,135.03L562.13,157.86L563.13,157.4L564.13,126.49L565.12,135.61L566.12,128.93L567.12,135.96L568.11,137.5L569.11,162.85L570.11,156.51L571.1,130.55L572.1,132.17L574.09,139.67L575.09,146.31L576.09,160.99L577.08,160.88L578.08,138.74L579.08,138.39L580.07,137.74L581.07,143.88L582.07,146.85L583.06,161.77L584.06,163L585.06,140.87L586.05,144.81L587.05,143.76L588.05,144.07L589.04,146.54L590.04,163L591.04,166.25L592.03,161.77L593.03,161.19L594.03,144.19L595.02,147.32L596.02,145.77L597.02,161.96L598.01,164.97L599.01,145.04L600.01,142.37L601,148.21L602,160.65" style="vector-effect: non-scaling-stroke; fill: none; stroke: rgb(255, 0, 0); stroke-opacity: 1; stroke-width: 2px; opacity: 1;"/></g><g class="points"/><g class="text"/></g></g></g><g class="overplot"/><path class="xlines-above crisp" style="fill: none;" d="M0,0"/><path class="ylines-above crisp" style="fill: none;" d="M0,0"/><g class="overlines-above"/><g class="xaxislayer-above"><g class="x2tick"><text text-anchor="middle" x="0" y="453" transform="translate(127.77,0)" style="font-family: 'Open Sans', verdana, arial, sans-serif; font-size: 12px; fill: rgb(68, 68, 68); fill-opacity: 1; white-space: pre;">Apr 2020</text></g><g class="x2tick"><text text-anchor="middle" x="0" y="453" transform="translate(218.47,0)" style="font-family: 'Open Sans', verdana, arial, sans-serif; font-size: 12px; fill: rgb(68, 68, 68); fill-opacity: 1; white-space: pre;">Jul 2020</text></g><g class="x2tick"><text text-anchor="middle" x="0" y="453" transform="translate(310.15999999999997,0)" style="font-family: 'Open Sans', verdana, arial, sans-serif; font-size: 12px; fill: rgb(68, 68, 68); fill-opacity: 1; white-space: pre;">Oct 2020</text></g><g class="x2tick"><text text-anchor="middle" x="0" y="453" transform="translate(401.86,0)" style="font-family: 'Open Sans', verdana, arial, sans-serif; font-size: 12px; fill: rgb(68, 68, 68); fill-opacity: 1; white-space: pre;">Jan 2021</text></g><g class="x2tick"><text text-anchor="middle" x="0" y="453" transform="translate(491.56,0)" style="font-family: 'Open Sans', verdana, arial, sans-serif; font-size: 12px; fill: rgb(68, 68, 68); fill-opacity: 1; white-space: pre;">Apr 2021</text></g><g class="x2tick"><text text-anchor="middle" x="0" y="453" transform="translate(582.26,0)" style="font-family: 'Open Sans', verdana, arial, sans-serif; font-size: 12px; fill: rgb(68, 68, 68); fill-opacity: 1; white-space: pre;">Jul 2021</text></g></g><g class="yaxislayer-above"><g class="y2tick"><text text-anchor="end" x="57" y="4.199999999999999" transform="translate(0,430.88)" style="font-family: 'Open Sans', verdana, arial, sans-serif; font-size: 12px; fill: rgb(68, 68, 68); fill-opacity: 1; white-space: pre;">0</text></g><g class="y2tick"><text text-anchor="end" x="57" y="4.199999999999999" transform="translate(0,392.25)" style="font-family: 'Open Sans', verdana, arial, sans-serif; font-size: 12px; fill: rgb(68, 68, 68); fill-opacity: 1; white-space: pre;">1000</text></g><g class="y2tick"><text text-anchor="end" x="57" y="4.199999999999999" transform="translate(0,353.61)" style="font-family: 'Open Sans', verdana, arial, sans-serif; font-size: 12px; fill: rgb(68, 68, 68); fill-opacity: 1; white-space: pre;">2000</text></g><g class="y2tick"><text text-anchor="end" x="57" y="4.199999999999999" transform="translate(0,314.98)" style="font-family: 'Open Sans', verdana, arial, sans-serif; font-size: 12px; fill: rgb(68, 68, 68); fill-opacity: 1; white-space: pre;">3000</text></g><g class="y2tick"><text text-anchor="end" x="57" y="4.199999999999999" transform="translate(0,276.34000000000003)" style="font-family: 'Open Sans', verdana, arial, sans-serif; font-size: 12px; fill: rgb(68, 68, 68); fill-opacity: 1; white-space: pre;">4000</text></g></g><g class="overaxes-above"/></g></g><g class="polarlayer"/><g class="ternarylayer"/><g class="geolayer"/><g class="funnelarealayer"/><g class="pielayer"/><g class="treemaplayer"/><g class="sunburstlayer"/><g class="glimages"/><defs id="topdefs-e4f79a"><g class="clips"/><clipPath id="legende4f79a"><rect width="108" height="48" x="0" y="0"/></clipPath></defs><g class="layer-above"><g class="imagelayer"/><g class="shapelayer"/></g><g class="infolayer"><g class="legend" pointer-events="all" transform="translate(88.1, 60)"><rect class="bg" shape-rendering="crispEdges" style="stroke: rgb(68, 68, 68); stroke-opacity: 1; fill: rgb(255, 255, 255); fill-opacity: 1; stroke-width: 0px;" width="108" height="48" x="0" y="0"/><g class="scrollbox" transform="translate(0, 0)" clip-path="url('#legende4f79a')"><g class="groups"><g class="traces" style="opacity: 1;" transform="translate(0, 14.5)"><text class="legendtext" text-anchor="start" x="40" y="4.680000000000001" style="font-family: 'Open Sans', verdana, arial, sans-serif; font-size: 12px; fill: rgb(68, 68, 68); fill-opacity: 1; white-space: pre;">Confirmed</text><g class="layers" style="opacity: 1;"><g class="legendfill"/><g class="legendlines"><path class="js-line" d="M5,0h30" style="fill: none; stroke: rgb(31, 119, 180); stroke-opacity: 1; stroke-width: 2px;"/></g><g class="legendsymbols"><g class="legendpoints"/></g></g><rect class="legendtoggle" x="0" y="-9.5" width="102.1875" height="19" style="fill: rgb(0, 0, 0); fill-opacity: 0;"/></g><g class="traces" style="opacity: 1;" transform="translate(0, 33.5)"><text class="legendtext" text-anchor="start" x="40" y="4.680000000000001" style="font-family: 'Open Sans', verdana, arial, sans-serif; font-size: 12px; fill: rgb(68, 68, 68); fill-opacity: 1; white-space: pre;">Death</text><g class="layers" style="opacity: 1;"><g class="legendfill"/><g class="legendlines"><path class="js-line" d="M5,0h30" style="fill: none; stroke: rgb(255, 0, 0); stroke-opacity: 1; stroke-width: 2px;"/></g><g class="legendsymbols"><g class="legendpoints"/></g></g><rect class="legendtoggle" x="0" y="-9.5" width="102.1875" height="19" style="fill: rgb(0, 0, 0); fill-opacity: 0;"/></g></g></g><rect class="scrollbar" rx="20" ry="3" width="0" height="0" style="fill: rgb(128, 139, 164); fill-opacity: 1;" x="0" y="0"/></g><g class="g-gtitle"><text class="gtitle" x="350" y="30" text-anchor="middle" dy="0em" style="font-family: 'Open Sans', verdana, arial, sans-serif; font-size: 17px; fill: rgb(68, 68, 68); opacity: 1; font-weight: normal; white-space: pre;">Brazil - Daily Confirmed and Death Cases</text></g><g class="g-xtitle"/><g class="g-x2title"><text class="x2title" x="359" y="492" text-anchor="middle" style="font-family: 'Open Sans', verdana, arial, sans-serif; font-size: 14px; fill: rgb(68, 68, 68); opacity: 1; font-weight: normal; white-space: pre;">Source: Johns Hopkins University Center for Systems Science and Engineering</text></g><g class="g-ytitle"><text class="ytitle" transform="rotate(-90,20,151.2)" x="20" y="151.2" text-anchor="middle" style="font-family: 'Open Sans', verdana, arial, sans-serif; font-size: 14px; fill: rgb(68, 68, 68); opacity: 1; font-weight: normal; white-space: pre;">Cases</text></g><g class="g-y2title"><text class="y2title" transform="rotate(-90,20,348.8)" x="20" y="348.8" text-anchor="middle" style="font-family: 'Open Sans', verdana, arial, sans-serif; font-size: 14px; fill: rgb(68, 68, 68); opacity: 1; font-weight: normal; white-space: pre;">Cases</text></g></g></svg>