<svg class="main-svg" xmlns="http://www.w3.org/2000/svg" xmlns:xlink="http://www.w3.org/1999/xlink" width="700" height="500" style="" viewBox="0 0 700 500"><rect x="0" y="0" width="700" height="500" style="fill: rgb(255, 255, 255); fill-opacity: 1;"/><defs id="defs-688369"><g class="clips"><clipPath id="clip688369xyplot" class="plotclip"><rect width="613" height="435"/></clipPath><clipPath class="axesclip" id="clip688369x"><rect x="60" y="0" width="613" height="500"/></clipPath><clipPath class="axesclip" id="clip688369y"><rect x="0" y="25" width="700" height="435"/></clipPath><clipPath class="axesclip" id="clip688369xy"><rect x="60" y="25" width="613" height="435"/></clipPath></g><g class="gradients"/></defs><g class="bglayer"/><g class="layer-below"><g class="imagelayer"/><g class="shapelayer"/></g><g class="cartesianlayer"><g class="subplot xy"><g class="layer-subplot"><g class="shapelayer"/><g class="imagelayer"/></g><g class="gridlayer"><g class="x"><path class="xgrid crisp" transform="translate(128.11,0)" d="M0,25v435" style="stroke: rgb(238, 238, 238); stroke-opacity: 1; stroke-width: 1px;"/><path class="xgrid crisp" transform="translate(234.64,0)" d="M0,25v435" style="stroke: rgb(238, 238, 238); stroke-opacity: 1; stroke-width: 1px;"/><path class="xgrid crisp" transform="translate(341.18,0)" d="M0,25v435" style="stroke: rgb(238, 238, 238); stroke-opacity: 1; stroke-width: 1px;"/><path class="xgrid crisp" transform="translate(449.46,0)" d="M0,25v435" style="stroke: rgb(238, 238, 238); stroke-opacity: 1; stroke-width: 1px;"/><path class="xgrid crisp" transform="translate(555.99,0)" d="M0,25v435" style="stroke: rgb(238, 238, 238); stroke-opacity: 1; stroke-width: 1px;"/><path class="xgrid crisp" transform="translate(662.52,0)" d="M0,25v435" style="stroke: rgb(238, 238, 238); stroke-opacity: 1; stroke-width: 1px;"/></g><g class="y"><path class="ygrid crisp" transform="translate(0,413.06)" d="M60,0h613" style="stroke: rgb(238, 238, 238); stroke-opacity: 1; stroke-width: 1px;"/><path class="ygrid crisp" transform="translate(0,366.13)" d="M60,0h613" style="stroke: rgb(238, 238, 238); stroke-opacity: 1; stroke-width: 1px;"/><path class="ygrid crisp" transform="translate(0,319.19)" d="M60,0h613" style="stroke: rgb(238, 238, 238); stroke-opacity: 1; stroke-width: 1px;"/><path class="ygrid crisp" transform="translate(0,272.25)" d="M60,0h613" style="stroke: rgb(238, 238, 238); stroke-opacity: 1; stroke-width: 1px;"/><path class="ygrid crisp" transform="translate(0,225.31)" d="M60,0h613" style="stroke: rgb(238, 238, 238); stroke-opacity: 1; stroke-width: 1px;"/><path class="ygrid crisp" transform="translate(0,178.38)" d="M60,0h613" style="stroke: rgb(238, 238, 238); stroke-opacity: 1; stroke-width: 1px;"/><path class="ygrid crisp" transform="translate(0,131.44)" d="M60,0h613" style="stroke: rgb(238, 238, 238); stroke-opacity: 1; stroke-width: 1px;"/><path class="ygrid crisp" transform="translate(0,84.5)" d="M60,0h613" style="stroke: rgb(238, 238, 238); stroke-opacity: 1; stroke-width: 1px;"/><path class="ygrid crisp" transform="translate(0,37.56)" d="M60,0h613" style="stroke: rgb(238, 238, 238); stroke-opacity: 1; stroke-width: 1px;"/></g></g><g class="zerolinelayer"><path class="yzl zl crisp" transform="translate(0,460)" d="M60,0h613" style="stroke: rgb(68, 68, 68); stroke-opacity: 1; stroke-width: 1px;"/></g><path class="xlines-below"/><path class="ylines-below"/><g class="overlines-below"/><g class="xaxislayer-below"/><g class="yaxislayer-below"/><g class="overaxes-below"/><g class="plot" transform="translate(60, 25)" clip-path="url('#clip688369xyplot')"><g class="scatterlayer mlayer"><g class="trace scatter traced05983" style="stroke-miterlimit: 2;"><g class="fills"><g><path class="js-fill" d="M613,435L0,435L0,435L1.75,435L3.49,435L5.24,434.99L6.99,434.99L8.73,434.99L10.48,434.97L12.23,434.97L13.97,434.96L15.72,434.96L17.46,434.95L19.21,434.93L20.96,434.91L22.7,434.89L24.45,434.88L26.2,434.87L27.94,434.85L29.69,434.84L31.44,434.83L33.18,434.82L34.93,434.82L36.68,434.82L38.42,434.75L40.17,434.73L41.91,434.73L43.66,434.72L45.41,434.72L47.15,434.72L48.9,434.73L50.65,434.74L52.39,434.74L54.14,434.75L55.89,434.75L57.63,434.76L59.38,434.77L61.13,434.77L62.87,434.78L64.62,434.79L66.36,434.8L68.11,434.8L69.86,434.8L71.6,434.8L73.35,434.81L75.1,434.81L76.84,434.8L78.59,434.79L80.34,434.79L82.08,434.78L83.83,434.76L85.58,434.74L87.32,434.72L89.07,434.67L90.81,434.63L92.56,434.59L94.31,434.54L96.05,434.48L97.8,434.4L99.55,434.29L101.29,434.16L103.04,434.04L104.79,433.91L106.53,433.72L108.28,433.59L110.03,433.39L111.77,433.15L113.52,432.9L115.26,432.64L117.01,432.42L118.76,432.21L120.5,431.93L122.25,431.64L124,431.36L125.74,431.07L127.49,430.92L129.24,430.67L130.98,430.43L132.73,430.25L134.48,430.03L136.22,429.77L137.97,429.51L139.72,429.31L141.46,428.87L143.21,428.69L144.95,428.45L146.7,428.3L148.45,428.03L150.19,427.78L151.94,427.56L153.69,427.37L155.43,427.15L157.18,426.99L158.93,426.78L160.67,426.55L162.42,426.42L164.17,426.19L165.91,426.01L167.66,425.84L169.4,425.67L171.15,425.54L172.9,425.48L174.64,425.27L176.39,425.11L178.14,424.92L179.88,424.74L181.63,424.56L183.38,424.38L185.12,424.18L186.87,423.95L188.62,423.82L190.36,423.64L192.11,423.52L193.85,423.32L195.6,423.21L197.35,422.97L199.09,422.77L200.84,422.61L202.59,422.45L204.33,422.3L206.08,422.11L207.83,421.93L209.57,421.7L211.32,421.73L213.07,421.51L214.81,421.35L216.56,421.24L218.3,421.08L220.05,420.92L221.8,420.7L223.54,420.51L225.29,420.22L227.04,420.09L228.78,419.92L230.53,419.86L232.28,419.72L234.02,419.46L235.77,419.19L237.52,418.91L239.26,418.66L241.01,418.91L242.75,418.73L244.5,418.49L246.25,418.27L247.99,418.06L249.74,417.85L251.49,417.57L253.23,417.41L254.98,417.23L256.73,417.14L258.47,416.89L260.22,416.52L261.97,416.34L263.71,416.09L265.46,415.88L267.21,415.62L268.95,415.38L270.7,415L272.44,414.62L274.19,414.31L275.94,413.98L277.68,413.71L279.43,413.47L281.18,413.02L282.92,413.39L284.67,412.99L286.42,413.02L288.16,412.73L289.91,412.56L291.66,412.28L293.4,412.04L295.15,411.63L296.89,411.22L298.64,410.81L300.39,410.45L302.13,410.23L303.88,409.88L305.63,409.57L307.37,409.13L309.12,408.89L310.87,408.51L312.61,407.94L314.36,407.74L316.11,407.49L317.85,407.05L319.6,406.6L321.34,406.38L323.09,406.24L324.84,405.93L326.58,405.7L328.33,405.34L330.08,404.96L331.82,404.67L333.57,404.27L335.32,403.99L337.06,403.58L338.81,403.68L340.56,403.55L342.3,403.33L344.05,402.9L345.79,402.51L347.54,402.26L349.29,402.07L351.03,401.8L352.78,402.05L354.53,401.91L356.27,401.35L358.02,401.3L359.77,400.96L361.51,401.06L363.26,401.09L365.01,400.98L366.75,400.73L368.5,400.45L370.25,400.04L371.99,399.81L373.74,399.88L375.48,399.78L377.23,399.75L378.98,399.5L380.72,399.17L382.47,398.8L384.22,398.58L385.96,398.55L387.71,398.27L389.46,398.27L391.2,398L392.95,397.75L394.7,397.3L396.44,397L398.19,396.93L399.93,396.88L401.68,396.71L403.43,396.53L405.17,396.17L406.92,395.74L408.67,395.47L410.41,395.22L412.16,395.08L413.91,394.83L415.65,394.51L417.4,394.09L419.15,393.77L420.89,393.54L422.64,393.48L424.38,393.36L426.13,393.08L427.88,393.05L429.62,392.63L431.37,392.23L433.12,392.13L434.86,391.97L436.61,391.84L438.36,391.67L440.1,391.34L441.85,390.93L443.6,390.36L445.34,390.03L447.09,389.86L448.83,389.6L450.58,389.19L452.33,388.77L454.07,388.13L455.82,387.44L457.57,386.7L459.31,386.42L461.06,386.01L462.81,385.44L464.55,384.67L466.3,383.76L468.05,382.82L469.79,382.02L471.54,381.5L473.28,380.66L475.03,379.86L476.78,378.8L478.52,377.67L480.27,376.35L482.02,375.22L483.76,374.48L485.51,373.34L487.26,373.94L489,372.83L490.75,371.44L492.5,370L494.24,368.94L495.99,368L497.74,366.71L499.48,365.34L501.23,364.31L502.97,362.97L504.72,361.35L506.47,359.99L508.21,358.94L509.96,357.83L511.71,356.46L513.45,355.25L515.2,353.32L516.95,351.73L518.69,350.28L520.44,349.16L522.19,348.54L523.93,347.77L525.68,346.59L527.42,345.33L529.17,343.92L530.92,342.79L532.66,341.81L534.41,341.34L536.16,340.38L537.9,339.5L539.65,338.52L541.4,337.19L543.14,336.09L544.89,335.36L546.64,334.93L548.38,334.36L550.13,333.55L551.87,332.4L553.62,331.57L555.37,330.65L557.11,329.63L558.86,329.18L560.61,328.32L562.35,327.23L564.1,322.57L565.85,321.6L567.59,325.8L569.34,325.1L571.09,294.55L572.83,293.37L574.58,291.69L576.32,290.04L578.07,288.22L579.82,287.05L581.56,285.86L583.31,284.96L585.06,283.68L586.8,282.02L588.55,280.43L590.3,279.64L592.04,279.18L593.79,278.5L595.54,277.65L597.28,276.28L599.03,274.59L600.77,272.58L602.52,271.42L604.27,269.95L606.01,268.72L607.76,267.56L609.51,265.67L611.25,263.56L613,261.12" style="fill: rgb(31, 119, 180); fill-opacity: 1; stroke-width: 0;"/></g><g><path class="js-fill" d="M0,435L1.75,435L3.49,435L5.24,434.99L6.99,434.99L8.73,434.99L10.48,434.97L12.23,434.97L13.97,434.96L15.72,434.95L17.46,434.94L19.21,434.92L20.96,434.91L22.7,434.89L24.45,434.88L26.2,434.86L27.94,434.85L29.69,434.84L31.44,434.83L33.18,434.82L34.93,434.81L36.68,434.81L38.42,434.75L40.17,434.72L41.91,434.72L43.66,434.72L45.41,434.72L47.15,434.71L48.9,434.72L50.65,434.73L52.39,434.73L54.14,434.74L55.89,434.74L57.63,434.75L59.38,434.75L61.13,434.76L62.87,434.77L64.62,434.78L66.36,434.78L68.11,434.79L69.86,434.79L71.6,434.79L73.35,434.79L75.1,434.79L76.84,434.78L78.59,434.78L80.34,434.77L82.08,434.76L83.83,434.74L85.58,434.72L87.32,434.7L89.07,434.64L90.81,434.6L92.56,434.56L94.31,434.5L96.05,434.44L97.8,434.36L99.55,434.24L101.29,434.11L103.04,433.98L104.79,433.84L106.53,433.64L108.28,433.5L110.03,433.28L111.77,433.03L113.52,432.76L115.26,432.49L117.01,432.26L118.76,432.02L120.5,431.72L122.25,431.41L124,431.1L125.74,430.78L127.49,430.6L129.24,430.32L130.98,430.06L132.73,429.84L134.48,429.58L136.22,429.29L137.97,429L139.72,428.77L141.46,428.3L143.21,428.09L144.95,427.82L146.7,427.63L148.45,427.32L150.19,427.04L151.94,426.79L153.69,426.57L155.43,426.32L157.18,426.13L158.93,425.89L160.67,425.63L162.42,425.47L164.17,425.21L165.91,425.01L167.66,424.81L169.4,424.62L171.15,424.45L172.9,424.37L174.64,424.13L176.39,423.95L178.14,423.74L179.88,423.54L181.63,423.33L183.38,423.13L185.12,422.9L186.87,422.64L188.62,422.49L190.36,422.3L192.11,422.16L193.85,421.94L195.6,421.8L197.35,421.54L199.09,421.31L200.84,421.13L202.59,420.96L204.33,420.79L206.08,420.58L207.83,420.38L209.57,420.12L211.32,420.13L213.07,419.89L214.81,419.71L216.56,419.6L218.3,419.42L220.05,419.24L221.8,418.99L223.54,418.79L225.29,418.48L227.04,418.33L228.78,418.14L230.53,418.06L232.28,417.9L234.02,417.61L235.77,417.32L237.52,417.03L239.26,416.76L241.01,416.99L242.75,416.79L244.5,416.53L246.25,416.29L247.99,416.06L249.74,415.83L251.49,415.54L253.23,415.35L254.98,415.15L256.73,415.03L258.47,414.75L260.22,414.36L261.97,414.16L263.71,413.89L265.46,413.67L267.21,413.38L268.95,413.11L270.7,412.71L272.44,412.31L274.19,411.98L275.94,411.63L277.68,411.35L279.43,411.08L281.18,410.61L282.92,410.96L284.67,410.53L286.42,410.54L288.16,410.24L289.91,410.05L291.66,409.74L293.4,409.47L295.15,409.04L296.89,408.6L298.64,408.17L300.39,407.79L302.13,407.56L303.88,407.18L305.63,406.84L307.37,406.38L309.12,406.1L310.87,405.7L312.61,405.11L314.36,404.89L316.11,404.61L317.85,404.14L319.6,403.64L321.34,403.39L323.09,403.23L324.84,402.9L326.58,402.64L328.33,402.26L330.08,401.84L331.82,401.53L333.57,401.1L335.32,400.8L337.06,400.36L338.81,400.44L340.56,400.28L342.3,400.02L344.05,399.57L345.79,399.15L347.54,398.87L349.29,398.66L351.03,398.36L352.78,398.59L354.53,398.42L356.27,397.83L358.02,397.73L359.77,397.36L361.51,397.44L363.26,397.46L365.01,397.31L366.75,397.02L368.5,396.72L370.25,396.29L371.99,396.03L373.74,396.08L375.48,395.96L377.23,395.9L378.98,395.63L380.72,395.27L382.47,394.87L384.22,394.62L385.96,394.57L387.71,394.28L389.46,394.25L391.2,393.95L392.95,393.66L394.7,393.19L396.44,392.87L398.19,392.78L399.93,392.69L401.68,392.5L403.43,392.29L405.17,391.9L406.92,391.44L408.67,391.14L410.41,390.88L412.16,390.72L413.91,390.44L415.65,390.09L417.4,389.65L419.15,389.3L420.89,389.04L422.64,388.97L424.38,388.83L426.13,388.52L427.88,388.47L429.62,388.01L431.37,387.58L433.12,387.46L434.86,387.28L436.61,387.13L438.36,386.94L440.1,386.57L441.85,386.12L443.6,385.53L445.34,385.17L447.09,384.99L448.83,384.69L450.58,384.25L452.33,383.81L454.07,383.14L455.82,382.42L457.57,381.66L459.31,381.36L461.06,380.93L462.81,380.34L464.55,379.54L466.3,378.61L468.05,377.63L469.79,376.81L471.54,376.27L473.28,375.41L475.03,374.57L476.78,373.48L478.52,372.33L480.27,370.97L482.02,369.82L483.76,369.05L485.51,367.9L487.26,368.46L489,367.31L490.75,365.89L492.5,364.41L494.24,363.32L495.99,362.37L497.74,361.05L499.48,359.63L501.23,358.55L502.97,357.18L504.72,355.51L506.47,354.11L508.21,353.04L509.96,351.89L511.71,350.48L513.45,349.22L515.2,347.24L516.95,345.6L518.69,344.11L520.44,342.97L522.19,342.31L523.93,341.48L525.68,340.25L527.42,338.94L529.17,337.48L530.92,336.31L532.66,335.29L534.41,334.78L536.16,333.76L537.9,332.83L539.65,331.8L541.4,330.42L543.14,329.27L544.89,328.51L546.64,328.03L548.38,327.41L550.13,326.53L551.87,325.33L553.62,324.44L555.37,323.47L557.11,322.41L558.86,321.93L560.61,321.01L562.35,319.87L564.1,315.15L565.85,314.11L567.59,318.26L569.34,317.53L571.09,286.94L572.83,285.69L574.58,283.95L576.32,282.24L578.07,280.36L579.82,279.14L581.56,277.92L583.31,276.96L585.06,275.62L586.8,273.9L588.55,272.25L590.3,271.42L592.04,270.92L593.79,270.22L595.54,269.32L597.28,267.88L599.03,266.11L600.77,264.05L602.52,262.84L604.27,261.33L606.01,260.07L607.76,258.86L609.51,256.9L611.25,254.72L613,252.21L613,261.12L611.25,263.56L609.51,265.67L607.76,267.56L606.01,268.72L604.27,269.95L602.52,271.42L600.77,272.58L599.03,274.59L597.28,276.28L595.54,277.65L593.79,278.5L592.04,279.18L590.3,279.64L588.55,280.43L586.8,282.02L585.06,283.68L583.31,284.96L581.56,285.86L579.82,287.05L578.07,288.22L576.32,290.04L574.58,291.69L572.83,293.37L571.09,294.55L569.34,325.1L567.59,325.8L565.85,321.6L564.1,322.57L562.35,327.23L560.61,328.32L558.86,329.18L557.11,329.63L555.37,330.65L553.62,331.57L551.87,332.4L550.13,333.55L548.38,334.36L546.64,334.93L544.89,335.36L543.14,336.09L541.4,337.19L539.65,338.52L537.9,339.5L536.16,340.38L534.41,341.34L532.66,341.81L530.92,342.79L529.17,343.92L527.42,345.33L525.68,346.59L523.93,347.77L522.19,348.54L520.44,349.16L518.69,350.28L516.95,351.73L515.2,353.32L513.45,355.25L511.71,356.46L509.96,357.83L508.21,358.94L506.47,359.99L504.72,361.35L502.97,362.97L501.23,364.31L499.48,365.34L497.74,366.71L495.99,368L494.24,368.94L492.5,370L490.75,371.44L489,372.83L487.26,373.94L485.51,373.34L483.76,374.48L482.02,375.22L480.27,376.35L478.52,377.67L476.78,378.8L475.03,379.86L473.28,380.66L471.54,381.5L469.79,382.02L468.05,382.82L466.3,383.76L464.55,384.67L462.81,385.44L461.06,386.01L459.31,386.42L457.57,386.7L455.82,387.44L454.07,388.13L452.33,388.77L450.58,389.19L448.83,389.6L447.09,389.86L445.34,390.03L443.6,390.36L441.85,390.93L440.1,391.34L438.36,391.67L436.61,391.84L434.86,391.97L433.12,392.13L431.37,392.23L429.62,392.63L427.88,393.05L426.13,393.08L424.38,393.36L422.64,393.48L420.89,393.54L419.15,393.77L417.4,394.09L415.65,394.51L413.91,394.83L412.16,395.08L410.41,395.22L408.67,395.47L406.92,395.74L405.17,396.17L403.43,396.53L401.68,396.71L399.93,396.88L398.19,396.93L396.44,397L394.7,397.3L392.95,397.75L391.2,398L389.46,398.27L387.71,398.27L385.96,398.55L384.22,398.58L382.47,398.8L380.72,399.17L378.98,399.5L377.23,399.75L375.48,399.78L373.74,399.88L371.99,399.81L370.25,400.04L368.5,400.45L366.75,400.73L365.01,400.98L363.26,401.09L361.51,401.06L359.77,400.96L358.02,401.3L356.27,401.35L354.53,401.91L352.78,402.05L351.03,401.8L349.29,402.07L347.54,402.26L345.79,402.51L344.05,402.9L342.3,403.33L340.56,403.55L338.81,403.68L337.06,403.58L335.32,403.99L333.57,404.27L331.82,404.67L330.08,404.96L328.33,405.34L326.58,405.7L324.84,405.93L323.09,406.24L321.34,406.38L319.6,406.6L317.85,407.05L316.11,407.49L314.36,407.74L312.61,407.94L310.87,408.51L309.12,408.89L307.37,409.13L305.63,409.57L303.88,409.88L302.13,410.23L300.39,410.45L298.64,410.81L296.89,411.22L295.15,411.63L293.4,412.04L291.66,412.28L289.91,412.56L288.16,412.73L286.42,413.02L284.67,412.99L282.92,413.39L281.18,413.02L279.43,413.47L277.68,413.71L275.94,413.98L274.19,414.31L272.44,414.62L270.7,415L268.95,415.38L267.21,415.62L265.46,415.88L263.71,416.09L261.97,416.34L260.22,416.52L258.47,416.89L256.73,417.14L254.98,417.23L253.23,417.41L251.49,417.57L249.74,417.85L247.99,418.06L246.25,418.27L244.5,418.49L242.75,418.73L241.01,418.91L239.26,418.66L237.52,418.91L235.77,419.19L234.02,419.46L232.28,419.72L230.53,419.86L228.78,419.92L227.04,420.09L225.29,420.22L223.54,420.51L221.8,420.7L220.05,420.92L218.3,421.08L216.56,421.24L214.81,421.35L213.07,421.51L211.32,421.73L209.57,421.7L207.83,421.93L206.08,422.11L204.33,422.3L202.59,422.45L200.84,422.61L199.09,422.77L197.35,422.97L195.6,423.21L193.85,423.32L192.11,423.52L190.36,423.64L188.62,423.82L186.87,423.95L185.12,424.18L183.38,424.38L181.63,424.56L179.88,424.74L178.14,424.92L176.39,425.11L174.64,425.27L172.9,425.48L171.15,425.54L169.4,425.67L167.66,425.84L165.91,426.01L164.17,426.19L162.42,426.42L160.67,426.55L158.93,426.78L157.18,426.99L155.43,427.15L153.69,427.37L151.94,427.56L150.19,427.78L148.45,428.03L146.7,428.3L144.95,428.45L143.21,428.69L141.46,428.87L139.72,429.31L137.97,429.51L136.22,429.77L134.48,430.03L132.73,430.25L130.98,430.43L129.24,430.67L127.49,430.92L125.74,431.07L124,431.36L122.25,431.64L120.5,431.93L118.76,432.21L117.01,432.42L115.26,432.64L113.52,432.9L111.77,433.15L110.03,433.39L108.28,433.59L106.53,433.72L104.79,433.91L103.04,434.04L101.29,434.16L99.55,434.29L97.8,434.4L96.05,434.48L94.31,434.54L92.56,434.59L90.81,434.63L89.07,434.67L87.32,434.72L85.58,434.74L83.83,434.76L82.08,434.78L80.34,434.79L78.59,434.79L76.84,434.8L75.1,434.81L73.35,434.81L71.6,434.8L69.86,434.8L68.11,434.8L66.36,434.8L64.62,434.79L62.87,434.78L61.13,434.77L59.38,434.77L57.63,434.76L55.89,434.75L54.14,434.75L52.39,434.74L50.65,434.74L48.9,434.73L47.15,434.72L45.41,434.72L43.66,434.72L41.91,434.73L40.17,434.73L38.42,434.75L36.68,434.82L34.93,434.82L33.18,434.82L31.44,434.83L29.69,434.84L27.94,434.85L26.2,434.87L24.45,434.88L22.7,434.89L20.96,434.91L19.21,434.93L17.46,434.95L15.72,434.96L13.97,434.96L12.23,434.97L10.48,434.97L8.73,434.99L6.99,434.99L5.24,434.99L3.49,435L1.75,435L0,435Z" style="fill: rgb(228, 19, 23); fill-opacity: 1; stroke-width: 0;"/></g></g><g class="errorbars"/><g class="lines"/><g class="points"/><g class="text"/></g><g class="trace scatter tracec481f5" style="stroke-miterlimit: 2;"><g class="fills"><g><path class="js-fill" d="M0,435L1.75,435L3.49,435L5.24,434.99L6.99,434.99L8.73,434.99L10.48,434.97L12.23,434.97L13.97,434.96L15.72,434.95L17.46,434.94L19.21,434.92L20.96,434.91L22.7,434.89L24.45,434.87L26.2,434.86L27.94,434.84L29.69,434.83L31.44,434.81L33.18,434.8L34.93,434.79L36.68,434.79L38.42,434.72L40.17,434.69L41.91,434.68L43.66,434.67L45.41,434.66L47.15,434.65L48.9,434.64L50.65,434.64L52.39,434.64L54.14,434.63L55.89,434.63L57.63,434.63L59.38,434.62L61.13,434.62L62.87,434.61L64.62,434.61L66.36,434.6L68.11,434.59L69.86,434.58L71.6,434.56L73.35,434.55L75.1,434.54L76.84,434.52L78.59,434.5L80.34,434.48L82.08,434.46L83.83,434.44L85.58,434.41L87.32,434.38L89.07,434.31L90.81,434.26L92.56,434.21L94.31,434.14L96.05,434.06L97.8,433.97L99.55,433.84L101.29,433.7L103.04,433.55L104.79,433.38L106.53,433.18L108.28,432.99L110.03,432.75L111.77,432.46L113.52,432.15L115.26,431.83L117.01,431.56L118.76,431.25L120.5,430.89L122.25,430.5L124,430.11L125.74,429.72L127.49,429.44L129.24,429.1L130.98,428.76L132.73,428.43L134.48,428.04L136.22,427.63L137.97,427.23L139.72,426.88L141.46,426.32L143.21,425.99L144.95,425.59L146.7,425.23L148.45,424.78L150.19,424.37L151.94,424.01L153.69,423.65L155.43,423.29L157.18,422.94L158.93,422.56L160.67,422.16L162.42,421.77L164.17,421.38L165.91,421.04L167.66,420.72L169.4,420.36L171.15,420L172.9,419.61L174.64,419.19L176.39,418.82L178.14,418.46L179.88,418.1L181.63,417.72L183.38,417.3L185.12,416.88L186.87,416.46L188.62,416.06L190.36,415.71L192.11,415.35L193.85,414.95L195.6,414.55L197.35,414.1L199.09,413.65L200.84,413.21L202.59,412.84L204.33,412.42L206.08,411.97L207.83,411.49L209.57,410.99L211.32,410.49L213.07,410L214.81,409.56L216.56,409.15L218.3,408.71L220.05,408.23L221.8,407.67L223.54,407.1L225.29,406.46L227.04,405.96L228.78,405.51L230.53,404.94L232.28,404.4L234.02,403.79L235.77,403.17L237.52,402.54L239.26,402.01L241.01,401.53L242.75,400.95L244.5,400.31L246.25,399.67L247.99,399.06L249.74,398.43L251.49,397.81L253.23,397.25L254.98,396.58L256.73,395.91L258.47,395.25L260.22,394.41L261.97,393.67L263.71,393.07L265.46,392.42L267.21,391.64L268.95,390.84L270.7,390L272.44,389.1L274.19,388.27L275.94,387.5L277.68,386.78L279.43,385.96L281.18,384.94L282.92,383.96L284.67,383.01L286.42,382.1L288.16,381.24L289.91,380.47L291.66,379.48L293.4,378.47L295.15,377.4L296.89,376.31L298.64,375.29L300.39,374.39L302.13,373.49L303.88,372.45L305.63,371.36L307.37,370.18L309.12,369.05L310.87,367.94L312.61,366.93L314.36,365.96L316.11,364.87L317.85,363.55L319.6,362.22L321.34,360.9L323.09,359.71L324.84,358.71L326.58,357.65L328.33,356.46L330.08,355.09L331.82,353.78L333.57,352.41L335.32,351.25L337.06,350.16L338.81,349.19L340.56,347.98L342.3,346.69L344.05,345.35L345.79,344.02L347.54,342.81L349.29,341.75L351.03,340.69L352.78,339.49L354.53,338.18L356.27,336.82L358.02,335.4L359.77,334.23L361.51,333.22L363.26,332.25L365.01,331.04L366.75,329.73L368.5,328.45L370.25,327.22L371.99,325.98L373.74,325.01L375.48,323.95L377.23,322.81L378.98,321.48L380.72,320.14L382.47,318.81L384.22,317.57L385.96,316.53L387.71,315.3L389.46,314.06L391.2,312.73L392.95,311.41L394.7,309.93L396.44,308.67L398.19,307.58L399.93,306.56L401.68,305.43L403.43,304.09L405.17,302.68L406.92,301.18L408.67,299.83L410.41,298.69L412.16,297.45L413.91,296.12L415.65,294.69L417.4,293.21L419.15,291.68L420.89,290.31L422.64,289.13L424.38,287.83L426.13,286.5L427.88,285.21L429.62,283.55L431.37,282L433.12,280.65L434.86,279.46L436.61,278.27L438.36,276.94L440.1,275.42L441.85,273.92L443.6,272.53L445.34,270.97L447.09,269.74L448.83,268.33L450.58,266.8L452.33,265.15L454.07,263.46L455.82,261.76L457.57,260.09L459.31,258.74L461.06,257.37L462.81,255.88L464.55,254.08L466.3,252.18L468.05,250.24L469.79,248.5L471.54,247.01L473.28,245.2L475.03,243.37L476.78,241.29L478.52,239.07L480.27,236.74L482.02,234.6L483.76,232.91L485.51,230.63L487.26,228.42L489,226.02L490.75,223.44L492.5,220.77L494.24,218.53L495.99,216.36L497.74,213.73L499.48,211.14L501.23,208.74L502.97,205.94L504.72,202.92L506.47,200.12L508.21,197.86L509.96,195.51L511.71,192.89L513.45,189.85L515.2,186.81L516.95,183.75L518.69,180.96L520.44,178.74L522.19,176.24L523.93,173.38L525.68,170.45L527.42,167.39L529.17,164.26L530.92,161.49L532.66,159.2L534.41,156.76L536.16,154L537.9,151.02L539.65,148.27L541.4,145.12L543.14,142.31L544.89,140.02L546.64,137.66L548.38,134.8L550.13,131.76L551.87,128.51L553.62,125.32L555.37,122.3L557.11,119.76L558.86,117.35L560.61,114.36L562.35,111.22L564.1,104.2L565.85,100.92L567.59,98L569.34,95.42L571.09,92.96L572.83,90.03L574.58,86.58L576.32,83.13L578.07,79.76L579.82,76.87L581.56,74.36L583.31,71.81L585.06,68.77L586.8,65.53L588.55,62.38L590.3,60.19L592.04,57.78L593.79,55.72L595.54,53.43L597.28,50.33L599.03,46.77L600.77,43.4L602.52,40.88L604.27,37.93L606.01,35.43L607.76,32.87L609.51,29.42L611.25,25.77L613,21.75L613,252.21L611.25,254.72L609.51,256.9L607.76,258.86L606.01,260.07L604.27,261.33L602.52,262.84L600.77,264.05L599.03,266.11L597.28,267.88L595.54,269.32L593.79,270.22L592.04,270.92L590.3,271.42L588.55,272.25L586.8,273.9L585.06,275.62L583.31,276.96L581.56,277.92L579.82,279.14L578.07,280.36L576.32,282.24L574.58,283.95L572.83,285.69L571.09,286.94L569.34,317.53L567.59,318.26L565.85,314.11L564.1,315.15L562.35,319.87L560.61,321.01L558.86,321.93L557.11,322.41L555.37,323.47L553.62,324.44L551.87,325.33L550.13,326.53L548.38,327.41L546.64,328.03L544.89,328.51L543.14,329.27L541.4,330.42L539.65,331.8L537.9,332.83L536.16,333.76L534.41,334.78L532.66,335.29L530.92,336.31L529.17,337.48L527.42,338.94L525.68,340.25L523.93,341.48L522.19,342.31L520.44,342.97L518.69,344.11L516.95,345.6L515.2,347.24L513.45,349.22L511.71,350.48L509.96,351.89L508.21,353.04L506.47,354.11L504.72,355.51L502.97,357.18L501.23,358.55L499.48,359.63L497.74,361.05L495.99,362.37L494.24,363.32L492.5,364.41L490.75,365.89L489,367.31L487.26,368.46L485.51,367.9L483.76,369.05L482.02,369.82L480.27,370.97L478.52,372.33L476.78,373.48L475.03,374.57L473.28,375.41L471.54,376.27L469.79,376.81L468.05,377.63L466.3,378.61L464.55,379.54L462.81,380.34L461.06,380.93L459.31,381.36L457.57,381.66L455.82,382.42L454.07,383.14L452.33,383.81L450.58,384.25L448.83,384.69L447.09,384.99L445.34,385.17L443.6,385.53L441.85,386.12L440.1,386.57L438.36,386.94L436.61,387.13L434.86,387.28L433.12,387.46L431.37,387.58L429.62,388.01L427.88,388.47L426.13,388.52L424.38,388.83L422.64,388.97L420.89,389.04L419.15,389.3L417.4,389.65L415.65,390.09L413.91,390.44L412.16,390.72L410.41,390.88L408.67,391.14L406.92,391.44L405.17,391.9L403.43,392.29L401.68,392.5L399.93,392.69L398.19,392.78L396.44,392.87L394.7,393.19L392.95,393.66L391.2,393.95L389.46,394.25L387.71,394.28L385.96,394.57L384.22,394.62L382.47,394.87L380.72,395.27L378.98,395.63L377.23,395.9L375.48,395.96L373.74,396.08L371.99,396.03L370.25,396.29L368.5,396.72L366.75,397.02L365.01,397.31L363.26,397.46L361.51,397.44L359.77,397.36L358.02,397.73L356.27,397.83L354.53,398.42L352.78,398.59L351.03,398.36L349.29,398.66L347.54,398.87L345.79,399.15L344.05,399.57L342.3,400.02L340.56,400.28L338.81,400.44L337.06,400.36L335.32,400.8L333.57,401.1L331.82,401.53L330.08,401.84L328.33,402.26L326.58,402.64L324.84,402.9L323.09,403.23L321.34,403.39L319.6,403.64L317.85,404.14L316.11,404.61L314.36,404.89L312.61,405.11L310.87,405.7L309.12,406.1L307.37,406.38L305.63,406.84L303.88,407.18L302.13,407.56L300.39,407.79L298.64,408.17L296.89,408.6L295.15,409.04L293.4,409.47L291.66,409.74L289.91,410.05L288.16,410.24L286.42,410.54L284.67,410.53L282.92,410.96L281.18,410.61L279.43,411.08L277.68,411.35L275.94,411.63L274.19,411.98L272.44,412.31L270.7,412.71L268.95,413.11L267.21,413.38L265.46,413.67L263.71,413.89L261.97,414.16L260.22,414.36L258.47,414.75L256.73,415.03L254.98,415.15L253.23,415.35L251.49,415.54L249.74,415.83L247.99,416.06L246.25,416.29L244.5,416.53L242.75,416.79L241.01,416.99L239.26,416.76L237.52,417.03L235.77,417.32L234.02,417.61L232.28,417.9L230.53,418.06L228.78,418.14L227.04,418.33L225.29,418.48L223.54,418.79L221.8,418.99L220.05,419.24L218.3,419.42L216.56,419.6L214.81,419.71L213.07,419.89L211.32,420.13L209.57,420.12L207.83,420.38L206.08,420.58L204.33,420.79L202.59,420.96L200.84,421.13L199.09,421.31L197.35,421.54L195.6,421.8L193.85,421.94L192.11,422.16L190.36,422.3L188.62,422.49L186.87,422.64L185.12,422.9L183.38,423.13L181.63,423.33L179.88,423.54L178.14,423.74L176.39,423.95L174.64,424.13L172.9,424.37L171.15,424.45L169.4,424.62L167.66,424.81L165.91,425.01L164.17,425.21L162.42,425.47L160.67,425.63L158.93,425.89L157.18,426.13L155.43,426.32L153.69,426.57L151.94,426.79L150.19,427.04L148.45,427.32L146.7,427.63L144.95,427.82L143.21,428.09L141.46,428.3L139.72,428.77L137.97,429L136.22,429.29L134.48,429.58L132.73,429.84L130.98,430.06L129.24,430.32L127.49,430.6L125.74,430.78L124,431.1L122.25,431.41L120.5,431.72L118.76,432.02L117.01,432.26L115.26,432.49L113.52,432.76L111.77,433.03L110.03,433.28L108.28,433.5L106.53,433.64L104.79,433.84L103.04,433.98L101.29,434.11L99.55,434.24L97.8,434.36L96.05,434.44L94.31,434.5L92.56,434.56L90.81,434.6L89.07,434.64L87.32,434.7L85.58,434.72L83.83,434.74L82.08,434.76L80.34,434.77L78.59,434.78L76.84,434.78L75.1,434.79L73.35,434.79L71.6,434.79L69.86,434.79L68.11,434.79L66.36,434.78L64.62,434.78L62.87,434.77L61.13,434.76L59.38,434.75L57.63,434.75L55.89,434.74L54.14,434.74L52.39,434.73L50.65,434.73L48.9,434.72L47.15,434.71L45.41,434.72L43.66,434.72L41.91,434.72L40.17,434.72L38.42,434.75L36.68,434.81L34.93,434.81L33.18,434.82L31.44,434.83L29.69,434.84L27.94,434.85L26.2,434.86L24.45,434.88L22.7,434.89L20.96,434.91L19.21,434.92L17.46,434.94L15.72,434.95L13.97,434.96L12.23,434.97L10.48,434.97L8.73,434.99L6.99,434.99L5.24,434.99L3.49,435L1.75,435L0,435Z" style="fill: rgb(34, 139, 34); fill-opacity: 1; stroke-width: 0;"/></g></g><g class="errorbars"/><g class="lines"/><g class="points"/><g class="text"/></g><g class="trace scatter trace0b4063" style="stroke-miterlimit: 2;"><g class="fills"/><g class="errorbars"/><g class="lines"/><g class="points"/><g class="text"/></g></g></g><g class="overplot"/><path class="xlines-above crisp" style="fill: none;" d="M0,0"/><path class="ylines-above crisp" style="fill: none;" d="M0,0"/><g class="overlines-above"/><g class="xaxislayer-above"><g class="xtick"><text text-anchor="middle" x="0" y="473" transform="translate(128.11,0)" style="font-family: 'Open Sans', verdana, arial, sans-serif; font-size: 12px; fill: rgb(68, 68, 68); fill-opacity: 1; white-space: pre;">Mar 2020</text></g><g class="xtick"><text text-anchor="middle" x="0" y="473" transform="translate(234.64,0)" style="font-family: 'Open Sans', verdana, arial, sans-serif; font-size: 12px; fill: rgb(68, 68, 68); fill-opacity: 1; white-space: pre;">May 2020</text></g><g class="xtick"><text text-anchor="middle" x="0" y="473" transform="translate(341.18,0)" style="font-family: 'Open Sans', verdana, arial, sans-serif; font-size: 12px; fill: rgb(68, 68, 68); fill-opacity: 1; white-space: pre;">Jul 2020</text></g><g class="xtick"><text text-anchor="middle" x="0" y="473" transform="translate(449.46,0)" style="font-family: 'Open Sans', verdana, arial, sans-serif; font-size: 12px; fill: rgb(68, 68, 68); fill-opacity: 1; white-space: pre;">Sep 2020</text></g><g class="xtick"><text text-anchor="middle" x="0" y="473" transform="translate(555.99,0)" style="font-family: 'Open Sans', verdana, arial, sans-serif; font-size: 12px; fill: rgb(68, 68, 68); fill-opacity: 1; white-space: pre;">Nov 2020</text></g><g class="xtick"><text text-anchor="middle" x="0" y="473" transform="translate(662.52,0)" style="font-family: 'Open Sans', verdana, arial, sans-serif; font-size: 12px; fill: rgb(68, 68, 68); fill-opacity: 1; white-space: pre;">Jan 2021</text></g></g><g class="yaxislayer-above"><g class="ytick"><text text-anchor="end" x="59" y="4.199999999999999" transform="translate(0,460)" style="font-family: 'Open Sans', verdana, arial, sans-serif; font-size: 12px; fill: rgb(68, 68, 68); fill-opacity: 1; white-space: pre;">0</text></g><g class="ytick"><text text-anchor="end" x="59" y="4.199999999999999" transform="translate(0,413.06)" style="font-family: 'Open Sans', verdana, arial, sans-serif; font-size: 12px; fill: rgb(68, 68, 68); fill-opacity: 1; white-space: pre;">10M</text></g><g class="ytick"><text text-anchor="end" x="59" y="4.199999999999999" transform="translate(0,366.13)" style="font-family: 'Open Sans', verdana, arial, sans-serif; font-size: 12px; fill: rgb(68, 68, 68); fill-opacity: 1; white-space: pre;">20M</text></g><g class="ytick"><text text-anchor="end" x="59" y="4.199999999999999" transform="translate(0,319.19)" style="font-family: 'Open Sans', verdana, arial, sans-serif; font-size: 12px; fill: rgb(68, 68, 68); fill-opacity: 1; white-space: pre;">30M</text></g><g class="ytick"><text text-anchor="end" x="59" y="4.199999999999999" transform="translate(0,272.25)" style="font-family: 'Open Sans', verdana, arial, sans-serif; font-size: 12px; fill: rgb(68, 68, 68); fill-opacity: 1; white-space: pre;">40M</text></g><g class="ytick"><text text-anchor="end" x="59" y="4.199999999999999" transform="translate(0,225.31)" style="font-family: 'Open Sans', verdana, arial, sans-serif; font-size: 12px; fill: rgb(68, 68, 68); fill-opacity: 1; white-space: pre;">50M</text></g><g class="ytick"><text text-anchor="end" x="59" y="4.199999999999999" transform="translate(0,178.38)" style="font-family: 'Open Sans', verdana, arial, sans-serif; font-size: 12px; fill: rgb(68, 68, 68); fill-opacity: 1; white-space: pre;">60M</text></g><g class="ytick"><text text-anchor="end" x="59" y="4.199999999999999" transform="translate(0,131.44)" style="font-family: 'Open Sans', verdana, arial, sans-serif; font-size: 12px; fill: rgb(68, 68, 68); fill-opacity: 1; white-space: pre;">70M</text></g><g class="ytick"><text text-anchor="end" x="59" y="4.199999999999999" transform="translate(0,84.5)" style="font-family: 'Open Sans', verdana, arial, sans-serif; font-size: 12px; fill: rgb(68, 68, 68); fill-opacity: 1; white-space: pre;">80M</text></g><g class="ytick"><text text-anchor="end" x="59" y="4.199999999999999" transform="translate(0,37.56)" style="font-family: 'Open Sans', verdana, arial, sans-serif; font-size: 12px; fill: rgb(68, 68, 68); fill-opacity: 1; white-space: pre;">90M</text></g></g><g class="overaxes-above"/></g></g><g class="polarlayer"/><g class="ternarylayer"/><g class="geolayer"/><g class="funnelarealayer"/><g class="pielayer"/><g class="treemaplayer"/><g class="sunburstlayer"/><g class="glimages"/><defs id="topdefs-688369"><g class="clips"/><clipPath id="legend688369"><rect width="109" height="67" x="0" y="0"/></clipPath></defs><g class="layer-above"><g class="imagelayer"/><g class="shapelayer"/></g><g class="infolayer"><g class="legend" pointer-events="all" transform="translate(121.30000000000001, 68.5)"><rect class="bg" shape-rendering="crispEdges" style="stroke: rgb(68, 68, 68); stroke-opacity: 1; fill: rgb(255, 255, 255); fill-opacity: 1; stroke-width: 0px;" width="109" height="67" x="0" y="0"/><g class="scrollbox" transform="translate(0, 0)" clip-path="url('#legend688369')"><g class="groups"><g class="traces" style="opacity: 1;" transform="translate(0, 14.5)"><text class="legendtext user-select-none" text-anchor="start" x="40" y="4.680000000000001" style="font-family: 'Open Sans', verdana, arial, sans-serif; font-size: 12px; fill: rgb(68, 68, 68); fill-opacity: 1; white-space: pre;">Recovered</text><g class="layers"><g class="legendfill"><path class="js-fill" d="M5,-3h30v6h-30z" style="stroke-width: 0; fill: rgb(34, 139, 34); fill-opacity: 1;"/></g><g class="legendlines"/><g class="legendsymbols"><g class="legendpoints"/></g></g><rect class="legendtoggle" pointer-events="all" x="0" y="-9.5" width="103.03125" height="19" style="cursor: pointer; fill: rgb(0, 0, 0); fill-opacity: 0;"/></g><g class="traces" style="opacity: 1;" transform="translate(0, 33.5)"><text class="legendtext user-select-none" text-anchor="start" x="40" y="4.680000000000001" style="font-family: 'Open Sans', verdana, arial, sans-serif; font-size: 12px; fill: rgb(68, 68, 68); fill-opacity: 1; white-space: pre;">Death</text><g class="layers"><g class="legendfill"><path class="js-fill" d="M5,-3h30v6h-30z" style="stroke-width: 0; fill: rgb(228, 19, 23); fill-opacity: 1;"/></g><g class="legendlines"/><g class="legendsymbols"><g class="legendpoints"/></g></g><rect class="legendtoggle" pointer-events="all" x="0" y="-9.5" width="103.03125" height="19" style="cursor: pointer; fill: rgb(0, 0, 0); fill-opacity: 0;"/></g><g class="traces" style="opacity: 1;" transform="translate(0, 52.5)"><text class="legendtext user-select-none" text-anchor="start" x="40" y="4.680000000000001" style="font-family: 'Open Sans', verdana, arial, sans-serif; font-size: 12px; fill: rgb(68, 68, 68); fill-opacity: 1; white-space: pre;">Active</text><g class="layers"><g class="legendfill"><path class="js-fill" d="M5,-3h30v6h-30z" style="stroke-width: 0; fill: rgb(31, 119, 180); fill-opacity: 1;"/></g><g class="legendlines"/><g class="legendsymbols"><g class="legendpoints"/></g></g><rect class="legendtoggle" pointer-events="all" x="0" y="-9.5" width="103.03125" height="19" style="cursor: pointer; fill: rgb(0, 0, 0); fill-opacity: 0;"/></g></g></g><rect class="scrollbar" rx="20" ry="3" width="0" height="0" style="fill: rgb(128, 139, 164); fill-opacity: 1;" x="0" y="0"/></g><g class="g-gtitle"><text class="gtitle" x="350" y="12.5" text-anchor="middle" dy="0em" style="font-family: 'Open Sans', verdana, arial, sans-serif; font-size: 17px; fill: rgb(68, 68, 68); opacity: 1; font-weight: normal; white-space: pre;">Distribution of Covid19 Cases Worldwide</text></g><g class="g-xtitle" transform="translate(0,-15)"><text class="xtitle" x="366.5" y="512" text-anchor="middle" style="font-family: 'Open Sans', verdana, arial, sans-serif; font-size: 14px; fill: rgb(68, 68, 68); opacity: 1; font-weight: normal; white-space: pre;">Source: Johns Hopkins University Center for Systems Science and Engineering</text></g><g class="g-ytitle"><text class="ytitle" transform="rotate(-90,22,242.5)" x="22" y="242.5" text-anchor="middle" style="font-family: 'Open Sans', verdana, arial, sans-serif; font-size: 14px; fill: rgb(68, 68, 68); opacity: 1; font-weight: normal; white-space: pre;">Number of Cases</text></g></g></svg>