<svg class="main-svg" xmlns="http://www.w3.org/2000/svg" xmlns:xlink="http://www.w3.org/1999/xlink" width="700" height="500" style="" viewBox="0 0 700 500"><rect x="0" y="0" width="700" height="500" style="fill: rgb(255, 255, 255); fill-opacity: 1;"/><defs id="defs-71e71f"><g class="clips"><clipPath id="clip71e71fxyplot" class="plotclip"><rect width="630" height="435"/></clipPath><clipPath class="axesclip" id="clip71e71fx"><rect x="60" y="0" width="630" height="500"/></clipPath><clipPath class="axesclip" id="clip71e71fy"><rect x="0" y="25" width="700" height="435"/></clipPath><clipPath class="axesclip" id="clip71e71fxy"><rect x="60" y="25" width="630" height="435"/></clipPath></g><g class="gradients"/></defs><g class="bglayer"/><g class="layer-below"><g class="imagelayer"/><g class="shapelayer"/></g><g class="cartesianlayer"><g class="subplot xy"><g class="layer-subplot"><g class="shapelayer"/><g class="imagelayer"/></g><g class="gridlayer"><g class="x"><path class="xgrid crisp" transform="translate(110.25,0)" d="M0,25v435" style="stroke: rgb(238, 238, 238); stroke-opacity: 1; stroke-width: 1px;"/><path class="xgrid crisp" transform="translate(188.83,0)" d="M0,25v435" style="stroke: rgb(238, 238, 238); stroke-opacity: 1; stroke-width: 1px;"/><path class="xgrid crisp" transform="translate(267.41999999999996,0)" d="M0,25v435" style="stroke: rgb(238, 238, 238); stroke-opacity: 1; stroke-width: 1px;"/><path class="xgrid crisp" transform="translate(347.3,0)" d="M0,25v435" style="stroke: rgb(238, 238, 238); stroke-opacity: 1; stroke-width: 1px;"/><path class="xgrid crisp" transform="translate(425.89,0)" d="M0,25v435" style="stroke: rgb(238, 238, 238); stroke-opacity: 1; stroke-width: 1px;"/><path class="xgrid crisp" transform="translate(504.48,0)" d="M0,25v435" style="stroke: rgb(238, 238, 238); stroke-opacity: 1; stroke-width: 1px;"/><path class="xgrid crisp" transform="translate(580.49,0)" d="M0,25v435" style="stroke: rgb(238, 238, 238); stroke-opacity: 1; stroke-width: 1px;"/><path class="xgrid crisp" transform="translate(659.08,0)" d="M0,25v435" style="stroke: rgb(238, 238, 238); stroke-opacity: 1; stroke-width: 1px;"/></g><g class="y"><path class="ygrid crisp" transform="translate(0,410.76)" d="M60,0h630" style="stroke: rgb(238, 238, 238); stroke-opacity: 1; stroke-width: 1px;"/><path class="ygrid crisp" transform="translate(0,361.52)" d="M60,0h630" style="stroke: rgb(238, 238, 238); stroke-opacity: 1; stroke-width: 1px;"/><path class="ygrid crisp" transform="translate(0,312.28)" d="M60,0h630" style="stroke: rgb(238, 238, 238); stroke-opacity: 1; stroke-width: 1px;"/><path class="ygrid crisp" transform="translate(0,263.03999999999996)" d="M60,0h630" style="stroke: rgb(238, 238, 238); stroke-opacity: 1; stroke-width: 1px;"/><path class="ygrid crisp" transform="translate(0,213.8)" d="M60,0h630" style="stroke: rgb(238, 238, 238); stroke-opacity: 1; stroke-width: 1px;"/><path class="ygrid crisp" transform="translate(0,164.55)" d="M60,0h630" style="stroke: rgb(238, 238, 238); stroke-opacity: 1; stroke-width: 1px;"/><path class="ygrid crisp" transform="translate(0,115.31)" d="M60,0h630" style="stroke: rgb(238, 238, 238); stroke-opacity: 1; stroke-width: 1px;"/><path class="ygrid crisp" transform="translate(0,66.07)" d="M60,0h630" style="stroke: rgb(238, 238, 238); stroke-opacity: 1; stroke-width: 1px;"/></g></g><g class="zerolinelayer"><path class="yzl zl crisp" transform="translate(0,460)" d="M60,0h630" style="stroke: rgb(68, 68, 68); stroke-opacity: 1; stroke-width: 1px;"/></g><path class="xlines-below"/><path class="ylines-below"/><g class="overlines-below"/><g class="xaxislayer-below"/><g class="yaxislayer-below"/><g class="overaxes-below"/><g class="plot" transform="translate(60, 25)" clip-path="url('#clip71e71fxyplot')"><g class="scatterlayer mlayer"><g class="trace scatter trace037799" style="stroke-miterlimit: 2;"><g class="fills"><g><path class="js-fill" d="M630,435L0,435L0,435L1.29,435L2.58,435L3.87,435L5.15,435L6.44,434.99L7.73,434.99L9.02,434.99L10.31,434.98L11.6,434.98L12.88,434.97L14.17,434.96L15.46,434.95L16.75,434.94L18.04,434.94L19.33,434.93L20.61,434.92L21.9,434.92L23.19,434.91L24.48,434.91L25.77,434.9L27.06,434.9L28.34,434.87L29.63,434.86L30.92,434.86L32.21,434.86L33.5,434.86L34.79,434.86L36.07,434.86L37.36,434.86L38.65,434.86L39.94,434.87L41.23,434.87L42.52,434.87L43.8,434.88L45.09,434.88L46.38,434.89L47.67,434.89L48.96,434.89L50.25,434.89L51.53,434.9L52.82,434.9L54.11,434.9L55.4,434.9L56.69,434.89L57.98,434.89L59.26,434.89L60.55,434.88L61.84,434.88L63.13,434.86L64.42,434.85L65.71,434.82L66.99,434.8L68.28,434.79L69.57,434.76L70.86,434.73L72.15,434.69L73.44,434.63L74.72,434.56L76.01,434.5L77.3,434.43L78.59,434.33L79.88,434.26L81.17,434.15L82.45,434.03L83.74,433.9L85.03,433.76L86.32,433.65L87.61,433.54L88.9,433.39L90.18,433.24L91.47,433.09L92.76,432.94L94.05,432.86L95.34,432.73L96.63,432.6L97.91,432.51L99.2,432.39L100.49,432.26L101.78,432.12L103.07,432.02L104.36,431.79L105.64,431.69L106.93,431.56L108.22,431.49L109.51,431.34L110.8,431.21L112.09,431.1L113.37,431L114.66,430.88L115.95,430.8L117.24,430.69L118.53,430.57L119.82,430.5L121.1,430.38L122.39,430.29L123.68,430.19L124.97,430.11L126.26,430.04L127.55,430.01L128.83,429.89L130.12,429.81L131.41,429.71L132.7,429.62L133.99,429.52L135.28,429.43L136.56,429.32L137.85,429.2L139.14,429.14L140.43,429.04L141.72,428.98L143.01,428.87L144.29,428.82L145.58,428.69L146.87,428.59L148.16,428.5L149.45,428.42L150.74,428.34L152.02,428.24L153.31,428.15L154.6,428.02L155.89,428.04L157.18,427.93L158.47,427.84L159.75,427.78L161.04,427.7L162.33,427.61L163.62,427.5L164.91,427.4L166.2,427.25L167.48,427.18L168.77,427.09L170.06,427.05L171.35,426.98L172.64,426.84L173.93,426.7L175.21,426.56L176.5,426.43L177.79,426.56L179.08,426.46L180.37,426.34L181.66,426.22L182.94,426.11L184.23,426L185.52,425.86L186.81,425.77L188.1,425.67L189.39,425.63L190.67,425.49L191.96,425.3L193.25,425.2L194.54,425.07L195.83,424.96L197.12,424.82L198.4,424.69L199.69,424.49L200.98,424.29L202.27,424.13L203.56,423.95L204.85,423.81L206.13,423.68L207.42,423.44L208.71,423.64L210,423.43L211.29,423.44L212.58,423.29L213.87,423.2L215.15,423.05L216.44,422.93L217.73,422.72L219.02,422.5L220.31,422.29L221.6,422.1L222.88,421.98L224.17,421.8L225.46,421.64L226.75,421.41L228.04,421.28L229.33,421.08L230.61,420.78L231.9,420.67L233.19,420.54L234.48,420.32L235.77,420.08L237.06,419.96L238.34,419.89L239.63,419.73L240.92,419.61L242.21,419.42L243.5,419.22L244.79,419.07L246.07,418.86L247.36,418.7L248.65,418.49L249.94,418.54L251.23,418.47L252.52,418.35L253.8,418.13L255.09,417.93L256.38,417.79L257.67,417.69L258.96,417.55L260.25,417.69L261.53,417.61L262.82,417.32L264.11,417.3L265.4,417.11L266.69,417.17L267.98,417.19L269.26,417.13L270.55,416.99L271.84,416.85L273.13,416.63L274.42,416.51L275.71,416.55L276.99,416.5L278.28,416.48L279.57,416.35L280.86,416.18L282.15,415.99L283.44,415.87L284.72,415.85L286.01,415.71L287.3,415.71L288.59,415.57L289.88,415.43L291.17,415.2L292.45,415.04L293.74,415.01L295.03,414.98L296.32,414.89L297.61,414.8L298.9,414.61L300.18,414.38L301.47,414.23L302.76,414.11L304.05,414.03L305.34,413.9L306.63,413.73L307.91,413.51L309.2,413.34L310.49,413.22L311.78,413.19L313.07,413.13L314.36,412.98L315.64,412.96L316.93,412.74L318.22,412.53L319.51,412.48L320.8,412.39L322.09,412.32L323.37,412.24L324.66,412.06L325.95,411.84L327.24,411.55L328.53,411.37L329.82,411.29L331.1,411.15L332.39,410.93L333.68,410.71L334.97,410.37L336.26,410.01L337.55,409.62L338.83,409.48L340.12,409.26L341.41,408.96L342.7,408.56L343.99,408.08L345.28,407.58L346.56,407.17L347.85,406.89L349.14,406.45L350.43,406.03L351.72,405.47L353.01,404.88L354.29,404.18L355.58,403.59L356.87,403.2L358.16,402.6L359.45,402.92L360.74,402.33L362.02,401.6L363.31,400.84L364.6,400.28L365.89,399.79L367.18,399.11L368.47,398.39L369.75,397.84L371.04,397.14L372.33,396.29L373.62,395.57L374.91,395.02L376.2,394.44L377.48,393.72L378.77,393.08L380.06,392.06L381.35,391.23L382.64,390.47L383.93,389.89L385.21,389.55L386.5,389.14L387.79,388.52L389.08,387.86L390.37,387.12L391.66,386.53L392.94,386.02L394.23,385.76L395.52,385.25L396.81,384.79L398.1,384.29L399.39,383.56L400.67,383.03L401.96,382.63L403.25,382.39L404.54,382.08L405.83,381.65L407.12,381.02L408.4,380.58L409.69,380.1L410.98,379.57L412.27,379.33L413.56,378.86L414.85,378.29L416.13,375.84L417.42,375.32L418.71,377.48L420,377.17L421.29,376.66L422.58,376.01L423.87,375.13L425.15,374.26L426.44,373.3L427.73,372.69L429.02,372.08L430.31,371.59L431.6,370.92L432.88,370.04L434.17,369.2L435.46,368.8L436.75,368.56L438.04,368.22L439.33,367.75L440.61,367.02L441.9,366.14L443.19,365.07L444.48,364.47L445.77,363.69L447.06,363.06L448.34,362.43L449.63,361.43L450.92,360.3L452.21,358.97L453.5,357.76L454.79,356.73L456.07,355.97L457.36,355.18L458.65,354.33L459.94,353.43L461.23,352.53L462.52,351.47L463.8,350.71L465.09,350.2L466.38,349.74L467.67,349.28L468.96,348.42L470.25,347.75L471.53,347.11L472.82,346.52L474.11,346.21L475.4,345.79L476.69,345.27L477.98,344.68L479.26,343.98L480.55,343.46L481.84,343.09L483.13,342.88L484.42,342.48L485.71,342.25L486.99,341.82L488.28,341.42L489.57,340.84L490.86,340.67L492.15,340.4L493.44,340.21L494.72,340.11L496.01,339.73L497.3,339.36L498.59,339.04L499.88,338.75L501.17,338.53L502.45,338.56L503.74,338.3L505.03,338.08L506.32,337.7L507.61,337.28L508.9,337.06L510.18,336.83L511.47,336.59L512.76,336.34L514.05,335.79L515.34,335.28L516.63,334.85L517.91,334.53L519.2,334.23L520.49,334.02L521.78,333.95L523.07,333.46L524.36,332.98L525.64,332.46L526.93,332.05L528.22,331.75L529.51,331.7L530.8,331.35L532.09,330.81L533.37,330.33L534.66,329.81L535.95,329.33L537.24,329.06L538.53,328.93L539.82,328.45L541.1,327.8L542.39,327.12L543.68,326.45L544.97,325.88L546.26,325.54L547.55,325.36L548.83,324.89L550.12,324.18L551.41,323.37L552.7,322.72L553.99,322.06L555.28,321.73L556.56,321.37L557.85,320.82L559.14,320.11L560.43,319.24L561.72,318.49L563.01,318.11L564.29,317.62L565.58,317.29L566.87,316.74L568.16,316.29L569.45,315.23L570.74,314.54L572.02,313.88L573.31,313.5L574.6,312.98L575.89,312.29L577.18,311.41L578.47,310.53L579.75,309.7L581.04,309.06L582.33,308.83L583.62,308.46L584.91,307.88L586.2,306.99L587.48,306.37L588.77,305.76L590.06,305.19L591.35,304.75L592.64,304.79L593.93,304.42L595.21,303.7L596.5,303.27L597.79,302.83L599.08,302.58L600.37,302.65L601.66,302.58L602.94,302.24L604.23,301.97L605.52,301.52L606.81,301.22L608.1,301.07L609.39,301.15L610.67,301.19L611.96,301.25L613.25,301.01L614.54,300.96L615.83,300.86L617.12,300.92L618.4,301.24L619.69,301.77L620.98,302.11L622.27,302.2L623.56,303.12L624.85,303.12L626.13,303.24L627.42,303.33L628.71,303.78L630,303.92" style="fill: rgb(31, 119, 180); fill-opacity: 1; stroke-width: 0;"/></g><g><path class="js-fill" d="M0,435L1.29,435L2.58,435L3.87,435L5.15,434.99L6.44,434.99L7.73,434.99L9.02,434.99L10.31,434.98L11.6,434.98L12.88,434.97L14.17,434.96L15.46,434.95L16.75,434.94L18.04,434.93L19.33,434.93L20.61,434.92L21.9,434.92L23.19,434.91L24.48,434.9L25.77,434.9L27.06,434.9L28.34,434.87L29.63,434.86L30.92,434.85L32.21,434.85L33.5,434.85L34.79,434.85L36.07,434.85L37.36,434.86L38.65,434.86L39.94,434.86L41.23,434.86L42.52,434.87L43.8,434.87L45.09,434.87L46.38,434.88L47.67,434.88L48.96,434.89L50.25,434.89L51.53,434.89L52.82,434.89L54.11,434.89L55.4,434.89L56.69,434.89L57.98,434.88L59.26,434.88L60.55,434.87L61.84,434.87L63.13,434.85L64.42,434.84L65.71,434.81L66.99,434.79L68.28,434.77L69.57,434.74L70.86,434.71L72.15,434.66L73.44,434.6L74.72,434.53L76.01,434.46L77.3,434.39L78.59,434.29L79.88,434.21L81.17,434.1L82.45,433.97L83.74,433.83L85.03,433.68L86.32,433.56L87.61,433.44L88.9,433.28L90.18,433.12L91.47,432.95L92.76,432.79L94.05,432.69L95.34,432.55L96.63,432.41L97.91,432.29L99.2,432.16L100.49,432.01L101.78,431.85L103.07,431.73L104.36,431.48L105.64,431.38L106.93,431.23L108.22,431.13L109.51,430.97L110.8,430.82L112.09,430.69L113.37,430.58L114.66,430.45L115.95,430.35L117.24,430.22L118.53,430.08L119.82,430L121.1,429.87L122.39,429.76L123.68,429.66L124.97,429.55L126.26,429.47L127.55,429.42L128.83,429.3L130.12,429.2L131.41,429.09L132.7,428.99L133.99,428.88L135.28,428.77L136.56,428.65L137.85,428.52L139.14,428.44L140.43,428.34L141.72,428.26L143.01,428.15L144.29,428.08L145.58,427.94L146.87,427.82L148.16,427.73L149.45,427.63L150.74,427.54L152.02,427.43L153.31,427.33L154.6,427.19L155.89,427.2L157.18,427.07L158.47,426.98L159.75,426.92L161.04,426.83L162.33,426.73L163.62,426.6L164.91,426.49L166.2,426.33L167.48,426.26L168.77,426.16L170.06,426.11L171.35,426.03L172.64,425.88L173.93,425.72L175.21,425.57L176.5,425.43L177.79,425.55L179.08,425.45L180.37,425.31L181.66,425.18L182.94,425.06L184.23,424.94L185.52,424.79L186.81,424.69L188.1,424.58L189.39,424.52L190.67,424.37L191.96,424.16L193.25,424.06L194.54,423.91L195.83,423.8L197.12,423.64L198.4,423.5L199.69,423.29L200.98,423.08L202.27,422.9L203.56,422.72L204.85,422.57L206.13,422.43L207.42,422.18L208.71,422.36L210,422.14L211.29,422.14L212.58,421.98L213.87,421.89L215.15,421.72L216.44,421.58L217.73,421.36L219.02,421.13L220.31,420.9L221.6,420.71L222.88,420.58L224.17,420.38L225.46,420.21L226.75,419.96L228.04,419.82L229.33,419.61L230.61,419.3L231.9,419.18L233.19,419.04L234.48,418.79L235.77,418.53L237.06,418.4L238.34,418.31L239.63,418.14L240.92,418L242.21,417.8L243.5,417.58L244.79,417.42L246.07,417.19L247.36,417.03L248.65,416.8L249.94,416.84L251.23,416.76L252.52,416.62L253.8,416.38L255.09,416.16L256.38,416.02L257.67,415.9L258.96,415.75L260.25,415.87L261.53,415.78L262.82,415.47L264.11,415.42L265.4,415.23L266.69,415.27L267.98,415.28L269.26,415.21L270.55,415.05L271.84,414.89L273.13,414.67L274.42,414.53L275.71,414.56L276.99,414.49L278.28,414.46L279.57,414.32L280.86,414.13L282.15,413.92L283.44,413.79L284.72,413.77L286.01,413.62L287.3,413.6L288.59,413.44L289.88,413.29L291.17,413.04L292.45,412.87L293.74,412.83L295.03,412.78L296.32,412.68L297.61,412.57L298.9,412.36L300.18,412.12L301.47,411.97L302.76,411.83L304.05,411.75L305.34,411.6L306.63,411.42L307.91,411.18L309.2,411L310.49,410.86L311.78,410.83L313.07,410.75L314.36,410.59L315.64,410.56L316.93,410.32L318.22,410.09L319.51,410.03L320.8,409.94L322.09,409.86L323.37,409.75L324.66,409.56L325.95,409.32L327.24,409.02L328.53,408.83L329.82,408.73L331.1,408.57L332.39,408.34L333.68,408.11L334.97,407.76L336.26,407.38L337.55,406.98L338.83,406.82L340.12,406.6L341.41,406.28L342.7,405.87L343.99,405.37L345.28,404.86L346.56,404.43L347.85,404.15L349.14,403.69L350.43,403.26L351.72,402.68L353.01,402.07L354.29,401.36L355.58,400.76L356.87,400.35L358.16,399.75L359.45,400.04L360.74,399.43L362.02,398.69L363.31,397.91L364.6,397.34L365.89,396.83L367.18,396.14L368.47,395.39L369.75,394.82L371.04,394.1L372.33,393.22L373.62,392.49L374.91,391.92L376.2,391.32L377.48,390.58L378.77,389.92L380.06,388.87L381.35,388.01L382.64,387.23L383.93,386.63L385.21,386.28L386.5,385.84L387.79,385.19L389.08,384.5L390.37,383.73L391.66,383.12L392.94,382.59L394.23,382.31L395.52,381.78L396.81,381.29L398.1,380.76L399.39,380L400.67,379.45L401.96,379.03L403.25,378.76L404.54,378.43L405.83,377.97L407.12,377.31L408.4,376.83L409.69,376.33L410.98,375.78L412.27,375.51L413.56,375.02L414.85,374.42L416.13,371.94L417.42,371.38L418.71,373.52L420,373.19L421.29,372.65L422.58,371.97L423.87,371.05L425.15,370.16L426.44,369.16L427.73,368.53L429.02,367.89L430.31,367.39L431.6,366.68L432.88,365.77L434.17,364.9L435.46,364.47L436.75,364.21L438.04,363.85L439.33,363.37L440.61,362.6L441.9,361.68L443.19,360.58L444.48,359.95L445.77,359.15L447.06,358.5L448.34,357.85L449.63,356.81L450.92,355.65L452.21,354.28L453.5,353.03L454.79,351.97L456.07,351.19L457.36,350.38L458.65,349.48L459.94,348.54L461.23,347.6L462.52,346.5L463.8,345.71L465.09,345.18L466.38,344.7L467.67,344.19L468.96,343.3L470.25,342.58L471.53,341.9L472.82,341.28L474.11,340.95L475.4,340.5L476.69,339.94L477.98,339.3L479.26,338.57L480.55,338.01L481.84,337.61L483.13,337.38L484.42,336.95L485.71,336.69L486.99,336.21L488.28,335.79L489.57,335.16L490.86,334.97L492.15,334.67L493.44,334.47L494.72,334.33L496.01,333.92L497.3,333.51L498.59,333.17L499.88,332.85L501.17,332.61L502.45,332.62L503.74,332.34L505.03,332.09L506.32,331.68L507.61,331.24L508.9,330.99L510.18,330.75L511.47,330.49L512.76,330.22L514.05,329.64L515.34,329.1L516.63,328.65L517.91,328.31L519.2,327.99L520.49,327.77L521.78,327.67L523.07,327.15L524.36,326.65L525.64,326.1L526.93,325.68L528.22,325.36L529.51,325.3L530.8,324.92L532.09,324.35L533.37,323.85L534.66,323.3L535.95,322.81L537.24,322.53L538.53,322.38L539.82,321.87L541.1,321.2L542.39,320.49L543.68,319.8L544.97,319.21L546.26,318.85L547.55,318.65L548.83,318.16L550.12,317.42L551.41,316.59L552.7,315.91L553.99,315.22L555.28,314.87L556.56,314.49L557.85,313.92L559.14,313.18L560.43,312.27L561.72,311.5L563.01,311.1L564.29,310.6L565.58,310.25L566.87,309.67L568.16,309.18L569.45,308.08L570.74,307.36L572.02,306.67L573.31,306.27L574.6,305.73L575.89,305.01L577.18,304.09L578.47,303.18L579.75,302.31L581.04,301.65L582.33,301.39L583.62,301L584.91,300.39L586.2,299.46L587.48,298.81L588.77,298.16L590.06,297.56L591.35,297.09L592.64,297.1L593.93,296.7L595.21,295.94L596.5,295.47L597.79,295L599.08,294.72L600.37,294.76L601.66,294.67L602.94,294.3L604.23,293.98L605.52,293.5L606.81,293.17L608.1,292.98L609.39,293.04L610.67,293.05L611.96,293.08L613.25,292.81L614.54,292.72L615.83,292.59L617.12,292.63L618.4,292.92L619.69,293.43L620.98,293.72L622.27,293.79L623.56,294.67L624.85,294.64L626.13,294.74L627.42,294.8L628.71,295.23L630,295.34L630,303.92L628.71,303.78L627.42,303.33L626.13,303.24L624.85,303.12L623.56,303.12L622.27,302.2L620.98,302.11L619.69,301.77L618.4,301.24L617.12,300.92L615.83,300.86L614.54,300.96L613.25,301.01L611.96,301.25L610.67,301.19L609.39,301.15L608.1,301.07L606.81,301.22L605.52,301.52L604.23,301.97L602.94,302.24L601.66,302.58L600.37,302.65L599.08,302.58L597.79,302.83L596.5,303.27L595.21,303.7L593.93,304.42L592.64,304.79L591.35,304.75L590.06,305.19L588.77,305.76L587.48,306.37L586.2,306.99L584.91,307.88L583.62,308.46L582.33,308.83L581.04,309.06L579.75,309.7L578.47,310.53L577.18,311.41L575.89,312.29L574.6,312.98L573.31,313.5L572.02,313.88L570.74,314.54L569.45,315.23L568.16,316.29L566.87,316.74L565.58,317.29L564.29,317.62L563.01,318.11L561.72,318.49L560.43,319.24L559.14,320.11L557.85,320.82L556.56,321.37L555.28,321.73L553.99,322.06L552.7,322.72L551.41,323.37L550.12,324.18L548.83,324.89L547.55,325.36L546.26,325.54L544.97,325.88L543.68,326.45L542.39,327.12L541.1,327.8L539.82,328.45L538.53,328.93L537.24,329.06L535.95,329.33L534.66,329.81L533.37,330.33L532.09,330.81L530.8,331.35L529.51,331.7L528.22,331.75L526.93,332.05L525.64,332.46L524.36,332.98L523.07,333.46L521.78,333.95L520.49,334.02L519.2,334.23L517.91,334.53L516.63,334.85L515.34,335.28L514.05,335.79L512.76,336.34L511.47,336.59L510.18,336.83L508.9,337.06L507.61,337.28L506.32,337.7L505.03,338.08L503.74,338.3L502.45,338.56L501.17,338.53L499.88,338.75L498.59,339.04L497.3,339.36L496.01,339.73L494.72,340.11L493.44,340.21L492.15,340.4L490.86,340.67L489.57,340.84L488.28,341.42L486.99,341.82L485.71,342.25L484.42,342.48L483.13,342.88L481.84,343.09L480.55,343.46L479.26,343.98L477.98,344.68L476.69,345.27L475.4,345.79L474.11,346.21L472.82,346.52L471.53,347.11L470.25,347.75L468.96,348.42L467.67,349.28L466.38,349.74L465.09,350.2L463.8,350.71L462.52,351.47L461.23,352.53L459.94,353.43L458.65,354.33L457.36,355.18L456.07,355.97L454.79,356.73L453.5,357.76L452.21,358.97L450.92,360.3L449.63,361.43L448.34,362.43L447.06,363.06L445.77,363.69L444.48,364.47L443.19,365.07L441.9,366.14L440.61,367.02L439.33,367.75L438.04,368.22L436.75,368.56L435.46,368.8L434.17,369.2L432.88,370.04L431.6,370.92L430.31,371.59L429.02,372.08L427.73,372.69L426.44,373.3L425.15,374.26L423.87,375.13L422.58,376.01L421.29,376.66L420,377.17L418.71,377.48L417.42,375.32L416.13,375.84L414.85,378.29L413.56,378.86L412.27,379.33L410.98,379.57L409.69,380.1L408.4,380.58L407.12,381.02L405.83,381.65L404.54,382.08L403.25,382.39L401.96,382.63L400.67,383.03L399.39,383.56L398.1,384.29L396.81,384.79L395.52,385.25L394.23,385.76L392.94,386.02L391.66,386.53L390.37,387.12L389.08,387.86L387.79,388.52L386.5,389.14L385.21,389.55L383.93,389.89L382.64,390.47L381.35,391.23L380.06,392.06L378.77,393.08L377.48,393.72L376.2,394.44L374.91,395.02L373.62,395.57L372.33,396.29L371.04,397.14L369.75,397.84L368.47,398.39L367.18,399.11L365.89,399.79L364.6,400.28L363.31,400.84L362.02,401.6L360.74,402.33L359.45,402.92L358.16,402.6L356.87,403.2L355.58,403.59L354.29,404.18L353.01,404.88L351.72,405.47L350.43,406.03L349.14,406.45L347.85,406.89L346.56,407.17L345.28,407.58L343.99,408.08L342.7,408.56L341.41,408.96L340.12,409.26L338.83,409.48L337.55,409.62L336.26,410.01L334.97,410.37L333.68,410.71L332.39,410.93L331.1,411.15L329.82,411.29L328.53,411.37L327.24,411.55L325.95,411.84L324.66,412.06L323.37,412.24L322.09,412.32L320.8,412.39L319.51,412.48L318.22,412.53L316.93,412.74L315.64,412.96L314.36,412.98L313.07,413.13L311.78,413.19L310.49,413.22L309.2,413.34L307.91,413.51L306.63,413.73L305.34,413.9L304.05,414.03L302.76,414.11L301.47,414.23L300.18,414.38L298.9,414.61L297.61,414.8L296.32,414.89L295.03,414.98L293.74,415.01L292.45,415.04L291.17,415.2L289.88,415.43L288.59,415.57L287.3,415.71L286.01,415.71L284.72,415.85L283.44,415.87L282.15,415.99L280.86,416.18L279.57,416.35L278.28,416.48L276.99,416.5L275.71,416.55L274.42,416.51L273.13,416.63L271.84,416.85L270.55,416.99L269.26,417.13L267.98,417.19L266.69,417.17L265.4,417.11L264.11,417.3L262.82,417.32L261.53,417.61L260.25,417.69L258.96,417.55L257.67,417.69L256.38,417.79L255.09,417.93L253.8,418.13L252.52,418.35L251.23,418.47L249.94,418.54L248.65,418.49L247.36,418.7L246.07,418.86L244.79,419.07L243.5,419.22L242.21,419.42L240.92,419.61L239.63,419.73L238.34,419.89L237.06,419.96L235.77,420.08L234.48,420.32L233.19,420.54L231.9,420.67L230.61,420.78L229.33,421.08L228.04,421.28L226.75,421.41L225.46,421.64L224.17,421.8L222.88,421.98L221.6,422.1L220.31,422.29L219.02,422.5L217.73,422.72L216.44,422.93L215.15,423.05L213.87,423.2L212.58,423.29L211.29,423.44L210,423.43L208.71,423.64L207.42,423.44L206.13,423.68L204.85,423.81L203.56,423.95L202.27,424.13L200.98,424.29L199.69,424.49L198.4,424.69L197.12,424.82L195.83,424.96L194.54,425.07L193.25,425.2L191.96,425.3L190.67,425.49L189.39,425.63L188.1,425.67L186.81,425.77L185.52,425.86L184.23,426L182.94,426.11L181.66,426.22L180.37,426.34L179.08,426.46L177.79,426.56L176.5,426.43L175.21,426.56L173.93,426.7L172.64,426.84L171.35,426.98L170.06,427.05L168.77,427.09L167.48,427.18L166.2,427.25L164.91,427.4L163.62,427.5L162.33,427.61L161.04,427.7L159.75,427.78L158.47,427.84L157.18,427.93L155.89,428.04L154.6,428.02L153.31,428.15L152.02,428.24L150.74,428.34L149.45,428.42L148.16,428.5L146.87,428.59L145.58,428.69L144.29,428.82L143.01,428.87L141.72,428.98L140.43,429.04L139.14,429.14L137.85,429.2L136.56,429.32L135.28,429.43L133.99,429.52L132.7,429.62L131.41,429.71L130.12,429.81L128.83,429.89L127.55,430.01L126.26,430.04L124.97,430.11L123.68,430.19L122.39,430.29L121.1,430.38L119.82,430.5L118.53,430.57L117.24,430.69L115.95,430.8L114.66,430.88L113.37,431L112.09,431.1L110.8,431.21L109.51,431.34L108.22,431.49L106.93,431.56L105.64,431.69L104.36,431.79L103.07,432.02L101.78,432.12L100.49,432.26L99.2,432.39L97.91,432.51L96.63,432.6L95.34,432.73L94.05,432.86L92.76,432.94L91.47,433.09L90.18,433.24L88.9,433.39L87.61,433.54L86.32,433.65L85.03,433.76L83.74,433.9L82.45,434.03L81.17,434.15L79.88,434.26L78.59,434.33L77.3,434.43L76.01,434.5L74.72,434.56L73.44,434.63L72.15,434.69L70.86,434.73L69.57,434.76L68.28,434.79L66.99,434.8L65.71,434.82L64.42,434.85L63.13,434.86L61.84,434.88L60.55,434.88L59.26,434.89L57.98,434.89L56.69,434.89L55.4,434.9L54.11,434.9L52.82,434.9L51.53,434.9L50.25,434.89L48.96,434.89L47.67,434.89L46.38,434.89L45.09,434.88L43.8,434.88L42.52,434.87L41.23,434.87L39.94,434.87L38.65,434.86L37.36,434.86L36.07,434.86L34.79,434.86L33.5,434.86L32.21,434.86L30.92,434.86L29.63,434.86L28.34,434.87L27.06,434.9L25.77,434.9L24.48,434.91L23.19,434.91L21.9,434.92L20.61,434.92L19.33,434.93L18.04,434.94L16.75,434.94L15.46,434.95L14.17,434.96L12.88,434.97L11.6,434.98L10.31,434.98L9.02,434.99L7.73,434.99L6.44,434.99L5.15,435L3.87,435L2.58,435L1.29,435L0,435Z" style="fill: rgb(228, 19, 23); fill-opacity: 1; stroke-width: 0;"/></g></g><g class="errorbars"/><g class="lines"/><g class="points"/><g class="text"/></g><g class="trace scatter trace546830" style="stroke-miterlimit: 2;"><g class="fills"><g><path class="js-fill" d="M0,435L1.29,435L2.58,435L3.87,435L5.15,434.99L6.44,434.99L7.73,434.99L9.02,434.98L10.31,434.98L11.6,434.98L12.88,434.97L14.17,434.96L15.46,434.95L16.75,434.94L18.04,434.93L19.33,434.92L20.61,434.92L21.9,434.91L23.19,434.9L24.48,434.89L25.77,434.89L27.06,434.89L28.34,434.85L29.63,434.84L30.92,434.83L32.21,434.82L33.5,434.82L34.79,434.81L36.07,434.81L37.36,434.81L38.65,434.81L39.94,434.81L41.23,434.81L42.52,434.8L43.8,434.8L45.09,434.8L46.38,434.8L47.67,434.79L48.96,434.79L50.25,434.78L51.53,434.78L52.82,434.77L54.11,434.77L55.4,434.76L56.69,434.75L57.98,434.74L59.26,434.73L60.55,434.72L61.84,434.71L63.13,434.69L64.42,434.67L65.71,434.64L66.99,434.61L68.28,434.58L69.57,434.55L70.86,434.51L72.15,434.46L73.44,434.39L74.72,434.32L76.01,434.24L77.3,434.15L78.59,434.05L79.88,433.95L81.17,433.82L82.45,433.67L83.74,433.51L85.03,433.34L86.32,433.19L87.61,433.03L88.9,432.84L90.18,432.64L91.47,432.44L92.76,432.23L94.05,432.09L95.34,431.91L96.63,431.73L97.91,431.56L99.2,431.35L100.49,431.14L101.78,430.93L103.07,430.74L104.36,430.45L105.64,430.27L106.93,430.07L108.22,429.88L109.51,429.64L110.8,429.42L112.09,429.23L113.37,429.05L114.66,428.86L115.95,428.67L117.24,428.47L118.53,428.26L119.82,428.06L121.1,427.86L122.39,427.68L123.68,427.51L124.97,427.32L126.26,427.13L127.55,426.92L128.83,426.71L130.12,426.51L131.41,426.32L132.7,426.13L133.99,425.93L135.28,425.71L136.56,425.49L137.85,425.27L139.14,425.06L140.43,424.88L141.72,424.69L143.01,424.48L144.29,424.27L145.58,424.04L146.87,423.8L148.16,423.57L149.45,423.37L150.74,423.16L152.02,422.92L153.31,422.67L154.6,422.4L155.89,422.14L157.18,421.88L158.47,421.65L159.75,421.44L161.04,421.21L162.33,420.95L163.62,420.66L164.91,420.36L166.2,420.03L167.48,419.76L168.77,419.53L170.06,419.23L171.35,418.95L172.64,418.62L173.93,418.3L175.21,417.97L176.5,417.7L177.79,417.44L179.08,417.13L180.37,416.8L181.66,416.46L182.94,416.15L184.23,415.81L185.52,415.49L186.81,415.19L188.1,414.84L189.39,414.49L190.67,414.14L191.96,413.7L193.25,413.31L194.54,413L195.83,412.65L197.12,412.24L198.4,411.82L199.69,411.38L200.98,410.91L202.27,410.47L203.56,410.06L204.85,409.68L206.13,409.25L207.42,408.72L208.71,408.2L210,407.7L211.29,407.23L212.58,406.77L213.87,406.37L215.15,405.85L216.44,405.32L217.73,404.76L219.02,404.19L220.31,403.66L221.6,403.18L222.88,402.71L224.17,402.17L225.46,401.6L226.75,400.98L228.04,400.38L229.33,399.8L230.61,399.27L231.9,398.76L233.19,398.19L234.48,397.5L235.77,396.8L237.06,396.11L238.34,395.48L239.63,394.96L240.92,394.4L242.21,393.78L243.5,393.06L244.79,392.37L246.07,391.66L247.36,391.04L248.65,390.48L249.94,389.97L251.23,389.33L252.52,388.65L253.8,387.95L255.09,387.25L256.38,386.62L257.67,386.07L258.96,385.51L260.25,384.87L261.53,384.19L262.82,383.48L264.11,382.73L265.4,382.12L266.69,381.6L267.98,381.08L269.26,380.45L270.55,379.76L271.84,379.09L273.13,378.45L274.42,377.8L275.71,377.29L276.99,376.73L278.28,376.13L279.57,375.43L280.86,374.73L282.15,374.04L283.44,373.39L284.72,372.84L286.01,372.2L287.3,371.54L288.59,370.85L289.88,370.15L291.17,369.38L292.45,368.71L293.74,368.15L295.03,367.61L296.32,367.01L297.61,366.31L298.9,365.57L300.18,364.78L301.47,364.08L302.76,363.48L304.05,362.83L305.34,362.13L306.63,361.38L307.91,360.6L309.2,359.8L310.49,359.08L311.78,358.46L313.07,357.78L314.36,357.08L315.64,356.4L316.93,355.53L318.22,354.72L319.51,354.01L320.8,353.39L322.09,352.76L323.37,352.06L324.66,351.26L325.95,350.48L327.24,349.74L328.53,348.93L329.82,348.28L331.1,347.54L332.39,346.74L333.68,345.87L334.97,344.98L336.26,344.1L337.55,343.22L338.83,342.51L340.12,341.79L341.41,341.01L342.7,340.06L343.99,339.06L345.28,338.05L346.56,337.13L347.85,336.35L349.14,335.4L350.43,334.44L351.72,333.35L353.01,332.18L354.29,330.96L355.58,329.83L356.87,328.95L358.16,327.75L359.45,326.59L360.74,325.33L362.02,323.98L363.31,322.57L364.6,321.4L365.89,320.26L367.18,318.87L368.47,317.51L369.75,316.25L371.04,314.78L372.33,313.19L373.62,311.72L374.91,310.53L376.2,309.3L377.48,307.92L378.77,306.32L380.06,304.72L381.35,303.12L382.64,301.65L383.93,300.49L385.21,299.17L386.5,297.66L387.79,296.12L389.08,294.51L390.37,292.86L391.66,291.42L392.94,290.22L394.23,288.92L395.52,287.47L396.81,285.9L398.1,284.47L399.39,282.78L400.67,281.34L401.96,280.13L403.25,278.88L404.54,277.37L405.83,275.77L407.12,274.06L408.4,272.38L409.69,270.8L410.98,269.47L412.27,268.19L413.56,266.61L414.85,264.96L416.13,261.27L417.42,259.53L418.71,257.97L420,256.66L421.29,255.37L422.58,253.8L423.87,252L425.15,250.18L426.44,248.4L427.73,246.9L429.02,245.58L430.31,244.23L431.6,242.63L432.88,240.92L434.17,239.28L435.46,238.13L436.75,236.87L438.04,235.79L439.33,234.57L440.61,232.93L441.9,231.06L443.19,229.27L444.48,227.96L445.77,226.42L447.06,225.11L448.34,223.74L449.63,221.92L450.92,219.99L452.21,217.82L453.5,215.84L454.79,213.97L456.07,212.52L457.36,210.99L458.65,209.26L459.94,207.41L461.23,205.56L462.52,203.67L463.8,202.09L465.09,200.79L466.38,199.52L467.67,198.02L468.96,196.32L470.25,194.7L471.53,193.08L472.82,191.68L474.11,190.58L475.4,189.36L476.69,187.99L477.98,186.52L479.26,185L480.55,183.55L481.84,182.28L483.13,181.34L484.42,180.24L485.71,179.11L486.99,177.83L488.28,176.68L489.57,175.36L490.86,174.45L492.15,173.47L493.44,172.69L494.72,171.63L496.01,170.56L497.3,169.47L498.59,168.42L499.88,167.5L501.17,166.78L502.45,166.08L503.74,165.21L505.03,164.24L506.32,163.25L507.61,162.23L508.9,161.32L510.18,160.55L511.47,159.84L512.76,158.88L514.05,157.78L515.34,156.68L516.63,155.59L517.91,154.63L519.2,153.88L520.49,153.13L521.78,152.37L523.07,151.28L524.36,150.17L525.64,149.07L526.93,148.05L528.22,147.15L529.51,146.41L530.8,145.39L532.09,144.24L533.37,143.07L534.66,141.86L535.95,140.74L537.24,139.86L538.53,139L539.82,137.83L541.1,136.51L542.39,135.14L543.68,133.76L544.97,132.53L546.26,131.49L547.55,130.46L548.83,129.2L550.12,127.64L551.41,126.03L552.7,124.45L553.99,123.01L555.28,121.86L556.56,120.73L557.85,119.33L559.14,117.65L560.43,115.9L561.72,114.34L563.01,113.03L564.29,111.67L565.58,110.47L566.87,108.98L568.16,107.29L569.45,105.23L570.74,103.38L572.02,101.75L573.31,100.05L574.6,98.53L575.89,96.61L577.18,94.6L578.47,92.59L579.75,90.48L581.04,88.54L582.33,86.85L583.62,85.15L584.91,83.04L586.2,80.85L587.48,78.64L588.77,76.41L590.06,74.39L591.35,72.61L592.64,70.93L593.93,68.85L595.21,66.62L596.5,64.41L597.79,62.25L599.08,60.29L600.37,58.63L601.66,56.95L602.94,54.96L604.23,52.89L605.52,50.75L606.81,48.7L608.1,46.76L609.39,45.18L610.67,43.65L611.96,41.83L613.25,39.96L614.54,38.18L615.83,36.41L617.12,34.86L618.4,33.51L619.69,32.19L620.98,30.65L622.27,29L623.56,28.31L624.85,26.77L626.13,25.35L627.42,24.18L628.71,23.06L630,21.75L630,295.34L628.71,295.23L627.42,294.8L626.13,294.74L624.85,294.64L623.56,294.67L622.27,293.79L620.98,293.72L619.69,293.43L618.4,292.92L617.12,292.63L615.83,292.59L614.54,292.72L613.25,292.81L611.96,293.08L610.67,293.05L609.39,293.04L608.1,292.98L606.81,293.17L605.52,293.5L604.23,293.98L602.94,294.3L601.66,294.67L600.37,294.76L599.08,294.72L597.79,295L596.5,295.47L595.21,295.94L593.93,296.7L592.64,297.1L591.35,297.09L590.06,297.56L588.77,298.16L587.48,298.81L586.2,299.46L584.91,300.39L583.62,301L582.33,301.39L581.04,301.65L579.75,302.31L578.47,303.18L577.18,304.09L575.89,305.01L574.6,305.73L573.31,306.27L572.02,306.67L570.74,307.36L569.45,308.08L568.16,309.18L566.87,309.67L565.58,310.25L564.29,310.6L563.01,311.1L561.72,311.5L560.43,312.27L559.14,313.18L557.85,313.92L556.56,314.49L555.28,314.87L553.99,315.22L552.7,315.91L551.41,316.59L550.12,317.42L548.83,318.16L547.55,318.65L546.26,318.85L544.97,319.21L543.68,319.8L542.39,320.49L541.1,321.2L539.82,321.87L538.53,322.38L537.24,322.53L535.95,322.81L534.66,323.3L533.37,323.85L532.09,324.35L530.8,324.92L529.51,325.3L528.22,325.36L526.93,325.68L525.64,326.1L524.36,326.65L523.07,327.15L521.78,327.67L520.49,327.77L519.2,327.99L517.91,328.31L516.63,328.65L515.34,329.1L514.05,329.64L512.76,330.22L511.47,330.49L510.18,330.75L508.9,330.99L507.61,331.24L506.32,331.68L505.03,332.09L503.74,332.34L502.45,332.62L501.17,332.61L499.88,332.85L498.59,333.17L497.3,333.51L496.01,333.92L494.72,334.33L493.44,334.47L492.15,334.67L490.86,334.97L489.57,335.16L488.28,335.79L486.99,336.21L485.71,336.69L484.42,336.95L483.13,337.38L481.84,337.61L480.55,338.01L479.26,338.57L477.98,339.3L476.69,339.94L475.4,340.5L474.11,340.95L472.82,341.28L471.53,341.9L470.25,342.58L468.96,343.3L467.67,344.19L466.38,344.7L465.09,345.18L463.8,345.71L462.52,346.5L461.23,347.6L459.94,348.54L458.65,349.48L457.36,350.38L456.07,351.19L454.79,351.97L453.5,353.03L452.21,354.28L450.92,355.65L449.63,356.81L448.34,357.85L447.06,358.5L445.77,359.15L444.48,359.95L443.19,360.58L441.9,361.68L440.61,362.6L439.33,363.37L438.04,363.85L436.75,364.21L435.46,364.47L434.17,364.9L432.88,365.77L431.6,366.68L430.31,367.39L429.02,367.89L427.73,368.53L426.44,369.16L425.15,370.16L423.87,371.05L422.58,371.97L421.29,372.65L420,373.19L418.71,373.52L417.42,371.38L416.13,371.94L414.85,374.42L413.56,375.02L412.27,375.51L410.98,375.78L409.69,376.33L408.4,376.83L407.12,377.31L405.83,377.97L404.54,378.43L403.25,378.76L401.96,379.03L400.67,379.45L399.39,380L398.1,380.76L396.81,381.29L395.52,381.78L394.23,382.31L392.94,382.59L391.66,383.12L390.37,383.73L389.08,384.5L387.79,385.19L386.5,385.84L385.21,386.28L383.93,386.63L382.64,387.23L381.35,388.01L380.06,388.87L378.77,389.92L377.48,390.58L376.2,391.32L374.91,391.92L373.62,392.49L372.33,393.22L371.04,394.1L369.75,394.82L368.47,395.39L367.18,396.14L365.89,396.83L364.6,397.34L363.31,397.91L362.02,398.69L360.74,399.43L359.45,400.04L358.16,399.75L356.87,400.35L355.58,400.76L354.29,401.36L353.01,402.07L351.72,402.68L350.43,403.26L349.14,403.69L347.85,404.15L346.56,404.43L345.28,404.86L343.99,405.37L342.7,405.87L341.41,406.28L340.12,406.6L338.83,406.82L337.55,406.98L336.26,407.38L334.97,407.76L333.68,408.11L332.39,408.34L331.1,408.57L329.82,408.73L328.53,408.83L327.24,409.02L325.95,409.32L324.66,409.56L323.37,409.75L322.09,409.86L320.8,409.94L319.51,410.03L318.22,410.09L316.93,410.32L315.64,410.56L314.36,410.59L313.07,410.75L311.78,410.83L310.49,410.86L309.2,411L307.91,411.18L306.63,411.42L305.34,411.6L304.05,411.75L302.76,411.83L301.47,411.97L300.18,412.12L298.9,412.36L297.61,412.57L296.32,412.68L295.03,412.78L293.74,412.83L292.45,412.87L291.17,413.04L289.88,413.29L288.59,413.44L287.3,413.6L286.01,413.62L284.72,413.77L283.44,413.79L282.15,413.92L280.86,414.13L279.57,414.32L278.28,414.46L276.99,414.49L275.71,414.56L274.42,414.53L273.13,414.67L271.84,414.89L270.55,415.05L269.26,415.21L267.98,415.28L266.69,415.27L265.4,415.23L264.11,415.42L262.82,415.47L261.53,415.78L260.25,415.87L258.96,415.75L257.67,415.9L256.38,416.02L255.09,416.16L253.8,416.38L252.52,416.62L251.23,416.76L249.94,416.84L248.65,416.8L247.36,417.03L246.07,417.19L244.79,417.42L243.5,417.58L242.21,417.8L240.92,418L239.63,418.14L238.34,418.31L237.06,418.4L235.77,418.53L234.48,418.79L233.19,419.04L231.9,419.18L230.61,419.3L229.33,419.61L228.04,419.82L226.75,419.96L225.46,420.21L224.17,420.38L222.88,420.58L221.6,420.71L220.31,420.9L219.02,421.13L217.73,421.36L216.44,421.58L215.15,421.72L213.87,421.89L212.58,421.98L211.29,422.14L210,422.14L208.71,422.36L207.42,422.18L206.13,422.43L204.85,422.57L203.56,422.72L202.27,422.9L200.98,423.08L199.69,423.29L198.4,423.5L197.12,423.64L195.83,423.8L194.54,423.91L193.25,424.06L191.96,424.16L190.67,424.37L189.39,424.52L188.1,424.58L186.81,424.69L185.52,424.79L184.23,424.94L182.94,425.06L181.66,425.18L180.37,425.31L179.08,425.45L177.79,425.55L176.5,425.43L175.21,425.57L173.93,425.72L172.64,425.88L171.35,426.03L170.06,426.11L168.77,426.16L167.48,426.26L166.2,426.33L164.91,426.49L163.62,426.6L162.33,426.73L161.04,426.83L159.75,426.92L158.47,426.98L157.18,427.07L155.89,427.2L154.6,427.19L153.31,427.33L152.02,427.43L150.74,427.54L149.45,427.63L148.16,427.73L146.87,427.82L145.58,427.94L144.29,428.08L143.01,428.15L141.72,428.26L140.43,428.34L139.14,428.44L137.85,428.52L136.56,428.65L135.28,428.77L133.99,428.88L132.7,428.99L131.41,429.09L130.12,429.2L128.83,429.3L127.55,429.42L126.26,429.47L124.97,429.55L123.68,429.66L122.39,429.76L121.1,429.87L119.82,430L118.53,430.08L117.24,430.22L115.95,430.35L114.66,430.45L113.37,430.58L112.09,430.69L110.8,430.82L109.51,430.97L108.22,431.13L106.93,431.23L105.64,431.38L104.36,431.48L103.07,431.73L101.78,431.85L100.49,432.01L99.2,432.16L97.91,432.29L96.63,432.41L95.34,432.55L94.05,432.69L92.76,432.79L91.47,432.95L90.18,433.12L88.9,433.28L87.61,433.44L86.32,433.56L85.03,433.68L83.74,433.83L82.45,433.97L81.17,434.1L79.88,434.21L78.59,434.29L77.3,434.39L76.01,434.46L74.72,434.53L73.44,434.6L72.15,434.66L70.86,434.71L69.57,434.74L68.28,434.77L66.99,434.79L65.71,434.81L64.42,434.84L63.13,434.85L61.84,434.87L60.55,434.87L59.26,434.88L57.98,434.88L56.69,434.89L55.4,434.89L54.11,434.89L52.82,434.89L51.53,434.89L50.25,434.89L48.96,434.89L47.67,434.88L46.38,434.88L45.09,434.87L43.8,434.87L42.52,434.87L41.23,434.86L39.94,434.86L38.65,434.86L37.36,434.86L36.07,434.85L34.79,434.85L33.5,434.85L32.21,434.85L30.92,434.85L29.63,434.86L28.34,434.87L27.06,434.9L25.77,434.9L24.48,434.9L23.19,434.91L21.9,434.92L20.61,434.92L19.33,434.93L18.04,434.93L16.75,434.94L15.46,434.95L14.17,434.96L12.88,434.97L11.6,434.98L10.31,434.98L9.02,434.99L7.73,434.99L6.44,434.99L5.15,434.99L3.87,435L2.58,435L1.29,435L0,435Z" style="fill: rgb(34, 139, 34); fill-opacity: 1; stroke-width: 0;"/></g></g><g class="errorbars"/><g class="lines"/><g class="points"/><g class="text"/></g><g class="trace scatter tracec319c0" style="stroke-miterlimit: 2;"><g class="fills"/><g class="errorbars"/><g class="lines"/><g class="points"/><g class="text"/></g></g></g><g class="overplot"/><path class="xlines-above crisp" style="fill: none;" d="M0,0"/><path class="ylines-above crisp" style="fill: none;" d="M0,0"/><g class="overlines-above"/><g class="xaxislayer-above"><g class="xtick"><text text-anchor="middle" x="0" y="473" transform="translate(110.25,0)" style="font-family: 'Open Sans', verdana, arial, sans-serif; font-size: 12px; fill: rgb(68, 68, 68); fill-opacity: 1; white-space: pre;">Mar 2020</text></g><g class="xtick"><text text-anchor="middle" x="0" y="473" transform="translate(188.83,0)" style="font-family: 'Open Sans', verdana, arial, sans-serif; font-size: 12px; fill: rgb(68, 68, 68); fill-opacity: 1; white-space: pre;">May 2020</text></g><g class="xtick"><text text-anchor="middle" x="0" y="473" transform="translate(267.41999999999996,0)" style="font-family: 'Open Sans', verdana, arial, sans-serif; font-size: 12px; fill: rgb(68, 68, 68); fill-opacity: 1; white-space: pre;">Jul 2020</text></g><g class="xtick"><text text-anchor="middle" x="0" y="473" transform="translate(347.3,0)" style="font-family: 'Open Sans', verdana, arial, sans-serif; font-size: 12px; fill: rgb(68, 68, 68); fill-opacity: 1; white-space: pre;">Sep 2020</text></g><g class="xtick"><text text-anchor="middle" x="0" y="473" transform="translate(425.89,0)" style="font-family: 'Open Sans', verdana, arial, sans-serif; font-size: 12px; fill: rgb(68, 68, 68); fill-opacity: 1; white-space: pre;">Nov 2020</text></g><g class="xtick"><text text-anchor="middle" x="0" y="473" transform="translate(504.48,0)" style="font-family: 'Open Sans', verdana, arial, sans-serif; font-size: 12px; fill: rgb(68, 68, 68); fill-opacity: 1; white-space: pre;">Jan 2021</text></g><g class="xtick"><text text-anchor="middle" x="0" y="473" transform="translate(580.49,0)" style="font-family: 'Open Sans', verdana, arial, sans-serif; font-size: 12px; fill: rgb(68, 68, 68); fill-opacity: 1; white-space: pre;">Mar 2021</text></g><g class="xtick"><text text-anchor="middle" x="0" y="473" transform="translate(659.08,0)" style="font-family: 'Open Sans', verdana, arial, sans-serif; font-size: 12px; fill: rgb(68, 68, 68); fill-opacity: 1; white-space: pre;">May 2021</text></g></g><g class="yaxislayer-above"><g class="ytick"><text text-anchor="end" x="59" y="4.199999999999999" transform="translate(0,460)" style="font-family: 'Open Sans', verdana, arial, sans-serif; font-size: 12px; fill: rgb(68, 68, 68); fill-opacity: 1; white-space: pre;">0</text></g><g class="ytick"><text text-anchor="end" x="59" y="4.199999999999999" transform="translate(0,410.76)" style="font-family: 'Open Sans', verdana, arial, sans-serif; font-size: 12px; fill: rgb(68, 68, 68); fill-opacity: 1; white-space: pre;">20M</text></g><g class="ytick"><text text-anchor="end" x="59" y="4.199999999999999" transform="translate(0,361.52)" style="font-family: 'Open Sans', verdana, arial, sans-serif; font-size: 12px; fill: rgb(68, 68, 68); fill-opacity: 1; white-space: pre;">40M</text></g><g class="ytick"><text text-anchor="end" x="59" y="4.199999999999999" transform="translate(0,312.28)" style="font-family: 'Open Sans', verdana, arial, sans-serif; font-size: 12px; fill: rgb(68, 68, 68); fill-opacity: 1; white-space: pre;">60M</text></g><g class="ytick"><text text-anchor="end" x="59" y="4.199999999999999" transform="translate(0,263.03999999999996)" style="font-family: 'Open Sans', verdana, arial, sans-serif; font-size: 12px; fill: rgb(68, 68, 68); fill-opacity: 1; white-space: pre;">80M</text></g><g class="ytick"><text text-anchor="end" x="59" y="4.199999999999999" transform="translate(0,213.8)" style="font-family: 'Open Sans', verdana, arial, sans-serif; font-size: 12px; fill: rgb(68, 68, 68); fill-opacity: 1; white-space: pre;">100M</text></g><g class="ytick"><text text-anchor="end" x="59" y="4.199999999999999" transform="translate(0,164.55)" style="font-family: 'Open Sans', verdana, arial, sans-serif; font-size: 12px; fill: rgb(68, 68, 68); fill-opacity: 1; white-space: pre;">120M</text></g><g class="ytick"><text text-anchor="end" x="59" y="4.199999999999999" transform="translate(0,115.31)" style="font-family: 'Open Sans', verdana, arial, sans-serif; font-size: 12px; fill: rgb(68, 68, 68); fill-opacity: 1; white-space: pre;">140M</text></g><g class="ytick"><text text-anchor="end" x="59" y="4.199999999999999" transform="translate(0,66.07)" style="font-family: 'Open Sans', verdana, arial, sans-serif; font-size: 12px; fill: rgb(68, 68, 68); fill-opacity: 1; white-space: pre;">160M</text></g></g><g class="overaxes-above"/></g></g><g class="polarlayer"/><g class="ternarylayer"/><g class="geolayer"/><g class="funnelarealayer"/><g class="pielayer"/><g class="treemaplayer"/><g class="sunburstlayer"/><g class="glimages"/><defs id="topdefs-71e71f"><g class="clips"/><clipPath id="legend71e71f"><rect width="109" height="67" x="0" y="0"/></clipPath></defs><g class="layer-above"><g class="imagelayer"/><g class="shapelayer"/></g><g class="infolayer"><g class="legend" pointer-events="all" transform="translate(123, 68.5)"><rect class="bg" shape-rendering="crispEdges" style="stroke: rgb(68, 68, 68); stroke-opacity: 1; fill: rgb(255, 255, 255); fill-opacity: 1; stroke-width: 0px;" width="109" height="67" x="0" y="0"/><g class="scrollbox" transform="translate(0, 0)" clip-path="url('#legend71e71f')"><g class="groups"><g class="traces" style="opacity: 1;" transform="translate(0, 14.5)"><text class="legendtext" text-anchor="start" x="40" y="4.680000000000001" style="font-family: 'Open Sans', verdana, arial, sans-serif; font-size: 12px; fill: rgb(68, 68, 68); fill-opacity: 1; white-space: pre;">Recovered</text><g class="layers"><g class="legendfill"><path class="js-fill" d="M5,-3h30v6h-30z" style="stroke-width: 0; fill: rgb(34, 139, 34); fill-opacity: 1;"/></g><g class="legendlines"/><g class="legendsymbols"><g class="legendpoints"/></g></g><rect class="legendtoggle" x="0" y="-9.5" width="103.03125" height="19" style="fill: rgb(0, 0, 0); fill-opacity: 0;"/></g><g class="traces" style="opacity: 1;" transform="translate(0, 33.5)"><text class="legendtext" text-anchor="start" x="40" y="4.680000000000001" style="font-family: 'Open Sans', verdana, arial, sans-serif; font-size: 12px; fill: rgb(68, 68, 68); fill-opacity: 1; white-space: pre;">Death</text><g class="layers"><g class="legendfill"><path class="js-fill" d="M5,-3h30v6h-30z" style="stroke-width: 0; fill: rgb(228, 19, 23); fill-opacity: 1;"/></g><g class="legendlines"/><g class="legendsymbols"><g class="legendpoints"/></g></g><rect class="legendtoggle" x="0" y="-9.5" width="103.03125" height="19" style="fill: rgb(0, 0, 0); fill-opacity: 0;"/></g><g class="traces" style="opacity: 1;" transform="translate(0, 52.5)"><text class="legendtext" text-anchor="start" x="40" y="4.680000000000001" style="font-family: 'Open Sans', verdana, arial, sans-serif; font-size: 12px; fill: rgb(68, 68, 68); fill-opacity: 1; white-space: pre;">Active</text><g class="layers"><g class="legendfill"><path class="js-fill" d="M5,-3h30v6h-30z" style="stroke-width: 0; fill: rgb(31, 119, 180); fill-opacity: 1;"/></g><g class="legendlines"/><g class="legendsymbols"><g class="legendpoints"/></g></g><rect class="legendtoggle" x="0" y="-9.5" width="103.03125" height="19" style="fill: rgb(0, 0, 0); fill-opacity: 0;"/></g></g></g><rect class="scrollbar" rx="20" ry="3" width="0" height="0" style="fill: rgb(128, 139, 164); fill-opacity: 1;" x="0" y="0"/></g><g class="g-gtitle"><text class="gtitle" x="350" y="12.5" text-anchor="middle" dy="0em" style="font-family: 'Open Sans', verdana, arial, sans-serif; font-size: 17px; fill: rgb(68, 68, 68); opacity: 1; font-weight: normal; white-space: pre;">Distribution of Covid19 Cases Worldwide</text></g><g class="g-xtitle" transform="translate(0,-15)"><text class="xtitle" x="375" y="512" text-anchor="middle" style="font-family: 'Open Sans', verdana, arial, sans-serif; font-size: 14px; fill: rgb(68, 68, 68); opacity: 1; font-weight: normal; white-space: pre;">Source: Johns Hopkins University Center for Systems Science and Engineering</text></g><g class="g-ytitle" transform="translate(-1,0)"><text class="ytitle" transform="rotate(-90,22,242.5)" x="22" y="242.5" text-anchor="middle" style="font-family: 'Open Sans', verdana, arial, sans-serif; font-size: 14px; fill: rgb(68, 68, 68); opacity: 1; font-weight: normal; white-space: pre;">Number of Cases</text></g></g></svg>