<svg class="main-svg" xmlns="http://www.w3.org/2000/svg" xmlns:xlink="http://www.w3.org/1999/xlink" width="700" height="500" style="" viewBox="0 0 700 500"><rect x="0" y="0" width="700" height="500" style="fill: rgb(255, 255, 255); fill-opacity: 1;"/><defs id="defs-a8ffa3"><g class="clips"><clipPath id="clipa8ffa3xyplot" class="plotclip"><rect width="617" height="435"/></clipPath><clipPath class="axesclip" id="clipa8ffa3x"><rect x="60" y="0" width="617" height="500"/></clipPath><clipPath class="axesclip" id="clipa8ffa3y"><rect x="0" y="25" width="700" height="435"/></clipPath><clipPath class="axesclip" id="clipa8ffa3xy"><rect x="60" y="25" width="617" height="435"/></clipPath></g><g class="gradients"/></defs><g class="bglayer"/><g class="layer-below"><g class="imagelayer"/><g class="shapelayer"/></g><g class="cartesianlayer"><g class="subplot xy"><g class="layer-subplot"><g class="shapelayer"/><g class="imagelayer"/></g><g class="gridlayer"><g class="x"><path class="xgrid crisp" transform="translate(128.17000000000002,0)" d="M0,25v435" style="stroke: rgb(238, 238, 238); stroke-opacity: 1; stroke-width: 1px;"/><path class="xgrid crisp" transform="translate(234.79,0)" d="M0,25v435" style="stroke: rgb(238, 238, 238); stroke-opacity: 1; stroke-width: 1px;"/><path class="xgrid crisp" transform="translate(341.41,0)" d="M0,25v435" style="stroke: rgb(238, 238, 238); stroke-opacity: 1; stroke-width: 1px;"/><path class="xgrid crisp" transform="translate(449.78,0)" d="M0,25v435" style="stroke: rgb(238, 238, 238); stroke-opacity: 1; stroke-width: 1px;"/><path class="xgrid crisp" transform="translate(556.4,0)" d="M0,25v435" style="stroke: rgb(238, 238, 238); stroke-opacity: 1; stroke-width: 1px;"/><path class="xgrid crisp" transform="translate(663.02,0)" d="M0,25v435" style="stroke: rgb(238, 238, 238); stroke-opacity: 1; stroke-width: 1px;"/></g><g class="y"><path class="ygrid crisp" transform="translate(0,413.9)" d="M60,0h617" style="stroke: rgb(238, 238, 238); stroke-opacity: 1; stroke-width: 1px;"/><path class="ygrid crisp" transform="translate(0,367.79)" d="M60,0h617" style="stroke: rgb(238, 238, 238); stroke-opacity: 1; stroke-width: 1px;"/><path class="ygrid crisp" transform="translate(0,321.69)" d="M60,0h617" style="stroke: rgb(238, 238, 238); stroke-opacity: 1; stroke-width: 1px;"/><path class="ygrid crisp" transform="translate(0,275.58000000000004)" d="M60,0h617" style="stroke: rgb(238, 238, 238); stroke-opacity: 1; stroke-width: 1px;"/><path class="ygrid crisp" transform="translate(0,229.48)" d="M60,0h617" style="stroke: rgb(238, 238, 238); stroke-opacity: 1; stroke-width: 1px;"/><path class="ygrid crisp" transform="translate(0,183.38)" d="M60,0h617" style="stroke: rgb(238, 238, 238); stroke-opacity: 1; stroke-width: 1px;"/><path class="ygrid crisp" transform="translate(0,137.26999999999998)" d="M60,0h617" style="stroke: rgb(238, 238, 238); stroke-opacity: 1; stroke-width: 1px;"/><path class="ygrid crisp" transform="translate(0,91.17)" d="M60,0h617" style="stroke: rgb(238, 238, 238); stroke-opacity: 1; stroke-width: 1px;"/><path class="ygrid crisp" transform="translate(0,45.06)" d="M60,0h617" style="stroke: rgb(238, 238, 238); stroke-opacity: 1; stroke-width: 1px;"/></g></g><g class="zerolinelayer"><path class="yzl zl crisp" transform="translate(0,460)" d="M60,0h617" style="stroke: rgb(68, 68, 68); stroke-opacity: 1; stroke-width: 1px;"/></g><path class="xlines-below"/><path class="ylines-below"/><g class="overlines-below"/><g class="xaxislayer-below"/><g class="yaxislayer-below"/><g class="overaxes-below"/><g class="plot" transform="translate(60, 25)" clip-path="url('#clipa8ffa3xyplot')"><g class="scatterlayer mlayer"><g class="trace scatter trace99dd9f" style="stroke-miterlimit: 2;"><g class="fills"><g><path class="js-fill" d="M617,435L0,435L0,435L1.75,435L3.5,435L5.24,434.99L6.99,434.99L8.74,434.99L10.49,434.98L12.24,434.97L13.98,434.96L15.73,434.96L17.48,434.95L19.23,434.93L20.97,434.91L22.72,434.9L24.47,434.88L26.22,434.87L27.97,434.85L29.71,434.84L31.46,434.83L33.21,434.83L34.96,434.82L36.71,434.82L38.45,434.76L40.2,434.74L41.95,434.73L43.7,434.73L45.44,434.73L47.19,434.73L48.94,434.74L50.69,434.74L52.44,434.74L54.18,434.75L55.93,434.76L57.68,434.76L59.43,434.77L61.18,434.78L62.92,434.78L64.67,434.79L66.42,434.8L68.17,434.8L69.92,434.81L71.66,434.81L73.41,434.81L75.16,434.81L76.91,434.8L78.65,434.8L80.4,434.79L82.15,434.78L83.9,434.77L85.65,434.75L87.39,434.73L89.14,434.67L90.89,434.63L92.64,434.6L94.39,434.54L96.13,434.49L97.88,434.41L99.63,434.3L101.38,434.18L103.12,434.06L104.87,433.93L106.62,433.75L108.37,433.61L110.12,433.42L111.86,433.18L113.61,432.94L115.36,432.68L117.11,432.47L118.86,432.26L120.6,431.99L122.35,431.7L124.1,431.43L125.85,431.14L127.59,430.99L129.34,430.75L131.09,430.51L132.84,430.34L134.59,430.12L136.33,429.87L138.08,429.61L139.83,429.41L141.58,428.98L143.33,428.81L145.07,428.57L146.82,428.42L148.57,428.15L150.32,427.91L152.07,427.69L153.81,427.51L155.56,427.29L157.31,427.13L159.06,426.93L160.8,426.7L162.55,426.58L164.3,426.35L166.05,426.17L167.8,426L169.54,425.83L171.29,425.7L173.04,425.65L174.79,425.44L176.54,425.29L178.28,425.1L180.03,424.92L181.78,424.74L183.53,424.57L185.27,424.37L187.02,424.14L188.77,424.02L190.52,423.84L192.27,423.72L194.01,423.53L195.76,423.42L197.51,423.18L199.26,422.99L201.01,422.83L202.75,422.67L204.5,422.53L206.25,422.34L208,422.17L209.75,421.93L211.49,421.97L213.24,421.75L214.99,421.59L216.74,421.49L218.48,421.33L220.23,421.17L221.98,420.95L223.73,420.77L225.48,420.48L227.22,420.36L228.97,420.18L230.72,420.13L232.47,419.99L234.22,419.73L235.96,419.47L237.71,419.2L239.46,418.95L241.21,419.19L242.95,419.02L244.7,418.79L246.45,418.57L248.2,418.36L249.95,418.15L251.69,417.88L253.44,417.72L255.19,417.55L256.94,417.46L258.69,417.21L260.43,416.85L262.18,416.68L263.93,416.42L265.68,416.22L267.42,415.96L269.17,415.73L270.92,415.36L272.67,414.99L274.42,414.68L276.16,414.35L277.91,414.09L279.66,413.85L281.41,413.41L283.16,413.78L284.9,413.38L286.65,413.41L288.4,413.13L290.15,412.96L291.9,412.68L293.64,412.45L295.39,412.04L297.14,411.64L298.89,411.24L300.63,410.89L302.38,410.67L304.13,410.33L305.88,410.02L307.63,409.59L309.37,409.35L311.12,408.98L312.87,408.42L314.62,408.22L316.37,407.98L318.11,407.55L319.86,407.1L321.61,406.88L323.36,406.75L325.1,406.45L326.85,406.22L328.6,405.87L330.35,405.49L332.1,405.21L333.84,404.82L335.59,404.55L337.34,404.14L339.09,404.23L340.84,404.11L342.58,403.89L344.33,403.47L346.08,403.09L347.83,402.84L349.58,402.65L351.32,402.39L353.07,402.64L354.82,402.5L356.57,401.95L358.31,401.9L360.06,401.56L361.81,401.66L363.56,401.7L365.31,401.59L367.05,401.33L368.8,401.06L370.55,400.66L372.3,400.44L374.05,400.5L375.79,400.4L377.54,400.37L379.29,400.13L381.04,399.81L382.78,399.44L384.53,399.22L386.28,399.19L388.03,398.93L389.78,398.92L391.52,398.66L393.27,398.41L395.02,397.97L396.77,397.68L398.52,397.61L400.26,397.56L402.01,397.39L403.76,397.22L405.51,396.86L407.25,396.44L409,396.17L410.75,395.93L412.5,395.79L414.25,395.55L415.99,395.23L417.74,394.82L419.49,394.5L421.24,394.27L422.99,394.22L424.73,394.1L426.48,393.83L428.23,393.8L429.98,393.38L431.73,392.99L433.47,392.89L435.22,392.73L436.97,392.6L438.72,392.44L440.46,392.12L442.21,391.71L443.96,391.16L445.71,390.83L447.46,390.66L449.2,390.4L450.95,390L452.7,389.59L454.45,388.96L456.2,388.28L457.94,387.56L459.69,387.28L461.44,386.88L463.19,386.32L464.93,385.57L466.68,384.67L468.43,383.74L470.18,382.97L471.93,382.45L473.67,381.62L475.42,380.84L477.17,379.79L478.92,378.69L480.67,377.39L482.41,376.28L484.16,375.55L485.91,374.44L487.66,375.03L489.41,373.93L491.15,372.57L492.9,371.15L494.65,370.11L496.4,369.19L498.14,367.93L499.89,366.58L501.64,365.56L503.39,364.25L505.14,362.66L506.88,361.32L508.63,360.29L510.38,359.2L512.13,357.86L513.88,356.67L515.62,354.77L517.37,353.21L519.12,351.78L520.87,350.69L522.61,350.07L524.36,349.31L526.11,348.16L527.86,346.92L529.61,345.54L531.35,344.43L533.1,343.47L534.85,343L536.6,342.06L538.35,341.2L540.09,340.24L541.84,338.93L543.59,337.85L545.34,337.13L547.08,336.7L548.83,336.15L550.58,335.35L552.33,334.22L554.08,333.4L555.82,332.5L557.57,331.5L559.32,331.06L561.07,330.21L562.82,329.15L564.56,324.57L566.31,323.61L568.06,327.74L569.81,327.05L571.56,297.05L573.3,295.88L575.05,294.23L576.8,292.61L578.55,290.83L580.29,289.68L582.04,288.51L583.79,287.62L585.54,286.37L587.29,284.74L589.03,283.17L590.78,282.39L592.53,281.94L594.28,281.28L596.03,280.44L597.77,279.1L599.52,277.43L601.27,275.47L603.02,274.33L604.76,272.88L606.51,271.68L608.26,270.54L610.01,268.67L611.76,266.6L613.5,264.18L615.25,261.87L617,259.91" style="fill: rgb(31, 119, 180); fill-opacity: 1; stroke-width: 0;"/></g><g><path class="js-fill" d="M0,435L1.75,435L3.5,435L5.24,434.99L6.99,434.99L8.74,434.99L10.49,434.97L12.24,434.97L13.98,434.96L15.73,434.96L17.48,434.95L19.23,434.92L20.97,434.91L22.72,434.89L24.47,434.88L26.22,434.86L27.97,434.85L29.71,434.84L31.46,434.83L33.21,434.82L34.96,434.81L36.71,434.82L38.45,434.75L40.2,434.73L41.95,434.72L43.7,434.72L45.44,434.72L47.19,434.72L48.94,434.73L50.69,434.73L52.44,434.73L54.18,434.74L55.93,434.74L57.68,434.75L59.43,434.76L61.18,434.76L62.92,434.77L64.67,434.78L66.42,434.79L68.17,434.79L69.92,434.79L71.66,434.79L73.41,434.8L75.16,434.8L76.91,434.79L78.65,434.78L80.4,434.77L82.15,434.76L83.9,434.75L85.65,434.72L87.39,434.7L89.14,434.65L90.89,434.61L92.64,434.57L94.39,434.51L96.13,434.45L97.88,434.37L99.63,434.25L101.38,434.12L103.12,434L104.87,433.86L106.62,433.67L108.37,433.52L110.12,433.32L111.86,433.06L113.61,432.8L115.36,432.53L117.11,432.3L118.86,432.07L120.6,431.78L122.35,431.47L124.1,431.17L125.85,430.85L127.59,430.68L129.34,430.41L131.09,430.15L132.84,429.93L134.59,429.68L136.33,429.4L138.08,429.1L139.83,428.88L141.58,428.42L143.33,428.22L145.07,427.95L146.82,427.76L148.57,427.46L150.32,427.18L152.07,426.93L153.81,426.72L155.56,426.48L157.31,426.29L159.06,426.05L160.8,425.8L162.55,425.64L164.3,425.39L166.05,425.19L167.8,425L169.54,424.8L171.29,424.64L173.04,424.55L174.79,424.32L176.54,424.15L178.28,423.94L180.03,423.74L181.78,423.54L183.53,423.34L185.27,423.11L187.02,422.86L188.77,422.72L190.52,422.52L192.27,422.39L194.01,422.17L195.76,422.04L197.51,421.78L199.26,421.56L201.01,421.38L202.75,421.21L204.5,421.04L206.25,420.84L208,420.64L209.75,420.38L211.49,420.39L213.24,420.16L214.99,419.98L216.74,419.88L218.48,419.7L220.23,419.52L221.98,419.28L223.73,419.08L225.48,418.77L227.22,418.63L228.97,418.44L230.72,418.36L232.47,418.2L234.22,417.92L235.96,417.63L237.71,417.35L239.46,417.09L241.21,417.31L242.95,417.12L244.7,416.86L246.45,416.62L248.2,416.39L249.95,416.17L251.69,415.88L253.44,415.7L255.19,415.5L256.94,415.39L258.69,415.11L260.43,414.72L262.18,414.53L263.93,414.26L265.68,414.04L267.42,413.76L269.17,413.5L270.92,413.11L272.67,412.72L274.42,412.39L276.16,412.05L277.91,411.77L279.66,411.51L281.41,411.04L283.16,411.39L284.9,410.97L286.65,410.97L288.4,410.68L290.15,410.49L291.9,410.19L293.64,409.93L295.39,409.5L297.14,409.07L298.89,408.65L300.63,408.28L302.38,408.04L304.13,407.67L305.88,407.34L307.63,406.89L309.37,406.62L311.12,406.22L312.87,405.64L314.62,405.42L316.37,405.15L318.11,404.69L319.86,404.2L321.61,403.95L323.36,403.79L325.1,403.47L326.85,403.22L328.6,402.84L330.35,402.43L332.1,402.12L333.84,401.7L335.59,401.4L337.34,400.98L339.09,401.05L340.84,400.89L342.58,400.64L344.33,400.2L346.08,399.78L347.83,399.51L349.58,399.3L351.32,399.01L353.07,399.24L354.82,399.07L356.57,398.49L358.31,398.39L360.06,398.03L361.81,398.11L363.56,398.12L365.31,397.98L367.05,397.7L368.8,397.4L370.55,396.97L372.3,396.72L374.05,396.77L375.79,396.65L377.54,396.59L379.29,396.32L381.04,395.97L382.78,395.58L384.53,395.34L386.28,395.29L388.03,395L389.78,394.97L391.52,394.67L393.27,394.4L395.02,393.94L396.77,393.62L398.52,393.53L400.26,393.44L402.01,393.25L403.76,393.05L405.51,392.66L407.25,392.21L409,391.92L410.75,391.67L412.5,391.51L414.25,391.23L415.99,390.89L417.74,390.45L419.49,390.11L421.24,389.86L422.99,389.79L424.73,389.65L426.48,389.35L428.23,389.29L429.98,388.85L431.73,388.42L433.47,388.3L435.22,388.13L436.97,387.98L438.72,387.79L440.46,387.43L442.21,386.99L443.96,386.41L445.71,386.06L447.46,385.88L449.2,385.59L450.95,385.15L452.7,384.71L454.45,384.06L456.2,383.35L457.94,382.61L459.69,382.31L461.44,381.89L463.19,381.31L464.93,380.53L466.68,379.61L468.43,378.65L470.18,377.84L471.93,377.31L473.67,376.46L475.42,375.65L477.17,374.57L478.92,373.44L480.67,372.11L482.41,370.98L484.16,370.23L485.91,369.09L487.66,369.64L489.41,368.51L491.15,367.11L492.9,365.66L494.65,364.6L496.4,363.66L498.14,362.36L499.89,360.97L501.64,359.9L503.39,358.56L505.14,356.92L506.88,355.54L508.63,354.5L510.38,353.36L512.13,351.98L513.88,350.74L515.62,348.8L517.37,347.19L519.12,345.73L520.87,344.6L522.61,343.95L524.36,343.14L526.11,341.93L527.86,340.65L529.61,339.21L531.35,338.06L533.1,337.06L534.85,336.56L536.6,335.56L538.35,334.64L540.09,333.63L541.84,332.27L543.59,331.15L545.34,330.4L547.08,329.93L548.83,329.32L550.58,328.46L552.33,327.28L554.08,326.4L555.82,325.45L557.57,324.41L559.32,323.94L561.07,323.03L562.82,321.91L564.56,317.28L566.31,316.26L568.06,320.34L569.81,319.62L571.56,289.57L573.3,288.34L575.05,286.63L576.8,284.95L578.55,283.11L580.29,281.91L582.04,280.7L583.79,279.77L585.54,278.45L587.29,276.76L589.03,275.14L590.78,274.32L592.53,273.84L594.28,273.14L596.03,272.26L597.77,270.84L599.52,269.11L601.27,267.09L603.02,265.9L604.76,264.42L606.51,263.18L608.26,261.99L610.01,260.06L611.76,257.92L613.5,255.43L615.25,253.05L617,251.02L617,259.91L615.25,261.87L613.5,264.18L611.76,266.6L610.01,268.67L608.26,270.54L606.51,271.68L604.76,272.88L603.02,274.33L601.27,275.47L599.52,277.43L597.77,279.1L596.03,280.44L594.28,281.28L592.53,281.94L590.78,282.39L589.03,283.17L587.29,284.74L585.54,286.37L583.79,287.62L582.04,288.51L580.29,289.68L578.55,290.83L576.8,292.61L575.05,294.23L573.3,295.88L571.56,297.05L569.81,327.05L568.06,327.74L566.31,323.61L564.56,324.57L562.82,329.15L561.07,330.21L559.32,331.06L557.57,331.5L555.82,332.5L554.08,333.4L552.33,334.22L550.58,335.35L548.83,336.15L547.08,336.7L545.34,337.13L543.59,337.85L541.84,338.93L540.09,340.24L538.35,341.2L536.6,342.06L534.85,343L533.1,343.47L531.35,344.43L529.61,345.54L527.86,346.92L526.11,348.16L524.36,349.31L522.61,350.07L520.87,350.69L519.12,351.78L517.37,353.21L515.62,354.77L513.88,356.67L512.13,357.86L510.38,359.2L508.63,360.29L506.88,361.32L505.14,362.66L503.39,364.25L501.64,365.56L499.89,366.58L498.14,367.93L496.4,369.19L494.65,370.11L492.9,371.15L491.15,372.57L489.41,373.93L487.66,375.03L485.91,374.44L484.16,375.55L482.41,376.28L480.67,377.39L478.92,378.69L477.17,379.79L475.42,380.84L473.67,381.62L471.93,382.45L470.18,382.97L468.43,383.74L466.68,384.67L464.93,385.57L463.19,386.32L461.44,386.88L459.69,387.28L457.94,387.56L456.2,388.28L454.45,388.96L452.7,389.59L450.95,390L449.2,390.4L447.46,390.66L445.71,390.83L443.96,391.16L442.21,391.71L440.46,392.12L438.72,392.44L436.97,392.6L435.22,392.73L433.47,392.89L431.73,392.99L429.98,393.38L428.23,393.8L426.48,393.83L424.73,394.1L422.99,394.22L421.24,394.27L419.49,394.5L417.74,394.82L415.99,395.23L414.25,395.55L412.5,395.79L410.75,395.93L409,396.17L407.25,396.44L405.51,396.86L403.76,397.22L402.01,397.39L400.26,397.56L398.52,397.61L396.77,397.68L395.02,397.97L393.27,398.41L391.52,398.66L389.78,398.92L388.03,398.93L386.28,399.19L384.53,399.22L382.78,399.44L381.04,399.81L379.29,400.13L377.54,400.37L375.79,400.4L374.05,400.5L372.3,400.44L370.55,400.66L368.8,401.06L367.05,401.33L365.31,401.59L363.56,401.7L361.81,401.66L360.06,401.56L358.31,401.9L356.57,401.95L354.82,402.5L353.07,402.64L351.32,402.39L349.58,402.65L347.83,402.84L346.08,403.09L344.33,403.47L342.58,403.89L340.84,404.11L339.09,404.23L337.34,404.14L335.59,404.55L333.84,404.82L332.1,405.21L330.35,405.49L328.6,405.87L326.85,406.22L325.1,406.45L323.36,406.75L321.61,406.88L319.86,407.1L318.11,407.55L316.37,407.98L314.62,408.22L312.87,408.42L311.12,408.98L309.37,409.35L307.63,409.59L305.88,410.02L304.13,410.33L302.38,410.67L300.63,410.89L298.89,411.24L297.14,411.64L295.39,412.04L293.64,412.45L291.9,412.68L290.15,412.96L288.4,413.13L286.65,413.41L284.9,413.38L283.16,413.78L281.41,413.41L279.66,413.85L277.91,414.09L276.16,414.35L274.42,414.68L272.67,414.99L270.92,415.36L269.17,415.73L267.42,415.96L265.68,416.22L263.93,416.42L262.18,416.68L260.43,416.85L258.69,417.21L256.94,417.46L255.19,417.55L253.44,417.72L251.69,417.88L249.95,418.15L248.2,418.36L246.45,418.57L244.7,418.79L242.95,419.02L241.21,419.19L239.46,418.95L237.71,419.2L235.96,419.47L234.22,419.73L232.47,419.99L230.72,420.13L228.97,420.18L227.22,420.36L225.48,420.48L223.73,420.77L221.98,420.95L220.23,421.17L218.48,421.33L216.74,421.49L214.99,421.59L213.24,421.75L211.49,421.97L209.75,421.93L208,422.17L206.25,422.34L204.5,422.53L202.75,422.67L201.01,422.83L199.26,422.99L197.51,423.18L195.76,423.42L194.01,423.53L192.27,423.72L190.52,423.84L188.77,424.02L187.02,424.14L185.27,424.37L183.53,424.57L181.78,424.74L180.03,424.92L178.28,425.1L176.54,425.29L174.79,425.44L173.04,425.65L171.29,425.7L169.54,425.83L167.8,426L166.05,426.17L164.3,426.35L162.55,426.58L160.8,426.7L159.06,426.93L157.31,427.13L155.56,427.29L153.81,427.51L152.07,427.69L150.32,427.91L148.57,428.15L146.82,428.42L145.07,428.57L143.33,428.81L141.58,428.98L139.83,429.41L138.08,429.61L136.33,429.87L134.59,430.12L132.84,430.34L131.09,430.51L129.34,430.75L127.59,430.99L125.85,431.14L124.1,431.43L122.35,431.7L120.6,431.99L118.86,432.26L117.11,432.47L115.36,432.68L113.61,432.94L111.86,433.18L110.12,433.42L108.37,433.61L106.62,433.75L104.87,433.93L103.12,434.06L101.38,434.18L99.63,434.3L97.88,434.41L96.13,434.49L94.39,434.54L92.64,434.6L90.89,434.63L89.14,434.67L87.39,434.73L85.65,434.75L83.9,434.77L82.15,434.78L80.4,434.79L78.65,434.8L76.91,434.8L75.16,434.81L73.41,434.81L71.66,434.81L69.92,434.81L68.17,434.8L66.42,434.8L64.67,434.79L62.92,434.78L61.18,434.78L59.43,434.77L57.68,434.76L55.93,434.76L54.18,434.75L52.44,434.74L50.69,434.74L48.94,434.74L47.19,434.73L45.44,434.73L43.7,434.73L41.95,434.73L40.2,434.74L38.45,434.76L36.71,434.82L34.96,434.82L33.21,434.83L31.46,434.83L29.71,434.84L27.97,434.85L26.22,434.87L24.47,434.88L22.72,434.9L20.97,434.91L19.23,434.93L17.48,434.95L15.73,434.96L13.98,434.96L12.24,434.97L10.49,434.98L8.74,434.99L6.99,434.99L5.24,434.99L3.5,435L1.75,435L0,435Z" style="fill: rgb(228, 19, 23); fill-opacity: 1; stroke-width: 0;"/></g></g><g class="errorbars"/><g class="lines"/><g class="points"/><g class="text"/></g><g class="trace scatter tracef55426" style="stroke-miterlimit: 2;"><g class="fills"><g><path class="js-fill" d="M0,435L1.75,435L3.5,435L5.24,434.99L6.99,434.99L8.74,434.99L10.49,434.97L12.24,434.97L13.98,434.96L15.73,434.95L17.48,434.94L19.23,434.92L20.97,434.91L22.72,434.89L24.47,434.87L26.22,434.86L27.97,434.84L29.71,434.83L31.46,434.81L33.21,434.8L34.96,434.79L36.71,434.79L38.45,434.72L40.2,434.69L41.95,434.68L43.7,434.67L45.44,434.66L47.19,434.65L48.94,434.65L50.69,434.65L52.44,434.65L54.18,434.64L55.93,434.64L57.68,434.63L59.43,434.63L61.18,434.62L62.92,434.62L64.67,434.61L66.42,434.6L68.17,434.59L69.92,434.58L71.66,434.57L73.41,434.56L75.16,434.55L76.91,434.53L78.65,434.51L80.4,434.49L82.15,434.47L83.9,434.45L85.65,434.42L87.39,434.39L89.14,434.32L90.89,434.27L92.64,434.22L94.39,434.15L96.13,434.08L97.88,433.99L99.63,433.86L101.38,433.72L103.12,433.57L104.87,433.41L106.62,433.22L108.37,433.03L110.12,432.79L111.86,432.5L113.61,432.2L115.36,431.89L117.11,431.62L118.86,431.32L120.6,430.96L122.35,430.58L124.1,430.2L125.85,429.81L127.59,429.54L129.34,429.21L131.09,428.87L132.84,428.55L134.59,428.17L136.33,427.76L138.08,427.37L139.83,427.03L141.58,426.47L143.33,426.15L145.07,425.76L146.82,425.41L148.57,424.97L150.32,424.56L152.07,424.2L153.81,423.85L155.56,423.5L157.31,423.15L159.06,422.78L160.8,422.39L162.55,422L164.3,421.62L166.05,421.29L167.8,420.97L169.54,420.62L171.29,420.27L173.04,419.88L174.79,419.47L176.54,419.11L178.28,418.76L180.03,418.4L181.78,418.03L183.53,417.61L185.27,417.2L187.02,416.79L188.77,416.39L190.52,416.05L192.27,415.7L194.01,415.31L195.76,414.91L197.51,414.47L199.26,414.03L201.01,413.59L202.75,413.23L204.5,412.82L206.25,412.38L208,411.91L209.75,411.42L211.49,410.93L213.24,410.44L214.99,410.01L216.74,409.61L218.48,409.18L220.23,408.7L221.98,408.15L223.73,407.59L225.48,406.96L227.22,406.47L228.97,406.03L230.72,405.47L232.47,404.94L234.22,404.34L235.96,403.74L237.71,403.12L239.46,402.6L241.21,402.13L242.95,401.55L244.7,400.93L246.45,400.29L248.2,399.7L249.95,399.08L251.69,398.47L253.44,397.92L255.19,397.26L256.94,396.6L258.69,395.96L260.43,395.13L262.18,394.4L263.93,393.81L265.68,393.18L267.42,392.41L269.17,391.62L270.92,390.8L272.67,389.92L274.42,389.1L276.16,388.35L277.91,387.63L279.66,386.83L281.41,385.83L283.16,384.86L284.9,383.93L286.65,383.04L288.4,382.19L290.15,381.44L291.9,380.46L293.64,379.47L295.39,378.43L297.14,377.35L298.89,376.35L300.63,375.47L302.38,374.59L304.13,373.56L305.88,372.49L307.63,371.34L309.37,370.22L311.12,369.13L312.87,368.14L314.62,367.19L316.37,366.11L318.11,364.82L319.86,363.51L321.61,362.22L323.36,361.05L325.1,360.06L326.85,359.02L328.6,357.86L330.35,356.51L332.1,355.22L333.84,353.88L335.59,352.73L337.34,351.67L339.09,350.72L340.84,349.53L342.58,348.25L344.33,346.94L346.08,345.64L347.83,344.45L349.58,343.41L351.32,342.36L353.07,341.18L354.82,339.9L356.57,338.57L358.31,337.16L360.06,336.02L361.81,335.03L363.56,334.07L365.31,332.88L367.05,331.59L368.8,330.34L370.55,329.13L372.3,327.92L374.05,326.96L375.79,325.92L377.54,324.8L379.29,323.49L381.04,322.18L382.78,320.87L384.53,319.66L386.28,318.64L388.03,317.43L389.78,316.21L391.52,314.9L393.27,313.6L395.02,312.16L396.77,310.91L398.52,309.85L400.26,308.84L402.01,307.73L403.76,306.42L405.51,305.03L407.25,303.55L409,302.23L410.75,301.11L412.5,299.9L414.25,298.58L415.99,297.18L417.74,295.73L419.49,294.23L421.24,292.88L422.99,291.72L424.73,290.45L426.48,289.14L428.23,287.87L429.98,286.24L431.73,284.72L433.47,283.39L435.22,282.23L436.97,281.05L438.72,279.75L440.46,278.25L442.21,276.78L443.96,275.41L445.71,273.88L447.46,272.67L449.2,271.29L450.95,269.78L452.7,268.17L454.45,266.5L456.2,264.84L457.94,263.19L459.69,261.87L461.44,260.53L463.19,259.06L464.93,257.3L466.68,255.42L468.43,253.53L470.18,251.81L471.93,250.35L473.67,248.57L475.42,246.77L477.17,244.73L478.92,242.55L480.67,240.26L482.41,238.16L484.16,236.5L485.91,234.25L487.66,232.09L489.41,229.74L491.15,227.2L492.9,224.57L494.65,222.38L496.4,220.25L498.14,217.66L499.89,215.11L501.64,212.76L503.39,210.01L505.14,207.04L506.88,204.29L508.63,202.07L510.38,199.76L512.13,197.19L513.88,194.2L515.62,191.22L517.37,188.22L519.12,185.47L520.87,183.29L522.61,180.84L524.36,178.03L526.11,175.14L527.86,172.14L529.61,169.07L531.35,166.35L533.1,164.1L534.85,161.71L536.6,158.99L538.35,156.06L540.09,153.36L541.84,150.27L543.59,147.51L545.34,145.26L547.08,142.94L548.83,140.13L550.58,137.14L552.33,133.95L554.08,130.82L555.82,127.85L557.57,125.36L559.32,122.99L561.07,120.05L562.82,116.96L564.56,110.08L566.31,106.85L568.06,103.98L569.81,101.45L571.56,99.03L573.3,96.15L575.05,92.77L576.8,89.37L578.55,86.07L580.29,83.23L582.04,80.76L583.79,78.26L585.54,75.28L587.29,72.09L589.03,69L590.78,66.84L592.53,64.48L594.28,62.46L596.03,60.21L597.77,57.16L599.52,53.66L601.27,50.35L603.02,47.88L604.76,44.98L606.51,42.52L608.26,40.01L610.01,36.62L611.76,33.04L613.5,29.06L615.25,25.32L617,21.75L617,251.02L615.25,253.05L613.5,255.43L611.76,257.92L610.01,260.06L608.26,261.99L606.51,263.18L604.76,264.42L603.02,265.9L601.27,267.09L599.52,269.11L597.77,270.84L596.03,272.26L594.28,273.14L592.53,273.84L590.78,274.32L589.03,275.14L587.29,276.76L585.54,278.45L583.79,279.77L582.04,280.7L580.29,281.91L578.55,283.11L576.8,284.95L575.05,286.63L573.3,288.34L571.56,289.57L569.81,319.62L568.06,320.34L566.31,316.26L564.56,317.28L562.82,321.91L561.07,323.03L559.32,323.94L557.57,324.41L555.82,325.45L554.08,326.4L552.33,327.28L550.58,328.46L548.83,329.32L547.08,329.93L545.34,330.4L543.59,331.15L541.84,332.27L540.09,333.63L538.35,334.64L536.6,335.56L534.85,336.56L533.1,337.06L531.35,338.06L529.61,339.21L527.86,340.65L526.11,341.93L524.36,343.14L522.61,343.95L520.87,344.6L519.12,345.73L517.37,347.19L515.62,348.8L513.88,350.74L512.13,351.98L510.38,353.36L508.63,354.5L506.88,355.54L505.14,356.92L503.39,358.56L501.64,359.9L499.89,360.97L498.14,362.36L496.4,363.66L494.65,364.6L492.9,365.66L491.15,367.11L489.41,368.51L487.66,369.64L485.91,369.09L484.16,370.23L482.41,370.98L480.67,372.11L478.92,373.44L477.17,374.57L475.42,375.65L473.67,376.46L471.93,377.31L470.18,377.84L468.43,378.65L466.68,379.61L464.93,380.53L463.19,381.31L461.44,381.89L459.69,382.31L457.94,382.61L456.2,383.35L454.45,384.06L452.7,384.71L450.95,385.15L449.2,385.59L447.46,385.88L445.71,386.06L443.96,386.41L442.21,386.99L440.46,387.43L438.72,387.79L436.97,387.98L435.22,388.13L433.47,388.3L431.73,388.42L429.98,388.85L428.23,389.29L426.48,389.35L424.73,389.65L422.99,389.79L421.24,389.86L419.49,390.11L417.74,390.45L415.99,390.89L414.25,391.23L412.5,391.51L410.75,391.67L409,391.92L407.25,392.21L405.51,392.66L403.76,393.05L402.01,393.25L400.26,393.44L398.52,393.53L396.77,393.62L395.02,393.94L393.27,394.4L391.52,394.67L389.78,394.97L388.03,395L386.28,395.29L384.53,395.34L382.78,395.58L381.04,395.97L379.29,396.32L377.54,396.59L375.79,396.65L374.05,396.77L372.3,396.72L370.55,396.97L368.8,397.4L367.05,397.7L365.31,397.98L363.56,398.12L361.81,398.11L360.06,398.03L358.31,398.39L356.57,398.49L354.82,399.07L353.07,399.24L351.32,399.01L349.58,399.3L347.83,399.51L346.08,399.78L344.33,400.2L342.58,400.64L340.84,400.89L339.09,401.05L337.34,400.98L335.59,401.4L333.84,401.7L332.1,402.12L330.35,402.43L328.6,402.84L326.85,403.22L325.1,403.47L323.36,403.79L321.61,403.95L319.86,404.2L318.11,404.69L316.37,405.15L314.62,405.42L312.87,405.64L311.12,406.22L309.37,406.62L307.63,406.89L305.88,407.34L304.13,407.67L302.38,408.04L300.63,408.28L298.89,408.65L297.14,409.07L295.39,409.5L293.64,409.93L291.9,410.19L290.15,410.49L288.4,410.68L286.65,410.97L284.9,410.97L283.16,411.39L281.41,411.04L279.66,411.51L277.91,411.77L276.16,412.05L274.42,412.39L272.67,412.72L270.92,413.11L269.17,413.5L267.42,413.76L265.68,414.04L263.93,414.26L262.18,414.53L260.43,414.72L258.69,415.11L256.94,415.39L255.19,415.5L253.44,415.7L251.69,415.88L249.95,416.17L248.2,416.39L246.45,416.62L244.7,416.86L242.95,417.12L241.21,417.31L239.46,417.09L237.71,417.35L235.96,417.63L234.22,417.92L232.47,418.2L230.72,418.36L228.97,418.44L227.22,418.63L225.48,418.77L223.73,419.08L221.98,419.28L220.23,419.52L218.48,419.7L216.74,419.88L214.99,419.98L213.24,420.16L211.49,420.39L209.75,420.38L208,420.64L206.25,420.84L204.5,421.04L202.75,421.21L201.01,421.38L199.26,421.56L197.51,421.78L195.76,422.04L194.01,422.17L192.27,422.39L190.52,422.52L188.77,422.72L187.02,422.86L185.27,423.11L183.53,423.34L181.78,423.54L180.03,423.74L178.28,423.94L176.54,424.15L174.79,424.32L173.04,424.55L171.29,424.64L169.54,424.8L167.8,425L166.05,425.19L164.3,425.39L162.55,425.64L160.8,425.8L159.06,426.05L157.31,426.29L155.56,426.48L153.81,426.72L152.07,426.93L150.32,427.18L148.57,427.46L146.82,427.76L145.07,427.95L143.33,428.22L141.58,428.42L139.83,428.88L138.08,429.1L136.33,429.4L134.59,429.68L132.84,429.93L131.09,430.15L129.34,430.41L127.59,430.68L125.85,430.85L124.1,431.17L122.35,431.47L120.6,431.78L118.86,432.07L117.11,432.3L115.36,432.53L113.61,432.8L111.86,433.06L110.12,433.32L108.37,433.52L106.62,433.67L104.87,433.86L103.12,434L101.38,434.12L99.63,434.25L97.88,434.37L96.13,434.45L94.39,434.51L92.64,434.57L90.89,434.61L89.14,434.65L87.39,434.7L85.65,434.72L83.9,434.75L82.15,434.76L80.4,434.77L78.65,434.78L76.91,434.79L75.16,434.8L73.41,434.8L71.66,434.79L69.92,434.79L68.17,434.79L66.42,434.79L64.67,434.78L62.92,434.77L61.18,434.76L59.43,434.76L57.68,434.75L55.93,434.74L54.18,434.74L52.44,434.73L50.69,434.73L48.94,434.73L47.19,434.72L45.44,434.72L43.7,434.72L41.95,434.72L40.2,434.73L38.45,434.75L36.71,434.82L34.96,434.81L33.21,434.82L31.46,434.83L29.71,434.84L27.97,434.85L26.22,434.86L24.47,434.88L22.72,434.89L20.97,434.91L19.23,434.92L17.48,434.95L15.73,434.96L13.98,434.96L12.24,434.97L10.49,434.97L8.74,434.99L6.99,434.99L5.24,434.99L3.5,435L1.75,435L0,435Z" style="fill: rgb(34, 139, 34); fill-opacity: 1; stroke-width: 0;"/></g></g><g class="errorbars"/><g class="lines"/><g class="points"/><g class="text"/></g><g class="trace scatter trace9551d5" style="stroke-miterlimit: 2;"><g class="fills"/><g class="errorbars"/><g class="lines"/><g class="points"/><g class="text"/></g></g></g><g class="overplot"/><path class="xlines-above crisp" style="fill: none;" d="M0,0"/><path class="ylines-above crisp" style="fill: none;" d="M0,0"/><g class="overlines-above"/><g class="xaxislayer-above"><g class="xtick"><text text-anchor="middle" x="0" y="473" transform="translate(128.17000000000002,0)" style="font-family: 'Open Sans', verdana, arial, sans-serif; font-size: 12px; fill: rgb(68, 68, 68); fill-opacity: 1; white-space: pre;">Mar 2020</text></g><g class="xtick"><text text-anchor="middle" x="0" y="473" transform="translate(234.79,0)" style="font-family: 'Open Sans', verdana, arial, sans-serif; font-size: 12px; fill: rgb(68, 68, 68); fill-opacity: 1; white-space: pre;">May 2020</text></g><g class="xtick"><text text-anchor="middle" x="0" y="473" transform="translate(341.41,0)" style="font-family: 'Open Sans', verdana, arial, sans-serif; font-size: 12px; fill: rgb(68, 68, 68); fill-opacity: 1; white-space: pre;">Jul 2020</text></g><g class="xtick"><text text-anchor="middle" x="0" y="473" transform="translate(449.78,0)" style="font-family: 'Open Sans', verdana, arial, sans-serif; font-size: 12px; fill: rgb(68, 68, 68); fill-opacity: 1; white-space: pre;">Sep 2020</text></g><g class="xtick"><text text-anchor="middle" x="0" y="473" transform="translate(556.4,0)" style="font-family: 'Open Sans', verdana, arial, sans-serif; font-size: 12px; fill: rgb(68, 68, 68); fill-opacity: 1; white-space: pre;">Nov 2020</text></g><g class="xtick"><text text-anchor="middle" x="0" y="473" transform="translate(663.02,0)" style="font-family: 'Open Sans', verdana, arial, sans-serif; font-size: 12px; fill: rgb(68, 68, 68); fill-opacity: 1; white-space: pre;">Jan 2021</text></g></g><g class="yaxislayer-above"><g class="ytick"><text text-anchor="end" x="59" y="4.199999999999999" transform="translate(0,460)" style="font-family: 'Open Sans', verdana, arial, sans-serif; font-size: 12px; fill: rgb(68, 68, 68); fill-opacity: 1; white-space: pre;">0</text></g><g class="ytick"><text text-anchor="end" x="59" y="4.199999999999999" transform="translate(0,413.9)" style="font-family: 'Open Sans', verdana, arial, sans-serif; font-size: 12px; fill: rgb(68, 68, 68); fill-opacity: 1; white-space: pre;">10M</text></g><g class="ytick"><text text-anchor="end" x="59" y="4.199999999999999" transform="translate(0,367.79)" style="font-family: 'Open Sans', verdana, arial, sans-serif; font-size: 12px; fill: rgb(68, 68, 68); fill-opacity: 1; white-space: pre;">20M</text></g><g class="ytick"><text text-anchor="end" x="59" y="4.199999999999999" transform="translate(0,321.69)" style="font-family: 'Open Sans', verdana, arial, sans-serif; font-size: 12px; fill: rgb(68, 68, 68); fill-opacity: 1; white-space: pre;">30M</text></g><g class="ytick"><text text-anchor="end" x="59" y="4.199999999999999" transform="translate(0,275.58000000000004)" style="font-family: 'Open Sans', verdana, arial, sans-serif; font-size: 12px; fill: rgb(68, 68, 68); fill-opacity: 1; white-space: pre;">40M</text></g><g class="ytick"><text text-anchor="end" x="59" y="4.199999999999999" transform="translate(0,229.48)" style="font-family: 'Open Sans', verdana, arial, sans-serif; font-size: 12px; fill: rgb(68, 68, 68); fill-opacity: 1; white-space: pre;">50M</text></g><g class="ytick"><text text-anchor="end" x="59" y="4.199999999999999" transform="translate(0,183.38)" style="font-family: 'Open Sans', verdana, arial, sans-serif; font-size: 12px; fill: rgb(68, 68, 68); fill-opacity: 1; white-space: pre;">60M</text></g><g class="ytick"><text text-anchor="end" x="59" y="4.199999999999999" transform="translate(0,137.26999999999998)" style="font-family: 'Open Sans', verdana, arial, sans-serif; font-size: 12px; fill: rgb(68, 68, 68); fill-opacity: 1; white-space: pre;">70M</text></g><g class="ytick"><text text-anchor="end" x="59" y="4.199999999999999" transform="translate(0,91.17)" style="font-family: 'Open Sans', verdana, arial, sans-serif; font-size: 12px; fill: rgb(68, 68, 68); fill-opacity: 1; white-space: pre;">80M</text></g><g class="ytick"><text text-anchor="end" x="59" y="4.199999999999999" transform="translate(0,45.06)" style="font-family: 'Open Sans', verdana, arial, sans-serif; font-size: 12px; fill: rgb(68, 68, 68); fill-opacity: 1; white-space: pre;">90M</text></g></g><g class="overaxes-above"/></g></g><g class="polarlayer"/><g class="ternarylayer"/><g class="geolayer"/><g class="funnelarealayer"/><g class="pielayer"/><g class="treemaplayer"/><g class="sunburstlayer"/><g class="glimages"/><defs id="topdefs-a8ffa3"><g class="clips"/><clipPath id="legenda8ffa3"><rect width="109" height="67" x="0" y="0"/></clipPath></defs><g class="layer-above"><g class="imagelayer"/><g class="shapelayer"/></g><g class="infolayer"><g class="legend" pointer-events="all" transform="translate(121.7, 68.5)"><rect class="bg" shape-rendering="crispEdges" style="stroke: rgb(68, 68, 68); stroke-opacity: 1; fill: rgb(255, 255, 255); fill-opacity: 1; stroke-width: 0px;" width="109" height="67" x="0" y="0"/><g class="scrollbox" transform="translate(0, 0)" clip-path="url('#legenda8ffa3')"><g class="groups"><g class="traces" style="opacity: 1;" transform="translate(0, 14.5)"><text class="legendtext user-select-none" text-anchor="start" x="40" y="4.680000000000001" style="font-family: 'Open Sans', verdana, arial, sans-serif; font-size: 12px; fill: rgb(68, 68, 68); fill-opacity: 1; white-space: pre;">Recovered</text><g class="layers"><g class="legendfill"><path class="js-fill" d="M5,-3h30v6h-30z" style="stroke-width: 0; fill: rgb(34, 139, 34); fill-opacity: 1;"/></g><g class="legendlines"/><g class="legendsymbols"><g class="legendpoints"/></g></g><rect class="legendtoggle" pointer-events="all" x="0" y="-9.5" width="103.03125" height="19" style="cursor: pointer; fill: rgb(0, 0, 0); fill-opacity: 0;"/></g><g class="traces" style="opacity: 1;" transform="translate(0, 33.5)"><text class="legendtext user-select-none" text-anchor="start" x="40" y="4.680000000000001" style="font-family: 'Open Sans', verdana, arial, sans-serif; font-size: 12px; fill: rgb(68, 68, 68); fill-opacity: 1; white-space: pre;">Death</text><g class="layers"><g class="legendfill"><path class="js-fill" d="M5,-3h30v6h-30z" style="stroke-width: 0; fill: rgb(228, 19, 23); fill-opacity: 1;"/></g><g class="legendlines"/><g class="legendsymbols"><g class="legendpoints"/></g></g><rect class="legendtoggle" pointer-events="all" x="0" y="-9.5" width="103.03125" height="19" style="cursor: pointer; fill: rgb(0, 0, 0); fill-opacity: 0;"/></g><g class="traces" style="opacity: 1;" transform="translate(0, 52.5)"><text class="legendtext user-select-none" text-anchor="start" x="40" y="4.680000000000001" style="font-family: 'Open Sans', verdana, arial, sans-serif; font-size: 12px; fill: rgb(68, 68, 68); fill-opacity: 1; white-space: pre;">Active</text><g class="layers"><g class="legendfill"><path class="js-fill" d="M5,-3h30v6h-30z" style="stroke-width: 0; fill: rgb(31, 119, 180); fill-opacity: 1;"/></g><g class="legendlines"/><g class="legendsymbols"><g class="legendpoints"/></g></g><rect class="legendtoggle" pointer-events="all" x="0" y="-9.5" width="103.03125" height="19" style="cursor: pointer; fill: rgb(0, 0, 0); fill-opacity: 0;"/></g></g></g><rect class="scrollbar" rx="20" ry="3" width="0" height="0" style="fill: rgb(128, 139, 164); fill-opacity: 1;" x="0" y="0"/></g><g class="g-gtitle"><text class="gtitle" x="350" y="12.5" text-anchor="middle" dy="0em" style="font-family: 'Open Sans', verdana, arial, sans-serif; font-size: 17px; fill: rgb(68, 68, 68); opacity: 1; font-weight: normal; white-space: pre;">Distribution of Covid19 Cases Worldwide</text></g><g class="g-xtitle" transform="translate(0,-15)"><text class="xtitle" x="368.5" y="512" text-anchor="middle" style="font-family: 'Open Sans', verdana, arial, sans-serif; font-size: 14px; fill: rgb(68, 68, 68); opacity: 1; font-weight: normal; white-space: pre;">Source: Johns Hopkins University Center for Systems Science and Engineering</text></g><g class="g-ytitle"><text class="ytitle" transform="rotate(-90,22,242.5)" x="22" y="242.5" text-anchor="middle" style="font-family: 'Open Sans', verdana, arial, sans-serif; font-size: 14px; fill: rgb(68, 68, 68); opacity: 1; font-weight: normal; white-space: pre;">Number of Cases</text></g></g></svg>