<svg class="main-svg" xmlns="http://www.w3.org/2000/svg" xmlns:xlink="http://www.w3.org/1999/xlink" width="700" height="500" style="" viewBox="0 0 700 500"><rect x="0" y="0" width="700" height="500" style="fill: rgb(255, 255, 255); fill-opacity: 1;"/><defs id="defs-84a121"><g class="clips"><clipPath id="clip84a121xyplot" class="plotclip"><rect width="630" height="435"/></clipPath><clipPath class="axesclip" id="clip84a121x"><rect x="60" y="0" width="630" height="500"/></clipPath><clipPath class="axesclip" id="clip84a121y"><rect x="0" y="25" width="700" height="435"/></clipPath><clipPath class="axesclip" id="clip84a121xy"><rect x="60" y="25" width="630" height="435"/></clipPath></g><g class="gradients"/></defs><g class="bglayer"/><g class="layer-below"><g class="imagelayer"/><g class="shapelayer"/></g><g class="cartesianlayer"><g class="subplot xy"><g class="layer-subplot"><g class="shapelayer"/><g class="imagelayer"/></g><g class="gridlayer"><g class="x"><path class="xgrid crisp" transform="translate(134.62,0)" d="M0,25v435" style="stroke: rgb(238, 238, 238); stroke-opacity: 1; stroke-width: 1px;"/><path class="xgrid crisp" transform="translate(231.62,0)" d="M0,25v435" style="stroke: rgb(238, 238, 238); stroke-opacity: 1; stroke-width: 1px;"/><path class="xgrid crisp" transform="translate(329.7,0)" d="M0,25v435" style="stroke: rgb(238, 238, 238); stroke-opacity: 1; stroke-width: 1px;"/><path class="xgrid crisp" transform="translate(427.77,0)" d="M0,25v435" style="stroke: rgb(238, 238, 238); stroke-opacity: 1; stroke-width: 1px;"/><path class="xgrid crisp" transform="translate(523.71,0)" d="M0,25v435" style="stroke: rgb(238, 238, 238); stroke-opacity: 1; stroke-width: 1px;"/><path class="xgrid crisp" transform="translate(620.71,0)" d="M0,25v435" style="stroke: rgb(238, 238, 238); stroke-opacity: 1; stroke-width: 1px;"/></g><g class="y"><path class="ygrid crisp" transform="translate(0,356.81)" d="M60,0h630" style="stroke: rgb(238, 238, 238); stroke-opacity: 1; stroke-width: 1px;"/><path class="ygrid crisp" transform="translate(0,253.62)" d="M60,0h630" style="stroke: rgb(238, 238, 238); stroke-opacity: 1; stroke-width: 1px;"/><path class="ygrid crisp" transform="translate(0,150.43)" d="M60,0h630" style="stroke: rgb(238, 238, 238); stroke-opacity: 1; stroke-width: 1px;"/><path class="ygrid crisp" transform="translate(0,47.239999999999995)" d="M60,0h630" style="stroke: rgb(238, 238, 238); stroke-opacity: 1; stroke-width: 1px;"/></g></g><g class="zerolinelayer"><path class="yzl zl crisp" transform="translate(0,460)" d="M60,0h630" style="stroke: rgb(68, 68, 68); stroke-opacity: 1; stroke-width: 1px;"/></g><path class="xlines-below"/><path class="ylines-below"/><g class="overlines-below"/><g class="xaxislayer-below"/><g class="yaxislayer-below"/><g class="overaxes-below"/><g class="plot" transform="translate(60, 25)" clip-path="url('#clip84a121xyplot')"><g class="scatterlayer mlayer"><g class="trace scatter trace8f6ced" style="stroke-miterlimit: 2;"><g class="fills"><g><path class="js-fill" d="M630,435L0,435L0,435L1.07,435L2.13,435L3.2,435L4.26,435L5.33,434.99L6.4,434.99L7.46,434.99L8.53,434.98L9.59,434.98L10.66,434.98L11.73,434.97L12.79,434.96L13.86,434.95L14.92,434.95L15.99,434.94L17.06,434.93L18.12,434.93L19.19,434.93L20.25,434.92L21.32,434.92L22.39,434.92L23.45,434.89L24.52,434.88L25.58,434.88L26.65,434.88L27.72,434.88L28.78,434.88L29.85,434.88L30.91,434.88L31.98,434.89L33.05,434.89L34.11,434.89L35.18,434.89L36.24,434.9L37.31,434.9L38.38,434.9L39.44,434.91L40.51,434.91L41.57,434.91L42.64,434.91L43.71,434.91L44.77,434.92L45.84,434.92L46.9,434.91L47.97,434.91L49.04,434.91L50.1,434.9L51.17,434.9L52.23,434.89L53.3,434.88L54.37,434.85L55.43,434.84L56.5,434.82L57.56,434.8L58.63,434.77L59.7,434.74L60.76,434.69L61.83,434.63L62.89,434.58L63.96,434.52L65.03,434.44L66.09,434.38L67.16,434.29L68.22,434.18L69.29,434.07L70.36,433.96L71.42,433.87L72.49,433.77L73.55,433.65L74.62,433.52L75.69,433.4L76.75,433.27L77.82,433.2L78.88,433.1L79.95,432.99L81.02,432.91L82.08,432.81L83.15,432.7L84.21,432.59L85.28,432.5L86.35,432.3L87.41,432.23L88.48,432.12L89.54,432.05L90.61,431.93L91.68,431.82L92.74,431.73L93.81,431.64L94.87,431.55L95.94,431.48L97.01,431.39L98.07,431.29L99.14,431.23L100.2,431.13L101.27,431.05L102.34,430.97L103.4,430.9L104.47,430.84L105.53,430.82L106.6,430.72L107.66,430.66L108.73,430.58L109.8,430.5L110.86,430.42L111.93,430.34L112.99,430.25L114.06,430.15L115.13,430.1L116.19,430.02L117.26,429.97L118.32,429.88L119.39,429.83L120.46,429.73L121.52,429.64L122.59,429.57L123.65,429.5L124.72,429.44L125.79,429.35L126.85,429.28L127.92,429.17L128.98,429.19L130.05,429.09L131.12,429.02L132.18,428.98L133.25,428.91L134.31,428.84L135.38,428.74L136.45,428.66L137.51,428.53L138.58,428.48L139.64,428.4L140.71,428.37L141.78,428.31L142.84,428.2L143.91,428.08L144.97,427.96L146.04,427.85L147.11,427.96L148.17,427.88L149.24,427.78L150.3,427.68L151.37,427.59L152.44,427.5L153.5,427.38L154.57,427.31L155.63,427.23L156.7,427.19L157.77,427.08L158.83,426.92L159.9,426.84L160.96,426.73L162.03,426.64L163.1,426.52L164.16,426.41L165.23,426.25L166.29,426.08L167.36,425.94L168.43,425.79L169.49,425.68L170.56,425.57L171.62,425.37L172.69,425.54L173.76,425.36L174.82,425.37L175.89,425.25L176.95,425.17L178.02,425.05L179.09,424.95L180.15,424.77L181.22,424.59L182.28,424.41L183.35,424.25L184.42,424.16L185.48,424L186.55,423.87L187.61,423.68L188.68,423.57L189.75,423.41L190.81,423.16L191.88,423.07L192.94,422.96L194.01,422.77L195.08,422.56L196.14,422.46L197.21,422.41L198.27,422.27L199.34,422.17L200.41,422.01L201.47,421.84L202.54,421.72L203.6,421.54L204.67,421.42L205.74,421.24L206.8,421.28L207.87,421.22L208.93,421.13L210,420.94L211.07,420.77L212.13,420.66L213.2,420.58L214.26,420.46L215.33,420.57L216.4,420.51L217.46,420.27L218.53,420.24L219.59,420.09L220.66,420.14L221.73,420.15L222.79,420.1L223.86,419.99L224.92,419.87L225.99,419.69L227.06,419.59L228.12,419.62L229.19,419.58L230.25,419.57L231.32,419.46L232.39,419.31L233.45,419.15L234.52,419.06L235.58,419.04L236.65,418.92L237.72,418.92L238.78,418.8L239.85,418.69L240.91,418.5L241.98,418.36L243.05,418.33L244.11,418.31L245.18,418.24L246.24,418.16L247.31,418L248.38,417.81L249.44,417.69L250.51,417.58L251.57,417.52L252.64,417.41L253.71,417.27L254.77,417.09L255.84,416.94L256.9,416.84L257.97,416.82L259.04,416.76L260.1,416.64L261.17,416.63L262.23,416.44L263.3,416.26L264.37,416.22L265.43,416.15L266.5,416.09L267.56,416.02L268.63,415.87L269.7,415.69L270.76,415.44L271.83,415.29L272.89,415.22L273.96,415.1L275.03,414.92L276.09,414.74L277.16,414.46L278.22,414.15L279.29,413.83L280.36,413.71L281.42,413.52L282.49,413.27L283.55,412.94L284.62,412.54L285.69,412.12L286.75,411.77L287.82,411.54L288.88,411.17L289.95,410.82L291.02,410.35L292.08,409.85L293.15,409.27L294.21,408.78L295.28,408.45L296.35,407.95L297.41,408.21L298.48,407.72L299.54,407.11L300.61,406.47L301.68,406.01L302.74,405.59L303.81,405.02L304.87,404.42L305.94,403.96L307.01,403.37L308.07,402.66L309.14,402.06L310.2,401.59L311.27,401.1L312.34,400.5L313.4,399.97L314.47,399.12L315.53,398.41L316.6,397.78L317.66,397.29L318.73,397.01L319.8,396.67L320.86,396.14L321.93,395.59L322.99,394.97L324.06,394.47L325.13,394.05L326.19,393.83L327.26,393.41L328.32,393.02L329.39,392.6L330.46,391.99L331.52,391.54L332.59,391.21L333.65,391.01L334.72,390.75L335.79,390.39L336.85,389.86L337.92,389.49L338.98,389.09L340.05,388.64L341.12,388.44L342.18,388.05L343.25,387.57L344.31,385.52L345.38,385.08L346.45,386.89L347.51,386.63L348.58,373.2L349.64,372.66L350.71,371.92L351.78,371.19L352.84,370.39L353.91,369.87L354.97,369.36L356.04,368.96L357.11,368.39L358.17,367.66L359.24,366.95L360.3,366.61L361.37,366.4L362.44,366.13L363.5,365.74L364.57,365.13L365.63,364.39L366.7,363.5L367.77,363L368.83,362.32L369.9,361.8L370.96,361.28L372.03,360.44L373.1,359.5L374.16,358.38L375.23,357.36L376.29,356.5L377.36,355.86L378.43,355.21L379.49,354.49L380.56,353.74L381.62,352.98L382.69,352.09L383.76,351.46L384.82,351.04L385.89,350.65L386.95,350.26L388.02,349.55L389.09,348.98L390.15,348.44L391.22,347.95L392.28,347.69L393.35,347.34L394.42,346.91L395.48,346.41L396.55,345.83L397.61,345.4L398.68,345.08L399.75,344.91L400.81,344.57L401.88,344.38L402.94,344.02L404.01,343.69L405.08,343.2L406.14,343.06L407.21,342.83L408.27,342.68L409.34,342.59L410.41,342.28L411.47,341.97L412.54,341.7L413.6,341.46L414.67,341.27L415.74,341.3L416.8,341.08L417.87,340.9L418.93,340.58L420,340.24L421.07,340.04L422.13,339.86L423.2,339.65L424.26,339.45L425.33,338.99L426.4,338.56L427.46,338.2L428.53,337.94L429.59,337.68L430.66,337.51L431.73,337.45L432.79,337.04L433.86,336.64L434.92,336.21L435.99,335.86L437.06,335.61L438.12,335.57L439.19,335.28L440.25,334.82L441.32,334.42L442.39,333.99L443.45,333.59L444.52,333.37L445.58,333.26L446.65,332.85L447.72,332.31L448.78,331.74L449.85,331.18L450.91,330.7L451.98,330.43L453.05,330.27L454.11,329.88L455.18,329.29L456.24,328.61L457.31,328.07L458.38,327.51L459.44,327.23L460.51,326.93L461.57,326.48L462.64,325.88L463.71,325.15L464.77,324.53L465.84,324.21L466.9,323.8L467.97,323.52L469.04,323.07L470.1,322.68L471.17,321.79L472.23,321.22L473.3,320.67L474.37,320.35L475.43,319.92L476.5,319.34L477.56,318.61L478.63,317.86L479.7,317.17L480.76,316.64L481.83,316.44L482.89,316.14L483.96,315.65L485.03,314.9L486.09,314.39L487.16,313.87L488.22,313.4L489.29,313.03L490.36,313.06L491.42,312.76L492.49,312.15L493.55,311.79L494.62,311.42L495.69,311.21L496.75,311.27L497.82,311.22L498.88,310.94L499.95,310.7L501.02,310.33L502.08,310.08L503.15,309.95L504.21,310.02L505.28,310.06L506.35,310.11L507.41,309.91L508.48,309.86L509.54,309.78L510.61,309.84L511.68,310.1L512.74,310.55L513.81,310.83L514.87,310.91L515.94,311.67L517.01,311.68L518.07,311.78L519.14,311.85L520.2,312.23L521.27,312.35L522.34,312.35L523.4,312.67L524.47,312.81L525.53,312.88L526.6,313.1L527.66,313.43L528.73,313.71L529.8,313.82L530.86,313.72L531.93,313.96L532.99,314.15L534.06,314.41L535.13,314.63L536.19,314.75L537.26,314.84L538.32,314.8L539.39,314.73L540.46,314.68L541.52,314.96L542.59,315.06L543.65,315.26L544.72,315.18L545.79,315.18L546.85,315.02L547.92,315L548.98,314.94L550.05,315.08L551.12,314.96L552.18,314.9L553.25,314.68L554.31,314.51L555.38,314.38L556.45,314.29L557.51,314.3L558.58,314.12L559.64,313.91L560.71,313.9L561.78,313.61L562.84,313.41L563.91,313.36L564.97,313.37L566.04,313.13L567.11,312.74L568.17,312.37L569.24,312.04L570.3,312.09L571.37,311.95L572.44,311.68L573.5,311.21L574.57,310.8L575.63,310.22L576.7,309.8L577.77,309.42L578.83,309.22L579.9,308.83L580.96,308.44L582.03,307.93L583.1,307.52L584.16,306.62L585.23,306.73L586.29,306.52L587.36,306.04L588.43,305.51L589.49,304.9L590.56,304.29L591.62,303.43L592.69,303.02L593.76,302.68L594.82,302.07L595.89,301.39L596.95,300.68L598.02,435L599.09,435L600.15,435L601.22,435L602.28,435L603.35,435L604.42,435L605.48,435L606.55,435L607.61,435L608.68,435L609.75,435L610.81,435L611.88,435L612.94,435L614.01,435L615.08,435L616.14,435L617.21,435L618.27,435L619.34,435L620.41,435L621.47,435L622.54,435L623.6,435L624.67,435L625.74,435L626.8,435L627.87,435L628.93,435L630,435" style="fill: rgb(31, 119, 180); fill-opacity: 1; stroke-width: 0;"/></g><g><path class="js-fill" d="M0,435L1.07,435L2.13,435L3.2,435L4.26,435L5.33,434.99L6.4,434.99L7.46,434.99L8.53,434.98L9.59,434.98L10.66,434.98L11.73,434.97L12.79,434.96L13.86,434.95L14.92,434.95L15.99,434.94L17.06,434.93L18.12,434.93L19.19,434.92L20.25,434.92L21.32,434.92L22.39,434.92L23.45,434.89L24.52,434.88L25.58,434.88L26.65,434.88L27.72,434.87L28.78,434.87L29.85,434.88L30.91,434.88L31.98,434.88L33.05,434.89L34.11,434.89L35.18,434.89L36.24,434.89L37.31,434.89L38.38,434.9L39.44,434.9L40.51,434.9L41.57,434.91L42.64,434.91L43.71,434.91L44.77,434.91L45.84,434.91L46.9,434.9L47.97,434.9L49.04,434.9L50.1,434.89L51.17,434.89L52.23,434.88L53.3,434.87L54.37,434.84L55.43,434.82L56.5,434.81L57.56,434.78L58.63,434.75L59.7,434.72L60.76,434.67L61.83,434.61L62.89,434.55L63.96,434.49L65.03,434.4L66.09,434.34L67.16,434.24L68.22,434.13L69.29,434.02L70.36,433.89L71.42,433.79L72.49,433.69L73.55,433.56L74.62,433.42L75.69,433.28L76.75,433.14L77.82,433.06L78.88,432.94L79.95,432.83L81.02,432.73L82.08,432.62L83.15,432.49L84.21,432.36L85.28,432.26L86.35,432.05L87.41,431.96L88.48,431.84L89.54,431.75L90.61,431.62L91.68,431.49L92.74,431.38L93.81,431.29L94.87,431.18L95.94,431.1L97.01,430.99L98.07,430.87L99.14,430.8L100.2,430.69L101.27,430.6L102.34,430.52L103.4,430.43L104.47,430.36L105.53,430.32L106.6,430.21L107.66,430.14L108.73,430.05L109.8,429.96L110.86,429.87L111.93,429.78L112.99,429.67L114.06,429.56L115.13,429.5L116.19,429.41L117.26,429.35L118.32,429.25L119.39,429.19L120.46,429.08L121.52,428.98L122.59,428.9L123.65,428.82L124.72,428.75L125.79,428.66L126.85,428.57L127.92,428.45L128.98,428.46L130.05,428.36L131.12,428.28L132.18,428.23L133.25,428.15L134.31,428.07L135.38,427.96L136.45,427.87L137.51,427.73L138.58,427.67L139.64,427.59L140.71,427.55L141.78,427.48L142.84,427.35L143.91,427.22L144.97,427.1L146.04,426.98L147.11,427.08L148.17,426.99L149.24,426.88L150.3,426.77L151.37,426.67L152.44,426.57L153.5,426.44L154.57,426.36L155.63,426.27L156.7,426.21L157.77,426.09L158.83,425.92L159.9,425.83L160.96,425.71L162.03,425.61L163.1,425.48L164.16,425.36L165.23,425.19L166.29,425.01L167.36,424.86L168.43,424.71L169.49,424.58L170.56,424.46L171.62,424.25L172.69,424.41L173.76,424.22L174.82,424.22L175.89,424.09L176.95,424.01L178.02,423.87L179.09,423.75L180.15,423.56L181.22,423.37L182.28,423.18L183.35,423.02L184.42,422.91L185.48,422.75L186.55,422.6L187.61,422.4L188.68,422.27L189.75,422.1L190.81,421.84L191.88,421.74L192.94,421.62L194.01,421.41L195.08,421.19L196.14,421.08L197.21,421.01L198.27,420.87L199.34,420.75L200.41,420.58L201.47,420.4L202.54,420.26L203.6,420.07L204.67,419.94L205.74,419.74L206.8,419.78L207.87,419.71L208.93,419.59L210,419.39L211.07,419.21L212.13,419.09L213.2,418.99L214.26,418.87L215.33,418.96L216.4,418.89L217.46,418.63L218.53,418.59L219.59,418.43L220.66,418.46L221.73,418.47L222.79,418.41L223.86,418.28L224.92,418.15L225.99,417.96L227.06,417.84L228.12,417.86L229.19,417.81L230.25,417.79L231.32,417.67L232.39,417.51L233.45,417.33L234.52,417.22L235.58,417.2L236.65,417.07L237.72,417.06L238.78,416.93L239.85,416.8L240.91,416.6L241.98,416.45L243.05,416.41L244.11,416.37L245.18,416.29L246.24,416.2L247.31,416.03L248.38,415.82L249.44,415.69L250.51,415.58L251.57,415.51L252.64,415.38L253.71,415.23L254.77,415.03L255.84,414.88L256.9,414.77L257.97,414.73L259.04,414.67L260.1,414.54L261.17,414.51L262.23,414.31L263.3,414.12L264.37,414.06L265.43,413.99L266.5,413.92L267.56,413.84L268.63,413.67L269.7,413.47L270.76,413.21L271.83,413.06L272.89,412.98L273.96,412.85L275.03,412.65L276.09,412.45L277.16,412.16L278.22,411.84L279.29,411.51L280.36,411.38L281.42,411.19L282.49,410.93L283.55,410.58L284.62,410.16L285.69,409.73L286.75,409.37L287.82,409.14L288.88,408.75L289.95,408.39L291.02,407.91L292.08,407.4L293.15,406.8L294.21,406.29L295.28,405.96L296.35,405.45L297.41,405.69L298.48,405.18L299.54,404.56L300.61,403.91L301.68,403.43L302.74,403.01L303.81,402.42L304.87,401.8L305.94,401.32L307.01,400.71L308.07,399.98L309.14,399.36L310.2,398.89L311.27,398.38L312.34,397.76L313.4,397.21L314.47,396.33L315.53,395.61L316.6,394.95L317.66,394.45L318.73,394.16L319.8,393.79L320.86,393.25L321.93,392.67L322.99,392.02L324.06,391.51L325.13,391.07L326.19,390.83L327.26,390.38L328.32,389.97L329.39,389.53L330.46,388.9L331.52,388.43L332.59,388.08L333.65,387.86L334.72,387.58L335.79,387.19L336.85,386.64L337.92,386.24L338.98,385.81L340.05,385.35L341.12,385.13L342.18,384.71L343.25,384.21L344.31,382.13L345.38,381.67L346.45,383.46L347.51,383.18L348.58,369.73L349.64,369.16L350.71,368.39L351.78,367.64L352.84,366.81L353.91,366.27L354.97,365.74L356.04,365.32L357.11,364.73L358.17,363.96L359.24,363.23L360.3,362.87L361.37,362.65L362.44,362.36L363.5,361.95L364.57,361.31L365.63,360.53L366.7,359.61L367.77,359.09L368.83,358.4L369.9,357.87L370.96,357.33L372.03,356.45L373.1,355.48L374.16,354.33L375.23,353.28L376.29,352.4L377.36,351.74L378.43,351.06L379.49,350.31L380.56,349.52L381.62,348.73L382.69,347.81L383.76,347.15L384.82,346.71L385.89,346.3L386.95,345.88L388.02,345.13L389.09,344.53L390.15,343.95L391.22,343.43L392.28,343.16L393.35,342.78L394.42,342.31L395.48,341.78L396.55,341.16L397.61,340.7L398.68,340.36L399.75,340.17L400.81,339.81L401.88,339.58L402.94,339.19L404.01,338.83L405.08,338.31L406.14,338.15L407.21,337.9L408.27,337.73L409.34,337.61L410.41,337.27L411.47,336.93L412.54,336.63L413.6,336.37L414.67,336.17L415.74,336.18L416.8,335.94L417.87,335.73L418.93,335.39L420,335.02L421.07,334.81L422.13,334.61L423.2,334.39L424.26,334.16L425.33,333.68L426.4,333.23L427.46,332.85L428.53,332.56L429.59,332.3L430.66,332.11L431.73,332.03L432.79,331.59L433.86,331.17L434.92,330.72L435.99,330.36L437.06,330.09L438.12,330.04L439.19,329.72L440.25,329.25L441.32,328.82L442.39,328.37L443.45,327.95L444.52,327.72L445.58,327.59L446.65,327.17L447.72,326.6L448.78,326.01L449.85,325.43L450.91,324.93L451.98,324.64L453.05,324.47L454.11,324.05L455.18,323.44L456.24,322.74L457.31,322.16L458.38,321.59L459.44,321.3L460.51,320.98L461.57,320.5L462.64,319.88L463.71,319.12L464.77,318.47L465.84,318.13L466.9,317.71L467.97,317.42L469.04,316.94L470.1,316.52L471.17,315.6L472.23,314.99L473.3,314.42L474.37,314.09L475.43,313.63L476.5,313.02L477.56,312.26L478.63,311.49L479.7,310.77L480.76,310.21L481.83,309.99L482.89,309.67L483.96,309.15L485.03,308.37L486.09,307.83L487.16,307.29L488.22,306.78L489.29,306.39L490.36,306.4L491.42,306.06L492.49,305.42L493.55,305.03L494.62,304.63L495.69,304.4L496.75,304.44L497.82,304.36L498.88,304.05L499.95,303.78L501.02,303.38L502.08,303.1L503.15,302.94L504.21,302.99L505.28,303.01L506.35,303.03L507.41,302.8L508.48,302.73L509.54,302.62L510.61,302.65L511.68,302.89L512.74,303.32L513.81,303.56L514.87,303.62L515.94,304.35L517.01,304.33L518.07,304.41L519.14,304.46L520.2,304.82L521.27,304.91L522.34,304.89L523.4,305.18L524.47,305.29L525.53,305.35L526.6,305.55L527.66,305.86L528.73,306.11L529.8,306.2L530.86,306.07L531.93,306.29L532.99,306.46L534.06,306.7L535.13,306.91L536.19,307.01L537.26,307.08L538.32,307L539.39,306.91L540.46,306.84L541.52,307.1L542.59,307.18L543.65,307.37L544.72,307.26L545.79,307.24L546.85,307.06L547.92,307.03L548.98,306.96L550.05,307.08L551.12,306.94L552.18,306.86L553.25,306.62L554.31,306.43L555.38,306.29L556.45,306.19L557.51,306.18L558.58,305.99L559.64,305.76L560.71,305.73L561.78,305.42L562.84,305.2L563.91,305.15L564.97,305.14L566.04,304.88L567.11,304.47L568.17,304.08L569.24,303.73L570.3,303.77L571.37,303.62L572.44,303.33L573.5,302.85L574.57,302.41L575.63,301.81L576.7,301.38L577.77,300.99L578.83,300.77L579.9,300.37L580.96,299.93L582.03,299.41L583.1,298.97L584.16,298.06L585.23,298.15L586.29,297.93L587.36,297.43L588.43,296.88L589.49,296.25L590.56,295.62L591.62,294.73L592.69,294.31L593.76,293.95L594.82,293.32L595.89,292.63L596.95,291.9L598.02,426.19L599.09,426.17L600.15,426.15L601.22,426.14L602.28,426.12L603.35,426.1L604.42,426.07L605.48,426.05L606.55,426.03L607.61,426.01L608.68,426L609.75,425.98L610.81,425.96L611.88,425.93L612.94,425.91L614.01,425.89L615.08,425.87L616.14,425.85L617.21,425.83L618.27,425.81L619.34,425.79L620.41,425.77L621.47,425.74L622.54,425.72L623.6,425.71L624.67,425.69L625.74,425.67L626.8,425.65L627.87,425.63L628.93,425.6L630,425.59L630,435L628.93,435L627.87,435L626.8,435L625.74,435L624.67,435L623.6,435L622.54,435L621.47,435L620.41,435L619.34,435L618.27,435L617.21,435L616.14,435L615.08,435L614.01,435L612.94,435L611.88,435L610.81,435L609.75,435L608.68,435L607.61,435L606.55,435L605.48,435L604.42,435L603.35,435L602.28,435L601.22,435L600.15,435L599.09,435L598.02,435L596.95,300.68L595.89,301.39L594.82,302.07L593.76,302.68L592.69,303.02L591.62,303.43L590.56,304.29L589.49,304.9L588.43,305.51L587.36,306.04L586.29,306.52L585.23,306.73L584.16,306.62L583.1,307.52L582.03,307.93L580.96,308.44L579.9,308.83L578.83,309.22L577.77,309.42L576.7,309.8L575.63,310.22L574.57,310.8L573.5,311.21L572.44,311.68L571.37,311.95L570.3,312.09L569.24,312.04L568.17,312.37L567.11,312.74L566.04,313.13L564.97,313.37L563.91,313.36L562.84,313.41L561.78,313.61L560.71,313.9L559.64,313.91L558.58,314.12L557.51,314.3L556.45,314.29L555.38,314.38L554.31,314.51L553.25,314.68L552.18,314.9L551.12,314.96L550.05,315.08L548.98,314.94L547.92,315L546.85,315.02L545.79,315.18L544.72,315.18L543.65,315.26L542.59,315.06L541.52,314.96L540.46,314.68L539.39,314.73L538.32,314.8L537.26,314.84L536.19,314.75L535.13,314.63L534.06,314.41L532.99,314.15L531.93,313.96L530.86,313.72L529.8,313.82L528.73,313.71L527.66,313.43L526.6,313.1L525.53,312.88L524.47,312.81L523.4,312.67L522.34,312.35L521.27,312.35L520.2,312.23L519.14,311.85L518.07,311.78L517.01,311.68L515.94,311.67L514.87,310.91L513.81,310.83L512.74,310.55L511.68,310.1L510.61,309.84L509.54,309.78L508.48,309.86L507.41,309.91L506.35,310.11L505.28,310.06L504.21,310.02L503.15,309.95L502.08,310.08L501.02,310.33L499.95,310.7L498.88,310.94L497.82,311.22L496.75,311.27L495.69,311.21L494.62,311.42L493.55,311.79L492.49,312.15L491.42,312.76L490.36,313.06L489.29,313.03L488.22,313.4L487.16,313.87L486.09,314.39L485.03,314.9L483.96,315.65L482.89,316.14L481.83,316.44L480.76,316.64L479.7,317.17L478.63,317.86L477.56,318.61L476.5,319.34L475.43,319.92L474.37,320.35L473.3,320.67L472.23,321.22L471.17,321.79L470.1,322.68L469.04,323.07L467.97,323.52L466.9,323.8L465.84,324.21L464.77,324.53L463.71,325.15L462.64,325.88L461.57,326.48L460.51,326.93L459.44,327.23L458.38,327.51L457.31,328.07L456.24,328.61L455.18,329.29L454.11,329.88L453.05,330.27L451.98,330.43L450.91,330.7L449.85,331.18L448.78,331.74L447.72,332.31L446.65,332.85L445.58,333.26L444.52,333.37L443.45,333.59L442.39,333.99L441.32,334.42L440.25,334.82L439.19,335.28L438.12,335.57L437.06,335.61L435.99,335.86L434.92,336.21L433.86,336.64L432.79,337.04L431.73,337.45L430.66,337.51L429.59,337.68L428.53,337.94L427.46,338.2L426.4,338.56L425.33,338.99L424.26,339.45L423.2,339.65L422.13,339.86L421.07,340.04L420,340.24L418.93,340.58L417.87,340.9L416.8,341.08L415.74,341.3L414.67,341.27L413.6,341.46L412.54,341.7L411.47,341.97L410.41,342.28L409.34,342.59L408.27,342.68L407.21,342.83L406.14,343.06L405.08,343.2L404.01,343.69L402.94,344.02L401.88,344.38L400.81,344.57L399.75,344.91L398.68,345.08L397.61,345.4L396.55,345.83L395.48,346.41L394.42,346.91L393.35,347.34L392.28,347.69L391.22,347.95L390.15,348.44L389.09,348.98L388.02,349.55L386.95,350.26L385.89,350.65L384.82,351.04L383.76,351.46L382.69,352.09L381.62,352.98L380.56,353.74L379.49,354.49L378.43,355.21L377.36,355.86L376.29,356.5L375.23,357.36L374.16,358.38L373.1,359.5L372.03,360.44L370.96,361.28L369.9,361.8L368.83,362.32L367.77,363L366.7,363.5L365.63,364.39L364.57,365.13L363.5,365.74L362.44,366.13L361.37,366.4L360.3,366.61L359.24,366.95L358.17,367.66L357.11,368.39L356.04,368.96L354.97,369.36L353.91,369.87L352.84,370.39L351.78,371.19L350.71,371.92L349.64,372.66L348.58,373.2L347.51,386.63L346.45,386.89L345.38,385.08L344.31,385.52L343.25,387.57L342.18,388.05L341.12,388.44L340.05,388.64L338.98,389.09L337.92,389.49L336.85,389.86L335.79,390.39L334.72,390.75L333.65,391.01L332.59,391.21L331.52,391.54L330.46,391.99L329.39,392.6L328.32,393.02L327.26,393.41L326.19,393.83L325.13,394.05L324.06,394.47L322.99,394.97L321.93,395.59L320.86,396.14L319.8,396.67L318.73,397.01L317.66,397.29L316.6,397.78L315.53,398.41L314.47,399.12L313.4,399.97L312.34,400.5L311.27,401.1L310.2,401.59L309.14,402.06L308.07,402.66L307.01,403.37L305.94,403.96L304.87,404.42L303.81,405.02L302.74,405.59L301.68,406.01L300.61,406.47L299.54,407.11L298.48,407.72L297.41,408.21L296.35,407.95L295.28,408.45L294.21,408.78L293.15,409.27L292.08,409.85L291.02,410.35L289.95,410.82L288.88,411.17L287.82,411.54L286.75,411.77L285.69,412.12L284.62,412.54L283.55,412.94L282.49,413.27L281.42,413.52L280.36,413.71L279.29,413.83L278.22,414.15L277.16,414.46L276.09,414.74L275.03,414.92L273.96,415.1L272.89,415.22L271.83,415.29L270.76,415.44L269.7,415.69L268.63,415.87L267.56,416.02L266.5,416.09L265.43,416.15L264.37,416.22L263.3,416.26L262.23,416.44L261.17,416.63L260.1,416.64L259.04,416.76L257.97,416.82L256.9,416.84L255.84,416.94L254.77,417.09L253.71,417.27L252.64,417.41L251.57,417.52L250.51,417.58L249.44,417.69L248.38,417.81L247.31,418L246.24,418.16L245.18,418.24L244.11,418.31L243.05,418.33L241.98,418.36L240.91,418.5L239.85,418.69L238.78,418.8L237.72,418.92L236.65,418.92L235.58,419.04L234.52,419.06L233.45,419.15L232.39,419.31L231.32,419.46L230.25,419.57L229.19,419.58L228.12,419.62L227.06,419.59L225.99,419.69L224.92,419.87L223.86,419.99L222.79,420.1L221.73,420.15L220.66,420.14L219.59,420.09L218.53,420.24L217.46,420.27L216.4,420.51L215.33,420.57L214.26,420.46L213.2,420.58L212.13,420.66L211.07,420.77L210,420.94L208.93,421.13L207.87,421.22L206.8,421.28L205.74,421.24L204.67,421.42L203.6,421.54L202.54,421.72L201.47,421.84L200.41,422.01L199.34,422.17L198.27,422.27L197.21,422.41L196.14,422.46L195.08,422.56L194.01,422.77L192.94,422.96L191.88,423.07L190.81,423.16L189.75,423.41L188.68,423.57L187.61,423.68L186.55,423.87L185.48,424L184.42,424.16L183.35,424.25L182.28,424.41L181.22,424.59L180.15,424.77L179.09,424.95L178.02,425.05L176.95,425.17L175.89,425.25L174.82,425.37L173.76,425.36L172.69,425.54L171.62,425.37L170.56,425.57L169.49,425.68L168.43,425.79L167.36,425.94L166.29,426.08L165.23,426.25L164.16,426.41L163.1,426.52L162.03,426.64L160.96,426.73L159.9,426.84L158.83,426.92L157.77,427.08L156.7,427.19L155.63,427.23L154.57,427.31L153.5,427.38L152.44,427.5L151.37,427.59L150.3,427.68L149.24,427.78L148.17,427.88L147.11,427.96L146.04,427.85L144.97,427.96L143.91,428.08L142.84,428.2L141.78,428.31L140.71,428.37L139.64,428.4L138.58,428.48L137.51,428.53L136.45,428.66L135.38,428.74L134.31,428.84L133.25,428.91L132.18,428.98L131.12,429.02L130.05,429.09L128.98,429.19L127.92,429.17L126.85,429.28L125.79,429.35L124.72,429.44L123.65,429.5L122.59,429.57L121.52,429.64L120.46,429.73L119.39,429.83L118.32,429.88L117.26,429.97L116.19,430.02L115.13,430.1L114.06,430.15L112.99,430.25L111.93,430.34L110.86,430.42L109.8,430.5L108.73,430.58L107.66,430.66L106.6,430.72L105.53,430.82L104.47,430.84L103.4,430.9L102.34,430.97L101.27,431.05L100.2,431.13L99.14,431.23L98.07,431.29L97.01,431.39L95.94,431.48L94.87,431.55L93.81,431.64L92.74,431.73L91.68,431.82L90.61,431.93L89.54,432.05L88.48,432.12L87.41,432.23L86.35,432.3L85.28,432.5L84.21,432.59L83.15,432.7L82.08,432.81L81.02,432.91L79.95,432.99L78.88,433.1L77.82,433.2L76.75,433.27L75.69,433.4L74.62,433.52L73.55,433.65L72.49,433.77L71.42,433.87L70.36,433.96L69.29,434.07L68.22,434.18L67.16,434.29L66.09,434.38L65.03,434.44L63.96,434.52L62.89,434.58L61.83,434.63L60.76,434.69L59.7,434.74L58.63,434.77L57.56,434.8L56.5,434.82L55.43,434.84L54.37,434.85L53.3,434.88L52.23,434.89L51.17,434.9L50.1,434.9L49.04,434.91L47.97,434.91L46.9,434.91L45.84,434.92L44.77,434.92L43.71,434.91L42.64,434.91L41.57,434.91L40.51,434.91L39.44,434.91L38.38,434.9L37.31,434.9L36.24,434.9L35.18,434.89L34.11,434.89L33.05,434.89L31.98,434.89L30.91,434.88L29.85,434.88L28.78,434.88L27.72,434.88L26.65,434.88L25.58,434.88L24.52,434.88L23.45,434.89L22.39,434.92L21.32,434.92L20.25,434.92L19.19,434.93L18.12,434.93L17.06,434.93L15.99,434.94L14.92,434.95L13.86,434.95L12.79,434.96L11.73,434.97L10.66,434.98L9.59,434.98L8.53,434.98L7.46,434.99L6.4,434.99L5.33,434.99L4.26,435L3.2,435L2.13,435L1.07,435L0,435Z" style="fill: rgb(228, 19, 23); fill-opacity: 1; stroke-width: 0;"/></g></g><g class="errorbars"/><g class="lines"/><g class="points"/><g class="text"/></g><g class="trace scatter tracebd6466" style="stroke-miterlimit: 2;"><g class="fills"><g><path class="js-fill" d="M0,435L1.07,435L2.13,435L3.2,435L4.26,435L5.33,434.99L6.4,434.99L7.46,434.99L8.53,434.98L9.59,434.98L10.66,434.98L11.73,434.97L12.79,434.96L13.86,434.95L14.92,434.94L15.99,434.94L17.06,434.93L18.12,434.92L19.19,434.92L20.25,434.91L21.32,434.91L22.39,434.91L23.45,434.88L24.52,434.86L25.58,434.86L26.65,434.85L27.72,434.85L28.78,434.84L29.85,434.84L30.91,434.84L31.98,434.84L33.05,434.84L34.11,434.84L35.18,434.84L36.24,434.83L37.31,434.83L38.38,434.83L39.44,434.83L40.51,434.82L41.57,434.82L42.64,434.81L43.71,434.81L44.77,434.8L45.84,434.8L46.9,434.79L47.97,434.78L49.04,434.77L50.1,434.76L51.17,434.75L52.23,434.74L53.3,434.73L54.37,434.7L55.43,434.67L56.5,434.65L57.56,434.62L58.63,434.59L59.7,434.55L60.76,434.49L61.83,434.43L62.89,434.36L63.96,434.29L65.03,434.2L66.09,434.12L67.16,434.01L68.22,433.88L69.29,433.75L70.36,433.61L71.42,433.48L72.49,433.35L73.55,433.19L74.62,433.02L75.69,432.85L76.75,432.68L77.82,432.55L78.88,432.41L79.95,432.25L81.02,432.11L82.08,431.94L83.15,431.76L84.21,431.58L85.28,431.43L86.35,431.18L87.41,431.04L88.48,430.86L89.54,430.7L90.61,430.5L91.68,430.32L92.74,430.16L93.81,430L94.87,429.85L95.94,429.69L97.01,429.52L98.07,429.35L99.14,429.18L100.2,429.01L101.27,428.86L102.34,428.71L103.4,428.56L104.47,428.4L105.53,428.23L106.6,428.04L107.66,427.88L108.73,427.73L109.8,427.57L110.86,427.4L111.93,427.21L112.99,427.03L114.06,426.84L115.13,426.67L116.19,426.51L117.26,426.36L118.32,426.18L119.39,426.01L120.46,425.81L121.52,425.61L122.59,425.42L123.65,425.25L124.72,425.07L125.79,424.87L126.85,424.66L127.92,424.44L128.98,424.22L130.05,424L131.12,423.81L132.18,423.63L133.25,423.44L134.31,423.23L135.38,422.98L136.45,422.73L137.51,422.45L138.58,422.23L139.64,422.03L140.71,421.78L141.78,421.54L142.84,421.27L143.91,421L144.97,420.73L146.04,420.49L147.11,420.28L148.17,420.02L149.24,419.75L150.3,419.46L151.37,419.2L152.44,418.92L153.5,418.64L154.57,418.4L155.63,418.1L156.7,417.81L157.77,417.52L158.83,417.14L159.9,416.82L160.96,416.56L162.03,416.27L163.1,415.92L164.16,415.57L165.23,415.2L166.29,414.8L167.36,414.44L168.43,414.1L169.49,413.78L170.56,413.42L171.62,412.97L172.69,412.53L173.76,412.12L174.82,411.72L175.89,411.34L176.95,411L178.02,410.56L179.09,410.12L180.15,409.65L181.22,409.17L182.28,408.73L183.35,408.33L184.42,407.94L185.48,407.48L186.55,407L187.61,406.48L188.68,405.98L189.75,405.49L190.81,405.05L191.88,404.62L192.94,404.14L194.01,403.56L195.08,402.98L196.14,402.4L197.21,401.88L198.27,401.44L199.34,400.97L200.41,400.45L201.47,399.85L202.54,399.27L203.6,398.67L204.67,398.15L205.74,397.68L206.8,397.25L207.87,396.72L208.93,396.15L210,395.56L211.07,394.98L212.13,394.44L213.2,393.98L214.26,393.51L215.33,392.98L216.4,392.41L217.46,391.81L218.53,391.19L219.59,390.68L220.66,390.23L221.73,389.81L222.79,389.27L223.86,388.7L224.92,388.13L225.99,387.59L227.06,387.05L228.12,386.62L229.19,386.16L230.25,385.65L231.32,385.07L232.39,384.48L233.45,383.9L234.52,383.35L235.58,382.9L236.65,382.35L237.72,381.81L238.78,381.22L239.85,380.64L240.91,379.99L241.98,379.44L243.05,378.96L244.11,378.51L245.18,378.01L246.24,377.42L247.31,376.8L248.38,376.14L249.44,375.55L250.51,375.05L251.57,374.5L252.64,373.91L253.71,373.29L254.77,372.64L255.84,371.96L256.9,371.36L257.97,370.84L259.04,370.27L260.1,369.68L261.17,369.11L262.23,368.38L263.3,367.7L264.37,367.11L265.43,366.59L266.5,366.06L267.56,365.48L268.63,364.8L269.7,364.15L270.76,363.53L271.83,362.85L272.89,362.31L273.96,361.69L275.03,361.01L276.09,360.29L277.16,359.54L278.22,358.8L279.29,358.06L280.36,357.47L281.42,356.87L282.49,356.21L283.55,355.42L284.62,354.58L285.69,353.73L286.75,352.96L287.82,352.31L288.88,351.51L289.95,350.7L291.02,349.79L292.08,348.81L293.15,347.79L294.21,346.84L295.28,346.1L296.35,345.09L297.41,344.12L298.48,343.07L299.54,341.93L300.61,340.75L301.68,339.77L302.74,338.82L303.81,337.65L304.87,336.51L305.94,335.45L307.01,334.22L308.07,332.89L309.14,331.66L310.2,330.66L311.27,329.63L312.34,328.47L313.4,327.13L314.47,325.79L315.53,324.45L316.6,323.22L317.66,322.24L318.73,321.14L319.8,319.88L320.86,318.58L321.93,317.23L322.99,315.85L324.06,314.64L325.13,313.63L326.19,312.55L327.26,311.33L328.32,310.02L329.39,308.82L330.46,307.4L331.52,306.19L332.59,305.18L333.65,304.13L334.72,302.87L335.79,301.52L336.85,300.09L337.92,298.68L338.98,297.35L340.05,296.24L341.12,295.17L342.18,293.84L343.25,292.46L344.31,289.37L345.38,287.91L346.45,286.6L347.51,285.5L348.58,284.42L349.64,283.11L350.71,281.59L351.78,280.06L352.84,278.58L353.91,277.32L354.97,276.21L356.04,275.08L357.11,273.74L358.17,272.3L359.24,270.93L360.3,269.96L361.37,268.9L362.44,268L363.5,266.98L364.57,265.61L365.63,264.04L366.7,262.5L367.77,261.35L368.83,260.14L369.9,259.05L370.96,257.91L372.03,256.38L373.1,254.76L374.16,252.94L375.23,251.28L376.29,249.72L377.36,248.5L378.43,247.22L379.49,245.76L380.56,244.22L381.62,242.66L382.69,241.08L383.76,239.76L384.82,238.67L385.89,237.61L386.95,236.35L388.02,234.92L389.09,233.56L390.15,232.21L391.22,231.03L392.28,230.11L393.35,229.09L394.42,227.94L395.48,226.7L396.55,225.44L397.61,224.22L398.68,223.15L399.75,222.37L400.81,221.45L401.88,220.5L402.94,219.42L404.01,218.46L405.08,217.35L406.14,216.59L407.21,215.76L408.27,215.11L409.34,214.23L410.41,213.33L411.47,212.42L412.54,211.53L413.6,210.76L414.67,210.16L415.74,209.57L416.8,208.85L417.87,208.03L418.93,207.2L420,206.35L421.07,205.58L422.13,204.93L423.2,204.34L424.26,203.54L425.33,202.62L426.4,201.69L427.46,200.78L428.53,199.98L429.59,199.35L430.66,198.72L431.73,198.08L432.79,197.17L433.86,196.23L434.92,195.31L435.99,194.46L437.06,193.7L438.12,193.09L439.19,192.23L440.25,191.27L441.32,190.28L442.39,189.27L443.45,188.34L444.52,187.59L445.58,186.87L446.65,185.9L447.72,184.78L448.78,183.64L449.85,182.48L450.91,181.45L451.98,180.58L453.05,179.72L454.11,178.66L455.18,177.35L456.24,176L457.31,174.68L458.38,173.47L459.44,172.5L460.51,171.56L461.57,170.38L462.64,168.97L463.71,167.5L464.77,166.2L465.84,165.1L466.9,163.96L467.97,162.95L469.04,161.7L470.1,160.29L471.17,158.56L472.23,157.01L473.3,155.64L474.37,154.22L475.43,152.94L476.5,151.34L477.56,149.65L478.63,147.96L479.7,146.2L480.76,144.57L481.83,143.16L482.89,141.73L483.96,139.96L485.03,138.13L486.09,136.27L487.16,134.41L488.22,132.71L489.29,131.22L490.36,129.81L491.42,128.07L492.49,126.2L493.55,124.35L494.62,122.53L495.69,120.89L496.75,119.5L497.82,118.09L498.88,116.42L499.95,114.69L501.02,112.89L502.08,111.17L503.15,109.55L504.21,108.22L505.28,106.94L506.35,105.42L507.41,103.85L508.48,102.35L509.54,100.87L510.61,99.58L511.68,98.44L512.74,97.33L513.81,96.05L514.87,94.66L515.94,94.08L517.01,92.79L518.07,91.6L519.14,90.61L520.2,89.68L521.27,88.58L522.34,87.4L523.4,86.26L524.47,85.23L525.53,84.23L526.6,83.42L527.66,82.64L528.73,81.69L529.8,80.68L530.86,79.67L531.93,78.81L532.99,77.99L534.06,77.32L535.13,76.66L536.19,75.9L537.26,75.03L538.32,74.11L539.39,73.24L540.46,72.47L541.52,71.84L542.59,71.21L543.65,70.44L544.72,69.62L545.79,68.81L546.85,67.97L547.92,67.25L548.98,66.63L550.05,66.02L551.12,65.25L552.18,64.35L553.25,63.52L554.31,62.65L555.38,61.9L556.45,61.26L557.51,60.57L558.58,59.78L559.64,58.97L560.71,58.06L561.78,57.15L562.84,56.37L563.91,55.7L564.97,54.93L566.04,54L567.11,53.04L568.17,52.05L569.24,51L570.3,50.12L571.37,49.36L572.44,48.46L573.5,47.38L574.57,46.27L575.63,45.09L576.7,43.85L577.77,42.88L578.83,42L579.9,40.97L580.96,39.87L582.03,38.72L583.1,37.55L584.16,36.13L585.23,35.15L586.29,34.25L587.36,33.13L588.43,31.87L589.49,30.54L590.56,29.2L591.62,27.68L592.69,26.63L593.76,25.67L594.82,24.46L595.89,23.14L596.95,21.75L598.02,426.19L599.09,426.17L600.15,426.15L601.22,426.14L602.28,426.12L603.35,426.1L604.42,426.07L605.48,426.05L606.55,426.03L607.61,426.01L608.68,426L609.75,425.98L610.81,425.96L611.88,425.93L612.94,425.91L614.01,425.89L615.08,425.87L616.14,425.85L617.21,425.83L618.27,425.81L619.34,425.79L620.41,425.77L621.47,425.74L622.54,425.72L623.6,425.71L624.67,425.69L625.74,425.67L626.8,425.65L627.87,425.63L628.93,425.6L630,425.59L630,425.59L628.93,425.6L627.87,425.63L626.8,425.65L625.74,425.67L624.67,425.69L623.6,425.71L622.54,425.72L621.47,425.74L620.41,425.77L619.34,425.79L618.27,425.81L617.21,425.83L616.14,425.85L615.08,425.87L614.01,425.89L612.94,425.91L611.88,425.93L610.81,425.96L609.75,425.98L608.68,426L607.61,426.01L606.55,426.03L605.48,426.05L604.42,426.07L603.35,426.1L602.28,426.12L601.22,426.14L600.15,426.15L599.09,426.17L598.02,426.19L596.95,291.9L595.89,292.63L594.82,293.32L593.76,293.95L592.69,294.31L591.62,294.73L590.56,295.62L589.49,296.25L588.43,296.88L587.36,297.43L586.29,297.93L585.23,298.15L584.16,298.06L583.1,298.97L582.03,299.41L580.96,299.93L579.9,300.37L578.83,300.77L577.77,300.99L576.7,301.38L575.63,301.81L574.57,302.41L573.5,302.85L572.44,303.33L571.37,303.62L570.3,303.77L569.24,303.73L568.17,304.08L567.11,304.47L566.04,304.88L564.97,305.14L563.91,305.15L562.84,305.2L561.78,305.42L560.71,305.73L559.64,305.76L558.58,305.99L557.51,306.18L556.45,306.19L555.38,306.29L554.31,306.43L553.25,306.62L552.18,306.86L551.12,306.94L550.05,307.08L548.98,306.96L547.92,307.03L546.85,307.06L545.79,307.24L544.72,307.26L543.65,307.37L542.59,307.18L541.52,307.1L540.46,306.84L539.39,306.91L538.32,307L537.26,307.08L536.19,307.01L535.13,306.91L534.06,306.7L532.99,306.46L531.93,306.29L530.86,306.07L529.8,306.2L528.73,306.11L527.66,305.86L526.6,305.55L525.53,305.35L524.47,305.29L523.4,305.18L522.34,304.89L521.27,304.91L520.2,304.82L519.14,304.46L518.07,304.41L517.01,304.33L515.94,304.35L514.87,303.62L513.81,303.56L512.74,303.32L511.68,302.89L510.61,302.65L509.54,302.62L508.48,302.73L507.41,302.8L506.35,303.03L505.28,303.01L504.21,302.99L503.15,302.94L502.08,303.1L501.02,303.38L499.95,303.78L498.88,304.05L497.82,304.36L496.75,304.44L495.69,304.4L494.62,304.63L493.55,305.03L492.49,305.42L491.42,306.06L490.36,306.4L489.29,306.39L488.22,306.78L487.16,307.29L486.09,307.83L485.03,308.37L483.96,309.15L482.89,309.67L481.83,309.99L480.76,310.21L479.7,310.77L478.63,311.49L477.56,312.26L476.5,313.02L475.43,313.63L474.37,314.09L473.3,314.42L472.23,314.99L471.17,315.6L470.1,316.52L469.04,316.94L467.97,317.42L466.9,317.71L465.84,318.13L464.77,318.47L463.71,319.12L462.64,319.88L461.57,320.5L460.51,320.98L459.44,321.3L458.38,321.59L457.31,322.16L456.24,322.74L455.18,323.44L454.11,324.05L453.05,324.47L451.98,324.64L450.91,324.93L449.85,325.43L448.78,326.01L447.72,326.6L446.65,327.17L445.58,327.59L444.52,327.72L443.45,327.95L442.39,328.37L441.32,328.82L440.25,329.25L439.19,329.72L438.12,330.04L437.06,330.09L435.99,330.36L434.92,330.72L433.86,331.17L432.79,331.59L431.73,332.03L430.66,332.11L429.59,332.3L428.53,332.56L427.46,332.85L426.4,333.23L425.33,333.68L424.26,334.16L423.2,334.39L422.13,334.61L421.07,334.81L420,335.02L418.93,335.39L417.87,335.73L416.8,335.94L415.74,336.18L414.67,336.17L413.6,336.37L412.54,336.63L411.47,336.93L410.41,337.27L409.34,337.61L408.27,337.73L407.21,337.9L406.14,338.15L405.08,338.31L404.01,338.83L402.94,339.19L401.88,339.58L400.81,339.81L399.75,340.17L398.68,340.36L397.61,340.7L396.55,341.16L395.48,341.78L394.42,342.31L393.35,342.78L392.28,343.16L391.22,343.43L390.15,343.95L389.09,344.53L388.02,345.13L386.95,345.88L385.89,346.3L384.82,346.71L383.76,347.15L382.69,347.81L381.62,348.73L380.56,349.52L379.49,350.31L378.43,351.06L377.36,351.74L376.29,352.4L375.23,353.28L374.16,354.33L373.1,355.48L372.03,356.45L370.96,357.33L369.9,357.87L368.83,358.4L367.77,359.09L366.7,359.61L365.63,360.53L364.57,361.31L363.5,361.95L362.44,362.36L361.37,362.65L360.3,362.87L359.24,363.23L358.17,363.96L357.11,364.73L356.04,365.32L354.97,365.74L353.91,366.27L352.84,366.81L351.78,367.64L350.71,368.39L349.64,369.16L348.58,369.73L347.51,383.18L346.45,383.46L345.38,381.67L344.31,382.13L343.25,384.21L342.18,384.71L341.12,385.13L340.05,385.35L338.98,385.81L337.92,386.24L336.85,386.64L335.79,387.19L334.72,387.58L333.65,387.86L332.59,388.08L331.52,388.43L330.46,388.9L329.39,389.53L328.32,389.97L327.26,390.38L326.19,390.83L325.13,391.07L324.06,391.51L322.99,392.02L321.93,392.67L320.86,393.25L319.8,393.79L318.73,394.16L317.66,394.45L316.6,394.95L315.53,395.61L314.47,396.33L313.4,397.21L312.34,397.76L311.27,398.38L310.2,398.89L309.14,399.36L308.07,399.98L307.01,400.71L305.94,401.32L304.87,401.8L303.81,402.42L302.74,403.01L301.68,403.43L300.61,403.91L299.54,404.56L298.48,405.18L297.41,405.69L296.35,405.45L295.28,405.96L294.21,406.29L293.15,406.8L292.08,407.4L291.02,407.91L289.95,408.39L288.88,408.75L287.82,409.14L286.75,409.37L285.69,409.73L284.62,410.16L283.55,410.58L282.49,410.93L281.42,411.19L280.36,411.38L279.29,411.51L278.22,411.84L277.16,412.16L276.09,412.45L275.03,412.65L273.96,412.85L272.89,412.98L271.83,413.06L270.76,413.21L269.7,413.47L268.63,413.67L267.56,413.84L266.5,413.92L265.43,413.99L264.37,414.06L263.3,414.12L262.23,414.31L261.17,414.51L260.1,414.54L259.04,414.67L257.97,414.73L256.9,414.77L255.84,414.88L254.77,415.03L253.71,415.23L252.64,415.38L251.57,415.51L250.51,415.58L249.44,415.69L248.38,415.82L247.31,416.03L246.24,416.2L245.18,416.29L244.11,416.37L243.05,416.41L241.98,416.45L240.91,416.6L239.85,416.8L238.78,416.93L237.72,417.06L236.65,417.07L235.58,417.2L234.52,417.22L233.45,417.33L232.39,417.51L231.32,417.67L230.25,417.79L229.19,417.81L228.12,417.86L227.06,417.84L225.99,417.96L224.92,418.15L223.86,418.28L222.79,418.41L221.73,418.47L220.66,418.46L219.59,418.43L218.53,418.59L217.46,418.63L216.4,418.89L215.33,418.96L214.26,418.87L213.2,418.99L212.13,419.09L211.07,419.21L210,419.39L208.93,419.59L207.87,419.71L206.8,419.78L205.74,419.74L204.67,419.94L203.6,420.07L202.54,420.26L201.47,420.4L200.41,420.58L199.34,420.75L198.27,420.87L197.21,421.01L196.14,421.08L195.08,421.19L194.01,421.41L192.94,421.62L191.88,421.74L190.81,421.84L189.75,422.1L188.68,422.27L187.61,422.4L186.55,422.6L185.48,422.75L184.42,422.91L183.35,423.02L182.28,423.18L181.22,423.37L180.15,423.56L179.09,423.75L178.02,423.87L176.95,424.01L175.89,424.09L174.82,424.22L173.76,424.22L172.69,424.41L171.62,424.25L170.56,424.46L169.49,424.58L168.43,424.71L167.36,424.86L166.29,425.01L165.23,425.19L164.16,425.36L163.1,425.48L162.03,425.61L160.96,425.71L159.9,425.83L158.83,425.92L157.77,426.09L156.7,426.21L155.63,426.27L154.57,426.36L153.5,426.44L152.44,426.57L151.37,426.67L150.3,426.77L149.24,426.88L148.17,426.99L147.11,427.08L146.04,426.98L144.97,427.1L143.91,427.22L142.84,427.35L141.78,427.48L140.71,427.55L139.64,427.59L138.58,427.67L137.51,427.73L136.45,427.87L135.38,427.96L134.31,428.07L133.25,428.15L132.18,428.23L131.12,428.28L130.05,428.36L128.98,428.46L127.92,428.45L126.85,428.57L125.79,428.66L124.72,428.75L123.65,428.82L122.59,428.9L121.52,428.98L120.46,429.08L119.39,429.19L118.32,429.25L117.26,429.35L116.19,429.41L115.13,429.5L114.06,429.56L112.99,429.67L111.93,429.78L110.86,429.87L109.8,429.96L108.73,430.05L107.66,430.14L106.6,430.21L105.53,430.32L104.47,430.36L103.4,430.43L102.34,430.52L101.27,430.6L100.2,430.69L99.14,430.8L98.07,430.87L97.01,430.99L95.94,431.1L94.87,431.18L93.81,431.29L92.74,431.38L91.68,431.49L90.61,431.62L89.54,431.75L88.48,431.84L87.41,431.96L86.35,432.05L85.28,432.26L84.21,432.36L83.15,432.49L82.08,432.62L81.02,432.73L79.95,432.83L78.88,432.94L77.82,433.06L76.75,433.14L75.69,433.28L74.62,433.42L73.55,433.56L72.49,433.69L71.42,433.79L70.36,433.89L69.29,434.02L68.22,434.13L67.16,434.24L66.09,434.34L65.03,434.4L63.96,434.49L62.89,434.55L61.83,434.61L60.76,434.67L59.7,434.72L58.63,434.75L57.56,434.78L56.5,434.81L55.43,434.82L54.37,434.84L53.3,434.87L52.23,434.88L51.17,434.89L50.1,434.89L49.04,434.9L47.97,434.9L46.9,434.9L45.84,434.91L44.77,434.91L43.71,434.91L42.64,434.91L41.57,434.91L40.51,434.9L39.44,434.9L38.38,434.9L37.31,434.89L36.24,434.89L35.18,434.89L34.11,434.89L33.05,434.89L31.98,434.88L30.91,434.88L29.85,434.88L28.78,434.87L27.72,434.87L26.65,434.88L25.58,434.88L24.52,434.88L23.45,434.89L22.39,434.92L21.32,434.92L20.25,434.92L19.19,434.92L18.12,434.93L17.06,434.93L15.99,434.94L14.92,434.95L13.86,434.95L12.79,434.96L11.73,434.97L10.66,434.98L9.59,434.98L8.53,434.98L7.46,434.99L6.4,434.99L5.33,434.99L4.26,435L3.2,435L2.13,435L1.07,435L0,435Z" style="fill: rgb(34, 139, 34); fill-opacity: 1; stroke-width: 0;"/></g></g><g class="errorbars"/><g class="lines"/><g class="points"/><g class="text"/></g><g class="trace scatter traceec95a3" style="stroke-miterlimit: 2;"><g class="fills"/><g class="errorbars"/><g class="lines"/><g class="points"/><g class="text"/></g></g></g><g class="overplot"/><path class="xlines-above crisp" style="fill: none;" d="M0,0"/><path class="ylines-above crisp" style="fill: none;" d="M0,0"/><g class="overlines-above"/><g class="xaxislayer-above"><g class="xtick"><text text-anchor="middle" x="0" y="473" transform="translate(134.62,0)" style="font-family: 'Open Sans', verdana, arial, sans-serif; font-size: 12px; fill: rgb(68, 68, 68); fill-opacity: 1; white-space: pre;">Apr 2020</text></g><g class="xtick"><text text-anchor="middle" x="0" y="473" transform="translate(231.62,0)" style="font-family: 'Open Sans', verdana, arial, sans-serif; font-size: 12px; fill: rgb(68, 68, 68); fill-opacity: 1; white-space: pre;">Jul 2020</text></g><g class="xtick"><text text-anchor="middle" x="0" y="473" transform="translate(329.7,0)" style="font-family: 'Open Sans', verdana, arial, sans-serif; font-size: 12px; fill: rgb(68, 68, 68); fill-opacity: 1; white-space: pre;">Oct 2020</text></g><g class="xtick"><text text-anchor="middle" x="0" y="473" transform="translate(427.77,0)" style="font-family: 'Open Sans', verdana, arial, sans-serif; font-size: 12px; fill: rgb(68, 68, 68); fill-opacity: 1; white-space: pre;">Jan 2021</text></g><g class="xtick"><text text-anchor="middle" x="0" y="473" transform="translate(523.71,0)" style="font-family: 'Open Sans', verdana, arial, sans-serif; font-size: 12px; fill: rgb(68, 68, 68); fill-opacity: 1; white-space: pre;">Apr 2021</text></g><g class="xtick"><text text-anchor="middle" x="0" y="473" transform="translate(620.71,0)" style="font-family: 'Open Sans', verdana, arial, sans-serif; font-size: 12px; fill: rgb(68, 68, 68); fill-opacity: 1; white-space: pre;">Jul 2021</text></g></g><g class="yaxislayer-above"><g class="ytick"><text text-anchor="end" x="59" y="4.199999999999999" transform="translate(0,460)" style="font-family: 'Open Sans', verdana, arial, sans-serif; font-size: 12px; fill: rgb(68, 68, 68); fill-opacity: 1; white-space: pre;">0</text></g><g class="ytick"><text text-anchor="end" x="59" y="4.199999999999999" transform="translate(0,356.81)" style="font-family: 'Open Sans', verdana, arial, sans-serif; font-size: 12px; fill: rgb(68, 68, 68); fill-opacity: 1; white-space: pre;">50M</text></g><g class="ytick"><text text-anchor="end" x="59" y="4.199999999999999" transform="translate(0,253.62)" style="font-family: 'Open Sans', verdana, arial, sans-serif; font-size: 12px; fill: rgb(68, 68, 68); fill-opacity: 1; white-space: pre;">100M</text></g><g class="ytick"><text text-anchor="end" x="59" y="4.199999999999999" transform="translate(0,150.43)" style="font-family: 'Open Sans', verdana, arial, sans-serif; font-size: 12px; fill: rgb(68, 68, 68); fill-opacity: 1; white-space: pre;">150M</text></g><g class="ytick"><text text-anchor="end" x="59" y="4.199999999999999" transform="translate(0,47.239999999999995)" style="font-family: 'Open Sans', verdana, arial, sans-serif; font-size: 12px; fill: rgb(68, 68, 68); fill-opacity: 1; white-space: pre;">200M</text></g></g><g class="overaxes-above"/></g></g><g class="polarlayer"/><g class="ternarylayer"/><g class="geolayer"/><g class="funnelarealayer"/><g class="pielayer"/><g class="treemaplayer"/><g class="sunburstlayer"/><g class="glimages"/><defs id="topdefs-84a121"><g class="clips"/><clipPath id="legend84a121"><rect width="109" height="67" x="0" y="0"/></clipPath></defs><g class="layer-above"><g class="imagelayer"/><g class="shapelayer"/></g><g class="infolayer"><g class="legend" pointer-events="all" transform="translate(123, 68.5)"><rect class="bg" shape-rendering="crispEdges" style="stroke: rgb(68, 68, 68); stroke-opacity: 1; fill: rgb(255, 255, 255); fill-opacity: 1; stroke-width: 0px;" width="109" height="67" x="0" y="0"/><g class="scrollbox" transform="translate(0, 0)" clip-path="url('#legend84a121')"><g class="groups"><g class="traces" style="opacity: 1;" transform="translate(0, 14.5)"><text class="legendtext" text-anchor="start" x="40" y="4.680000000000001" style="font-family: 'Open Sans', verdana, arial, sans-serif; font-size: 12px; fill: rgb(68, 68, 68); fill-opacity: 1; white-space: pre;">Recovered</text><g class="layers"><g class="legendfill"><path class="js-fill" d="M5,-3h30v6h-30z" style="stroke-width: 0; fill: rgb(34, 139, 34); fill-opacity: 1;"/></g><g class="legendlines"/><g class="legendsymbols"><g class="legendpoints"/></g></g><rect class="legendtoggle" x="0" y="-9.5" width="103.03125" height="19" style="fill: rgb(0, 0, 0); fill-opacity: 0;"/></g><g class="traces" style="opacity: 1;" transform="translate(0, 33.5)"><text class="legendtext" text-anchor="start" x="40" y="4.680000000000001" style="font-family: 'Open Sans', verdana, arial, sans-serif; font-size: 12px; fill: rgb(68, 68, 68); fill-opacity: 1; white-space: pre;">Death</text><g class="layers"><g class="legendfill"><path class="js-fill" d="M5,-3h30v6h-30z" style="stroke-width: 0; fill: rgb(228, 19, 23); fill-opacity: 1;"/></g><g class="legendlines"/><g class="legendsymbols"><g class="legendpoints"/></g></g><rect class="legendtoggle" x="0" y="-9.5" width="103.03125" height="19" style="fill: rgb(0, 0, 0); fill-opacity: 0;"/></g><g class="traces" style="opacity: 1;" transform="translate(0, 52.5)"><text class="legendtext" text-anchor="start" x="40" y="4.680000000000001" style="font-family: 'Open Sans', verdana, arial, sans-serif; font-size: 12px; fill: rgb(68, 68, 68); fill-opacity: 1; white-space: pre;">Active</text><g class="layers"><g class="legendfill"><path class="js-fill" d="M5,-3h30v6h-30z" style="stroke-width: 0; fill: rgb(31, 119, 180); fill-opacity: 1;"/></g><g class="legendlines"/><g class="legendsymbols"><g class="legendpoints"/></g></g><rect class="legendtoggle" x="0" y="-9.5" width="103.03125" height="19" style="fill: rgb(0, 0, 0); fill-opacity: 0;"/></g></g></g><rect class="scrollbar" rx="20" ry="3" width="0" height="0" style="fill: rgb(128, 139, 164); fill-opacity: 1;" x="0" y="0"/></g><g class="g-gtitle"><text class="gtitle" x="350" y="12.5" text-anchor="middle" dy="0em" style="font-family: 'Open Sans', verdana, arial, sans-serif; font-size: 17px; fill: rgb(68, 68, 68); opacity: 1; font-weight: normal; white-space: pre;">Distribution of Covid19 Cases Worldwide</text></g><g class="g-xtitle" transform="translate(0,-15)"><text class="xtitle" x="375" y="512" text-anchor="middle" style="font-family: 'Open Sans', verdana, arial, sans-serif; font-size: 14px; fill: rgb(68, 68, 68); opacity: 1; font-weight: normal; white-space: pre;">Source: Johns Hopkins University Center for Systems Science and Engineering</text></g><g class="g-ytitle" transform="translate(-1,0)"><text class="ytitle" transform="rotate(-90,22,242.5)" x="22" y="242.5" text-anchor="middle" style="font-family: 'Open Sans', verdana, arial, sans-serif; font-size: 14px; fill: rgb(68, 68, 68); opacity: 1; font-weight: normal; white-space: pre;">Number of Cases</text></g></g></svg>