<svg class="main-svg" xmlns="http://www.w3.org/2000/svg" xmlns:xlink="http://www.w3.org/1999/xlink" width="700" height="500" style="" viewBox="0 0 700 500"><rect x="0" y="0" width="700" height="500" style="fill: rgb(255, 255, 255); fill-opacity: 1;"/><defs id="defs-2d1146"><g class="clips"><clipPath id="clip2d1146xyplot" class="plotclip"><rect width="602" height="182.4"/></clipPath><clipPath id="clip2d1146x2y2plot" class="plotclip"><rect width="602" height="182.4"/></clipPath><clipPath class="axesclip" id="clip2d1146x"><rect x="58" y="0" width="602" height="500"/></clipPath><clipPath class="axesclip" id="clip2d1146y"><rect x="0" y="60" width="700" height="182.4"/></clipPath><clipPath class="axesclip" id="clip2d1146xy"><rect x="58" y="60" width="602" height="182.4"/></clipPath><clipPath class="axesclip" id="clip2d1146y2"><rect x="0" y="257.6" width="700" height="182.4"/></clipPath><clipPath class="axesclip" id="clip2d1146xy2"><rect x="58" y="257.6" width="602" height="182.4"/></clipPath><clipPath class="axesclip" id="clip2d1146x2"><rect x="58" y="0" width="602" height="500"/></clipPath><clipPath class="axesclip" id="clip2d1146x2y"><rect x="58" y="60" width="602" height="182.4"/></clipPath><clipPath class="axesclip" id="clip2d1146x2y2"><rect x="58" y="257.6" width="602" height="182.4"/></clipPath></g><g class="gradients"/><g class="patterns"/></defs><g class="bglayer"/><g class="layer-below"><g class="imagelayer"/><g class="shapelayer"/></g><g class="cartesianlayer"><g class="subplot xy"><g class="layer-subplot"><g class="shapelayer"/><g class="imagelayer"/></g><g class="gridlayer"><g class="x"><path class="xgrid crisp" transform="translate(147.74,0)" d="M0,60v182.4" style="stroke: rgb(238, 238, 238); stroke-opacity: 1; stroke-width: 1px;"/><path class="xgrid crisp" transform="translate(250.31,0)" d="M0,60v182.4" style="stroke: rgb(238, 238, 238); stroke-opacity: 1; stroke-width: 1px;"/><path class="xgrid crisp" transform="translate(351.2,0)" d="M0,60v182.4" style="stroke: rgb(238, 238, 238); stroke-opacity: 1; stroke-width: 1px;"/><path class="xgrid crisp" transform="translate(453.76,0)" d="M0,60v182.4" style="stroke: rgb(238, 238, 238); stroke-opacity: 1; stroke-width: 1px;"/><path class="xgrid crisp" transform="translate(554.65,0)" d="M0,60v182.4" style="stroke: rgb(238, 238, 238); stroke-opacity: 1; stroke-width: 1px;"/><path class="xgrid crisp" transform="translate(657.21,0)" d="M0,60v182.4" style="stroke: rgb(238, 238, 238); stroke-opacity: 1; stroke-width: 1px;"/></g><g class="y"><path class="ygrid crisp" transform="translate(0,169.20999999999998)" d="M58,0h602" style="stroke: rgb(238, 238, 238); stroke-opacity: 1; stroke-width: 1px;"/><path class="ygrid crisp" transform="translate(0,115.72999999999999)" d="M58,0h602" style="stroke: rgb(238, 238, 238); stroke-opacity: 1; stroke-width: 1px;"/><path class="ygrid crisp" transform="translate(0,62.25)" d="M58,0h602" style="stroke: rgb(238, 238, 238); stroke-opacity: 1; stroke-width: 1px;"/></g></g><g class="zerolinelayer"><path class="yzl zl crisp" transform="translate(0,222.69)" d="M58,0h602" style="stroke: rgb(68, 68, 68); stroke-opacity: 1; stroke-width: 1px;"/></g><path class="xlines-below"/><path class="ylines-below"/><g class="overlines-below"/><g class="xaxislayer-below"/><g class="yaxislayer-below"/><g class="overaxes-below"/><g class="plot" transform="translate(58,60)" clip-path="url(#clip2d1146xyplot)"><g class="scatterlayer mlayer"><g class="trace scatter trace04c2f5" style="stroke-miterlimit: 2; opacity: 1;"><g class="fills"/><g class="errorbars"/><g class="lines"><path class="js-line" d="M0,162.69L41.81,162.14L42.36,161.69L44.04,161.87L44.59,162.11L48.49,161.1L49.05,161.63L50.72,161.26L51.28,160.4L51.84,160.55L52.4,159.87L53.51,160.37L54.07,159.6L55.18,158.68L55.74,160.01L56.86,160.17L57.41,159.06L57.97,159.04L58.53,156.73L59.09,157.79L59.64,156.75L61.31,159.01L61.87,158.08L63.54,153.53L64.1,155.62L64.66,158.64L65.22,155.05L65.77,153.86L66.33,150.53L66.89,152.99L67.45,151.03L69.12,155.84L69.68,153.96L71.91,145.41L72.46,155.62L73.02,154.59L73.58,145.75L74.14,148.74L74.69,145.6L75.25,145.52L75.81,149.97L76.92,153.42L77.48,145.74L78.04,144.62L78.59,147.35L80.27,153.71L80.82,149.53L81.38,142.91L81.94,146.15L82.5,149.04L83.05,132.71L83.61,128.72L84.17,173.28L85.28,141.55L85.84,140.75L86.4,140.52L86.96,138.69L88.63,151.17L89.19,141.47L89.74,137.65L90.3,138.95L90.86,139.67L92.53,149.61L93.09,137.72L94.2,139.72L94.76,138.99L96.43,150.45L96.99,139.74L97.55,141.22L98.1,139.33L99.78,150.17L100.33,150.52L101.45,127.31L102.01,132.03L102.56,132.26L103.12,137.27L103.68,150.57L104.24,147.71L104.79,133.81L105.91,131.64L106.46,134.21L108.14,151.94L108.69,132.59L109.25,132.65L109.81,133.82L110.92,137.88L111.48,150.54L112.04,148.52L112.6,135.67L113.71,130.22L114.27,136.27L115.38,150.39L115.94,149.64L116.5,136.35L117.06,136.7L117.61,139.71L118.17,145.4L118.73,138.14L119.29,150.99L119.84,150.12L120.4,137.93L120.96,136.94L121.51,140.09L122.07,139.11L122.63,142.75L123.19,154.92L123.74,135.83L124.3,138.98L124.86,137.85L125.42,137.66L126.53,144.59L127.09,154.85L127.65,157.6L128.2,152.65L129.32,140.89L129.88,140.48L130.99,155.19L131.55,151.67L132.66,142.75L133.22,143.22L133.78,141.44L134.34,146.88L134.89,154.43L135.45,153.26L136.01,143.99L137.12,145.57L137.68,145.41L138.79,155.32L139.35,153.67L140.47,145.1L141.02,143.56L141.58,145.14L142.14,150.39L142.7,158.03L143.25,148.76L143.81,145.83L144.37,146.15L144.93,148.34L145.48,147.86L146.04,149.99L147.16,158.07L147.71,155.55L148.83,146.42L149.39,147.4L150.5,156.25L151.06,153.83L152.17,148.86L152.73,149.45L153.29,146.65L153.84,149.33L154.4,156.14L154.96,152.74L155.52,146.66L156.07,147.53L156.63,148.41L157.19,149.67L157.75,155.65L158.86,158.28L159.42,154.89L160.53,149.94L161.09,151.89L161.65,153.2L162.21,157.08L162.76,155.52L163.32,137.86L163.88,148.66L164.44,144.55L164.99,141.99L165.55,148.64L166.11,155.26L166.66,154.27L167.22,143.71L167.78,144.11L168.34,143.51L168.89,141.96L169.45,146.53L170.01,153.11L170.57,152.98L171.12,144.22L171.68,138.82L172.24,140.83L172.8,144.77L173.35,135.16L173.91,151.46L174.47,150.02L175.03,134.89L175.58,136.77L176.14,135.88L176.7,137.2L177.26,141.15L177.81,148.56L178.37,148.24L178.93,137.13L179.49,133.5L180.04,134.05L180.6,134.59L181.71,150.91L182.27,148.05L183.94,125.95L184.5,134.43L185.06,136.89L185.62,149.6L186.17,147.91L186.73,132.39L187.29,138.26L187.85,131.56L188.96,153.32L189.52,153.27L190.08,148.02L190.63,132.54L191.75,133.56L192.31,150.42L192.86,154.48L193.42,153.5L193.98,149.3L195.65,115.65L196.21,130.83L196.76,135.21L197.32,147.17L197.88,146.25L198.44,128.24L198.99,130.7L199.55,126.15L200.11,125.74L200.67,131.44L201.78,147.22L202.34,129.45L202.9,128.21L203.45,131.17L204.01,132.42L204.57,131.51L205.13,147.44L205.68,146.36L206.24,129.74L206.8,128.05L207.36,130.2L207.91,130.87L208.47,134.29L209.03,147.77L209.59,147.46L210.14,132.59L210.7,133.59L211.26,132.15L212.37,137.93L212.93,148.7L213.49,147.4L214.04,135.3L214.6,130.01L215.16,134.02L216.27,138.7L216.83,146.26L217.39,148.89L217.95,127.78L218.5,137.44L219.06,134.09L219.62,134.8L220.18,134.68L220.73,146.92L221.29,145.66L221.85,128.69L222.96,126.18L223.52,128.79L224.08,131.45L224.64,144.85L225.19,141.09L225.75,130.77L226.86,122.03L227.42,123.92L227.98,126.91L228.54,119.01L229.09,143.13L229.65,124.56L230.21,119.12L230.77,121.47L231.32,118.59L231.88,125.07L232.44,139.46L233,138.99L233.55,116.89L234.11,115.28L234.67,115.67L235.23,115.49L236.34,137.32L236.9,132.76L238.01,114.07L238.57,110.14L240.8,139.9L241.36,116.46L241.91,115.24L242.47,115.75L243.03,125.59L244.14,145.41L244.7,139.87L245.82,115.26L246.37,115.33L246.93,115.57L247.49,127.1L248.05,141.74L248.6,141.49L249.16,118.48L250.28,124.62L250.83,117.56L252.51,143.16L253.06,123.84L253.62,123.12L254.18,136.96L254.74,125.64L255.29,128.58L255.85,144.7L256.41,145.37L256.96,122.13L257.52,121.36L258.08,126L258.64,124.18L259.19,131.52L259.75,147.03L260.31,141.84L260.87,125.5L261.42,121.85L261.98,124.03L262.54,121.6L263.1,129.66L263.65,145.19L264.21,143.28L264.77,125.2L265.88,119.89L266.44,121.02L267,126.67L267.56,142.6L268.11,143.65L268.67,122.69L269.79,118.1L270.34,121.71L270.9,126.38L271.46,142.1L272.01,142.65L272.57,123.09L273.13,119.78L273.69,128.18L274.24,133.87L274.8,122.12L275.92,143.11L276.47,120.49L277.03,111.2L277.59,122.01L278.15,139.6L278.7,129.71L279.82,141.45L280.38,132.9L281.49,113.89L282.05,116.53L282.61,123.24L283.16,142.91L283.72,139.86L284.28,116.09L284.84,116.42L285.39,121.78L285.95,111.65L286.51,121.01L287.06,138.85L287.62,138.41L288.18,96.24L289.29,121.71L289.85,122.55L291.52,145.55L292.08,127.42L292.64,137.48L293.2,130L293.75,128.69L294.31,133.96L294.87,149.08L295.43,147.75L295.98,129.7L297.1,133.73L297.66,131.43L299.33,152.41L299.89,136.72L300.44,132.69L301,133.6L301.56,139.74L302.11,136.47L302.67,153.74L303.23,153.73L303.79,146.03L305.46,105.4L306.02,144.16L306.57,152.93L307.13,151.23L307.69,139.38L308.25,137.53L308.8,140.59L309.36,141.1L309.92,143.93L311.03,152.6L311.59,145.31L312.15,141.01L312.71,141.58L313.26,139.87L313.82,141.55L314.38,155.26L314.94,154.38L315.49,143.73L316.61,143.52L317.16,145.05L317.72,147.02L318.28,155.33L318.84,152.96L319.39,141.83L319.95,141.21L320.51,143.43L321.07,144.39L321.62,149.15L322.18,155.23L322.74,154.32L323.3,145.68L324.97,147.85L325.53,150.42L326.08,156.67L326.64,155.85L327.2,148.33L327.76,148.92L328.31,148.24L330.54,157.25L331.1,155.42L331.66,155.11L332.21,145.14L333.33,155.33L333.89,158.49L334.44,158.07L335,155.43L335.56,155.59L336.12,143.73L336.67,143.79L337.23,95.91L337.79,157.79L338.35,157.73L338.9,154.47L339.46,145.27L340.02,149.37L341.69,157.96L342.25,157.69L343.92,150.95L344.48,153.03L345.59,157.8L346.15,156.53L346.71,150.85L347.26,152.77L347.82,154.88L348.38,152.78L348.94,154.78L350.05,158.95L350.61,158.76L351.17,158.22L351.72,154.55L352.28,155.05L352.84,157.47L353.4,159.38L353.95,157.71L355.63,153.61L356.18,155.53L356.74,156.33L357.3,160.27L358.97,153.53L359.53,155.37L360.64,157.34L361.2,159.41L361.76,160.22L362.31,159.53L362.87,153.97L363.43,155.61L363.99,155.74L364.54,156.72L365.1,159.67L365.66,159.01L366.22,156.38L367.33,154.38L367.89,154.88L369.56,161.23L370.12,159.18L370.68,155.68L371.23,156.59L371.79,156.08L373.46,160.48L374.02,156.04L375.69,156.87L376.25,158.25L376.81,160.8L377.36,160.29L377.92,157.19L379.04,156.31L379.59,157.01L380.71,160.18L381.27,159.47L382.38,157.27L382.94,158.01L383.5,158.91L384.05,161.26L384.61,161.83L385.17,161.21L386.28,159.98L386.84,160.73L387.4,160.36L387.96,161.42L388.51,161.91L389.07,161.28L390.19,160.97L390.74,160.67L391.86,160.73L392.41,160.04L394.64,155.94L395.2,157.24L396.32,161.73L396.87,156.46L398.55,143.53L399.1,128.84L400.22,146.83L400.78,144.55L401.33,123.51L403.01,103.27L403.56,136.72L404.12,144.9L404.68,122.91L405.79,58.11L406.35,71.89L406.91,71.07L407.46,74.39L408.58,115.83L409.14,55.57L410.81,23.21L411.37,52.74L412.48,107.67L413.04,71.1L413.6,63.24L414.15,9.12L415.83,129.61L416.38,125.46L416.94,67.77L417.5,66.74L418.06,75.71L418.61,75.1L419.17,90.52L419.73,131.34L420.29,130.94L420.84,95.73L421.4,86.47L421.96,98.45L422.51,92.03L423.07,106.47L424.19,141.15L424.74,107.34L425.3,92.43L425.86,111.4L426.42,114.33L426.97,125.32L428.09,152.12L428.65,150.78L429.2,147.91L429.76,130.51L430.32,124.52L430.88,129.13L431.43,154.28L431.99,151.3L432.55,122.86L433.11,138.21L433.66,130.01L434.78,137.13L435.34,155.31L435.89,153.86L436.45,136.12L437.56,139.14L438.12,134.89L439.79,156.13L440.35,140.47L440.91,137.71L441.47,142.79L442.58,147L443.14,157L443.7,158.47L444.25,146.89L444.81,144.82L445.37,146.08L446.48,153.57L447.04,158.84L447.6,155.97L448.16,148.3L449.27,148.66L449.83,146.53L450.94,158.84L451.5,158.45L452.06,150.73L452.61,148.44L453.17,150.34L454.84,161.33L455.4,158.16L455.96,155.14L456.52,143.04L457.63,158.38L458.19,158.89L458.75,160.74L459.3,159.24L459.86,150.85L460.42,151.49L460.98,152.04L462.65,159.34L463.21,159.22L463.76,151.23L464.32,151.96L464.88,151.1L465.44,152.14L465.99,154.87L466.55,159.48L467.11,157.5L468.22,150.18L468.78,151.28L469.34,149L469.89,153.41L470.45,159.33L471.01,155.47L472.12,162.69L472.68,162.69L473.24,130.33L473.8,162.69L474.35,147.29L474.91,155.86L475.47,145.14L476.03,155L477.14,140.96L477.7,149.73L478.26,158.31L478.81,149.81L479.37,140.56L479.93,140.78L480.49,140.62L481.04,143.34L481.6,162.69L482.16,162.69L482.71,131.87L483.27,124.7L483.83,136.16L484.39,138.59L484.94,132.48L486.06,156.42L486.62,141.21L487.17,138.92L487.73,125.1L488.85,162.69L489.4,162.69L489.96,162.69L490.52,86.38L491.08,128.27L491.63,124.24L492.19,124.16L492.75,130.4L493.31,162.69L493.86,162.69L494.42,105.39L494.98,121.71L495.54,162.69L496.09,81.9L496.65,122.02L497.76,152.76L498.32,138.36L499.44,121.42L499.99,124.16L500.55,124.66L501.11,139.34L501.67,150.95L502.22,139.14L503.34,124.07L503.9,127.73L504.45,104.95L505.01,141.22L505.57,156.89L506.13,142L506.68,131.67L507.24,132.49L507.8,135.19L508.36,136.06L508.91,162.69L509.47,143.53L510.03,146.32L510.59,142.42L511.7,138.84L512.26,140.38L513.37,151.83L513.93,150.89L514.49,144.26L515.04,144.71L515.6,141.07L517.27,158.84L517.83,153.38L518.39,146.53L518.95,162.69L519.5,131.36L520.06,150.1L521.18,162.69L521.73,146.59L522.85,150.97L523.41,150.84L523.96,152.6L524.52,162.69L525.08,162.69L525.64,151.66L526.19,162.69L526.75,138.77L528.42,162.69L528.98,162.69L529.54,147.56L530.09,153.7L530.65,154.22L531.21,162.69L531.77,148.63L532.32,162.69L532.88,162.69L533.44,151.25L534.55,162.69L535.11,162.69L535.67,141.73L536.23,162.69L536.78,162.69L537.34,153.48L537.9,157.12L538.46,154.92L540.13,162.69L540.69,162.69L541.24,150.22L541.8,162.77L542.36,162.69L542.91,149.52L544.03,162.69L544.59,162.69L545.14,155.28L545.7,162.69L546.26,154.19L546.82,162.69L547.37,152.89L547.93,162.69L548.49,162.69L549.05,156.27L549.6,162.69L550.16,154.94L551.83,162.69L552.39,162.69L552.95,153.62L553.51,158.76L554.06,162.69L554.62,158.24L555.18,159.16L555.74,162.69L557.41,162.69L557.96,149.4L558.52,162.69L559.08,157.8L560.19,162.69L560.75,160.91L561.31,154.38L561.87,158.55L562.42,158.32L562.98,162.69L564.1,162.69L564.65,155.48L565.77,162.69L566.33,157.73L567.44,162.69L568,162.69L568.56,159.25L569.11,162.69L569.67,162.69L570.23,144.46L571.9,162.69L572.46,162.69L573.01,162.69L573.57,146.72L574.13,145.06L574.69,147.48L575.8,162.69L576.36,162.69L576.92,134.53L577.47,146.71L578.03,150.28L578.59,139.02L579.7,162.69L580.26,162.69L580.82,120.93L581.38,162.69L581.93,122.83L582.49,143.76L583.61,162.69L584.16,131.33L585.28,162.69L585.84,90.21L586.95,162.69L587.51,162.69L588.06,102.76L588.62,134.27L589.18,133.55L589.74,131.45L590.29,130.77L590.85,162.69L591.41,162.69L591.97,122.29L593.08,139.87L593.64,136.81L594.75,162.69L595.31,162.69L595.87,110.52L596.43,143.49L596.98,142.14L597.54,142.53L598.1,147.25L599.21,162.69L599.77,146.07L600.33,162.69L600.89,130.19L601.44,162.69L602,133.77" style="vector-effect: non-scaling-stroke; fill: none; stroke: rgb(31, 119, 180); stroke-opacity: 1; stroke-width: 2px; opacity: 1;"/></g><g class="points"/><g class="text"/></g></g></g><g class="overplot"/><path class="xlines-above crisp" style="fill: none;" d="M0,0"/><path class="ylines-above crisp" style="fill: none;" d="M0,0"/><g class="overlines-above"/><g class="xaxislayer-above"><g class="xtick"><text text-anchor="middle" x="0" y="255.4" transform="translate(147.74,0)" style="font-family: 'Open Sans', verdana, arial, sans-serif; font-size: 12px; fill: rgb(68, 68, 68); fill-opacity: 1; white-space: pre; opacity: 1;">Jul 2020</text></g><g class="xtick"><text text-anchor="middle" x="0" y="255.4" style="font-family: 'Open Sans', verdana, arial, sans-serif; font-size: 12px; fill: rgb(68, 68, 68); fill-opacity: 1; white-space: pre; opacity: 1;" transform="translate(250.31,0)">Jan 2021</text></g><g class="xtick"><text text-anchor="middle" x="0" y="255.4" style="font-family: 'Open Sans', verdana, arial, sans-serif; font-size: 12px; fill: rgb(68, 68, 68); fill-opacity: 1; white-space: pre; opacity: 1;" transform="translate(351.2,0)">Jul 2021</text></g><g class="xtick"><text text-anchor="middle" x="0" y="255.4" style="font-family: 'Open Sans', verdana, arial, sans-serif; font-size: 12px; fill: rgb(68, 68, 68); fill-opacity: 1; white-space: pre; opacity: 1;" transform="translate(453.76,0)">Jan 2022</text></g><g class="xtick"><text text-anchor="middle" x="0" y="255.4" style="font-family: 'Open Sans', verdana, arial, sans-serif; font-size: 12px; fill: rgb(68, 68, 68); fill-opacity: 1; white-space: pre; opacity: 1;" transform="translate(554.65,0)">Jul 2022</text></g><g class="xtick"><text text-anchor="middle" x="0" y="255.4" style="font-family: 'Open Sans', verdana, arial, sans-serif; font-size: 12px; fill: rgb(68, 68, 68); fill-opacity: 1; white-space: pre; opacity: 1;" transform="translate(657.21,0)">Jan 2023</text></g></g><g class="yaxislayer-above"><g class="ytick"><text text-anchor="end" x="57" y="4.199999999999999" transform="translate(0,222.69)" style="font-family: 'Open Sans', verdana, arial, sans-serif; font-size: 12px; fill: rgb(68, 68, 68); fill-opacity: 1; white-space: pre; opacity: 1;">0</text></g><g class="ytick"><text text-anchor="end" x="57" y="4.199999999999999" style="font-family: 'Open Sans', verdana, arial, sans-serif; font-size: 12px; fill: rgb(68, 68, 68); fill-opacity: 1; white-space: pre; opacity: 1;" transform="translate(0,169.20999999999998)">100k</text></g><g class="ytick"><text text-anchor="end" x="57" y="4.199999999999999" style="font-family: 'Open Sans', verdana, arial, sans-serif; font-size: 12px; fill: rgb(68, 68, 68); fill-opacity: 1; white-space: pre; opacity: 1;" transform="translate(0,115.72999999999999)">200k</text></g><g class="ytick"><text text-anchor="end" x="57" y="4.199999999999999" style="font-family: 'Open Sans', verdana, arial, sans-serif; font-size: 12px; fill: rgb(68, 68, 68); fill-opacity: 1; white-space: pre; opacity: 1;" transform="translate(0,62.25)">300k</text></g></g><g class="overaxes-above"/></g><g class="subplot x2y2"><g class="layer-subplot"><g class="shapelayer"/><g class="imagelayer"/></g><g class="gridlayer"><g class="x2"><path class="x2grid crisp" transform="translate(147.74,0)" d="M0,257.6v182.4" style="stroke: rgb(238, 238, 238); stroke-opacity: 1; stroke-width: 1px;"/><path class="x2grid crisp" transform="translate(250.31,0)" d="M0,257.6v182.4" style="stroke: rgb(238, 238, 238); stroke-opacity: 1; stroke-width: 1px;"/><path class="x2grid crisp" transform="translate(351.2,0)" d="M0,257.6v182.4" style="stroke: rgb(238, 238, 238); stroke-opacity: 1; stroke-width: 1px;"/><path class="x2grid crisp" transform="translate(453.76,0)" d="M0,257.6v182.4" style="stroke: rgb(238, 238, 238); stroke-opacity: 1; stroke-width: 1px;"/><path class="x2grid crisp" transform="translate(554.65,0)" d="M0,257.6v182.4" style="stroke: rgb(238, 238, 238); stroke-opacity: 1; stroke-width: 1px;"/><path class="x2grid crisp" transform="translate(657.21,0)" d="M0,257.6v182.4" style="stroke: rgb(238, 238, 238); stroke-opacity: 1; stroke-width: 1px;"/></g><g class="y2"><path class="y2grid crisp" transform="translate(0,388.92)" d="M58,0h602" style="stroke: rgb(238, 238, 238); stroke-opacity: 1; stroke-width: 1px;"/><path class="y2grid crisp" transform="translate(0,350.1)" d="M58,0h602" style="stroke: rgb(238, 238, 238); stroke-opacity: 1; stroke-width: 1px;"/><path class="y2grid crisp" transform="translate(0,311.28000000000003)" d="M58,0h602" style="stroke: rgb(238, 238, 238); stroke-opacity: 1; stroke-width: 1px;"/><path class="y2grid crisp" transform="translate(0,272.47)" d="M58,0h602" style="stroke: rgb(238, 238, 238); stroke-opacity: 1; stroke-width: 1px;"/></g></g><g class="zerolinelayer"><path class="y2zl zl crisp" transform="translate(0,427.74)" d="M58,0h602" style="stroke: rgb(68, 68, 68); stroke-opacity: 1; stroke-width: 1px;"/></g><path class="xlines-below"/><path class="ylines-below"/><g class="overlines-below"/><g class="xaxislayer-below"/><g class="yaxislayer-below"/><g class="overaxes-below"/><g class="plot" transform="translate(58,257.6)" clip-path="url(#clip2d1146x2y2plot)"><g class="scatterlayer mlayer"><g class="trace scatter trace2f34f9" style="stroke-miterlimit: 2; opacity: 1;"><g class="fills"/><g class="errorbars"/><g class="lines"><path class="js-line" d="M0,170.14L36.79,169.4L37.35,169.17L37.9,169.24L38.46,168.51L39.02,168.62L39.58,166.88L40.13,168.78L40.69,166.8L41.25,168.54L41.81,167.11L42.92,164.97L43.48,165.05L44.59,167.53L45.15,166.29L45.71,166.06L46.26,162.22L47.38,162.84L47.94,161.71L48.49,161.87L49.05,165.94L50.72,163.73L51.28,153.64L52.4,156.43L52.95,161.25L54.07,151.5L54.63,153.44L55.18,151L55.74,154.38L56.86,158.88L57.41,157.87L58.53,144.9L59.09,146.77L59.64,138.03L60.2,145.33L60.76,152.01L61.31,149.56L61.87,138.77L62.43,139.9L62.99,140.67L63.54,132.75L64.1,142.96L64.66,152.43L65.22,141.6L65.77,126.27L66.33,128.37L66.89,128.64L67.45,130.11L68,129.53L68.56,144.59L69.12,141.92L69.68,129.22L70.23,128.95L70.79,123.94L71.35,126L71.91,136.6L72.46,151.85L73.02,141.37L73.58,117.15L74.14,123.79L74.69,111.52L76.36,151.66L76.92,136.64L78.04,122.08L78.59,120.91L79.15,137.41L79.71,136.87L80.27,145.53L80.82,140.48L81.38,118.43L81.94,124.14L82.5,122.04L83.05,124.64L83.61,132.02L84.17,147.51L84.73,140.56L85.28,115.56L85.84,127.28L86.4,124.33L86.96,131.59L87.51,130.11L88.07,147.08L88.63,142.11L89.19,119.01L89.74,127.98L90.3,121.26L90.86,123.05L91.41,128.99L91.97,148.48L92.53,143.55L93.09,119.67L93.64,124.6L94.2,122.7L94.76,119.75L95.32,133.96L95.87,146.19L96.43,137.72L96.99,119.91L97.55,120.45L98.1,119.71L99.78,142.65L100.33,140.32L100.89,119.01L101.45,119.83L102.01,119.17L103.12,127.48L103.68,147.58L104.24,143.55L104.79,121.3L105.91,123.48L106.46,120.95L107.58,149.8L108.14,146.77L108.69,117.42L109.25,117.11L109.81,122.55L110.92,138.03L111.48,148.05L112.6,123.79L113.15,124.18L113.71,121.92L115.38,147.35L115.94,139.24L116.5,117.65L117.06,124.99L117.61,122.12L118.17,129.34L119.29,152.47L119.84,142.07L120.4,123.44L120.96,128.25L121.51,131.9L122.07,137.18L122.63,135.32L123.19,154.57L123.74,145.02L124.86,123.4L125.42,136.48L125.97,137.18L126.53,146.69L127.65,157.71L128.2,149.76L128.76,125.22L129.32,132.33L129.88,137.22L130.43,140.36L130.99,154.41L131.55,152.36L132.11,128.14L134.34,143.7L134.89,156.51L135.45,152.05L136.01,139.31L136.56,133.96L137.12,139.28L137.68,138.23L138.24,142.11L138.79,156.98L139.35,154.96L139.91,136.83L140.47,132.02L141.02,140.13L142.7,156.24L143.25,154.88L143.81,138.69L146.04,149.41L146.6,159.34L147.16,162.61L147.71,155.46L148.83,138.54L149.39,145.18L150.5,161.01L151.06,157.48L151.61,144.98L152.17,147.97L152.73,150.53L153.29,148.28L153.84,155.11L154.4,161.09L154.96,158.41L155.52,149.72L156.07,150.57L156.63,148.75L157.19,147.89L157.75,158.8L158.86,163.73L159.42,158.96L159.98,146.15L160.53,146.73L161.09,159.62L162.76,162.92L163.32,162.45L164.44,133.92L164.99,147.78L165.55,141.64L166.11,164.7L166.66,160.16L167.22,143.82L167.78,140.87L168.34,144.9L170.01,163.23L170.57,156.36L171.12,145.8L171.68,145.95L172.24,142.58L173.91,161.09L174.47,156.51L175.03,143.55L175.58,143.78L176.14,140.6L177.26,145.02L177.81,156.94L178.37,153.64L178.93,139.16L179.49,137.02L180.04,140.28L180.6,144.48L181.16,143.86L181.71,158.68L183.39,133.61L183.94,128.95L185.62,153.87L186.17,148.36L186.73,132.52L187.29,132.68L187.85,140.63L188.96,158.65L189.52,157.05L190.08,149.25L190.63,129.34L191.19,122.89L191.75,130.7L192.86,158.76L193.42,158.06L195.65,111.21L196.21,128.17L196.76,130.97L197.32,151.12L197.88,151.08L198.44,126.47L198.99,121.07L199.55,125.34L200.11,126.08L200.67,130.77L201.78,151.66L202.34,125.11L202.9,115.99L203.45,117.85L204.01,128.56L204.57,125.69L205.13,147.04L205.68,143.35L206.24,125.3L207.36,114.32L207.91,127.94L208.47,123.87L209.03,148.09L209.59,145.95L210.14,121.19L210.7,123.59L211.26,120.6L211.81,121.57L212.37,133.76L212.93,151.15L213.49,142.15L214.6,117.3L215.16,114.16L217.39,146.42L217.95,127.75L218.5,123.98L219.06,114.28L219.62,118.47L220.18,130.11L220.73,146.61L221.29,142.54L221.85,117.38L222.96,109L223.52,118L224.08,121.54L224.64,140.13L225.19,137.99L225.75,103.33L226.31,98.4L226.86,99.95L227.42,103.6L228.54,127.51L229.09,126.58L229.65,94.4L230.21,77.71L230.77,84.93L231.88,94.21L232.44,128.6L233,118.35L233.55,59.51L234.11,66.84L234.67,64.4L235.23,67.04L235.78,78.22L236.34,121.73L236.9,107.91L237.46,47.98L238.01,80.2L238.57,67.11L239.13,33.89L239.69,37.81L240.24,108.73L240.8,92L241.36,28.26L241.91,17.78L242.47,28.26L244.14,121.92L244.7,95.92L245.26,12.23L245.82,27.64L246.37,9.12L246.93,24.49L247.49,77.83L248.6,103.72L249.16,24.3L249.72,36.41L250.28,34.62L250.83,40.6L251.39,58.46L251.95,111.06L252.51,101.97L253.06,40.21L253.62,46.04L254.18,90.52L254.74,52.05L255.29,62.77L255.85,118.35L256.41,116.57L256.96,50.54L257.52,53.22L258.08,52.44L258.64,59.08L260.31,126.47L260.87,54.5L263.1,89.32L263.65,134.35L264.21,127.01L264.77,82.99L265.33,69.95L265.88,81.75L267,92.46L267.56,128.95L268.11,128.02L268.67,74.99L269.79,72.66L270.34,87.61L272.01,136.67L272.57,85.36L273.13,74.53L273.69,88.58L274.24,75.96L274.8,94.79L275.36,134.7L275.92,132.64L276.47,79.54L277.03,72.78L277.59,95.84L278.15,123.9L278.7,105.31L279.26,135.98L279.82,125.53L280.38,67.35L280.93,77.28L281.49,72.9L282.61,93.51L283.16,126.66L283.72,130.54L284.28,65.91L284.84,65.25L285.39,80.31L285.95,74.02L286.51,84.54L287.62,132.06L288.18,88.5L288.74,82.21L289.29,91.03L289.85,92.19L290.41,111.25L291.52,142.42L292.08,94.91L292.64,90.02L293.2,95.14L293.75,97.31L294.31,106.63L294.87,140.21L295.43,139.51L295.98,101.86L296.54,108.61L297.1,103.1L298.21,125.18L298.77,148.2L299.33,139.78L299.89,105.74L300.44,110.51L301,107.68L302.11,120.8L302.67,151.46L303.23,144.21L303.79,116.61L304.9,114.59L305.46,120.02L306.02,128.17L306.57,151.54L307.13,145.87L307.69,120.1L308.25,116.84L308.8,118.08L310.48,154.03L311.03,149.02L311.59,122.12L312.15,128.52L312.71,126.43L313.26,132.91L313.82,131.36L314.38,155.04L314.94,150.42L315.49,120.91L317.16,135.51L317.72,134.73L318.28,155.04L318.84,154.07L319.39,127.67L321.07,135.43L321.62,146.42L322.18,157.21L322.74,153.95L323.3,136.79L323.85,135.7L324.41,136.33L324.97,138.38L325.53,145.72L326.08,159.34L326.64,157.79L327.2,135.94L327.76,143.08L328.31,139.78L328.87,141.41L329.43,145.37L330.54,161.6L331.1,157.44L331.66,160.47L332.21,138.15L334.44,159.11L335,143.82L335.56,139.04L336.12,144.4L337.23,147.39L337.79,160.51L338.35,159.85L338.9,144.01L339.46,144.32L340.02,145.72L340.58,143.74L341.13,149.17L342.25,162.61L342.81,138.42L344.48,151.12L345.04,152.51L346.15,162.22L346.71,143.58L347.82,153.52L348.38,145.68L349.49,164.27L350.05,162.1L350.61,163.34L351.17,162.14L351.72,147.93L352.84,152.09L353.4,165.17L355.63,152.05L356.18,152.78L356.74,156.55L357.3,165.52L358.97,153.25L359.53,155.66L360.09,154.3L360.64,161.75L361.76,166.14L362.31,164.24L362.87,162.76L363.43,153.29L364.54,158.37L365.1,167.42L366.77,159.69L367.33,160.82L367.89,146.03L368.45,158.22L369,167.61L369.56,167.42L370.12,164.58L370.68,155.5L371.23,159.58L372.35,162.1L372.91,166.41L373.46,165.24L374.02,158.68L374.58,159.62L375.14,158.96L375.69,158.3L376.25,161.32L376.81,167.03L377.36,165.56L377.92,157.48L379.04,162.53L379.59,161.05L380.71,167.38L381.27,165.01L381.82,160L382.38,160.82L382.94,162.37L383.5,161.29L384.05,168.08L384.61,166.95L385.17,168.39L385.73,165.75L386.28,158.57L386.84,165.36L387.4,162.45L388.51,168L389.07,166.91L389.63,167.38L390.19,164.47L390.74,165.24L391.3,163.81L391.86,168.93L392.41,168.35L392.97,167.61L393.53,163.11L394.09,165.59L394.64,164.16L395.2,166.84L396.32,168.82L396.87,167.34L397.43,163.11L397.99,170.14L398.55,170.14L399.1,163.61L399.66,165.67L400.22,157.95L400.78,165.67L401.33,164.66L401.89,164.93L403.01,161.09L403.56,163.54L404.12,166.49L404.68,164.27L405.24,157.52L405.79,157.64L406.35,156.51L406.91,154.65L407.46,157.87L408.02,163.19L408.58,159.81L410.25,144.01L410.81,139.86L411.37,142.96L411.92,159.27L414.15,131.32L414.71,132.72L415.27,137.92L415.83,153.87L416.38,153.37L416.94,124.64L417.5,119.56L418.06,134.54L418.61,126.31L419.17,136.02L419.73,157.44L420.29,151.58L420.84,134.23L422.51,124.18L423.07,136.95L424.19,157.48L424.74,138.42L425.86,131.75L426.42,139.35L426.97,143.43L427.53,160.31L428.65,160.59L429.2,157.25L430.32,143.04L430.88,143.2L431.99,161.98L432.55,151.27L433.11,145.56L433.66,146.34L434.22,152.16L434.78,154.96L435.34,165.28L437.56,152.2L438.12,154.41L439.79,166.25L440.35,154.22L440.91,159.23L441.47,157.95L442.02,160.24L443.7,167.5L444.25,159.23L445.93,160.7L446.48,166.02L447.04,168.62L447.6,163.92L448.16,161.75L448.71,162.61L449.27,160.51L450.94,168.66L451.5,167.69L452.06,163.73L452.61,163.81L453.17,164.74L453.73,165.83L454.29,168.93L454.84,169.28L455.4,167.65L456.52,159.93L457.07,166.56L458.19,168.08L458.75,168.74L459.86,164.55L460.42,160.74L460.98,165.71L461.53,162.95L462.65,169.51L463.21,166.8L463.76,166.56L464.32,167.65L465.44,162.57L465.99,168.78L466.55,169.63L467.11,168.12L467.66,162.45L468.22,165.24L469.34,164.78L469.89,166.56L470.45,168.35L471.01,167.57L472.12,170.14L472.68,170.14L473.24,150.49L473.8,170.21L474.35,164.93L474.91,168.7L475.47,160.9L476.03,165.01L476.58,173.28L477.14,164.74L478.26,167.73L478.81,167.69L479.37,163.92L479.93,165.28L480.49,165.13L481.04,168.54L482.16,170.14L482.71,167.42L483.27,158.22L483.83,158.53L484.39,164.58L484.94,163.54L485.5,165.71L486.06,168.74L486.62,167.42L487.73,156.98L488.29,170.14L489.96,170.14L490.52,151.97L491.63,164.7L492.19,155.97L492.75,157.17L493.31,170.14L493.86,170.14L494.42,158.37L494.98,157.87L495.54,170.14L496.09,148.09L496.65,159.11L497.76,168.08L498.32,165.4L498.88,154.76L499.44,156.12L499.99,159.15L500.55,159.81L501.11,161.79L501.67,167.96L502.22,164.39L503.34,155.39L503.9,158.61L504.45,158.06L505.01,162.18L505.57,168L506.13,163.61L506.68,156.43L507.24,156.7L507.8,159.69L508.36,159.27L508.91,170.14L510.59,156.51L511.14,158.1L512.81,163.42L513.37,169.05L514.49,158.68L515.04,159.85L515.6,160L516.16,161.52L516.72,163.11L517.27,167.92L518.39,155.97L518.95,170.14L519.5,151.7L520.06,160.55L521.18,170.14L521.73,158.34L522.29,162.14L522.85,160.55L523.96,164.62L524.52,170.14L525.08,170.14L525.64,162.72L526.19,170.14L526.75,149.68L527.31,164.04L527.86,163.77L528.42,170.14L528.98,170.14L529.54,161.4L530.09,161.25L530.65,165.71L531.21,170.14L531.77,158.61L532.88,170.14L533.44,163.81L534.55,170.14L535.11,170.14L535.67,155.07L536.23,170.14L536.78,170.14L537.34,166.84L538.46,165.52L539.01,166.95L540.13,170.14L540.69,170.14L541.24,161.56L541.8,169.98L542.36,170.14L542.91,160.47L544.03,170.14L544.59,170.14L545.14,166.84L545.7,170.14L546.26,166.56L546.82,170.14L547.37,165.9L547.93,170.14L548.49,170.14L549.05,157.13L549.6,170.14L550.16,162.29L551.83,170.14L552.39,170.14L552.95,163.5L553.51,166.8L554.06,170.14L554.62,166.02L556.29,170.14L556.85,170.14L557.41,170.14L557.96,159.31L558.52,170.14L559.08,166.1L560.19,170.14L560.75,168.31L561.87,162.49L562.42,168L563.54,170.14L564.1,170.14L564.65,162.57L565.21,167.73L565.77,170.14L566.33,168.27L566.88,167.61L567.44,170.14L568,170.14L568.56,167.69L569.67,170.14L570.23,161.91L571.34,170.14L571.9,170.14L573.01,170.14L573.57,165.94L575.8,170.14L576.36,170.14L576.92,160.51L577.47,165.59L578.03,167.42L578.59,166.25L579.7,170.14L580.26,170.14L580.82,161.48L581.38,170.14L581.93,159.27L582.49,165.13L583.61,170.14L584.16,164.12L585.28,170.14L585.84,152.75L586.95,170.14L587.51,170.14L588.06,157.02L588.62,163.81L589.18,159.62L589.74,162.26L590.29,164L590.85,170.14L591.41,170.14L591.97,161.17L592.52,160.86L593.08,163.11L593.64,162.72L594.2,170.14L595.31,170.14L595.87,157.83L596.43,161.21L596.98,156.04L598.66,170.14L599.21,170.14L599.77,165.17L600.33,170.14L600.89,153.44L601.44,170.14L602,155.85" style="vector-effect: non-scaling-stroke; fill: none; stroke: rgb(255, 0, 0); stroke-opacity: 1; stroke-width: 2px; opacity: 1;"/></g><g class="points"/><g class="text"/></g></g></g><g class="overplot"/><path class="xlines-above crisp" style="fill: none;" d="M0,0"/><path class="ylines-above crisp" style="fill: none;" d="M0,0"/><g class="overlines-above"/><g class="xaxislayer-above"><g class="x2tick"><text text-anchor="middle" x="0" y="453" transform="translate(147.74,0)" style="font-family: 'Open Sans', verdana, arial, sans-serif; font-size: 12px; fill: rgb(68, 68, 68); fill-opacity: 1; white-space: pre; opacity: 1;">Jul 2020</text></g><g class="x2tick"><text text-anchor="middle" x="0" y="453" style="font-family: 'Open Sans', verdana, arial, sans-serif; font-size: 12px; fill: rgb(68, 68, 68); fill-opacity: 1; white-space: pre; opacity: 1;" transform="translate(250.31,0)">Jan 2021</text></g><g class="x2tick"><text text-anchor="middle" x="0" y="453" style="font-family: 'Open Sans', verdana, arial, sans-serif; font-size: 12px; fill: rgb(68, 68, 68); fill-opacity: 1; white-space: pre; opacity: 1;" transform="translate(351.2,0)">Jul 2021</text></g><g class="x2tick"><text text-anchor="middle" x="0" y="453" style="font-family: 'Open Sans', verdana, arial, sans-serif; font-size: 12px; fill: rgb(68, 68, 68); fill-opacity: 1; white-space: pre; opacity: 1;" transform="translate(453.76,0)">Jan 2022</text></g><g class="x2tick"><text text-anchor="middle" x="0" y="453" style="font-family: 'Open Sans', verdana, arial, sans-serif; font-size: 12px; fill: rgb(68, 68, 68); fill-opacity: 1; white-space: pre; opacity: 1;" transform="translate(554.65,0)">Jul 2022</text></g><g class="x2tick"><text text-anchor="middle" x="0" y="453" style="font-family: 'Open Sans', verdana, arial, sans-serif; font-size: 12px; fill: rgb(68, 68, 68); fill-opacity: 1; white-space: pre; opacity: 1;" transform="translate(657.21,0)">Jan 2023</text></g></g><g class="yaxislayer-above"><g class="y2tick"><text text-anchor="end" x="57" y="4.199999999999999" transform="translate(0,427.74)" style="font-family: 'Open Sans', verdana, arial, sans-serif; font-size: 12px; fill: rgb(68, 68, 68); fill-opacity: 1; white-space: pre; opacity: 1;">0</text></g><g class="y2tick"><text text-anchor="end" x="57" y="4.199999999999999" style="font-family: 'Open Sans', verdana, arial, sans-serif; font-size: 12px; fill: rgb(68, 68, 68); fill-opacity: 1; white-space: pre; opacity: 1;" transform="translate(0,388.92)">1000</text></g><g class="y2tick"><text text-anchor="end" x="57" y="4.199999999999999" style="font-family: 'Open Sans', verdana, arial, sans-serif; font-size: 12px; fill: rgb(68, 68, 68); fill-opacity: 1; white-space: pre; opacity: 1;" transform="translate(0,350.1)">2000</text></g><g class="y2tick"><text text-anchor="end" x="57" y="4.199999999999999" style="font-family: 'Open Sans', verdana, arial, sans-serif; font-size: 12px; fill: rgb(68, 68, 68); fill-opacity: 1; white-space: pre; opacity: 1;" transform="translate(0,311.28000000000003)">3000</text></g><g class="y2tick"><text text-anchor="end" x="57" y="4.199999999999999" style="font-family: 'Open Sans', verdana, arial, sans-serif; font-size: 12px; fill: rgb(68, 68, 68); fill-opacity: 1; white-space: pre; opacity: 1;" transform="translate(0,272.47)">4000</text></g></g><g class="overaxes-above"/></g></g><g class="polarlayer"/><g class="ternarylayer"/><g class="geolayer"/><g class="funnelarealayer"/><g class="pielayer"/><g class="iciclelayer"/><g class="treemaplayer"/><g class="sunburstlayer"/><g class="glimages"/><defs id="topdefs-2d1146"><g class="clips"/><clipPath id="legend2d1146"><rect width="108" height="48" x="0" y="0"/></clipPath></defs><g class="layer-above"><g class="imagelayer"/><g class="shapelayer"/></g><g class="infolayer"><g class="legend" pointer-events="all" transform="translate(88.1,60)"><rect class="bg" shape-rendering="crispEdges" style="stroke: rgb(68, 68, 68); stroke-opacity: 1; fill: rgb(255, 255, 255); fill-opacity: 1; stroke-width: 0px;" width="108" height="48" x="0" y="0"/><g class="scrollbox" transform="" clip-path="url(#legend2d1146)"><g class="groups"><g class="traces" style="opacity: 1;" transform="translate(0,14.5)"><text class="legendtext" text-anchor="start" x="40" y="4.680000000000001" style="font-family: 'Open Sans', verdana, arial, sans-serif; font-size: 12px; fill: rgb(68, 68, 68); fill-opacity: 1; white-space: pre;">Confirmed</text><g class="layers" style="opacity: 1;"><g class="legendfill"/><g class="legendlines"><path class="js-line" d="M5,0h30" style="fill: none; stroke: rgb(31, 119, 180); stroke-opacity: 1; stroke-width: 2px;"/></g><g class="legendsymbols"><g class="legendpoints"/></g></g><rect class="legendtoggle" x="0" y="-9.5" width="102.1875" height="19" style="fill: rgb(0, 0, 0); fill-opacity: 0;"/></g><g class="traces" style="opacity: 1;" transform="translate(0,33.5)"><text class="legendtext" text-anchor="start" x="40" y="4.680000000000001" style="font-family: 'Open Sans', verdana, arial, sans-serif; font-size: 12px; fill: rgb(68, 68, 68); fill-opacity: 1; white-space: pre;">Death</text><g class="layers" style="opacity: 1;"><g class="legendfill"/><g class="legendlines"><path class="js-line" d="M5,0h30" style="fill: none; stroke: rgb(255, 0, 0); stroke-opacity: 1; stroke-width: 2px;"/></g><g class="legendsymbols"><g class="legendpoints"/></g></g><rect class="legendtoggle" x="0" y="-9.5" width="102.1875" height="19" style="fill: rgb(0, 0, 0); fill-opacity: 0;"/></g></g></g><rect class="scrollbar" rx="20" ry="3" width="0" height="0" style="fill: rgb(128, 139, 164); fill-opacity: 1;" x="0" y="0"/></g><g class="g-gtitle"><text class="gtitle" x="350" y="30" text-anchor="middle" dy="0em" style="font-family: 'Open Sans', verdana, arial, sans-serif; font-size: 17px; fill: rgb(68, 68, 68); opacity: 1; font-weight: normal; white-space: pre;">Brazil - Daily Confirmed and Death Cases</text></g><g class="g-xtitle"/><g class="g-x2title"><text class="x2title" x="359" y="492" text-anchor="middle" style="font-family: 'Open Sans', verdana, arial, sans-serif; font-size: 14px; fill: rgb(68, 68, 68); opacity: 1; font-weight: normal; white-space: pre;">Source: Johns Hopkins University Center for Systems Science and Engineering</text></g><g class="g-ytitle"><text class="ytitle" transform="rotate(-90,20,151.2)" x="20" y="151.2" text-anchor="middle" style="font-family: 'Open Sans', verdana, arial, sans-serif; font-size: 14px; fill: rgb(68, 68, 68); opacity: 1; font-weight: normal; white-space: pre;">Cases</text></g><g class="g-y2title"><text class="y2title" transform="rotate(-90,20,348.8)" x="20" y="348.8" text-anchor="middle" style="font-family: 'Open Sans', verdana, arial, sans-serif; font-size: 14px; fill: rgb(68, 68, 68); opacity: 1; font-weight: normal; white-space: pre;">Cases</text></g></g></svg>