<svg class="main-svg" xmlns="http://www.w3.org/2000/svg" xmlns:xlink="http://www.w3.org/1999/xlink" width="700" height="500" style="" viewBox="0 0 700 500"><rect x="0" y="0" width="700" height="500" style="fill: rgb(255, 255, 255); fill-opacity: 1;"/><defs id="defs-911821"><g class="clips"><clipPath id="clip911821xyplot" class="plotclip"><rect width="602" height="182.4"/></clipPath><clipPath id="clip911821x2y2plot" class="plotclip"><rect width="602" height="182.4"/></clipPath><clipPath class="axesclip" id="clip911821x"><rect x="58" y="0" width="602" height="500"/></clipPath><clipPath class="axesclip" id="clip911821y"><rect x="0" y="60" width="700" height="182.4"/></clipPath><clipPath class="axesclip" id="clip911821xy"><rect x="58" y="60" width="602" height="182.4"/></clipPath><clipPath class="axesclip" id="clip911821y2"><rect x="0" y="257.6" width="700" height="182.4"/></clipPath><clipPath class="axesclip" id="clip911821xy2"><rect x="58" y="257.6" width="602" height="182.4"/></clipPath><clipPath class="axesclip" id="clip911821x2"><rect x="58" y="0" width="602" height="500"/></clipPath><clipPath class="axesclip" id="clip911821x2y"><rect x="58" y="60" width="602" height="182.4"/></clipPath><clipPath class="axesclip" id="clip911821x2y2"><rect x="58" y="257.6" width="602" height="182.4"/></clipPath></g><g class="gradients"/></defs><g class="bglayer"/><g class="layer-below"><g class="imagelayer"/><g class="shapelayer"/></g><g class="cartesianlayer"><g class="subplot xy"><g class="layer-subplot"><g class="shapelayer"/><g class="imagelayer"/></g><g class="gridlayer"><g class="x"><path class="xgrid crisp" transform="translate(125.97,0)" d="M0,60v182.4" style="stroke: rgb(238, 238, 238); stroke-opacity: 1; stroke-width: 1px;"/><path class="xgrid crisp" transform="translate(214.33,0)" d="M0,60v182.4" style="stroke: rgb(238, 238, 238); stroke-opacity: 1; stroke-width: 1px;"/><path class="xgrid crisp" transform="translate(303.65,0)" d="M0,60v182.4" style="stroke: rgb(238, 238, 238); stroke-opacity: 1; stroke-width: 1px;"/><path class="xgrid crisp" transform="translate(392.98,0)" d="M0,60v182.4" style="stroke: rgb(238, 238, 238); stroke-opacity: 1; stroke-width: 1px;"/><path class="xgrid crisp" transform="translate(480.37,0)" d="M0,60v182.4" style="stroke: rgb(238, 238, 238); stroke-opacity: 1; stroke-width: 1px;"/><path class="xgrid crisp" transform="translate(568.73,0)" d="M0,60v182.4" style="stroke: rgb(238, 238, 238); stroke-opacity: 1; stroke-width: 1px;"/><path class="xgrid crisp" transform="translate(658.06,0)" d="M0,60v182.4" style="stroke: rgb(238, 238, 238); stroke-opacity: 1; stroke-width: 1px;"/></g><g class="y"><path class="ygrid crisp" transform="translate(0,178.18)" d="M58,0h602" style="stroke: rgb(238, 238, 238); stroke-opacity: 1; stroke-width: 1px;"/><path class="ygrid crisp" transform="translate(0,123.71000000000001)" d="M58,0h602" style="stroke: rgb(238, 238, 238); stroke-opacity: 1; stroke-width: 1px;"/><path class="ygrid crisp" transform="translate(0,69.24)" d="M58,0h602" style="stroke: rgb(238, 238, 238); stroke-opacity: 1; stroke-width: 1px;"/></g></g><g class="zerolinelayer"><path class="yzl zl crisp" transform="translate(0,232.66)" d="M58,0h602" style="stroke: rgb(68, 68, 68); stroke-opacity: 1; stroke-width: 1px;"/></g><path class="xlines-below"/><path class="ylines-below"/><g class="overlines-below"/><g class="xaxislayer-below"/><g class="yaxislayer-below"/><g class="overaxes-below"/><g class="plot" transform="translate(58, 60)" clip-path="url('#clip911821xyplot')"><g class="scatterlayer mlayer"><g class="trace scatter trace96d60c" style="stroke-miterlimit: 2; opacity: 1;"><g class="fills"/><g class="errorbars"/><g class="lines"><path class="js-line" d="M0,172.66L66.03,172.3L67,171.42L72.82,171.53L73.79,170.62L75.74,170.56L76.71,170.97L77.68,171.47L78.65,171.06L79.62,171.31L80.59,170.66L81.56,169.32L82.53,170.36L83.5,169.11L84.47,169.41L85.45,170.48L86.42,170.38L88.36,169.74L89.33,167.99L90.3,168.29L91.27,166.9L92.24,168.54L93.21,167.92L96.13,164.48L97.1,167.19L99.04,167.51L100.01,165.25L100.98,165.21L101.95,160.5L102.92,162.67L103.89,160.54L105.84,165.42L106.81,165.14L107.78,163.26L108.75,159.67L109.72,158.46L110.69,154L112.63,164.41L113.6,157.09L115.55,151.2L116.52,152.49L117.49,149.99L118.46,154.67L119.43,155.43L120.4,159.92L123.31,143.88L124.28,143.32L125.25,136.4L126.23,154.78L127.2,160.02L128.17,141.13L129.14,141.46L130.11,138.96L131.08,139.07L132.05,143.16L133.99,155.6L134.96,137.69L135.94,136.8L136.91,139.52L139.82,154.01L140.79,150.16L141.76,134.61L142.73,137.59L143.7,147.85L144.67,112.98L146.62,155.48L147.59,147.46L148.56,129.69L149.53,126.11L150.5,129.64L151.47,121.6L154.38,146.45L155.35,135.78L156.33,121.76L157.3,120.25L159.24,131.34L160.21,144.27L161.18,150.62L162.15,123.3L163.12,124.1L164.09,126.22L165.06,123.58L166.04,130.14L167.98,150.55L168.95,127.05L169.92,129.16L170.89,123.19L172.83,141.57L173.8,147.02L174.77,150.59L175.75,127.98L176.72,98.72L177.69,107.33L179.63,116.93L180.6,145.88L181.57,147.29L182.54,128.19L183.51,97.4L184.48,109.64L186.43,123.2L187.4,144.55L188.37,154.53L189.34,116.44L190.31,110.39L191.28,114.76L192.25,117.93L193.22,118.22L194.19,147.59L195.16,148.64L196.14,115.83L197.11,112.57L198.08,107.19L199.05,117.48L200.02,127.36L200.99,147.49L201.96,151.55L202.93,120.6L203.9,118.95L204.87,123.28L205.85,139.58L206.82,118.15L208.76,154.05L209.73,121.3L210.7,121.28L211.67,124.46L212.64,125.36L213.61,127.61L214.58,155.05L215.55,122.58L216.53,126.18L217.5,121.52L218.47,124.97L219.44,118L221.38,156.84L222.35,161.46L223.32,157.1L224.29,133.64L226.24,125.03L227.21,136.13L228.18,156.57L229.15,156.14L230.12,132.72L231.09,132.54L232.06,133.1L233.03,129.3L234,136.64L234.97,154.8L235.95,158.04L236.92,136.35L237.89,172.66L238.86,100.38L239.83,137.89L240.8,141.74L241.77,157.06L242.74,158.32L243.71,137.73L244.68,136.25L245.65,133.26L246.63,172.66L247.6,107.57L248.57,163.44L249.54,159.64L250.51,127L252.45,142.42L253.42,142.76L254.39,143.51L255.36,159.21L256.34,163.47L257.31,161.52L258.28,142.98L259.25,141.58L260.22,138.98L261.19,146.44L262.16,172.66L263.13,143.93L264.1,147.35L265.07,145.62L266.05,145.57L267.02,139.94L267.99,143.26L268.96,157.96L269.93,155.52L270.9,140.2L271.87,141.47L272.84,144.21L274.78,152.01L275.75,161.65L276.73,163.39L277.7,159.75L278.67,146.53L279.64,172.66L280.61,127.82L281.58,148.27L282.55,161.16L283.52,160.76L284.49,146.54L285.46,119.65L287.41,140.98L288.38,130.92L289.35,157.26L290.32,158.09L291.29,134.2L292.26,135.51L294.2,130.82L295.17,137.12L296.15,152.38L297.12,155L299.06,120.47L300.03,131.68L301,135.47L301.97,116.09L302.94,146L303.91,149.63L304.88,117.19L305.85,118.33L306.83,117.71L307.8,121.58L308.77,125.58L309.74,143.93L310.71,150.46L311.68,117L312.65,114.42L313.62,114.54L314.59,113.36L315.56,124.83L316.54,148.88L317.51,145.21L319.45,95.77L320.42,96.58L321.39,115.41L322.36,117.99L323.33,144.93L324.3,145.4L325.27,112.51L326.25,121.78L327.22,109L328.19,145.84L329.16,153.87L330.13,152.52L331.1,150.27L332.07,108.68L333.04,112.03L334.01,110.8L335.95,155.41L336.93,153.76L337.9,150.86L338.87,110.94L339.84,103.55L340.81,76.95L341.78,115.97L342.75,104.79L343.72,140.2L344.69,144.52L345.66,102.9L346.64,106.31L347.61,98.84L348.58,97.27L349.55,105.58L350.52,136.66L351.49,146.87L352.46,105.01L353.43,102.51L354.4,108.25L355.37,111.04L356.35,104.74L357.32,141.8L358.29,143.44L359.26,105.15L360.23,103.45L363.14,108.96L364.11,142.42L365.08,145.86L366.05,113.72L368,110.69L368.97,117.23L369.94,172.66L370.91,88.25L371.88,172.66L372.85,91.03L374.79,113.02L375.76,116.5L376.74,124.39L377.71,145.68L378.68,137.58L379.65,112.44L380.62,110.81L381.59,116.14L383.53,112.8L384.5,141.03L385.47,143.26L386.45,104.33L387.42,100.11L388.39,100.75L389.36,101.66L390.33,105.54L391.3,135.58L392.27,133.72L394.21,94.54L395.18,90.83L396.15,90.41L397.13,96.82L398.1,84.94L399.07,137.44L401.01,85.63L401.98,90.5L402.95,79.33L403.92,89.66L405.86,133.17L406.84,81.22L407.81,74.27L408.78,77.89L409.75,73.98L410.72,86.51L411.69,120.61L412.66,118.95L413.63,82.78L414.6,74.61L415.57,63.54L416.55,80.87L417.52,79.02L418.49,124.36L419.46,130.25L420.43,80.6L421.4,73.91L422.37,73.41L425.28,138.49L426.25,141.45L427.23,77.89L428.2,71.74L429.17,78.25L430.14,70.99L432.08,132.33L433.05,133.67L434.02,83.12L434.99,92.57L435.96,92.93L436.94,79.21L439.85,139.29L440.82,97.07L441.79,85.8L442.76,123.44L443.73,97.37L444.7,95.15L445.67,137.17L446.65,141.46L447.62,94.06L448.59,85.8L449.56,97.06L450.53,98.21L451.5,99.7L452.47,141.13L453.44,145.83L454.41,88.38L455.38,92.8L456.35,92.71L457.33,86.71L458.3,103.55L460.24,145.2L461.21,93.44L462.18,89.1L463.15,91.39L464.12,79.47L465.09,99.65L467.04,139.81L468.01,90.46L469.95,83.28L470.92,88.92L471.89,89.32L472.86,133.63L473.83,131.8L474.8,92.63L475.77,84.97L476.75,99.15L477.72,118.44L478.69,85.86L480.63,139.5L481.6,86.67L482.57,68.5L483.54,81.8L484.51,131.33L485.48,100.73L486.45,129.47L487.43,132.18L488.4,115.01L489.37,79.24L490.34,76.68L491.31,79.89L492.28,86.91L493.25,131.31L494.22,129.24L495.19,84.83L496.16,68.76L497.14,91.99L498.11,64.98L499.08,83.01L500.05,124.53L501.02,130.27L502.96,47.12L503.93,92.47L504.9,86.29L505.87,102.78L506.85,135.94L507.82,142.36L508.79,101.95L509.76,124.9L510.73,101.66L511.7,101.66L512.67,113.22L513.64,142.39L514.61,147.92L515.58,104.56L516.55,113.8L517.53,114.12L518.5,109.75L519.47,119.81L520.44,149.85L521.41,154.1L523.35,109.75L524.32,115.14L526.26,135.24L527.24,135.48L528.21,156.02L529.18,142.6L530.15,113.26L531.12,118.45L532.09,54.2L533.06,131.16L534.03,152.9L535,151.96L536.95,120.35L537.92,126.59L538.89,128.09L539.86,131.71L541.8,156.16L542.77,137.45L543.74,128.3L544.71,129.02L546.65,125.77L547.63,157.52L548.6,159.49L549.57,134.65L550.54,137.31L551.51,129.1L553.45,138.73L554.42,157.45L555.39,156.89L556.36,131.68L557.34,127.21L558.31,133.09L559.28,135.74L560.25,141.73L561.22,156.96L562.19,158.38L563.16,139.02L564.13,139.24L565.1,138.86L566.07,142.86L567.05,145.75L568.02,158.26L568.99,161.25L569.96,145.87L570.93,142.86L571.9,144.02L572.87,144.8L573.84,148.9L575.78,162.68L576.75,157.07L577.73,157.65L578.7,139L579.67,155.28L580.64,157.06L582.58,165.42L583.55,158.05L584.52,156.55L585.49,135.17L586.46,160.45L587.44,9.12L588.41,162.35L589.38,164.07L590.35,173.28L591.32,132.92L593.26,151.48L594.23,155.56L595.2,163.21L596.17,156.94L597.15,155.88L598.12,153.31L599.09,142.67L600.06,152.42L602,162.85" style="vector-effect: non-scaling-stroke; fill: none; stroke: rgb(31, 119, 180); stroke-opacity: 1; stroke-width: 2px; opacity: 1;"/></g><g class="points"/><g class="text"/></g></g></g><g class="overplot"/><path class="xlines-above crisp" style="fill: none;" d="M0,0"/><path class="ylines-above crisp" style="fill: none;" d="M0,0"/><g class="overlines-above"/><g class="xaxislayer-above"><g class="xtick"><text text-anchor="middle" x="0" y="255.4" transform="translate(125.97,0)" style="font-family: 'Open Sans', verdana, arial, sans-serif; font-size: 12px; fill: rgb(68, 68, 68); fill-opacity: 1; white-space: pre;">Apr 2020</text></g><g class="xtick"><text text-anchor="middle" x="0" y="255.4" transform="translate(214.33,0)" style="font-family: 'Open Sans', verdana, arial, sans-serif; font-size: 12px; fill: rgb(68, 68, 68); fill-opacity: 1; white-space: pre;">Jul 2020</text></g><g class="xtick"><text text-anchor="middle" x="0" y="255.4" transform="translate(303.65,0)" style="font-family: 'Open Sans', verdana, arial, sans-serif; font-size: 12px; fill: rgb(68, 68, 68); fill-opacity: 1; white-space: pre;">Oct 2020</text></g><g class="xtick"><text text-anchor="middle" x="0" y="255.4" transform="translate(392.98,0)" style="font-family: 'Open Sans', verdana, arial, sans-serif; font-size: 12px; fill: rgb(68, 68, 68); fill-opacity: 1; white-space: pre;">Jan 2021</text></g><g class="xtick"><text text-anchor="middle" x="0" y="255.4" transform="translate(480.37,0)" style="font-family: 'Open Sans', verdana, arial, sans-serif; font-size: 12px; fill: rgb(68, 68, 68); fill-opacity: 1; white-space: pre;">Apr 2021</text></g><g class="xtick"><text text-anchor="middle" x="0" y="255.4" transform="translate(568.73,0)" style="font-family: 'Open Sans', verdana, arial, sans-serif; font-size: 12px; fill: rgb(68, 68, 68); fill-opacity: 1; white-space: pre;">Jul 2021</text></g><g class="xtick"><text text-anchor="middle" x="0" y="255.4" transform="translate(658.06,0)" style="font-family: 'Open Sans', verdana, arial, sans-serif; font-size: 12px; fill: rgb(68, 68, 68); fill-opacity: 1; white-space: pre;">Oct 2021</text></g></g><g class="yaxislayer-above"><g class="ytick"><text text-anchor="end" x="57" y="4.199999999999999" transform="translate(0,232.66)" style="font-family: 'Open Sans', verdana, arial, sans-serif; font-size: 12px; fill: rgb(68, 68, 68); fill-opacity: 1; white-space: pre;">0</text></g><g class="ytick"><text text-anchor="end" x="57" y="4.199999999999999" transform="translate(0,178.18)" style="font-family: 'Open Sans', verdana, arial, sans-serif; font-size: 12px; fill: rgb(68, 68, 68); fill-opacity: 1; white-space: pre;">50k</text></g><g class="ytick"><text text-anchor="end" x="57" y="4.199999999999999" transform="translate(0,123.71000000000001)" style="font-family: 'Open Sans', verdana, arial, sans-serif; font-size: 12px; fill: rgb(68, 68, 68); fill-opacity: 1; white-space: pre;">100k</text></g><g class="ytick"><text text-anchor="end" x="57" y="4.199999999999999" transform="translate(0,69.24)" style="font-family: 'Open Sans', verdana, arial, sans-serif; font-size: 12px; fill: rgb(68, 68, 68); fill-opacity: 1; white-space: pre;">150k</text></g></g><g class="overaxes-above"/></g><g class="subplot x2y2"><g class="layer-subplot"><g class="shapelayer"/><g class="imagelayer"/></g><g class="gridlayer"><g class="x2"><path class="x2grid crisp" transform="translate(125.97,0)" d="M0,257.6v182.4" style="stroke: rgb(238, 238, 238); stroke-opacity: 1; stroke-width: 1px;"/><path class="x2grid crisp" transform="translate(214.33,0)" d="M0,257.6v182.4" style="stroke: rgb(238, 238, 238); stroke-opacity: 1; stroke-width: 1px;"/><path class="x2grid crisp" transform="translate(303.65,0)" d="M0,257.6v182.4" style="stroke: rgb(238, 238, 238); stroke-opacity: 1; stroke-width: 1px;"/><path class="x2grid crisp" transform="translate(392.98,0)" d="M0,257.6v182.4" style="stroke: rgb(238, 238, 238); stroke-opacity: 1; stroke-width: 1px;"/><path class="x2grid crisp" transform="translate(480.37,0)" d="M0,257.6v182.4" style="stroke: rgb(238, 238, 238); stroke-opacity: 1; stroke-width: 1px;"/><path class="x2grid crisp" transform="translate(568.73,0)" d="M0,257.6v182.4" style="stroke: rgb(238, 238, 238); stroke-opacity: 1; stroke-width: 1px;"/><path class="x2grid crisp" transform="translate(658.06,0)" d="M0,257.6v182.4" style="stroke: rgb(238, 238, 238); stroke-opacity: 1; stroke-width: 1px;"/></g><g class="y2"><path class="y2grid crisp" transform="translate(0,392.25)" d="M58,0h602" style="stroke: rgb(238, 238, 238); stroke-opacity: 1; stroke-width: 1px;"/><path class="y2grid crisp" transform="translate(0,353.61)" d="M58,0h602" style="stroke: rgb(238, 238, 238); stroke-opacity: 1; stroke-width: 1px;"/><path class="y2grid crisp" transform="translate(0,314.98)" d="M58,0h602" style="stroke: rgb(238, 238, 238); stroke-opacity: 1; stroke-width: 1px;"/><path class="y2grid crisp" transform="translate(0,276.34000000000003)" d="M58,0h602" style="stroke: rgb(238, 238, 238); stroke-opacity: 1; stroke-width: 1px;"/></g></g><g class="zerolinelayer"><path class="y2zl zl crisp" transform="translate(0,430.88)" d="M58,0h602" style="stroke: rgb(68, 68, 68); stroke-opacity: 1; stroke-width: 1px;"/></g><path class="xlines-below"/><path class="ylines-below"/><g class="overlines-below"/><g class="xaxislayer-below"/><g class="yaxislayer-below"/><g class="overaxes-below"/><g class="plot" transform="translate(58, 257.6)" clip-path="url('#clip911821x2y2plot')"><g class="scatterlayer mlayer"><g class="trace scatter traceddd92f" style="stroke-miterlimit: 2; opacity: 1;"><g class="fills"/><g class="errorbars"/><g class="lines"><path class="js-line" d="M0,173.28L64.08,172.55L65.05,172.31L66.03,172.39L67,171.66L67.97,171.77L68.94,170.03L69.91,171.93L70.88,169.96L71.85,171.7L72.82,170.27L74.76,168.14L75.74,168.22L77.68,170.69L78.65,169.46L79.62,169.22L80.59,165.4L82.53,166.02L83.5,164.9L84.47,165.05L85.45,169.11L88.36,166.91L89.33,156.86L91.27,159.64L92.24,164.43L93.21,161.03L94.18,154.74L95.15,156.67L96.13,154.23L99.04,162.08L100.01,161.07L101.95,148.17L102.92,150.02L103.89,141.33L104.86,148.59L105.84,155.24L106.81,152.8L107.78,142.06L108.75,143.18L109.72,143.96L110.69,136.07L112.63,155.66L113.6,144.88L114.57,129.62L115.55,139.44L116.52,127.38L117.49,134.61L118.46,136L119.43,148.05L122.34,131.32L123.31,128.62L124.28,129.85L125.25,136.34L126.23,154.74L127.2,149.21L128.17,124.52L129.14,121.16L130.11,116.37L131.08,134.45L132.05,138.35L133.02,153L133.99,147.05L134.96,124.14L135.94,124.06L136.91,125.41L137.88,138.16L138.85,138.82L139.82,149.64L140.79,149.06L141.76,123.75L142.73,124.25L144.67,126.69L145.65,133.8L146.62,149.52L147.59,147.01L148.56,120.2L149.53,127.5L150.5,129.2L151.47,135.03L152.44,130.43L153.41,151.95L154.38,146.54L155.35,123.83L156.33,133.18L157.3,124.91L158.27,123.44L159.24,131.13L160.21,150.02L161.18,149.33L162.15,124.83L163.12,126.03L165.06,126.38L166.04,131.9L167.01,148.9L167.98,144.96L168.95,123.05L169.92,125.64L170.89,122.2L171.86,128.35L173.8,145.62L174.77,148.86L175.75,120.47L176.72,123.67L177.69,122.63L178.66,128.62L179.63,126.49L180.6,151.84L181.57,149.56L182.54,137.7L183.51,111.66L184.48,129.66L185.45,126.45L186.43,131.25L187.4,152.38L188.37,151.61L190.31,117.76L191.28,125.49L193.22,138.32L194.19,151.18L195.16,146.12L196.14,124.06L197.11,127.88L198.08,124.52L200.99,149.33L201.96,146.85L202.93,121.05L203.9,126.45L204.87,126.76L205.85,132.56L206.82,138.82L207.79,154.19L208.76,151.45L209.73,124.17L212.64,140.25L213.61,143.99L214.58,151.41L215.55,151.91L216.53,126.34L217.5,127.54L218.47,141.06L219.44,138.97L222.35,161.3L223.32,153.81L224.29,131.75L225.26,135.3L227.21,141.83L228.18,157.25L229.15,158.56L230.12,130.28L232.06,141.25L233.03,140.13L234,144.73L234.97,159.26L235.95,158.71L236.92,141.1L237.89,173.28L238.86,107.48L239.83,145.12L240.8,139.71L241.77,160.34L242.74,161.03L244.68,133.45L245.65,145.15L246.63,173.28L247.6,122.78L248.57,159.18L249.54,160.8L250.51,141.64L251.48,144.92L252.45,145.12L253.42,146.93L254.39,151.68L255.36,162.08L256.34,165.51L257.31,161.34L258.28,144.34L259.25,145.73L260.22,144.15L261.19,155.47L262.16,173.28L263.13,153.92L264.1,147.74L265.07,151.41L266.05,154.08L267.02,151.22L268.96,164.36L269.93,163.12L270.9,152.07L271.87,153.58L273.81,153.65L274.78,157.56L275.75,165.94L276.73,166.36L277.7,163.89L278.67,149.71L279.64,173.28L280.61,138.16L281.58,163.47L282.55,168.33L283.52,164.36L284.49,166.56L286.44,138.01L287.41,155.66L288.38,137.7L289.35,167.87L290.32,164.93L291.29,146.82L292.26,144.07L293.23,149.87L294.2,151.95L295.17,158.75L296.15,165.78L297.12,161.61L298.09,148.94L299.06,148.01L300.03,146.58L301,153.42L301.97,150.6L302.94,162.77L303.91,162.19L304.88,146.35L305.85,146.31L306.83,144.11L308.77,147.63L309.74,161.19L310.71,158.75L311.68,140.75L312.65,140.98L313.62,143.53L314.59,147.32L315.56,146.78L316.54,162.5L317.51,156.55L318.48,136.04L319.45,137.12L320.42,131.09L321.39,141.48L322.36,146L323.33,157.52L324.3,152.92L325.27,135.88L326.25,136.15L327.22,143.84L329.16,161.42L330.13,159.99L331.1,156.63L332.07,130.36L333.04,127.15L334.01,131.79L335.95,161.15L336.93,161.96L337.9,152.3L338.87,128.04L339.84,125.3L340.81,114.4L341.78,136.11L342.75,128.04L343.72,155.16L344.69,154.74L346.64,124.06L347.61,129.58L348.58,128.81L349.55,132.71L350.52,151.99L351.49,155.82L352.46,127.23L353.43,121.51L354.4,122.44L355.37,130.94L356.35,126.84L357.32,150.41L358.29,149.06L359.26,126.38L361.2,119.73L362.17,130.05L363.14,123.87L364.11,151.68L365.08,150.29L366.05,126.53L367.03,124.83L368,125.68L368.97,125.41L369.94,173.28L370.91,115.33L371.88,173.28L372.85,96.55L373.82,121.9L374.79,121.08L375.76,123.52L378.68,152.88L379.65,128.19L380.62,128.85L381.59,120.47L383.53,125.37L384.5,152.92L385.47,148.59L386.45,119.73L387.42,118.11L388.39,113.74L389.36,121.63L390.33,119.73L391.3,145.42L392.27,143.22L394.21,99.49L395.18,107.64L396.15,103.74L397.13,113.2L398.1,131.32L399.07,135.15L401.01,84.96L401.98,87.01L402.95,87.66L403.92,96.13L404.89,129.74L405.86,132.44L406.84,63.52L407.81,70.97L409.75,64.52L410.72,79.09L411.69,123.44L412.66,119.85L413.63,47.68L414.6,95.66L416.55,32.26L417.52,40.45L418.49,109.3L419.46,109.15L420.43,27.24L421.4,23.8L422.37,27.66L423.34,60.39L425.28,125.37L426.25,122.32L427.23,11.21L428.2,25.35L429.17,9.12L430.14,30.6L432.08,103.62L433.05,116.1L434.02,26.16L434.99,39.64L435.96,35.74L436.94,45.59L437.91,60.12L438.88,109.26L439.85,121.24L440.82,44.97L441.79,39.14L442.76,94.97L443.73,60.7L444.7,54.44L445.67,122.86L446.65,129.27L447.62,54.05L448.59,51.08L449.56,57.34L450.53,73.02L451.5,70.67L452.47,126.84L453.44,135.3L454.41,58.69L456.35,74.76L457.33,89.64L458.3,88.21L459.27,133.72L460.24,138.93L461.21,83.99L462.18,76.92L463.15,81.21L465.09,92.65L466.06,133.25L467.04,142.91L468.01,76.19L468.98,71.25L469.95,80.44L471.89,99.91L472.86,140.05L473.83,142.76L474.8,89.33L475.77,80.63L476.75,86.54L477.72,81.68L478.69,95.55L479.66,139.51L480.63,140.05L481.6,80.25L482.57,76.42L484.51,117.1L485.48,108.03L486.45,139.55L487.43,134.26L489.37,68.08L490.34,76.54L492.28,94.58L493.25,129.66L494.22,141.33L495.19,77.93L496.16,57.49L497.14,83.99L498.11,76.89L499.08,84.38L500.05,133.68L501.02,143.88L501.99,90.95L502.96,80.87L503.93,94.77L504.9,95.97L505.87,111.73L506.85,144.73L507.82,149.4L508.79,100.14L509.76,92.88L510.73,94.89L512.67,110.11L513.64,141.21L514.61,146.43L515.58,104.51L516.55,109.61L517.53,109.96L518.5,114.98L519.47,126.72L520.44,150.29L521.41,144.5L522.38,111.27L523.35,113.16L524.32,113.47L525.29,117.03L526.26,139.74L527.24,136.65L528.21,152.34L529.18,118.26L531.12,118.73L532.09,122.13L533.06,130.47L534.03,154.89L535,150.95L535.97,121.78L536.95,121.35L537.92,122.36L538.89,136.07L539.86,138.12L540.83,155.35L541.8,158.25L542.77,126.57L543.74,127.88L546.65,135.03L547.63,157.86L548.6,157.4L549.57,126.49L550.54,135.61L551.51,128.93L552.48,135.96L553.45,137.5L554.42,162.85L555.39,156.51L556.36,130.55L557.34,132.17L559.28,139.67L560.25,146.31L561.22,160.99L562.19,160.88L563.16,138.74L564.13,138.39L565.1,137.74L566.07,143.88L567.05,146.85L568.02,161.77L568.99,163L569.96,140.87L570.93,144.81L571.9,143.76L572.87,144.07L573.84,146.54L574.81,163L575.78,166.25L576.75,161.77L577.73,161.19L578.7,144.19L579.67,147.32L580.64,145.77L581.61,161.96L582.58,164.97L583.55,145.04L584.52,142.37L585.49,148.21L586.46,160.65L587.44,137.16L588.41,163.85L589.38,165.44L591.32,139.44L592.29,148.24L593.26,146.27L594.23,152.53L595.2,163.89L596.17,165.17L597.15,142.64L598.12,147.16L599.09,149.06L600.06,153.73L601.03,155.2L602,164.59" style="vector-effect: non-scaling-stroke; fill: none; stroke: rgb(255, 0, 0); stroke-opacity: 1; stroke-width: 2px; opacity: 1;"/></g><g class="points"/><g class="text"/></g></g></g><g class="overplot"/><path class="xlines-above crisp" style="fill: none;" d="M0,0"/><path class="ylines-above crisp" style="fill: none;" d="M0,0"/><g class="overlines-above"/><g class="xaxislayer-above"><g class="x2tick"><text text-anchor="middle" x="0" y="453" transform="translate(125.97,0)" style="font-family: 'Open Sans', verdana, arial, sans-serif; font-size: 12px; fill: rgb(68, 68, 68); fill-opacity: 1; white-space: pre;">Apr 2020</text></g><g class="x2tick"><text text-anchor="middle" x="0" y="453" transform="translate(214.33,0)" style="font-family: 'Open Sans', verdana, arial, sans-serif; font-size: 12px; fill: rgb(68, 68, 68); fill-opacity: 1; white-space: pre;">Jul 2020</text></g><g class="x2tick"><text text-anchor="middle" x="0" y="453" transform="translate(303.65,0)" style="font-family: 'Open Sans', verdana, arial, sans-serif; font-size: 12px; fill: rgb(68, 68, 68); fill-opacity: 1; white-space: pre;">Oct 2020</text></g><g class="x2tick"><text text-anchor="middle" x="0" y="453" transform="translate(392.98,0)" style="font-family: 'Open Sans', verdana, arial, sans-serif; font-size: 12px; fill: rgb(68, 68, 68); fill-opacity: 1; white-space: pre;">Jan 2021</text></g><g class="x2tick"><text text-anchor="middle" x="0" y="453" transform="translate(480.37,0)" style="font-family: 'Open Sans', verdana, arial, sans-serif; font-size: 12px; fill: rgb(68, 68, 68); fill-opacity: 1; white-space: pre;">Apr 2021</text></g><g class="x2tick"><text text-anchor="middle" x="0" y="453" transform="translate(568.73,0)" style="font-family: 'Open Sans', verdana, arial, sans-serif; font-size: 12px; fill: rgb(68, 68, 68); fill-opacity: 1; white-space: pre;">Jul 2021</text></g><g class="x2tick"><text text-anchor="middle" x="0" y="453" transform="translate(658.06,0)" style="font-family: 'Open Sans', verdana, arial, sans-serif; font-size: 12px; fill: rgb(68, 68, 68); fill-opacity: 1; white-space: pre;">Oct 2021</text></g></g><g class="yaxislayer-above"><g class="y2tick"><text text-anchor="end" x="57" y="4.199999999999999" transform="translate(0,430.88)" style="font-family: 'Open Sans', verdana, arial, sans-serif; font-size: 12px; fill: rgb(68, 68, 68); fill-opacity: 1; white-space: pre;">0</text></g><g class="y2tick"><text text-anchor="end" x="57" y="4.199999999999999" transform="translate(0,392.25)" style="font-family: 'Open Sans', verdana, arial, sans-serif; font-size: 12px; fill: rgb(68, 68, 68); fill-opacity: 1; white-space: pre;">1000</text></g><g class="y2tick"><text text-anchor="end" x="57" y="4.199999999999999" transform="translate(0,353.61)" style="font-family: 'Open Sans', verdana, arial, sans-serif; font-size: 12px; fill: rgb(68, 68, 68); fill-opacity: 1; white-space: pre;">2000</text></g><g class="y2tick"><text text-anchor="end" x="57" y="4.199999999999999" transform="translate(0,314.98)" style="font-family: 'Open Sans', verdana, arial, sans-serif; font-size: 12px; fill: rgb(68, 68, 68); fill-opacity: 1; white-space: pre;">3000</text></g><g class="y2tick"><text text-anchor="end" x="57" y="4.199999999999999" transform="translate(0,276.34000000000003)" style="font-family: 'Open Sans', verdana, arial, sans-serif; font-size: 12px; fill: rgb(68, 68, 68); fill-opacity: 1; white-space: pre;">4000</text></g></g><g class="overaxes-above"/></g></g><g class="polarlayer"/><g class="ternarylayer"/><g class="geolayer"/><g class="funnelarealayer"/><g class="pielayer"/><g class="treemaplayer"/><g class="sunburstlayer"/><g class="glimages"/><defs id="topdefs-911821"><g class="clips"/><clipPath id="legend911821"><rect width="108" height="48" x="0" y="0"/></clipPath></defs><g class="layer-above"><g class="imagelayer"/><g class="shapelayer"/></g><g class="infolayer"><g class="legend" pointer-events="all" transform="translate(88.1, 60)"><rect class="bg" shape-rendering="crispEdges" style="stroke: rgb(68, 68, 68); stroke-opacity: 1; fill: rgb(255, 255, 255); fill-opacity: 1; stroke-width: 0px;" width="108" height="48" x="0" y="0"/><g class="scrollbox" transform="translate(0, 0)" clip-path="url('#legend911821')"><g class="groups"><g class="traces" style="opacity: 1;" transform="translate(0, 14.5)"><text class="legendtext" text-anchor="start" x="40" y="4.680000000000001" style="font-family: 'Open Sans', verdana, arial, sans-serif; font-size: 12px; fill: rgb(68, 68, 68); fill-opacity: 1; white-space: pre;">Confirmed</text><g class="layers" style="opacity: 1;"><g class="legendfill"/><g class="legendlines"><path class="js-line" d="M5,0h30" style="fill: none; stroke: rgb(31, 119, 180); stroke-opacity: 1; stroke-width: 2px;"/></g><g class="legendsymbols"><g class="legendpoints"/></g></g><rect class="legendtoggle" x="0" y="-9.5" width="102.1875" height="19" style="fill: rgb(0, 0, 0); fill-opacity: 0;"/></g><g class="traces" style="opacity: 1;" transform="translate(0, 33.5)"><text class="legendtext" text-anchor="start" x="40" y="4.680000000000001" style="font-family: 'Open Sans', verdana, arial, sans-serif; font-size: 12px; fill: rgb(68, 68, 68); fill-opacity: 1; white-space: pre;">Death</text><g class="layers" style="opacity: 1;"><g class="legendfill"/><g class="legendlines"><path class="js-line" d="M5,0h30" style="fill: none; stroke: rgb(255, 0, 0); stroke-opacity: 1; stroke-width: 2px;"/></g><g class="legendsymbols"><g class="legendpoints"/></g></g><rect class="legendtoggle" x="0" y="-9.5" width="102.1875" height="19" style="fill: rgb(0, 0, 0); fill-opacity: 0;"/></g></g></g><rect class="scrollbar" rx="20" ry="3" width="0" height="0" style="fill: rgb(128, 139, 164); fill-opacity: 1;" x="0" y="0"/></g><g class="g-gtitle"><text class="gtitle" x="350" y="30" text-anchor="middle" dy="0em" style="font-family: 'Open Sans', verdana, arial, sans-serif; font-size: 17px; fill: rgb(68, 68, 68); opacity: 1; font-weight: normal; white-space: pre;">Brazil - Daily Confirmed and Death Cases</text></g><g class="g-xtitle"/><g class="g-x2title"><text class="x2title" x="359" y="492" text-anchor="middle" style="font-family: 'Open Sans', verdana, arial, sans-serif; font-size: 14px; fill: rgb(68, 68, 68); opacity: 1; font-weight: normal; white-space: pre;">Source: Johns Hopkins University Center for Systems Science and Engineering</text></g><g class="g-ytitle"><text class="ytitle" transform="rotate(-90,20,151.2)" x="20" y="151.2" text-anchor="middle" style="font-family: 'Open Sans', verdana, arial, sans-serif; font-size: 14px; fill: rgb(68, 68, 68); opacity: 1; font-weight: normal; white-space: pre;">Cases</text></g><g class="g-y2title"><text class="y2title" transform="rotate(-90,20,348.8)" x="20" y="348.8" text-anchor="middle" style="font-family: 'Open Sans', verdana, arial, sans-serif; font-size: 14px; fill: rgb(68, 68, 68); opacity: 1; font-weight: normal; white-space: pre;">Cases</text></g></g></svg>