<svg class="main-svg" xmlns="http://www.w3.org/2000/svg" xmlns:xlink="http://www.w3.org/1999/xlink" width="700" height="500" style="" viewBox="0 0 700 500"><rect x="0" y="0" width="700" height="500" style="fill: rgb(255, 255, 255); fill-opacity: 1;"/><defs id="defs-6d086d"><g class="clips"><clipPath id="clip6d086dxyplot" class="plotclip"><rect width="602" height="182.4"/></clipPath><clipPath id="clip6d086dx2y2plot" class="plotclip"><rect width="602" height="182.4"/></clipPath><clipPath class="axesclip" id="clip6d086dx"><rect x="58" y="0" width="602" height="500"/></clipPath><clipPath class="axesclip" id="clip6d086dy"><rect x="0" y="60" width="700" height="182.4"/></clipPath><clipPath class="axesclip" id="clip6d086dxy"><rect x="58" y="60" width="602" height="182.4"/></clipPath><clipPath class="axesclip" id="clip6d086dy2"><rect x="0" y="257.6" width="700" height="182.4"/></clipPath><clipPath class="axesclip" id="clip6d086dxy2"><rect x="58" y="257.6" width="602" height="182.4"/></clipPath><clipPath class="axesclip" id="clip6d086dx2"><rect x="58" y="0" width="602" height="500"/></clipPath><clipPath class="axesclip" id="clip6d086dx2y"><rect x="58" y="60" width="602" height="182.4"/></clipPath><clipPath class="axesclip" id="clip6d086dx2y2"><rect x="58" y="257.6" width="602" height="182.4"/></clipPath></g><g class="gradients"/></defs><g class="bglayer"/><g class="layer-below"><g class="imagelayer"/><g class="shapelayer"/></g><g class="cartesianlayer"><g class="subplot xy"><g class="layer-subplot"><g class="shapelayer"/><g class="imagelayer"/></g><g class="gridlayer"><g class="x"><path class="xgrid crisp" transform="translate(125.1,0)" d="M0,60v182.4" style="stroke: rgb(238, 238, 238); stroke-opacity: 1; stroke-width: 1px;"/><path class="xgrid crisp" transform="translate(212.33,0)" d="M0,60v182.4" style="stroke: rgb(238, 238, 238); stroke-opacity: 1; stroke-width: 1px;"/><path class="xgrid crisp" transform="translate(300.53,0)" d="M0,60v182.4" style="stroke: rgb(238, 238, 238); stroke-opacity: 1; stroke-width: 1px;"/><path class="xgrid crisp" transform="translate(388.72,0)" d="M0,60v182.4" style="stroke: rgb(238, 238, 238); stroke-opacity: 1; stroke-width: 1px;"/><path class="xgrid crisp" transform="translate(474.99,0)" d="M0,60v182.4" style="stroke: rgb(238, 238, 238); stroke-opacity: 1; stroke-width: 1px;"/><path class="xgrid crisp" transform="translate(562.22,0)" d="M0,60v182.4" style="stroke: rgb(238, 238, 238); stroke-opacity: 1; stroke-width: 1px;"/><path class="xgrid crisp" transform="translate(650.41,0)" d="M0,60v182.4" style="stroke: rgb(238, 238, 238); stroke-opacity: 1; stroke-width: 1px;"/></g><g class="y"><path class="ygrid crisp" transform="translate(0,178.18)" d="M58,0h602" style="stroke: rgb(238, 238, 238); stroke-opacity: 1; stroke-width: 1px;"/><path class="ygrid crisp" transform="translate(0,123.71000000000001)" d="M58,0h602" style="stroke: rgb(238, 238, 238); stroke-opacity: 1; stroke-width: 1px;"/><path class="ygrid crisp" transform="translate(0,69.24)" d="M58,0h602" style="stroke: rgb(238, 238, 238); stroke-opacity: 1; stroke-width: 1px;"/></g></g><g class="zerolinelayer"><path class="yzl zl crisp" transform="translate(0,232.66)" d="M58,0h602" style="stroke: rgb(68, 68, 68); stroke-opacity: 1; stroke-width: 1px;"/></g><path class="xlines-below"/><path class="ylines-below"/><g class="overlines-below"/><g class="xaxislayer-below"/><g class="yaxislayer-below"/><g class="overaxes-below"/><g class="plot" transform="translate(58, 60)" clip-path="url('#clip6d086dxyplot')"><g class="scatterlayer mlayer"><g class="trace scatter trace012596" style="stroke-miterlimit: 2; opacity: 1;"><g class="fills"/><g class="errorbars"/><g class="lines"><path class="js-line" d="M0,172.66L65.18,172.3L66.14,171.42L71.89,171.53L72.85,170.62L74.77,170.56L75.73,170.97L76.69,171.47L77.65,171.06L78.61,171.31L79.56,170.66L80.52,169.32L81.48,170.36L82.44,169.11L83.4,169.41L84.36,170.48L85.32,170.38L87.23,169.74L88.19,167.99L89.15,168.29L90.11,166.9L91.07,168.54L92.03,167.92L94.9,164.48L95.86,167.19L97.78,167.51L98.74,165.25L99.69,165.21L100.65,160.5L101.61,162.67L102.57,160.54L104.49,165.42L105.45,165.14L106.4,163.26L107.36,159.67L108.32,158.46L109.28,154L111.2,164.41L112.16,157.09L114.07,151.2L115.03,152.49L115.99,149.99L116.95,154.67L117.91,155.43L118.87,159.92L121.74,143.88L122.7,143.32L123.66,136.4L124.62,154.78L125.58,160.02L126.54,141.13L127.49,141.46L128.45,138.96L129.41,139.07L130.37,143.16L132.29,155.6L133.25,137.69L134.2,136.8L135.16,139.52L138.04,154.01L139,150.16L139.96,134.61L140.91,137.59L141.87,147.85L142.83,112.98L144.75,155.48L145.71,147.46L146.67,129.69L147.62,126.11L148.58,129.64L149.54,121.6L152.42,146.45L153.38,135.78L154.33,121.76L155.29,120.25L157.21,131.34L158.17,144.27L159.13,150.62L160.09,123.3L161.04,124.1L162,126.22L162.96,123.58L163.92,130.14L165.84,150.55L166.8,127.05L167.75,129.16L168.71,123.19L170.63,141.57L171.59,147.02L172.55,150.59L173.51,127.98L174.46,98.72L175.42,107.33L177.34,116.93L178.3,145.88L179.26,147.29L180.22,128.19L181.18,97.4L182.13,109.64L184.05,123.2L185.01,144.55L185.97,154.53L186.93,116.44L187.89,110.39L188.84,114.76L189.8,117.93L190.76,118.22L191.72,147.59L192.68,148.64L193.64,115.83L194.6,112.57L195.55,107.19L196.51,117.48L197.47,127.36L198.43,147.49L199.39,151.55L200.35,120.6L201.31,118.95L202.26,123.28L203.22,139.58L204.18,118.15L206.1,154.05L207.06,121.3L208.02,121.28L208.97,124.46L209.93,125.36L210.89,127.61L211.85,155.05L212.81,122.58L213.77,126.18L214.73,121.52L215.68,124.97L216.64,118L218.56,156.84L219.52,161.46L220.48,157.1L221.44,133.64L223.35,125.03L224.31,136.13L225.27,156.57L226.23,156.14L227.19,132.72L228.15,132.54L229.11,133.1L230.06,129.3L231.02,136.64L231.98,154.8L232.94,158.04L233.9,136.35L234.86,172.66L235.82,100.38L236.77,137.89L237.73,141.74L238.69,157.06L239.65,158.32L240.61,137.73L241.57,136.25L242.53,133.26L243.48,172.66L244.44,107.57L245.4,163.44L246.36,159.64L247.32,127L249.24,142.42L250.19,142.76L251.15,143.51L252.11,159.21L253.07,163.47L254.03,161.52L254.99,142.98L255.95,141.58L256.9,138.98L257.86,146.44L258.82,172.66L259.78,143.93L260.74,147.35L261.7,145.62L262.66,145.57L263.61,139.94L264.57,143.26L265.53,157.96L266.49,155.52L267.45,140.2L268.41,141.47L269.37,144.21L271.28,152.01L272.24,161.65L273.2,163.39L274.16,159.75L275.12,146.53L276.08,172.66L277.04,127.82L277.99,148.27L278.95,161.16L279.91,160.76L280.87,146.54L281.83,119.65L283.75,140.98L284.7,130.92L285.66,157.26L286.62,158.09L287.58,134.2L288.54,135.51L290.46,130.82L291.41,137.12L292.37,152.38L293.33,155L295.25,120.47L296.21,131.68L297.17,135.47L298.12,116.09L299.08,146L300.04,149.63L301,117.19L301.96,118.33L302.92,117.71L303.88,121.58L304.83,125.58L305.79,143.93L306.75,150.46L307.71,117L308.67,114.42L309.63,114.54L310.59,113.36L311.54,124.83L312.5,148.88L313.46,145.21L315.38,95.77L316.34,96.58L317.3,115.41L318.25,117.99L319.21,144.93L320.17,145.4L321.13,112.51L322.09,121.78L323.05,109L324.01,145.84L324.96,153.87L325.92,152.52L326.88,150.27L327.84,108.68L328.8,112.03L329.76,110.8L331.68,155.41L332.63,153.76L333.59,150.86L334.55,110.94L335.51,103.55L336.47,76.95L337.43,115.97L338.39,104.79L339.34,140.2L340.3,144.52L341.26,102.9L342.22,106.31L343.18,98.84L344.14,97.27L345.1,105.58L346.05,136.66L347.01,146.87L347.97,105.01L348.93,102.51L349.89,108.25L350.85,111.04L351.81,104.74L352.76,141.8L353.72,143.44L354.68,105.15L355.64,103.45L358.52,108.96L359.47,142.42L360.43,145.86L361.39,113.72L363.31,110.69L364.27,117.23L365.23,172.66L366.18,88.25L367.14,172.66L368.1,91.03L370.02,113.02L370.98,116.5L371.94,124.39L372.89,145.68L373.85,137.58L374.81,112.44L375.77,110.81L376.73,116.14L378.65,112.8L379.61,141.03L380.56,143.26L381.52,104.33L382.48,100.11L383.44,100.75L384.4,101.66L385.36,105.54L386.32,135.58L387.27,133.72L389.19,94.54L390.15,90.83L391.11,90.41L392.07,96.82L393.03,84.94L393.98,137.44L395.9,85.63L396.86,90.5L397.82,79.33L398.78,89.66L400.69,133.17L401.65,81.22L402.61,74.27L403.57,77.89L404.53,73.98L405.49,86.51L406.45,120.61L407.4,118.95L409.32,74.61L410.28,63.54L411.24,80.87L412.2,79.02L413.16,124.36L414.11,130.25L415.07,80.6L416.03,73.91L416.99,73.41L417.95,96.13L419.87,138.49L420.82,141.45L421.78,77.89L422.74,71.74L423.7,78.25L424.66,70.99L426.58,132.33L427.54,133.67L428.49,83.12L429.45,92.57L430.41,92.93L431.37,79.21L434.25,139.29L435.2,97.07L436.16,85.8L437.12,123.44L438.08,97.37L439.04,95.15L440,137.17L440.96,141.46L441.91,94.06L442.87,85.8L443.83,97.06L444.79,98.21L445.75,99.7L446.71,141.13L447.67,145.83L448.62,88.38L449.58,92.8L450.54,92.71L451.5,86.71L452.46,103.55L454.38,145.2L455.33,93.44L456.29,89.1L457.25,91.39L458.21,79.47L459.17,99.65L461.09,139.81L462.04,90.46L463.96,83.28L464.92,88.92L465.88,89.32L466.84,133.63L467.8,131.8L468.75,92.63L469.71,84.97L470.67,99.15L471.63,118.44L472.59,85.86L474.51,139.5L475.46,86.67L476.42,68.5L477.38,81.8L478.34,131.33L479.3,100.73L480.26,129.47L481.22,132.18L482.18,115.01L483.13,79.24L484.09,76.68L485.05,79.89L486.01,86.91L486.97,131.31L487.93,129.24L488.89,84.83L489.84,68.76L490.8,91.99L491.76,64.98L492.72,83.01L493.68,124.53L494.64,130.27L496.55,47.12L497.51,92.47L498.47,86.29L499.43,102.78L500.39,135.94L501.35,142.36L502.31,101.95L503.26,124.9L504.22,101.66L505.18,101.66L506.14,113.22L507.1,142.39L508.06,147.92L509.02,104.56L509.97,113.8L510.93,114.12L511.89,109.75L512.85,119.81L513.81,149.85L514.77,154.1L516.68,109.75L517.64,115.14L519.56,135.24L520.52,135.48L521.48,156.02L522.44,142.6L523.39,113.26L524.35,118.45L525.31,54.2L526.27,131.16L527.23,152.9L528.19,151.96L530.11,120.35L531.06,126.59L532.02,128.09L532.98,131.71L534.9,156.16L535.86,137.45L536.82,128.3L537.77,129.02L539.69,125.77L540.65,157.52L541.61,159.49L542.57,134.65L543.53,137.31L544.48,129.1L546.4,138.73L547.36,157.45L548.32,156.89L549.28,131.68L550.24,127.21L551.19,133.09L552.15,135.74L553.11,141.73L554.07,156.96L555.03,158.38L555.99,139.02L556.95,139.24L557.9,138.86L558.86,142.86L559.82,145.75L560.78,158.26L561.74,161.25L562.7,145.87L563.66,142.86L564.61,144.02L565.57,144.8L566.53,148.9L568.45,162.68L569.41,157.07L570.37,157.65L571.32,139L572.28,155.28L573.24,157.06L575.16,165.42L576.12,158.05L577.08,156.55L578.04,135.17L578.99,160.45L579.95,9.12L580.91,162.35L581.87,164.07L582.83,173.28L583.79,132.92L585.7,151.48L586.66,155.56L587.62,163.21L588.58,156.94L589.54,155.88L590.5,153.31L591.46,142.67L592.41,152.42L594.33,162.85L595.29,161.3L596.25,150.29L597.21,153.16L598.17,155.67L599.12,152.86L600.08,154.73L601.04,163.24L602,165.12" style="vector-effect: non-scaling-stroke; fill: none; stroke: rgb(31, 119, 180); stroke-opacity: 1; stroke-width: 2px; opacity: 1;"/></g><g class="points"/><g class="text"/></g></g></g><g class="overplot"/><path class="xlines-above crisp" style="fill: none;" d="M0,0"/><path class="ylines-above crisp" style="fill: none;" d="M0,0"/><g class="overlines-above"/><g class="xaxislayer-above"><g class="xtick"><text text-anchor="middle" x="0" y="255.4" transform="translate(125.1,0)" style="font-family: 'Open Sans', verdana, arial, sans-serif; font-size: 12px; fill: rgb(68, 68, 68); fill-opacity: 1; white-space: pre;">Apr 2020</text></g><g class="xtick"><text text-anchor="middle" x="0" y="255.4" transform="translate(212.33,0)" style="font-family: 'Open Sans', verdana, arial, sans-serif; font-size: 12px; fill: rgb(68, 68, 68); fill-opacity: 1; white-space: pre;">Jul 2020</text></g><g class="xtick"><text text-anchor="middle" x="0" y="255.4" transform="translate(300.53,0)" style="font-family: 'Open Sans', verdana, arial, sans-serif; font-size: 12px; fill: rgb(68, 68, 68); fill-opacity: 1; white-space: pre;">Oct 2020</text></g><g class="xtick"><text text-anchor="middle" x="0" y="255.4" transform="translate(388.72,0)" style="font-family: 'Open Sans', verdana, arial, sans-serif; font-size: 12px; fill: rgb(68, 68, 68); fill-opacity: 1; white-space: pre;">Jan 2021</text></g><g class="xtick"><text text-anchor="middle" x="0" y="255.4" transform="translate(474.99,0)" style="font-family: 'Open Sans', verdana, arial, sans-serif; font-size: 12px; fill: rgb(68, 68, 68); fill-opacity: 1; white-space: pre;">Apr 2021</text></g><g class="xtick"><text text-anchor="middle" x="0" y="255.4" transform="translate(562.22,0)" style="font-family: 'Open Sans', verdana, arial, sans-serif; font-size: 12px; fill: rgb(68, 68, 68); fill-opacity: 1; white-space: pre;">Jul 2021</text></g><g class="xtick"><text text-anchor="middle" x="0" y="255.4" transform="translate(650.41,0)" style="font-family: 'Open Sans', verdana, arial, sans-serif; font-size: 12px; fill: rgb(68, 68, 68); fill-opacity: 1; white-space: pre;">Oct 2021</text></g></g><g class="yaxislayer-above"><g class="ytick"><text text-anchor="end" x="57" y="4.199999999999999" transform="translate(0,232.66)" style="font-family: 'Open Sans', verdana, arial, sans-serif; font-size: 12px; fill: rgb(68, 68, 68); fill-opacity: 1; white-space: pre;">0</text></g><g class="ytick"><text text-anchor="end" x="57" y="4.199999999999999" transform="translate(0,178.18)" style="font-family: 'Open Sans', verdana, arial, sans-serif; font-size: 12px; fill: rgb(68, 68, 68); fill-opacity: 1; white-space: pre;">50k</text></g><g class="ytick"><text text-anchor="end" x="57" y="4.199999999999999" transform="translate(0,123.71000000000001)" style="font-family: 'Open Sans', verdana, arial, sans-serif; font-size: 12px; fill: rgb(68, 68, 68); fill-opacity: 1; white-space: pre;">100k</text></g><g class="ytick"><text text-anchor="end" x="57" y="4.199999999999999" transform="translate(0,69.24)" style="font-family: 'Open Sans', verdana, arial, sans-serif; font-size: 12px; fill: rgb(68, 68, 68); fill-opacity: 1; white-space: pre;">150k</text></g></g><g class="overaxes-above"/></g><g class="subplot x2y2"><g class="layer-subplot"><g class="shapelayer"/><g class="imagelayer"/></g><g class="gridlayer"><g class="x2"><path class="x2grid crisp" transform="translate(125.1,0)" d="M0,257.6v182.4" style="stroke: rgb(238, 238, 238); stroke-opacity: 1; stroke-width: 1px;"/><path class="x2grid crisp" transform="translate(212.33,0)" d="M0,257.6v182.4" style="stroke: rgb(238, 238, 238); stroke-opacity: 1; stroke-width: 1px;"/><path class="x2grid crisp" transform="translate(300.53,0)" d="M0,257.6v182.4" style="stroke: rgb(238, 238, 238); stroke-opacity: 1; stroke-width: 1px;"/><path class="x2grid crisp" transform="translate(388.72,0)" d="M0,257.6v182.4" style="stroke: rgb(238, 238, 238); stroke-opacity: 1; stroke-width: 1px;"/><path class="x2grid crisp" transform="translate(474.99,0)" d="M0,257.6v182.4" style="stroke: rgb(238, 238, 238); stroke-opacity: 1; stroke-width: 1px;"/><path class="x2grid crisp" transform="translate(562.22,0)" d="M0,257.6v182.4" style="stroke: rgb(238, 238, 238); stroke-opacity: 1; stroke-width: 1px;"/><path class="x2grid crisp" transform="translate(650.41,0)" d="M0,257.6v182.4" style="stroke: rgb(238, 238, 238); stroke-opacity: 1; stroke-width: 1px;"/></g><g class="y2"><path class="y2grid crisp" transform="translate(0,392.25)" d="M58,0h602" style="stroke: rgb(238, 238, 238); stroke-opacity: 1; stroke-width: 1px;"/><path class="y2grid crisp" transform="translate(0,353.61)" d="M58,0h602" style="stroke: rgb(238, 238, 238); stroke-opacity: 1; stroke-width: 1px;"/><path class="y2grid crisp" transform="translate(0,314.98)" d="M58,0h602" style="stroke: rgb(238, 238, 238); stroke-opacity: 1; stroke-width: 1px;"/><path class="y2grid crisp" transform="translate(0,276.34000000000003)" d="M58,0h602" style="stroke: rgb(238, 238, 238); stroke-opacity: 1; stroke-width: 1px;"/></g></g><g class="zerolinelayer"><path class="y2zl zl crisp" transform="translate(0,430.88)" d="M58,0h602" style="stroke: rgb(68, 68, 68); stroke-opacity: 1; stroke-width: 1px;"/></g><path class="xlines-below"/><path class="ylines-below"/><g class="overlines-below"/><g class="xaxislayer-below"/><g class="yaxislayer-below"/><g class="overaxes-below"/><g class="plot" transform="translate(58, 257.6)" clip-path="url('#clip6d086dx2y2plot')"><g class="scatterlayer mlayer"><g class="trace scatter traceaa4cb4" style="stroke-miterlimit: 2; opacity: 1;"><g class="fills"/><g class="errorbars"/><g class="lines"><path class="js-line" d="M0,173.28L63.27,172.55L64.23,172.31L65.18,172.39L66.14,171.66L67.1,171.77L68.06,170.03L69.02,171.93L69.98,169.96L70.94,171.7L71.89,170.27L73.81,168.14L74.77,168.22L76.69,170.69L77.65,169.46L78.61,169.22L79.56,165.4L81.48,166.02L82.44,164.9L83.4,165.05L84.36,169.11L87.23,166.91L88.19,156.86L90.11,159.64L91.07,164.43L92.03,161.03L92.98,154.74L93.94,156.67L94.9,154.23L97.78,162.08L98.74,161.07L100.65,148.17L101.61,150.02L102.57,141.33L103.53,148.59L104.49,155.24L105.45,152.8L106.4,142.06L107.36,143.18L108.32,143.96L109.28,136.07L111.2,155.66L112.16,144.88L113.11,129.62L114.07,139.44L115.03,127.38L115.99,134.61L116.95,136L117.91,148.05L120.78,131.32L121.74,128.62L122.7,129.85L123.66,136.34L124.62,154.74L125.58,149.21L126.54,124.52L127.49,121.16L128.45,116.37L129.41,134.45L130.37,138.35L131.33,153L132.29,147.05L133.25,124.14L134.2,124.06L135.16,125.41L136.12,138.16L137.08,138.82L138.04,149.64L139,149.06L139.96,123.75L140.91,124.25L142.83,126.69L143.79,133.8L144.75,149.52L145.71,147.01L146.67,120.2L147.62,127.5L148.58,129.2L149.54,135.03L150.5,130.43L151.46,151.95L152.42,146.54L153.38,123.83L154.33,133.18L155.29,124.91L156.25,123.44L157.21,131.13L158.17,150.02L159.13,149.33L160.09,124.83L161.04,126.03L162.96,126.38L163.92,131.9L164.88,148.9L165.84,144.96L166.8,123.05L167.75,125.64L168.71,122.2L169.67,128.35L171.59,145.62L172.55,148.86L173.51,120.47L174.46,123.67L175.42,122.63L176.38,128.62L177.34,126.49L178.3,151.84L179.26,149.56L180.22,137.7L181.18,111.66L182.13,129.66L183.09,126.45L184.05,131.25L185.01,152.38L185.97,151.61L187.89,117.76L188.84,125.49L190.76,138.32L191.72,151.18L192.68,146.12L193.64,124.06L194.6,127.88L195.55,124.52L198.43,149.33L199.39,146.85L200.35,121.05L201.31,126.45L202.26,126.76L203.22,132.56L204.18,138.82L205.14,154.19L206.1,151.45L207.06,124.17L209.93,140.25L210.89,143.99L211.85,151.41L212.81,151.91L213.77,126.34L214.73,127.54L215.68,141.06L216.64,138.97L219.52,161.3L220.48,153.81L221.44,131.75L222.39,135.3L224.31,141.83L225.27,157.25L226.23,158.56L227.19,130.28L229.11,141.25L230.06,140.13L231.02,144.73L231.98,159.26L232.94,158.71L233.9,141.1L234.86,173.28L235.82,107.48L236.77,145.12L237.73,139.71L238.69,160.34L239.65,161.03L241.57,133.45L242.53,145.15L243.48,173.28L244.44,122.78L245.4,159.18L246.36,160.8L247.32,141.64L248.28,144.92L249.24,145.12L250.19,146.93L251.15,151.68L252.11,162.08L253.07,165.51L254.03,161.34L254.99,144.34L255.95,145.73L256.9,144.15L257.86,155.47L258.82,173.28L259.78,153.92L260.74,147.74L261.7,151.41L262.66,154.08L263.61,151.22L265.53,164.36L266.49,163.12L267.45,152.07L268.41,153.58L270.32,153.65L271.28,157.56L272.24,165.94L273.2,166.36L274.16,163.89L275.12,149.71L276.08,173.28L277.04,138.16L277.99,163.47L278.95,168.33L279.91,164.36L280.87,166.56L282.79,138.01L283.75,155.66L284.7,137.7L285.66,167.87L286.62,164.93L287.58,146.82L288.54,144.07L289.5,149.87L290.46,151.95L291.41,158.75L292.37,165.78L293.33,161.61L294.29,148.94L295.25,148.01L296.21,146.58L297.17,153.42L298.12,150.6L299.08,162.77L300.04,162.19L301,146.35L301.96,146.31L302.92,144.11L304.83,147.63L305.79,161.19L306.75,158.75L307.71,140.75L308.67,140.98L309.63,143.53L310.59,147.32L311.54,146.78L312.5,162.5L313.46,156.55L314.42,136.04L315.38,137.12L316.34,131.09L317.3,141.48L318.25,146L319.21,157.52L320.17,152.92L321.13,135.88L322.09,136.15L323.05,143.84L324.96,161.42L325.92,159.99L326.88,156.63L327.84,130.36L328.8,127.15L329.76,131.79L331.68,161.15L332.63,161.96L333.59,152.3L334.55,128.04L335.51,125.3L336.47,114.4L337.43,136.11L338.39,128.04L339.34,155.16L340.3,154.74L342.22,124.06L343.18,129.58L344.14,128.81L345.1,132.71L346.05,151.99L347.01,155.82L347.97,127.23L348.93,121.51L349.89,122.44L350.85,130.94L351.81,126.84L352.76,150.41L353.72,149.06L354.68,126.38L356.6,119.73L357.56,130.05L358.52,123.87L359.47,151.68L360.43,150.29L361.39,126.53L362.35,124.83L363.31,125.68L364.27,125.41L365.23,173.28L366.18,115.33L367.14,173.28L368.1,96.55L369.06,121.9L370.02,121.08L370.98,123.52L373.85,152.88L374.81,128.19L375.77,128.85L376.73,120.47L378.65,125.37L379.61,152.92L380.56,148.59L381.52,119.73L382.48,118.11L383.44,113.74L384.4,121.63L385.36,119.73L386.32,145.42L387.27,143.22L389.19,99.49L390.15,107.64L391.11,103.74L392.07,113.2L393.98,135.15L394.94,97.09L395.9,84.96L396.86,87.01L397.82,87.66L398.78,96.13L399.74,129.74L400.69,132.44L401.65,63.52L402.61,70.97L404.53,64.52L405.49,79.09L406.45,123.44L407.4,119.85L408.36,47.68L409.32,95.66L411.24,32.26L412.2,40.45L413.16,109.3L414.11,109.15L415.07,27.24L416.03,23.8L416.99,27.66L417.95,60.39L419.87,125.37L420.82,122.32L421.78,11.21L422.74,25.35L423.7,9.12L424.66,30.6L426.58,103.62L427.54,116.1L428.49,26.16L429.45,39.64L430.41,35.74L431.37,45.59L432.33,60.12L433.29,109.26L434.25,121.24L435.2,44.97L436.16,39.14L437.12,94.97L438.08,60.7L439.04,54.44L440,122.86L440.96,129.27L441.91,54.05L442.87,51.08L443.83,57.34L444.79,73.02L445.75,70.67L446.71,126.84L447.67,135.3L448.62,58.69L450.54,74.76L451.5,89.64L452.46,88.21L453.42,133.72L454.38,138.93L455.33,83.99L456.29,76.92L457.25,81.21L459.17,92.65L460.13,133.25L461.09,142.91L462.04,76.19L463,71.25L463.96,80.44L465.88,99.91L466.84,140.05L467.8,142.76L468.75,89.33L469.71,80.63L470.67,86.54L471.63,81.68L472.59,95.55L473.55,139.51L474.51,140.05L475.46,80.25L476.42,76.42L478.34,117.1L479.3,108.03L480.26,139.55L481.22,134.26L483.13,68.08L484.09,76.54L486.01,94.58L486.97,129.66L487.93,141.33L488.89,77.93L489.84,57.49L490.8,83.99L491.76,76.89L492.72,84.38L493.68,133.68L494.64,143.88L495.6,90.95L496.55,80.87L497.51,94.77L498.47,95.97L499.43,111.73L500.39,144.73L501.35,149.4L502.31,100.14L503.26,92.88L504.22,94.89L506.14,110.11L507.1,141.21L508.06,146.43L509.02,104.51L509.97,109.61L510.93,109.96L511.89,114.98L512.85,126.72L513.81,150.29L514.77,144.5L515.73,111.27L516.68,113.16L517.64,113.47L518.6,117.03L519.56,139.74L520.52,136.65L521.48,152.34L522.44,118.26L524.35,118.73L525.31,122.13L526.27,130.47L527.23,154.89L528.19,150.95L529.15,121.78L530.11,121.35L531.06,122.36L532.02,136.07L532.98,138.12L533.94,155.35L534.9,158.25L535.86,126.57L536.82,127.88L539.69,135.03L540.65,157.86L541.61,157.4L542.57,126.49L543.53,135.61L544.48,128.93L546.4,137.5L547.36,162.85L548.32,156.51L549.28,130.55L550.24,132.17L551.19,135.46L553.11,146.31L554.07,160.99L555.03,160.88L555.99,138.74L557.9,137.74L558.86,143.88L559.82,146.85L560.78,161.77L561.74,163L562.7,140.87L563.66,144.81L564.61,143.76L565.57,144.07L566.53,146.54L567.49,163L568.45,166.25L569.41,161.77L570.37,161.19L571.32,144.19L572.28,147.32L573.24,145.77L574.2,161.96L575.16,164.97L576.12,145.04L577.08,142.37L578.04,148.21L578.99,160.65L579.95,137.16L580.91,163.85L581.87,165.44L583.79,139.44L584.75,148.24L585.7,146.27L586.66,152.53L587.62,163.89L588.58,165.17L589.54,142.64L590.5,147.16L591.46,149.06L592.41,153.73L593.37,155.2L594.33,164.59L595.29,165.4L596.25,147.12L598.17,155.86L599.12,149.52L601.04,166.25L602,165.48" style="vector-effect: non-scaling-stroke; fill: none; stroke: rgb(255, 0, 0); stroke-opacity: 1; stroke-width: 2px; opacity: 1;"/></g><g class="points"/><g class="text"/></g></g></g><g class="overplot"/><path class="xlines-above crisp" style="fill: none;" d="M0,0"/><path class="ylines-above crisp" style="fill: none;" d="M0,0"/><g class="overlines-above"/><g class="xaxislayer-above"><g class="x2tick"><text text-anchor="middle" x="0" y="453" transform="translate(125.1,0)" style="font-family: 'Open Sans', verdana, arial, sans-serif; font-size: 12px; fill: rgb(68, 68, 68); fill-opacity: 1; white-space: pre;">Apr 2020</text></g><g class="x2tick"><text text-anchor="middle" x="0" y="453" transform="translate(212.33,0)" style="font-family: 'Open Sans', verdana, arial, sans-serif; font-size: 12px; fill: rgb(68, 68, 68); fill-opacity: 1; white-space: pre;">Jul 2020</text></g><g class="x2tick"><text text-anchor="middle" x="0" y="453" transform="translate(300.53,0)" style="font-family: 'Open Sans', verdana, arial, sans-serif; font-size: 12px; fill: rgb(68, 68, 68); fill-opacity: 1; white-space: pre;">Oct 2020</text></g><g class="x2tick"><text text-anchor="middle" x="0" y="453" transform="translate(388.72,0)" style="font-family: 'Open Sans', verdana, arial, sans-serif; font-size: 12px; fill: rgb(68, 68, 68); fill-opacity: 1; white-space: pre;">Jan 2021</text></g><g class="x2tick"><text text-anchor="middle" x="0" y="453" transform="translate(474.99,0)" style="font-family: 'Open Sans', verdana, arial, sans-serif; font-size: 12px; fill: rgb(68, 68, 68); fill-opacity: 1; white-space: pre;">Apr 2021</text></g><g class="x2tick"><text text-anchor="middle" x="0" y="453" transform="translate(562.22,0)" style="font-family: 'Open Sans', verdana, arial, sans-serif; font-size: 12px; fill: rgb(68, 68, 68); fill-opacity: 1; white-space: pre;">Jul 2021</text></g><g class="x2tick"><text text-anchor="middle" x="0" y="453" transform="translate(650.41,0)" style="font-family: 'Open Sans', verdana, arial, sans-serif; font-size: 12px; fill: rgb(68, 68, 68); fill-opacity: 1; white-space: pre;">Oct 2021</text></g></g><g class="yaxislayer-above"><g class="y2tick"><text text-anchor="end" x="57" y="4.199999999999999" transform="translate(0,430.88)" style="font-family: 'Open Sans', verdana, arial, sans-serif; font-size: 12px; fill: rgb(68, 68, 68); fill-opacity: 1; white-space: pre;">0</text></g><g class="y2tick"><text text-anchor="end" x="57" y="4.199999999999999" transform="translate(0,392.25)" style="font-family: 'Open Sans', verdana, arial, sans-serif; font-size: 12px; fill: rgb(68, 68, 68); fill-opacity: 1; white-space: pre;">1000</text></g><g class="y2tick"><text text-anchor="end" x="57" y="4.199999999999999" transform="translate(0,353.61)" style="font-family: 'Open Sans', verdana, arial, sans-serif; font-size: 12px; fill: rgb(68, 68, 68); fill-opacity: 1; white-space: pre;">2000</text></g><g class="y2tick"><text text-anchor="end" x="57" y="4.199999999999999" transform="translate(0,314.98)" style="font-family: 'Open Sans', verdana, arial, sans-serif; font-size: 12px; fill: rgb(68, 68, 68); fill-opacity: 1; white-space: pre;">3000</text></g><g class="y2tick"><text text-anchor="end" x="57" y="4.199999999999999" transform="translate(0,276.34000000000003)" style="font-family: 'Open Sans', verdana, arial, sans-serif; font-size: 12px; fill: rgb(68, 68, 68); fill-opacity: 1; white-space: pre;">4000</text></g></g><g class="overaxes-above"/></g></g><g class="polarlayer"/><g class="ternarylayer"/><g class="geolayer"/><g class="funnelarealayer"/><g class="pielayer"/><g class="treemaplayer"/><g class="sunburstlayer"/><g class="glimages"/><defs id="topdefs-6d086d"><g class="clips"/><clipPath id="legend6d086d"><rect width="108" height="48" x="0" y="0"/></clipPath></defs><g class="layer-above"><g class="imagelayer"/><g class="shapelayer"/></g><g class="infolayer"><g class="legend" pointer-events="all" transform="translate(88.1, 60)"><rect class="bg" shape-rendering="crispEdges" style="stroke: rgb(68, 68, 68); stroke-opacity: 1; fill: rgb(255, 255, 255); fill-opacity: 1; stroke-width: 0px;" width="108" height="48" x="0" y="0"/><g class="scrollbox" transform="translate(0, 0)" clip-path="url('#legend6d086d')"><g class="groups"><g class="traces" style="opacity: 1;" transform="translate(0, 14.5)"><text class="legendtext" text-anchor="start" x="40" y="4.680000000000001" style="font-family: 'Open Sans', verdana, arial, sans-serif; font-size: 12px; fill: rgb(68, 68, 68); fill-opacity: 1; white-space: pre;">Confirmed</text><g class="layers" style="opacity: 1;"><g class="legendfill"/><g class="legendlines"><path class="js-line" d="M5,0h30" style="fill: none; stroke: rgb(31, 119, 180); stroke-opacity: 1; stroke-width: 2px;"/></g><g class="legendsymbols"><g class="legendpoints"/></g></g><rect class="legendtoggle" x="0" y="-9.5" width="102.1875" height="19" style="fill: rgb(0, 0, 0); fill-opacity: 0;"/></g><g class="traces" style="opacity: 1;" transform="translate(0, 33.5)"><text class="legendtext" text-anchor="start" x="40" y="4.680000000000001" style="font-family: 'Open Sans', verdana, arial, sans-serif; font-size: 12px; fill: rgb(68, 68, 68); fill-opacity: 1; white-space: pre;">Death</text><g class="layers" style="opacity: 1;"><g class="legendfill"/><g class="legendlines"><path class="js-line" d="M5,0h30" style="fill: none; stroke: rgb(255, 0, 0); stroke-opacity: 1; stroke-width: 2px;"/></g><g class="legendsymbols"><g class="legendpoints"/></g></g><rect class="legendtoggle" x="0" y="-9.5" width="102.1875" height="19" style="fill: rgb(0, 0, 0); fill-opacity: 0;"/></g></g></g><rect class="scrollbar" rx="20" ry="3" width="0" height="0" style="fill: rgb(128, 139, 164); fill-opacity: 1;" x="0" y="0"/></g><g class="g-gtitle"><text class="gtitle" x="350" y="30" text-anchor="middle" dy="0em" style="font-family: 'Open Sans', verdana, arial, sans-serif; font-size: 17px; fill: rgb(68, 68, 68); opacity: 1; font-weight: normal; white-space: pre;">Brazil - Daily Confirmed and Death Cases</text></g><g class="g-xtitle"/><g class="g-x2title"><text class="x2title" x="359" y="492" text-anchor="middle" style="font-family: 'Open Sans', verdana, arial, sans-serif; font-size: 14px; fill: rgb(68, 68, 68); opacity: 1; font-weight: normal; white-space: pre;">Source: Johns Hopkins University Center for Systems Science and Engineering</text></g><g class="g-ytitle"><text class="ytitle" transform="rotate(-90,20,151.2)" x="20" y="151.2" text-anchor="middle" style="font-family: 'Open Sans', verdana, arial, sans-serif; font-size: 14px; fill: rgb(68, 68, 68); opacity: 1; font-weight: normal; white-space: pre;">Cases</text></g><g class="g-y2title"><text class="y2title" transform="rotate(-90,20,348.8)" x="20" y="348.8" text-anchor="middle" style="font-family: 'Open Sans', verdana, arial, sans-serif; font-size: 14px; fill: rgb(68, 68, 68); opacity: 1; font-weight: normal; white-space: pre;">Cases</text></g></g></svg>