<svg class="main-svg" xmlns="http://www.w3.org/2000/svg" xmlns:xlink="http://www.w3.org/1999/xlink" width="700" height="500" style="" viewBox="0 0 700 500"><rect x="0" y="0" width="700" height="500" style="fill: rgb(255, 255, 255); fill-opacity: 1;"/><defs id="defs-922752"><g class="clips"><clipPath id="clip922752xyplot" class="plotclip"><rect width="602" height="182.4"/></clipPath><clipPath id="clip922752x2y2plot" class="plotclip"><rect width="602" height="182.4"/></clipPath><clipPath class="axesclip" id="clip922752x"><rect x="58" y="0" width="602" height="500"/></clipPath><clipPath class="axesclip" id="clip922752y"><rect x="0" y="60" width="700" height="182.4"/></clipPath><clipPath class="axesclip" id="clip922752xy"><rect x="58" y="60" width="602" height="182.4"/></clipPath><clipPath class="axesclip" id="clip922752y2"><rect x="0" y="257.6" width="700" height="182.4"/></clipPath><clipPath class="axesclip" id="clip922752xy2"><rect x="58" y="257.6" width="602" height="182.4"/></clipPath><clipPath class="axesclip" id="clip922752x2"><rect x="58" y="0" width="602" height="500"/></clipPath><clipPath class="axesclip" id="clip922752x2y"><rect x="58" y="60" width="602" height="182.4"/></clipPath><clipPath class="axesclip" id="clip922752x2y2"><rect x="58" y="257.6" width="602" height="182.4"/></clipPath></g><g class="gradients"/><g class="patterns"/></defs><g class="bglayer"/><g class="layer-below"><g class="imagelayer"/><g class="shapelayer"/></g><g class="cartesianlayer"><g class="subplot xy"><g class="layer-subplot"><g class="shapelayer"/><g class="imagelayer"/></g><g class="gridlayer"><g class="x"><path class="xgrid crisp" transform="translate(145,0)" d="M0,60v182.4" style="stroke: rgb(238, 238, 238); stroke-opacity: 1; stroke-width: 1px;"/><path class="xgrid crisp" transform="translate(244.44,0)" d="M0,60v182.4" style="stroke: rgb(238, 238, 238); stroke-opacity: 1; stroke-width: 1px;"/><path class="xgrid crisp" transform="translate(342.25,0)" d="M0,60v182.4" style="stroke: rgb(238, 238, 238); stroke-opacity: 1; stroke-width: 1px;"/><path class="xgrid crisp" transform="translate(441.68,0)" d="M0,60v182.4" style="stroke: rgb(238, 238, 238); stroke-opacity: 1; stroke-width: 1px;"/><path class="xgrid crisp" transform="translate(539.49,0)" d="M0,60v182.4" style="stroke: rgb(238, 238, 238); stroke-opacity: 1; stroke-width: 1px;"/><path class="xgrid crisp" transform="translate(638.92,0)" d="M0,60v182.4" style="stroke: rgb(238, 238, 238); stroke-opacity: 1; stroke-width: 1px;"/></g><g class="y"><path class="ygrid crisp" transform="translate(0,169.20999999999998)" d="M58,0h602" style="stroke: rgb(238, 238, 238); stroke-opacity: 1; stroke-width: 1px;"/><path class="ygrid crisp" transform="translate(0,115.72999999999999)" d="M58,0h602" style="stroke: rgb(238, 238, 238); stroke-opacity: 1; stroke-width: 1px;"/><path class="ygrid crisp" transform="translate(0,62.25)" d="M58,0h602" style="stroke: rgb(238, 238, 238); stroke-opacity: 1; stroke-width: 1px;"/></g></g><g class="zerolinelayer"><path class="yzl zl crisp" transform="translate(0,222.69)" d="M58,0h602" style="stroke: rgb(68, 68, 68); stroke-opacity: 1; stroke-width: 1px;"/></g><path class="xlines-below"/><path class="ylines-below"/><g class="overlines-below"/><g class="xaxislayer-below"/><g class="yaxislayer-below"/><g class="overaxes-below"/><g class="plot" transform="translate(58,60)" clip-path="url(#clip922752xyplot)"><g class="scatterlayer mlayer"><g class="trace scatter trace5a25f1" style="stroke-miterlimit: 2; opacity: 1;"><g class="fills"/><g class="errorbars"/><g class="lines"><path class="js-line" d="M0,162.69L40.53,162.14L41.07,161.69L42.69,161.87L43.23,162.11L47.01,161.1L47.55,161.63L49.18,161.26L49.72,160.4L50.26,160.55L50.8,159.87L51.88,160.37L52.42,159.6L53.5,158.68L54.04,160.01L55.12,160.17L55.66,159.06L56.2,159.04L56.74,156.73L57.28,157.79L57.82,156.75L59.44,159.01L59.98,158.08L61.61,153.53L62.15,155.62L62.69,158.64L63.23,155.05L63.77,153.86L64.31,150.53L64.85,152.99L65.39,151.03L67.01,155.84L67.55,153.96L69.71,145.41L70.25,155.62L70.79,154.59L71.33,145.75L71.87,148.74L72.41,145.6L72.95,145.52L73.49,149.97L74.57,153.42L75.11,145.74L75.66,144.62L76.2,147.35L77.82,153.71L78.36,149.53L78.9,142.91L79.44,146.15L79.98,149.04L80.52,132.71L81.06,128.72L81.6,173.28L82.68,141.55L83.22,140.75L83.76,140.52L84.3,138.69L85.92,151.17L86.46,141.47L87,137.65L87.54,138.95L88.08,139.67L89.71,149.61L90.25,137.72L91.33,139.72L91.87,138.99L93.49,150.45L94.03,139.74L94.57,141.22L95.11,139.33L96.73,150.17L97.27,150.52L98.35,127.31L98.89,132.03L99.43,132.26L99.97,137.27L100.51,150.57L101.05,147.71L101.59,133.81L102.68,131.64L103.22,134.21L104.84,151.94L105.38,132.59L105.92,132.65L106.46,133.82L107.54,137.88L108.08,150.54L108.62,148.52L109.16,135.67L110.24,130.22L110.78,136.27L111.86,150.39L112.4,149.64L112.94,136.35L113.48,136.7L114.02,139.71L114.56,145.4L115.1,138.14L115.64,150.99L116.18,150.12L116.73,137.93L117.27,136.94L117.81,140.09L118.35,139.11L118.89,142.75L119.43,154.92L119.97,135.83L120.51,138.98L121.05,137.85L121.59,137.66L122.67,144.59L123.21,154.85L123.75,157.6L124.29,152.65L125.37,140.89L125.91,140.48L126.99,155.19L127.53,151.67L128.61,142.75L129.15,143.22L129.69,141.44L130.24,146.88L130.78,154.43L131.32,153.26L131.86,143.99L132.94,145.57L133.48,145.41L134.56,155.32L135.1,153.67L136.18,145.1L136.72,143.56L137.26,145.14L137.8,150.39L138.34,158.03L138.88,148.76L139.42,145.83L139.96,146.15L140.5,148.34L141.04,147.86L141.58,149.99L142.66,158.07L143.2,155.55L144.29,146.42L144.83,147.4L145.91,156.25L146.45,153.83L147.53,148.86L148.07,149.45L148.61,146.65L149.15,149.33L149.69,156.14L150.23,152.74L150.77,146.66L151.31,147.53L151.85,148.41L152.39,149.67L152.93,155.65L154.01,158.28L154.55,154.89L155.63,149.94L156.17,151.89L156.71,153.2L157.25,157.08L157.8,155.52L158.34,137.86L158.88,148.66L159.42,144.55L159.96,141.99L161.04,155.26L161.58,154.27L162.12,143.71L162.66,144.11L163.2,143.51L163.74,141.96L164.28,146.53L164.82,153.11L165.36,152.98L165.9,144.22L166.44,138.82L166.98,140.83L167.52,144.77L168.06,135.16L168.6,151.46L169.14,150.02L169.68,134.89L170.22,136.77L170.76,135.88L171.31,137.2L171.85,141.15L172.39,148.56L172.93,148.24L173.47,137.13L174.01,133.5L174.55,134.05L175.09,134.59L176.17,150.91L176.71,148.05L178.33,125.95L178.87,134.43L179.41,136.89L179.95,149.6L180.49,147.91L181.03,132.39L181.57,138.26L182.11,131.56L183.19,153.32L183.73,153.27L184.27,148.02L184.82,132.54L185.9,133.56L186.44,150.42L186.98,154.48L187.52,153.5L188.06,149.3L189.68,115.65L190.22,130.83L190.76,135.21L191.3,147.17L191.84,146.25L192.38,128.24L192.92,130.7L193.46,126.15L194,125.74L194.54,131.44L195.62,147.22L196.16,129.45L196.7,128.21L197.24,131.17L197.78,132.42L198.32,131.51L198.87,147.44L199.41,146.36L199.95,129.74L200.49,128.05L201.03,130.2L201.57,130.87L202.11,134.29L202.65,147.77L203.19,147.46L203.73,132.59L204.27,133.59L204.81,132.15L205.89,137.93L206.43,148.7L206.97,147.4L207.51,135.3L208.05,130.01L208.59,134.02L209.67,138.7L210.21,146.26L210.75,148.89L211.29,127.78L211.83,137.44L212.38,134.09L212.92,134.8L213.46,134.68L214,146.92L214.54,145.66L215.08,128.69L216.16,126.18L216.7,128.79L217.24,131.45L217.78,144.85L218.32,141.09L218.86,130.77L219.94,122.03L220.48,123.92L221.02,126.91L221.56,119.01L222.1,143.13L222.64,124.56L223.18,119.12L223.72,121.47L224.26,118.59L224.8,125.07L225.34,139.46L225.89,138.99L226.43,116.89L226.97,115.28L227.51,115.67L228.05,115.49L229.13,137.32L229.67,132.76L230.75,114.07L231.29,110.14L233.45,139.9L233.99,116.46L234.53,115.24L235.07,115.75L235.61,125.59L236.69,145.41L237.23,139.87L238.31,115.26L238.85,115.33L239.39,115.57L239.94,127.1L240.48,141.74L241.02,141.49L241.56,118.48L242.64,124.62L243.18,117.56L244.8,143.16L245.34,123.84L245.88,123.12L246.42,136.96L246.96,125.64L247.5,128.58L248.04,144.7L248.58,145.37L249.12,122.13L249.66,121.36L250.2,126L250.74,124.18L251.28,131.52L251.82,147.03L252.36,141.84L252.9,125.5L253.45,121.85L253.99,124.03L254.53,121.6L255.07,129.66L255.61,145.19L256.15,143.28L256.69,125.2L257.77,119.89L258.31,121.02L258.85,126.67L259.39,142.6L259.93,143.65L260.47,122.69L261.55,118.1L262.09,121.71L262.63,126.38L263.17,142.1L263.71,142.65L264.25,123.09L264.79,119.78L265.33,128.18L265.87,133.87L266.41,122.12L267.5,143.11L268.04,120.49L268.58,111.2L269.12,122.01L269.66,139.6L270.2,129.71L271.28,141.45L271.82,132.9L272.9,113.89L273.44,116.53L273.98,123.24L274.52,142.91L275.06,139.86L275.6,116.09L276.14,116.42L276.68,121.78L277.22,111.65L277.76,121.01L278.3,138.85L278.84,138.41L279.38,96.24L280.46,121.71L281.01,122.55L282.09,145.59L282.63,145.55L283.17,127.42L283.71,137.48L284.25,130L284.79,128.69L285.33,133.96L285.87,149.08L286.41,147.75L286.95,129.7L288.03,133.73L288.57,131.43L289.65,152.45L290.19,152.41L290.73,136.72L291.27,132.69L291.81,133.6L292.35,139.74L292.89,136.47L293.43,153.74L293.97,153.73L294.52,146.03L296.14,105.4L296.68,144.16L297.22,152.93L297.76,151.23L298.3,139.38L298.84,137.53L299.38,140.59L299.92,141.1L300.46,143.93L301.54,152.6L302.08,145.31L302.62,141.01L303.16,141.58L303.7,139.87L304.24,141.55L304.78,155.26L305.32,154.38L305.86,143.73L306.94,143.52L307.48,145.05L308.03,147.02L308.57,155.33L309.11,152.96L309.65,141.83L310.19,141.21L310.73,143.43L311.27,144.39L311.81,149.15L312.35,155.23L312.89,154.32L313.43,145.68L315.05,147.85L315.59,150.42L316.13,156.67L316.67,155.85L317.21,148.33L317.75,148.92L318.29,148.24L320.45,157.25L320.99,155.42L321.54,155.11L322.08,145.14L323.16,155.33L323.7,158.49L324.24,158.07L324.78,155.43L325.32,155.59L325.86,143.73L326.4,143.79L326.94,95.91L327.48,157.79L328.02,157.73L328.56,154.47L329.1,145.27L329.64,149.37L331.26,157.96L331.8,157.69L333.42,150.95L333.96,153.03L335.04,157.8L335.59,156.53L336.13,150.85L336.67,152.77L337.21,154.88L337.75,152.78L338.29,154.78L339.37,158.95L339.91,158.76L340.45,158.22L340.99,154.55L341.53,155.05L342.07,157.47L342.61,159.38L343.15,157.71L344.77,153.61L345.31,155.53L345.85,156.33L346.39,160.27L348.01,153.53L348.55,155.37L349.64,157.34L350.18,159.41L350.72,160.22L351.26,159.53L351.8,153.97L352.34,155.61L352.88,155.74L353.42,156.72L353.96,159.67L354.5,159.01L355.04,156.38L356.12,154.38L356.66,154.88L358.28,161.23L358.82,159.18L359.36,155.68L359.9,156.59L360.44,156.08L362.06,160.48L362.61,156.04L364.23,156.87L364.77,158.25L365.31,160.8L365.85,160.29L366.39,157.19L367.47,156.31L368.01,157.01L369.09,160.18L369.63,159.47L370.71,157.27L371.25,158.01L372.87,161.83L373.41,161.21L374.49,159.98L375.03,160.73L375.57,160.36L376.11,161.42L376.66,161.91L377.2,161.28L378.28,160.97L378.82,160.67L379.9,160.73L380.44,160.04L382.6,155.94L383.14,157.24L384.22,161.73L384.76,156.46L386.38,143.53L386.92,128.84L388,146.83L388.54,144.55L389.08,123.51L390.71,103.27L391.25,136.72L391.79,144.9L392.33,122.91L393.41,58.11L393.95,71.89L394.49,71.07L395.03,74.39L396.11,115.83L396.65,55.57L398.27,23.21L398.81,52.74L399.89,107.67L400.43,71.1L400.97,63.24L401.51,9.12L403.13,129.61L403.68,125.46L404.22,67.77L404.76,66.74L405.3,75.71L405.84,75.1L406.38,90.52L406.92,131.34L407.46,130.94L408,95.73L408.54,86.47L409.08,98.45L409.62,92.03L410.16,106.47L411.24,141.15L411.78,107.34L412.32,92.43L412.86,111.4L413.4,114.33L413.94,125.32L415.02,152.12L415.56,150.78L416.1,147.91L416.64,130.51L417.18,124.52L417.73,129.13L418.27,154.28L418.81,151.3L419.35,122.86L419.89,138.21L420.43,130.01L421.51,137.13L422.05,155.31L422.59,153.86L423.13,136.12L424.21,139.14L424.75,134.89L426.37,156.13L426.91,140.47L427.45,137.71L427.99,142.79L429.07,147L429.61,157L430.15,158.47L430.69,146.89L431.24,144.82L431.78,146.08L432.86,153.57L433.4,158.84L433.94,155.97L434.48,148.3L435.56,148.66L436.1,146.53L437.18,158.84L437.72,158.45L438.26,150.73L438.8,148.44L439.34,150.34L440.96,161.33L441.5,158.16L442.04,155.14L442.58,143.04L444.2,158.89L444.75,160.74L445.29,159.24L445.83,150.85L446.91,152.04L447.45,155.14L447.99,154.57L448.53,159.34L449.07,159.22L449.61,151.23L450.15,151.96L450.69,151.1L451.23,152.14L451.77,154.87L452.31,159.48L452.85,157.5L453.93,150.18L454.47,151.28L455.01,149L455.55,153.41L456.09,159.33L456.63,155.47L457.71,162.69L458.25,162.69L458.8,130.33L459.34,162.69L459.88,147.29L460.42,155.86L460.96,145.14L461.5,155L462.58,140.96L463.12,149.73L463.66,158.31L464.2,149.81L464.74,140.56L465.28,140.78L465.82,140.62L466.36,143.34L466.9,162.69L467.44,162.69L467.98,131.87L468.52,124.7L469.06,136.16L469.6,138.59L470.14,132.48L471.22,156.42L471.76,141.21L472.31,138.92L472.85,125.1L473.93,162.69L474.47,162.69L475.01,162.69L475.55,86.38L476.09,128.27L476.63,124.24L477.17,124.16L477.71,130.4L478.25,162.69L478.79,162.69L479.33,105.39L479.87,121.71L480.41,162.69L480.95,81.9L481.49,122.02L482.57,152.76L483.11,138.36L484.19,121.42L484.73,124.16L485.27,124.66L485.82,139.34L486.36,150.95L486.9,139.14L487.98,124.07L488.52,127.73L489.06,104.95L489.6,141.22L490.14,156.89L490.68,142L491.22,131.67L491.76,132.49L492.3,135.19L492.84,136.06L493.38,162.69L493.92,143.53L494.46,146.32L495,142.42L496.08,138.84L496.62,140.38L497.7,151.83L498.24,150.89L498.78,144.26L499.32,144.71L499.87,141.07L501.49,158.84L502.03,153.38L502.57,146.53L503.11,162.69L503.65,131.36L504.19,150.1L505.27,162.69L505.81,146.59L506.89,150.97L507.43,150.84L507.97,152.6L508.51,162.69L509.05,162.69L509.59,151.66L510.13,162.69L510.67,138.77L512.29,162.69L512.83,162.69L513.38,147.56L513.92,153.7L514.46,154.22L515,162.69L515.54,148.63L516.08,162.69L516.62,162.69L517.16,151.25L518.24,162.69L518.78,162.69L519.32,141.73L519.86,162.69L520.4,162.69L520.94,153.48L521.48,157.12L522.02,154.92L523.64,162.69L524.18,162.69L524.72,150.22L525.26,162.77L525.8,162.69L526.34,149.52L527.43,162.69L527.97,162.69L528.51,155.28L529.05,162.69L529.59,154.19L530.13,162.69L530.67,152.89L531.21,162.69L531.75,162.69L532.29,156.27L532.83,162.69L533.37,154.94L534.99,162.69L535.53,162.69L536.07,153.62L536.61,158.76L537.15,162.69L537.69,158.24L538.23,159.16L538.77,162.69L540.39,162.69L540.94,149.4L541.48,162.69L542.02,157.8L542.56,162.69L543.1,162.69L543.64,160.91L544.18,154.38L544.72,158.55L545.26,158.32L545.8,162.69L546.88,162.69L547.42,155.48L548.5,162.69L549.04,157.73L550.12,162.69L550.66,162.69L551.2,159.25L551.74,162.69L552.28,162.69L552.82,144.46L554.45,162.69L554.99,162.69L555.53,162.69L556.07,146.72L556.61,145.06L557.15,147.48L558.23,162.69L558.77,162.69L559.31,134.53L559.85,146.71L560.39,150.28L560.93,139.02L562.01,162.69L562.55,162.69L563.09,120.93L563.63,162.69L564.17,122.83L564.71,143.76L565.79,162.69L566.33,131.33L567.41,162.69L567.96,90.21L569.04,162.69L569.58,162.69L570.12,102.76L570.66,134.27L571.2,133.55L571.74,131.45L572.28,130.77L572.82,162.69L573.36,162.69L573.9,122.29L574.98,139.87L575.52,136.81L576.6,162.69L577.14,162.69L577.68,110.52L578.22,143.49L578.76,142.14L579.3,142.53L579.84,147.25L580.92,162.69L581.46,146.07L582.01,162.69L582.55,130.19L583.09,162.69L583.63,133.77L584.71,162.69L585.25,162.69L585.79,122.46L586.33,148.56L586.87,152.49L587.41,150.69L588.49,160.8L589.03,155.91L589.57,149.52L590.11,156.05L590.65,162.69L591.19,143.97L592.27,162.4L592.81,155.81L593.35,151.73L593.89,153.46L594.43,162.69L594.97,150.61L595.52,162.69L596.06,161.09L596.6,155.44L597.14,153.73L597.68,155.55L598.22,162.69L598.76,147.54L599.84,162.69L600.38,156.61L602,158.67" style="vector-effect: non-scaling-stroke; fill: none; stroke: rgb(31, 119, 180); stroke-opacity: 1; stroke-width: 2px; opacity: 1;"/></g><g class="points"/><g class="text"/></g></g></g><g class="overplot"/><path class="xlines-above crisp" style="fill: none;" d="M0,0"/><path class="ylines-above crisp" style="fill: none;" d="M0,0"/><g class="overlines-above"/><g class="xaxislayer-above"><g class="xtick"><text text-anchor="middle" x="0" y="255.4" transform="translate(145,0)" style="font-family: 'Open Sans', verdana, arial, sans-serif; font-size: 12px; fill: rgb(68, 68, 68); fill-opacity: 1; white-space: pre; opacity: 1;">Jul 2020</text></g><g class="xtick"><text text-anchor="middle" x="0" y="255.4" style="font-family: 'Open Sans', verdana, arial, sans-serif; font-size: 12px; fill: rgb(68, 68, 68); fill-opacity: 1; white-space: pre; opacity: 1;" transform="translate(244.44,0)">Jan 2021</text></g><g class="xtick"><text text-anchor="middle" x="0" y="255.4" style="font-family: 'Open Sans', verdana, arial, sans-serif; font-size: 12px; fill: rgb(68, 68, 68); fill-opacity: 1; white-space: pre; opacity: 1;" transform="translate(342.25,0)">Jul 2021</text></g><g class="xtick"><text text-anchor="middle" x="0" y="255.4" style="font-family: 'Open Sans', verdana, arial, sans-serif; font-size: 12px; fill: rgb(68, 68, 68); fill-opacity: 1; white-space: pre; opacity: 1;" transform="translate(441.68,0)">Jan 2022</text></g><g class="xtick"><text text-anchor="middle" x="0" y="255.4" style="font-family: 'Open Sans', verdana, arial, sans-serif; font-size: 12px; fill: rgb(68, 68, 68); fill-opacity: 1; white-space: pre; opacity: 1;" transform="translate(539.49,0)">Jul 2022</text></g><g class="xtick"><text text-anchor="middle" x="0" y="255.4" style="font-family: 'Open Sans', verdana, arial, sans-serif; font-size: 12px; fill: rgb(68, 68, 68); fill-opacity: 1; white-space: pre; opacity: 1;" transform="translate(638.92,0)">Jan 2023</text></g></g><g class="yaxislayer-above"><g class="ytick"><text text-anchor="end" x="57" y="4.199999999999999" transform="translate(0,222.69)" style="font-family: 'Open Sans', verdana, arial, sans-serif; font-size: 12px; fill: rgb(68, 68, 68); fill-opacity: 1; white-space: pre; opacity: 1;">0</text></g><g class="ytick"><text text-anchor="end" x="57" y="4.199999999999999" style="font-family: 'Open Sans', verdana, arial, sans-serif; font-size: 12px; fill: rgb(68, 68, 68); fill-opacity: 1; white-space: pre; opacity: 1;" transform="translate(0,169.20999999999998)">100k</text></g><g class="ytick"><text text-anchor="end" x="57" y="4.199999999999999" style="font-family: 'Open Sans', verdana, arial, sans-serif; font-size: 12px; fill: rgb(68, 68, 68); fill-opacity: 1; white-space: pre; opacity: 1;" transform="translate(0,115.72999999999999)">200k</text></g><g class="ytick"><text text-anchor="end" x="57" y="4.199999999999999" style="font-family: 'Open Sans', verdana, arial, sans-serif; font-size: 12px; fill: rgb(68, 68, 68); fill-opacity: 1; white-space: pre; opacity: 1;" transform="translate(0,62.25)">300k</text></g></g><g class="overaxes-above"/></g><g class="subplot x2y2"><g class="layer-subplot"><g class="shapelayer"/><g class="imagelayer"/></g><g class="gridlayer"><g class="x2"><path class="x2grid crisp" transform="translate(145,0)" d="M0,257.6v182.4" style="stroke: rgb(238, 238, 238); stroke-opacity: 1; stroke-width: 1px;"/><path class="x2grid crisp" transform="translate(244.44,0)" d="M0,257.6v182.4" style="stroke: rgb(238, 238, 238); stroke-opacity: 1; stroke-width: 1px;"/><path class="x2grid crisp" transform="translate(342.25,0)" d="M0,257.6v182.4" style="stroke: rgb(238, 238, 238); stroke-opacity: 1; stroke-width: 1px;"/><path class="x2grid crisp" transform="translate(441.68,0)" d="M0,257.6v182.4" style="stroke: rgb(238, 238, 238); stroke-opacity: 1; stroke-width: 1px;"/><path class="x2grid crisp" transform="translate(539.49,0)" d="M0,257.6v182.4" style="stroke: rgb(238, 238, 238); stroke-opacity: 1; stroke-width: 1px;"/><path class="x2grid crisp" transform="translate(638.92,0)" d="M0,257.6v182.4" style="stroke: rgb(238, 238, 238); stroke-opacity: 1; stroke-width: 1px;"/></g><g class="y2"><path class="y2grid crisp" transform="translate(0,388.92)" d="M58,0h602" style="stroke: rgb(238, 238, 238); stroke-opacity: 1; stroke-width: 1px;"/><path class="y2grid crisp" transform="translate(0,350.1)" d="M58,0h602" style="stroke: rgb(238, 238, 238); stroke-opacity: 1; stroke-width: 1px;"/><path class="y2grid crisp" transform="translate(0,311.28000000000003)" d="M58,0h602" style="stroke: rgb(238, 238, 238); stroke-opacity: 1; stroke-width: 1px;"/><path class="y2grid crisp" transform="translate(0,272.47)" d="M58,0h602" style="stroke: rgb(238, 238, 238); stroke-opacity: 1; stroke-width: 1px;"/></g></g><g class="zerolinelayer"><path class="y2zl zl crisp" transform="translate(0,427.74)" d="M58,0h602" style="stroke: rgb(68, 68, 68); stroke-opacity: 1; stroke-width: 1px;"/></g><path class="xlines-below"/><path class="ylines-below"/><g class="overlines-below"/><g class="xaxislayer-below"/><g class="yaxislayer-below"/><g class="overaxes-below"/><g class="plot" transform="translate(58,257.6)" clip-path="url(#clip922752x2y2plot)"><g class="scatterlayer mlayer"><g class="trace scatter trace07faeb" style="stroke-miterlimit: 2; opacity: 1;"><g class="fills"/><g class="errorbars"/><g class="lines"><path class="js-line" d="M0,170.14L35.67,169.4L36.21,169.17L36.75,169.24L37.29,168.51L37.83,168.62L38.37,166.88L38.91,168.78L39.45,166.8L39.99,168.54L40.53,167.11L41.61,164.97L42.15,165.05L43.23,167.53L43.77,166.29L44.31,166.06L44.85,162.22L45.93,162.84L46.47,161.71L47.01,161.87L47.55,165.94L49.18,163.73L49.72,153.64L51.34,161.25L51.88,157.83L52.42,151.5L52.96,153.44L53.5,151L55.12,158.88L55.66,157.87L56.74,144.9L57.28,146.77L57.82,138.03L58.36,145.33L58.9,152.01L59.44,149.56L59.98,138.77L61.06,140.67L61.61,132.75L62.69,152.43L63.23,141.6L63.77,126.27L64.31,128.37L64.85,128.64L65.39,130.11L65.93,129.53L66.47,144.59L67.01,141.92L67.55,129.22L68.09,128.95L68.63,123.94L69.17,126L69.71,136.6L70.25,151.85L70.79,141.37L71.33,117.15L71.87,123.79L72.41,111.52L74.03,151.66L74.57,136.64L75.66,122.08L76.2,120.91L76.74,137.41L77.28,136.87L77.82,145.53L78.36,140.48L78.9,118.43L79.44,124.14L79.98,122.04L80.52,124.64L81.6,147.51L82.14,140.56L82.68,115.56L83.22,127.28L83.76,124.33L84.3,131.59L84.84,130.11L85.38,147.08L85.92,142.11L86.46,119.01L87,127.98L87.54,121.26L88.08,123.05L88.62,128.99L89.17,148.48L89.71,143.55L90.25,119.67L90.79,124.6L91.33,122.7L91.87,119.75L92.95,146.19L93.49,137.72L94.03,119.91L94.57,120.45L95.11,119.71L96.73,142.65L97.27,140.32L97.81,119.01L98.35,119.83L98.89,119.17L99.97,127.48L100.51,147.58L101.05,143.55L101.59,121.3L102.68,123.48L103.22,120.95L104.3,149.8L104.84,146.77L105.38,117.42L105.92,117.11L106.46,122.55L107.54,138.03L108.08,148.05L109.16,123.79L109.7,124.18L110.24,121.92L111.86,147.35L112.4,139.24L112.94,117.65L113.48,124.99L114.02,122.12L115.64,152.47L116.18,142.07L116.73,123.44L117.27,128.25L117.81,131.9L118.35,137.18L118.89,135.32L119.43,154.57L121.05,123.4L121.59,136.48L122.13,137.18L122.67,146.69L123.75,157.71L124.29,149.76L124.83,125.22L125.37,132.33L125.91,137.22L126.45,140.36L126.99,154.41L127.53,152.36L128.07,128.14L130.24,143.7L130.78,156.51L131.32,152.05L131.86,139.31L132.4,133.96L132.94,139.28L133.48,138.23L134.02,142.11L134.56,156.98L135.1,154.96L135.64,136.83L136.18,132.02L136.72,140.13L138.34,156.24L138.88,154.88L139.42,138.69L141.58,149.41L142.12,159.34L142.66,162.61L143.2,155.46L144.29,138.54L144.83,145.18L145.91,161.01L146.45,157.48L146.99,144.98L147.53,147.97L148.07,150.53L148.61,148.28L149.15,155.11L149.69,161.09L150.23,158.41L150.77,149.72L151.31,150.57L151.85,148.75L152.39,147.89L152.93,158.8L154.01,163.73L154.55,158.96L155.09,146.15L155.63,146.73L156.17,159.62L157.8,162.92L158.34,162.45L159.42,133.92L159.96,147.78L160.5,141.64L161.04,164.7L161.58,160.16L162.12,143.82L162.66,140.87L163.2,144.9L164.82,163.23L165.36,156.36L165.9,145.8L166.44,145.95L166.98,142.58L168.6,161.09L169.14,156.51L169.68,143.55L170.22,143.78L170.76,140.6L171.85,145.02L172.39,156.94L172.93,153.64L173.47,139.16L174.01,137.02L174.55,140.28L175.09,144.48L175.63,143.86L176.17,158.68L177.79,133.61L178.33,128.95L179.95,153.87L180.49,148.36L181.03,132.52L181.57,132.68L182.11,140.63L183.19,158.65L183.73,157.05L184.27,149.25L184.82,129.34L185.36,122.89L185.9,130.7L186.98,158.76L187.52,158.06L189.68,111.21L190.22,128.17L190.76,130.97L191.3,151.12L191.84,151.08L192.38,126.47L192.92,121.07L193.46,125.34L194,126.08L194.54,130.77L195.62,151.66L196.16,125.11L196.7,115.99L197.24,117.85L197.78,128.56L198.32,125.69L198.87,147.04L199.41,143.35L199.95,125.3L201.03,114.32L201.57,127.94L202.11,123.87L202.65,148.09L203.19,145.95L203.73,121.19L204.27,123.59L204.81,120.6L205.35,121.57L205.89,133.76L206.43,151.15L206.97,142.15L208.05,117.3L208.59,114.16L210.75,146.42L211.29,127.75L211.83,123.98L212.38,114.28L212.92,118.47L213.46,130.11L214,146.61L214.54,142.54L215.08,117.38L216.16,109L216.7,118L217.24,121.54L217.78,140.13L218.32,137.99L218.86,103.33L219.4,98.4L219.94,99.95L220.48,103.6L221.56,127.51L222.1,126.58L222.64,94.4L223.18,77.71L223.72,84.93L224.8,94.21L225.34,128.6L225.89,118.35L226.43,59.51L226.97,66.84L227.51,64.4L228.05,67.04L228.59,78.22L229.13,121.73L229.67,107.91L230.21,47.98L230.75,80.2L231.29,67.11L231.83,33.89L232.37,37.81L232.91,108.73L233.45,92L233.99,28.26L234.53,17.78L235.07,28.26L236.69,121.92L237.23,95.92L237.77,12.23L238.31,27.64L238.85,9.12L239.39,24.49L239.94,77.83L241.02,103.72L241.56,24.3L242.1,36.41L242.64,34.62L243.18,40.6L243.72,58.46L244.26,111.06L244.8,101.97L245.34,40.21L245.88,46.04L246.42,90.52L246.96,52.05L247.5,62.77L248.04,118.35L248.58,116.57L249.12,50.54L249.66,53.22L250.2,52.44L250.74,59.08L252.36,126.47L252.9,54.5L255.07,89.32L255.61,134.35L256.15,127.01L256.69,82.99L257.23,69.95L257.77,81.75L258.85,92.46L259.39,128.95L259.93,128.02L260.47,74.99L261.55,72.66L262.09,87.61L263.71,136.67L264.25,85.36L264.79,74.53L265.33,88.58L265.87,75.96L266.41,94.79L266.96,134.7L267.5,132.64L268.04,79.54L268.58,72.78L269.12,95.84L269.66,123.9L270.2,105.31L270.74,135.98L271.28,125.53L271.82,67.35L272.36,77.28L272.9,72.9L273.98,93.51L274.52,126.66L275.06,130.54L275.6,65.91L276.14,65.25L276.68,80.31L277.22,74.02L277.76,84.54L278.84,132.06L279.38,88.5L279.92,82.21L280.46,91.03L281.01,92.19L281.55,111.25L282.63,142.42L283.17,94.91L283.71,90.02L284.25,95.14L284.79,97.31L285.33,106.63L285.87,140.21L286.41,139.51L286.95,101.86L287.49,108.61L288.03,103.1L289.11,125.18L289.65,148.2L290.19,139.78L290.73,105.74L291.27,110.51L291.81,107.68L292.89,120.8L293.43,151.46L293.97,144.21L294.52,116.61L295.6,114.59L296.14,120.02L296.68,128.17L297.22,151.54L297.76,145.87L298.3,120.1L298.84,116.84L299.38,118.08L299.92,135.78L300.46,133.3L301,154.03L301.54,149.02L302.08,122.12L303.7,132.91L304.24,131.36L304.78,155.04L305.32,150.42L305.86,120.91L307.48,135.51L308.03,134.73L308.57,155.04L309.11,154.07L309.65,127.67L311.27,135.43L311.81,146.42L312.35,157.21L312.89,153.95L313.43,136.79L313.97,135.7L314.51,136.33L315.05,138.38L315.59,145.72L316.13,159.34L316.67,157.79L317.21,135.94L317.75,143.08L318.29,139.78L319.37,145.37L319.91,159.62L320.45,161.6L320.99,157.44L321.54,160.47L322.08,138.15L324.24,159.11L324.78,143.82L325.32,139.04L325.86,144.4L326.94,147.39L327.48,160.51L328.02,159.85L328.56,144.01L329.1,144.32L329.64,145.72L330.18,143.74L330.72,149.17L331.8,162.61L332.34,138.42L335.04,161.36L335.59,162.22L336.13,143.58L336.67,148.01L337.21,153.52L337.75,145.68L338.29,153.99L338.83,164.27L339.37,162.1L339.91,163.34L340.45,162.14L340.99,147.93L342.07,152.09L342.61,165.17L344.77,152.05L345.31,152.78L346.39,165.52L346.93,162.1L348.01,153.25L348.55,155.66L349.1,154.3L349.64,161.75L350.72,166.14L351.26,164.24L351.8,162.76L352.34,153.29L353.42,158.37L353.96,167.42L355.58,159.69L356.12,160.82L356.66,146.03L357.2,158.22L357.74,167.61L358.28,167.42L358.82,164.58L359.36,155.5L359.9,159.58L360.98,162.1L361.52,166.41L362.06,165.24L362.61,158.68L363.15,159.62L363.69,158.96L364.23,158.3L364.77,161.32L365.31,167.03L365.85,165.56L366.39,157.48L367.47,162.53L368.01,161.05L369.09,167.38L369.63,165.01L370.17,160L370.71,160.82L371.25,162.37L371.79,161.29L372.33,168.08L372.87,166.95L373.41,168.39L373.95,165.75L374.49,158.57L375.03,165.36L375.57,162.45L376.66,168L377.2,166.91L377.74,167.38L378.28,164.47L378.82,165.24L379.36,163.81L379.9,168.93L380.44,168.35L380.98,167.61L381.52,163.11L382.06,165.59L382.6,164.16L383.14,166.84L384.22,168.82L384.76,167.34L385.3,163.11L385.84,170.14L386.38,170.14L386.92,163.61L387.46,165.67L388,157.95L388.54,165.67L389.08,164.66L389.62,164.93L390.71,161.09L391.25,163.54L391.79,166.49L392.33,164.27L392.87,157.52L393.41,157.64L393.95,156.51L394.49,154.65L395.03,157.87L395.57,163.19L396.11,159.81L397.73,144.01L398.27,139.86L398.81,142.96L399.35,159.27L401.51,131.32L402.05,132.72L402.59,137.92L403.13,153.87L403.68,153.37L404.22,124.64L404.76,119.56L405.3,134.54L405.84,126.31L406.38,136.02L406.92,157.44L407.46,151.58L408,134.23L409.62,124.18L410.16,136.95L411.24,157.48L411.78,138.42L412.86,131.75L413.4,139.35L413.94,143.43L414.48,160.31L415.56,160.59L416.1,157.25L417.18,143.04L417.73,143.2L418.81,161.98L419.35,151.27L419.89,145.56L420.43,146.34L420.97,152.16L421.51,154.96L422.05,165.28L424.21,152.2L424.75,154.41L426.37,166.25L426.91,154.22L427.45,159.23L427.99,157.95L428.53,160.24L430.15,167.5L430.69,159.23L432.32,160.7L432.86,166.02L433.4,168.62L433.94,163.92L435.56,160.51L436.1,164.35L437.18,168.66L437.72,167.69L438.26,163.73L438.8,163.81L439.34,164.74L439.88,165.83L440.42,168.93L440.96,169.28L441.5,167.65L442.58,159.93L443.12,166.56L444.2,168.08L444.75,168.74L445.83,164.55L446.37,160.74L446.91,165.71L447.45,162.95L448.53,169.51L449.07,166.8L449.61,166.56L450.15,167.65L451.23,162.57L451.77,168.78L452.31,169.63L452.85,168.12L453.39,162.45L453.93,165.24L455.01,164.78L455.55,166.56L457.17,170.14L457.71,170.14L458.25,170.14L458.8,150.49L459.34,170.21L459.88,164.93L460.42,168.7L460.96,160.9L461.5,165.01L462.04,173.28L462.58,164.74L463.66,167.73L464.2,167.69L464.74,163.92L465.28,165.28L465.82,165.13L466.9,170.14L467.44,170.14L467.98,167.42L468.52,158.22L469.06,158.53L469.6,164.58L470.14,163.54L470.68,165.71L471.22,168.74L471.76,167.42L472.85,156.98L473.39,170.14L475.01,170.14L475.55,151.97L476.63,164.7L477.17,155.97L477.71,157.17L478.25,170.14L478.79,170.14L479.33,158.37L479.87,157.87L480.41,170.14L480.95,148.09L481.49,159.11L482.57,168.08L483.11,165.4L483.65,154.76L484.19,156.12L484.73,159.15L485.27,159.81L485.82,161.79L486.36,167.96L486.9,164.39L487.98,155.39L488.52,158.61L489.06,158.06L489.6,162.18L490.14,168L490.68,163.61L491.22,156.43L491.76,156.7L492.3,159.69L492.84,159.27L493.38,170.14L495,156.51L495.54,158.1L497.16,163.42L497.7,169.05L498.78,158.68L499.32,159.85L499.87,160L500.41,161.52L500.95,163.11L501.49,167.92L502.57,155.97L503.11,170.14L503.65,151.7L504.19,160.55L505.27,170.14L505.81,158.34L506.35,162.14L506.89,160.55L507.97,164.62L508.51,170.14L509.05,170.14L509.59,162.72L510.13,170.14L510.67,149.68L511.21,164.04L511.75,163.77L512.29,170.14L512.83,170.14L513.38,161.4L513.92,161.25L514.46,165.71L515,170.14L515.54,158.61L516.62,170.14L517.16,163.81L518.24,170.14L518.78,170.14L519.32,155.07L519.86,170.14L520.4,170.14L520.94,166.84L522.02,165.52L522.56,166.95L523.64,170.14L524.18,170.14L524.72,161.56L525.26,169.98L525.8,170.14L526.34,160.47L527.43,170.14L527.97,170.14L528.51,166.84L529.05,170.14L529.59,166.56L530.13,170.14L530.67,165.9L531.21,170.14L531.75,170.14L532.29,157.13L532.83,170.14L533.37,162.29L534.99,170.14L535.53,170.14L536.07,163.5L536.61,166.8L537.15,170.14L537.69,166.02L539.31,170.14L539.85,170.14L540.39,170.14L540.94,159.31L541.48,170.14L542.02,166.1L542.56,170.14L543.1,170.14L543.64,168.31L544.72,162.49L545.26,168L546.34,170.14L546.88,170.14L547.42,162.57L547.96,167.73L548.5,170.14L549.04,168.27L549.58,167.61L550.12,170.14L550.66,170.14L551.2,167.69L552.28,170.14L552.82,161.91L553.9,170.14L554.45,170.14L555.53,170.14L556.07,165.94L558.23,170.14L558.77,170.14L559.31,160.51L559.85,165.59L560.39,167.42L560.93,166.25L562.01,170.14L562.55,170.14L563.09,161.48L563.63,170.14L564.17,159.27L564.71,165.13L565.79,170.14L566.33,164.12L567.41,170.14L567.96,152.75L569.04,170.14L569.58,170.14L570.12,157.02L570.66,163.81L571.2,159.62L571.74,162.26L572.28,164L572.82,170.14L573.36,170.14L573.9,161.17L574.44,160.86L574.98,163.11L575.52,162.72L576.06,170.14L577.14,170.14L577.68,157.83L578.22,161.21L578.76,156.04L580.38,170.14L580.92,170.14L581.46,165.17L582.01,170.14L582.55,153.44L583.09,170.14L583.63,155.85L584.17,170.14L585.25,170.14L585.79,162.14L586.33,166.14L586.87,164.39L588.49,170.06L589.03,167.53L589.57,165.71L590.11,166.6L590.65,170.14L591.19,147.89L592.27,170.02L592.81,167.53L593.35,163.89L593.89,165.56L594.43,170.14L594.97,164.74L595.52,170.14L596.06,169.48L596.6,164.97L597.14,163.07L597.68,165.24L598.22,170.14L598.76,164.2L599.84,170.14L600.38,167.26L601.46,166.53L602,168.7" style="vector-effect: non-scaling-stroke; fill: none; stroke: rgb(255, 0, 0); stroke-opacity: 1; stroke-width: 2px; opacity: 1;"/></g><g class="points"/><g class="text"/></g></g></g><g class="overplot"/><path class="xlines-above crisp" style="fill: none;" d="M0,0"/><path class="ylines-above crisp" style="fill: none;" d="M0,0"/><g class="overlines-above"/><g class="xaxislayer-above"><g class="x2tick"><text text-anchor="middle" x="0" y="453" transform="translate(145,0)" style="font-family: 'Open Sans', verdana, arial, sans-serif; font-size: 12px; fill: rgb(68, 68, 68); fill-opacity: 1; white-space: pre; opacity: 1;">Jul 2020</text></g><g class="x2tick"><text text-anchor="middle" x="0" y="453" style="font-family: 'Open Sans', verdana, arial, sans-serif; font-size: 12px; fill: rgb(68, 68, 68); fill-opacity: 1; white-space: pre; opacity: 1;" transform="translate(244.44,0)">Jan 2021</text></g><g class="x2tick"><text text-anchor="middle" x="0" y="453" style="font-family: 'Open Sans', verdana, arial, sans-serif; font-size: 12px; fill: rgb(68, 68, 68); fill-opacity: 1; white-space: pre; opacity: 1;" transform="translate(342.25,0)">Jul 2021</text></g><g class="x2tick"><text text-anchor="middle" x="0" y="453" style="font-family: 'Open Sans', verdana, arial, sans-serif; font-size: 12px; fill: rgb(68, 68, 68); fill-opacity: 1; white-space: pre; opacity: 1;" transform="translate(441.68,0)">Jan 2022</text></g><g class="x2tick"><text text-anchor="middle" x="0" y="453" style="font-family: 'Open Sans', verdana, arial, sans-serif; font-size: 12px; fill: rgb(68, 68, 68); fill-opacity: 1; white-space: pre; opacity: 1;" transform="translate(539.49,0)">Jul 2022</text></g><g class="x2tick"><text text-anchor="middle" x="0" y="453" style="font-family: 'Open Sans', verdana, arial, sans-serif; font-size: 12px; fill: rgb(68, 68, 68); fill-opacity: 1; white-space: pre; opacity: 1;" transform="translate(638.92,0)">Jan 2023</text></g></g><g class="yaxislayer-above"><g class="y2tick"><text text-anchor="end" x="57" y="4.199999999999999" transform="translate(0,427.74)" style="font-family: 'Open Sans', verdana, arial, sans-serif; font-size: 12px; fill: rgb(68, 68, 68); fill-opacity: 1; white-space: pre; opacity: 1;">0</text></g><g class="y2tick"><text text-anchor="end" x="57" y="4.199999999999999" style="font-family: 'Open Sans', verdana, arial, sans-serif; font-size: 12px; fill: rgb(68, 68, 68); fill-opacity: 1; white-space: pre; opacity: 1;" transform="translate(0,388.92)">1000</text></g><g class="y2tick"><text text-anchor="end" x="57" y="4.199999999999999" style="font-family: 'Open Sans', verdana, arial, sans-serif; font-size: 12px; fill: rgb(68, 68, 68); fill-opacity: 1; white-space: pre; opacity: 1;" transform="translate(0,350.1)">2000</text></g><g class="y2tick"><text text-anchor="end" x="57" y="4.199999999999999" style="font-family: 'Open Sans', verdana, arial, sans-serif; font-size: 12px; fill: rgb(68, 68, 68); fill-opacity: 1; white-space: pre; opacity: 1;" transform="translate(0,311.28000000000003)">3000</text></g><g class="y2tick"><text text-anchor="end" x="57" y="4.199999999999999" style="font-family: 'Open Sans', verdana, arial, sans-serif; font-size: 12px; fill: rgb(68, 68, 68); fill-opacity: 1; white-space: pre; opacity: 1;" transform="translate(0,272.47)">4000</text></g></g><g class="overaxes-above"/></g></g><g class="polarlayer"/><g class="smithlayer"/><g class="ternarylayer"/><g class="geolayer"/><g class="funnelarealayer"/><g class="pielayer"/><g class="iciclelayer"/><g class="treemaplayer"/><g class="sunburstlayer"/><g class="glimages"/><defs id="topdefs-922752"><g class="clips"/><clipPath id="legend922752"><rect width="108" height="48" x="0" y="0"/></clipPath></defs><g class="layer-above"><g class="imagelayer"/><g class="shapelayer"/></g><g class="infolayer"><g class="legend" pointer-events="all" transform="translate(88.1,60)"><rect class="bg" shape-rendering="crispEdges" style="stroke: rgb(68, 68, 68); stroke-opacity: 1; fill: rgb(255, 255, 255); fill-opacity: 1; stroke-width: 0px;" width="108" height="48" x="0" y="0"/><g class="scrollbox" transform="" clip-path="url(#legend922752)"><g class="groups"><g class="traces" style="opacity: 1;" transform="translate(0,14.5)"><text class="legendtext" text-anchor="start" x="40" y="4.680000000000001" style="font-family: 'Open Sans', verdana, arial, sans-serif; font-size: 12px; fill: rgb(68, 68, 68); fill-opacity: 1; white-space: pre;">Confirmed</text><g class="layers" style="opacity: 1;"><g class="legendfill"/><g class="legendlines"><path class="js-line" d="M5,0h30" style="fill: none; stroke: rgb(31, 119, 180); stroke-opacity: 1; stroke-width: 2px;"/></g><g class="legendsymbols"><g class="legendpoints"/></g></g><rect class="legendtoggle" x="0" y="-9.5" width="102.1875" height="19" style="fill: rgb(0, 0, 0); fill-opacity: 0;"/></g><g class="traces" style="opacity: 1;" transform="translate(0,33.5)"><text class="legendtext" text-anchor="start" x="40" y="4.680000000000001" style="font-family: 'Open Sans', verdana, arial, sans-serif; font-size: 12px; fill: rgb(68, 68, 68); fill-opacity: 1; white-space: pre;">Death</text><g class="layers" style="opacity: 1;"><g class="legendfill"/><g class="legendlines"><path class="js-line" d="M5,0h30" style="fill: none; stroke: rgb(255, 0, 0); stroke-opacity: 1; stroke-width: 2px;"/></g><g class="legendsymbols"><g class="legendpoints"/></g></g><rect class="legendtoggle" x="0" y="-9.5" width="102.1875" height="19" style="fill: rgb(0, 0, 0); fill-opacity: 0;"/></g></g></g><rect class="scrollbar" rx="20" ry="3" width="0" height="0" style="fill: rgb(128, 139, 164); fill-opacity: 1;" x="0" y="0"/></g><g class="g-gtitle"><text class="gtitle" x="350" y="30" text-anchor="middle" dy="0em" style="font-family: 'Open Sans', verdana, arial, sans-serif; font-size: 17px; fill: rgb(68, 68, 68); opacity: 1; font-weight: normal; white-space: pre;">Brazil - Daily Confirmed and Death Cases</text></g><g class="g-xtitle"/><g class="g-x2title"><text class="x2title" x="359" y="492" text-anchor="middle" style="font-family: 'Open Sans', verdana, arial, sans-serif; font-size: 14px; fill: rgb(68, 68, 68); opacity: 1; font-weight: normal; white-space: pre;">Source: Johns Hopkins University Center for Systems Science and Engineering</text></g><g class="g-ytitle"><text class="ytitle" transform="rotate(-90,20,151.2)" x="20" y="151.2" text-anchor="middle" style="font-family: 'Open Sans', verdana, arial, sans-serif; font-size: 14px; fill: rgb(68, 68, 68); opacity: 1; font-weight: normal; white-space: pre;">Cases</text></g><g class="g-y2title"><text class="y2title" transform="rotate(-90,20,348.8)" x="20" y="348.8" text-anchor="middle" style="font-family: 'Open Sans', verdana, arial, sans-serif; font-size: 14px; fill: rgb(68, 68, 68); opacity: 1; font-weight: normal; white-space: pre;">Cases</text></g></g></svg>