<svg class="main-svg" xmlns="http://www.w3.org/2000/svg" xmlns:xlink="http://www.w3.org/1999/xlink" width="700" height="500" style="" viewBox="0 0 700 500"><rect x="0" y="0" width="700" height="500" style="fill: rgb(255, 255, 255); fill-opacity: 1;"/><defs id="defs-bf1e4d"><g class="clips"><clipPath id="clipbf1e4dxyplot" class="plotclip"><rect width="602" height="182.4"/></clipPath><clipPath id="clipbf1e4dx2y2plot" class="plotclip"><rect width="602" height="182.4"/></clipPath><clipPath class="axesclip" id="clipbf1e4dx"><rect x="58" y="0" width="602" height="500"/></clipPath><clipPath class="axesclip" id="clipbf1e4dy"><rect x="0" y="60" width="700" height="182.4"/></clipPath><clipPath class="axesclip" id="clipbf1e4dxy"><rect x="58" y="60" width="602" height="182.4"/></clipPath><clipPath class="axesclip" id="clipbf1e4dy2"><rect x="0" y="257.6" width="700" height="182.4"/></clipPath><clipPath class="axesclip" id="clipbf1e4dxy2"><rect x="58" y="257.6" width="602" height="182.4"/></clipPath><clipPath class="axesclip" id="clipbf1e4dx2"><rect x="58" y="0" width="602" height="500"/></clipPath><clipPath class="axesclip" id="clipbf1e4dx2y"><rect x="58" y="60" width="602" height="182.4"/></clipPath><clipPath class="axesclip" id="clipbf1e4dx2y2"><rect x="58" y="257.6" width="602" height="182.4"/></clipPath></g><g class="gradients"/><g class="patterns"/></defs><g class="bglayer"/><g class="layer-below"><g class="imagelayer"/><g class="shapelayer"/></g><g class="cartesianlayer"><g class="subplot xy"><g class="layer-subplot"><g class="shapelayer"/><g class="imagelayer"/></g><g class="gridlayer"><g class="x"><path class="xgrid crisp" transform="translate(116.12,0)" d="M0,60v182.4" style="stroke: rgb(238, 238, 238); stroke-opacity: 1; stroke-width: 1px;"/><path class="xgrid crisp" transform="translate(191.69,0)" d="M0,60v182.4" style="stroke: rgb(238, 238, 238); stroke-opacity: 1; stroke-width: 1px;"/><path class="xgrid crisp" transform="translate(268.08000000000004,0)" d="M0,60v182.4" style="stroke: rgb(238, 238, 238); stroke-opacity: 1; stroke-width: 1px;"/><path class="xgrid crisp" transform="translate(344.47,0)" d="M0,60v182.4" style="stroke: rgb(238, 238, 238); stroke-opacity: 1; stroke-width: 1px;"/><path class="xgrid crisp" transform="translate(419.2,0)" d="M0,60v182.4" style="stroke: rgb(238, 238, 238); stroke-opacity: 1; stroke-width: 1px;"/><path class="xgrid crisp" transform="translate(494.76,0)" d="M0,60v182.4" style="stroke: rgb(238, 238, 238); stroke-opacity: 1; stroke-width: 1px;"/><path class="xgrid crisp" transform="translate(571.15,0)" d="M0,60v182.4" style="stroke: rgb(238, 238, 238); stroke-opacity: 1; stroke-width: 1px;"/><path class="xgrid crisp" transform="translate(647.54,0)" d="M0,60v182.4" style="stroke: rgb(238, 238, 238); stroke-opacity: 1; stroke-width: 1px;"/></g><g class="y"><path class="ygrid crisp" transform="translate(0,154.07999999999998)" d="M58,0h602" style="stroke: rgb(238, 238, 238); stroke-opacity: 1; stroke-width: 1px;"/><path class="ygrid crisp" transform="translate(0,97.35)" d="M58,0h602" style="stroke: rgb(238, 238, 238); stroke-opacity: 1; stroke-width: 1px;"/></g></g><g class="zerolinelayer"><path class="yzl zl crisp" transform="translate(0,210.82)" d="M58,0h602" style="stroke: rgb(68, 68, 68); stroke-opacity: 1; stroke-width: 1px;"/></g><path class="xlines-below"/><path class="ylines-below"/><g class="overlines-below"/><g class="xaxislayer-below"/><g class="yaxislayer-below"/><g class="overaxes-below"/><g class="plot" transform="translate(58,60)" clip-path="url(#clipbf1e4dxyplot)"><g class="scatterlayer mlayer"><g class="trace scatter trace297743" style="stroke-miterlimit: 2; opacity: 1;"><g class="fills"/><g class="errorbars"/><g class="lines"><path class="js-line" d="M0,150.82L56.46,150.45L57.29,149.53L62.28,149.65L63.11,148.69L64.77,148.64L65.6,149.06L66.43,149.58L67.26,149.16L68.09,149.41L68.92,148.74L69.75,147.35L70.58,148.43L71.41,147.12L72.24,147.44L73.9,148.45L74.73,148.17L75.56,147.78L76.39,145.96L77.22,146.27L78.05,144.83L78.88,146.53L79.71,145.89L82.2,142.31L83.03,145.13L84.7,145.46L85.53,143.11L86.36,143.06L87.19,138.16L88.02,140.42L88.85,138.2L90.51,143.29L91.34,142.99L93.83,136.03L94.66,131.39L96.32,142.23L97.15,134.61L97.98,132.08L98.81,125.02L99.64,130.24L100.47,126.07L102.13,134.4L102.96,136.29L104.62,127.9L105.45,118.66L106.28,120.31L107.11,114.14L107.94,135.81L108.78,133.63L109.61,114.87L110.44,121.22L111.27,114.56L112.1,114.39L113.76,130.41L114.59,131.14L116.25,112.48L117.08,118.26L119.57,131.76L120.4,122.89L121.23,108.85L122.06,115.73L122.89,121.86L123.72,87.21L124.55,78.74L125.38,173.28L127.04,105.97L127.87,104.26L128.7,103.77L129.53,99.89L132.02,126.37L132.86,105.79L133.69,97.69L134.52,100.44L135.35,101.98L136.18,112.73L137.01,122.23L137.84,123.07L138.67,97.83L139.5,99.47L140.33,102.07L141.16,100.54L142.82,123.97L143.65,124.84L144.48,102.11L145.31,105.27L146.14,101.25L146.97,111.54L148.63,124.25L149.46,125L151.12,75.76L151.95,85.77L152.78,86.25L153.61,96.88L154.44,125.09L155.27,119.03L156.1,89.54L156.94,87.9L157.77,84.94L158.6,90.38L161.09,128L161.92,86.95L162.75,87.08L163.58,89.56L165.24,98.18L166.07,125.03L166.9,120.74L167.73,93.49L169.39,81.93L170.22,94.76L171.88,124.71L172.71,123.13L173.54,94.92L174.37,95.67L176.03,114.14L176.86,98.73L177.69,126L178.52,124.14L179.35,98.27L180.18,96.18L181.02,102.87L181.85,100.79L182.68,108.5L183.51,134.33L184.34,93.83L185.17,100.52L186.83,97.7L187.66,105.95L188.49,112.4L189.32,134.17L190.15,140.02L190.98,129.5L192.64,104.57L193.47,103.69L195.13,134.91L195.96,127.43L197.62,108.5L198.45,109.51L199.28,105.74L200.11,117.28L200.94,133.3L201.77,130.81L202.6,111.14L203.43,113.68L204.26,114.49L205.1,114.16L206.76,135.17L207.59,131.67L208.42,113.55L209.25,113.49L210.08,110.22L210.91,113.58L212.57,140.93L213.4,121.26L214.23,115.05L215.06,115.71L215.89,120.37L216.72,119.35L217.55,123.88L218.38,136.98L219.21,141.02L220.04,135.66L221.7,116.29L222.53,118.37L224.19,137.14L225.02,132.01L226.68,121.48L227.51,122.72L228.34,116.78L229.18,122.47L230.01,136.91L230.84,129.7L231.67,116.8L232.5,118.65L234.16,123.18L234.99,135.87L236.65,141.46L237.48,134.27L238.31,124.36L239.14,123.76L240.8,130.68L241.63,138.9L242.46,135.6L243.29,98.14L244.12,121.04L244.95,112.33L245.78,106.88L246.61,121L247.44,135.04L248.27,132.95L249.1,110.55L249.93,111.38L250.76,110.13L251.59,106.83L253.26,130.48L254.09,130.21L255.75,100.18L256.58,104.43L257.41,112.8L258.24,92.4L259.07,126.98L259.9,123.93L260.73,91.83L261.56,95.81L262.39,93.93L263.22,96.73L264.88,120.83L265.71,120.15L267.37,88.87L268.2,90.06L269.03,91.19L269.86,102.79L270.69,125.82L271.52,119.75L273.18,75.79L274.01,72.87L276.5,123.04L277.34,119.45L278.17,86.52L279,98.99L279.83,84.77L280.66,126.78L281.49,130.92L282.32,130.83L283.15,119.69L283.98,86.85L285.64,89.01L286.47,124.79L287.3,133.4L288.13,131.31L288.96,122.41L289.79,84.91L290.62,79.89L291.45,51L293.11,92.5L293.94,117.88L294.77,115.93L295.6,77.72L296.43,82.93L297.26,73.29L298.09,72.41L298.92,84.5L299.75,115.17L300.58,117.99L301.42,80.3L302.25,77.66L303.91,86.59L304.74,84.67L305.57,118.46L306.4,116.18L308.06,77.32L308.89,81.87L309.72,83.3L310.55,90.55L311.38,119.16L312.21,118.49L313.04,86.96L313.87,89.07L314.7,86.02L315.53,92.17L316.36,98.27L317.19,121.13L318.02,118.38L318.85,92.7L319.68,81.48L320.51,89.99L322.17,99.92L323,115.96L323.83,121.53L324.66,76.74L325.5,97.23L326.33,90.14L327.16,91.64L327.99,91.39L328.82,117.36L329.65,114.68L330.48,78.67L331.31,76.62L332.14,73.34L332.97,78.88L333.8,84.53L334.63,112.96L335.46,104.99L336.29,83.08L337.95,64.56L338.78,68.55L339.61,74.9L340.44,58.13L341.27,109.31L342.1,69.92L342.93,58.38L343.76,63.37L344.59,57.24L345.42,71L346.25,101.52L347.08,100.54L347.91,53.64L348.74,50.23L349.58,51.05L350.41,50.67L352.07,96.98L352.9,87.31L354.56,47.67L355.39,39.32L356.22,59.65L357.05,58.11L358.71,102.46L359.54,52.73L360.37,50.14L361.2,51.22L363.69,114.15L364.52,102.4L365.35,54.22L366.18,50.18L367.84,50.84L368.67,75.3L369.5,106.37L370.33,105.83L371.16,57.02L371.99,66.16L372.82,70.05L373.66,55.06L376.15,109.38L376.98,68.39L377.81,66.86L378.64,96.23L379.47,72.21L380.3,78.45L381.13,112.65L381.96,114.06L382.79,64.76L383.62,63.13L384.45,72.96L385.28,69.11L386.11,84.67L386.94,117.58L387.77,106.58L388.6,71.92L389.43,64.16L390.26,68.79L391.09,63.62L391.92,80.74L392.75,113.69L393.58,109.63L395.24,64.3L396.07,60.01L396.9,62.41L397.74,74.4L398.57,108.19L399.4,110.43L401.06,59.74L401.89,56.2L403.55,73.78L404.38,107.14L405.21,108.29L406.04,66.8L406.87,59.76L407.7,77.6L408.53,89.67L409.36,64.74L411.02,109.28L411.85,61.28L412.68,41.57L413.51,64.51L414.34,101.83L415.17,80.84L416,105.04L416.83,105.75L419.32,47.28L420.15,52.88L420.98,67.11L421.82,108.85L422.65,102.38L423.48,51.94L424.31,52.64L425.14,64.02L425.97,42.52L426.8,62.39L427.63,100.23L428.46,99.29L429.29,9.83L430.12,63L431.78,65.65L432.61,81.98L433.44,114.53L434.27,114.44L435.1,75.98L435.93,97.33L437.59,78.68L438.42,89.85L439.25,121.93L440.08,119.12L440.91,80.83L441.74,89.35L442.57,89.38L443.4,84.49L445.06,129.09L445.9,128.99L447.56,87.17L448.39,89.09L449.22,102.12L450.05,95.18L450.88,131.82L451.71,131.8L453.37,87.46L454.2,95.58L455.03,29.27L455.86,111.5L456.69,130.1L457.52,126.49L459.18,97.43L460.01,103.93L460.84,105L461.67,111L463.33,129.4L464.16,113.94L464.99,104.82L465.82,106.02L466.65,102.4L467.48,105.96L468.31,135.05L469.14,133.18L469.98,110.58L470.81,110.6L471.64,110.13L472.47,113.38L473.3,117.57L474.13,135.2L474.96,130.18L475.79,106.56L476.62,105.24L477.45,109.95L478.28,112L479.11,122.09L479.94,134.99L480.77,133.06L481.6,114.72L482.43,116.8L483.26,115.73L484.09,119.32L484.92,124.78L485.75,138.04L486.58,136.29L487.41,120.36L488.24,121.6L489.07,120.15L490.73,127.76L491.56,136.45L492.39,139.28L493.22,135.38L494.06,134.73L494.89,113.57L496.55,135.2L497.38,141.9L498.21,141L499.04,135.42L499.87,135.75L500.7,110.6L501.53,110.72L502.36,9.12L503.19,140.41L504.02,140.28L504.85,133.37L505.68,113.85L509,140.77L509.83,140.21L510.66,131.66L511.49,131.66L512.32,125.91L513.15,130.32L514.81,140.43L515.64,137.75L516.47,125.69L517.3,129.77L518.14,134.23L518.97,129.79L521.46,142.88L522.29,142.47L523.12,141.32L523.95,133.53L524.78,134.59L525.61,139.74L526.44,143.8L527.27,140.24L528.93,132.99L529.76,131.54L531.42,137.31L532.25,145.67L534.74,131.39L535.57,135.29L536.4,136.43L537.23,139.46L538.89,145.57L539.72,144.1L540.55,132.31L541.38,135.79L542.22,136.07L543.05,138.14L543.88,144.39L544.71,143.01L546.37,133.82L547.2,133.19L548.03,134.25L548.86,140.2L550.52,147.71L551.35,143.37L552.18,135.94L553.01,137.88L553.84,136.78L554.67,141.5L556.33,146.12L557.16,136.7L558.82,136.88L559.65,138.47L561.31,146.81L562.14,145.72L563.8,136.88L564.63,137.28L565.46,138.77L566.3,142.41L567.13,145.49L567.96,143.99L568.79,139.32L569.62,139.32L571.28,142.8L572.11,147.77L572.94,148.99L573.77,147.67L575.43,145.06L576.26,146.66L577.09,145.87L577.92,148.12L578.75,149.16L579.58,147.82L580.41,146.58L581.24,147.16L582.9,146.64L583.73,146.65L585.39,142.93L586.22,140.55L587.05,139.74L587.88,136.5L588.71,139.26L589.54,146.53L590.38,148.77L591.21,137.59L593.7,110.17L594.53,79L596.19,117.17L597.02,112.33L598.68,51.11L599.51,39.68L600.34,24.74L601.17,95.71L602,113.06" style="vector-effect: non-scaling-stroke; fill: none; stroke: rgb(31, 119, 180); stroke-opacity: 1; stroke-width: 2px; opacity: 1;"/></g><g class="points"/><g class="text"/></g></g></g><g class="overplot"/><path class="xlines-above crisp" style="fill: none;" d="M0,0"/><path class="ylines-above crisp" style="fill: none;" d="M0,0"/><g class="overlines-above"/><g class="xaxislayer-above"><g class="xtick"><text text-anchor="middle" x="0" y="255.4" transform="translate(116.12,0)" style="font-family: 'Open Sans', verdana, arial, sans-serif; font-size: 12px; fill: rgb(68, 68, 68); fill-opacity: 1; white-space: pre; opacity: 1;">Apr 2020</text></g><g class="xtick"><text text-anchor="middle" x="0" y="255.4" style="font-family: 'Open Sans', verdana, arial, sans-serif; font-size: 12px; fill: rgb(68, 68, 68); fill-opacity: 1; white-space: pre; opacity: 1;" transform="translate(191.69,0)">Jul 2020</text></g><g class="xtick"><text text-anchor="middle" x="0" y="255.4" style="font-family: 'Open Sans', verdana, arial, sans-serif; font-size: 12px; fill: rgb(68, 68, 68); fill-opacity: 1; white-space: pre; opacity: 1;" transform="translate(268.08000000000004,0)">Oct 2020</text></g><g class="xtick"><text text-anchor="middle" x="0" y="255.4" style="font-family: 'Open Sans', verdana, arial, sans-serif; font-size: 12px; fill: rgb(68, 68, 68); fill-opacity: 1; white-space: pre; opacity: 1;" transform="translate(344.47,0)">Jan 2021</text></g><g class="xtick"><text text-anchor="middle" x="0" y="255.4" style="font-family: 'Open Sans', verdana, arial, sans-serif; font-size: 12px; fill: rgb(68, 68, 68); fill-opacity: 1; white-space: pre; opacity: 1;" transform="translate(419.2,0)">Apr 2021</text></g><g class="xtick"><text text-anchor="middle" x="0" y="255.4" style="font-family: 'Open Sans', verdana, arial, sans-serif; font-size: 12px; fill: rgb(68, 68, 68); fill-opacity: 1; white-space: pre; opacity: 1;" transform="translate(494.76,0)">Jul 2021</text></g><g class="xtick"><text text-anchor="middle" x="0" y="255.4" style="font-family: 'Open Sans', verdana, arial, sans-serif; font-size: 12px; fill: rgb(68, 68, 68); fill-opacity: 1; white-space: pre; opacity: 1;" transform="translate(571.15,0)">Oct 2021</text></g><g class="xtick"><text text-anchor="middle" x="0" y="255.4" style="font-family: 'Open Sans', verdana, arial, sans-serif; font-size: 12px; fill: rgb(68, 68, 68); fill-opacity: 1; white-space: pre; opacity: 1;" transform="translate(647.54,0)">Jan 2022</text></g></g><g class="yaxislayer-above"><g class="ytick"><text text-anchor="end" x="57" y="4.199999999999999" transform="translate(0,210.82)" style="font-family: 'Open Sans', verdana, arial, sans-serif; font-size: 12px; fill: rgb(68, 68, 68); fill-opacity: 1; white-space: pre; opacity: 1;">0</text></g><g class="ytick"><text text-anchor="end" x="57" y="4.199999999999999" style="font-family: 'Open Sans', verdana, arial, sans-serif; font-size: 12px; fill: rgb(68, 68, 68); fill-opacity: 1; white-space: pre; opacity: 1;" transform="translate(0,154.07999999999998)">50k</text></g><g class="ytick"><text text-anchor="end" x="57" y="4.199999999999999" style="font-family: 'Open Sans', verdana, arial, sans-serif; font-size: 12px; fill: rgb(68, 68, 68); fill-opacity: 1; white-space: pre; opacity: 1;" transform="translate(0,97.35)">100k</text></g></g><g class="overaxes-above"/></g><g class="subplot x2y2"><g class="layer-subplot"><g class="shapelayer"/><g class="imagelayer"/></g><g class="gridlayer"><g class="x2"><path class="x2grid crisp" transform="translate(116.12,0)" d="M0,257.6v182.4" style="stroke: rgb(238, 238, 238); stroke-opacity: 1; stroke-width: 1px;"/><path class="x2grid crisp" transform="translate(191.69,0)" d="M0,257.6v182.4" style="stroke: rgb(238, 238, 238); stroke-opacity: 1; stroke-width: 1px;"/><path class="x2grid crisp" transform="translate(268.08000000000004,0)" d="M0,257.6v182.4" style="stroke: rgb(238, 238, 238); stroke-opacity: 1; stroke-width: 1px;"/><path class="x2grid crisp" transform="translate(344.47,0)" d="M0,257.6v182.4" style="stroke: rgb(238, 238, 238); stroke-opacity: 1; stroke-width: 1px;"/><path class="x2grid crisp" transform="translate(419.2,0)" d="M0,257.6v182.4" style="stroke: rgb(238, 238, 238); stroke-opacity: 1; stroke-width: 1px;"/><path class="x2grid crisp" transform="translate(494.76,0)" d="M0,257.6v182.4" style="stroke: rgb(238, 238, 238); stroke-opacity: 1; stroke-width: 1px;"/><path class="x2grid crisp" transform="translate(571.15,0)" d="M0,257.6v182.4" style="stroke: rgb(238, 238, 238); stroke-opacity: 1; stroke-width: 1px;"/><path class="x2grid crisp" transform="translate(647.54,0)" d="M0,257.6v182.4" style="stroke: rgb(238, 238, 238); stroke-opacity: 1; stroke-width: 1px;"/></g><g class="y2"><path class="y2grid crisp" transform="translate(0,391.3)" d="M58,0h602" style="stroke: rgb(238, 238, 238); stroke-opacity: 1; stroke-width: 1px;"/><path class="y2grid crisp" transform="translate(0,351.73)" d="M58,0h602" style="stroke: rgb(238, 238, 238); stroke-opacity: 1; stroke-width: 1px;"/><path class="y2grid crisp" transform="translate(0,312.15000000000003)" d="M58,0h602" style="stroke: rgb(238, 238, 238); stroke-opacity: 1; stroke-width: 1px;"/><path class="y2grid crisp" transform="translate(0,272.58000000000004)" d="M58,0h602" style="stroke: rgb(238, 238, 238); stroke-opacity: 1; stroke-width: 1px;"/></g></g><g class="zerolinelayer"><path class="y2zl zl crisp" transform="translate(0,430.88)" d="M58,0h602" style="stroke: rgb(68, 68, 68); stroke-opacity: 1; stroke-width: 1px;"/></g><path class="xlines-below"/><path class="ylines-below"/><g class="overlines-below"/><g class="xaxislayer-below"/><g class="yaxislayer-below"/><g class="overaxes-below"/><g class="plot" transform="translate(58,257.6)" clip-path="url(#clipbf1e4dx2y2plot)"><g class="scatterlayer mlayer"><g class="trace scatter tracea6c011" style="stroke-miterlimit: 2; opacity: 1;"><g class="fills"/><g class="errorbars"/><g class="lines"><path class="js-line" d="M0,173.28L54.8,172.53L55.63,172.29L56.46,172.37L57.29,171.62L58.12,171.74L58.95,169.96L59.78,171.89L60.62,169.88L61.45,171.66L62.28,170.19L63.94,168.02L64.77,168.1L66.43,170.63L67.26,169.36L68.09,169.12L68.92,165.21L70.58,165.84L71.41,164.69L72.24,164.85L73.07,169.01L75.56,166.75L76.39,156.46L78.05,159.31L78.88,164.22L80.54,154.28L81.37,156.26L82.2,153.77L83.03,157.21L84.7,161.8L85.53,160.77L87.19,147.56L88.02,149.46L88.85,140.55L89.68,147.99L90.51,154.8L91.34,152.3L92.17,141.3L93,142.45L93.83,143.24L94.66,135.17L96.32,155.23L97.15,144.19L97.98,128.56L98.81,130.7L99.64,130.97L100.47,132.48L101.3,131.88L102.13,147.24L102.96,144.51L103.79,131.57L104.62,131.29L105.45,126.18L106.28,128.28L107.11,139.09L107.94,154.64L108.78,143.95L109.61,119.26L110.44,126.03L111.27,113.52L112.1,130.7L113.76,154.44L114.59,139.13L116.25,124.29L117.08,123.1L117.91,139.92L118.74,139.36L119.57,148.19L120.4,143.04L121.23,120.57L122.06,126.38L122.89,124.25L123.72,126.9L124.55,134.42L125.38,150.21L126.21,143.12L127.04,117.64L127.87,129.59L128.7,126.58L129.53,133.98L130.36,132.48L131.19,149.77L132.02,144.71L132.86,121.16L133.69,130.3L134.52,123.45L135.35,125.27L136.18,131.33L137.01,151.2L137.84,146.17L138.67,121.83L139.5,126.86L140.33,124.92L141.16,121.91L141.99,136.4L142.82,148.86L143.65,140.23L144.48,122.07L145.31,122.62L146.14,121.87L146.97,128.84L148.63,145.26L149.46,142.89L150.29,121.16L151.12,121.99L151.95,121.32L152.78,127.17L153.61,129.79L154.44,150.29L155.27,146.17L156.1,123.49L156.94,125.83L157.77,125.71L158.6,123.14L159.43,136.04L160.26,152.54L161.09,149.46L161.92,119.54L162.75,119.22L165.24,140.55L166.07,150.76L167.73,126.03L168.56,126.42L169.39,124.13L170.22,133.43L171.88,150.05L172.71,141.78L173.54,119.77L174.37,127.25L175.2,124.32L176.03,131.69L177.69,155.27L178.52,144.67L179.35,125.67L180.18,130.58L181.85,139.68L182.68,137.78L183.51,157.41L184.34,147.67L186,125.63L186.83,138.97L187.66,139.68L188.49,149.38L190.15,160.62L190.98,152.5L191.81,127.49L192.64,134.73L194.3,142.93L195.13,157.25L195.96,155.15L196.79,130.46L200.11,146.33L200.94,159.39L201.77,154.84L202.6,141.86L203.43,136.4L204.26,141.82L205.1,140.75L205.93,144.71L206.76,159.86L207.59,157.81L209.25,134.42L210.08,142.69L211.74,150.01L212.57,159.11L213.4,157.73L214.23,141.22L215.06,144.59L215.89,144.19L217.55,152.15L218.38,162.28L219.21,165.6L220.04,158.32L221.7,141.07L222.53,147.83L224.19,163.98L225.02,160.38L225.85,147.63L226.68,150.68L227.51,153.29L228.34,151L230.01,164.06L230.84,161.33L231.67,152.46L232.5,153.33L234.16,150.6L234.99,161.72L236.65,166.75L237.48,161.88L238.31,148.82L239.14,149.42L240.8,164.26L241.63,165.76L243.29,165.44L244.12,150.56L244.95,136.36L245.78,150.48L246.61,144.23L247.44,167.74L248.27,163.11L249.1,146.45L249.93,143.44L250.76,147.56L253.26,166.24L254.09,159.23L254.92,148.47L255.75,148.62L256.58,145.18L257.41,151.16L258.24,151.75L259.07,164.06L259.9,159.39L260.73,146.17L261.56,146.41L262.39,143.16L264.05,147.67L264.88,159.82L265.71,156.46L266.54,141.7L267.37,139.52L268.2,142.85L269.03,147.12L269.86,146.49L270.69,161.61L271.52,152.98L272.35,136.32L273.18,136.04L274.01,131.29L274.84,140.95L276.5,156.7L277.34,151.08L278.17,134.93L279,135.09L281.49,161.57L282.32,159.94L283.15,151.99L283.98,131.69L284.81,125.12L285.64,133.07L287.3,161.68L288.13,160.97L288.96,149.65L289.79,126.26L290.62,124.56L291.45,113.2L293.94,153.89L294.77,153.85L296.43,123.26L297.26,127.61L298.09,128.36L298.92,133.15L300.58,154.44L301.42,127.37L302.25,118.07L303.08,119.97L303.91,130.89L304.74,127.97L305.57,149.73L306.4,145.97L308.06,120.41L308.89,116.37L309.72,130.26L310.55,126.11L311.38,150.8L312.21,148.62L313.04,123.38L313.87,125.83L314.7,122.78L315.53,123.77L317.19,153.93L318.02,144.75L318.85,121.24L319.68,119.42L320.51,116.21L321.34,125L322.17,132.71L323,147.44L323.83,149.1L324.66,130.06L325.5,126.22L326.33,116.33L327.16,120.6L327.99,132.48L328.82,149.3L329.65,145.14L331.31,116.05L332.14,110.95L333.8,123.73L334.63,142.69L335.46,140.51L336.29,105.17L337.12,100.14L337.95,101.73L338.78,105.45L339.61,114.31L340.44,129.83L341.27,128.88L342.93,79.05L343.76,86.41L344.59,89.3L345.42,95.87L346.25,130.93L347.08,120.49L347.91,60.49L348.74,67.97L349.58,65.48L350.41,68.17L351.24,79.56L352.07,123.93L352.9,109.84L353.73,48.74L354.56,81.58L355.39,68.25L356.22,34.37L357.05,38.37L357.88,110.67L358.71,93.61L360.37,17.95L361.2,28.63L363.69,124.13L364.52,97.61L365.35,12.29L366.18,28L367.01,9.12L367.84,24.79L369.5,99.79L370.33,105.57L371.16,24.59L371.99,36.94L372.82,35.12L373.66,41.22L374.49,59.42L375.32,113.05L376.15,103.79L376.98,40.82L377.81,46.76L378.64,92.11L379.47,52.89L380.3,63.81L381.13,120.49L381.96,118.67L382.79,51.35L383.62,54.08L384.45,53.29L385.28,60.05L387.77,128.76L388.6,55.38L391.92,90.88L392.75,136.79L393.58,129.31L394.41,84.43L395.24,71.14L396.07,83.17L396.9,86.73L397.74,94.09L398.57,131.29L399.4,130.34L400.23,76.28L401.06,74.34L401.89,73.91L402.72,89.14L403.55,104.97L404.38,138.1L405.21,139.17L406.04,86.85L406.87,75.81L407.7,90.13L408.53,77.27L409.36,96.46L410.19,137.15L411.02,135.05L412.68,74.02L413.51,97.53L414.34,126.15L415.17,107.19L416,138.45L416.83,127.81L417.66,68.48L418.49,78.61L419.32,74.14L420.15,87.12L420.98,95.16L421.82,128.96L422.65,132.91L423.48,67.02L424.31,66.35L425.14,81.7L425.97,75.29L426.8,86.02L427.63,132.48L428.46,134.46L430.12,83.64L430.95,92.62L431.78,93.81L432.61,113.24L433.44,144.75L434.27,145.02L435.93,91.6L436.76,96.82L437.59,99.04L438.42,108.53L439.25,142.77L440.08,142.05L440.91,103.67L441.74,110.55L442.57,104.93L443.4,115.02L445.06,150.92L445.9,142.33L446.73,107.62L447.56,112.49L448.39,109.6L449.22,118.31L450.05,122.98L450.88,154.24L451.71,146.84L452.54,118.71L454.2,116.65L455.03,122.19L455.86,130.5L456.69,154.32L457.52,148.55L458.35,122.27L459.18,118.94L460.01,120.21L460.84,138.26L461.67,135.72L462.5,156.86L463.33,151.75L464.16,124.32L464.99,130.85L465.82,128.72L466.65,135.33L467.48,133.74L468.31,157.89L469.14,153.18L469.98,123.1L471.64,133.07L472.47,137.98L473.3,137.19L474.13,157.89L474.96,156.9L475.79,129.98L476.62,134.1L477.45,132.79L478.28,137.9L479.11,149.1L479.94,160.1L480.77,156.78L481.6,139.28L482.43,138.18L483.26,138.81L484.09,140.91L485.75,162.28L486.58,160.69L487.41,138.41L488.24,145.7L489.07,142.33L489.9,143.99L490.73,148.03L491.56,162.55L492.39,164.57L493.22,160.34L494.06,163.43L494.89,140.67L495.72,148.11L496.55,146.8L497.38,161.45L498.21,162.04L499.87,141.58L500.7,147.04L502.36,150.09L503.19,163.47L504.02,162.79L504.85,146.65L505.68,146.96L506.51,148.39L507.34,146.37L508.17,151.91L509.83,165.6L510.66,140.95L513.15,153.89L513.98,155.31L515.64,165.21L516.47,146.21L518.14,156.34L518.97,148.35L520.63,167.3L521.46,165.09L522.29,166.35L523.12,165.13L523.95,150.64L524.78,153.22L525.61,154.88L526.44,168.21L527.27,165.29L528.1,158.28L528.93,157.49L529.76,154.84L530.59,155.59L531.42,159.43L532.25,168.57L533.08,165.09L534.74,156.06L535.57,158.52L536.4,157.13L537.23,164.73L538.89,169.2L539.72,167.26L540.55,165.76L541.38,156.1L543.05,161.29L543.88,170.51L545.54,165.05L546.37,162.63L547.2,163.78L548.03,148.7L549.69,170.71L550.52,170.51L551.35,167.62L552.18,158.36L553.84,163.86L554.67,165.09L555.5,169.48L556.33,168.29L557.16,161.61L557.99,162.55L559.65,161.21L560.48,164.3L561.31,170.11L562.14,168.61L562.97,160.38L563.8,162.67L564.63,165.52L565.46,164.02L567.13,170.47L567.96,168.06L568.79,162.95L569.62,163.78L570.45,165.36L571.28,164.26L572.11,171.18L572.94,170.03L573.77,171.5L574.6,168.81L575.43,161.49L576.26,168.41L577.09,165.44L577.92,167.82L578.75,171.1L579.58,170L580.41,170.47L581.24,167.5L582.07,168.29L582.9,166.83L583.73,172.05L584.56,171.46L585.39,170.71L586.22,166.12L587.05,168.65L587.88,167.19L589.54,171.97L590.38,171.93L591.21,170.43L592.04,166.12L592.87,173.28L593.7,173.28L594.53,166.63L595.36,168.73L596.19,160.85L597.02,168.73L597.85,167.7L598.68,167.98L600.34,164.06L601.17,166.55L602,169.56" style="vector-effect: non-scaling-stroke; fill: none; stroke: rgb(255, 0, 0); stroke-opacity: 1; stroke-width: 2px; opacity: 1;"/></g><g class="points"/><g class="text"/></g></g></g><g class="overplot"/><path class="xlines-above crisp" style="fill: none;" d="M0,0"/><path class="ylines-above crisp" style="fill: none;" d="M0,0"/><g class="overlines-above"/><g class="xaxislayer-above"><g class="x2tick"><text text-anchor="middle" x="0" y="453" transform="translate(116.12,0)" style="font-family: 'Open Sans', verdana, arial, sans-serif; font-size: 12px; fill: rgb(68, 68, 68); fill-opacity: 1; white-space: pre; opacity: 1;">Apr 2020</text></g><g class="x2tick"><text text-anchor="middle" x="0" y="453" style="font-family: 'Open Sans', verdana, arial, sans-serif; font-size: 12px; fill: rgb(68, 68, 68); fill-opacity: 1; white-space: pre; opacity: 1;" transform="translate(191.69,0)">Jul 2020</text></g><g class="x2tick"><text text-anchor="middle" x="0" y="453" style="font-family: 'Open Sans', verdana, arial, sans-serif; font-size: 12px; fill: rgb(68, 68, 68); fill-opacity: 1; white-space: pre; opacity: 1;" transform="translate(268.08000000000004,0)">Oct 2020</text></g><g class="x2tick"><text text-anchor="middle" x="0" y="453" style="font-family: 'Open Sans', verdana, arial, sans-serif; font-size: 12px; fill: rgb(68, 68, 68); fill-opacity: 1; white-space: pre; opacity: 1;" transform="translate(344.47,0)">Jan 2021</text></g><g class="x2tick"><text text-anchor="middle" x="0" y="453" style="font-family: 'Open Sans', verdana, arial, sans-serif; font-size: 12px; fill: rgb(68, 68, 68); fill-opacity: 1; white-space: pre; opacity: 1;" transform="translate(419.2,0)">Apr 2021</text></g><g class="x2tick"><text text-anchor="middle" x="0" y="453" style="font-family: 'Open Sans', verdana, arial, sans-serif; font-size: 12px; fill: rgb(68, 68, 68); fill-opacity: 1; white-space: pre; opacity: 1;" transform="translate(494.76,0)">Jul 2021</text></g><g class="x2tick"><text text-anchor="middle" x="0" y="453" style="font-family: 'Open Sans', verdana, arial, sans-serif; font-size: 12px; fill: rgb(68, 68, 68); fill-opacity: 1; white-space: pre; opacity: 1;" transform="translate(571.15,0)">Oct 2021</text></g><g class="x2tick"><text text-anchor="middle" x="0" y="453" style="font-family: 'Open Sans', verdana, arial, sans-serif; font-size: 12px; fill: rgb(68, 68, 68); fill-opacity: 1; white-space: pre; opacity: 1;" transform="translate(647.54,0)">Jan 2022</text></g></g><g class="yaxislayer-above"><g class="y2tick"><text text-anchor="end" x="57" y="4.199999999999999" transform="translate(0,430.88)" style="font-family: 'Open Sans', verdana, arial, sans-serif; font-size: 12px; fill: rgb(68, 68, 68); fill-opacity: 1; white-space: pre; opacity: 1;">0</text></g><g class="y2tick"><text text-anchor="end" x="57" y="4.199999999999999" style="font-family: 'Open Sans', verdana, arial, sans-serif; font-size: 12px; fill: rgb(68, 68, 68); fill-opacity: 1; white-space: pre; opacity: 1;" transform="translate(0,391.3)">1000</text></g><g class="y2tick"><text text-anchor="end" x="57" y="4.199999999999999" style="font-family: 'Open Sans', verdana, arial, sans-serif; font-size: 12px; fill: rgb(68, 68, 68); fill-opacity: 1; white-space: pre; opacity: 1;" transform="translate(0,351.73)">2000</text></g><g class="y2tick"><text text-anchor="end" x="57" y="4.199999999999999" style="font-family: 'Open Sans', verdana, arial, sans-serif; font-size: 12px; fill: rgb(68, 68, 68); fill-opacity: 1; white-space: pre; opacity: 1;" transform="translate(0,312.15000000000003)">3000</text></g><g class="y2tick"><text text-anchor="end" x="57" y="4.199999999999999" style="font-family: 'Open Sans', verdana, arial, sans-serif; font-size: 12px; fill: rgb(68, 68, 68); fill-opacity: 1; white-space: pre; opacity: 1;" transform="translate(0,272.58000000000004)">4000</text></g></g><g class="overaxes-above"/></g></g><g class="polarlayer"/><g class="ternarylayer"/><g class="geolayer"/><g class="funnelarealayer"/><g class="pielayer"/><g class="iciclelayer"/><g class="treemaplayer"/><g class="sunburstlayer"/><g class="glimages"/><defs id="topdefs-bf1e4d"><g class="clips"/><clipPath id="legendbf1e4d"><rect width="108" height="48" x="0" y="0"/></clipPath></defs><g class="layer-above"><g class="imagelayer"/><g class="shapelayer"/></g><g class="infolayer"><g class="legend" pointer-events="all" transform="translate(88.1,60)"><rect class="bg" shape-rendering="crispEdges" style="stroke: rgb(68, 68, 68); stroke-opacity: 1; fill: rgb(255, 255, 255); fill-opacity: 1; stroke-width: 0px;" width="108" height="48" x="0" y="0"/><g class="scrollbox" transform="" clip-path="url(#legendbf1e4d)"><g class="groups"><g class="traces" style="opacity: 1;" transform="translate(0,14.5)"><text class="legendtext" text-anchor="start" x="40" y="4.680000000000001" style="font-family: 'Open Sans', verdana, arial, sans-serif; font-size: 12px; fill: rgb(68, 68, 68); fill-opacity: 1; white-space: pre;">Confirmed</text><g class="layers" style="opacity: 1;"><g class="legendfill"/><g class="legendlines"><path class="js-line" d="M5,0h30" style="fill: none; stroke: rgb(31, 119, 180); stroke-opacity: 1; stroke-width: 2px;"/></g><g class="legendsymbols"><g class="legendpoints"/></g></g><rect class="legendtoggle" x="0" y="-9.5" width="102.1875" height="19" style="fill: rgb(0, 0, 0); fill-opacity: 0;"/></g><g class="traces" style="opacity: 1;" transform="translate(0,33.5)"><text class="legendtext" text-anchor="start" x="40" y="4.680000000000001" style="font-family: 'Open Sans', verdana, arial, sans-serif; font-size: 12px; fill: rgb(68, 68, 68); fill-opacity: 1; white-space: pre;">Death</text><g class="layers" style="opacity: 1;"><g class="legendfill"/><g class="legendlines"><path class="js-line" d="M5,0h30" style="fill: none; stroke: rgb(255, 0, 0); stroke-opacity: 1; stroke-width: 2px;"/></g><g class="legendsymbols"><g class="legendpoints"/></g></g><rect class="legendtoggle" x="0" y="-9.5" width="102.1875" height="19" style="fill: rgb(0, 0, 0); fill-opacity: 0;"/></g></g></g><rect class="scrollbar" rx="20" ry="3" width="0" height="0" style="fill: rgb(128, 139, 164); fill-opacity: 1;" x="0" y="0"/></g><g class="g-gtitle"><text class="gtitle" x="350" y="30" text-anchor="middle" dy="0em" style="font-family: 'Open Sans', verdana, arial, sans-serif; font-size: 17px; fill: rgb(68, 68, 68); opacity: 1; font-weight: normal; white-space: pre;">Brazil - Daily Confirmed and Death Cases</text></g><g class="g-xtitle"/><g class="g-x2title"><text class="x2title" x="359" y="492" text-anchor="middle" style="font-family: 'Open Sans', verdana, arial, sans-serif; font-size: 14px; fill: rgb(68, 68, 68); opacity: 1; font-weight: normal; white-space: pre;">Source: Johns Hopkins University Center for Systems Science and Engineering</text></g><g class="g-ytitle"><text class="ytitle" transform="rotate(-90,20,151.2)" x="20" y="151.2" text-anchor="middle" style="font-family: 'Open Sans', verdana, arial, sans-serif; font-size: 14px; fill: rgb(68, 68, 68); opacity: 1; font-weight: normal; white-space: pre;">Cases</text></g><g class="g-y2title"><text class="y2title" transform="rotate(-90,20,348.8)" x="20" y="348.8" text-anchor="middle" style="font-family: 'Open Sans', verdana, arial, sans-serif; font-size: 14px; fill: rgb(68, 68, 68); opacity: 1; font-weight: normal; white-space: pre;">Cases</text></g></g></svg>