<svg class="main-svg" xmlns="http://www.w3.org/2000/svg" xmlns:xlink="http://www.w3.org/1999/xlink" width="700" height="500" style="" viewBox="0 0 700 500"><rect x="0" y="0" width="700" height="500" style="fill: rgb(255, 255, 255); fill-opacity: 1;"/><defs id="defs-729d9d"><g class="clips"><clipPath id="clip729d9dxyplot" class="plotclip"><rect width="602" height="182.4"/></clipPath><clipPath id="clip729d9dx2y2plot" class="plotclip"><rect width="602" height="182.4"/></clipPath><clipPath class="axesclip" id="clip729d9dx"><rect x="58" y="0" width="602" height="500"/></clipPath><clipPath class="axesclip" id="clip729d9dy"><rect x="0" y="60" width="700" height="182.4"/></clipPath><clipPath class="axesclip" id="clip729d9dxy"><rect x="58" y="60" width="602" height="182.4"/></clipPath><clipPath class="axesclip" id="clip729d9dy2"><rect x="0" y="257.6" width="700" height="182.4"/></clipPath><clipPath class="axesclip" id="clip729d9dxy2"><rect x="58" y="257.6" width="602" height="182.4"/></clipPath><clipPath class="axesclip" id="clip729d9dx2"><rect x="58" y="0" width="602" height="500"/></clipPath><clipPath class="axesclip" id="clip729d9dx2y"><rect x="58" y="60" width="602" height="182.4"/></clipPath><clipPath class="axesclip" id="clip729d9dx2y2"><rect x="58" y="257.6" width="602" height="182.4"/></clipPath></g><g class="gradients"/></defs><g class="bglayer"/><g class="layer-below"><g class="imagelayer"/><g class="shapelayer"/></g><g class="cartesianlayer"><g class="subplot xy"><g class="layer-subplot"><g class="shapelayer"/><g class="imagelayer"/></g><g class="gridlayer"><g class="x"><path class="xgrid crisp" transform="translate(127.88,0)" d="M0,60v182.4" style="stroke: rgb(238, 238, 238); stroke-opacity: 1; stroke-width: 1px;"/><path class="xgrid crisp" transform="translate(218.73,0)" d="M0,60v182.4" style="stroke: rgb(238, 238, 238); stroke-opacity: 1; stroke-width: 1px;"/><path class="xgrid crisp" transform="translate(310.58000000000004,0)" d="M0,60v182.4" style="stroke: rgb(238, 238, 238); stroke-opacity: 1; stroke-width: 1px;"/><path class="xgrid crisp" transform="translate(402.43,0)" d="M0,60v182.4" style="stroke: rgb(238, 238, 238); stroke-opacity: 1; stroke-width: 1px;"/><path class="xgrid crisp" transform="translate(492.28,0)" d="M0,60v182.4" style="stroke: rgb(238, 238, 238); stroke-opacity: 1; stroke-width: 1px;"/><path class="xgrid crisp" transform="translate(583.13,0)" d="M0,60v182.4" style="stroke: rgb(238, 238, 238); stroke-opacity: 1; stroke-width: 1px;"/></g><g class="y"><path class="ygrid crisp" transform="translate(0,162.05)" d="M58,0h602" style="stroke: rgb(238, 238, 238); stroke-opacity: 1; stroke-width: 1px;"/><path class="ygrid crisp" transform="translate(0,90.81)" d="M58,0h602" style="stroke: rgb(238, 238, 238); stroke-opacity: 1; stroke-width: 1px;"/></g></g><g class="zerolinelayer"><path class="yzl zl crisp" transform="translate(0,233.28)" d="M58,0h602" style="stroke: rgb(68, 68, 68); stroke-opacity: 1; stroke-width: 1px;"/></g><path class="xlines-below"/><path class="ylines-below"/><g class="overlines-below"/><g class="xaxislayer-below"/><g class="yaxislayer-below"/><g class="overaxes-below"/><g class="plot" transform="translate(58, 60)" clip-path="url('#clip729d9dxyplot')"><g class="scatterlayer mlayer"><g class="trace scatter trace8306f3" style="stroke-miterlimit: 2; opacity: 1;"><g class="fills"/><g class="errorbars"/><g class="lines"><path class="js-line" d="M0,173.28L67.89,172.82L68.89,171.66L74.88,171.81L75.87,170.61L77.87,170.54L78.87,171.08L79.87,171.73L80.87,171.19L81.86,171.52L82.86,170.67L83.86,168.92L84.86,170.28L85.86,168.64L86.86,169.04L87.85,170.44L88.85,170.3L90.85,169.46L91.85,167.18L92.85,167.57L93.84,165.76L94.84,167.9L95.84,167.09L98.84,162.59L99.83,166.14L101.83,166.55L102.83,163.6L103.83,163.54L104.83,157.39L105.82,160.23L106.82,157.44L108.82,163.82L109.82,163.46L110.82,161L111.81,156.29L112.81,154.72L113.81,148.88L115.81,162.5L116.81,152.92L118.8,145.22L119.8,146.91L120.8,143.64L121.8,149.76L122.8,150.75L123.79,156.63L126.79,135.64L127.79,134.92L128.79,125.88L129.78,149.9L130.78,156.76L131.78,132.06L132.78,132.49L133.78,129.22L134.78,129.36L135.77,134.71L137.77,150.98L138.77,127.56L139.77,126.39L140.77,129.95L143.76,148.9L144.76,143.87L145.76,123.53L146.76,127.42L147.75,140.85L148.75,95.25L150.75,150.82L151.75,140.33L152.75,117.1L153.74,112.41L154.74,117.03L155.74,106.52L158.74,139.01L159.73,125.06L160.73,106.73L161.73,104.75L163.73,119.25L164.73,136.17L165.72,144.46L166.72,108.74L167.72,109.78L168.72,112.56L169.72,109.1L170.72,117.69L172.71,144.38L173.71,113.65L174.71,116.4L175.71,108.6L177.7,132.63L178.7,139.76L179.7,144.42L180.7,114.86L181.7,76.6L182.7,87.86L184.69,100.41L185.69,138.26L186.69,140.11L187.69,115.13L188.69,74.87L189.68,90.88L191.68,108.61L192.68,136.52L193.68,149.57L194.68,99.76L195.67,91.86L196.67,97.58L197.67,101.72L198.67,102.09L199.67,140.5L200.67,141.87L201.67,98.97L202.66,94.7L203.66,87.67L204.66,101.13L205.66,114.05L206.66,140.37L207.66,145.68L208.65,105.2L209.65,103.05L210.65,108.71L211.65,130.03L212.65,102L213.65,139.91L214.64,148.95L215.64,106.13L216.64,106.09L218.64,111.43L219.64,114.37L220.63,150.26L221.63,107.8L222.63,112.51L223.63,106.42L224.63,110.92L225.63,101.82L227.62,152.59L228.62,158.64L229.62,152.94L230.62,122.25L232.61,111L233.61,125.52L234.61,152.24L235.61,151.69L236.61,121.06L237.61,120.82L238.6,121.56L239.6,116.58L240.6,126.19L241.6,149.93L242.6,154.17L243.6,125.8L244.59,173.28L245.59,78.77L246.59,127.82L247.59,132.85L248.59,152.88L249.59,154.54L250.58,127.61L251.58,125.68L252.58,121.77L253.58,173.28L254.58,88.17L255.58,161.23L256.57,156.26L257.57,113.58L259.57,133.75L260.57,134.18L261.57,135.17L262.56,155.7L263.56,161.27L264.56,158.72L265.56,134.48L266.56,132.64L267.56,129.24L268.55,139L269.55,173.28L270.55,135.72L271.55,140.19L272.55,137.92L273.55,137.87L274.54,130.5L275.54,134.84L276.54,154.06L277.54,150.88L278.54,130.84L279.54,132.49L280.53,136.09L282.53,146.29L283.53,158.89L284.53,161.17L285.53,156.41L286.52,139.12L287.52,173.28L288.52,114.65L289.52,141.4L290.52,158.24L291.52,157.73L292.51,139.13L293.51,103.96L295.51,131.87L296.51,118.71L297.51,153.14L298.5,154.23L299.5,123L300.5,124.71L302.5,118.58L303.5,126.8L304.49,146.76L305.49,150.19L307.49,105.04L308.49,119.69L309.49,124.66L310.48,99.31L311.48,138.42L312.48,143.17L313.48,100.75L314.48,102.24L315.48,101.43L316.47,106.49L317.47,111.72L318.47,135.72L319.47,144.26L320.47,100.5L321.47,97.13L322.46,97.28L323.46,95.74L324.46,110.74L325.46,142.19L326.46,137.39L328.45,72.74L329.45,73.8L330.45,98.42L331.45,101.8L332.45,137.03L333.45,137.64L334.44,94.64L335.44,106.75L336.44,90.04L337.44,138.21L338.44,148.71L339.44,146.95L340.43,144.01L341.43,89.63L342.43,94L343.43,92.4L345.43,150.73L346.42,148.58L347.42,144.78L348.42,92.58L349.42,82.91L350.42,48.13L351.42,99.15L352.41,84.54L353.41,130.84L354.41,136.49L355.41,82.07L356.41,86.52L357.41,76.75L358.4,74.7L359.4,85.57L360.4,126.21L361.4,139.56L362.4,84.82L363.4,81.55L364.39,89.06L365.39,92.71L366.39,84.48L367.39,132.93L368.39,135.08L369.39,85L370.38,82.79L373.38,89.99L374.38,133.74L375.38,138.25L376.37,96.21L378.37,92.26L379.37,100.81L380.37,173.28L381.37,62.9L382.36,173.28L383.36,66.54L385.36,95.29L386.36,99.84L387.36,110.17L388.35,138.01L389.35,127.41L390.35,94.54L391.35,92.41L392.35,99.37L394.34,95.01L395.34,131.93L396.34,134.83L397.34,83.93L398.34,78.42L399.34,79.26L400.33,80.44L401.33,85.52L402.33,124.8L403.33,122.36L405.33,71.13L406.33,66.29L407.32,65.73L408.32,74.11L409.32,58.58L410.32,127.23L411.32,72.47L412.32,59.48L413.31,65.84L414.31,51.24L415.31,64.75L416.31,110.86L417.31,121.65L418.31,53.71L419.3,44.63L420.3,49.36L421.3,44.25L422.3,60.63L423.3,105.22L424.3,103.05L425.29,55.76L426.29,45.07L427.29,30.59L428.29,53.26L429.29,50.83L430.29,110.13L431.28,117.82L432.28,52.91L433.28,44.15L434.28,43.5L437.27,128.6L438.27,132.47L439.27,49.37L440.27,41.32L441.27,49.83L442.27,40.34L444.26,120.54L445.26,122.3L446.26,56.19L447.26,68.55L448.26,69.03L449.25,51.08L452.25,129.65L453.25,74.44L454.25,59.71L455.24,108.92L456.24,74.83L457.24,71.93L458.24,126.88L459.24,132.48L460.24,70.51L461.23,59.7L462.23,74.42L463.23,75.93L464.23,77.88L465.23,132.06L466.23,138.21L467.22,63.07L468.22,68.86L469.22,68.74L470.22,60.89L471.22,82.91L473.21,137.38L474.21,69.69L475.21,64.02L476.21,67.01L477.21,51.42L478.21,77.82L480.2,130.33L481.2,65.8L483.2,56.4L484.2,63.79L485.19,64.31L486.19,122.25L487.19,119.86L488.19,68.63L489.19,58.62L490.19,77.16L491.18,102.38L492.18,59.78L494.18,129.92L495.18,60.84L496.18,37.08L497.17,54.48L498.17,119.23L499.17,79.23L500.17,116.81L501.17,120.35L502.17,97.9L503.16,51.12L504.16,47.78L505.16,51.97L506.16,61.16L507.16,119.22L508.16,116.51L509.15,58.44L510.15,37.42L511.15,67.8L512.15,32.48L513.15,56.05L514.15,110.34L515.14,117.86L517.14,9.12L518.14,68.42L519.14,60.34L520.14,81.91L521.13,125.26L522.13,133.67L523.13,80.82L524.13,110.83L525.13,80.45L526.13,80.44L527.12,95.56L528.12,133.7L529.12,140.94L530.12,84.23L531.12,96.32L532.12,96.74L533.11,91.02L534.11,104.18L535.11,143.45L536.11,149.02L538.11,91.03L539.1,98.07L541.1,124.36L542.1,124.66L543.1,151.52L544.1,133.97L545.09,95.61L546.09,102.39L547.09,18.37L548.09,119.01L549.09,147.45L550.09,146.21L552.08,104.88L553.08,113.04L554.08,115.01L555.08,119.74L557.07,151.71L558.07,127.24L559.07,115.27L560.07,116.22L562.07,111.97L563.06,153.49L564.06,156.06L565.06,123.58L566.06,127.06L567.06,116.32L569.05,128.91L570.05,153.4L571.05,152.66L572.05,119.69L573.05,113.85L574.05,121.54L575.04,125L576.04,132.84L577.04,152.76L578.04,154.61L579.04,129.3L580.04,129.58L581.03,129.08L582.03,134.32L583.03,138.09L584.03,154.46L585.03,158.37L586.03,138.25L587.02,134.32L588.02,135.84L589.02,136.86L590.02,142.22L592.02,160.24L593.01,152.9L594.01,153.66L595.01,129.27L596.01,150.56L597.01,152.89L599,163.81L600,154.18L601,152.22L602,124.26" style="vector-effect: non-scaling-stroke; fill: none; stroke: rgb(31, 119, 180); stroke-opacity: 1; stroke-width: 2px; opacity: 1;"/></g><g class="points"/><g class="text"/></g></g></g><g class="overplot"/><path class="xlines-above crisp" style="fill: none;" d="M0,0"/><path class="ylines-above crisp" style="fill: none;" d="M0,0"/><g class="overlines-above"/><g class="xaxislayer-above"><g class="xtick"><text text-anchor="middle" x="0" y="255.4" transform="translate(127.88,0)" style="font-family: 'Open Sans', verdana, arial, sans-serif; font-size: 12px; fill: rgb(68, 68, 68); fill-opacity: 1; white-space: pre;">Apr 2020</text></g><g class="xtick"><text text-anchor="middle" x="0" y="255.4" transform="translate(218.73,0)" style="font-family: 'Open Sans', verdana, arial, sans-serif; font-size: 12px; fill: rgb(68, 68, 68); fill-opacity: 1; white-space: pre;">Jul 2020</text></g><g class="xtick"><text text-anchor="middle" x="0" y="255.4" transform="translate(310.58000000000004,0)" style="font-family: 'Open Sans', verdana, arial, sans-serif; font-size: 12px; fill: rgb(68, 68, 68); fill-opacity: 1; white-space: pre;">Oct 2020</text></g><g class="xtick"><text text-anchor="middle" x="0" y="255.4" transform="translate(402.43,0)" style="font-family: 'Open Sans', verdana, arial, sans-serif; font-size: 12px; fill: rgb(68, 68, 68); fill-opacity: 1; white-space: pre;">Jan 2021</text></g><g class="xtick"><text text-anchor="middle" x="0" y="255.4" transform="translate(492.28,0)" style="font-family: 'Open Sans', verdana, arial, sans-serif; font-size: 12px; fill: rgb(68, 68, 68); fill-opacity: 1; white-space: pre;">Apr 2021</text></g><g class="xtick"><text text-anchor="middle" x="0" y="255.4" transform="translate(583.13,0)" style="font-family: 'Open Sans', verdana, arial, sans-serif; font-size: 12px; fill: rgb(68, 68, 68); fill-opacity: 1; white-space: pre;">Jul 2021</text></g></g><g class="yaxislayer-above"><g class="ytick"><text text-anchor="end" x="57" y="4.199999999999999" transform="translate(0,233.28)" style="font-family: 'Open Sans', verdana, arial, sans-serif; font-size: 12px; fill: rgb(68, 68, 68); fill-opacity: 1; white-space: pre;">0</text></g><g class="ytick"><text text-anchor="end" x="57" y="4.199999999999999" transform="translate(0,162.05)" style="font-family: 'Open Sans', verdana, arial, sans-serif; font-size: 12px; fill: rgb(68, 68, 68); fill-opacity: 1; white-space: pre;">50k</text></g><g class="ytick"><text text-anchor="end" x="57" y="4.199999999999999" transform="translate(0,90.81)" style="font-family: 'Open Sans', verdana, arial, sans-serif; font-size: 12px; fill: rgb(68, 68, 68); fill-opacity: 1; white-space: pre;">100k</text></g></g><g class="overaxes-above"/></g><g class="subplot x2y2"><g class="layer-subplot"><g class="shapelayer"/><g class="imagelayer"/></g><g class="gridlayer"><g class="x2"><path class="x2grid crisp" transform="translate(127.88,0)" d="M0,257.6v182.4" style="stroke: rgb(238, 238, 238); stroke-opacity: 1; stroke-width: 1px;"/><path class="x2grid crisp" transform="translate(218.73,0)" d="M0,257.6v182.4" style="stroke: rgb(238, 238, 238); stroke-opacity: 1; stroke-width: 1px;"/><path class="x2grid crisp" transform="translate(310.58000000000004,0)" d="M0,257.6v182.4" style="stroke: rgb(238, 238, 238); stroke-opacity: 1; stroke-width: 1px;"/><path class="x2grid crisp" transform="translate(402.43,0)" d="M0,257.6v182.4" style="stroke: rgb(238, 238, 238); stroke-opacity: 1; stroke-width: 1px;"/><path class="x2grid crisp" transform="translate(492.28,0)" d="M0,257.6v182.4" style="stroke: rgb(238, 238, 238); stroke-opacity: 1; stroke-width: 1px;"/><path class="x2grid crisp" transform="translate(583.13,0)" d="M0,257.6v182.4" style="stroke: rgb(238, 238, 238); stroke-opacity: 1; stroke-width: 1px;"/></g><g class="y2"><path class="y2grid crisp" transform="translate(0,392.25)" d="M58,0h602" style="stroke: rgb(238, 238, 238); stroke-opacity: 1; stroke-width: 1px;"/><path class="y2grid crisp" transform="translate(0,353.61)" d="M58,0h602" style="stroke: rgb(238, 238, 238); stroke-opacity: 1; stroke-width: 1px;"/><path class="y2grid crisp" transform="translate(0,314.98)" d="M58,0h602" style="stroke: rgb(238, 238, 238); stroke-opacity: 1; stroke-width: 1px;"/><path class="y2grid crisp" transform="translate(0,276.34000000000003)" d="M58,0h602" style="stroke: rgb(238, 238, 238); stroke-opacity: 1; stroke-width: 1px;"/></g></g><g class="zerolinelayer"><path class="y2zl zl crisp" transform="translate(0,430.88)" d="M58,0h602" style="stroke: rgb(68, 68, 68); stroke-opacity: 1; stroke-width: 1px;"/></g><path class="xlines-below"/><path class="ylines-below"/><g class="overlines-below"/><g class="xaxislayer-below"/><g class="yaxislayer-below"/><g class="overaxes-below"/><g class="plot" transform="translate(58, 257.6)" clip-path="url('#clip729d9dx2y2plot')"><g class="scatterlayer mlayer"><g class="trace scatter tracea1a998" style="stroke-miterlimit: 2; opacity: 1;"><g class="fills"/><g class="errorbars"/><g class="lines"><path class="js-line" d="M0,173.28L65.89,172.55L66.89,172.31L67.89,172.39L68.89,171.66L69.88,171.77L70.88,170.03L71.88,171.93L72.88,169.96L73.88,171.7L74.88,170.27L76.87,168.14L77.87,168.22L79.87,170.69L80.87,169.46L81.86,169.22L82.86,165.4L84.86,166.02L85.86,164.9L86.86,165.05L87.85,169.11L90.85,166.91L91.85,156.86L93.84,159.64L94.84,164.43L95.84,161.03L96.84,154.74L97.84,156.67L98.84,154.23L101.83,162.08L102.83,161.07L104.83,148.17L105.82,150.02L106.82,141.33L107.82,148.59L108.82,155.24L109.82,152.8L110.82,142.06L111.81,143.18L112.81,143.96L113.81,136.07L115.81,155.66L116.81,144.88L117.8,129.62L118.8,139.44L119.8,127.38L120.8,134.61L121.8,136L122.8,148.05L125.79,131.32L126.79,128.62L127.79,129.85L128.79,136.34L129.78,154.74L130.78,149.21L131.78,124.52L132.78,121.16L133.78,116.37L134.78,134.45L135.77,138.35L136.77,153L137.77,147.05L138.77,124.14L139.77,124.06L140.77,125.41L141.76,138.16L142.76,138.82L143.76,149.64L144.76,149.06L145.76,123.75L146.76,124.25L148.75,126.69L149.75,133.8L150.75,149.52L151.75,147.01L152.75,120.2L153.74,127.5L154.74,129.2L155.74,135.03L156.74,130.43L157.74,151.95L158.74,146.54L159.73,123.83L160.73,133.18L161.73,124.91L162.73,123.44L163.73,131.13L164.73,150.02L165.72,149.33L166.72,124.83L167.72,126.03L169.72,126.38L170.72,131.9L171.71,148.9L172.71,144.96L173.71,123.05L174.71,125.64L175.71,122.2L176.71,128.35L178.7,145.62L179.7,148.86L180.7,120.47L181.7,123.67L182.7,122.63L183.69,128.62L184.69,126.49L185.69,151.84L186.69,149.56L187.69,137.7L188.69,111.66L189.68,129.66L190.68,126.45L191.68,131.25L192.68,152.38L193.68,151.61L195.67,117.76L196.67,125.49L198.67,138.32L199.67,151.18L200.67,146.12L201.67,124.06L202.66,127.88L203.66,124.52L206.66,149.33L207.66,146.85L208.65,121.05L209.65,126.45L210.65,126.76L211.65,132.56L212.65,138.82L213.65,154.19L214.64,151.45L215.64,124.17L217.64,135.26L218.64,140.25L219.64,143.99L220.63,151.41L221.63,151.91L222.63,126.34L223.63,127.54L224.63,141.06L225.63,138.97L226.62,146.2L228.62,161.3L229.62,153.81L230.62,131.75L231.62,135.3L233.61,141.83L234.61,157.25L235.61,158.56L236.61,130.28L238.6,141.25L239.6,140.13L240.6,144.73L241.6,159.26L242.6,158.71L243.6,141.1L244.59,173.28L245.59,107.48L246.59,145.12L247.59,139.71L248.59,160.34L249.59,161.03L251.58,133.45L252.58,145.15L253.58,173.28L254.58,122.78L255.58,159.18L256.57,160.8L257.57,141.64L258.57,144.92L259.57,145.12L260.57,146.93L261.57,151.68L262.56,162.08L263.56,165.51L264.56,161.34L265.56,144.34L266.56,145.73L267.56,144.15L268.55,155.47L269.55,173.28L270.55,153.92L271.55,147.74L272.55,151.41L273.55,154.08L274.54,151.22L276.54,164.36L277.54,163.12L278.54,152.07L279.54,153.58L281.53,153.65L282.53,157.56L283.53,165.94L284.53,166.36L285.53,163.89L286.52,149.71L287.52,173.28L288.52,138.16L289.52,163.47L290.52,168.33L291.52,164.36L292.51,166.56L294.51,138.01L295.51,155.66L296.51,137.7L297.51,167.87L298.5,164.93L299.5,146.82L300.5,144.07L301.5,149.87L302.5,151.95L303.5,158.75L304.49,165.78L305.49,161.61L306.49,148.94L307.49,148.01L308.49,146.58L309.49,153.42L310.48,150.6L311.48,162.77L312.48,162.19L313.48,146.35L314.48,146.31L315.48,144.11L317.47,147.63L318.47,161.19L319.47,158.75L320.47,140.75L321.47,140.98L322.46,143.53L323.46,147.32L324.46,146.78L325.46,162.5L326.46,156.55L327.46,136.04L328.45,137.12L329.45,131.09L330.45,141.48L331.45,146L332.45,157.52L333.45,152.92L334.44,135.88L335.44,136.15L336.44,143.84L338.44,161.42L339.44,159.99L340.43,156.63L341.43,130.36L342.43,127.15L343.43,131.79L344.43,155.43L345.43,161.15L346.42,161.96L347.42,152.3L348.42,128.04L349.42,125.3L350.42,114.4L351.42,136.11L352.41,128.04L353.41,155.16L354.41,154.74L355.41,130.4L356.41,124.06L357.41,129.58L358.4,128.81L359.4,132.71L360.4,151.99L361.4,155.82L362.4,127.23L363.4,121.51L364.39,122.44L365.39,130.94L366.39,126.84L367.39,150.41L368.39,149.06L369.39,126.38L371.38,119.73L372.38,130.05L373.38,123.87L374.38,151.68L375.38,150.29L376.37,126.53L377.37,124.83L378.37,125.68L379.37,125.41L380.37,173.28L381.37,115.33L382.36,173.28L383.36,96.55L384.36,121.9L385.36,121.08L386.36,123.52L389.35,152.88L390.35,128.19L391.35,128.85L392.35,120.47L394.34,125.37L395.34,152.92L396.34,148.59L397.34,119.73L398.34,118.11L399.34,113.74L400.33,121.63L401.33,119.73L402.33,145.42L403.33,143.22L405.33,99.49L406.33,107.64L407.32,103.74L408.32,113.2L409.32,131.32L410.32,135.15L412.32,84.96L413.31,87.01L414.31,87.66L415.31,96.13L416.31,129.74L417.31,132.44L418.31,63.52L419.3,70.97L421.3,64.52L422.3,79.09L423.3,123.44L424.3,119.85L425.29,47.68L426.29,95.66L428.29,32.26L429.29,40.45L430.29,109.3L431.28,109.15L432.28,27.24L433.28,23.8L434.28,27.66L435.28,60.39L437.27,125.37L438.27,122.32L439.27,11.21L440.27,25.35L441.27,9.12L442.27,30.6L444.26,103.62L445.26,116.1L446.26,26.16L447.26,39.64L448.26,35.74L449.25,45.59L450.25,60.12L451.25,109.26L452.25,121.24L453.25,44.97L454.25,39.14L455.24,94.97L456.24,60.7L457.24,54.44L458.24,122.86L459.24,129.27L460.24,54.05L461.23,51.08L462.23,57.34L463.23,73.02L464.23,70.67L465.23,126.84L466.23,135.3L467.22,58.69L469.22,74.76L470.22,89.64L471.22,88.21L472.22,133.72L473.21,138.93L474.21,83.99L475.21,76.92L476.21,81.21L478.21,92.65L479.2,133.25L480.2,142.91L481.2,76.19L482.2,71.25L483.2,80.44L485.19,99.91L486.19,140.05L487.19,142.76L488.19,89.33L489.19,80.63L490.19,86.54L491.18,81.68L492.18,95.55L493.18,139.51L494.18,140.05L495.18,80.25L496.18,76.42L498.17,117.1L499.17,108.03L500.17,139.55L501.17,134.26L503.16,68.08L504.16,76.54L506.16,94.58L507.16,129.66L508.16,141.33L509.15,77.93L510.15,57.49L511.15,83.99L512.15,76.89L513.15,84.38L514.15,133.68L515.14,143.88L516.14,90.95L517.14,80.87L518.14,94.77L519.14,95.97L520.14,111.73L521.13,144.73L522.13,149.4L523.13,100.14L524.13,92.88L525.13,94.89L527.12,110.11L528.12,141.21L529.12,146.43L530.12,104.51L531.12,109.61L532.12,109.96L533.11,114.98L534.11,126.72L535.11,150.29L536.11,144.5L537.11,111.27L538.11,113.16L539.1,113.47L540.1,117.03L541.1,139.74L542.1,136.65L543.1,152.34L544.1,118.26L546.09,118.73L547.09,122.13L548.09,130.47L549.09,154.89L550.09,150.95L551.08,121.78L552.08,121.35L553.08,122.36L554.08,136.07L555.08,138.12L556.08,155.35L557.07,158.25L558.07,126.57L559.07,127.88L562.07,135.03L563.06,157.86L564.06,157.4L565.06,126.49L566.06,135.61L567.06,128.93L568.06,135.96L569.05,137.5L570.05,162.85L571.05,156.51L572.05,130.55L573.05,132.17L575.04,139.67L576.04,146.31L577.04,160.99L578.04,160.88L579.04,138.74L580.04,138.39L581.03,137.74L582.03,143.88L583.03,146.85L584.03,161.77L585.03,163L586.03,140.87L587.02,144.81L588.02,143.76L589.02,144.07L590.02,146.54L591.02,163L592.02,166.25L593.01,161.77L594.01,161.19L595.01,144.19L596.01,147.32L597.01,145.77L598.01,161.96L599,164.97L600,145.04L601,142.37L602,148.21" style="vector-effect: non-scaling-stroke; fill: none; stroke: rgb(255, 0, 0); stroke-opacity: 1; stroke-width: 2px; opacity: 1;"/></g><g class="points"/><g class="text"/></g></g></g><g class="overplot"/><path class="xlines-above crisp" style="fill: none;" d="M0,0"/><path class="ylines-above crisp" style="fill: none;" d="M0,0"/><g class="overlines-above"/><g class="xaxislayer-above"><g class="x2tick"><text text-anchor="middle" x="0" y="453" transform="translate(127.88,0)" style="font-family: 'Open Sans', verdana, arial, sans-serif; font-size: 12px; fill: rgb(68, 68, 68); fill-opacity: 1; white-space: pre;">Apr 2020</text></g><g class="x2tick"><text text-anchor="middle" x="0" y="453" transform="translate(218.73,0)" style="font-family: 'Open Sans', verdana, arial, sans-serif; font-size: 12px; fill: rgb(68, 68, 68); fill-opacity: 1; white-space: pre;">Jul 2020</text></g><g class="x2tick"><text text-anchor="middle" x="0" y="453" transform="translate(310.58000000000004,0)" style="font-family: 'Open Sans', verdana, arial, sans-serif; font-size: 12px; fill: rgb(68, 68, 68); fill-opacity: 1; white-space: pre;">Oct 2020</text></g><g class="x2tick"><text text-anchor="middle" x="0" y="453" transform="translate(402.43,0)" style="font-family: 'Open Sans', verdana, arial, sans-serif; font-size: 12px; fill: rgb(68, 68, 68); fill-opacity: 1; white-space: pre;">Jan 2021</text></g><g class="x2tick"><text text-anchor="middle" x="0" y="453" transform="translate(492.28,0)" style="font-family: 'Open Sans', verdana, arial, sans-serif; font-size: 12px; fill: rgb(68, 68, 68); fill-opacity: 1; white-space: pre;">Apr 2021</text></g><g class="x2tick"><text text-anchor="middle" x="0" y="453" transform="translate(583.13,0)" style="font-family: 'Open Sans', verdana, arial, sans-serif; font-size: 12px; fill: rgb(68, 68, 68); fill-opacity: 1; white-space: pre;">Jul 2021</text></g></g><g class="yaxislayer-above"><g class="y2tick"><text text-anchor="end" x="57" y="4.199999999999999" transform="translate(0,430.88)" style="font-family: 'Open Sans', verdana, arial, sans-serif; font-size: 12px; fill: rgb(68, 68, 68); fill-opacity: 1; white-space: pre;">0</text></g><g class="y2tick"><text text-anchor="end" x="57" y="4.199999999999999" transform="translate(0,392.25)" style="font-family: 'Open Sans', verdana, arial, sans-serif; font-size: 12px; fill: rgb(68, 68, 68); fill-opacity: 1; white-space: pre;">1000</text></g><g class="y2tick"><text text-anchor="end" x="57" y="4.199999999999999" transform="translate(0,353.61)" style="font-family: 'Open Sans', verdana, arial, sans-serif; font-size: 12px; fill: rgb(68, 68, 68); fill-opacity: 1; white-space: pre;">2000</text></g><g class="y2tick"><text text-anchor="end" x="57" y="4.199999999999999" transform="translate(0,314.98)" style="font-family: 'Open Sans', verdana, arial, sans-serif; font-size: 12px; fill: rgb(68, 68, 68); fill-opacity: 1; white-space: pre;">3000</text></g><g class="y2tick"><text text-anchor="end" x="57" y="4.199999999999999" transform="translate(0,276.34000000000003)" style="font-family: 'Open Sans', verdana, arial, sans-serif; font-size: 12px; fill: rgb(68, 68, 68); fill-opacity: 1; white-space: pre;">4000</text></g></g><g class="overaxes-above"/></g></g><g class="polarlayer"/><g class="ternarylayer"/><g class="geolayer"/><g class="funnelarealayer"/><g class="pielayer"/><g class="treemaplayer"/><g class="sunburstlayer"/><g class="glimages"/><defs id="topdefs-729d9d"><g class="clips"/><clipPath id="legend729d9d"><rect width="108" height="48" x="0" y="0"/></clipPath></defs><g class="layer-above"><g class="imagelayer"/><g class="shapelayer"/></g><g class="infolayer"><g class="legend" pointer-events="all" transform="translate(88.1, 60)"><rect class="bg" shape-rendering="crispEdges" style="stroke: rgb(68, 68, 68); stroke-opacity: 1; fill: rgb(255, 255, 255); fill-opacity: 1; stroke-width: 0px;" width="108" height="48" x="0" y="0"/><g class="scrollbox" transform="translate(0, 0)" clip-path="url('#legend729d9d')"><g class="groups"><g class="traces" style="opacity: 1;" transform="translate(0, 14.5)"><text class="legendtext" text-anchor="start" x="40" y="4.680000000000001" style="font-family: 'Open Sans', verdana, arial, sans-serif; font-size: 12px; fill: rgb(68, 68, 68); fill-opacity: 1; white-space: pre;">Confirmed</text><g class="layers" style="opacity: 1;"><g class="legendfill"/><g class="legendlines"><path class="js-line" d="M5,0h30" style="fill: none; stroke: rgb(31, 119, 180); stroke-opacity: 1; stroke-width: 2px;"/></g><g class="legendsymbols"><g class="legendpoints"/></g></g><rect class="legendtoggle" x="0" y="-9.5" width="102.1875" height="19" style="fill: rgb(0, 0, 0); fill-opacity: 0;"/></g><g class="traces" style="opacity: 1;" transform="translate(0, 33.5)"><text class="legendtext" text-anchor="start" x="40" y="4.680000000000001" style="font-family: 'Open Sans', verdana, arial, sans-serif; font-size: 12px; fill: rgb(68, 68, 68); fill-opacity: 1; white-space: pre;">Death</text><g class="layers" style="opacity: 1;"><g class="legendfill"/><g class="legendlines"><path class="js-line" d="M5,0h30" style="fill: none; stroke: rgb(255, 0, 0); stroke-opacity: 1; stroke-width: 2px;"/></g><g class="legendsymbols"><g class="legendpoints"/></g></g><rect class="legendtoggle" x="0" y="-9.5" width="102.1875" height="19" style="fill: rgb(0, 0, 0); fill-opacity: 0;"/></g></g></g><rect class="scrollbar" rx="20" ry="3" width="0" height="0" style="fill: rgb(128, 139, 164); fill-opacity: 1;" x="0" y="0"/></g><g class="g-gtitle"><text class="gtitle" x="350" y="30" text-anchor="middle" dy="0em" style="font-family: 'Open Sans', verdana, arial, sans-serif; font-size: 17px; fill: rgb(68, 68, 68); opacity: 1; font-weight: normal; white-space: pre;">Brazil - Daily Confirmed and Death Cases</text></g><g class="g-xtitle"/><g class="g-x2title"><text class="x2title" x="359" y="492" text-anchor="middle" style="font-family: 'Open Sans', verdana, arial, sans-serif; font-size: 14px; fill: rgb(68, 68, 68); opacity: 1; font-weight: normal; white-space: pre;">Source: Johns Hopkins University Center for Systems Science and Engineering</text></g><g class="g-ytitle"><text class="ytitle" transform="rotate(-90,20,151.2)" x="20" y="151.2" text-anchor="middle" style="font-family: 'Open Sans', verdana, arial, sans-serif; font-size: 14px; fill: rgb(68, 68, 68); opacity: 1; font-weight: normal; white-space: pre;">Cases</text></g><g class="g-y2title"><text class="y2title" transform="rotate(-90,20,348.8)" x="20" y="348.8" text-anchor="middle" style="font-family: 'Open Sans', verdana, arial, sans-serif; font-size: 14px; fill: rgb(68, 68, 68); opacity: 1; font-weight: normal; white-space: pre;">Cases</text></g></g></svg>