<svg class="main-svg" xmlns="http://www.w3.org/2000/svg" xmlns:xlink="http://www.w3.org/1999/xlink" width="700" height="500" style="" viewBox="0 0 700 500"><rect x="0" y="0" width="700" height="500" style="fill: rgb(255, 255, 255); fill-opacity: 1;"/><defs id="defs-33471c"><g class="clips"><clipPath id="clip33471cxyplot" class="plotclip"><rect width="602" height="182.4"/></clipPath><clipPath id="clip33471cx2y2plot" class="plotclip"><rect width="602" height="182.4"/></clipPath><clipPath class="axesclip" id="clip33471cx"><rect x="58" y="0" width="602" height="500"/></clipPath><clipPath class="axesclip" id="clip33471cy"><rect x="0" y="60" width="700" height="182.4"/></clipPath><clipPath class="axesclip" id="clip33471cxy"><rect x="58" y="60" width="602" height="182.4"/></clipPath><clipPath class="axesclip" id="clip33471cy2"><rect x="0" y="257.6" width="700" height="182.4"/></clipPath><clipPath class="axesclip" id="clip33471cxy2"><rect x="58" y="257.6" width="602" height="182.4"/></clipPath><clipPath class="axesclip" id="clip33471cx2"><rect x="58" y="0" width="602" height="500"/></clipPath><clipPath class="axesclip" id="clip33471cx2y"><rect x="58" y="60" width="602" height="182.4"/></clipPath><clipPath class="axesclip" id="clip33471cx2y2"><rect x="58" y="257.6" width="602" height="182.4"/></clipPath></g><g class="gradients"/><g class="patterns"/></defs><g class="bglayer"/><g class="layer-below"><g class="imagelayer"/><g class="shapelayer"/></g><g class="cartesianlayer"><g class="subplot xy"><g class="layer-subplot"><g class="shapelayer"/><g class="imagelayer"/></g><g class="gridlayer"><g class="x"><path class="xgrid crisp" transform="translate(142.87,0)" d="M0,60v182.4" style="stroke: rgb(238, 238, 238); stroke-opacity: 1; stroke-width: 1px;"/><path class="xgrid crisp" transform="translate(239.87,0)" d="M0,60v182.4" style="stroke: rgb(238, 238, 238); stroke-opacity: 1; stroke-width: 1px;"/><path class="xgrid crisp" transform="translate(335.28,0)" d="M0,60v182.4" style="stroke: rgb(238, 238, 238); stroke-opacity: 1; stroke-width: 1px;"/><path class="xgrid crisp" transform="translate(432.27,0)" d="M0,60v182.4" style="stroke: rgb(238, 238, 238); stroke-opacity: 1; stroke-width: 1px;"/><path class="xgrid crisp" transform="translate(527.69,0)" d="M0,60v182.4" style="stroke: rgb(238, 238, 238); stroke-opacity: 1; stroke-width: 1px;"/><path class="xgrid crisp" transform="translate(624.68,0)" d="M0,60v182.4" style="stroke: rgb(238, 238, 238); stroke-opacity: 1; stroke-width: 1px;"/></g><g class="y"><path class="ygrid crisp" transform="translate(0,169.20999999999998)" d="M58,0h602" style="stroke: rgb(238, 238, 238); stroke-opacity: 1; stroke-width: 1px;"/><path class="ygrid crisp" transform="translate(0,115.72999999999999)" d="M58,0h602" style="stroke: rgb(238, 238, 238); stroke-opacity: 1; stroke-width: 1px;"/><path class="ygrid crisp" transform="translate(0,62.25)" d="M58,0h602" style="stroke: rgb(238, 238, 238); stroke-opacity: 1; stroke-width: 1px;"/></g></g><g class="zerolinelayer"><path class="yzl zl crisp" transform="translate(0,222.69)" d="M58,0h602" style="stroke: rgb(68, 68, 68); stroke-opacity: 1; stroke-width: 1px;"/></g><path class="xlines-below"/><path class="ylines-below"/><g class="overlines-below"/><g class="xaxislayer-below"/><g class="yaxislayer-below"/><g class="overaxes-below"/><g class="plot" transform="translate(58,60)" clip-path="url(#clip33471cxyplot)"><g class="scatterlayer mlayer"><g class="trace scatter traceaa72e4" style="stroke-miterlimit: 2; opacity: 1;"><g class="fills"/><g class="errorbars"/><g class="lines"><path class="js-line" d="M0,162.69L39.54,162.14L40.06,161.69L41.64,161.87L42.17,162.11L45.86,161.1L46.39,161.63L47.97,161.26L48.5,160.4L49.02,160.55L49.55,159.87L50.61,160.37L51.13,159.6L52.19,158.68L52.71,160.01L53.77,160.17L54.3,159.06L54.82,159.04L55.35,156.73L55.88,157.79L56.4,156.75L57.99,159.01L58.51,158.08L60.09,153.53L60.62,155.62L61.15,158.64L61.68,155.05L62.2,153.86L62.73,150.53L63.26,152.99L63.78,151.03L65.37,155.84L65.89,153.96L68,145.41L68.53,155.62L69.06,154.59L69.58,145.75L70.11,148.74L70.64,145.6L71.16,145.52L71.69,149.97L72.75,153.42L73.27,145.74L73.8,144.62L74.33,147.35L75.91,153.71L76.44,149.53L76.96,142.91L77.49,146.15L78.02,149.04L78.54,132.71L79.07,128.72L79.6,173.28L80.65,141.55L81.18,140.75L81.71,140.52L82.23,138.69L83.82,151.17L84.34,141.47L84.87,137.65L85.4,138.95L85.92,139.67L87.51,149.61L88.03,137.72L89.09,139.72L89.61,138.99L91.2,150.45L91.72,139.74L92.25,141.22L92.78,139.33L94.36,150.17L94.89,150.52L95.94,127.31L96.47,132.03L96.99,132.26L97.52,137.27L98.05,150.57L98.58,147.71L99.1,133.81L100.16,131.64L100.68,134.21L102.27,151.94L102.79,132.59L103.32,132.65L103.85,133.82L104.9,137.88L105.43,150.54L105.96,148.52L106.48,135.67L107.54,130.22L108.06,136.27L109.12,150.39L109.65,149.64L110.17,136.35L110.7,136.7L111.23,139.71L111.75,145.4L112.28,138.14L112.81,150.99L113.34,150.12L113.86,137.93L114.39,136.94L114.92,140.09L115.44,139.11L115.97,142.75L116.5,154.92L117.03,135.83L117.55,138.98L118.08,137.85L118.61,137.66L119.66,144.59L120.19,154.85L120.72,157.6L121.24,152.65L122.3,140.89L122.82,140.48L123.88,155.19L124.41,151.67L125.46,142.75L125.99,143.22L126.51,141.44L127.04,146.88L127.57,154.43L128.1,153.26L128.62,143.99L129.68,145.57L130.2,145.41L131.26,155.32L131.79,153.67L132.31,145.12L132.84,145.1L133.37,143.56L133.89,145.14L134.42,150.39L134.95,158.03L135.48,148.76L136,145.83L136.53,146.15L137.06,148.34L137.58,147.86L138.11,149.99L139.17,158.07L139.69,155.55L140.75,146.42L141.27,147.4L142.33,156.25L142.86,153.83L143.91,148.86L144.44,149.45L144.96,146.65L145.49,149.33L146.02,156.14L146.55,152.74L147.07,146.66L147.6,147.53L148.13,148.41L148.65,149.67L149.18,155.65L150.24,158.28L150.76,154.89L151.82,149.94L152.35,151.89L152.87,153.2L153.4,157.08L153.93,155.52L154.45,137.86L154.98,148.66L155.51,144.55L156.04,141.99L157.09,155.26L157.62,154.27L158.14,143.71L158.67,144.11L159.2,143.51L159.73,141.96L160.25,146.53L160.78,153.11L161.31,152.98L161.83,144.22L162.36,138.82L162.89,140.83L163.42,144.77L163.94,135.16L164.47,151.46L165,150.02L165.52,134.89L166.05,136.77L166.58,135.88L167.11,137.2L167.63,141.15L168.16,148.56L168.69,148.24L169.21,137.13L169.74,133.5L170.27,134.05L170.8,134.59L171.85,150.91L172.38,148.05L173.96,125.95L174.49,134.43L175.01,136.89L175.54,149.6L176.07,147.91L176.59,132.39L177.12,138.26L177.65,131.56L178.7,153.32L179.23,153.27L179.76,148.02L180.28,132.54L181.34,133.56L181.87,150.42L182.39,154.48L182.92,153.5L183.45,149.3L185.03,115.65L185.56,130.83L186.08,135.21L186.61,147.17L187.14,146.25L187.66,128.24L188.19,130.7L188.72,126.15L189.25,125.74L189.77,131.44L190.83,147.22L191.35,129.45L191.88,128.21L192.41,131.17L192.94,132.42L193.46,131.51L193.99,147.44L194.52,146.36L195.04,129.74L195.57,128.05L196.1,130.2L196.63,130.87L197.15,134.29L197.68,147.77L198.21,147.46L198.73,132.59L199.26,133.59L199.79,132.15L200.84,137.93L201.37,148.7L201.9,147.4L202.42,135.3L202.95,130.01L203.48,134.02L204.53,138.7L205.06,146.26L205.59,148.89L206.11,127.78L206.64,137.44L207.17,134.09L207.7,134.8L208.22,134.68L208.75,146.92L209.28,145.66L209.8,128.69L210.86,126.18L211.39,128.79L211.91,131.45L212.44,144.85L212.97,141.09L213.49,130.77L214.55,122.03L215.08,123.92L215.6,126.91L216.13,119.01L216.66,143.13L217.18,124.56L217.71,119.12L218.24,121.47L218.77,118.59L219.29,125.07L219.82,139.46L220.35,138.99L220.87,116.89L221.4,115.28L221.93,115.67L222.46,115.49L223.51,137.32L224.04,132.76L225.09,114.07L225.62,110.14L227.73,139.9L228.25,116.46L228.78,115.24L229.31,115.75L229.84,125.59L230.89,145.41L231.42,139.87L232.47,115.26L233,115.33L233.53,115.57L234.05,127.1L234.58,141.74L235.11,141.49L235.63,118.48L236.69,124.62L237.22,117.56L238.8,143.16L239.32,123.84L239.85,123.12L240.38,136.96L240.91,125.64L241.43,128.58L241.96,144.7L242.49,145.37L243.01,122.13L243.54,121.36L244.07,126L244.6,124.18L245.12,131.52L245.65,147.03L246.18,141.84L246.7,125.5L247.23,121.85L247.76,124.03L248.29,121.6L248.81,129.66L249.34,145.19L249.87,143.28L250.39,125.2L251.45,119.89L251.98,121.02L252.5,126.67L253.03,142.6L253.56,143.65L254.08,122.69L255.14,118.1L255.67,121.71L256.19,126.38L256.72,142.1L257.25,142.65L257.77,123.09L258.3,119.78L258.83,128.18L259.36,133.87L259.88,122.12L260.94,143.11L261.46,120.49L261.99,111.2L262.52,122.01L263.05,139.6L263.57,129.71L264.63,141.45L265.15,132.9L266.21,113.89L266.74,116.53L267.26,123.24L267.79,142.91L268.32,139.86L268.84,116.09L269.37,116.42L269.9,121.78L270.43,111.65L270.95,121.01L271.48,138.85L272.01,138.41L272.53,96.24L273.59,121.71L274.12,122.55L275.17,145.59L275.7,145.55L276.22,127.42L276.75,137.48L277.28,130L277.81,128.69L278.33,133.96L278.86,149.08L279.39,147.75L279.91,129.7L280.97,133.73L281.5,131.43L282.55,152.45L283.08,152.41L283.6,136.72L284.13,132.69L284.66,133.6L285.19,139.74L285.71,136.47L286.24,153.74L286.77,153.73L287.29,146.03L288.88,105.4L289.4,144.16L289.93,152.93L290.46,151.23L290.98,139.38L291.51,137.53L292.04,140.59L292.57,141.1L293.09,143.93L294.15,152.6L294.67,145.31L295.2,141.01L295.73,141.58L296.26,139.87L296.78,141.55L297.31,155.26L297.84,154.38L298.36,143.73L299.42,143.52L299.95,145.05L300.47,147.02L301,155.33L301.53,152.96L302.05,141.83L302.58,141.21L303.11,143.43L303.64,144.39L304.16,149.15L304.69,155.23L305.22,154.32L305.74,145.68L307.33,147.85L307.85,150.42L308.38,156.67L308.91,155.85L309.43,148.33L309.96,148.92L310.49,148.24L312.6,157.25L313.12,155.42L313.65,155.11L314.18,145.14L315.23,155.33L315.76,158.49L316.29,158.07L316.81,155.43L317.34,155.59L317.87,143.73L318.4,143.79L318.92,95.91L319.45,157.79L319.98,157.73L320.5,154.47L321.03,145.27L321.56,149.37L323.14,157.96L323.67,157.69L325.25,150.95L325.78,153.03L326.83,157.8L327.36,156.53L327.88,150.85L328.41,152.77L328.94,154.88L329.47,152.78L329.99,154.78L331.05,158.95L331.57,158.76L332.1,158.22L332.63,154.55L333.16,155.05L333.68,157.47L334.21,159.38L334.74,157.71L336.32,153.61L336.85,155.53L337.37,156.33L337.9,160.27L339.48,153.53L340.01,155.37L341.06,157.34L341.59,159.41L342.12,160.22L342.64,159.53L343.17,153.97L343.7,155.61L344.23,155.74L344.75,156.72L345.28,159.67L345.81,159.01L346.33,156.38L347.39,154.38L347.92,154.88L349.5,161.23L350.02,159.18L350.55,155.68L351.08,156.59L351.61,156.08L353.19,160.48L353.71,156.04L355.3,156.87L355.82,158.25L356.35,160.8L356.88,160.29L357.4,157.19L358.46,156.31L358.99,157.01L360.04,160.18L360.57,159.47L361.62,157.27L362.15,158.01L363.73,161.83L364.26,161.21L365.31,159.98L365.84,160.73L366.37,160.36L366.89,161.42L367.42,161.91L367.95,161.28L369,160.97L369.53,160.67L370.58,160.73L371.11,160.04L373.22,155.94L373.75,157.24L374.8,161.73L375.33,156.46L376.91,143.53L377.44,128.84L378.49,146.83L379.02,144.55L379.54,123.51L381.13,103.27L381.65,136.72L382.18,144.9L382.71,122.91L383.76,58.11L384.29,71.89L384.82,71.07L385.34,74.39L386.4,115.83L386.92,55.57L388.51,23.21L389.03,52.74L390.09,107.67L390.61,71.1L391.14,63.24L391.67,9.12L393.25,129.61L393.78,125.46L394.3,67.77L394.83,66.74L395.36,75.71L395.89,75.1L396.41,90.52L396.94,131.34L397.47,130.94L397.99,95.73L398.52,86.47L399.05,98.45L399.58,92.03L400.1,106.47L401.16,141.15L401.68,107.34L402.21,92.43L402.74,111.4L403.27,114.33L403.79,125.32L404.85,152.12L405.37,150.78L405.9,147.91L406.43,130.51L406.96,124.52L407.48,129.13L408.01,154.28L408.54,151.3L409.06,122.86L409.59,138.21L410.12,130.01L411.17,137.13L411.7,155.31L412.23,153.86L412.75,136.12L413.81,139.14L414.34,134.89L415.92,156.13L416.44,140.47L416.97,137.71L417.5,142.79L418.55,147L419.08,157L419.61,158.47L420.13,146.89L420.66,144.82L421.19,146.08L422.24,153.57L422.77,158.84L423.3,155.97L423.82,148.3L424.88,148.66L425.41,146.53L426.46,158.84L426.99,158.45L427.51,150.73L428.04,148.44L428.57,150.34L430.15,161.33L430.68,158.16L431.2,155.14L431.73,143.04L433.31,158.89L433.84,160.74L434.37,159.24L434.89,150.85L435.95,152.04L436.48,155.14L437,154.57L437.53,159.34L438.06,159.22L438.58,151.23L439.11,151.96L439.64,151.1L440.17,152.14L440.69,154.87L441.22,159.48L441.75,157.5L442.8,150.18L443.33,151.28L443.86,149L444.38,153.41L444.91,159.33L445.44,155.47L446.49,162.69L447.02,162.69L447.55,130.33L448.07,162.69L448.6,147.29L449.13,155.86L449.65,145.14L450.18,155L451.24,140.96L451.76,149.73L452.29,158.31L452.82,149.81L453.35,140.56L453.87,140.78L454.4,140.62L454.93,143.34L455.45,162.69L455.98,162.69L456.51,131.87L457.04,124.7L457.56,136.16L458.09,138.59L458.62,132.48L459.67,156.42L460.2,141.21L460.73,138.92L461.25,125.1L462.31,162.69L462.83,162.69L463.36,162.69L463.89,86.38L464.42,128.27L464.94,124.24L465.47,124.16L466,130.4L466.52,162.69L467.05,162.69L467.58,105.39L468.11,121.71L468.63,162.69L469.16,81.9L469.69,122.02L470.74,152.76L471.27,138.36L472.32,121.42L472.85,124.16L473.38,124.66L473.9,139.34L474.43,150.95L474.96,139.14L476.01,124.07L476.54,127.73L477.07,104.95L477.59,141.22L478.12,156.89L478.65,142L479.18,131.67L479.7,132.49L480.23,135.19L480.76,136.06L481.28,162.69L481.81,143.53L482.34,146.32L482.87,142.42L483.92,138.84L484.45,140.38L485.5,151.83L486.03,150.89L486.56,144.26L487.08,144.71L487.61,141.07L489.19,158.84L489.72,153.38L490.25,146.53L490.77,162.69L491.3,131.36L491.83,150.1L492.88,162.69L493.41,146.59L494.46,150.97L494.99,150.84L495.52,152.6L496.04,162.69L496.57,162.69L497.1,151.66L497.63,162.69L498.15,138.77L499.73,162.69L500.26,162.69L500.79,147.56L501.32,153.7L501.84,154.22L502.37,162.69L502.9,148.63L503.95,162.69L504.48,151.25L505.53,162.69L506.06,162.69L506.59,141.73L507.11,162.69L507.64,162.69L508.17,153.48L508.7,157.12L509.22,154.92L510.8,162.69L511.33,162.69L511.86,150.22L512.39,162.77L512.91,162.69L513.44,149.52L514.49,162.69L515.02,162.69L515.55,155.28L516.08,162.69L516.6,154.19L517.13,162.69L517.66,152.89L518.18,162.69L518.71,162.69L519.24,156.27L519.77,162.69L520.29,154.94L521.87,162.69L522.4,162.69L522.93,153.62L523.46,158.76L523.98,162.69L524.51,158.24L525.04,159.16L525.56,162.69L527.15,162.69L527.67,149.4L528.2,162.69L528.73,157.8L529.25,162.69L529.78,162.69L530.31,160.91L530.84,154.38L531.36,158.55L531.89,158.32L532.42,162.69L533.47,162.69L534,155.48L535.05,162.69L535.58,157.73L536.63,162.69L537.16,162.69L537.69,159.25L538.22,162.69L538.74,162.69L539.27,144.46L540.85,162.69L541.38,162.69L541.91,162.69L542.43,146.72L542.96,145.06L543.49,147.48L544.54,162.69L545.07,162.69L545.6,134.53L546.12,146.71L546.65,150.28L547.18,139.02L547.7,162.69L548.76,162.69L549.29,120.93L549.81,162.69L550.34,122.83L551.92,162.69L552.45,131.33L553.5,162.69L554.03,90.21L555.08,162.69L555.61,162.69L556.14,102.76L556.67,134.27L557.19,133.55L557.72,131.45L558.25,130.77L558.77,162.69L559.3,162.69L559.83,122.29L560.88,139.87L561.41,136.81L562.46,162.69L562.99,162.69L563.52,110.52L564.05,143.49L564.57,142.14L565.1,142.53L565.63,147.25L566.68,162.69L567.21,146.07L567.74,162.69L568.26,130.19L568.79,162.69L569.32,133.77L570.37,162.69L570.9,162.69L571.43,122.46L571.95,148.56L572.48,152.49L573.01,150.69L574.06,160.8L574.59,155.91L575.12,149.52L575.64,156.05L576.17,162.69L576.7,143.97L577.75,162.4L578.28,155.81L578.81,151.73L579.33,153.46L579.86,162.69L580.39,150.61L580.91,162.69L581.44,161.09L581.97,155.44L582.5,153.73L583.02,155.55L583.55,162.69L584.08,147.54L585.13,162.69L585.66,156.61L587.24,158.67L587.77,156.05L588.29,155.89L588.82,161.36L589.35,151.64L589.88,162.69L590.4,153.09L590.93,163.19L591.46,162.69L591.98,153.51L593.04,162.69L593.57,162.69L594.62,156.48L595.15,156.5L596.2,162.69L596.73,153.23L597.78,157.06L598.31,162.69L598.84,153.2L599.36,162.69L599.89,162.69L600.42,165.45L601.47,162.69L602,162.69" style="vector-effect: non-scaling-stroke; fill: none; stroke: rgb(31, 119, 180); stroke-opacity: 1; stroke-width: 2px; opacity: 1;"/></g><g class="points"/><g class="text"/></g></g></g><g class="overplot"/><path class="xlines-above crisp" style="fill: none;" d="M0,0"/><path class="ylines-above crisp" style="fill: none;" d="M0,0"/><g class="overlines-above"/><g class="xaxislayer-above"><g class="xtick"><text text-anchor="middle" x="0" y="255.4" transform="translate(142.87,0)" style="font-family: 'Open Sans', verdana, arial, sans-serif; font-size: 12px; fill: rgb(68, 68, 68); fill-opacity: 1; white-space: pre; opacity: 1;">Jul 2020</text></g><g class="xtick"><text text-anchor="middle" x="0" y="255.4" style="font-family: 'Open Sans', verdana, arial, sans-serif; font-size: 12px; fill: rgb(68, 68, 68); fill-opacity: 1; white-space: pre; opacity: 1;" transform="translate(239.87,0)">Jan 2021</text></g><g class="xtick"><text text-anchor="middle" x="0" y="255.4" style="font-family: 'Open Sans', verdana, arial, sans-serif; font-size: 12px; fill: rgb(68, 68, 68); fill-opacity: 1; white-space: pre; opacity: 1;" transform="translate(335.28,0)">Jul 2021</text></g><g class="xtick"><text text-anchor="middle" x="0" y="255.4" style="font-family: 'Open Sans', verdana, arial, sans-serif; font-size: 12px; fill: rgb(68, 68, 68); fill-opacity: 1; white-space: pre; opacity: 1;" transform="translate(432.27,0)">Jan 2022</text></g><g class="xtick"><text text-anchor="middle" x="0" y="255.4" style="font-family: 'Open Sans', verdana, arial, sans-serif; font-size: 12px; fill: rgb(68, 68, 68); fill-opacity: 1; white-space: pre; opacity: 1;" transform="translate(527.69,0)">Jul 2022</text></g><g class="xtick"><text text-anchor="middle" x="0" y="255.4" style="font-family: 'Open Sans', verdana, arial, sans-serif; font-size: 12px; fill: rgb(68, 68, 68); fill-opacity: 1; white-space: pre; opacity: 1;" transform="translate(624.68,0)">Jan 2023</text></g></g><g class="yaxislayer-above"><g class="ytick"><text text-anchor="end" x="57" y="4.199999999999999" transform="translate(0,222.69)" style="font-family: 'Open Sans', verdana, arial, sans-serif; font-size: 12px; fill: rgb(68, 68, 68); fill-opacity: 1; white-space: pre; opacity: 1;">0</text></g><g class="ytick"><text text-anchor="end" x="57" y="4.199999999999999" style="font-family: 'Open Sans', verdana, arial, sans-serif; font-size: 12px; fill: rgb(68, 68, 68); fill-opacity: 1; white-space: pre; opacity: 1;" transform="translate(0,169.20999999999998)">100k</text></g><g class="ytick"><text text-anchor="end" x="57" y="4.199999999999999" style="font-family: 'Open Sans', verdana, arial, sans-serif; font-size: 12px; fill: rgb(68, 68, 68); fill-opacity: 1; white-space: pre; opacity: 1;" transform="translate(0,115.72999999999999)">200k</text></g><g class="ytick"><text text-anchor="end" x="57" y="4.199999999999999" style="font-family: 'Open Sans', verdana, arial, sans-serif; font-size: 12px; fill: rgb(68, 68, 68); fill-opacity: 1; white-space: pre; opacity: 1;" transform="translate(0,62.25)">300k</text></g></g><g class="overaxes-above"/></g><g class="subplot x2y2"><g class="layer-subplot"><g class="shapelayer"/><g class="imagelayer"/></g><g class="gridlayer"><g class="x2"><path class="x2grid crisp" transform="translate(142.87,0)" d="M0,257.6v182.4" style="stroke: rgb(238, 238, 238); stroke-opacity: 1; stroke-width: 1px;"/><path class="x2grid crisp" transform="translate(239.87,0)" d="M0,257.6v182.4" style="stroke: rgb(238, 238, 238); stroke-opacity: 1; stroke-width: 1px;"/><path class="x2grid crisp" transform="translate(335.28,0)" d="M0,257.6v182.4" style="stroke: rgb(238, 238, 238); stroke-opacity: 1; stroke-width: 1px;"/><path class="x2grid crisp" transform="translate(432.27,0)" d="M0,257.6v182.4" style="stroke: rgb(238, 238, 238); stroke-opacity: 1; stroke-width: 1px;"/><path class="x2grid crisp" transform="translate(527.69,0)" d="M0,257.6v182.4" style="stroke: rgb(238, 238, 238); stroke-opacity: 1; stroke-width: 1px;"/><path class="x2grid crisp" transform="translate(624.68,0)" d="M0,257.6v182.4" style="stroke: rgb(238, 238, 238); stroke-opacity: 1; stroke-width: 1px;"/></g><g class="y2"><path class="y2grid crisp" transform="translate(0,388.92)" d="M58,0h602" style="stroke: rgb(238, 238, 238); stroke-opacity: 1; stroke-width: 1px;"/><path class="y2grid crisp" transform="translate(0,350.1)" d="M58,0h602" style="stroke: rgb(238, 238, 238); stroke-opacity: 1; stroke-width: 1px;"/><path class="y2grid crisp" transform="translate(0,311.28000000000003)" d="M58,0h602" style="stroke: rgb(238, 238, 238); stroke-opacity: 1; stroke-width: 1px;"/><path class="y2grid crisp" transform="translate(0,272.47)" d="M58,0h602" style="stroke: rgb(238, 238, 238); stroke-opacity: 1; stroke-width: 1px;"/></g></g><g class="zerolinelayer"><path class="y2zl zl crisp" transform="translate(0,427.74)" d="M58,0h602" style="stroke: rgb(68, 68, 68); stroke-opacity: 1; stroke-width: 1px;"/></g><path class="xlines-below"/><path class="ylines-below"/><g class="overlines-below"/><g class="xaxislayer-below"/><g class="yaxislayer-below"/><g class="overaxes-below"/><g class="plot" transform="translate(58,257.6)" clip-path="url(#clip33471cx2y2plot)"><g class="scatterlayer mlayer"><g class="trace scatter tracefc3748" style="stroke-miterlimit: 2; opacity: 1;"><g class="fills"/><g class="errorbars"/><g class="lines"><path class="js-line" d="M0,170.14L34.79,169.4L35.32,169.17L35.85,169.24L36.37,168.51L36.9,168.62L37.43,166.88L37.95,168.78L38.48,166.8L39.01,168.54L39.54,167.11L40.59,164.97L41.12,165.05L42.17,167.53L42.7,166.29L43.23,166.06L43.75,162.22L44.81,162.84L45.33,161.71L45.86,161.87L46.39,165.94L47.97,163.73L48.5,153.64L50.08,161.25L50.61,157.83L51.13,151.5L51.66,153.44L52.19,151L53.77,158.88L54.3,157.87L55.35,144.9L55.88,146.77L56.4,138.03L56.93,145.33L57.46,152.01L57.99,149.56L58.51,138.77L59.57,140.67L60.09,132.75L61.15,152.43L61.68,141.6L62.2,126.27L62.73,128.37L63.26,128.64L63.78,130.11L64.31,129.53L64.84,144.59L65.37,141.92L65.89,129.22L66.42,128.95L66.95,123.94L67.47,126L68,136.6L68.53,151.85L69.06,141.37L69.58,117.15L70.11,123.79L70.64,111.52L72.22,151.66L72.75,136.64L73.8,122.08L74.33,120.91L74.85,137.41L75.38,136.87L75.91,145.53L76.44,140.48L76.96,118.43L77.49,124.14L78.02,122.04L78.54,124.64L79.6,147.51L80.13,140.56L80.65,115.56L81.18,127.28L81.71,124.33L82.23,131.59L82.76,130.11L83.29,147.08L83.82,142.11L84.34,119.01L84.87,127.98L85.4,121.26L85.92,123.05L86.45,128.99L86.98,148.48L87.51,143.55L88.03,119.67L88.56,124.6L89.09,122.7L89.61,119.75L90.67,146.19L91.2,137.72L91.72,119.91L92.25,120.45L92.78,119.71L94.36,142.65L94.89,140.32L95.41,119.01L95.94,119.83L96.47,119.17L97.52,127.48L98.05,147.58L98.58,143.55L99.1,121.3L100.16,123.48L100.68,120.95L101.74,149.8L102.27,146.77L102.79,117.42L103.32,117.11L103.85,122.55L104.9,138.03L105.43,148.05L106.48,123.79L107.01,124.18L107.54,121.92L109.12,147.35L109.65,139.24L110.17,117.65L110.7,124.99L111.23,122.12L112.81,152.47L113.34,142.07L113.86,123.44L114.39,128.25L114.92,131.9L115.44,137.18L115.97,135.32L116.5,154.57L118.08,123.4L118.61,136.48L119.13,137.18L119.66,146.69L120.72,157.71L121.24,149.76L121.77,125.22L122.3,132.33L122.82,137.22L123.35,140.36L123.88,154.41L124.41,152.36L124.93,128.14L127.04,143.7L127.57,156.51L128.1,152.05L128.62,139.31L129.15,133.96L129.68,139.28L130.2,138.23L130.73,142.11L131.26,156.98L131.79,154.96L132.31,136.83L132.84,132.02L133.37,140.13L134.95,156.24L135.48,154.88L136,138.69L138.11,149.41L138.64,159.34L139.17,162.61L139.69,155.46L140.75,138.54L141.27,145.18L142.33,161.01L142.86,157.48L143.38,144.98L143.91,147.97L144.44,150.53L144.96,148.28L145.49,155.11L146.02,161.09L146.55,158.41L147.07,149.72L147.6,150.57L148.13,148.75L148.65,147.89L149.18,158.8L150.24,163.73L150.76,158.96L151.29,146.15L151.82,146.73L152.35,159.62L153.93,162.92L154.45,162.45L155.51,133.92L156.04,147.78L156.56,141.64L157.09,164.7L157.62,160.16L158.14,143.82L158.67,140.87L159.2,144.9L160.78,163.23L161.31,156.36L161.83,145.8L162.36,145.95L162.89,142.58L164.47,161.09L165,156.51L165.52,143.55L166.05,143.78L166.58,140.6L167.63,145.02L168.16,156.94L168.69,153.64L169.21,139.16L169.74,137.02L170.27,140.28L170.8,144.48L171.32,143.86L171.85,158.68L173.96,128.95L174.49,138.42L175.54,153.87L176.07,148.36L176.59,132.52L177.12,132.68L177.65,140.63L178.7,158.65L179.23,157.05L179.76,149.25L180.28,129.34L180.81,122.89L181.34,130.7L182.39,158.76L182.92,158.06L185.03,111.21L185.56,128.17L186.08,130.97L186.61,151.12L187.14,151.08L187.66,126.47L188.19,121.07L188.72,125.34L189.25,126.08L189.77,130.77L190.83,151.66L191.35,125.11L191.88,115.99L192.41,117.85L192.94,128.56L193.46,125.69L193.99,147.04L194.52,143.35L195.04,125.3L196.1,114.32L196.63,127.94L197.15,123.87L197.68,148.09L198.21,145.95L198.73,121.19L199.26,123.59L199.79,120.6L200.32,121.57L200.84,133.76L201.37,151.15L201.9,142.15L202.95,117.3L203.48,114.16L205.59,146.42L206.11,127.75L206.64,123.98L207.17,114.28L207.7,118.47L208.22,130.11L208.75,146.61L209.28,142.54L209.8,117.38L210.86,109L211.39,118L211.91,121.54L212.44,140.13L212.97,137.99L213.49,103.33L214.02,98.4L214.55,99.95L215.08,103.6L216.13,127.51L216.66,126.58L217.18,94.4L217.71,77.71L218.24,84.93L219.29,94.21L219.82,128.6L220.35,118.35L220.87,59.51L221.4,66.84L221.93,64.4L222.46,67.04L222.98,78.22L223.51,121.73L224.04,107.91L224.56,47.98L225.09,80.2L225.62,67.11L226.15,33.89L226.67,37.81L227.2,108.73L227.73,92L228.25,28.26L228.78,17.78L229.31,28.26L230.89,121.92L231.42,95.92L231.94,12.23L232.47,27.64L233,9.12L233.53,24.49L234.05,77.83L235.11,103.72L235.63,24.3L236.16,36.41L236.69,34.62L237.22,40.6L237.74,58.46L238.27,111.06L238.8,101.97L239.32,40.21L239.85,46.04L240.38,90.52L240.91,52.05L241.43,62.77L241.96,118.35L242.49,116.57L243.01,50.54L243.54,53.22L244.07,52.44L244.6,59.08L246.18,126.47L246.7,54.5L248.81,89.32L249.34,134.35L249.87,127.01L250.39,82.99L250.92,69.95L251.45,81.75L252.5,92.46L253.03,128.95L253.56,128.02L254.08,74.99L255.14,72.66L255.67,87.61L257.25,136.67L257.77,85.36L258.3,74.53L258.83,88.58L259.36,75.96L259.88,94.79L260.41,134.7L260.94,132.64L261.46,79.54L261.99,72.78L262.52,95.84L263.05,123.9L263.57,105.31L264.1,135.98L264.63,125.53L265.15,67.35L265.68,77.28L266.21,72.9L267.26,93.51L267.79,126.66L268.32,130.54L268.84,65.91L269.37,65.25L269.9,80.31L270.43,74.02L270.95,84.54L272.01,132.06L272.53,88.5L273.06,82.21L273.59,91.03L274.12,92.19L274.64,111.25L275.7,142.42L276.22,94.91L276.75,90.02L277.28,95.14L277.81,97.31L278.33,106.63L278.86,140.21L279.39,139.51L279.91,101.86L280.44,108.61L280.97,103.1L282.02,125.18L282.55,148.2L283.08,139.78L283.6,105.74L284.13,110.51L284.66,107.68L285.71,120.8L286.24,151.46L286.77,144.21L287.29,116.61L288.35,114.59L288.88,120.02L289.4,128.17L289.93,151.54L290.46,145.87L290.98,120.1L291.51,116.84L292.04,118.08L292.57,135.78L293.09,133.3L293.62,154.03L294.15,149.02L294.67,122.12L296.26,132.91L296.78,131.36L297.31,155.04L297.84,150.42L298.36,120.91L299.95,135.51L300.47,134.73L301,155.04L301.53,154.07L302.05,127.67L303.64,135.43L304.16,146.42L304.69,157.21L305.22,153.95L305.74,136.79L306.27,135.7L306.8,136.33L307.33,138.38L307.85,145.72L308.38,159.34L308.91,157.79L309.43,135.94L309.96,143.08L310.49,139.78L311.54,145.37L312.07,159.62L312.6,161.6L313.12,157.44L313.65,160.47L314.18,138.15L316.29,159.11L316.81,143.82L317.34,139.04L317.87,144.4L318.92,147.39L319.45,160.51L319.98,159.85L320.5,144.01L321.03,144.32L321.56,145.72L322.09,143.74L322.61,149.17L323.67,162.61L324.19,138.42L326.83,161.36L327.36,162.22L327.88,143.58L328.41,148.01L328.94,153.52L329.47,145.68L329.99,153.99L330.52,164.27L331.05,162.1L331.57,163.34L332.1,162.14L332.63,147.93L333.68,152.09L334.21,165.17L336.32,152.05L336.85,152.78L337.9,165.52L338.43,162.1L339.48,153.25L340.01,155.66L340.54,154.3L341.06,161.75L342.12,166.14L342.64,164.24L343.17,162.76L343.7,153.29L344.75,158.37L345.28,167.42L346.86,159.69L347.39,160.82L347.92,146.03L348.44,158.22L348.97,167.61L349.5,167.42L350.02,164.58L350.55,155.5L351.08,159.58L352.13,162.1L352.66,166.41L353.19,165.24L353.71,158.68L354.24,159.62L354.77,158.96L355.3,158.3L355.82,161.32L356.35,167.03L356.88,165.56L357.4,157.48L358.46,162.53L358.99,161.05L360.04,167.38L360.57,165.01L361.09,160L361.62,160.82L362.15,162.37L362.68,161.29L363.2,168.08L363.73,166.95L364.26,168.39L364.78,165.75L365.31,158.57L365.84,165.36L366.37,162.45L367.42,168L367.95,166.91L368.47,167.38L369,164.47L369.53,165.24L370.06,163.81L370.58,168.93L371.11,168.35L371.64,167.61L372.16,163.11L372.69,165.59L373.22,164.16L373.75,166.84L374.8,168.82L375.33,167.34L375.85,163.11L376.38,170.14L376.91,170.14L377.44,163.61L377.96,165.67L378.49,157.95L379.02,165.67L379.54,164.66L380.07,164.93L381.13,161.09L381.65,163.54L382.18,166.49L382.71,164.27L383.23,157.52L383.76,157.64L384.29,156.51L384.82,154.65L385.34,157.87L385.87,163.19L386.4,159.81L387.98,144.01L388.51,139.86L389.03,142.96L389.56,159.27L391.67,131.32L392.2,132.72L392.72,137.92L393.25,153.87L393.78,153.37L394.3,124.64L394.83,119.56L395.36,134.54L395.89,126.31L396.41,136.02L396.94,157.44L397.47,151.58L397.99,134.23L399.58,124.18L400.1,136.95L401.16,157.48L401.68,138.42L402.74,131.75L403.27,139.35L403.79,143.43L404.32,160.31L405.37,160.59L405.9,157.25L406.96,143.04L407.48,143.2L408.54,161.98L409.06,151.27L409.59,145.56L410.12,146.34L410.65,152.16L411.17,154.96L411.7,165.28L413.81,152.2L414.34,154.41L415.92,166.25L416.44,154.22L416.97,159.23L417.5,157.95L418.03,160.24L419.61,167.5L420.13,159.23L421.72,160.7L422.24,166.02L422.77,168.62L423.3,163.92L424.88,160.51L425.41,164.35L426.46,168.66L426.99,167.69L427.51,163.73L428.04,163.81L428.57,164.74L429.1,165.83L429.62,168.93L430.15,169.28L430.68,167.65L431.73,159.93L432.26,166.56L433.31,168.08L433.84,168.74L434.89,164.55L435.42,160.74L435.95,165.71L436.48,162.95L437.53,169.51L438.06,166.8L438.58,166.56L439.11,167.65L440.17,162.57L440.69,168.78L441.22,169.63L441.75,168.12L442.27,162.45L442.8,165.24L443.86,164.78L444.38,166.56L445.96,170.14L446.49,170.14L447.02,170.14L447.55,150.49L448.07,170.21L448.6,164.93L449.13,168.7L449.65,160.9L450.18,165.01L450.71,173.28L451.24,164.74L452.29,167.73L452.82,167.69L453.35,163.92L453.87,165.28L454.4,165.13L455.45,170.14L455.98,170.14L456.51,167.42L457.04,158.22L457.56,158.53L458.09,164.58L458.62,163.54L459.14,165.71L459.67,168.74L460.2,167.42L460.73,163.38L461.25,156.98L461.78,170.14L463.36,170.14L463.89,151.97L464.94,164.7L465.47,155.97L466,157.17L466.52,170.14L467.05,170.14L467.58,158.37L468.11,157.87L468.63,170.14L469.16,148.09L469.69,159.11L470.74,168.08L471.27,165.4L471.8,154.76L472.32,156.12L472.85,159.15L473.38,159.81L473.9,161.79L474.43,167.96L474.96,164.39L476.01,155.39L476.54,158.61L477.07,158.06L477.59,162.18L478.12,168L478.65,163.61L479.18,156.43L479.7,156.7L480.23,159.69L480.76,159.27L481.28,170.14L482.87,156.51L483.39,158.1L484.97,163.42L485.5,169.05L486.56,158.68L487.08,159.85L487.61,160L488.14,161.52L488.66,163.11L489.19,167.92L490.25,155.97L490.77,170.14L491.3,151.7L491.83,160.55L492.88,170.14L493.41,158.34L493.94,162.14L494.46,160.55L494.99,162.14L496.57,170.14L497.1,162.72L497.63,170.14L498.15,149.68L498.68,164.04L499.21,163.77L499.73,170.14L500.26,170.14L500.79,161.4L501.32,161.25L501.84,165.71L502.37,170.14L502.9,158.61L503.95,170.14L504.48,163.81L505.53,170.14L506.06,170.14L506.59,155.07L507.11,170.14L507.64,170.14L508.17,166.84L509.22,165.52L509.75,166.95L510.8,170.14L511.33,170.14L511.86,161.56L512.39,169.98L512.91,170.14L513.44,160.47L514.49,170.14L515.02,170.14L515.55,166.84L516.08,170.14L516.6,166.56L517.13,170.14L517.66,165.9L518.18,170.14L518.71,170.14L519.24,157.13L519.77,170.14L520.29,162.29L521.87,170.14L522.4,170.14L522.93,163.5L523.46,166.8L523.98,170.14L524.51,166.02L526.09,170.14L526.62,170.14L527.15,170.14L527.67,159.31L528.2,170.14L528.73,166.1L529.25,170.14L529.78,170.14L530.31,168.31L531.36,162.49L531.89,168L532.94,170.14L533.47,170.14L534,162.57L534.53,167.73L535.05,170.14L535.58,168.27L536.11,167.61L536.63,170.14L537.16,170.14L537.69,167.69L538.74,170.14L539.27,161.91L540.32,170.14L540.85,170.14L541.91,170.14L542.43,165.94L544.54,170.14L545.07,170.14L545.6,160.51L546.12,165.59L546.65,167.42L547.18,166.25L548.23,170.14L548.76,170.14L549.29,161.48L549.81,170.14L550.34,159.27L550.87,165.13L551.92,170.14L552.45,164.12L553.5,170.14L554.03,152.75L555.08,170.14L555.61,170.14L556.14,157.02L556.67,163.81L557.19,159.62L557.72,162.26L558.25,164L558.77,170.14L559.3,170.14L559.83,161.17L560.36,160.86L560.88,163.11L561.41,162.72L561.94,170.14L562.99,170.14L563.52,157.83L564.05,161.21L564.57,156.04L566.15,170.14L566.68,170.14L567.21,165.17L567.74,170.14L568.26,153.44L568.79,170.14L569.32,155.85L569.84,170.14L570.9,170.14L571.43,162.14L571.95,166.14L572.48,164.39L574.06,170.06L574.59,167.53L575.12,165.71L575.64,166.6L576.17,170.14L576.7,147.89L577.22,167.57L577.75,170.02L578.28,167.53L578.81,163.89L579.33,165.56L579.86,170.14L580.39,164.74L580.91,170.14L581.44,169.48L581.97,164.97L582.5,163.07L583.02,165.24L583.55,170.14L584.08,164.2L585.13,170.14L585.66,167.26L586.71,166.53L587.24,168.7L587.77,171.8L588.29,168.51L588.82,169.67L589.35,166.72L589.88,170.14L590.4,164.62L590.93,165.71L591.46,170.14L591.98,168.89L592.51,170.14L593.57,170.14L594.09,157.25L594.62,152.59L595.15,166.49L596.2,170.14L596.73,167.11L597.26,166.99L597.78,165.87L598.31,170.14L598.84,167.07L599.89,170.14L600.42,170.14L602,170.14" style="vector-effect: non-scaling-stroke; fill: none; stroke: rgb(255, 0, 0); stroke-opacity: 1; stroke-width: 2px; opacity: 1;"/></g><g class="points"/><g class="text"/></g></g></g><g class="overplot"/><path class="xlines-above crisp" style="fill: none;" d="M0,0"/><path class="ylines-above crisp" style="fill: none;" d="M0,0"/><g class="overlines-above"/><g class="xaxislayer-above"><g class="x2tick"><text text-anchor="middle" x="0" y="453" transform="translate(142.87,0)" style="font-family: 'Open Sans', verdana, arial, sans-serif; font-size: 12px; fill: rgb(68, 68, 68); fill-opacity: 1; white-space: pre; opacity: 1;">Jul 2020</text></g><g class="x2tick"><text text-anchor="middle" x="0" y="453" style="font-family: 'Open Sans', verdana, arial, sans-serif; font-size: 12px; fill: rgb(68, 68, 68); fill-opacity: 1; white-space: pre; opacity: 1;" transform="translate(239.87,0)">Jan 2021</text></g><g class="x2tick"><text text-anchor="middle" x="0" y="453" style="font-family: 'Open Sans', verdana, arial, sans-serif; font-size: 12px; fill: rgb(68, 68, 68); fill-opacity: 1; white-space: pre; opacity: 1;" transform="translate(335.28,0)">Jul 2021</text></g><g class="x2tick"><text text-anchor="middle" x="0" y="453" style="font-family: 'Open Sans', verdana, arial, sans-serif; font-size: 12px; fill: rgb(68, 68, 68); fill-opacity: 1; white-space: pre; opacity: 1;" transform="translate(432.27,0)">Jan 2022</text></g><g class="x2tick"><text text-anchor="middle" x="0" y="453" style="font-family: 'Open Sans', verdana, arial, sans-serif; font-size: 12px; fill: rgb(68, 68, 68); fill-opacity: 1; white-space: pre; opacity: 1;" transform="translate(527.69,0)">Jul 2022</text></g><g class="x2tick"><text text-anchor="middle" x="0" y="453" style="font-family: 'Open Sans', verdana, arial, sans-serif; font-size: 12px; fill: rgb(68, 68, 68); fill-opacity: 1; white-space: pre; opacity: 1;" transform="translate(624.68,0)">Jan 2023</text></g></g><g class="yaxislayer-above"><g class="y2tick"><text text-anchor="end" x="57" y="4.199999999999999" transform="translate(0,427.74)" style="font-family: 'Open Sans', verdana, arial, sans-serif; font-size: 12px; fill: rgb(68, 68, 68); fill-opacity: 1; white-space: pre; opacity: 1;">0</text></g><g class="y2tick"><text text-anchor="end" x="57" y="4.199999999999999" style="font-family: 'Open Sans', verdana, arial, sans-serif; font-size: 12px; fill: rgb(68, 68, 68); fill-opacity: 1; white-space: pre; opacity: 1;" transform="translate(0,388.92)">1000</text></g><g class="y2tick"><text text-anchor="end" x="57" y="4.199999999999999" style="font-family: 'Open Sans', verdana, arial, sans-serif; font-size: 12px; fill: rgb(68, 68, 68); fill-opacity: 1; white-space: pre; opacity: 1;" transform="translate(0,350.1)">2000</text></g><g class="y2tick"><text text-anchor="end" x="57" y="4.199999999999999" style="font-family: 'Open Sans', verdana, arial, sans-serif; font-size: 12px; fill: rgb(68, 68, 68); fill-opacity: 1; white-space: pre; opacity: 1;" transform="translate(0,311.28000000000003)">3000</text></g><g class="y2tick"><text text-anchor="end" x="57" y="4.199999999999999" style="font-family: 'Open Sans', verdana, arial, sans-serif; font-size: 12px; fill: rgb(68, 68, 68); fill-opacity: 1; white-space: pre; opacity: 1;" transform="translate(0,272.47)">4000</text></g></g><g class="overaxes-above"/></g></g><g class="polarlayer"/><g class="smithlayer"/><g class="ternarylayer"/><g class="geolayer"/><g class="funnelarealayer"/><g class="pielayer"/><g class="iciclelayer"/><g class="treemaplayer"/><g class="sunburstlayer"/><g class="glimages"/><defs id="topdefs-33471c"><g class="clips"/><clipPath id="legend33471c"><rect width="108" height="48" x="0" y="0"/></clipPath></defs><g class="layer-above"><g class="imagelayer"/><g class="shapelayer"/></g><g class="infolayer"><g class="legend" pointer-events="all" transform="translate(88.1,60)"><rect class="bg" shape-rendering="crispEdges" style="stroke: rgb(68, 68, 68); stroke-opacity: 1; fill: rgb(255, 255, 255); fill-opacity: 1; stroke-width: 0px;" width="108" height="48" x="0" y="0"/><g class="scrollbox" transform="" clip-path="url(#legend33471c)"><g class="groups"><g class="traces" style="opacity: 1;" transform="translate(0,14.5)"><text class="legendtext" text-anchor="start" x="40" y="4.680000000000001" style="font-family: 'Open Sans', verdana, arial, sans-serif; font-size: 12px; fill: rgb(68, 68, 68); fill-opacity: 1; white-space: pre;">Confirmed</text><g class="layers" style="opacity: 1;"><g class="legendfill"/><g class="legendlines"><path class="js-line" d="M5,0h30" style="fill: none; stroke: rgb(31, 119, 180); stroke-opacity: 1; stroke-width: 2px;"/></g><g class="legendsymbols"><g class="legendpoints"/></g></g><rect class="legendtoggle" x="0" y="-9.5" width="102.1875" height="19" style="fill: rgb(0, 0, 0); fill-opacity: 0;"/></g><g class="traces" style="opacity: 1;" transform="translate(0,33.5)"><text class="legendtext" text-anchor="start" x="40" y="4.680000000000001" style="font-family: 'Open Sans', verdana, arial, sans-serif; font-size: 12px; fill: rgb(68, 68, 68); fill-opacity: 1; white-space: pre;">Death</text><g class="layers" style="opacity: 1;"><g class="legendfill"/><g class="legendlines"><path class="js-line" d="M5,0h30" style="fill: none; stroke: rgb(255, 0, 0); stroke-opacity: 1; stroke-width: 2px;"/></g><g class="legendsymbols"><g class="legendpoints"/></g></g><rect class="legendtoggle" x="0" y="-9.5" width="102.1875" height="19" style="fill: rgb(0, 0, 0); fill-opacity: 0;"/></g></g></g><rect class="scrollbar" rx="20" ry="3" width="0" height="0" style="fill: rgb(128, 139, 164); fill-opacity: 1;" x="0" y="0"/></g><g class="g-gtitle"><text class="gtitle" x="350" y="30" text-anchor="middle" dy="0em" style="font-family: 'Open Sans', verdana, arial, sans-serif; font-size: 17px; fill: rgb(68, 68, 68); opacity: 1; font-weight: normal; white-space: pre;">Brazil - Daily Confirmed and Death Cases</text></g><g class="g-xtitle"/><g class="g-x2title"><text class="x2title" x="359" y="492" text-anchor="middle" style="font-family: 'Open Sans', verdana, arial, sans-serif; font-size: 14px; fill: rgb(68, 68, 68); opacity: 1; font-weight: normal; white-space: pre;">Source: Johns Hopkins University Center for Systems Science and Engineering</text></g><g class="g-ytitle"><text class="ytitle" transform="rotate(-90,20,151.2)" x="20" y="151.2" text-anchor="middle" style="font-family: 'Open Sans', verdana, arial, sans-serif; font-size: 14px; fill: rgb(68, 68, 68); opacity: 1; font-weight: normal; white-space: pre;">Cases</text></g><g class="g-y2title"><text class="y2title" transform="rotate(-90,20,348.8)" x="20" y="348.8" text-anchor="middle" style="font-family: 'Open Sans', verdana, arial, sans-serif; font-size: 14px; fill: rgb(68, 68, 68); opacity: 1; font-weight: normal; white-space: pre;">Cases</text></g></g></svg>