<svg class="main-svg" xmlns="http://www.w3.org/2000/svg" xmlns:xlink="http://www.w3.org/1999/xlink" width="700" height="500" style="" viewBox="0 0 700 500"><rect x="0" y="0" width="700" height="500" style="fill: rgb(255, 255, 255); fill-opacity: 1;"/><defs id="defs-39d96f"><g class="clips"><clipPath id="clip39d96fxyplot" class="plotclip"><rect width="602" height="182.4"/></clipPath><clipPath id="clip39d96fx2y2plot" class="plotclip"><rect width="602" height="182.4"/></clipPath><clipPath class="axesclip" id="clip39d96fx"><rect x="58" y="0" width="602" height="500"/></clipPath><clipPath class="axesclip" id="clip39d96fy"><rect x="0" y="60" width="700" height="182.4"/></clipPath><clipPath class="axesclip" id="clip39d96fxy"><rect x="58" y="60" width="602" height="182.4"/></clipPath><clipPath class="axesclip" id="clip39d96fy2"><rect x="0" y="257.6" width="700" height="182.4"/></clipPath><clipPath class="axesclip" id="clip39d96fxy2"><rect x="58" y="257.6" width="602" height="182.4"/></clipPath><clipPath class="axesclip" id="clip39d96fx2"><rect x="58" y="0" width="602" height="500"/></clipPath><clipPath class="axesclip" id="clip39d96fx2y"><rect x="58" y="60" width="602" height="182.4"/></clipPath><clipPath class="axesclip" id="clip39d96fx2y2"><rect x="58" y="257.6" width="602" height="182.4"/></clipPath></g><g class="gradients"/><g class="patterns"/></defs><g class="bglayer"/><g class="layer-below"><g class="imagelayer"/><g class="shapelayer"/></g><g class="cartesianlayer"><g class="subplot xy"><g class="layer-subplot"><g class="shapelayer"/><g class="imagelayer"/></g><g class="gridlayer"><g class="x"><path class="xgrid crisp" transform="translate(167.89,0)" d="M0,60v182.4" style="stroke: rgb(238, 238, 238); stroke-opacity: 1; stroke-width: 1px;"/><path class="xgrid crisp" transform="translate(293.48,0)" d="M0,60v182.4" style="stroke: rgb(238, 238, 238); stroke-opacity: 1; stroke-width: 1px;"/><path class="xgrid crisp" transform="translate(417.02,0)" d="M0,60v182.4" style="stroke: rgb(238, 238, 238); stroke-opacity: 1; stroke-width: 1px;"/><path class="xgrid crisp" transform="translate(542.6,0)" d="M0,60v182.4" style="stroke: rgb(238, 238, 238); stroke-opacity: 1; stroke-width: 1px;"/></g><g class="y"><path class="ygrid crisp" transform="translate(0,169.20999999999998)" d="M58,0h602" style="stroke: rgb(238, 238, 238); stroke-opacity: 1; stroke-width: 1px;"/><path class="ygrid crisp" transform="translate(0,115.72999999999999)" d="M58,0h602" style="stroke: rgb(238, 238, 238); stroke-opacity: 1; stroke-width: 1px;"/><path class="ygrid crisp" transform="translate(0,62.25)" d="M58,0h602" style="stroke: rgb(238, 238, 238); stroke-opacity: 1; stroke-width: 1px;"/></g></g><g class="zerolinelayer"><path class="yzl zl crisp" transform="translate(0,222.69)" d="M58,0h602" style="stroke: rgb(68, 68, 68); stroke-opacity: 1; stroke-width: 1px;"/></g><path class="xlines-below"/><path class="ylines-below"/><g class="overlines-below"/><g class="xaxislayer-below"/><g class="yaxislayer-below"/><g class="overaxes-below"/><g class="plot" transform="translate(58,60)" clip-path="url(#clip39d96fxyplot)"><g class="scatterlayer mlayer"><g class="trace scatter trace682207" style="stroke-miterlimit: 2; opacity: 1;"><g class="fills"/><g class="errorbars"/><g class="lines"><path class="js-line" d="M0,162.69L51.19,162.14L51.87,161.69L53.92,161.87L54.6,162.11L59.38,161.1L60.06,161.63L62.11,161.26L62.79,160.4L63.48,160.55L64.16,159.87L65.52,160.37L66.21,159.6L67.57,158.68L68.25,160.01L69.62,160.17L70.3,159.06L70.98,159.04L71.67,156.73L72.35,157.79L73.03,156.75L75.08,159.01L75.76,158.08L77.81,153.53L78.49,155.62L79.17,158.64L79.86,155.05L80.54,153.86L81.22,150.53L81.9,152.99L82.59,151.03L84.63,155.84L85.32,153.96L86.68,147.54L87.37,148.31L88.05,145.41L88.73,155.62L89.41,154.59L90.1,145.75L90.78,148.74L91.46,145.6L92.14,145.52L92.83,149.97L94.19,153.42L94.87,145.74L95.56,144.62L96.24,147.35L98.29,153.71L98.97,149.53L99.65,142.91L100.33,146.15L101.02,149.04L101.7,132.71L102.38,128.72L103.06,173.28L104.43,141.55L105.11,140.75L105.79,140.52L106.48,138.69L108.52,151.17L109.21,141.47L109.89,137.65L110.57,138.95L111.25,139.67L111.94,144.74L113.3,149.61L113.98,137.72L115.35,139.72L116.03,138.99L118.08,150.45L118.76,139.74L119.44,141.22L120.13,139.33L122.17,150.17L122.86,150.52L124.22,127.31L124.9,132.03L125.59,132.26L126.27,137.27L126.95,150.57L127.63,147.71L129,133.04L129.68,131.64L130.37,134.21L131.05,140.48L132.41,151.94L133.1,132.59L133.78,132.65L134.46,133.82L135.83,137.88L136.51,150.54L137.19,148.52L137.87,135.67L139.24,130.22L139.92,136.27L141.29,150.39L141.97,149.64L142.65,136.35L143.33,136.7L144.02,139.71L144.7,145.4L145.38,138.14L146.06,150.99L146.75,150.12L147.43,137.93L148.11,136.94L148.79,140.09L149.48,139.11L150.16,142.75L150.84,154.92L151.52,135.83L152.21,138.98L152.89,137.85L153.57,137.66L154.25,141.55L154.94,144.59L155.62,154.85L156.3,157.6L156.98,152.65L158.35,140.89L159.03,140.48L160.4,155.19L161.08,151.67L162.44,142.75L163.13,143.22L163.81,141.44L164.49,146.88L165.17,154.43L165.86,153.26L166.54,143.99L167.22,145.19L168.59,145.41L169.27,149.47L169.95,155.32L170.63,153.67L172,145.1L172.68,143.56L173.37,145.14L174.05,150.39L174.73,158.03L175.41,148.76L176.1,145.83L176.78,146.15L177.46,148.34L178.14,147.86L178.83,149.99L180.19,158.07L180.87,155.55L182.24,146.42L182.92,147.4L184.29,156.25L184.97,153.83L186.33,148.86L187.02,149.45L187.7,146.65L188.38,149.33L189.06,156.14L189.75,152.74L190.43,146.66L191.11,147.53L192.48,149.67L193.16,155.65L194.52,158.28L195.21,154.89L196.57,149.94L197.25,151.89L197.94,153.2L198.62,157.08L199.3,155.52L199.98,137.86L200.67,148.66L201.35,144.55L202.03,141.99L202.71,148.64L203.4,155.26L204.08,154.27L204.76,143.71L205.44,144.11L206.13,143.51L206.81,141.96L207.49,146.53L208.17,153.11L208.86,152.98L209.54,144.22L210.22,138.82L210.9,140.83L211.59,144.77L212.27,135.16L212.95,151.46L213.63,150.02L214.32,134.89L215,136.77L215.68,135.88L216.37,137.2L217.05,141.15L217.73,148.56L218.41,148.24L219.1,137.13L219.78,133.5L220.46,134.05L221.14,134.59L221.83,140.06L222.51,150.91L223.19,148.05L225.24,125.95L225.92,134.43L226.6,136.89L227.29,149.6L227.97,147.91L228.65,132.39L229.33,138.26L230.02,131.56L231.38,153.32L232.06,153.27L232.75,148.02L233.43,132.54L234.79,133.56L235.48,150.42L236.16,154.48L236.84,153.5L237.52,149.3L238.21,131.63L238.89,129.26L239.57,115.65L241.62,147.17L242.3,146.25L242.98,128.24L243.67,130.7L245.03,125.74L245.71,131.44L247.08,147.22L247.76,129.45L248.44,128.21L249.13,131.17L249.81,132.42L250.49,131.51L251.17,147.44L251.86,146.36L252.54,129.74L253.22,128.05L253.9,130.2L254.59,130.87L255.27,134.29L255.95,147.77L256.63,147.46L257.32,132.59L258,133.59L258.68,132.15L260.05,137.93L260.73,148.7L261.41,147.4L262.1,135.3L262.78,130.01L263.46,134.02L264.83,138.7L265.51,146.26L266.19,148.89L266.87,127.78L267.56,137.44L268.24,134.09L269.6,134.68L270.29,146.92L270.97,145.66L271.65,128.69L273.02,126.18L273.7,128.79L274.38,131.45L275.06,144.85L275.75,141.09L276.43,130.77L277.79,122.03L278.48,123.92L279.16,126.91L279.84,119.01L280.52,143.13L281.21,124.56L281.89,119.12L282.57,121.47L283.25,118.59L283.94,125.07L284.62,139.46L285.3,138.99L285.98,116.89L286.67,115.28L287.35,115.67L288.03,115.49L288.71,123.57L289.4,137.32L290.08,132.76L291.44,114.07L292.13,110.14L294.86,139.9L295.54,116.46L296.22,115.24L296.9,115.75L298.95,145.41L299.63,139.87L301,115.26L301.68,115.33L302.37,115.57L303.05,127.1L303.73,141.74L304.41,141.49L305.1,118.48L306.46,124.62L307.14,117.56L309.19,143.16L309.87,123.84L310.56,123.12L311.24,136.96L311.92,125.64L312.6,128.58L313.97,145.37L314.65,122.13L315.33,121.36L316.02,126L316.7,124.18L317.38,131.52L318.06,147.03L318.75,141.84L320.11,121.85L320.79,124.03L321.48,121.6L322.16,129.66L322.84,145.19L323.52,143.28L324.89,121.91L325.57,119.89L326.25,121.02L326.94,126.67L328.3,143.65L328.98,122.69L330.35,118.1L331.03,121.71L331.71,126.38L332.4,142.1L333.08,142.65L333.76,123.09L334.44,119.78L335.13,128.18L335.81,133.87L336.49,122.12L337.86,143.11L338.54,120.49L339.22,111.2L339.9,122.01L340.59,139.6L341.27,129.71L342.63,141.45L343.32,132.9L344.68,113.89L345.37,116.53L346.05,123.24L346.73,142.91L347.41,139.86L348.1,116.09L348.78,116.42L349.46,121.78L350.14,111.65L350.83,121.01L351.51,138.85L352.19,138.41L352.87,96.24L354.24,121.71L354.92,122.55L356.97,145.55L357.65,127.42L358.33,137.48L359.02,130L359.7,128.69L360.38,133.96L361.06,149.08L361.75,147.75L362.43,129.7L363.79,133.73L364.48,131.43L366.52,152.41L367.21,136.72L367.89,132.69L368.57,133.6L369.25,139.74L369.94,136.47L371.3,153.73L371.98,146.03L372.67,132.83L373.35,136.66L374.03,105.4L374.71,144.16L375.4,152.93L376.08,151.23L377.44,137.53L378.13,140.59L378.81,141.1L379.49,143.93L380.86,152.6L381.54,145.31L382.22,141.01L382.9,141.58L383.59,139.87L384.27,141.55L384.95,155.26L385.63,154.38L386.32,143.73L387.68,143.52L388.37,145.05L389.05,147.02L389.73,155.33L390.41,152.96L391.1,141.83L391.78,141.21L392.46,143.43L393.14,144.39L393.83,149.15L394.51,155.23L395.19,154.32L395.87,145.68L396.56,146.66L397.24,146.15L397.92,147.85L398.6,150.42L399.29,156.67L399.97,155.85L400.65,148.33L401.33,148.92L402.02,148.24L403.38,151.82L404.06,155.92L404.75,157.25L405.43,155.42L406.11,155.11L406.79,145.14L408.16,155.33L408.84,158.49L409.52,158.07L410.21,155.43L410.89,155.59L411.57,143.73L412.25,143.79L412.94,95.91L413.62,157.79L414.3,157.73L414.98,154.47L415.67,145.27L416.35,149.37L418.4,157.96L419.08,157.69L420.44,153.66L421.13,150.95L423.17,157.8L423.86,156.53L424.54,150.85L425.22,152.77L425.9,154.88L426.59,152.78L428.63,158.95L429.32,158.76L430,158.22L430.68,154.55L431.37,155.05L432.05,157.47L432.73,159.38L433.41,157.71L435.46,153.61L436.14,155.53L436.83,156.33L437.51,160.27L439.56,153.53L440.24,155.37L441.6,157.34L442.29,159.41L442.97,160.22L443.65,159.53L444.33,153.97L445.02,155.61L445.7,155.74L446.38,156.72L447.06,159.67L447.75,159.01L449.11,154.68L449.79,154.38L450.48,154.88L451.16,157.69L452.52,161.23L453.21,159.18L453.89,155.68L454.57,156.59L455.25,156.08L455.94,158.3L457.3,160.48L457.98,156.04L460.03,156.87L460.71,158.25L461.4,160.8L462.08,160.29L463.44,156.12L464.13,156.31L465.49,158.73L466.17,160.18L466.86,159.47L467.54,157.27L468.9,158.01L469.59,158.91L470.95,161.83L471.63,161.21L473,159.98L473.68,160.73L474.37,160.36L475.05,161.42L475.73,161.91L476.41,161.28L477.78,160.97L478.46,160.67L479.83,160.73L480.51,160.04L483.24,155.94L483.92,157.24L485.29,161.73L485.97,156.46L488.02,143.53L488.7,128.84L490.06,146.83L490.75,144.55L492.11,115.7L492.79,110.31L493.48,103.27L494.16,136.72L494.84,144.9L495.52,122.91L496.89,58.11L497.57,71.89L498.25,71.07L498.94,74.39L500.3,115.83L500.98,55.57L503.03,23.21L503.71,52.74L505.08,107.67L505.76,71.1L506.44,63.24L507.13,9.12L509.17,129.61L509.86,125.46L511.22,66.74L511.9,75.71L512.59,75.1L513.27,90.52L513.95,131.34L514.63,130.94L515.32,95.73L516,86.47L516.68,98.45L517.37,92.03L518.05,106.47L519.41,141.15L520.1,107.34L520.78,92.43L521.46,111.4L522.14,114.33L522.83,125.32L524.19,152.12L524.87,150.78L525.56,147.91L526.24,130.51L526.92,124.52L527.6,129.13L528.29,154.28L528.97,151.3L529.65,122.86L530.33,138.21L531.02,130.01L531.7,133.8L532.38,137.13L533.06,155.31L533.75,153.86L534.43,136.12L535.79,139.14L536.48,134.89L537.16,141.5L537.84,155.54L538.52,156.13L539.21,140.47L539.89,137.71L540.57,142.79L541.94,147L542.62,157L543.3,158.47L543.98,146.89L544.67,144.82L545.35,146.08L546.03,148.34L546.71,153.57L547.4,158.84L548.08,155.97L549.44,148.35L550.13,148.66L550.81,146.53L551.49,151.34L552.17,158.84L552.86,158.45L553.54,150.73L554.22,148.44L554.9,150.34L556.95,161.33L557.63,158.16L558.32,155.14L559,143.04L560.37,158.38L561.05,158.89L561.73,160.74L562.41,159.24L563.1,150.85L563.78,151.49L564.46,152.04L565.14,155.14L565.83,154.57L566.51,159.34L567.19,159.22L567.87,151.23L568.56,151.96L569.24,151.1L569.92,152.14L570.6,154.87L571.29,159.48L571.97,157.5L573.33,150.18L574.02,151.28L574.7,149L575.38,153.41L576.06,159.33L576.75,155.47L578.11,162.69L578.79,162.69L579.48,130.33L580.16,162.69L580.84,147.29L581.52,155.86L582.21,145.14L582.89,155L584.25,140.96L584.94,149.73L585.62,158.31L586.3,149.81L586.98,140.56L587.67,140.78L588.35,140.62L589.03,143.34L589.71,162.69L590.4,162.69L591.08,131.87L591.76,124.7L592.44,136.16L593.13,138.59L593.81,132.48L595.17,156.42L595.86,141.21L596.54,138.92L597.22,125.1L598.59,162.69L599.27,162.69L599.95,162.69L600.63,86.38L601.32,128.27L602,124.24" style="vector-effect: non-scaling-stroke; fill: none; stroke: rgb(31, 119, 180); stroke-opacity: 1; stroke-width: 2px; opacity: 1;"/></g><g class="points"/><g class="text"/></g></g></g><g class="overplot"/><path class="xlines-above crisp" style="fill: none;" d="M0,0"/><path class="ylines-above crisp" style="fill: none;" d="M0,0"/><g class="overlines-above"/><g class="xaxislayer-above"><g class="xtick"><text text-anchor="middle" x="0" y="255.4" transform="translate(167.89,0)" style="font-family: 'Open Sans', verdana, arial, sans-serif; font-size: 12px; fill: rgb(68, 68, 68); fill-opacity: 1; white-space: pre; opacity: 1;">Jul 2020</text></g><g class="xtick"><text text-anchor="middle" x="0" y="255.4" style="font-family: 'Open Sans', verdana, arial, sans-serif; font-size: 12px; fill: rgb(68, 68, 68); fill-opacity: 1; white-space: pre; opacity: 1;" transform="translate(293.48,0)">Jan 2021</text></g><g class="xtick"><text text-anchor="middle" x="0" y="255.4" style="font-family: 'Open Sans', verdana, arial, sans-serif; font-size: 12px; fill: rgb(68, 68, 68); fill-opacity: 1; white-space: pre; opacity: 1;" transform="translate(417.02,0)">Jul 2021</text></g><g class="xtick"><text text-anchor="middle" x="0" y="255.4" style="font-family: 'Open Sans', verdana, arial, sans-serif; font-size: 12px; fill: rgb(68, 68, 68); fill-opacity: 1; white-space: pre; opacity: 1;" transform="translate(542.6,0)">Jan 2022</text></g></g><g class="yaxislayer-above"><g class="ytick"><text text-anchor="end" x="57" y="4.199999999999999" transform="translate(0,222.69)" style="font-family: 'Open Sans', verdana, arial, sans-serif; font-size: 12px; fill: rgb(68, 68, 68); fill-opacity: 1; white-space: pre; opacity: 1;">0</text></g><g class="ytick"><text text-anchor="end" x="57" y="4.199999999999999" style="font-family: 'Open Sans', verdana, arial, sans-serif; font-size: 12px; fill: rgb(68, 68, 68); fill-opacity: 1; white-space: pre; opacity: 1;" transform="translate(0,169.20999999999998)">100k</text></g><g class="ytick"><text text-anchor="end" x="57" y="4.199999999999999" style="font-family: 'Open Sans', verdana, arial, sans-serif; font-size: 12px; fill: rgb(68, 68, 68); fill-opacity: 1; white-space: pre; opacity: 1;" transform="translate(0,115.72999999999999)">200k</text></g><g class="ytick"><text text-anchor="end" x="57" y="4.199999999999999" style="font-family: 'Open Sans', verdana, arial, sans-serif; font-size: 12px; fill: rgb(68, 68, 68); fill-opacity: 1; white-space: pre; opacity: 1;" transform="translate(0,62.25)">300k</text></g></g><g class="overaxes-above"/></g><g class="subplot x2y2"><g class="layer-subplot"><g class="shapelayer"/><g class="imagelayer"/></g><g class="gridlayer"><g class="x2"><path class="x2grid crisp" transform="translate(167.89,0)" d="M0,257.6v182.4" style="stroke: rgb(238, 238, 238); stroke-opacity: 1; stroke-width: 1px;"/><path class="x2grid crisp" transform="translate(293.48,0)" d="M0,257.6v182.4" style="stroke: rgb(238, 238, 238); stroke-opacity: 1; stroke-width: 1px;"/><path class="x2grid crisp" transform="translate(417.02,0)" d="M0,257.6v182.4" style="stroke: rgb(238, 238, 238); stroke-opacity: 1; stroke-width: 1px;"/><path class="x2grid crisp" transform="translate(542.6,0)" d="M0,257.6v182.4" style="stroke: rgb(238, 238, 238); stroke-opacity: 1; stroke-width: 1px;"/></g><g class="y2"><path class="y2grid crisp" transform="translate(0,388.92)" d="M58,0h602" style="stroke: rgb(238, 238, 238); stroke-opacity: 1; stroke-width: 1px;"/><path class="y2grid crisp" transform="translate(0,350.1)" d="M58,0h602" style="stroke: rgb(238, 238, 238); stroke-opacity: 1; stroke-width: 1px;"/><path class="y2grid crisp" transform="translate(0,311.28000000000003)" d="M58,0h602" style="stroke: rgb(238, 238, 238); stroke-opacity: 1; stroke-width: 1px;"/><path class="y2grid crisp" transform="translate(0,272.47)" d="M58,0h602" style="stroke: rgb(238, 238, 238); stroke-opacity: 1; stroke-width: 1px;"/></g></g><g class="zerolinelayer"><path class="y2zl zl crisp" transform="translate(0,427.74)" d="M58,0h602" style="stroke: rgb(68, 68, 68); stroke-opacity: 1; stroke-width: 1px;"/></g><path class="xlines-below"/><path class="ylines-below"/><g class="overlines-below"/><g class="xaxislayer-below"/><g class="yaxislayer-below"/><g class="overaxes-below"/><g class="plot" transform="translate(58,257.6)" clip-path="url(#clip39d96fx2y2plot)"><g class="scatterlayer mlayer"><g class="trace scatter trace460459" style="stroke-miterlimit: 2; opacity: 1;"><g class="fills"/><g class="errorbars"/><g class="lines"><path class="js-line" d="M0,170.14L45.05,169.4L45.73,169.17L46.41,169.24L47.1,168.51L47.78,168.62L48.46,166.88L49.14,168.78L49.83,166.8L50.51,168.54L51.19,167.11L52.56,164.97L53.24,165.05L54.6,167.53L55.29,166.29L55.97,166.06L56.65,162.22L58.02,162.84L58.7,161.71L59.38,161.87L60.06,165.94L62.11,163.73L62.79,153.64L64.16,156.43L64.84,161.25L66.21,151.5L66.89,153.44L67.57,151L68.25,154.38L69.62,158.88L70.3,157.87L71.67,144.9L72.35,146.77L73.03,138.03L73.71,145.33L74.4,152.01L75.08,149.56L75.76,138.77L76.44,139.9L77.13,140.67L77.81,132.75L78.49,142.96L79.17,152.43L79.86,141.6L80.54,126.27L81.22,128.37L81.9,128.64L82.59,130.11L83.27,129.53L83.95,144.59L84.63,141.92L85.32,129.22L86,128.95L86.68,123.94L87.37,126L88.05,136.6L88.73,151.85L89.41,141.37L90.1,117.15L90.78,123.79L91.46,111.52L92.14,128.37L93.51,151.66L94.19,136.64L95.56,122.08L96.24,120.91L96.92,137.41L97.6,136.87L98.29,145.53L98.97,140.48L99.65,118.43L100.33,124.14L101.02,122.04L101.7,124.64L102.38,132.02L103.06,147.51L103.75,140.56L104.43,115.56L105.11,127.28L105.79,124.33L106.48,131.59L107.16,130.11L107.84,147.08L108.52,142.11L109.21,119.01L109.89,127.98L110.57,121.26L111.25,123.05L111.94,128.99L112.62,148.48L113.3,143.55L113.98,119.67L114.67,124.6L116.03,119.75L116.71,133.96L117.4,146.19L118.08,137.72L118.76,119.91L119.44,120.45L120.13,119.71L122.17,142.65L122.86,140.32L123.54,119.01L124.22,119.83L124.9,119.17L126.27,127.48L126.95,147.58L127.63,143.55L128.32,121.3L129.68,123.48L130.37,120.95L131.73,149.8L132.41,146.77L133.78,117.11L134.46,122.55L135.83,138.03L136.51,148.05L137.87,123.79L138.56,124.18L139.24,121.92L141.29,147.35L141.97,139.24L142.65,117.65L143.33,124.99L144.02,122.12L144.7,129.34L146.06,152.47L146.75,142.07L147.43,123.44L148.11,128.25L149.48,137.18L150.16,135.32L150.84,154.57L151.52,145.02L152.89,123.4L153.57,136.48L154.25,137.18L154.94,146.69L156.3,157.71L156.98,149.76L157.67,125.22L158.35,132.33L159.71,140.36L160.4,154.41L161.08,152.36L161.76,128.14L164.49,143.7L165.17,156.51L165.86,152.05L166.54,139.31L167.22,133.96L167.9,139.28L168.59,138.23L169.27,142.11L169.95,156.98L170.63,154.96L172,132.02L172.68,140.13L174.73,156.24L175.41,154.88L176.1,138.69L176.78,141.99L177.46,141.6L178.14,144.75L178.83,149.41L179.51,159.34L180.19,162.61L180.87,155.46L182.24,138.54L182.92,145.18L184.29,161.01L184.97,157.48L185.65,144.98L186.33,147.97L187.02,150.53L187.7,148.28L189.06,161.09L189.75,158.41L190.43,149.72L191.11,150.57L191.79,148.75L192.48,147.89L193.16,158.8L194.52,163.73L195.21,158.96L195.89,146.15L196.57,146.73L197.25,159.62L199.3,162.92L199.98,162.45L201.35,133.92L202.03,147.78L202.71,141.64L203.4,164.7L204.08,160.16L204.76,143.82L205.44,140.87L206.13,144.9L208.17,163.23L208.86,156.36L209.54,145.8L210.22,145.95L210.9,142.58L212.95,161.09L213.63,156.51L214.32,143.55L215,143.78L215.68,140.6L217.05,145.02L217.73,156.94L218.41,153.64L219.1,139.16L219.78,137.02L220.46,140.28L221.14,144.48L221.83,143.86L222.51,158.68L223.19,150.22L224.56,133.61L225.24,128.95L227.29,153.87L227.97,148.36L228.65,132.52L229.33,132.68L230.02,140.63L231.38,158.65L232.06,157.05L232.75,149.25L233.43,129.34L234.11,122.89L234.79,130.7L236.16,158.76L236.84,158.06L239.57,111.21L240.25,128.17L240.94,130.97L241.62,151.12L242.3,151.08L242.98,126.47L243.67,121.07L244.35,125.34L245.03,126.08L245.71,130.77L247.08,151.66L247.76,125.11L248.44,115.99L249.13,117.85L249.81,128.56L250.49,125.69L251.17,147.04L251.86,143.35L253.22,118.28L253.9,114.32L254.59,127.94L255.27,123.87L255.95,148.09L256.63,145.95L257.32,121.19L258,123.59L258.68,120.6L259.37,121.57L260.05,133.76L260.73,151.15L261.41,142.15L262.78,117.3L263.46,114.16L266.19,146.42L266.87,127.75L267.56,123.98L268.24,114.28L268.92,118.47L269.6,130.11L270.29,146.61L270.97,142.54L272.33,114.01L273.02,109L275.06,140.13L275.75,137.99L277.11,98.4L277.79,99.95L278.48,103.6L279.16,112.3L279.84,127.51L280.52,126.58L281.21,94.4L281.89,77.71L282.57,84.93L283.25,87.76L283.94,94.21L284.62,128.6L285.3,118.35L285.98,59.51L286.67,66.84L287.35,64.4L288.03,67.04L288.71,78.22L289.4,121.73L290.08,107.91L290.76,47.98L291.44,80.2L292.13,67.11L292.81,33.89L293.49,37.81L294.17,108.73L294.86,92L296.22,17.78L296.9,28.26L298.95,121.92L299.63,95.92L300.32,12.23L301,27.64L301.68,9.12L302.37,24.49L303.73,98.05L304.41,103.72L305.1,24.3L305.78,36.41L306.46,34.62L307.14,40.6L307.83,58.46L308.51,111.06L309.19,101.97L309.87,40.21L310.56,46.04L311.24,90.52L311.92,52.05L312.6,62.77L313.29,118.35L313.97,116.57L314.65,50.54L315.33,53.22L316.02,52.44L316.7,59.08L317.38,83.18L318.75,126.47L319.43,54.5L322.16,89.32L322.84,134.35L323.52,127.01L324.21,82.99L324.89,69.95L325.57,81.75L326.94,92.46L327.62,128.95L328.3,128.02L328.98,74.99L330.35,72.66L331.03,87.61L333.08,136.67L333.76,85.36L334.44,74.53L335.13,88.58L335.81,75.96L336.49,94.79L337.17,134.7L337.86,132.64L338.54,79.54L339.22,72.78L339.9,95.84L340.59,123.9L341.27,105.31L341.95,135.98L342.63,125.53L343.32,67.35L344,77.28L344.68,72.9L345.37,85.63L346.05,93.51L346.73,126.66L347.41,130.54L348.1,65.91L348.78,65.25L349.46,80.31L350.14,74.02L350.83,84.54L352.19,132.06L352.87,88.5L353.56,82.21L354.24,91.03L354.92,92.19L355.6,111.25L356.97,142.42L357.65,94.91L358.33,90.02L359.02,95.14L359.7,97.31L360.38,106.63L361.06,140.21L361.75,139.51L362.43,101.86L363.11,108.61L363.79,103.1L365.16,125.18L365.84,148.2L366.52,139.78L367.21,105.74L367.89,110.51L368.57,107.68L369.94,120.8L370.62,151.46L371.3,144.21L371.98,116.61L373.35,114.59L374.03,120.02L374.71,128.17L375.4,151.54L376.08,145.87L376.76,120.1L377.44,116.84L378.13,118.08L378.81,135.78L379.49,133.3L380.17,154.03L380.86,149.02L381.54,122.12L382.22,128.52L382.9,126.43L383.59,132.91L384.27,131.36L384.95,155.04L385.63,150.42L386.32,120.91L387.68,130.7L388.37,135.51L389.05,134.73L389.73,155.04L390.41,154.07L391.1,127.67L391.78,131.71L392.46,130.43L393.14,135.43L393.83,146.42L394.51,157.21L395.19,153.95L396.56,135.7L397.24,136.33L397.92,138.38L398.6,145.72L399.29,159.34L399.97,157.79L400.65,135.94L401.33,143.08L402.02,139.78L402.7,141.41L403.38,145.37L404.06,159.62L404.75,161.6L405.43,157.44L406.11,160.47L406.79,138.15L407.48,145.45L408.16,144.17L409.52,159.11L410.21,143.82L410.89,139.04L411.57,144.4L412.94,147.39L413.62,160.51L414.3,159.85L414.98,144.01L415.67,144.32L416.35,145.72L417.03,143.74L417.71,149.17L419.08,162.61L419.76,138.42L421.81,151.12L422.49,152.51L423.86,162.22L424.54,143.58L425.9,153.52L426.59,145.68L427.95,164.27L428.63,162.1L429.32,163.34L430,162.14L430.68,147.93L431.37,150.46L432.05,152.09L432.73,165.17L433.41,162.29L434.1,155.42L434.78,154.65L435.46,152.05L436.14,152.78L436.83,156.55L437.51,165.52L438.19,162.1L439.56,153.25L440.24,155.66L440.92,154.3L441.6,161.75L442.97,166.14L443.65,164.24L444.33,162.76L445.02,153.29L446.38,158.37L447.06,167.42L449.11,159.69L449.79,160.82L450.48,146.03L451.16,158.22L451.84,167.61L452.52,167.42L453.21,164.58L453.89,155.5L454.57,159.58L455.94,162.1L456.62,166.41L457.3,165.24L457.98,158.68L458.67,159.62L459.35,158.96L460.03,158.3L460.71,161.32L461.4,167.03L462.08,165.56L462.76,157.48L463.44,159.73L464.13,162.53L464.81,161.05L466.17,167.38L466.86,165.01L467.54,160L468.22,160.82L468.9,162.37L469.59,161.29L470.27,168.08L470.95,166.95L471.63,168.39L472.32,165.75L473,158.57L473.68,165.36L474.37,162.45L475.05,164.78L475.73,168L476.41,166.91L477.1,167.38L477.78,164.47L478.46,165.24L479.14,163.81L479.83,168.93L480.51,168.35L481.19,167.61L481.87,163.11L482.56,165.59L483.24,164.16L484.6,168.85L485.29,168.82L485.97,167.34L486.65,163.11L488.02,170.14L488.7,163.61L489.38,165.67L490.06,157.95L490.75,165.67L491.43,164.66L492.11,164.93L492.79,162.8L493.48,161.09L494.16,163.54L494.84,166.49L495.52,164.27L496.21,157.52L496.89,157.64L497.57,156.51L498.25,154.65L498.94,157.87L499.62,163.19L500.3,159.81L501.67,147.31L502.35,144.01L503.03,139.86L503.71,142.96L504.4,159.27L505.08,153.09L506.44,133.45L507.13,131.32L507.81,132.72L508.49,137.92L509.17,153.87L509.86,153.37L510.54,124.64L511.22,119.56L511.9,134.54L512.59,126.31L513.27,136.02L513.95,157.44L514.63,151.58L516,130.54L516.68,128.99L517.37,124.18L518.05,136.95L519.41,157.48L520.1,138.42L521.46,131.75L522.14,139.35L522.83,143.43L523.51,160.31L524.87,160.59L525.56,157.25L526.92,143.04L527.6,143.2L528.97,161.98L529.65,151.27L530.33,145.56L531.02,146.34L533.06,165.28L533.75,162.45L535.79,152.2L536.48,154.41L538.52,166.25L539.21,154.22L539.89,159.23L540.57,157.95L543.3,167.5L543.98,159.23L546.03,160.7L546.71,166.02L547.4,168.62L548.08,163.92L548.76,161.75L549.44,162.61L550.13,160.51L550.81,164.35L552.17,168.66L552.86,167.69L554.22,163.81L554.9,164.74L555.59,165.83L556.27,168.93L556.95,169.28L557.63,167.65L558.32,165.28L559,159.93L560.37,168.16L561.05,168.08L561.73,168.74L562.41,167.3L563.78,160.74L564.46,165.71L565.14,162.95L565.83,166.76L566.51,169.51L567.19,166.8L567.87,166.56L568.56,167.65L569.92,162.57L570.6,168.78L571.29,169.63L571.97,168.12L572.65,162.45L573.33,165.24L574.7,164.78L575.38,166.56L576.06,168.35L576.75,167.57L578.11,170.14L578.79,170.14L579.48,150.49L580.16,170.21L580.84,164.93L581.52,168.7L582.21,160.9L582.89,165.01L583.57,173.28L584.25,164.74L585.62,167.73L586.3,167.69L586.98,163.92L587.67,165.28L588.35,165.13L589.03,168.54L590.4,170.14L591.08,167.42L591.76,158.22L592.44,158.53L593.13,164.58L593.81,163.54L594.49,165.71L595.17,168.74L595.86,167.42L597.22,156.98L597.9,170.14L599.95,170.14L600.63,151.97L602,164.7" style="vector-effect: non-scaling-stroke; fill: none; stroke: rgb(255, 0, 0); stroke-opacity: 1; stroke-width: 2px; opacity: 1;"/></g><g class="points"/><g class="text"/></g></g></g><g class="overplot"/><path class="xlines-above crisp" style="fill: none;" d="M0,0"/><path class="ylines-above crisp" style="fill: none;" d="M0,0"/><g class="overlines-above"/><g class="xaxislayer-above"><g class="x2tick"><text text-anchor="middle" x="0" y="453" transform="translate(167.89,0)" style="font-family: 'Open Sans', verdana, arial, sans-serif; font-size: 12px; fill: rgb(68, 68, 68); fill-opacity: 1; white-space: pre; opacity: 1;">Jul 2020</text></g><g class="x2tick"><text text-anchor="middle" x="0" y="453" style="font-family: 'Open Sans', verdana, arial, sans-serif; font-size: 12px; fill: rgb(68, 68, 68); fill-opacity: 1; white-space: pre; opacity: 1;" transform="translate(293.48,0)">Jan 2021</text></g><g class="x2tick"><text text-anchor="middle" x="0" y="453" style="font-family: 'Open Sans', verdana, arial, sans-serif; font-size: 12px; fill: rgb(68, 68, 68); fill-opacity: 1; white-space: pre; opacity: 1;" transform="translate(417.02,0)">Jul 2021</text></g><g class="x2tick"><text text-anchor="middle" x="0" y="453" style="font-family: 'Open Sans', verdana, arial, sans-serif; font-size: 12px; fill: rgb(68, 68, 68); fill-opacity: 1; white-space: pre; opacity: 1;" transform="translate(542.6,0)">Jan 2022</text></g></g><g class="yaxislayer-above"><g class="y2tick"><text text-anchor="end" x="57" y="4.199999999999999" transform="translate(0,427.74)" style="font-family: 'Open Sans', verdana, arial, sans-serif; font-size: 12px; fill: rgb(68, 68, 68); fill-opacity: 1; white-space: pre; opacity: 1;">0</text></g><g class="y2tick"><text text-anchor="end" x="57" y="4.199999999999999" style="font-family: 'Open Sans', verdana, arial, sans-serif; font-size: 12px; fill: rgb(68, 68, 68); fill-opacity: 1; white-space: pre; opacity: 1;" transform="translate(0,388.92)">1000</text></g><g class="y2tick"><text text-anchor="end" x="57" y="4.199999999999999" style="font-family: 'Open Sans', verdana, arial, sans-serif; font-size: 12px; fill: rgb(68, 68, 68); fill-opacity: 1; white-space: pre; opacity: 1;" transform="translate(0,350.1)">2000</text></g><g class="y2tick"><text text-anchor="end" x="57" y="4.199999999999999" style="font-family: 'Open Sans', verdana, arial, sans-serif; font-size: 12px; fill: rgb(68, 68, 68); fill-opacity: 1; white-space: pre; opacity: 1;" transform="translate(0,311.28000000000003)">3000</text></g><g class="y2tick"><text text-anchor="end" x="57" y="4.199999999999999" style="font-family: 'Open Sans', verdana, arial, sans-serif; font-size: 12px; fill: rgb(68, 68, 68); fill-opacity: 1; white-space: pre; opacity: 1;" transform="translate(0,272.47)">4000</text></g></g><g class="overaxes-above"/></g></g><g class="polarlayer"/><g class="ternarylayer"/><g class="geolayer"/><g class="funnelarealayer"/><g class="pielayer"/><g class="iciclelayer"/><g class="treemaplayer"/><g class="sunburstlayer"/><g class="glimages"/><defs id="topdefs-39d96f"><g class="clips"/><clipPath id="legend39d96f"><rect width="108" height="48" x="0" y="0"/></clipPath></defs><g class="layer-above"><g class="imagelayer"/><g class="shapelayer"/></g><g class="infolayer"><g class="legend" pointer-events="all" transform="translate(88.1,60)"><rect class="bg" shape-rendering="crispEdges" style="stroke: rgb(68, 68, 68); stroke-opacity: 1; fill: rgb(255, 255, 255); fill-opacity: 1; stroke-width: 0px;" width="108" height="48" x="0" y="0"/><g class="scrollbox" transform="" clip-path="url(#legend39d96f)"><g class="groups"><g class="traces" style="opacity: 1;" transform="translate(0,14.5)"><text class="legendtext" text-anchor="start" x="40" y="4.680000000000001" style="font-family: 'Open Sans', verdana, arial, sans-serif; font-size: 12px; fill: rgb(68, 68, 68); fill-opacity: 1; white-space: pre;">Confirmed</text><g class="layers" style="opacity: 1;"><g class="legendfill"/><g class="legendlines"><path class="js-line" d="M5,0h30" style="fill: none; stroke: rgb(31, 119, 180); stroke-opacity: 1; stroke-width: 2px;"/></g><g class="legendsymbols"><g class="legendpoints"/></g></g><rect class="legendtoggle" x="0" y="-9.5" width="102.1875" height="19" style="fill: rgb(0, 0, 0); fill-opacity: 0;"/></g><g class="traces" style="opacity: 1;" transform="translate(0,33.5)"><text class="legendtext" text-anchor="start" x="40" y="4.680000000000001" style="font-family: 'Open Sans', verdana, arial, sans-serif; font-size: 12px; fill: rgb(68, 68, 68); fill-opacity: 1; white-space: pre;">Death</text><g class="layers" style="opacity: 1;"><g class="legendfill"/><g class="legendlines"><path class="js-line" d="M5,0h30" style="fill: none; stroke: rgb(255, 0, 0); stroke-opacity: 1; stroke-width: 2px;"/></g><g class="legendsymbols"><g class="legendpoints"/></g></g><rect class="legendtoggle" x="0" y="-9.5" width="102.1875" height="19" style="fill: rgb(0, 0, 0); fill-opacity: 0;"/></g></g></g><rect class="scrollbar" rx="20" ry="3" width="0" height="0" style="fill: rgb(128, 139, 164); fill-opacity: 1;" x="0" y="0"/></g><g class="g-gtitle"><text class="gtitle" x="350" y="30" text-anchor="middle" dy="0em" style="font-family: 'Open Sans', verdana, arial, sans-serif; font-size: 17px; fill: rgb(68, 68, 68); opacity: 1; font-weight: normal; white-space: pre;">Brazil - Daily Confirmed and Death Cases</text></g><g class="g-xtitle"/><g class="g-x2title"><text class="x2title" x="359" y="492" text-anchor="middle" style="font-family: 'Open Sans', verdana, arial, sans-serif; font-size: 14px; fill: rgb(68, 68, 68); opacity: 1; font-weight: normal; white-space: pre;">Source: Johns Hopkins University Center for Systems Science and Engineering</text></g><g class="g-ytitle"><text class="ytitle" transform="rotate(-90,20,151.2)" x="20" y="151.2" text-anchor="middle" style="font-family: 'Open Sans', verdana, arial, sans-serif; font-size: 14px; fill: rgb(68, 68, 68); opacity: 1; font-weight: normal; white-space: pre;">Cases</text></g><g class="g-y2title"><text class="y2title" transform="rotate(-90,20,348.8)" x="20" y="348.8" text-anchor="middle" style="font-family: 'Open Sans', verdana, arial, sans-serif; font-size: 14px; fill: rgb(68, 68, 68); opacity: 1; font-weight: normal; white-space: pre;">Cases</text></g></g></svg>