<svg class="main-svg" xmlns="http://www.w3.org/2000/svg" xmlns:xlink="http://www.w3.org/1999/xlink" width="700" height="500" style="" viewBox="0 0 700 500"><rect x="0" y="0" width="700" height="500" style="fill: rgb(255, 255, 255); fill-opacity: 1;"/><defs id="defs-9ed005"><g class="clips"><clipPath id="clip9ed005xyplot" class="plotclip"><rect width="602" height="182.4"/></clipPath><clipPath id="clip9ed005x2y2plot" class="plotclip"><rect width="602" height="182.4"/></clipPath><clipPath class="axesclip" id="clip9ed005x"><rect x="58" y="0" width="602" height="500"/></clipPath><clipPath class="axesclip" id="clip9ed005y"><rect x="0" y="60" width="700" height="182.4"/></clipPath><clipPath class="axesclip" id="clip9ed005xy"><rect x="58" y="60" width="602" height="182.4"/></clipPath><clipPath class="axesclip" id="clip9ed005y2"><rect x="0" y="257.6" width="700" height="182.4"/></clipPath><clipPath class="axesclip" id="clip9ed005xy2"><rect x="58" y="257.6" width="602" height="182.4"/></clipPath><clipPath class="axesclip" id="clip9ed005x2"><rect x="58" y="0" width="602" height="500"/></clipPath><clipPath class="axesclip" id="clip9ed005x2y"><rect x="58" y="60" width="602" height="182.4"/></clipPath><clipPath class="axesclip" id="clip9ed005x2y2"><rect x="58" y="257.6" width="602" height="182.4"/></clipPath></g><g class="gradients"/><g class="patterns"/></defs><g class="bglayer"/><g class="layer-below"><g class="imagelayer"/><g class="shapelayer"/></g><g class="cartesianlayer"><g class="subplot xy"><g class="layer-subplot"><g class="shapelayer"/><g class="imagelayer"/></g><g class="gridlayer"><g class="x"><path class="xgrid crisp" transform="translate(172.57,0)" d="M0,60v182.4" style="stroke: rgb(238, 238, 238); stroke-opacity: 1; stroke-width: 1px;"/><path class="xgrid crisp" transform="translate(303.5,0)" d="M0,60v182.4" style="stroke: rgb(238, 238, 238); stroke-opacity: 1; stroke-width: 1px;"/><path class="xgrid crisp" transform="translate(432.29,0)" d="M0,60v182.4" style="stroke: rgb(238, 238, 238); stroke-opacity: 1; stroke-width: 1px;"/><path class="xgrid crisp" transform="translate(563.22,0)" d="M0,60v182.4" style="stroke: rgb(238, 238, 238); stroke-opacity: 1; stroke-width: 1px;"/></g><g class="y"><path class="ygrid crisp" transform="translate(0,169.20999999999998)" d="M58,0h602" style="stroke: rgb(238, 238, 238); stroke-opacity: 1; stroke-width: 1px;"/><path class="ygrid crisp" transform="translate(0,115.72999999999999)" d="M58,0h602" style="stroke: rgb(238, 238, 238); stroke-opacity: 1; stroke-width: 1px;"/><path class="ygrid crisp" transform="translate(0,62.25)" d="M58,0h602" style="stroke: rgb(238, 238, 238); stroke-opacity: 1; stroke-width: 1px;"/></g></g><g class="zerolinelayer"><path class="yzl zl crisp" transform="translate(0,222.69)" d="M58,0h602" style="stroke: rgb(68, 68, 68); stroke-opacity: 1; stroke-width: 1px;"/></g><path class="xlines-below"/><path class="ylines-below"/><g class="overlines-below"/><g class="xaxislayer-below"/><g class="yaxislayer-below"/><g class="overaxes-below"/><g class="plot" transform="translate(58,60)" clip-path="url(#clip9ed005xyplot)"><g class="scatterlayer mlayer"><g class="trace scatter traceab778a" style="stroke-miterlimit: 2; opacity: 1;"><g class="fills"/><g class="errorbars"/><g class="lines"><path class="js-line" d="M0,162.69L53.37,162.14L54.08,161.69L56.22,161.87L56.93,162.11L61.91,161.1L62.62,161.63L64.75,161.26L65.47,160.4L66.18,160.55L66.89,159.87L68.31,160.37L69.02,159.6L70.45,158.68L71.16,160.01L72.58,160.17L73.29,159.06L74,159.04L74.72,156.73L75.43,157.79L76.14,156.75L78.27,159.01L78.99,158.08L81.12,153.53L81.83,155.62L82.54,158.64L83.26,155.05L83.97,153.86L84.68,150.53L85.39,152.99L86.1,151.03L87.52,154.95L88.24,155.84L89.66,151.89L90.37,147.54L91.08,148.31L91.79,145.41L92.51,155.62L93.22,154.59L93.93,145.75L94.64,148.74L96.06,145.52L96.78,149.97L98.2,153.42L98.91,145.74L99.62,144.62L100.33,147.35L102.47,153.71L103.18,149.53L103.89,142.91L104.6,146.15L105.31,149.04L106.03,132.71L106.74,128.72L107.45,173.28L108.87,141.55L109.58,140.75L110.3,140.52L111.01,138.69L113.14,151.17L113.85,141.47L114.57,137.65L115.28,138.95L115.99,139.67L116.7,144.74L118.12,149.61L118.83,137.72L120.26,139.72L120.97,138.99L123.1,150.45L123.82,139.74L124.53,141.22L125.24,139.33L127.37,150.17L128.09,150.52L129.51,127.31L130.22,132.03L130.93,132.26L131.64,137.27L132.35,150.57L133.07,147.71L134.49,133.04L135.2,131.64L135.91,134.21L136.62,140.48L138.05,151.94L138.76,132.59L139.47,132.65L140.18,133.82L141.61,137.88L142.32,150.54L143.03,148.52L143.74,135.67L145.16,130.22L145.87,136.27L147.3,150.39L148.01,149.64L148.72,136.35L149.43,136.7L150.14,139.71L150.86,145.4L151.57,138.14L152.28,150.99L152.99,150.12L154.41,136.94L155.13,140.09L155.84,139.11L156.55,142.75L157.26,154.92L157.97,135.83L158.68,138.98L159.39,137.85L160.11,137.66L160.82,141.55L161.53,144.59L162.24,154.85L162.95,157.6L163.66,152.65L165.09,140.89L165.8,140.48L167.22,155.19L167.93,151.67L169.36,142.75L170.07,143.22L170.78,141.44L171.49,146.88L172.2,154.43L172.91,153.26L173.63,143.99L174.34,145.19L175.76,145.41L176.47,149.47L177.18,155.32L177.9,153.67L179.32,145.1L180.03,143.56L180.74,145.14L181.45,150.39L182.17,158.03L182.88,148.76L183.59,145.83L184.3,146.15L185.01,148.34L185.72,147.86L186.43,149.99L187.15,156.17L187.86,158.07L188.57,155.55L189.99,146.42L190.7,147.4L192.13,156.25L192.84,153.83L194.26,148.86L194.97,149.45L195.69,146.65L196.4,149.33L197.11,156.14L197.82,152.74L198.53,146.66L199.24,147.53L200.67,149.67L201.38,155.65L202.8,158.28L203.51,154.89L204.94,149.94L205.65,151.89L206.36,153.2L207.07,157.08L207.78,155.52L208.49,137.86L209.21,148.66L209.92,144.55L210.63,141.99L211.34,148.64L212.05,155.26L212.76,154.27L213.48,143.71L214.19,144.11L214.9,143.51L215.61,141.96L216.32,146.53L217.03,153.11L217.74,152.98L218.46,144.22L219.17,138.82L219.88,140.83L220.59,144.77L221.3,135.16L222.01,151.46L222.73,150.02L223.44,134.89L224.15,136.77L224.86,135.88L225.57,137.2L227,148.56L227.71,148.24L229.13,133.5L229.84,134.05L230.55,134.59L231.26,140.06L231.98,150.91L232.69,148.05L234.82,125.95L235.53,134.43L236.25,136.89L236.96,149.6L237.67,147.91L238.38,132.39L239.09,138.26L239.8,131.56L241.23,153.32L241.94,153.27L242.65,148.02L243.36,132.54L244.78,133.56L245.5,150.42L246.21,154.48L246.92,153.5L247.63,149.3L248.34,131.63L249.05,129.26L249.77,115.65L251.9,147.17L252.61,146.25L253.32,128.24L254.04,130.7L255.46,125.74L256.17,131.44L257.59,147.22L258.3,129.45L259.02,128.21L259.73,131.17L260.44,132.42L261.15,131.51L261.86,147.44L262.57,146.36L264,128.05L264.71,130.2L265.42,130.87L266.13,134.29L266.84,147.77L267.56,147.46L268.27,132.59L268.98,133.59L269.69,132.15L271.11,137.93L271.83,148.7L272.54,147.4L273.25,135.3L273.96,130.01L274.67,134.02L276.09,138.7L276.81,146.26L277.52,148.89L278.23,127.78L278.94,137.44L279.65,134.09L281.08,134.68L281.79,146.92L282.5,145.66L283.21,128.69L284.63,126.18L285.35,128.79L286.06,131.45L286.77,144.85L287.48,141.09L288.19,130.77L289.61,122.03L290.33,123.92L291.04,126.91L291.75,119.01L292.46,143.13L293.17,124.56L293.88,119.12L294.6,121.47L295.31,118.59L296.02,125.07L296.73,139.46L297.44,138.99L298.15,116.89L298.87,115.28L299.58,115.67L300.29,115.49L301,123.57L301.71,137.32L302.42,132.76L303.85,114.07L304.56,110.14L305.27,119.72L305.98,119L307.4,139.9L308.12,116.46L308.83,115.24L309.54,115.75L311.67,145.41L312.39,139.87L313.81,115.26L314.52,115.33L315.23,115.57L315.94,127.1L316.65,141.74L317.37,141.49L318.08,118.48L319.5,124.62L320.21,117.56L322.35,143.16L323.06,123.84L323.77,123.12L324.48,136.96L325.19,125.64L325.91,128.58L327.33,145.37L328.04,122.13L328.75,121.36L329.46,126L330.17,124.18L330.89,131.52L331.6,147.03L332.31,141.84L333.73,121.85L334.44,124.03L335.16,121.6L335.87,129.66L336.58,145.19L337.29,143.28L338.71,121.91L339.43,119.89L340.14,121.02L340.85,126.67L342.27,143.65L342.98,122.69L344.41,118.1L345.12,121.71L345.83,126.38L346.54,142.1L347.25,142.65L347.96,123.09L348.68,119.78L349.39,128.18L350.1,133.87L350.81,122.12L352.23,143.11L352.95,120.49L353.66,111.2L354.37,122.01L355.08,139.6L355.79,129.71L357.22,141.45L357.93,132.9L359.35,113.89L360.06,116.53L360.77,123.24L361.48,142.91L362.2,139.86L362.91,116.09L363.62,116.42L364.33,121.78L365.04,111.65L365.75,121.01L366.47,138.85L367.18,138.41L367.89,96.24L369.31,121.71L370.02,122.55L372.16,145.55L372.87,127.42L373.58,137.48L374.29,130L375,128.69L375.72,133.96L376.43,149.08L377.14,147.75L377.85,129.7L378.56,133.72L379.27,133.73L379.99,131.43L382.12,152.41L382.83,136.72L383.54,132.69L384.26,133.6L384.97,139.74L385.68,136.47L387.1,153.73L387.81,146.03L388.52,132.83L389.24,136.66L389.95,105.4L390.66,144.16L391.37,152.93L392.08,151.23L393.51,137.53L394.22,140.59L394.93,141.1L395.64,143.93L397.06,152.6L397.78,145.31L398.49,141.01L399.2,141.58L399.91,139.87L400.62,141.55L401.33,155.26L402.04,154.38L403.47,143.74L404.18,143.52L405.6,147.02L406.31,155.33L407.03,152.96L407.74,141.83L408.45,141.21L409.16,143.43L409.87,144.39L410.58,149.15L411.3,155.23L412.01,154.32L412.72,145.68L413.43,146.66L414.14,146.15L414.85,147.85L415.57,150.42L416.28,156.67L416.99,155.85L417.7,148.33L418.41,148.92L419.12,148.24L420.55,151.82L421.26,155.92L421.97,157.25L422.68,155.42L423.39,155.11L424.1,145.14L425.53,155.33L426.24,158.49L426.95,158.07L427.66,155.43L428.37,155.59L429.09,143.73L429.8,143.79L430.51,95.91L431.22,157.79L431.93,157.73L432.64,154.47L433.35,145.27L434.07,149.37L436.2,157.96L436.91,157.69L438.34,153.66L439.05,150.95L441.18,157.8L441.89,156.53L442.61,150.85L443.32,152.77L444.03,154.88L444.74,152.78L446.87,158.95L447.59,158.76L448.3,158.22L449.01,154.55L449.72,155.05L450.43,157.47L451.14,159.38L451.86,157.71L453.99,153.61L454.7,155.53L455.41,156.33L456.13,160.27L458.26,153.53L458.97,155.37L460.39,157.34L461.11,159.41L461.82,160.22L462.53,159.53L463.24,153.97L463.95,155.61L464.66,155.74L465.38,156.72L466.09,159.67L466.8,159.01L468.22,154.68L468.93,154.38L469.65,154.88L470.36,157.69L471.78,161.23L472.49,159.18L473.2,155.68L473.91,156.59L474.63,156.08L475.34,158.3L476.76,160.48L477.47,156.04L479.61,156.87L480.32,158.25L481.03,160.8L481.74,160.29L483.17,156.12L483.88,156.31L485.3,158.73L486.01,160.18L486.72,159.47L487.43,157.27L488.86,158.01L489.57,158.91L490.99,161.83L491.7,161.21L493.13,159.98L493.84,160.73L494.55,160.36L495.26,161.42L495.97,161.91L496.69,161.28L498.11,160.97L498.82,160.67L500.24,160.73L500.96,160.04L503.8,155.94L504.51,157.24L505.94,161.73L506.65,156.46L508.78,143.53L509.49,128.84L510.92,146.83L511.63,144.55L513.05,115.7L513.76,110.31L514.48,103.27L515.19,136.72L515.9,144.9L516.61,122.91L518.03,58.11L518.74,71.89L519.46,71.07L520.17,74.39L521.59,115.83L522.3,55.57L524.44,23.21L525.15,52.74L526.57,107.67L527.28,71.1L528,63.24L528.71,9.12L530.84,129.61L531.55,125.46L532.98,66.74L533.69,75.71L534.4,75.1L535.11,90.52L535.82,131.34L536.53,130.94L537.25,95.73L537.96,86.47L538.67,98.45L539.38,92.03L540.09,106.47L541.52,141.15L542.23,107.34L542.94,92.43L543.65,111.4L544.36,114.33L545.07,125.32L546.5,152.12L547.21,150.78L547.92,147.91L548.63,130.51L549.34,124.52L550.05,129.13L550.77,154.28L551.48,151.3L552.19,122.86L552.9,138.21L553.61,130.01L554.32,133.8L555.04,137.13L555.75,155.31L556.46,153.86L557.17,136.12L558.59,139.14L559.3,134.89L560.02,141.5L560.73,155.54L561.44,156.13L562.15,140.47L562.86,137.71L563.57,142.79L565,147L565.71,157L566.42,158.47L567.13,146.89L567.84,144.82L568.56,146.08L569.27,148.34L569.98,153.57L570.69,158.84L571.4,155.97L572.83,148.35L573.54,148.66L574.25,146.53L574.96,151.34L575.67,158.84L576.38,158.45L577.09,150.73L577.81,148.44L578.52,150.34L580.65,161.33L581.36,158.16L582.08,155.14L582.79,143.04L584.21,158.38L584.92,158.89L585.63,160.74L586.35,159.24L587.06,150.85L587.77,151.49L588.48,152.04L589.19,155.14L589.9,154.57L590.61,159.34L591.33,159.22L592.04,151.23L592.75,151.96L593.46,151.1L594.17,152.14L594.88,154.87L595.6,159.48L596.31,157.5L597.73,150.18L598.44,151.28L599.15,149L599.87,153.41L600.58,159.33L601.29,155.47L602,162.69" style="vector-effect: non-scaling-stroke; fill: none; stroke: rgb(31, 119, 180); stroke-opacity: 1; stroke-width: 2px; opacity: 1;"/></g><g class="points"/><g class="text"/></g></g></g><g class="overplot"/><path class="xlines-above crisp" style="fill: none;" d="M0,0"/><path class="ylines-above crisp" style="fill: none;" d="M0,0"/><g class="overlines-above"/><g class="xaxislayer-above"><g class="xtick"><text text-anchor="middle" x="0" y="255.4" transform="translate(172.57,0)" style="font-family: 'Open Sans', verdana, arial, sans-serif; font-size: 12px; fill: rgb(68, 68, 68); fill-opacity: 1; white-space: pre; opacity: 1;">Jul 2020</text></g><g class="xtick"><text text-anchor="middle" x="0" y="255.4" style="font-family: 'Open Sans', verdana, arial, sans-serif; font-size: 12px; fill: rgb(68, 68, 68); fill-opacity: 1; white-space: pre; opacity: 1;" transform="translate(303.5,0)">Jan 2021</text></g><g class="xtick"><text text-anchor="middle" x="0" y="255.4" style="font-family: 'Open Sans', verdana, arial, sans-serif; font-size: 12px; fill: rgb(68, 68, 68); fill-opacity: 1; white-space: pre; opacity: 1;" transform="translate(432.29,0)">Jul 2021</text></g><g class="xtick"><text text-anchor="middle" x="0" y="255.4" style="font-family: 'Open Sans', verdana, arial, sans-serif; font-size: 12px; fill: rgb(68, 68, 68); fill-opacity: 1; white-space: pre; opacity: 1;" transform="translate(563.22,0)">Jan 2022</text></g></g><g class="yaxislayer-above"><g class="ytick"><text text-anchor="end" x="57" y="4.199999999999999" transform="translate(0,222.69)" style="font-family: 'Open Sans', verdana, arial, sans-serif; font-size: 12px; fill: rgb(68, 68, 68); fill-opacity: 1; white-space: pre; opacity: 1;">0</text></g><g class="ytick"><text text-anchor="end" x="57" y="4.199999999999999" style="font-family: 'Open Sans', verdana, arial, sans-serif; font-size: 12px; fill: rgb(68, 68, 68); fill-opacity: 1; white-space: pre; opacity: 1;" transform="translate(0,169.20999999999998)">100k</text></g><g class="ytick"><text text-anchor="end" x="57" y="4.199999999999999" style="font-family: 'Open Sans', verdana, arial, sans-serif; font-size: 12px; fill: rgb(68, 68, 68); fill-opacity: 1; white-space: pre; opacity: 1;" transform="translate(0,115.72999999999999)">200k</text></g><g class="ytick"><text text-anchor="end" x="57" y="4.199999999999999" style="font-family: 'Open Sans', verdana, arial, sans-serif; font-size: 12px; fill: rgb(68, 68, 68); fill-opacity: 1; white-space: pre; opacity: 1;" transform="translate(0,62.25)">300k</text></g></g><g class="overaxes-above"/></g><g class="subplot x2y2"><g class="layer-subplot"><g class="shapelayer"/><g class="imagelayer"/></g><g class="gridlayer"><g class="x2"><path class="x2grid crisp" transform="translate(172.57,0)" d="M0,257.6v182.4" style="stroke: rgb(238, 238, 238); stroke-opacity: 1; stroke-width: 1px;"/><path class="x2grid crisp" transform="translate(303.5,0)" d="M0,257.6v182.4" style="stroke: rgb(238, 238, 238); stroke-opacity: 1; stroke-width: 1px;"/><path class="x2grid crisp" transform="translate(432.29,0)" d="M0,257.6v182.4" style="stroke: rgb(238, 238, 238); stroke-opacity: 1; stroke-width: 1px;"/><path class="x2grid crisp" transform="translate(563.22,0)" d="M0,257.6v182.4" style="stroke: rgb(238, 238, 238); stroke-opacity: 1; stroke-width: 1px;"/></g><g class="y2"><path class="y2grid crisp" transform="translate(0,391.3)" d="M58,0h602" style="stroke: rgb(238, 238, 238); stroke-opacity: 1; stroke-width: 1px;"/><path class="y2grid crisp" transform="translate(0,351.73)" d="M58,0h602" style="stroke: rgb(238, 238, 238); stroke-opacity: 1; stroke-width: 1px;"/><path class="y2grid crisp" transform="translate(0,312.15000000000003)" d="M58,0h602" style="stroke: rgb(238, 238, 238); stroke-opacity: 1; stroke-width: 1px;"/><path class="y2grid crisp" transform="translate(0,272.58000000000004)" d="M58,0h602" style="stroke: rgb(238, 238, 238); stroke-opacity: 1; stroke-width: 1px;"/></g></g><g class="zerolinelayer"><path class="y2zl zl crisp" transform="translate(0,430.88)" d="M58,0h602" style="stroke: rgb(68, 68, 68); stroke-opacity: 1; stroke-width: 1px;"/></g><path class="xlines-below"/><path class="ylines-below"/><g class="overlines-below"/><g class="xaxislayer-below"/><g class="yaxislayer-below"/><g class="overaxes-below"/><g class="plot" transform="translate(58,257.6)" clip-path="url(#clip9ed005x2y2plot)"><g class="scatterlayer mlayer"><g class="trace scatter trace45f1b2" style="stroke-miterlimit: 2; opacity: 1;"><g class="fills"/><g class="errorbars"/><g class="lines"><path class="js-line" d="M0,173.28L46.96,172.53L47.68,172.29L48.39,172.37L49.1,171.62L49.81,171.74L50.52,169.96L51.23,171.89L51.95,169.88L52.66,171.66L53.37,170.19L54.79,168.02L55.5,168.1L56.93,170.63L57.64,169.36L58.35,169.12L59.06,165.21L60.48,165.84L61.2,164.69L61.91,164.85L62.62,169.01L64.75,166.75L65.47,156.46L66.89,159.31L67.6,164.22L69.02,154.28L69.74,156.26L70.45,153.77L71.16,157.21L72.58,161.8L73.29,160.77L74.72,147.56L75.43,149.46L76.14,140.55L76.85,147.99L77.56,154.8L78.27,152.3L78.99,141.3L79.7,142.45L80.41,143.24L81.12,135.17L82.54,155.23L83.26,144.19L83.97,128.56L84.68,130.7L85.39,130.97L86.1,132.48L86.81,131.88L87.52,147.24L88.24,144.51L88.95,131.57L89.66,131.29L90.37,126.18L91.08,128.28L91.79,139.09L92.51,154.64L93.22,143.95L93.93,119.26L94.64,126.03L95.35,113.52L96.06,130.7L97.49,154.44L98.2,139.13L99.62,124.29L100.33,123.1L101.04,139.92L101.76,139.36L102.47,148.19L103.18,143.04L103.89,120.57L104.6,126.38L105.31,124.25L106.03,126.9L106.74,134.42L107.45,150.21L108.16,143.12L108.87,117.64L109.58,129.59L110.3,126.58L111.01,133.98L111.72,132.48L112.43,149.77L113.14,144.71L113.85,121.16L114.57,130.3L115.28,123.45L115.99,125.27L116.7,131.33L117.41,151.2L118.12,146.17L118.83,121.83L119.55,126.86L120.97,121.91L121.68,136.4L122.39,148.86L123.1,140.23L123.82,122.07L124.53,122.62L125.24,121.87L127.37,145.26L128.09,142.89L128.8,121.16L129.51,121.99L130.22,121.32L131.64,129.79L132.35,150.29L133.07,146.17L133.78,123.49L135.2,125.71L135.91,123.14L137.34,152.54L138.05,149.46L139.47,119.22L140.18,124.76L141.61,140.55L142.32,150.76L143.74,126.03L144.45,126.42L145.16,124.13L147.3,150.05L148.01,141.78L148.72,119.77L149.43,127.25L150.14,124.32L150.86,131.69L152.28,155.27L152.99,144.67L153.7,125.67L154.41,130.58L155.84,139.68L156.55,137.78L157.26,157.41L157.97,147.67L159.39,125.63L160.11,138.97L160.82,139.68L161.53,149.38L162.95,160.62L163.66,152.5L164.38,127.49L165.09,134.73L166.51,142.93L167.22,157.25L167.93,155.15L168.65,130.46L171.49,146.33L172.2,159.39L172.91,154.84L173.63,141.86L174.34,136.4L175.05,141.82L175.76,140.75L176.47,144.71L177.18,159.86L177.9,157.81L179.32,134.42L180.03,142.69L182.17,159.11L182.88,157.73L183.59,141.22L184.3,144.59L185.01,144.19L185.72,147.4L186.43,152.15L187.15,162.28L187.86,165.6L188.57,158.32L189.99,141.07L190.7,147.83L192.13,163.98L192.84,160.38L193.55,147.63L194.26,150.68L194.97,153.29L195.69,151L197.11,164.06L197.82,161.33L198.53,152.46L199.24,153.33L200.67,150.6L201.38,161.72L202.8,166.75L203.51,161.88L204.22,148.82L204.94,149.42L206.36,164.26L207.07,165.76L208.49,165.44L209.21,150.56L209.92,136.36L210.63,150.48L211.34,144.23L212.05,167.74L212.76,163.11L213.48,146.45L214.19,143.44L214.9,147.56L217.03,166.24L217.74,159.23L218.46,148.47L219.17,148.62L219.88,145.18L222.01,164.06L222.73,159.39L223.44,146.17L224.15,146.41L224.86,143.16L226.28,147.67L227,159.82L227.71,156.46L228.42,141.7L229.13,139.52L229.84,142.85L230.55,147.12L231.26,146.49L231.98,161.61L232.69,152.98L234.11,136.04L234.82,131.29L236.96,156.7L237.67,151.08L238.38,134.93L239.09,135.09L239.8,143.2L241.23,161.57L241.94,159.94L242.65,151.99L243.36,131.69L244.07,125.12L244.78,133.07L246.21,161.68L246.92,160.97L247.63,149.65L248.34,126.26L249.05,124.56L249.77,113.2L251.9,153.89L252.61,153.85L254.04,123.26L254.75,127.61L255.46,128.36L256.17,133.15L257.59,154.44L258.3,127.37L259.02,118.07L259.73,119.97L260.44,130.89L261.15,127.97L261.86,149.73L262.57,145.97L264,120.41L264.71,116.37L265.42,130.26L266.13,126.11L266.84,150.8L267.56,148.62L268.27,123.38L268.98,125.83L269.69,122.78L270.4,123.77L271.83,153.93L272.54,144.75L273.96,119.42L274.67,116.21L277.52,149.1L278.23,130.06L278.94,126.22L279.65,116.33L280.36,120.6L281.08,132.48L281.79,149.3L282.5,145.14L283.92,116.05L284.63,110.95L286.06,123.73L286.77,142.69L287.48,140.51L288.19,105.17L288.9,100.14L289.61,101.73L290.33,105.45L291.04,114.31L291.75,129.83L292.46,128.88L293.88,79.05L294.6,86.41L295.31,89.3L296.02,95.87L296.73,130.93L297.44,120.49L298.15,60.49L298.87,67.97L299.58,65.48L300.29,68.17L301,79.56L301.71,123.93L302.42,109.84L303.13,48.74L303.85,81.58L304.56,68.25L305.27,34.37L305.98,38.37L306.69,110.67L307.4,93.61L308.83,17.95L309.54,28.63L311.67,124.13L312.39,97.61L313.1,12.29L313.81,28L314.52,9.12L315.23,24.79L316.65,99.79L317.37,105.57L318.08,24.59L318.79,36.94L319.5,35.12L320.21,41.22L320.92,59.42L321.64,113.05L322.35,103.79L323.06,40.82L323.77,46.76L324.48,92.11L325.19,52.89L325.91,63.81L326.62,120.49L327.33,118.67L328.04,51.35L328.75,54.08L329.46,53.29L330.17,60.05L330.89,84.63L332.31,128.76L333.02,55.38L335.87,90.88L336.58,136.79L337.29,129.31L338,84.43L338.71,71.14L339.43,83.17L340.85,94.09L341.56,131.29L342.27,130.34L342.98,76.28L344.41,73.91L345.12,89.14L345.83,104.97L346.54,138.1L347.25,139.17L347.96,86.85L348.68,75.81L349.39,90.13L350.1,77.27L350.81,96.46L351.52,137.15L352.23,135.05L352.95,80.91L353.66,74.02L354.37,97.53L355.08,126.15L355.79,107.19L356.5,138.45L357.22,127.81L357.93,68.48L358.64,78.61L359.35,74.14L360.06,87.12L360.77,95.16L361.48,128.96L362.2,132.91L362.91,67.02L363.62,66.35L364.33,81.7L365.04,75.29L365.75,86.02L367.18,134.46L367.89,90.05L368.6,83.64L369.31,92.62L370.02,93.81L370.74,113.24L372.16,145.02L372.87,96.58L373.58,91.6L374.29,96.82L375,99.04L375.72,108.53L376.43,142.77L377.14,142.05L377.85,103.67L378.56,110.55L379.27,104.93L380.7,127.45L381.41,150.92L382.12,142.33L382.83,107.62L383.54,112.49L384.26,109.6L385.68,122.98L386.39,154.24L387.1,146.84L387.81,118.71L389.24,116.65L389.95,122.19L390.66,130.5L391.37,154.32L392.08,148.55L392.79,122.27L393.51,118.94L394.22,120.21L394.93,138.26L395.64,135.72L396.35,156.86L397.06,151.75L397.78,124.32L398.49,130.85L399.2,128.72L399.91,135.33L400.62,133.74L401.33,157.89L402.04,153.18L402.76,123.1L404.18,133.07L404.89,137.98L405.6,137.19L406.31,157.89L407.03,156.9L407.74,129.98L408.45,134.1L409.16,132.79L409.87,137.9L410.58,149.1L411.3,160.1L412.01,156.78L413.43,138.18L414.14,138.81L414.85,140.91L415.57,148.39L416.28,162.28L416.99,160.69L417.7,138.41L418.41,145.7L419.12,142.33L419.83,143.99L420.55,148.03L421.26,162.55L421.97,164.57L422.68,160.34L423.39,163.43L424.1,140.67L424.82,148.11L425.53,146.8L426.95,162.04L427.66,146.45L428.37,141.58L429.09,147.04L430.51,150.09L431.22,163.47L431.93,162.79L432.64,146.65L433.35,146.96L434.07,148.39L434.78,146.37L435.49,151.91L436.91,165.6L437.62,140.95L439.76,153.89L440.47,155.31L441.89,165.21L442.61,146.21L444.03,156.34L444.74,148.35L446.16,167.3L446.87,165.09L447.59,166.35L448.3,165.13L449.01,150.64L449.72,153.22L450.43,154.88L451.14,168.21L451.86,165.29L452.57,158.28L453.28,157.49L453.99,154.84L454.7,155.59L455.41,159.43L456.13,168.57L456.84,165.09L458.26,156.06L458.97,158.52L459.68,157.13L460.39,164.73L461.82,169.2L462.53,167.26L463.24,165.76L463.95,156.1L465.38,161.29L466.09,170.51L468.22,162.63L468.93,163.78L469.65,148.7L470.36,161.13L471.07,170.71L471.78,170.51L472.49,167.62L473.2,158.36L473.91,162.52L475.34,165.09L476.05,169.48L476.76,168.29L477.47,161.61L478.18,162.55L478.9,161.88L479.61,161.21L480.32,164.3L481.03,170.11L481.74,168.61L482.45,160.38L483.17,162.67L483.88,165.52L484.59,164.02L486.01,170.47L486.72,168.06L487.43,162.95L488.15,163.78L488.86,165.36L489.57,164.26L490.28,171.18L490.99,170.03L491.7,171.5L492.42,168.81L493.13,161.49L493.84,168.41L494.55,165.44L495.26,167.82L495.97,171.1L496.69,170L497.4,170.47L498.11,167.5L498.82,168.29L499.53,166.83L500.24,172.05L500.96,171.46L501.67,170.71L502.38,166.12L503.09,168.65L503.8,167.19L505.22,171.97L505.94,171.93L506.65,170.43L507.36,166.12L508.78,173.28L509.49,166.63L510.21,168.73L510.92,160.85L511.63,168.73L512.34,167.7L513.05,167.98L513.76,165.8L514.48,164.06L515.19,166.55L515.9,169.56L516.61,167.3L517.32,160.42L518.03,160.54L518.74,159.39L519.46,157.49L520.17,160.77L520.88,166.2L521.59,162.75L523.01,150.01L523.73,146.65L524.44,142.41L525.15,145.58L525.86,162.2L526.57,155.91L528,135.88L528.71,133.7L529.42,135.13L530.13,140.43L530.84,156.7L531.55,156.18L532.26,126.9L532.98,121.71L533.69,136.99L534.4,128.6L535.11,138.49L535.82,160.34L536.53,154.36L537.96,132.91L538.67,131.33L539.38,126.42L540.09,139.44L541.52,160.38L542.23,140.95L543.65,134.14L544.36,141.9L545.07,146.05L545.78,163.27L547.21,163.54L547.92,160.14L549.34,145.66L550.05,145.81L551.48,164.97L552.19,154.05L552.9,148.23L553.61,149.02L555.75,168.33L556.46,165.44L558.59,155L559.3,157.25L561.44,169.32L562.15,157.05L562.86,162.16L563.57,160.85L566.42,170.59L567.13,162.16L569.27,163.66L569.98,169.08L570.69,171.74L571.4,166.95L572.11,164.73L572.83,165.6L573.54,163.47L574.25,167.38L575.67,171.78L576.38,170.79L577.81,166.83L578.52,167.78L579.23,168.89L579.94,172.05L580.65,172.41L581.36,170.75L582.08,168.33L582.79,162.87L584.21,171.26L584.92,171.18L585.63,171.86L586.35,170.39L587.77,163.7L588.48,168.77L589.19,165.96L589.9,169.84L590.61,172.65L591.33,169.88L592.04,169.64L592.75,170.75L594.17,165.56L594.88,171.89L595.6,172.77L596.31,171.22L597.02,165.44L597.73,168.29L599.15,167.82L599.87,169.64L600.58,171.46L601.29,170.67L602,173.28" style="vector-effect: non-scaling-stroke; fill: none; stroke: rgb(255, 0, 0); stroke-opacity: 1; stroke-width: 2px; opacity: 1;"/></g><g class="points"/><g class="text"/></g></g></g><g class="overplot"/><path class="xlines-above crisp" style="fill: none;" d="M0,0"/><path class="ylines-above crisp" style="fill: none;" d="M0,0"/><g class="overlines-above"/><g class="xaxislayer-above"><g class="x2tick"><text text-anchor="middle" x="0" y="453" transform="translate(172.57,0)" style="font-family: 'Open Sans', verdana, arial, sans-serif; font-size: 12px; fill: rgb(68, 68, 68); fill-opacity: 1; white-space: pre; opacity: 1;">Jul 2020</text></g><g class="x2tick"><text text-anchor="middle" x="0" y="453" style="font-family: 'Open Sans', verdana, arial, sans-serif; font-size: 12px; fill: rgb(68, 68, 68); fill-opacity: 1; white-space: pre; opacity: 1;" transform="translate(303.5,0)">Jan 2021</text></g><g class="x2tick"><text text-anchor="middle" x="0" y="453" style="font-family: 'Open Sans', verdana, arial, sans-serif; font-size: 12px; fill: rgb(68, 68, 68); fill-opacity: 1; white-space: pre; opacity: 1;" transform="translate(432.29,0)">Jul 2021</text></g><g class="x2tick"><text text-anchor="middle" x="0" y="453" style="font-family: 'Open Sans', verdana, arial, sans-serif; font-size: 12px; fill: rgb(68, 68, 68); fill-opacity: 1; white-space: pre; opacity: 1;" transform="translate(563.22,0)">Jan 2022</text></g></g><g class="yaxislayer-above"><g class="y2tick"><text text-anchor="end" x="57" y="4.199999999999999" transform="translate(0,430.88)" style="font-family: 'Open Sans', verdana, arial, sans-serif; font-size: 12px; fill: rgb(68, 68, 68); fill-opacity: 1; white-space: pre; opacity: 1;">0</text></g><g class="y2tick"><text text-anchor="end" x="57" y="4.199999999999999" style="font-family: 'Open Sans', verdana, arial, sans-serif; font-size: 12px; fill: rgb(68, 68, 68); fill-opacity: 1; white-space: pre; opacity: 1;" transform="translate(0,391.3)">1000</text></g><g class="y2tick"><text text-anchor="end" x="57" y="4.199999999999999" style="font-family: 'Open Sans', verdana, arial, sans-serif; font-size: 12px; fill: rgb(68, 68, 68); fill-opacity: 1; white-space: pre; opacity: 1;" transform="translate(0,351.73)">2000</text></g><g class="y2tick"><text text-anchor="end" x="57" y="4.199999999999999" style="font-family: 'Open Sans', verdana, arial, sans-serif; font-size: 12px; fill: rgb(68, 68, 68); fill-opacity: 1; white-space: pre; opacity: 1;" transform="translate(0,312.15000000000003)">3000</text></g><g class="y2tick"><text text-anchor="end" x="57" y="4.199999999999999" style="font-family: 'Open Sans', verdana, arial, sans-serif; font-size: 12px; fill: rgb(68, 68, 68); fill-opacity: 1; white-space: pre; opacity: 1;" transform="translate(0,272.58000000000004)">4000</text></g></g><g class="overaxes-above"/></g></g><g class="polarlayer"/><g class="ternarylayer"/><g class="geolayer"/><g class="funnelarealayer"/><g class="pielayer"/><g class="iciclelayer"/><g class="treemaplayer"/><g class="sunburstlayer"/><g class="glimages"/><defs id="topdefs-9ed005"><g class="clips"/><clipPath id="legend9ed005"><rect width="108" height="48" x="0" y="0"/></clipPath></defs><g class="layer-above"><g class="imagelayer"/><g class="shapelayer"/></g><g class="infolayer"><g class="legend" pointer-events="all" transform="translate(88.1,60)"><rect class="bg" shape-rendering="crispEdges" style="stroke: rgb(68, 68, 68); stroke-opacity: 1; fill: rgb(255, 255, 255); fill-opacity: 1; stroke-width: 0px;" width="108" height="48" x="0" y="0"/><g class="scrollbox" transform="" clip-path="url(#legend9ed005)"><g class="groups"><g class="traces" style="opacity: 1;" transform="translate(0,14.5)"><text class="legendtext" text-anchor="start" x="40" y="4.680000000000001" style="font-family: 'Open Sans', verdana, arial, sans-serif; font-size: 12px; fill: rgb(68, 68, 68); fill-opacity: 1; white-space: pre;">Confirmed</text><g class="layers" style="opacity: 1;"><g class="legendfill"/><g class="legendlines"><path class="js-line" d="M5,0h30" style="fill: none; stroke: rgb(31, 119, 180); stroke-opacity: 1; stroke-width: 2px;"/></g><g class="legendsymbols"><g class="legendpoints"/></g></g><rect class="legendtoggle" x="0" y="-9.5" width="102.1875" height="19" style="fill: rgb(0, 0, 0); fill-opacity: 0;"/></g><g class="traces" style="opacity: 1;" transform="translate(0,33.5)"><text class="legendtext" text-anchor="start" x="40" y="4.680000000000001" style="font-family: 'Open Sans', verdana, arial, sans-serif; font-size: 12px; fill: rgb(68, 68, 68); fill-opacity: 1; white-space: pre;">Death</text><g class="layers" style="opacity: 1;"><g class="legendfill"/><g class="legendlines"><path class="js-line" d="M5,0h30" style="fill: none; stroke: rgb(255, 0, 0); stroke-opacity: 1; stroke-width: 2px;"/></g><g class="legendsymbols"><g class="legendpoints"/></g></g><rect class="legendtoggle" x="0" y="-9.5" width="102.1875" height="19" style="fill: rgb(0, 0, 0); fill-opacity: 0;"/></g></g></g><rect class="scrollbar" rx="20" ry="3" width="0" height="0" style="fill: rgb(128, 139, 164); fill-opacity: 1;" x="0" y="0"/></g><g class="g-gtitle"><text class="gtitle" x="350" y="30" text-anchor="middle" dy="0em" style="font-family: 'Open Sans', verdana, arial, sans-serif; font-size: 17px; fill: rgb(68, 68, 68); opacity: 1; font-weight: normal; white-space: pre;">Brazil - Daily Confirmed and Death Cases</text></g><g class="g-xtitle"/><g class="g-x2title"><text class="x2title" x="359" y="492" text-anchor="middle" style="font-family: 'Open Sans', verdana, arial, sans-serif; font-size: 14px; fill: rgb(68, 68, 68); opacity: 1; font-weight: normal; white-space: pre;">Source: Johns Hopkins University Center for Systems Science and Engineering</text></g><g class="g-ytitle"><text class="ytitle" transform="rotate(-90,20,151.2)" x="20" y="151.2" text-anchor="middle" style="font-family: 'Open Sans', verdana, arial, sans-serif; font-size: 14px; fill: rgb(68, 68, 68); opacity: 1; font-weight: normal; white-space: pre;">Cases</text></g><g class="g-y2title"><text class="y2title" transform="rotate(-90,20,348.8)" x="20" y="348.8" text-anchor="middle" style="font-family: 'Open Sans', verdana, arial, sans-serif; font-size: 14px; fill: rgb(68, 68, 68); opacity: 1; font-weight: normal; white-space: pre;">Cases</text></g></g></svg>