<svg class="main-svg" xmlns="http://www.w3.org/2000/svg" xmlns:xlink="http://www.w3.org/1999/xlink" width="700" height="500" style="" viewBox="0 0 700 500"><rect x="0" y="0" width="700" height="500" style="fill: rgb(255, 255, 255); fill-opacity: 1;"/><defs id="defs-fb9859"><g class="clips"><clipPath id="clipfb9859xyplot" class="plotclip"><rect width="602" height="182.4"/></clipPath><clipPath id="clipfb9859x2y2plot" class="plotclip"><rect width="602" height="182.4"/></clipPath><clipPath class="axesclip" id="clipfb9859x"><rect x="58" y="0" width="602" height="500"/></clipPath><clipPath class="axesclip" id="clipfb9859y"><rect x="0" y="60" width="700" height="182.4"/></clipPath><clipPath class="axesclip" id="clipfb9859xy"><rect x="58" y="60" width="602" height="182.4"/></clipPath><clipPath class="axesclip" id="clipfb9859y2"><rect x="0" y="257.6" width="700" height="182.4"/></clipPath><clipPath class="axesclip" id="clipfb9859xy2"><rect x="58" y="257.6" width="602" height="182.4"/></clipPath><clipPath class="axesclip" id="clipfb9859x2"><rect x="58" y="0" width="602" height="500"/></clipPath><clipPath class="axesclip" id="clipfb9859x2y"><rect x="58" y="60" width="602" height="182.4"/></clipPath><clipPath class="axesclip" id="clipfb9859x2y2"><rect x="58" y="257.6" width="602" height="182.4"/></clipPath></g><g class="gradients"/></defs><g class="bglayer"/><g class="layer-below"><g class="imagelayer"/><g class="shapelayer"/></g><g class="cartesianlayer"><g class="subplot xy"><g class="layer-subplot"><g class="shapelayer"/><g class="imagelayer"/></g><g class="gridlayer"><g class="x"><path class="xgrid crisp" transform="translate(124.89,0)" d="M0,60v182.4" style="stroke: rgb(238, 238, 238); stroke-opacity: 1; stroke-width: 1px;"/><path class="xgrid crisp" transform="translate(211.84,0)" d="M0,60v182.4" style="stroke: rgb(238, 238, 238); stroke-opacity: 1; stroke-width: 1px;"/><path class="xgrid crisp" transform="translate(299.76,0)" d="M0,60v182.4" style="stroke: rgb(238, 238, 238); stroke-opacity: 1; stroke-width: 1px;"/><path class="xgrid crisp" transform="translate(387.67,0)" d="M0,60v182.4" style="stroke: rgb(238, 238, 238); stroke-opacity: 1; stroke-width: 1px;"/><path class="xgrid crisp" transform="translate(473.67,0)" d="M0,60v182.4" style="stroke: rgb(238, 238, 238); stroke-opacity: 1; stroke-width: 1px;"/><path class="xgrid crisp" transform="translate(560.62,0)" d="M0,60v182.4" style="stroke: rgb(238, 238, 238); stroke-opacity: 1; stroke-width: 1px;"/><path class="xgrid crisp" transform="translate(648.53,0)" d="M0,60v182.4" style="stroke: rgb(238, 238, 238); stroke-opacity: 1; stroke-width: 1px;"/></g><g class="y"><path class="ygrid crisp" transform="translate(0,178.18)" d="M58,0h602" style="stroke: rgb(238, 238, 238); stroke-opacity: 1; stroke-width: 1px;"/><path class="ygrid crisp" transform="translate(0,123.71000000000001)" d="M58,0h602" style="stroke: rgb(238, 238, 238); stroke-opacity: 1; stroke-width: 1px;"/><path class="ygrid crisp" transform="translate(0,69.24)" d="M58,0h602" style="stroke: rgb(238, 238, 238); stroke-opacity: 1; stroke-width: 1px;"/></g></g><g class="zerolinelayer"><path class="yzl zl crisp" transform="translate(0,232.66)" d="M58,0h602" style="stroke: rgb(68, 68, 68); stroke-opacity: 1; stroke-width: 1px;"/></g><path class="xlines-below"/><path class="ylines-below"/><g class="overlines-below"/><g class="xaxislayer-below"/><g class="yaxislayer-below"/><g class="overaxes-below"/><g class="plot" transform="translate(58, 60)" clip-path="url('#clipfb9859xyplot')"><g class="scatterlayer mlayer"><g class="trace scatter trace4a19ea" style="stroke-miterlimit: 2; opacity: 1;"><g class="fills"/><g class="errorbars"/><g class="lines"><path class="js-line" d="M0,172.66L64.98,172.3L65.93,171.42L71.67,171.53L72.62,170.62L74.53,170.56L75.49,170.97L76.44,171.47L77.4,171.06L78.36,171.31L79.31,170.66L80.27,169.32L81.22,170.36L82.18,169.11L83.13,169.41L84.09,170.48L85.04,170.38L86.96,169.74L87.91,167.99L88.87,168.29L89.82,166.9L90.78,168.54L91.73,167.92L94.6,164.48L95.56,167.19L97.47,167.51L98.42,165.25L99.38,165.21L100.33,160.5L101.29,162.67L102.24,160.54L104.16,165.42L105.11,165.14L106.07,163.26L107.02,159.67L107.98,158.46L108.93,154L110.84,164.41L111.8,157.09L113.71,151.2L114.67,152.49L115.62,149.99L116.58,154.67L117.53,155.43L118.49,159.92L121.36,143.88L122.31,143.32L123.27,136.4L124.22,154.78L125.18,160.02L126.13,141.13L127.09,141.46L128.04,138.96L129,139.07L129.96,143.16L131.87,155.6L132.82,137.69L133.78,136.8L134.73,139.52L137.6,154.01L138.56,150.16L139.51,134.61L140.47,137.59L141.42,147.85L142.38,112.98L144.29,155.48L145.24,147.46L146.2,129.69L147.16,126.11L148.11,129.64L149.07,121.6L151.93,146.45L152.89,135.78L153.84,121.76L154.8,120.25L156.71,131.34L157.67,144.27L158.62,150.62L159.58,123.3L160.53,124.1L161.49,126.22L162.44,123.58L163.4,130.14L165.31,150.55L166.27,127.05L167.22,129.16L168.18,123.19L170.09,141.57L171.04,147.02L172,150.59L172.96,127.98L173.91,98.72L174.87,107.33L176.78,116.93L177.73,145.88L178.69,147.29L179.64,128.19L180.6,97.4L181.56,109.64L183.47,123.2L184.42,144.55L185.38,154.53L186.33,116.44L187.29,110.39L188.24,114.76L189.2,117.93L190.16,118.22L191.11,147.59L192.07,148.64L193.02,115.83L193.98,112.57L194.93,107.19L195.89,117.48L196.84,127.36L197.8,147.49L198.76,151.55L199.71,120.6L200.67,118.95L201.62,123.28L202.58,139.58L203.53,118.15L205.44,154.05L206.4,121.3L207.36,121.28L208.31,124.46L209.27,125.36L210.22,127.61L211.18,155.05L212.13,122.58L213.09,126.18L214.04,121.52L215,124.97L215.96,118L217.87,156.84L218.82,161.46L219.78,157.1L220.73,133.64L222.64,125.03L223.6,136.13L224.56,156.57L225.51,156.14L226.47,132.72L227.42,132.54L228.38,133.1L229.33,129.3L230.29,136.64L231.24,154.8L232.2,158.04L233.16,136.35L234.11,172.66L235.07,100.38L236.02,137.89L236.98,141.74L237.93,157.06L238.89,158.32L239.84,137.73L240.8,136.25L241.76,133.26L242.71,172.66L243.67,107.57L244.62,163.44L245.58,159.64L246.53,127L248.44,142.42L249.4,142.76L250.36,143.51L251.31,159.21L252.27,163.47L253.22,161.52L254.18,142.98L255.13,141.58L256.09,138.98L257.04,146.44L258,172.66L258.96,143.93L259.91,147.35L260.87,145.62L261.82,145.57L262.78,139.94L263.73,143.26L264.69,157.96L265.64,155.52L266.6,140.2L267.56,141.47L268.51,144.21L270.42,152.01L271.38,161.65L272.33,163.39L273.29,159.75L274.24,146.53L275.2,172.66L276.16,127.82L277.11,148.27L278.07,161.16L279.02,160.76L279.98,146.54L280.93,119.65L282.84,140.98L283.8,130.92L284.76,157.26L285.71,158.09L286.67,134.2L287.62,135.51L289.53,130.82L290.49,137.12L291.44,152.38L292.4,155L294.31,120.47L295.27,131.68L296.22,135.47L297.18,116.09L298.13,146L299.09,149.63L300.04,117.19L301,118.33L301.96,117.71L302.91,121.58L303.87,125.58L304.82,143.93L305.78,150.46L306.73,117L307.69,114.42L308.64,114.54L309.6,113.36L310.56,124.83L311.51,148.88L312.47,145.21L314.38,95.77L315.33,96.58L316.29,115.41L317.24,117.99L318.2,144.93L319.16,145.4L320.11,112.51L321.07,121.78L322.02,109L322.98,145.84L323.93,153.87L324.89,152.52L325.84,150.27L326.8,108.68L327.76,112.03L328.71,110.8L330.62,155.41L331.58,153.76L332.53,150.86L333.49,110.94L334.44,103.55L335.4,76.95L336.36,115.97L337.31,104.79L338.27,140.2L339.22,144.52L340.18,102.9L341.13,106.31L343.04,97.27L344,105.58L345.91,146.87L346.87,105.01L347.82,102.51L348.78,108.25L349.73,111.04L350.69,104.74L351.64,141.8L352.6,143.44L353.56,105.15L354.51,103.45L357.38,108.96L358.33,142.42L359.29,145.86L360.24,113.72L362.16,110.69L363.11,117.23L364.07,172.66L365.02,88.25L365.98,172.66L366.93,91.03L368.84,113.02L369.8,116.5L370.76,124.39L371.71,145.68L372.67,137.58L373.62,112.44L374.58,110.81L375.53,116.14L377.44,112.8L378.4,141.03L379.36,143.26L380.31,104.33L381.27,100.11L382.22,100.75L383.18,101.66L384.13,105.54L385.09,135.58L386.04,133.72L387.96,94.54L388.91,90.83L389.87,90.41L390.82,96.82L391.78,84.94L392.73,137.44L394.64,85.63L395.6,90.5L396.56,79.33L397.51,89.66L399.42,133.17L400.38,81.22L401.33,74.27L402.29,77.89L403.24,73.98L404.2,86.51L405.16,120.61L406.11,118.95L408.02,74.61L408.98,63.54L409.93,80.87L410.89,79.02L411.84,124.36L412.8,130.25L413.76,80.6L414.71,73.91L415.67,73.41L416.62,96.13L418.53,138.49L419.49,141.45L420.44,77.89L421.4,71.74L422.36,78.25L423.31,70.99L425.22,132.33L426.18,133.67L427.13,83.12L428.09,92.57L429.04,92.93L430,79.21L432.87,139.29L433.82,97.07L434.78,85.8L435.73,123.44L436.69,97.37L437.64,95.15L438.6,137.17L439.56,141.46L440.51,94.06L441.47,85.8L442.42,97.06L443.38,98.21L444.33,99.7L445.29,141.13L446.24,145.83L447.2,88.38L448.16,92.8L449.11,92.71L450.07,86.71L451.02,103.55L452.93,145.2L453.89,93.44L454.84,89.1L455.8,91.39L456.76,79.47L457.71,99.65L459.62,139.81L460.58,90.46L462.49,83.28L463.44,88.92L464.4,89.32L465.36,133.63L466.31,131.8L467.27,92.63L468.22,84.97L469.18,99.15L470.13,118.44L471.09,85.86L473,139.5L473.96,86.67L474.91,68.5L475.87,81.8L476.82,131.33L477.78,100.73L478.73,129.47L479.69,132.18L480.64,115.01L481.6,79.24L482.56,76.68L483.51,79.89L484.47,86.91L485.42,131.31L486.38,129.24L487.33,84.83L488.29,68.76L489.24,91.99L490.2,64.98L491.16,83.01L492.11,124.53L493.07,130.27L494.98,47.12L495.93,92.47L496.89,86.29L497.84,102.78L498.8,135.94L499.76,142.36L500.71,101.95L501.67,124.9L502.62,101.66L503.58,101.66L504.53,113.22L505.49,142.39L506.44,147.92L507.4,104.56L508.36,113.8L509.31,114.12L510.27,109.75L511.22,119.81L512.18,149.85L513.13,154.1L515.04,109.75L516,115.14L517.91,135.24L518.87,135.48L519.82,156.02L520.78,142.6L521.73,113.26L522.69,118.45L523.64,54.2L524.6,131.16L525.56,152.9L526.51,151.96L528.42,120.35L529.38,126.59L530.33,128.09L531.29,131.71L533.2,156.16L534.16,137.45L535.11,128.3L536.07,129.02L537.98,125.77L538.93,157.52L539.89,159.49L540.84,134.65L541.8,137.31L542.76,129.1L544.67,138.73L545.62,157.45L546.58,156.89L547.53,131.68L548.49,127.21L549.44,133.09L550.4,135.74L551.36,141.73L552.31,156.96L553.27,158.38L554.22,139.02L555.18,139.24L556.13,138.86L557.09,142.86L558.04,145.75L559,158.26L559.96,161.25L560.91,145.87L561.87,142.86L562.82,144.02L563.78,144.8L564.73,148.9L566.64,162.68L567.6,157.07L568.56,157.65L569.51,139L570.47,155.28L571.42,157.06L573.33,165.42L574.29,158.05L575.24,156.55L576.2,135.17L577.16,160.45L578.11,9.12L579.07,162.35L580.02,164.07L580.98,173.28L581.93,132.92L583.84,151.48L584.8,155.56L585.76,163.21L586.71,156.94L587.67,155.88L588.62,153.31L589.58,142.67L590.53,152.42L592.44,162.85L593.4,161.3L594.36,150.29L595.31,153.16L596.27,155.67L597.22,152.86L598.18,154.73L599.13,163.24L600.09,165.12L601.04,164.64L602,164.1" style="vector-effect: non-scaling-stroke; fill: none; stroke: rgb(31, 119, 180); stroke-opacity: 1; stroke-width: 2px; opacity: 1;"/></g><g class="points"/><g class="text"/></g></g></g><g class="overplot"/><path class="xlines-above crisp" style="fill: none;" d="M0,0"/><path class="ylines-above crisp" style="fill: none;" d="M0,0"/><g class="overlines-above"/><g class="xaxislayer-above"><g class="xtick"><text text-anchor="middle" x="0" y="255.4" transform="translate(124.89,0)" style="font-family: 'Open Sans', verdana, arial, sans-serif; font-size: 12px; fill: rgb(68, 68, 68); fill-opacity: 1; white-space: pre;">Apr 2020</text></g><g class="xtick"><text text-anchor="middle" x="0" y="255.4" transform="translate(211.84,0)" style="font-family: 'Open Sans', verdana, arial, sans-serif; font-size: 12px; fill: rgb(68, 68, 68); fill-opacity: 1; white-space: pre;">Jul 2020</text></g><g class="xtick"><text text-anchor="middle" x="0" y="255.4" transform="translate(299.76,0)" style="font-family: 'Open Sans', verdana, arial, sans-serif; font-size: 12px; fill: rgb(68, 68, 68); fill-opacity: 1; white-space: pre;">Oct 2020</text></g><g class="xtick"><text text-anchor="middle" x="0" y="255.4" transform="translate(387.67,0)" style="font-family: 'Open Sans', verdana, arial, sans-serif; font-size: 12px; fill: rgb(68, 68, 68); fill-opacity: 1; white-space: pre;">Jan 2021</text></g><g class="xtick"><text text-anchor="middle" x="0" y="255.4" transform="translate(473.67,0)" style="font-family: 'Open Sans', verdana, arial, sans-serif; font-size: 12px; fill: rgb(68, 68, 68); fill-opacity: 1; white-space: pre;">Apr 2021</text></g><g class="xtick"><text text-anchor="middle" x="0" y="255.4" transform="translate(560.62,0)" style="font-family: 'Open Sans', verdana, arial, sans-serif; font-size: 12px; fill: rgb(68, 68, 68); fill-opacity: 1; white-space: pre;">Jul 2021</text></g><g class="xtick"><text text-anchor="middle" x="0" y="255.4" transform="translate(648.53,0)" style="font-family: 'Open Sans', verdana, arial, sans-serif; font-size: 12px; fill: rgb(68, 68, 68); fill-opacity: 1; white-space: pre;">Oct 2021</text></g></g><g class="yaxislayer-above"><g class="ytick"><text text-anchor="end" x="57" y="4.199999999999999" transform="translate(0,232.66)" style="font-family: 'Open Sans', verdana, arial, sans-serif; font-size: 12px; fill: rgb(68, 68, 68); fill-opacity: 1; white-space: pre;">0</text></g><g class="ytick"><text text-anchor="end" x="57" y="4.199999999999999" transform="translate(0,178.18)" style="font-family: 'Open Sans', verdana, arial, sans-serif; font-size: 12px; fill: rgb(68, 68, 68); fill-opacity: 1; white-space: pre;">50k</text></g><g class="ytick"><text text-anchor="end" x="57" y="4.199999999999999" transform="translate(0,123.71000000000001)" style="font-family: 'Open Sans', verdana, arial, sans-serif; font-size: 12px; fill: rgb(68, 68, 68); fill-opacity: 1; white-space: pre;">100k</text></g><g class="ytick"><text text-anchor="end" x="57" y="4.199999999999999" transform="translate(0,69.24)" style="font-family: 'Open Sans', verdana, arial, sans-serif; font-size: 12px; fill: rgb(68, 68, 68); fill-opacity: 1; white-space: pre;">150k</text></g></g><g class="overaxes-above"/></g><g class="subplot x2y2"><g class="layer-subplot"><g class="shapelayer"/><g class="imagelayer"/></g><g class="gridlayer"><g class="x2"><path class="x2grid crisp" transform="translate(124.89,0)" d="M0,257.6v182.4" style="stroke: rgb(238, 238, 238); stroke-opacity: 1; stroke-width: 1px;"/><path class="x2grid crisp" transform="translate(211.84,0)" d="M0,257.6v182.4" style="stroke: rgb(238, 238, 238); stroke-opacity: 1; stroke-width: 1px;"/><path class="x2grid crisp" transform="translate(299.76,0)" d="M0,257.6v182.4" style="stroke: rgb(238, 238, 238); stroke-opacity: 1; stroke-width: 1px;"/><path class="x2grid crisp" transform="translate(387.67,0)" d="M0,257.6v182.4" style="stroke: rgb(238, 238, 238); stroke-opacity: 1; stroke-width: 1px;"/><path class="x2grid crisp" transform="translate(473.67,0)" d="M0,257.6v182.4" style="stroke: rgb(238, 238, 238); stroke-opacity: 1; stroke-width: 1px;"/><path class="x2grid crisp" transform="translate(560.62,0)" d="M0,257.6v182.4" style="stroke: rgb(238, 238, 238); stroke-opacity: 1; stroke-width: 1px;"/><path class="x2grid crisp" transform="translate(648.53,0)" d="M0,257.6v182.4" style="stroke: rgb(238, 238, 238); stroke-opacity: 1; stroke-width: 1px;"/></g><g class="y2"><path class="y2grid crisp" transform="translate(0,392.25)" d="M58,0h602" style="stroke: rgb(238, 238, 238); stroke-opacity: 1; stroke-width: 1px;"/><path class="y2grid crisp" transform="translate(0,353.61)" d="M58,0h602" style="stroke: rgb(238, 238, 238); stroke-opacity: 1; stroke-width: 1px;"/><path class="y2grid crisp" transform="translate(0,314.98)" d="M58,0h602" style="stroke: rgb(238, 238, 238); stroke-opacity: 1; stroke-width: 1px;"/><path class="y2grid crisp" transform="translate(0,276.34000000000003)" d="M58,0h602" style="stroke: rgb(238, 238, 238); stroke-opacity: 1; stroke-width: 1px;"/></g></g><g class="zerolinelayer"><path class="y2zl zl crisp" transform="translate(0,430.88)" d="M58,0h602" style="stroke: rgb(68, 68, 68); stroke-opacity: 1; stroke-width: 1px;"/></g><path class="xlines-below"/><path class="ylines-below"/><g class="overlines-below"/><g class="xaxislayer-below"/><g class="yaxislayer-below"/><g class="overaxes-below"/><g class="plot" transform="translate(58, 257.6)" clip-path="url('#clipfb9859x2y2plot')"><g class="scatterlayer mlayer"><g class="trace scatter trace7ee182" style="stroke-miterlimit: 2; opacity: 1;"><g class="fills"/><g class="errorbars"/><g class="lines"><path class="js-line" d="M0,173.28L63.07,172.55L64.02,172.31L64.98,172.39L65.93,171.66L66.89,171.77L67.84,170.03L68.8,171.93L69.76,169.96L70.71,171.7L71.67,170.27L73.58,168.14L74.53,168.22L76.44,170.69L77.4,169.46L78.36,169.22L79.31,165.4L81.22,166.02L82.18,164.9L83.13,165.05L84.09,169.11L86.96,166.91L87.91,156.86L89.82,159.64L90.78,164.43L91.73,161.03L92.69,154.74L93.64,156.67L94.6,154.23L97.47,162.08L98.42,161.07L100.33,148.17L101.29,150.02L102.24,141.33L103.2,148.59L104.16,155.24L105.11,152.8L106.07,142.06L107.02,143.18L107.98,143.96L108.93,136.07L110.84,155.66L111.8,144.88L112.76,129.62L113.71,139.44L114.67,127.38L115.62,134.61L116.58,136L117.53,148.05L120.4,131.32L121.36,128.62L122.31,129.85L123.27,136.34L124.22,154.74L125.18,149.21L126.13,124.52L127.09,121.16L128.04,116.37L129,134.45L129.96,138.35L130.91,153L131.87,147.05L132.82,124.14L133.78,124.06L134.73,125.41L135.69,138.16L136.64,138.82L137.6,149.64L138.56,149.06L139.51,123.75L140.47,124.25L142.38,126.69L143.33,133.8L144.29,149.52L145.24,147.01L146.2,120.2L147.16,127.5L148.11,129.2L149.07,135.03L150.02,130.43L150.98,151.95L151.93,146.54L152.89,123.83L153.84,133.18L154.8,124.91L155.76,123.44L156.71,131.13L157.67,150.02L158.62,149.33L159.58,124.83L160.53,126.03L162.44,126.38L163.4,131.9L164.36,148.9L165.31,144.96L166.27,123.05L167.22,125.64L168.18,122.2L169.13,128.35L171.04,145.62L172,148.86L172.96,120.47L173.91,123.67L174.87,122.63L175.82,128.62L176.78,126.49L177.73,151.84L178.69,149.56L179.64,137.7L180.6,111.66L181.56,129.66L182.51,126.45L183.47,131.25L184.42,152.38L185.38,151.61L187.29,117.76L188.24,125.49L190.16,138.32L191.11,151.18L192.07,146.12L193.02,124.06L193.98,127.88L194.93,124.52L197.8,149.33L198.76,146.85L199.71,121.05L200.67,126.45L201.62,126.76L202.58,132.56L203.53,138.82L204.49,154.19L205.44,151.45L206.4,124.17L209.27,140.25L210.22,143.99L211.18,151.41L212.13,151.91L213.09,126.34L214.04,127.54L215,141.06L215.96,138.97L218.82,161.3L219.78,153.81L220.73,131.75L221.69,135.3L223.6,141.83L224.56,157.25L225.51,158.56L226.47,130.28L228.38,141.25L229.33,140.13L230.29,144.73L231.24,159.26L232.2,158.71L233.16,141.1L234.11,173.28L235.07,107.48L236.02,145.12L236.98,139.71L237.93,160.34L238.89,161.03L240.8,133.45L241.76,145.15L242.71,173.28L243.67,122.78L244.62,159.18L245.58,160.8L246.53,141.64L247.49,144.92L248.44,145.12L249.4,146.93L250.36,151.68L251.31,162.08L252.27,165.51L253.22,161.34L254.18,144.34L255.13,145.73L256.09,144.15L257.04,155.47L258,173.28L258.96,153.92L259.91,147.74L260.87,151.41L261.82,154.08L262.78,151.22L264.69,164.36L265.64,163.12L266.6,152.07L267.56,153.58L269.47,153.65L270.42,157.56L271.38,165.94L272.33,166.36L273.29,163.89L274.24,149.71L275.2,173.28L276.16,138.16L277.11,163.47L278.07,168.33L279.02,164.36L279.98,166.56L281.89,138.01L282.84,155.66L283.8,137.7L284.76,167.87L285.71,164.93L286.67,146.82L287.62,144.07L288.58,149.87L289.53,151.95L290.49,158.75L291.44,165.78L292.4,161.61L293.36,148.94L294.31,148.01L295.27,146.58L296.22,153.42L297.18,150.6L298.13,162.77L299.09,162.19L300.04,146.35L301,146.31L301.96,144.11L303.87,147.63L304.82,161.19L305.78,158.75L306.73,140.75L307.69,140.98L308.64,143.53L309.6,147.32L310.56,146.78L311.51,162.5L312.47,156.55L313.42,136.04L314.38,137.12L315.33,131.09L316.29,141.48L317.24,146L318.2,157.52L319.16,152.92L320.11,135.88L321.07,136.15L322.02,143.84L323.93,161.42L324.89,159.99L325.84,156.63L326.8,130.36L327.76,127.15L328.71,131.79L330.62,161.15L331.58,161.96L332.53,152.3L333.49,128.04L334.44,125.3L335.4,114.4L336.36,136.11L337.31,128.04L338.27,155.16L339.22,154.74L341.13,124.06L342.09,129.58L343.04,128.81L344,132.71L344.96,151.99L345.91,155.82L346.87,127.23L347.82,121.51L348.78,122.44L349.73,130.94L350.69,126.84L351.64,150.41L352.6,149.06L353.56,126.38L355.47,119.73L356.42,130.05L357.38,123.87L358.33,151.68L359.29,150.29L360.24,126.53L361.2,124.83L362.16,125.68L363.11,125.41L364.07,173.28L365.02,115.33L365.98,173.28L366.93,96.55L367.89,121.9L368.84,121.08L369.8,123.52L372.67,152.88L373.62,128.19L374.58,128.85L375.53,120.47L377.44,125.37L378.4,152.92L379.36,148.59L380.31,119.73L381.27,118.11L382.22,113.74L383.18,121.63L384.13,119.73L385.09,145.42L386.04,143.22L387.96,99.49L388.91,107.64L389.87,103.74L390.82,113.2L392.73,135.15L393.69,97.09L394.64,84.96L395.6,87.01L396.56,87.66L397.51,96.13L398.47,129.74L399.42,132.44L400.38,63.52L401.33,70.97L403.24,64.52L404.2,79.09L405.16,123.44L406.11,119.85L407.07,47.68L408.02,95.66L409.93,32.26L410.89,40.45L411.84,109.3L412.8,109.15L413.76,27.24L414.71,23.8L415.67,27.66L416.62,60.39L418.53,125.37L419.49,122.32L420.44,11.21L421.4,25.35L422.36,9.12L423.31,30.6L425.22,103.62L426.18,116.1L427.13,26.16L428.09,39.64L429.04,35.74L430,45.59L430.96,60.12L431.91,109.26L432.87,121.24L433.82,44.97L434.78,39.14L435.73,94.97L436.69,60.7L437.64,54.44L438.6,122.86L439.56,129.27L440.51,54.05L441.47,51.08L442.42,57.34L443.38,73.02L444.33,70.67L445.29,126.84L446.24,135.3L447.2,58.69L449.11,74.76L450.07,89.64L451.02,88.21L451.98,133.72L452.93,138.93L453.89,83.99L454.84,76.92L455.8,81.21L457.71,92.65L458.67,133.25L459.62,142.91L460.58,76.19L461.53,71.25L462.49,80.44L464.4,99.91L465.36,140.05L466.31,142.76L467.27,89.33L468.22,80.63L469.18,86.54L470.13,81.68L471.09,95.55L472.04,139.51L473,140.05L473.96,80.25L474.91,76.42L476.82,117.1L477.78,108.03L478.73,139.55L479.69,134.26L481.6,68.08L482.56,76.54L484.47,94.58L485.42,129.66L486.38,141.33L487.33,77.93L488.29,57.49L489.24,83.99L490.2,76.89L491.16,84.38L492.11,133.68L493.07,143.88L494.02,90.95L494.98,80.87L495.93,94.77L496.89,95.97L497.84,111.73L498.8,144.73L499.76,149.4L500.71,100.14L501.67,92.88L502.62,94.89L504.53,110.11L505.49,141.21L506.44,146.43L507.4,104.51L508.36,109.61L509.31,109.96L510.27,114.98L511.22,126.72L512.18,150.29L513.13,144.5L514.09,111.27L515.04,113.16L516,113.47L516.96,117.03L517.91,139.74L518.87,136.65L519.82,152.34L520.78,118.26L522.69,118.73L523.64,122.13L524.6,130.47L525.56,154.89L526.51,150.95L527.47,121.78L528.42,121.35L529.38,122.36L530.33,136.07L531.29,138.12L532.24,155.35L533.2,158.25L534.16,126.57L535.11,127.88L537.98,135.03L538.93,157.86L539.89,157.4L540.84,126.49L541.8,135.61L542.76,128.93L544.67,137.5L545.62,162.85L546.58,156.51L547.53,130.55L548.49,132.17L549.44,135.46L551.36,146.31L552.31,160.99L553.27,160.88L554.22,138.74L556.13,137.74L557.09,143.88L558.04,146.85L559,161.77L559.96,163L560.91,140.87L561.87,144.81L562.82,143.76L563.78,144.07L564.73,146.54L565.69,163L566.64,166.25L567.6,161.77L568.56,161.19L569.51,144.19L570.47,147.32L571.42,145.77L572.38,161.96L573.33,164.97L574.29,145.04L575.24,142.37L576.2,148.21L577.16,160.65L578.11,137.16L579.07,163.85L580.02,165.44L581.93,139.44L582.89,148.24L583.84,146.27L584.8,152.53L585.76,163.89L586.71,165.17L587.67,142.64L588.62,147.16L589.58,149.06L590.53,153.73L591.49,155.2L592.44,164.59L593.4,165.4L594.36,147.12L596.27,155.86L597.22,149.52L599.13,166.25L600.09,165.48L602,166.48" style="vector-effect: non-scaling-stroke; fill: none; stroke: rgb(255, 0, 0); stroke-opacity: 1; stroke-width: 2px; opacity: 1;"/></g><g class="points"/><g class="text"/></g></g></g><g class="overplot"/><path class="xlines-above crisp" style="fill: none;" d="M0,0"/><path class="ylines-above crisp" style="fill: none;" d="M0,0"/><g class="overlines-above"/><g class="xaxislayer-above"><g class="x2tick"><text text-anchor="middle" x="0" y="453" transform="translate(124.89,0)" style="font-family: 'Open Sans', verdana, arial, sans-serif; font-size: 12px; fill: rgb(68, 68, 68); fill-opacity: 1; white-space: pre;">Apr 2020</text></g><g class="x2tick"><text text-anchor="middle" x="0" y="453" transform="translate(211.84,0)" style="font-family: 'Open Sans', verdana, arial, sans-serif; font-size: 12px; fill: rgb(68, 68, 68); fill-opacity: 1; white-space: pre;">Jul 2020</text></g><g class="x2tick"><text text-anchor="middle" x="0" y="453" transform="translate(299.76,0)" style="font-family: 'Open Sans', verdana, arial, sans-serif; font-size: 12px; fill: rgb(68, 68, 68); fill-opacity: 1; white-space: pre;">Oct 2020</text></g><g class="x2tick"><text text-anchor="middle" x="0" y="453" transform="translate(387.67,0)" style="font-family: 'Open Sans', verdana, arial, sans-serif; font-size: 12px; fill: rgb(68, 68, 68); fill-opacity: 1; white-space: pre;">Jan 2021</text></g><g class="x2tick"><text text-anchor="middle" x="0" y="453" transform="translate(473.67,0)" style="font-family: 'Open Sans', verdana, arial, sans-serif; font-size: 12px; fill: rgb(68, 68, 68); fill-opacity: 1; white-space: pre;">Apr 2021</text></g><g class="x2tick"><text text-anchor="middle" x="0" y="453" transform="translate(560.62,0)" style="font-family: 'Open Sans', verdana, arial, sans-serif; font-size: 12px; fill: rgb(68, 68, 68); fill-opacity: 1; white-space: pre;">Jul 2021</text></g><g class="x2tick"><text text-anchor="middle" x="0" y="453" transform="translate(648.53,0)" style="font-family: 'Open Sans', verdana, arial, sans-serif; font-size: 12px; fill: rgb(68, 68, 68); fill-opacity: 1; white-space: pre;">Oct 2021</text></g></g><g class="yaxislayer-above"><g class="y2tick"><text text-anchor="end" x="57" y="4.199999999999999" transform="translate(0,430.88)" style="font-family: 'Open Sans', verdana, arial, sans-serif; font-size: 12px; fill: rgb(68, 68, 68); fill-opacity: 1; white-space: pre;">0</text></g><g class="y2tick"><text text-anchor="end" x="57" y="4.199999999999999" transform="translate(0,392.25)" style="font-family: 'Open Sans', verdana, arial, sans-serif; font-size: 12px; fill: rgb(68, 68, 68); fill-opacity: 1; white-space: pre;">1000</text></g><g class="y2tick"><text text-anchor="end" x="57" y="4.199999999999999" transform="translate(0,353.61)" style="font-family: 'Open Sans', verdana, arial, sans-serif; font-size: 12px; fill: rgb(68, 68, 68); fill-opacity: 1; white-space: pre;">2000</text></g><g class="y2tick"><text text-anchor="end" x="57" y="4.199999999999999" transform="translate(0,314.98)" style="font-family: 'Open Sans', verdana, arial, sans-serif; font-size: 12px; fill: rgb(68, 68, 68); fill-opacity: 1; white-space: pre;">3000</text></g><g class="y2tick"><text text-anchor="end" x="57" y="4.199999999999999" transform="translate(0,276.34000000000003)" style="font-family: 'Open Sans', verdana, arial, sans-serif; font-size: 12px; fill: rgb(68, 68, 68); fill-opacity: 1; white-space: pre;">4000</text></g></g><g class="overaxes-above"/></g></g><g class="polarlayer"/><g class="ternarylayer"/><g class="geolayer"/><g class="funnelarealayer"/><g class="pielayer"/><g class="treemaplayer"/><g class="sunburstlayer"/><g class="glimages"/><defs id="topdefs-fb9859"><g class="clips"/><clipPath id="legendfb9859"><rect width="108" height="48" x="0" y="0"/></clipPath></defs><g class="layer-above"><g class="imagelayer"/><g class="shapelayer"/></g><g class="infolayer"><g class="legend" pointer-events="all" transform="translate(88.1, 60)"><rect class="bg" shape-rendering="crispEdges" style="stroke: rgb(68, 68, 68); stroke-opacity: 1; fill: rgb(255, 255, 255); fill-opacity: 1; stroke-width: 0px;" width="108" height="48" x="0" y="0"/><g class="scrollbox" transform="translate(0, 0)" clip-path="url('#legendfb9859')"><g class="groups"><g class="traces" style="opacity: 1;" transform="translate(0, 14.5)"><text class="legendtext" text-anchor="start" x="40" y="4.680000000000001" style="font-family: 'Open Sans', verdana, arial, sans-serif; font-size: 12px; fill: rgb(68, 68, 68); fill-opacity: 1; white-space: pre;">Confirmed</text><g class="layers" style="opacity: 1;"><g class="legendfill"/><g class="legendlines"><path class="js-line" d="M5,0h30" style="fill: none; stroke: rgb(31, 119, 180); stroke-opacity: 1; stroke-width: 2px;"/></g><g class="legendsymbols"><g class="legendpoints"/></g></g><rect class="legendtoggle" x="0" y="-9.5" width="102.1875" height="19" style="fill: rgb(0, 0, 0); fill-opacity: 0;"/></g><g class="traces" style="opacity: 1;" transform="translate(0, 33.5)"><text class="legendtext" text-anchor="start" x="40" y="4.680000000000001" style="font-family: 'Open Sans', verdana, arial, sans-serif; font-size: 12px; fill: rgb(68, 68, 68); fill-opacity: 1; white-space: pre;">Death</text><g class="layers" style="opacity: 1;"><g class="legendfill"/><g class="legendlines"><path class="js-line" d="M5,0h30" style="fill: none; stroke: rgb(255, 0, 0); stroke-opacity: 1; stroke-width: 2px;"/></g><g class="legendsymbols"><g class="legendpoints"/></g></g><rect class="legendtoggle" x="0" y="-9.5" width="102.1875" height="19" style="fill: rgb(0, 0, 0); fill-opacity: 0;"/></g></g></g><rect class="scrollbar" rx="20" ry="3" width="0" height="0" style="fill: rgb(128, 139, 164); fill-opacity: 1;" x="0" y="0"/></g><g class="g-gtitle"><text class="gtitle" x="350" y="30" text-anchor="middle" dy="0em" style="font-family: 'Open Sans', verdana, arial, sans-serif; font-size: 17px; fill: rgb(68, 68, 68); opacity: 1; font-weight: normal; white-space: pre;">Brazil - Daily Confirmed and Death Cases</text></g><g class="g-xtitle"/><g class="g-x2title"><text class="x2title" x="359" y="492" text-anchor="middle" style="font-family: 'Open Sans', verdana, arial, sans-serif; font-size: 14px; fill: rgb(68, 68, 68); opacity: 1; font-weight: normal; white-space: pre;">Source: Johns Hopkins University Center for Systems Science and Engineering</text></g><g class="g-ytitle"><text class="ytitle" transform="rotate(-90,20,151.2)" x="20" y="151.2" text-anchor="middle" style="font-family: 'Open Sans', verdana, arial, sans-serif; font-size: 14px; fill: rgb(68, 68, 68); opacity: 1; font-weight: normal; white-space: pre;">Cases</text></g><g class="g-y2title"><text class="y2title" transform="rotate(-90,20,348.8)" x="20" y="348.8" text-anchor="middle" style="font-family: 'Open Sans', verdana, arial, sans-serif; font-size: 14px; fill: rgb(68, 68, 68); opacity: 1; font-weight: normal; white-space: pre;">Cases</text></g></g></svg>