<svg class="main-svg" xmlns="http://www.w3.org/2000/svg" xmlns:xlink="http://www.w3.org/1999/xlink" width="700" height="500" style="" viewBox="0 0 700 500"><rect x="0" y="0" width="700" height="500" style="fill: rgb(255, 255, 255); fill-opacity: 1;"/><defs id="defs-c50e8c"><g class="clips"><clipPath id="clipc50e8cxyplot" class="plotclip"><rect width="630" height="435"/></clipPath><clipPath class="axesclip" id="clipc50e8cx"><rect x="60" y="0" width="630" height="500"/></clipPath><clipPath class="axesclip" id="clipc50e8cy"><rect x="0" y="25" width="700" height="435"/></clipPath><clipPath class="axesclip" id="clipc50e8cxy"><rect x="60" y="25" width="630" height="435"/></clipPath></g><g class="gradients"/></defs><g class="bglayer"/><g class="layer-below"><g class="imagelayer"/><g class="shapelayer"/></g><g class="cartesianlayer"><g class="subplot xy"><g class="layer-subplot"><g class="shapelayer"/><g class="imagelayer"/></g><g class="gridlayer"><g class="x"><path class="xgrid crisp" transform="translate(133.13,0)" d="M0,25v435" style="stroke: rgb(238, 238, 238); stroke-opacity: 1; stroke-width: 1px;"/><path class="xgrid crisp" transform="translate(228.21,0)" d="M0,25v435" style="stroke: rgb(238, 238, 238); stroke-opacity: 1; stroke-width: 1px;"/><path class="xgrid crisp" transform="translate(324.33,0)" d="M0,25v435" style="stroke: rgb(238, 238, 238); stroke-opacity: 1; stroke-width: 1px;"/><path class="xgrid crisp" transform="translate(420.45,0)" d="M0,25v435" style="stroke: rgb(238, 238, 238); stroke-opacity: 1; stroke-width: 1px;"/><path class="xgrid crisp" transform="translate(514.48,0)" d="M0,25v435" style="stroke: rgb(238, 238, 238); stroke-opacity: 1; stroke-width: 1px;"/><path class="xgrid crisp" transform="translate(609.55,0)" d="M0,25v435" style="stroke: rgb(238, 238, 238); stroke-opacity: 1; stroke-width: 1px;"/></g><g class="y"><path class="ygrid crisp" transform="translate(0,356.85)" d="M60,0h630" style="stroke: rgb(238, 238, 238); stroke-opacity: 1; stroke-width: 1px;"/><path class="ygrid crisp" transform="translate(0,253.69)" d="M60,0h630" style="stroke: rgb(238, 238, 238); stroke-opacity: 1; stroke-width: 1px;"/><path class="ygrid crisp" transform="translate(0,150.54000000000002)" d="M60,0h630" style="stroke: rgb(238, 238, 238); stroke-opacity: 1; stroke-width: 1px;"/><path class="ygrid crisp" transform="translate(0,47.379999999999995)" d="M60,0h630" style="stroke: rgb(238, 238, 238); stroke-opacity: 1; stroke-width: 1px;"/></g></g><g class="zerolinelayer"><path class="yzl zl crisp" transform="translate(0,460)" d="M60,0h630" style="stroke: rgb(68, 68, 68); stroke-opacity: 1; stroke-width: 1px;"/></g><path class="xlines-below"/><path class="ylines-below"/><g class="overlines-below"/><g class="xaxislayer-below"/><g class="yaxislayer-below"/><g class="overaxes-below"/><g class="plot" transform="translate(60, 25)" clip-path="url('#clipc50e8cxyplot')"><g class="scatterlayer mlayer"><g class="trace scatter tracee7270b" style="stroke-miterlimit: 2;"><g class="fills"><g><path class="js-fill" d="M630,435L0,435L0,435L1.04,435L2.09,435L3.13,435L4.18,435L5.22,434.99L6.27,434.99L7.31,434.99L8.36,434.98L9.4,434.98L10.45,434.98L11.49,434.97L12.54,434.96L13.58,434.95L14.63,434.95L15.67,434.94L16.72,434.93L17.76,434.93L18.81,434.93L19.85,434.92L20.9,434.92L21.94,434.92L22.99,434.89L24.03,434.88L25.07,434.88L26.12,434.88L27.16,434.88L28.21,434.88L29.25,434.88L30.3,434.88L31.34,434.89L32.39,434.89L33.43,434.89L34.48,434.89L35.52,434.9L36.57,434.9L37.61,434.9L38.66,434.91L39.7,434.91L40.75,434.91L41.79,434.91L42.84,434.91L43.88,434.92L44.93,434.92L45.97,434.91L47.01,434.91L48.06,434.91L49.1,434.9L50.15,434.9L51.19,434.89L52.24,434.88L53.28,434.85L54.33,434.84L55.37,434.82L56.42,434.8L57.46,434.77L58.51,434.74L59.55,434.69L60.6,434.63L61.64,434.58L62.69,434.52L63.73,434.44L64.78,434.38L65.82,434.29L66.87,434.18L67.91,434.08L68.96,433.96L70,433.87L71.04,433.77L72.09,433.65L73.13,433.52L74.18,433.4L75.22,433.27L76.27,433.2L77.31,433.1L78.36,432.99L79.4,432.91L80.45,432.81L81.49,432.7L82.54,432.59L83.58,432.5L84.63,432.31L85.67,432.23L86.72,432.12L87.76,432.05L88.81,431.94L89.85,431.83L90.9,431.73L91.94,431.65L92.99,431.55L94.03,431.48L95.07,431.39L96.12,431.29L97.16,431.23L98.21,431.13L99.25,431.05L100.3,430.97L101.34,430.9L102.39,430.84L103.43,430.82L104.48,430.73L105.52,430.66L106.57,430.58L107.61,430.5L108.66,430.42L109.7,430.34L110.75,430.25L111.79,430.15L112.84,430.1L113.88,430.02L114.93,429.97L115.97,429.88L117.01,429.83L118.06,429.73L119.1,429.64L120.15,429.57L121.19,429.5L122.24,429.44L123.28,429.36L124.33,429.28L125.37,429.17L126.42,429.19L127.46,429.1L128.51,429.02L129.55,428.98L130.6,428.91L131.64,428.84L132.69,428.74L133.73,428.66L134.78,428.53L135.82,428.48L136.87,428.4L137.91,428.38L138.96,428.32L140,428.2L141.04,428.08L142.09,427.97L143.13,427.85L144.18,427.97L145.22,427.89L146.27,427.78L147.31,427.69L148.36,427.6L149.4,427.5L150.45,427.38L151.49,427.31L152.54,427.24L153.58,427.2L154.63,427.08L155.67,426.92L156.72,426.85L157.76,426.73L158.81,426.64L159.85,426.52L160.9,426.42L161.94,426.25L162.99,426.08L164.03,425.94L165.07,425.8L166.12,425.68L167.16,425.57L168.21,425.37L169.25,425.54L170.3,425.36L171.34,425.37L172.39,425.24L173.43,425.17L174.48,425.05L175.52,424.94L176.57,424.77L177.61,424.59L178.66,424.41L179.7,424.25L180.75,424.16L181.79,424L182.84,423.87L183.88,423.68L184.93,423.57L185.97,423.4L187.01,423.15L188.06,423.07L189.1,422.96L190.15,422.77L191.19,422.56L192.24,422.46L193.28,422.4L194.33,422.26L195.37,422.16L196.42,422.01L197.46,421.85L198.51,421.72L199.55,421.55L200.6,421.42L201.64,421.24L202.69,421.28L203.73,421.23L204.78,421.13L205.82,420.95L206.87,420.78L207.91,420.67L208.96,420.58L210,420.46L211.04,420.57L212.09,420.51L213.13,420.27L214.18,420.24L215.22,420.08L216.27,420.13L217.31,420.15L218.36,420.1L219.4,420L220.45,419.88L221.49,419.7L222.54,419.59L223.58,419.62L224.63,419.58L225.67,419.57L226.72,419.47L227.76,419.32L228.81,419.16L229.85,419.06L230.9,419.05L231.94,418.93L232.99,418.93L234.03,418.81L235.07,418.7L236.12,418.5L237.16,418.37L238.21,418.34L239.25,418.32L240.3,418.25L241.34,418.17L242.39,418.01L243.43,417.82L244.48,417.7L245.52,417.59L246.57,417.53L247.61,417.42L248.66,417.28L249.7,417.1L250.75,416.95L251.79,416.85L252.84,416.83L253.88,416.78L254.93,416.65L255.97,416.64L257.01,416.45L258.06,416.27L259.1,416.23L260.15,416.16L261.19,416.1L262.24,416.03L263.28,415.88L264.33,415.7L265.37,415.45L266.42,415.3L267.46,415.23L268.51,415.12L269.55,414.93L270.6,414.75L271.64,414.47L272.69,414.16L273.73,413.84L274.78,413.71L275.82,413.53L276.87,413.28L277.91,412.95L278.96,412.55L280,412.13L281.04,411.78L282.09,411.55L283.13,411.18L284.18,410.83L285.22,410.36L286.27,409.86L287.31,409.28L288.36,408.78L289.4,408.45L290.45,407.96L291.49,408.22L292.54,407.73L293.58,407.11L294.63,406.48L295.67,406.01L296.72,405.6L297.76,405.03L298.81,404.43L299.85,403.97L300.9,403.38L301.94,402.66L302.99,402.06L304.03,401.59L305.07,401.11L306.12,400.51L307.16,399.97L308.21,399.12L309.25,398.42L310.3,397.78L311.34,397.29L312.39,397.01L313.43,396.67L314.48,396.15L315.52,395.59L316.57,394.96L317.61,394.47L318.66,394.04L319.7,393.83L320.75,393.4L321.79,393.01L322.84,392.58L323.88,391.98L324.93,391.53L325.97,391.19L327.01,391L328.06,390.73L329.1,390.37L330.15,389.84L331.19,389.46L332.24,389.05L333.28,388.61L334.33,388.41L335.37,388.01L336.42,387.53L337.46,385.48L338.51,385.03L339.55,386.85L340.6,386.58L341.64,373.15L342.69,372.57L343.73,371.85L344.78,371.13L345.82,370.33L346.87,369.8L347.91,369.29L348.96,368.9L350,368.33L351.04,367.61L352.09,366.88L353.13,366.51L354.18,366.32L355.22,366.05L356.27,365.68L357.31,365.06L358.36,364.35L359.4,363.41L360.45,362.89L361.49,362.22L362.54,361.71L363.58,361.2L364.63,360.36L365.67,359.42L366.72,358.28L367.76,357.25L368.81,356.39L369.85,355.76L370.9,355.1L371.94,354.41L372.99,353.66L374.03,352.9L375.07,352L376.12,351.35L377.16,350.93L378.21,350.55L379.25,350.19L380.3,349.47L381.34,348.91L382.39,348.37L383.43,347.87L384.48,347.6L385.52,347.27L386.57,346.84L387.61,346.34L388.66,345.77L389.7,345.33L390.75,345.01L391.79,344.84L392.84,344.51L393.88,344.32L394.93,343.95L395.97,343.62L397.01,343.14L398.06,342.99L399.1,342.75L400.15,342.61L401.19,342.53L402.24,342.21L403.28,341.9L404.33,341.64L405.37,341.39L406.42,341.2L407.46,341.23L408.51,341.02L409.55,340.83L410.6,340.51L411.64,340.17L412.69,339.98L413.73,339.79L414.78,339.59L415.82,339.39L416.87,338.92L417.91,338.49L418.96,338.14L420,337.87L421.04,337.61L422.09,337.45L423.13,337.39L424.18,336.97L425.22,336.58L426.27,336.14L427.31,335.8L428.36,335.54L429.4,335.51L430.45,335.22L431.49,334.76L432.54,334.36L433.58,333.92L434.63,333.52L435.67,333.3L436.72,333.2L437.76,332.79L438.81,332.24L439.85,331.68L440.9,331.12L441.94,330.64L442.99,330.36L444.03,330.21L445.07,329.82L446.12,329.22L447.16,328.55L448.21,328L449.25,327.44L450.3,327.17L451.34,326.87L452.39,326.41L453.43,325.82L454.48,325.09L455.52,324.46L456.57,324.14L457.61,323.73L458.66,323.46L459.7,323L460.75,322.62L461.79,321.73L462.84,321.15L463.88,320.59L464.93,320.28L465.97,319.85L467.01,319.27L468.06,318.54L469.1,317.8L470.15,317.1L471.19,316.57L472.24,316.37L473.28,316.07L474.33,315.59L475.37,314.84L476.42,314.32L477.46,313.81L478.51,313.33L479.55,312.96L480.6,313L481.64,312.69L482.69,312.09L483.73,311.72L484.78,311.36L485.82,311.15L486.87,311.21L487.91,311.15L488.96,310.87L490,310.64L491.04,310.27L492.09,310.01L493.13,309.89L494.18,309.95L495.22,309.99L496.27,310.05L497.31,309.84L498.36,309.8L499.4,309.72L500.45,309.77L501.49,310.04L502.54,310.48L503.58,310.76L504.63,310.84L505.67,311.61L506.72,311.61L507.76,311.71L508.81,311.78L509.85,312.16L510.9,312.28L511.94,312.28L512.99,312.6L514.03,312.74L515.07,312.82L516.12,313.04L517.16,313.36L518.21,313.64L519.25,313.76L520.3,313.65L521.34,313.89L522.39,314.08L523.43,314.34L524.48,314.56L525.52,314.68L526.57,314.77L527.61,314.73L528.66,314.66L529.7,314.61L530.75,314.89L531.79,314.99L532.84,315.19L533.88,315.11L534.93,315.11L535.97,314.95L537.01,314.93L538.06,314.86L539.1,315.01L540.15,314.89L541.19,314.83L542.24,314.61L543.28,314.44L544.33,314.3L545.37,314.21L546.42,314.22L547.46,314.06L548.51,313.84L549.55,313.83L550.6,313.54L551.64,313.33L552.69,313.28L553.73,313.29L554.78,313.05L555.82,312.67L556.87,312.3L557.91,311.97L558.96,312.02L560,311.87L561.04,311.61L562.09,311.13L563.13,310.72L564.18,310.13L565.22,309.72L566.27,309.34L567.31,309.12L568.36,308.74L569.4,308.35L570.45,307.85L571.49,307.44L572.54,306.54L573.58,306.65L574.63,306.43L575.67,305.95L576.72,305.42L577.76,304.81L578.81,304.2L579.85,303.35L580.9,302.94L581.94,302.56L582.99,301.97L584.03,301.31L585.07,300.59L586.12,435L587.16,435L588.21,435L589.25,435L590.3,435L591.34,435L592.39,435L593.43,435L594.48,435L595.52,435L596.57,435L597.61,435L598.66,435L599.7,435L600.75,435L601.79,435L602.84,435L603.88,435L604.93,435L605.97,435L607.01,435L608.06,435L609.1,435L610.15,435L611.19,435L612.24,435L613.28,435L614.33,435L615.37,435L616.42,435L617.46,435L618.51,435L619.55,435L620.6,435L621.64,435L622.69,435L623.73,435L624.78,435L625.82,435L626.87,435L627.91,435L628.96,435L630,435" style="fill: rgb(31, 119, 180); fill-opacity: 1; stroke-width: 0;"/></g><g><path class="js-fill" d="M0,435L1.04,435L2.09,435L3.13,435L4.18,435L5.22,434.99L6.27,434.99L7.31,434.99L8.36,434.98L9.4,434.98L10.45,434.98L11.49,434.97L12.54,434.96L13.58,434.95L14.63,434.95L15.67,434.94L16.72,434.93L17.76,434.93L18.81,434.92L19.85,434.92L20.9,434.92L21.94,434.92L22.99,434.89L24.03,434.88L25.07,434.88L26.12,434.88L27.16,434.87L28.21,434.87L29.25,434.88L30.3,434.88L31.34,434.88L32.39,434.89L33.43,434.89L34.48,434.89L35.52,434.89L36.57,434.89L37.61,434.9L38.66,434.9L39.7,434.9L40.75,434.91L41.79,434.91L42.84,434.91L43.88,434.91L44.93,434.91L45.97,434.9L47.01,434.9L48.06,434.9L49.1,434.89L50.15,434.89L51.19,434.88L52.24,434.87L53.28,434.84L54.33,434.82L55.37,434.81L56.42,434.78L57.46,434.75L58.51,434.72L59.55,434.67L60.6,434.61L61.64,434.55L62.69,434.49L63.73,434.4L64.78,434.34L65.82,434.25L66.87,434.13L67.91,434.02L68.96,433.89L70,433.79L71.04,433.69L72.09,433.56L73.13,433.42L74.18,433.28L75.22,433.14L76.27,433.06L77.31,432.94L78.36,432.83L79.4,432.73L80.45,432.62L81.49,432.49L82.54,432.36L83.58,432.26L84.63,432.05L85.67,431.96L86.72,431.84L87.76,431.76L88.81,431.62L89.85,431.49L90.9,431.38L91.94,431.29L92.99,431.18L94.03,431.1L95.07,430.99L96.12,430.88L97.16,430.81L98.21,430.69L99.25,430.61L100.3,430.52L101.34,430.43L102.39,430.36L103.43,430.32L104.48,430.22L105.52,430.14L106.57,430.05L107.61,429.96L108.66,429.87L109.7,429.78L110.75,429.68L111.79,429.57L112.84,429.5L113.88,429.42L114.93,429.35L115.97,429.26L117.01,429.2L118.06,429.08L119.1,428.98L120.15,428.9L121.19,428.83L122.24,428.75L123.28,428.66L124.33,428.57L125.37,428.46L126.42,428.46L127.46,428.36L128.51,428.28L129.55,428.23L130.6,428.15L131.64,428.07L132.69,427.96L133.73,427.87L134.78,427.73L135.82,427.67L136.87,427.59L137.91,427.55L138.96,427.48L140,427.35L141.04,427.23L142.09,427.1L143.13,426.98L144.18,427.08L145.22,427L146.27,426.88L147.31,426.77L148.36,426.67L149.4,426.57L150.45,426.44L151.49,426.36L152.54,426.27L153.58,426.22L154.63,426.1L155.67,425.92L156.72,425.84L157.76,425.71L158.81,425.62L159.85,425.49L160.9,425.37L161.94,425.19L162.99,425.01L164.03,424.87L165.07,424.71L166.12,424.59L167.16,424.47L168.21,424.26L169.25,424.41L170.3,424.22L171.34,424.22L172.39,424.08L173.43,424L174.48,423.87L175.52,423.75L176.57,423.57L177.61,423.37L178.66,423.19L179.7,423.02L180.75,422.91L181.79,422.75L182.84,422.6L183.88,422.4L184.93,422.28L185.97,422.1L187.01,421.84L188.06,421.74L189.1,421.62L190.15,421.41L191.19,421.19L192.24,421.08L193.28,421.01L194.33,420.86L195.37,420.75L196.42,420.58L197.46,420.41L198.51,420.27L199.55,420.08L200.6,419.94L201.64,419.74L202.69,419.78L203.73,419.71L204.78,419.6L205.82,419.4L206.87,419.22L207.91,419.09L208.96,418.99L210,418.87L211.04,418.96L212.09,418.89L213.13,418.63L214.18,418.59L215.22,418.42L216.27,418.46L217.31,418.47L218.36,418.41L219.4,418.29L220.45,418.15L221.49,417.96L222.54,417.85L223.58,417.87L224.63,417.82L225.67,417.79L226.72,417.67L227.76,417.51L228.81,417.34L229.85,417.23L230.9,417.21L231.94,417.08L232.99,417.07L234.03,416.94L235.07,416.81L236.12,416.6L237.16,416.46L238.21,416.42L239.25,416.38L240.3,416.3L241.34,416.21L242.39,416.04L243.43,415.83L244.48,415.7L245.52,415.59L246.57,415.52L247.61,415.4L248.66,415.24L249.7,415.05L250.75,414.89L251.79,414.78L252.84,414.74L253.88,414.68L254.93,414.55L255.97,414.52L257.01,414.32L258.06,414.13L259.1,414.08L260.15,414L261.19,413.93L262.24,413.85L263.28,413.69L264.33,413.49L265.37,413.23L266.42,413.07L267.46,412.99L268.51,412.86L269.55,412.66L270.6,412.47L271.64,412.17L272.69,411.85L273.73,411.52L274.78,411.38L275.82,411.2L276.87,410.94L277.91,410.59L278.96,410.17L280,409.74L281.04,409.38L282.09,409.14L283.13,408.76L284.18,408.4L285.22,407.92L286.27,407.41L287.31,406.81L288.36,406.3L289.4,405.96L290.45,405.46L291.49,405.7L292.54,405.19L293.58,404.57L294.63,403.92L295.67,403.44L296.72,403.01L297.76,402.43L298.81,401.81L299.85,401.33L300.9,400.72L301.94,399.99L302.99,399.36L304.03,398.89L305.07,398.39L306.12,397.77L307.16,397.21L308.21,396.34L309.25,395.62L310.3,394.96L311.34,394.45L312.39,394.16L313.43,393.79L314.48,393.25L315.52,392.67L316.57,392.02L317.61,391.5L318.66,391.06L319.7,390.83L320.75,390.38L321.79,389.96L322.84,389.51L323.88,388.89L324.93,388.42L325.97,388.06L327.01,387.85L328.06,387.56L329.1,387.17L330.15,386.61L331.19,386.21L332.24,385.78L333.28,385.32L334.33,385.11L335.37,384.68L336.42,384.18L337.46,382.09L338.51,381.62L339.55,383.41L340.6,383.14L341.64,369.68L342.69,369.08L343.73,368.33L344.78,367.58L345.82,366.75L346.87,366.2L347.91,365.67L348.96,365.27L350,364.67L351.04,363.91L352.09,363.16L353.13,362.78L354.18,362.57L355.22,362.28L356.27,361.89L357.31,361.24L358.36,360.5L359.4,359.53L360.45,358.99L361.49,358.3L362.54,357.78L363.58,357.24L364.63,356.37L365.67,355.4L366.72,354.23L367.76,353.17L368.81,352.29L369.85,351.63L370.9,350.96L371.94,350.23L372.99,349.44L374.03,348.65L375.07,347.72L376.12,347.04L377.16,346.61L378.21,346.21L379.25,345.81L380.3,345.05L381.34,344.45L382.39,343.88L383.43,343.36L384.48,343.07L385.52,342.71L386.57,342.25L387.61,341.71L388.66,341.1L389.7,340.63L390.75,340.29L391.79,340.09L392.84,339.74L393.88,339.52L394.93,339.13L395.97,338.77L397.01,338.25L398.06,338.08L399.1,337.82L400.15,337.66L401.19,337.55L402.24,337.2L403.28,336.86L404.33,336.57L405.37,336.31L406.42,336.1L407.46,336.11L408.51,335.88L409.55,335.67L410.6,335.32L411.64,334.96L412.69,334.75L413.73,334.54L414.78,334.33L415.82,334.1L416.87,333.62L417.91,333.16L418.96,332.78L420,332.49L421.04,332.23L422.09,332.05L423.13,331.96L424.18,331.53L425.22,331.11L426.27,330.65L427.31,330.29L428.36,330.02L429.4,329.97L430.45,329.66L431.49,329.18L432.54,328.76L433.58,328.31L434.63,327.89L435.67,327.65L436.72,327.53L437.76,327.11L438.81,326.54L439.85,325.95L440.9,325.37L441.94,324.87L442.99,324.57L444.03,324.4L445.07,323.99L446.12,323.37L447.16,322.67L448.21,322.1L449.25,321.52L450.3,321.23L451.34,320.92L452.39,320.43L453.43,319.81L454.48,319.06L455.52,318.41L456.57,318.07L457.61,317.64L458.66,317.36L459.7,316.87L460.75,316.46L461.79,315.54L462.84,314.93L463.88,314.35L464.93,314.02L465.97,313.57L467.01,312.96L468.06,312.2L469.1,311.43L470.15,310.7L471.19,310.15L472.24,309.93L473.28,309.6L474.33,309.09L475.37,308.31L476.42,307.77L477.46,307.22L478.51,306.72L479.55,306.33L480.6,306.34L481.64,306L482.69,305.36L483.73,304.97L484.78,304.57L485.82,304.33L486.87,304.37L487.91,304.3L488.96,303.99L490,303.72L491.04,303.32L492.09,303.04L493.13,302.88L494.18,302.92L495.22,302.94L496.27,302.97L497.31,302.74L498.36,302.66L499.4,302.56L500.45,302.58L501.49,302.83L502.54,303.25L503.58,303.5L504.63,303.55L505.67,304.29L506.72,304.27L507.76,304.35L508.81,304.4L509.85,304.76L510.9,304.85L511.94,304.82L512.99,305.12L514.03,305.23L515.07,305.28L516.12,305.49L517.16,305.8L518.21,306.05L519.25,306.13L520.3,306.01L521.34,306.23L522.39,306.39L523.43,306.64L524.48,306.84L525.52,306.94L526.57,307.01L527.61,306.94L528.66,306.84L529.7,306.77L530.75,307.03L531.79,307.12L532.84,307.3L533.88,307.2L534.93,307.17L535.97,306.99L537.01,306.96L538.06,306.88L539.1,307.01L540.15,306.87L541.19,306.79L542.24,306.55L543.28,306.36L544.33,306.21L545.37,306.11L546.42,306.1L547.46,305.93L548.51,305.69L549.55,305.66L550.6,305.35L551.64,305.13L552.69,305.07L553.73,305.06L554.78,304.8L555.82,304.4L556.87,304.01L557.91,303.67L558.96,303.7L560,303.54L561.04,303.26L562.09,302.77L563.13,302.34L564.18,301.73L565.22,301.31L566.27,300.91L567.31,300.67L568.36,300.28L569.4,299.85L570.45,299.33L571.49,298.9L572.54,297.98L573.58,298.08L574.63,297.84L575.67,297.34L576.72,296.79L577.76,296.16L578.81,295.53L579.85,294.66L580.9,294.23L581.94,293.84L582.99,293.23L584.03,292.55L585.07,291.81L586.12,426.19L587.16,426.17L588.21,426.16L589.25,426.14L590.3,426.12L591.34,426.1L592.39,426.08L593.43,426.05L594.48,426.03L595.52,426.02L596.57,426L597.61,425.98L598.66,425.96L599.7,425.94L600.75,425.91L601.79,425.89L602.84,425.87L603.88,425.86L604.93,425.84L605.97,425.81L607.01,425.79L608.06,425.77L609.1,425.74L610.15,425.73L611.19,425.71L612.24,425.69L613.28,425.67L614.33,425.65L615.37,425.63L616.42,425.6L617.46,425.59L618.51,425.57L619.55,425.56L620.6,425.54L621.64,425.52L622.69,425.49L623.73,425.48L624.78,425.46L625.82,425.45L626.87,425.43L627.91,425.41L628.96,425.39L630,425.36L630,435L628.96,435L627.91,435L626.87,435L625.82,435L624.78,435L623.73,435L622.69,435L621.64,435L620.6,435L619.55,435L618.51,435L617.46,435L616.42,435L615.37,435L614.33,435L613.28,435L612.24,435L611.19,435L610.15,435L609.1,435L608.06,435L607.01,435L605.97,435L604.93,435L603.88,435L602.84,435L601.79,435L600.75,435L599.7,435L598.66,435L597.61,435L596.57,435L595.52,435L594.48,435L593.43,435L592.39,435L591.34,435L590.3,435L589.25,435L588.21,435L587.16,435L586.12,435L585.07,300.59L584.03,301.31L582.99,301.97L581.94,302.56L580.9,302.94L579.85,303.35L578.81,304.2L577.76,304.81L576.72,305.42L575.67,305.95L574.63,306.43L573.58,306.65L572.54,306.54L571.49,307.44L570.45,307.85L569.4,308.35L568.36,308.74L567.31,309.12L566.27,309.34L565.22,309.72L564.18,310.13L563.13,310.72L562.09,311.13L561.04,311.61L560,311.87L558.96,312.02L557.91,311.97L556.87,312.3L555.82,312.67L554.78,313.05L553.73,313.29L552.69,313.28L551.64,313.33L550.6,313.54L549.55,313.83L548.51,313.84L547.46,314.06L546.42,314.22L545.37,314.21L544.33,314.3L543.28,314.44L542.24,314.61L541.19,314.83L540.15,314.89L539.1,315.01L538.06,314.86L537.01,314.93L535.97,314.95L534.93,315.11L533.88,315.11L532.84,315.19L531.79,314.99L530.75,314.89L529.7,314.61L528.66,314.66L527.61,314.73L526.57,314.77L525.52,314.68L524.48,314.56L523.43,314.34L522.39,314.08L521.34,313.89L520.3,313.65L519.25,313.76L518.21,313.64L517.16,313.36L516.12,313.04L515.07,312.82L514.03,312.74L512.99,312.6L511.94,312.28L510.9,312.28L509.85,312.16L508.81,311.78L507.76,311.71L506.72,311.61L505.67,311.61L504.63,310.84L503.58,310.76L502.54,310.48L501.49,310.04L500.45,309.77L499.4,309.72L498.36,309.8L497.31,309.84L496.27,310.05L495.22,309.99L494.18,309.95L493.13,309.89L492.09,310.01L491.04,310.27L490,310.64L488.96,310.87L487.91,311.15L486.87,311.21L485.82,311.15L484.78,311.36L483.73,311.72L482.69,312.09L481.64,312.69L480.6,313L479.55,312.96L478.51,313.33L477.46,313.81L476.42,314.32L475.37,314.84L474.33,315.59L473.28,316.07L472.24,316.37L471.19,316.57L470.15,317.1L469.1,317.8L468.06,318.54L467.01,319.27L465.97,319.85L464.93,320.28L463.88,320.59L462.84,321.15L461.79,321.73L460.75,322.62L459.7,323L458.66,323.46L457.61,323.73L456.57,324.14L455.52,324.46L454.48,325.09L453.43,325.82L452.39,326.41L451.34,326.87L450.3,327.17L449.25,327.44L448.21,328L447.16,328.55L446.12,329.22L445.07,329.82L444.03,330.21L442.99,330.36L441.94,330.64L440.9,331.12L439.85,331.68L438.81,332.24L437.76,332.79L436.72,333.2L435.67,333.3L434.63,333.52L433.58,333.92L432.54,334.36L431.49,334.76L430.45,335.22L429.4,335.51L428.36,335.54L427.31,335.8L426.27,336.14L425.22,336.58L424.18,336.97L423.13,337.39L422.09,337.45L421.04,337.61L420,337.87L418.96,338.14L417.91,338.49L416.87,338.92L415.82,339.39L414.78,339.59L413.73,339.79L412.69,339.98L411.64,340.17L410.6,340.51L409.55,340.83L408.51,341.02L407.46,341.23L406.42,341.2L405.37,341.39L404.33,341.64L403.28,341.9L402.24,342.21L401.19,342.53L400.15,342.61L399.1,342.75L398.06,342.99L397.01,343.14L395.97,343.62L394.93,343.95L393.88,344.32L392.84,344.51L391.79,344.84L390.75,345.01L389.7,345.33L388.66,345.77L387.61,346.34L386.57,346.84L385.52,347.27L384.48,347.6L383.43,347.87L382.39,348.37L381.34,348.91L380.3,349.47L379.25,350.19L378.21,350.55L377.16,350.93L376.12,351.35L375.07,352L374.03,352.9L372.99,353.66L371.94,354.41L370.9,355.1L369.85,355.76L368.81,356.39L367.76,357.25L366.72,358.28L365.67,359.42L364.63,360.36L363.58,361.2L362.54,361.71L361.49,362.22L360.45,362.89L359.4,363.41L358.36,364.35L357.31,365.06L356.27,365.68L355.22,366.05L354.18,366.32L353.13,366.51L352.09,366.88L351.04,367.61L350,368.33L348.96,368.9L347.91,369.29L346.87,369.8L345.82,370.33L344.78,371.13L343.73,371.85L342.69,372.57L341.64,373.15L340.6,386.58L339.55,386.85L338.51,385.03L337.46,385.48L336.42,387.53L335.37,388.01L334.33,388.41L333.28,388.61L332.24,389.05L331.19,389.46L330.15,389.84L329.1,390.37L328.06,390.73L327.01,391L325.97,391.19L324.93,391.53L323.88,391.98L322.84,392.58L321.79,393.01L320.75,393.4L319.7,393.83L318.66,394.04L317.61,394.47L316.57,394.96L315.52,395.59L314.48,396.15L313.43,396.67L312.39,397.01L311.34,397.29L310.3,397.78L309.25,398.42L308.21,399.12L307.16,399.97L306.12,400.51L305.07,401.11L304.03,401.59L302.99,402.06L301.94,402.66L300.9,403.38L299.85,403.97L298.81,404.43L297.76,405.03L296.72,405.6L295.67,406.01L294.63,406.48L293.58,407.11L292.54,407.73L291.49,408.22L290.45,407.96L289.4,408.45L288.36,408.78L287.31,409.28L286.27,409.86L285.22,410.36L284.18,410.83L283.13,411.18L282.09,411.55L281.04,411.78L280,412.13L278.96,412.55L277.91,412.95L276.87,413.28L275.82,413.53L274.78,413.71L273.73,413.84L272.69,414.16L271.64,414.47L270.6,414.75L269.55,414.93L268.51,415.12L267.46,415.23L266.42,415.3L265.37,415.45L264.33,415.7L263.28,415.88L262.24,416.03L261.19,416.1L260.15,416.16L259.1,416.23L258.06,416.27L257.01,416.45L255.97,416.64L254.93,416.65L253.88,416.78L252.84,416.83L251.79,416.85L250.75,416.95L249.7,417.1L248.66,417.28L247.61,417.42L246.57,417.53L245.52,417.59L244.48,417.7L243.43,417.82L242.39,418.01L241.34,418.17L240.3,418.25L239.25,418.32L238.21,418.34L237.16,418.37L236.12,418.5L235.07,418.7L234.03,418.81L232.99,418.93L231.94,418.93L230.9,419.05L229.85,419.06L228.81,419.16L227.76,419.32L226.72,419.47L225.67,419.57L224.63,419.58L223.58,419.62L222.54,419.59L221.49,419.7L220.45,419.88L219.4,420L218.36,420.1L217.31,420.15L216.27,420.13L215.22,420.08L214.18,420.24L213.13,420.27L212.09,420.51L211.04,420.57L210,420.46L208.96,420.58L207.91,420.67L206.87,420.78L205.82,420.95L204.78,421.13L203.73,421.23L202.69,421.28L201.64,421.24L200.6,421.42L199.55,421.55L198.51,421.72L197.46,421.85L196.42,422.01L195.37,422.16L194.33,422.26L193.28,422.4L192.24,422.46L191.19,422.56L190.15,422.77L189.1,422.96L188.06,423.07L187.01,423.15L185.97,423.4L184.93,423.57L183.88,423.68L182.84,423.87L181.79,424L180.75,424.16L179.7,424.25L178.66,424.41L177.61,424.59L176.57,424.77L175.52,424.94L174.48,425.05L173.43,425.17L172.39,425.24L171.34,425.37L170.3,425.36L169.25,425.54L168.21,425.37L167.16,425.57L166.12,425.68L165.07,425.8L164.03,425.94L162.99,426.08L161.94,426.25L160.9,426.42L159.85,426.52L158.81,426.64L157.76,426.73L156.72,426.85L155.67,426.92L154.63,427.08L153.58,427.2L152.54,427.24L151.49,427.31L150.45,427.38L149.4,427.5L148.36,427.6L147.31,427.69L146.27,427.78L145.22,427.89L144.18,427.97L143.13,427.85L142.09,427.97L141.04,428.08L140,428.2L138.96,428.32L137.91,428.38L136.87,428.4L135.82,428.48L134.78,428.53L133.73,428.66L132.69,428.74L131.64,428.84L130.6,428.91L129.55,428.98L128.51,429.02L127.46,429.1L126.42,429.19L125.37,429.17L124.33,429.28L123.28,429.36L122.24,429.44L121.19,429.5L120.15,429.57L119.1,429.64L118.06,429.73L117.01,429.83L115.97,429.88L114.93,429.97L113.88,430.02L112.84,430.1L111.79,430.15L110.75,430.25L109.7,430.34L108.66,430.42L107.61,430.5L106.57,430.58L105.52,430.66L104.48,430.73L103.43,430.82L102.39,430.84L101.34,430.9L100.3,430.97L99.25,431.05L98.21,431.13L97.16,431.23L96.12,431.29L95.07,431.39L94.03,431.48L92.99,431.55L91.94,431.65L90.9,431.73L89.85,431.83L88.81,431.94L87.76,432.05L86.72,432.12L85.67,432.23L84.63,432.31L83.58,432.5L82.54,432.59L81.49,432.7L80.45,432.81L79.4,432.91L78.36,432.99L77.31,433.1L76.27,433.2L75.22,433.27L74.18,433.4L73.13,433.52L72.09,433.65L71.04,433.77L70,433.87L68.96,433.96L67.91,434.08L66.87,434.18L65.82,434.29L64.78,434.38L63.73,434.44L62.69,434.52L61.64,434.58L60.6,434.63L59.55,434.69L58.51,434.74L57.46,434.77L56.42,434.8L55.37,434.82L54.33,434.84L53.28,434.85L52.24,434.88L51.19,434.89L50.15,434.9L49.1,434.9L48.06,434.91L47.01,434.91L45.97,434.91L44.93,434.92L43.88,434.92L42.84,434.91L41.79,434.91L40.75,434.91L39.7,434.91L38.66,434.91L37.61,434.9L36.57,434.9L35.52,434.9L34.48,434.89L33.43,434.89L32.39,434.89L31.34,434.89L30.3,434.88L29.25,434.88L28.21,434.88L27.16,434.88L26.12,434.88L25.07,434.88L24.03,434.88L22.99,434.89L21.94,434.92L20.9,434.92L19.85,434.92L18.81,434.93L17.76,434.93L16.72,434.93L15.67,434.94L14.63,434.95L13.58,434.95L12.54,434.96L11.49,434.97L10.45,434.98L9.4,434.98L8.36,434.98L7.31,434.99L6.27,434.99L5.22,434.99L4.18,435L3.13,435L2.09,435L1.04,435L0,435Z" style="fill: rgb(228, 19, 23); fill-opacity: 1; stroke-width: 0;"/></g></g><g class="errorbars"/><g class="lines"/><g class="points"/><g class="text"/></g><g class="trace scatter traceb16487" style="stroke-miterlimit: 2;"><g class="fills"><g><path class="js-fill" d="M0,435L1.04,435L2.09,435L3.13,435L4.18,435L5.22,434.99L6.27,434.99L7.31,434.99L8.36,434.98L9.4,434.98L10.45,434.98L11.49,434.97L12.54,434.96L13.58,434.95L14.63,434.94L15.67,434.94L16.72,434.93L17.76,434.92L18.81,434.92L19.85,434.91L20.9,434.91L21.94,434.91L22.99,434.88L24.03,434.86L25.07,434.86L26.12,434.85L27.16,434.85L28.21,434.84L29.25,434.84L30.3,434.84L31.34,434.84L32.39,434.84L33.43,434.84L34.48,434.84L35.52,434.83L36.57,434.83L37.61,434.83L38.66,434.83L39.7,434.82L40.75,434.82L41.79,434.81L42.84,434.81L43.88,434.8L44.93,434.8L45.97,434.79L47.01,434.78L48.06,434.77L49.1,434.76L50.15,434.75L51.19,434.74L52.24,434.73L53.28,434.7L54.33,434.67L55.37,434.65L56.42,434.62L57.46,434.59L58.51,434.55L59.55,434.49L60.6,434.43L61.64,434.36L62.69,434.29L63.73,434.2L64.78,434.12L65.82,434.01L66.87,433.88L67.91,433.75L68.96,433.6L70,433.49L71.04,433.35L72.09,433.19L73.13,433.02L74.18,432.85L75.22,432.68L76.27,432.55L77.31,432.41L78.36,432.26L79.4,432.11L80.45,431.94L81.49,431.76L82.54,431.58L83.58,431.43L84.63,431.18L85.67,431.04L86.72,430.86L87.76,430.7L88.81,430.51L89.85,430.32L90.9,430.17L91.94,430.01L92.99,429.85L94.03,429.69L95.07,429.53L96.12,429.35L97.16,429.18L98.21,429.01L99.25,428.86L100.3,428.72L101.34,428.56L102.39,428.4L103.43,428.23L104.48,428.05L105.52,427.88L106.57,427.73L107.61,427.57L108.66,427.4L109.7,427.22L110.75,427.03L111.79,426.85L112.84,426.67L113.88,426.52L114.93,426.36L115.97,426.18L117.01,426.01L118.06,425.81L119.1,425.61L120.15,425.42L121.19,425.26L122.24,425.07L123.28,424.87L124.33,424.66L125.37,424.44L126.42,424.22L127.46,424.01L128.51,423.81L129.55,423.63L130.6,423.44L131.64,423.23L132.69,422.98L133.73,422.73L134.78,422.45L135.82,422.23L136.87,422.03L137.91,421.78L138.96,421.55L140,421.28L141.04,421.01L142.09,420.73L143.13,420.5L144.18,420.29L145.22,420.03L146.27,419.75L147.31,419.47L148.36,419.2L149.4,418.92L150.45,418.65L151.49,418.41L152.54,418.11L153.58,417.82L154.63,417.53L155.67,417.15L156.72,416.83L157.76,416.56L158.81,416.28L159.85,415.93L160.9,415.58L161.94,415.21L162.99,414.81L164.03,414.44L165.07,414.1L166.12,413.79L167.16,413.42L168.21,412.97L169.25,412.54L170.3,412.12L171.34,411.72L172.39,411.34L173.43,411L174.48,410.57L175.52,410.13L176.57,409.66L177.61,409.18L178.66,408.73L179.7,408.33L180.75,407.94L181.79,407.48L182.84,407.01L183.88,406.49L184.93,405.99L185.97,405.5L187.01,405.06L188.06,404.63L189.1,404.15L190.15,403.57L191.19,402.99L192.24,402.41L193.28,401.88L194.33,401.44L195.37,400.97L196.42,400.45L197.46,399.86L198.51,399.28L199.55,398.68L200.6,398.16L201.64,397.69L202.69,397.26L203.73,396.74L204.78,396.16L205.82,395.58L206.87,394.99L207.91,394.46L208.96,393.99L210,393.53L211.04,392.99L212.09,392.42L213.13,391.83L214.18,391.2L215.22,390.68L216.27,390.24L217.31,389.81L218.36,389.28L219.4,388.71L220.45,388.15L221.49,387.61L222.54,387.06L223.58,386.64L224.63,386.18L225.67,385.67L226.72,385.09L227.76,384.5L228.81,383.92L229.85,383.37L230.9,382.91L231.94,382.38L232.99,381.83L234.03,381.24L235.07,380.66L236.12,380.01L237.16,379.46L238.21,378.98L239.25,378.53L240.3,378.04L241.34,377.45L242.39,376.83L243.43,376.16L244.48,375.57L245.52,375.07L246.57,374.53L247.61,373.94L248.66,373.31L249.7,372.66L250.75,371.99L251.79,371.39L252.84,370.86L253.88,370.3L254.93,369.71L255.97,369.14L257.01,368.41L258.06,367.73L259.1,367.13L260.15,366.61L261.19,366.09L262.24,365.5L263.28,364.83L264.33,364.17L265.37,363.56L266.42,362.87L267.46,362.33L268.51,361.72L269.55,361.04L270.6,360.32L271.64,359.57L272.69,358.83L273.73,358.09L274.78,357.49L275.82,356.89L276.87,356.24L277.91,355.45L278.96,354.61L280,353.76L281.04,352.99L282.09,352.33L283.13,351.54L284.18,350.73L285.22,349.82L286.27,348.84L287.31,347.82L288.36,346.87L289.4,346.13L290.45,345.13L291.49,344.15L292.54,343.1L293.58,341.96L294.63,340.78L295.67,339.8L296.72,338.84L297.76,337.69L298.81,336.54L299.85,335.49L300.9,334.25L301.94,332.92L302.99,331.68L304.03,330.69L305.07,329.65L306.12,328.5L307.16,327.16L308.21,325.82L309.25,324.48L310.3,323.24L311.34,322.26L312.39,321.17L313.43,319.91L314.48,318.61L315.52,317.26L316.57,315.88L317.61,314.66L318.66,313.66L319.7,312.57L320.75,311.35L321.79,310.04L322.84,308.83L323.88,307.42L324.93,306.2L325.97,305.19L327.01,304.15L328.06,302.88L329.1,301.53L330.15,300.1L331.19,298.68L332.24,297.35L333.28,296.24L334.33,295.17L335.37,293.83L336.42,292.45L337.46,289.36L338.51,287.9L339.55,286.59L340.6,285.49L341.64,284.39L342.69,283.06L343.73,281.55L344.78,280.03L345.82,278.55L346.87,277.27L347.91,276.18L348.96,275.06L350,273.71L351.04,272.29L352.09,270.89L353.13,269.9L354.18,268.85L355.22,267.96L356.27,266.95L357.31,265.58L358.36,264.03L359.4,262.45L360.45,261.28L361.49,260.07L362.54,258.99L363.58,257.86L364.63,256.34L365.67,254.72L366.72,252.88L367.76,251.21L368.81,249.64L369.85,248.43L370.9,247.16L371.94,245.72L372.99,244.18L374.03,242.61L375.07,241.02L376.12,239.69L377.16,238.6L378.21,237.55L379.25,236.31L380.3,234.88L381.34,233.53L382.39,232.17L383.43,230.99L384.48,230.06L385.52,229.05L386.57,227.91L387.61,226.68L388.66,225.41L389.7,224.19L390.75,223.13L391.79,222.33L392.84,221.42L393.88,220.48L394.93,219.4L395.97,218.44L397.01,217.34L398.06,216.56L399.1,215.73L400.15,215.09L401.19,214.21L402.24,213.31L403.28,212.4L404.33,211.51L405.37,210.74L406.42,210.13L407.46,209.55L408.51,208.83L409.55,208.01L410.6,207.18L411.64,206.33L412.69,205.56L413.73,204.91L414.78,204.32L415.82,203.52L416.87,202.6L417.91,201.68L418.96,200.76L420,199.96L421.04,199.33L422.09,198.7L423.13,198.06L424.18,197.15L425.22,196.22L426.27,195.29L427.31,194.45L428.36,193.68L429.4,193.07L430.45,192.22L431.49,191.25L432.54,190.27L433.58,189.26L434.63,188.32L435.67,187.58L436.72,186.86L437.76,185.88L438.81,184.77L439.85,183.63L440.9,182.47L441.94,181.44L442.99,180.56L444.03,179.7L445.07,178.64L446.12,177.34L447.16,175.99L448.21,174.67L449.25,173.46L450.3,172.49L451.34,171.54L452.39,170.37L453.43,168.96L454.48,167.49L455.52,166.18L456.57,165.09L457.61,163.95L458.66,162.94L459.7,161.7L460.75,160.28L461.79,158.55L462.84,157L463.88,155.63L464.93,154.2L465.97,152.94L467.01,151.33L468.06,149.64L469.1,147.96L470.15,146.19L471.19,144.57L472.24,143.15L473.28,141.72L474.33,139.96L475.37,138.12L476.42,136.27L477.46,134.4L478.51,132.71L479.55,131.22L480.6,129.81L481.64,128.07L482.69,126.2L483.73,124.35L484.78,122.53L485.82,120.89L486.87,119.49L487.91,118.09L488.96,116.43L490,114.69L491.04,112.89L492.09,111.17L493.13,109.55L494.18,108.23L495.22,106.95L496.27,105.43L497.31,103.86L498.36,102.36L499.4,100.88L500.45,99.58L501.49,98.45L502.54,97.34L503.58,96.05L504.63,94.67L505.67,94.09L506.72,92.8L507.76,91.6L508.81,90.62L509.85,89.69L510.9,88.59L511.94,87.41L512.99,86.27L514.03,85.24L515.07,84.24L516.12,83.43L517.16,82.65L518.21,81.7L519.25,80.7L520.3,79.69L521.34,78.82L522.39,78L523.43,77.33L524.48,76.67L525.52,75.91L526.57,75.05L527.61,74.12L528.66,73.25L529.7,72.48L530.75,71.86L531.79,71.22L532.84,70.46L533.88,69.63L534.93,68.82L535.97,67.98L537.01,67.26L538.06,66.64L539.1,66.03L540.15,65.27L541.19,64.36L542.24,63.53L543.28,62.66L544.33,61.9L545.37,61.26L546.42,60.58L547.46,59.8L548.51,58.98L549.55,58.07L550.6,57.16L551.64,56.38L552.69,55.71L553.73,54.94L554.78,54.01L555.82,53.05L556.87,52.06L557.91,51.01L558.96,50.13L560,49.37L561.04,48.47L562.09,47.4L563.13,46.28L564.18,45.1L565.22,43.86L566.27,42.89L567.31,42L568.36,40.98L569.4,39.88L570.45,38.73L571.49,37.56L572.54,36.14L573.58,35.17L574.63,34.25L575.67,33.13L576.72,31.88L577.76,30.55L578.81,29.2L579.85,27.69L580.9,26.64L581.94,25.65L582.99,24.46L584.03,23.14L585.07,21.75L586.12,426.19L587.16,426.17L588.21,426.16L589.25,426.14L590.3,426.12L591.34,426.1L592.39,426.08L593.43,426.05L594.48,426.03L595.52,426.02L596.57,426L597.61,425.98L598.66,425.96L599.7,425.94L600.75,425.91L601.79,425.89L602.84,425.87L603.88,425.86L604.93,425.84L605.97,425.81L607.01,425.79L608.06,425.77L609.1,425.74L610.15,425.73L611.19,425.71L612.24,425.69L613.28,425.67L614.33,425.65L615.37,425.63L616.42,425.6L617.46,425.59L618.51,425.57L619.55,425.56L620.6,425.54L621.64,425.52L622.69,425.49L623.73,425.48L624.78,425.46L625.82,425.45L626.87,425.43L627.91,425.41L628.96,425.39L630,425.36L630,425.36L628.96,425.39L627.91,425.41L626.87,425.43L625.82,425.45L624.78,425.46L623.73,425.48L622.69,425.49L621.64,425.52L620.6,425.54L619.55,425.56L618.51,425.57L617.46,425.59L616.42,425.6L615.37,425.63L614.33,425.65L613.28,425.67L612.24,425.69L611.19,425.71L610.15,425.73L609.1,425.74L608.06,425.77L607.01,425.79L605.97,425.81L604.93,425.84L603.88,425.86L602.84,425.87L601.79,425.89L600.75,425.91L599.7,425.94L598.66,425.96L597.61,425.98L596.57,426L595.52,426.02L594.48,426.03L593.43,426.05L592.39,426.08L591.34,426.1L590.3,426.12L589.25,426.14L588.21,426.16L587.16,426.17L586.12,426.19L585.07,291.81L584.03,292.55L582.99,293.23L581.94,293.84L580.9,294.23L579.85,294.66L578.81,295.53L577.76,296.16L576.72,296.79L575.67,297.34L574.63,297.84L573.58,298.08L572.54,297.98L571.49,298.9L570.45,299.33L569.4,299.85L568.36,300.28L567.31,300.67L566.27,300.91L565.22,301.31L564.18,301.73L563.13,302.34L562.09,302.77L561.04,303.26L560,303.54L558.96,303.7L557.91,303.67L556.87,304.01L555.82,304.4L554.78,304.8L553.73,305.06L552.69,305.07L551.64,305.13L550.6,305.35L549.55,305.66L548.51,305.69L547.46,305.93L546.42,306.1L545.37,306.11L544.33,306.21L543.28,306.36L542.24,306.55L541.19,306.79L540.15,306.87L539.1,307.01L538.06,306.88L537.01,306.96L535.97,306.99L534.93,307.17L533.88,307.2L532.84,307.3L531.79,307.12L530.75,307.03L529.7,306.77L528.66,306.84L527.61,306.94L526.57,307.01L525.52,306.94L524.48,306.84L523.43,306.64L522.39,306.39L521.34,306.23L520.3,306.01L519.25,306.13L518.21,306.05L517.16,305.8L516.12,305.49L515.07,305.28L514.03,305.23L512.99,305.12L511.94,304.82L510.9,304.85L509.85,304.76L508.81,304.4L507.76,304.35L506.72,304.27L505.67,304.29L504.63,303.55L503.58,303.5L502.54,303.25L501.49,302.83L500.45,302.58L499.4,302.56L498.36,302.66L497.31,302.74L496.27,302.97L495.22,302.94L494.18,302.92L493.13,302.88L492.09,303.04L491.04,303.32L490,303.72L488.96,303.99L487.91,304.3L486.87,304.37L485.82,304.33L484.78,304.57L483.73,304.97L482.69,305.36L481.64,306L480.6,306.34L479.55,306.33L478.51,306.72L477.46,307.22L476.42,307.77L475.37,308.31L474.33,309.09L473.28,309.6L472.24,309.93L471.19,310.15L470.15,310.7L469.1,311.43L468.06,312.2L467.01,312.96L465.97,313.57L464.93,314.02L463.88,314.35L462.84,314.93L461.79,315.54L460.75,316.46L459.7,316.87L458.66,317.36L457.61,317.64L456.57,318.07L455.52,318.41L454.48,319.06L453.43,319.81L452.39,320.43L451.34,320.92L450.3,321.23L449.25,321.52L448.21,322.1L447.16,322.67L446.12,323.37L445.07,323.99L444.03,324.4L442.99,324.57L441.94,324.87L440.9,325.37L439.85,325.95L438.81,326.54L437.76,327.11L436.72,327.53L435.67,327.65L434.63,327.89L433.58,328.31L432.54,328.76L431.49,329.18L430.45,329.66L429.4,329.97L428.36,330.02L427.31,330.29L426.27,330.65L425.22,331.11L424.18,331.53L423.13,331.96L422.09,332.05L421.04,332.23L420,332.49L418.96,332.78L417.91,333.16L416.87,333.62L415.82,334.1L414.78,334.33L413.73,334.54L412.69,334.75L411.64,334.96L410.6,335.32L409.55,335.67L408.51,335.88L407.46,336.11L406.42,336.1L405.37,336.31L404.33,336.57L403.28,336.86L402.24,337.2L401.19,337.55L400.15,337.66L399.1,337.82L398.06,338.08L397.01,338.25L395.97,338.77L394.93,339.13L393.88,339.52L392.84,339.74L391.79,340.09L390.75,340.29L389.7,340.63L388.66,341.1L387.61,341.71L386.57,342.25L385.52,342.71L384.48,343.07L383.43,343.36L382.39,343.88L381.34,344.45L380.3,345.05L379.25,345.81L378.21,346.21L377.16,346.61L376.12,347.04L375.07,347.72L374.03,348.65L372.99,349.44L371.94,350.23L370.9,350.96L369.85,351.63L368.81,352.29L367.76,353.17L366.72,354.23L365.67,355.4L364.63,356.37L363.58,357.24L362.54,357.78L361.49,358.3L360.45,358.99L359.4,359.53L358.36,360.5L357.31,361.24L356.27,361.89L355.22,362.28L354.18,362.57L353.13,362.78L352.09,363.16L351.04,363.91L350,364.67L348.96,365.27L347.91,365.67L346.87,366.2L345.82,366.75L344.78,367.58L343.73,368.33L342.69,369.08L341.64,369.68L340.6,383.14L339.55,383.41L338.51,381.62L337.46,382.09L336.42,384.18L335.37,384.68L334.33,385.11L333.28,385.32L332.24,385.78L331.19,386.21L330.15,386.61L329.1,387.17L328.06,387.56L327.01,387.85L325.97,388.06L324.93,388.42L323.88,388.89L322.84,389.51L321.79,389.96L320.75,390.38L319.7,390.83L318.66,391.06L317.61,391.5L316.57,392.02L315.52,392.67L314.48,393.25L313.43,393.79L312.39,394.16L311.34,394.45L310.3,394.96L309.25,395.62L308.21,396.34L307.16,397.21L306.12,397.77L305.07,398.39L304.03,398.89L302.99,399.36L301.94,399.99L300.9,400.72L299.85,401.33L298.81,401.81L297.76,402.43L296.72,403.01L295.67,403.44L294.63,403.92L293.58,404.57L292.54,405.19L291.49,405.7L290.45,405.46L289.4,405.96L288.36,406.3L287.31,406.81L286.27,407.41L285.22,407.92L284.18,408.4L283.13,408.76L282.09,409.14L281.04,409.38L280,409.74L278.96,410.17L277.91,410.59L276.87,410.94L275.82,411.2L274.78,411.38L273.73,411.52L272.69,411.85L271.64,412.17L270.6,412.47L269.55,412.66L268.51,412.86L267.46,412.99L266.42,413.07L265.37,413.23L264.33,413.49L263.28,413.69L262.24,413.85L261.19,413.93L260.15,414L259.1,414.08L258.06,414.13L257.01,414.32L255.97,414.52L254.93,414.55L253.88,414.68L252.84,414.74L251.79,414.78L250.75,414.89L249.7,415.05L248.66,415.24L247.61,415.4L246.57,415.52L245.52,415.59L244.48,415.7L243.43,415.83L242.39,416.04L241.34,416.21L240.3,416.3L239.25,416.38L238.21,416.42L237.16,416.46L236.12,416.6L235.07,416.81L234.03,416.94L232.99,417.07L231.94,417.08L230.9,417.21L229.85,417.23L228.81,417.34L227.76,417.51L226.72,417.67L225.67,417.79L224.63,417.82L223.58,417.87L222.54,417.85L221.49,417.96L220.45,418.15L219.4,418.29L218.36,418.41L217.31,418.47L216.27,418.46L215.22,418.42L214.18,418.59L213.13,418.63L212.09,418.89L211.04,418.96L210,418.87L208.96,418.99L207.91,419.09L206.87,419.22L205.82,419.4L204.78,419.6L203.73,419.71L202.69,419.78L201.64,419.74L200.6,419.94L199.55,420.08L198.51,420.27L197.46,420.41L196.42,420.58L195.37,420.75L194.33,420.86L193.28,421.01L192.24,421.08L191.19,421.19L190.15,421.41L189.1,421.62L188.06,421.74L187.01,421.84L185.97,422.1L184.93,422.28L183.88,422.4L182.84,422.6L181.79,422.75L180.75,422.91L179.7,423.02L178.66,423.19L177.61,423.37L176.57,423.57L175.52,423.75L174.48,423.87L173.43,424L172.39,424.08L171.34,424.22L170.3,424.22L169.25,424.41L168.21,424.26L167.16,424.47L166.12,424.59L165.07,424.71L164.03,424.87L162.99,425.01L161.94,425.19L160.9,425.37L159.85,425.49L158.81,425.62L157.76,425.71L156.72,425.84L155.67,425.92L154.63,426.1L153.58,426.22L152.54,426.27L151.49,426.36L150.45,426.44L149.4,426.57L148.36,426.67L147.31,426.77L146.27,426.88L145.22,427L144.18,427.08L143.13,426.98L142.09,427.1L141.04,427.23L140,427.35L138.96,427.48L137.91,427.55L136.87,427.59L135.82,427.67L134.78,427.73L133.73,427.87L132.69,427.96L131.64,428.07L130.6,428.15L129.55,428.23L128.51,428.28L127.46,428.36L126.42,428.46L125.37,428.46L124.33,428.57L123.28,428.66L122.24,428.75L121.19,428.83L120.15,428.9L119.1,428.98L118.06,429.08L117.01,429.2L115.97,429.26L114.93,429.35L113.88,429.42L112.84,429.5L111.79,429.57L110.75,429.68L109.7,429.78L108.66,429.87L107.61,429.96L106.57,430.05L105.52,430.14L104.48,430.22L103.43,430.32L102.39,430.36L101.34,430.43L100.3,430.52L99.25,430.61L98.21,430.69L97.16,430.81L96.12,430.88L95.07,430.99L94.03,431.1L92.99,431.18L91.94,431.29L90.9,431.38L89.85,431.49L88.81,431.62L87.76,431.76L86.72,431.84L85.67,431.96L84.63,432.05L83.58,432.26L82.54,432.36L81.49,432.49L80.45,432.62L79.4,432.73L78.36,432.83L77.31,432.94L76.27,433.06L75.22,433.14L74.18,433.28L73.13,433.42L72.09,433.56L71.04,433.69L70,433.79L68.96,433.89L67.91,434.02L66.87,434.13L65.82,434.25L64.78,434.34L63.73,434.4L62.69,434.49L61.64,434.55L60.6,434.61L59.55,434.67L58.51,434.72L57.46,434.75L56.42,434.78L55.37,434.81L54.33,434.82L53.28,434.84L52.24,434.87L51.19,434.88L50.15,434.89L49.1,434.89L48.06,434.9L47.01,434.9L45.97,434.9L44.93,434.91L43.88,434.91L42.84,434.91L41.79,434.91L40.75,434.91L39.7,434.9L38.66,434.9L37.61,434.9L36.57,434.89L35.52,434.89L34.48,434.89L33.43,434.89L32.39,434.89L31.34,434.88L30.3,434.88L29.25,434.88L28.21,434.87L27.16,434.87L26.12,434.88L25.07,434.88L24.03,434.88L22.99,434.89L21.94,434.92L20.9,434.92L19.85,434.92L18.81,434.92L17.76,434.93L16.72,434.93L15.67,434.94L14.63,434.95L13.58,434.95L12.54,434.96L11.49,434.97L10.45,434.98L9.4,434.98L8.36,434.98L7.31,434.99L6.27,434.99L5.22,434.99L4.18,435L3.13,435L2.09,435L1.04,435L0,435Z" style="fill: rgb(34, 139, 34); fill-opacity: 1; stroke-width: 0;"/></g></g><g class="errorbars"/><g class="lines"/><g class="points"/><g class="text"/></g><g class="trace scatter trace48e891" style="stroke-miterlimit: 2;"><g class="fills"/><g class="errorbars"/><g class="lines"/><g class="points"/><g class="text"/></g></g></g><g class="overplot"/><path class="xlines-above crisp" style="fill: none;" d="M0,0"/><path class="ylines-above crisp" style="fill: none;" d="M0,0"/><g class="overlines-above"/><g class="xaxislayer-above"><g class="xtick"><text text-anchor="middle" x="0" y="473" transform="translate(133.13,0)" style="font-family: 'Open Sans', verdana, arial, sans-serif; font-size: 12px; fill: rgb(68, 68, 68); fill-opacity: 1; white-space: pre;">Apr 2020</text></g><g class="xtick"><text text-anchor="middle" x="0" y="473" transform="translate(228.21,0)" style="font-family: 'Open Sans', verdana, arial, sans-serif; font-size: 12px; fill: rgb(68, 68, 68); fill-opacity: 1; white-space: pre;">Jul 2020</text></g><g class="xtick"><text text-anchor="middle" x="0" y="473" transform="translate(324.33,0)" style="font-family: 'Open Sans', verdana, arial, sans-serif; font-size: 12px; fill: rgb(68, 68, 68); fill-opacity: 1; white-space: pre;">Oct 2020</text></g><g class="xtick"><text text-anchor="middle" x="0" y="473" transform="translate(420.45,0)" style="font-family: 'Open Sans', verdana, arial, sans-serif; font-size: 12px; fill: rgb(68, 68, 68); fill-opacity: 1; white-space: pre;">Jan 2021</text></g><g class="xtick"><text text-anchor="middle" x="0" y="473" transform="translate(514.48,0)" style="font-family: 'Open Sans', verdana, arial, sans-serif; font-size: 12px; fill: rgb(68, 68, 68); fill-opacity: 1; white-space: pre;">Apr 2021</text></g><g class="xtick"><text text-anchor="middle" x="0" y="473" transform="translate(609.55,0)" style="font-family: 'Open Sans', verdana, arial, sans-serif; font-size: 12px; fill: rgb(68, 68, 68); fill-opacity: 1; white-space: pre;">Jul 2021</text></g></g><g class="yaxislayer-above"><g class="ytick"><text text-anchor="end" x="59" y="4.199999999999999" transform="translate(0,460)" style="font-family: 'Open Sans', verdana, arial, sans-serif; font-size: 12px; fill: rgb(68, 68, 68); fill-opacity: 1; white-space: pre;">0</text></g><g class="ytick"><text text-anchor="end" x="59" y="4.199999999999999" transform="translate(0,356.85)" style="font-family: 'Open Sans', verdana, arial, sans-serif; font-size: 12px; fill: rgb(68, 68, 68); fill-opacity: 1; white-space: pre;">50M</text></g><g class="ytick"><text text-anchor="end" x="59" y="4.199999999999999" transform="translate(0,253.69)" style="font-family: 'Open Sans', verdana, arial, sans-serif; font-size: 12px; fill: rgb(68, 68, 68); fill-opacity: 1; white-space: pre;">100M</text></g><g class="ytick"><text text-anchor="end" x="59" y="4.199999999999999" transform="translate(0,150.54000000000002)" style="font-family: 'Open Sans', verdana, arial, sans-serif; font-size: 12px; fill: rgb(68, 68, 68); fill-opacity: 1; white-space: pre;">150M</text></g><g class="ytick"><text text-anchor="end" x="59" y="4.199999999999999" transform="translate(0,47.379999999999995)" style="font-family: 'Open Sans', verdana, arial, sans-serif; font-size: 12px; fill: rgb(68, 68, 68); fill-opacity: 1; white-space: pre;">200M</text></g></g><g class="overaxes-above"/></g></g><g class="polarlayer"/><g class="ternarylayer"/><g class="geolayer"/><g class="funnelarealayer"/><g class="pielayer"/><g class="treemaplayer"/><g class="sunburstlayer"/><g class="glimages"/><defs id="topdefs-c50e8c"><g class="clips"/><clipPath id="legendc50e8c"><rect width="109" height="67" x="0" y="0"/></clipPath></defs><g class="layer-above"><g class="imagelayer"/><g class="shapelayer"/></g><g class="infolayer"><g class="legend" pointer-events="all" transform="translate(123, 68.5)"><rect class="bg" shape-rendering="crispEdges" style="stroke: rgb(68, 68, 68); stroke-opacity: 1; fill: rgb(255, 255, 255); fill-opacity: 1; stroke-width: 0px;" width="109" height="67" x="0" y="0"/><g class="scrollbox" transform="translate(0, 0)" clip-path="url('#legendc50e8c')"><g class="groups"><g class="traces" style="opacity: 1;" transform="translate(0, 14.5)"><text class="legendtext" text-anchor="start" x="40" y="4.680000000000001" style="font-family: 'Open Sans', verdana, arial, sans-serif; font-size: 12px; fill: rgb(68, 68, 68); fill-opacity: 1; white-space: pre;">Recovered</text><g class="layers"><g class="legendfill"><path class="js-fill" d="M5,-3h30v6h-30z" style="stroke-width: 0; fill: rgb(34, 139, 34); fill-opacity: 1;"/></g><g class="legendlines"/><g class="legendsymbols"><g class="legendpoints"/></g></g><rect class="legendtoggle" x="0" y="-9.5" width="103.03125" height="19" style="fill: rgb(0, 0, 0); fill-opacity: 0;"/></g><g class="traces" style="opacity: 1;" transform="translate(0, 33.5)"><text class="legendtext" text-anchor="start" x="40" y="4.680000000000001" style="font-family: 'Open Sans', verdana, arial, sans-serif; font-size: 12px; fill: rgb(68, 68, 68); fill-opacity: 1; white-space: pre;">Death</text><g class="layers"><g class="legendfill"><path class="js-fill" d="M5,-3h30v6h-30z" style="stroke-width: 0; fill: rgb(228, 19, 23); fill-opacity: 1;"/></g><g class="legendlines"/><g class="legendsymbols"><g class="legendpoints"/></g></g><rect class="legendtoggle" x="0" y="-9.5" width="103.03125" height="19" style="fill: rgb(0, 0, 0); fill-opacity: 0;"/></g><g class="traces" style="opacity: 1;" transform="translate(0, 52.5)"><text class="legendtext" text-anchor="start" x="40" y="4.680000000000001" style="font-family: 'Open Sans', verdana, arial, sans-serif; font-size: 12px; fill: rgb(68, 68, 68); fill-opacity: 1; white-space: pre;">Active</text><g class="layers"><g class="legendfill"><path class="js-fill" d="M5,-3h30v6h-30z" style="stroke-width: 0; fill: rgb(31, 119, 180); fill-opacity: 1;"/></g><g class="legendlines"/><g class="legendsymbols"><g class="legendpoints"/></g></g><rect class="legendtoggle" x="0" y="-9.5" width="103.03125" height="19" style="fill: rgb(0, 0, 0); fill-opacity: 0;"/></g></g></g><rect class="scrollbar" rx="20" ry="3" width="0" height="0" style="fill: rgb(128, 139, 164); fill-opacity: 1;" x="0" y="0"/></g><g class="g-gtitle"><text class="gtitle" x="350" y="12.5" text-anchor="middle" dy="0em" style="font-family: 'Open Sans', verdana, arial, sans-serif; font-size: 17px; fill: rgb(68, 68, 68); opacity: 1; font-weight: normal; white-space: pre;">Distribution of Covid19 Cases Worldwide</text></g><g class="g-xtitle" transform="translate(0,-15)"><text class="xtitle" x="375" y="512" text-anchor="middle" style="font-family: 'Open Sans', verdana, arial, sans-serif; font-size: 14px; fill: rgb(68, 68, 68); opacity: 1; font-weight: normal; white-space: pre;">Source: Johns Hopkins University Center for Systems Science and Engineering</text></g><g class="g-ytitle" transform="translate(-1,0)"><text class="ytitle" transform="rotate(-90,22,242.5)" x="22" y="242.5" text-anchor="middle" style="font-family: 'Open Sans', verdana, arial, sans-serif; font-size: 14px; fill: rgb(68, 68, 68); opacity: 1; font-weight: normal; white-space: pre;">Number of Cases</text></g></g></svg>