<svg class="main-svg" xmlns="http://www.w3.org/2000/svg" xmlns:xlink="http://www.w3.org/1999/xlink" width="700" height="500" style="" viewBox="0 0 700 500"><rect x="0" y="0" width="700" height="500" style="fill: rgb(255, 255, 255); fill-opacity: 1;"/><defs id="defs-8f1da6"><g class="clips"><clipPath id="clip8f1da6xyplot" class="plotclip"><rect width="630" height="435"/></clipPath><clipPath class="axesclip" id="clip8f1da6x"><rect x="60" y="0" width="630" height="500"/></clipPath><clipPath class="axesclip" id="clip8f1da6y"><rect x="0" y="25" width="700" height="435"/></clipPath><clipPath class="axesclip" id="clip8f1da6xy"><rect x="60" y="25" width="630" height="435"/></clipPath></g><g class="gradients"/></defs><g class="bglayer"/><g class="layer-below"><g class="imagelayer"/><g class="shapelayer"/></g><g class="cartesianlayer"><g class="subplot xy"><g class="layer-subplot"><g class="shapelayer"/><g class="imagelayer"/></g><g class="gridlayer"><g class="x"><path class="xgrid crisp" transform="translate(110.14,0)" d="M0,25v435" style="stroke: rgb(238, 238, 238); stroke-opacity: 1; stroke-width: 1px;"/><path class="xgrid crisp" transform="translate(188.57,0)" d="M0,25v435" style="stroke: rgb(238, 238, 238); stroke-opacity: 1; stroke-width: 1px;"/><path class="xgrid crisp" transform="translate(267,0)" d="M0,25v435" style="stroke: rgb(238, 238, 238); stroke-opacity: 1; stroke-width: 1px;"/><path class="xgrid crisp" transform="translate(346.71,0)" d="M0,25v435" style="stroke: rgb(238, 238, 238); stroke-opacity: 1; stroke-width: 1px;"/><path class="xgrid crisp" transform="translate(425.14,0)" d="M0,25v435" style="stroke: rgb(238, 238, 238); stroke-opacity: 1; stroke-width: 1px;"/><path class="xgrid crisp" transform="translate(503.57,0)" d="M0,25v435" style="stroke: rgb(238, 238, 238); stroke-opacity: 1; stroke-width: 1px;"/><path class="xgrid crisp" transform="translate(579.43,0)" d="M0,25v435" style="stroke: rgb(238, 238, 238); stroke-opacity: 1; stroke-width: 1px;"/><path class="xgrid crisp" transform="translate(657.86,0)" d="M0,25v435" style="stroke: rgb(238, 238, 238); stroke-opacity: 1; stroke-width: 1px;"/></g><g class="y"><path class="ygrid crisp" transform="translate(0,410.92)" d="M60,0h630" style="stroke: rgb(238, 238, 238); stroke-opacity: 1; stroke-width: 1px;"/><path class="ygrid crisp" transform="translate(0,361.85)" d="M60,0h630" style="stroke: rgb(238, 238, 238); stroke-opacity: 1; stroke-width: 1px;"/><path class="ygrid crisp" transform="translate(0,312.77)" d="M60,0h630" style="stroke: rgb(238, 238, 238); stroke-opacity: 1; stroke-width: 1px;"/><path class="ygrid crisp" transform="translate(0,263.69)" d="M60,0h630" style="stroke: rgb(238, 238, 238); stroke-opacity: 1; stroke-width: 1px;"/><path class="ygrid crisp" transform="translate(0,214.61)" d="M60,0h630" style="stroke: rgb(238, 238, 238); stroke-opacity: 1; stroke-width: 1px;"/><path class="ygrid crisp" transform="translate(0,165.54)" d="M60,0h630" style="stroke: rgb(238, 238, 238); stroke-opacity: 1; stroke-width: 1px;"/><path class="ygrid crisp" transform="translate(0,116.46)" d="M60,0h630" style="stroke: rgb(238, 238, 238); stroke-opacity: 1; stroke-width: 1px;"/><path class="ygrid crisp" transform="translate(0,67.38)" d="M60,0h630" style="stroke: rgb(238, 238, 238); stroke-opacity: 1; stroke-width: 1px;"/></g></g><g class="zerolinelayer"><path class="yzl zl crisp" transform="translate(0,460)" d="M60,0h630" style="stroke: rgb(68, 68, 68); stroke-opacity: 1; stroke-width: 1px;"/></g><path class="xlines-below"/><path class="ylines-below"/><g class="overlines-below"/><g class="xaxislayer-below"/><g class="yaxislayer-below"/><g class="overaxes-below"/><g class="plot" transform="translate(60, 25)" clip-path="url('#clip8f1da6xyplot')"><g class="scatterlayer mlayer"><g class="trace scatter traceed85ed" style="stroke-miterlimit: 2;"><g class="fills"><g><path class="js-fill" d="M630,435L0,435L0,435L1.29,435L2.57,435L3.86,435L5.14,435L6.43,434.99L7.71,434.99L9,434.99L10.29,434.98L11.57,434.98L12.86,434.97L14.14,434.96L15.43,434.95L16.71,434.94L18,434.94L19.29,434.93L20.57,434.92L21.86,434.92L23.14,434.91L24.43,434.91L25.71,434.9L27,434.9L28.29,434.87L29.57,434.86L30.86,434.86L32.14,434.86L33.43,434.86L34.71,434.86L36,434.86L37.29,434.86L38.57,434.86L39.86,434.87L41.14,434.87L42.43,434.87L43.71,434.88L45,434.88L46.29,434.89L47.57,434.89L48.86,434.89L50.14,434.9L51.43,434.9L52.71,434.9L54,434.9L55.29,434.9L56.57,434.9L57.86,434.89L59.14,434.89L60.43,434.88L61.71,434.88L63,434.86L64.29,434.85L65.57,434.83L66.86,434.8L68.14,434.79L69.43,434.76L70.71,434.73L72,434.69L73.29,434.63L74.57,434.56L75.86,434.5L77.14,434.43L78.43,434.33L79.71,434.26L81,434.16L82.29,434.03L83.57,433.9L84.86,433.77L86.14,433.65L87.43,433.54L88.71,433.4L90,433.25L91.29,433.1L92.57,432.95L93.86,432.87L95.14,432.74L96.43,432.61L97.71,432.52L99,432.4L100.29,432.27L101.57,432.13L102.86,432.03L104.14,431.8L105.43,431.7L106.71,431.58L108,431.5L109.29,431.36L110.57,431.23L111.86,431.11L113.14,431.01L114.43,430.89L115.71,430.81L117,430.7L118.29,430.58L119.57,430.52L120.86,430.4L122.14,430.3L123.43,430.21L124.71,430.12L126,430.05L127.29,430.02L128.57,429.91L129.86,429.83L131.14,429.73L132.43,429.63L133.71,429.54L135,429.45L136.29,429.34L137.57,429.22L138.86,429.15L140.14,429.06L141.43,429L142.71,428.9L144,428.84L145.29,428.71L146.57,428.61L147.86,428.52L149.14,428.44L150.43,428.36L151.71,428.26L153,428.17L154.29,428.04L155.57,428.06L156.86,427.95L158.14,427.86L159.43,427.81L160.71,427.72L162,427.64L163.29,427.52L164.57,427.43L165.86,427.27L167.14,427.21L168.43,427.11L169.71,427.08L171,427.01L172.29,426.87L173.57,426.73L174.86,426.59L176.14,426.45L177.43,426.58L178.71,426.49L180,426.37L181.29,426.25L182.57,426.14L183.86,426.03L185.14,425.89L186.43,425.8L187.71,425.71L189,425.66L190.29,425.52L191.57,425.33L192.86,425.24L194.14,425.1L195.43,424.99L196.71,424.85L198,424.73L199.29,424.53L200.57,424.33L201.86,424.16L203.14,423.99L204.43,423.85L205.71,423.72L207,423.48L208.29,423.68L209.57,423.47L210.86,423.48L212.14,423.33L213.43,423.24L214.71,423.09L216,422.97L217.29,422.76L218.57,422.54L219.86,422.33L221.14,422.14L222.43,422.03L223.71,421.84L225,421.68L226.29,421.45L227.57,421.32L228.86,421.13L230.14,420.83L231.43,420.72L232.71,420.59L234,420.36L235.29,420.13L236.57,420.01L237.86,419.94L239.14,419.78L240.43,419.66L241.71,419.47L243,419.27L244.29,419.12L245.57,418.91L246.86,418.76L248.14,418.54L249.43,418.59L250.71,418.53L252,418.41L253.29,418.19L254.57,417.98L255.86,417.85L257.14,417.75L258.43,417.61L259.71,417.74L261,417.67L262.29,417.38L263.57,417.35L264.86,417.17L266.14,417.23L267.43,417.25L268.71,417.19L270,417.05L271.29,416.91L272.57,416.7L273.86,416.58L275.14,416.61L276.43,416.56L277.71,416.54L279,416.42L280.29,416.24L281.57,416.05L282.86,415.93L284.14,415.92L285.43,415.78L286.71,415.77L288,415.63L289.29,415.5L290.57,415.27L291.86,415.11L293.14,415.07L294.43,415.04L295.71,414.96L297,414.86L298.29,414.67L299.57,414.45L300.86,414.3L302.14,414.18L303.43,414.1L304.71,413.97L306,413.8L307.29,413.58L308.57,413.41L309.86,413.29L311.14,413.26L312.43,413.2L313.71,413.05L315,413.04L316.29,412.81L317.57,412.6L318.86,412.55L320.14,412.47L321.43,412.4L322.71,412.31L324,412.14L325.29,411.92L326.57,411.63L327.86,411.45L329.14,411.36L330.43,411.23L331.71,411.01L333,410.79L334.29,410.46L335.57,410.09L336.86,409.71L338.14,409.56L339.43,409.35L340.71,409.05L342,408.64L343.29,408.17L344.57,407.67L345.86,407.26L347.14,406.98L348.43,406.54L349.71,406.12L351,405.57L352.29,404.98L353.57,404.28L354.86,403.7L356.14,403.31L357.43,402.71L358.71,403.02L360,402.44L361.29,401.71L362.57,400.95L363.86,400.4L365.14,399.91L366.43,399.23L367.71,398.51L369,397.97L370.29,397.27L371.57,396.42L372.86,395.71L374.14,395.15L375.43,394.57L376.71,393.86L378,393.22L379.29,392.21L380.57,391.37L381.86,390.62L383.14,390.04L384.43,389.7L385.71,389.29L387,388.67L388.29,388.02L389.57,387.28L390.86,386.69L392.14,386.18L393.43,385.92L394.71,385.42L396,384.96L397.29,384.46L398.57,383.74L399.86,383.2L401.14,382.8L402.43,382.56L403.71,382.26L405,381.83L406.29,381.2L407.57,380.76L408.86,380.28L410.14,379.75L411.43,379.51L412.71,379.04L414,378.48L415.29,376.04L416.57,375.52L417.86,377.68L419.14,377.36L420.43,376.85L421.71,376.2L423,375.32L424.29,374.46L425.57,373.51L426.86,372.9L428.14,372.29L429.43,371.8L430.71,371.13L432,370.26L433.29,369.42L434.57,369.02L435.86,368.78L437.14,368.44L438.43,367.98L439.71,367.25L441,366.37L442.29,365.3L443.57,364.7L444.86,363.93L446.14,363.3L447.43,362.68L448.71,361.67L450,360.55L451.29,359.22L452.57,358.02L453.86,356.99L455.14,356.23L456.43,355.45L457.71,354.6L459,353.71L460.29,352.8L461.57,351.75L462.86,350.99L464.14,350.49L465.43,350.03L466.71,349.56L468,348.71L469.29,348.04L470.57,347.4L471.86,346.81L473.14,346.51L474.43,346.08L475.71,345.57L477,344.98L478.29,344.29L479.57,343.77L480.86,343.4L482.14,343.19L483.43,342.79L484.71,342.56L486,342.13L487.29,341.73L488.57,341.15L489.86,340.99L491.14,340.71L492.43,340.53L493.71,340.43L495,340.05L496.29,339.68L497.57,339.36L498.86,339.07L500.14,338.85L501.43,338.88L502.71,338.62L504,338.4L505.29,338.02L506.57,337.61L507.86,337.38L509.14,337.16L510.43,336.92L511.71,336.67L513,336.12L514.29,335.61L515.57,335.19L516.86,334.87L518.14,334.56L519.43,334.36L520.71,334.29L522,333.79L523.29,333.32L524.57,332.8L525.86,332.4L527.14,332.09L528.43,332.05L529.71,331.7L531,331.15L532.29,330.68L533.57,330.16L534.86,329.68L536.14,329.41L537.43,329.29L538.71,328.8L540,328.15L541.29,327.48L542.57,326.81L543.86,326.24L545.14,325.91L546.43,325.72L547.71,325.26L549,324.55L550.29,323.74L551.57,323.09L552.86,322.43L554.14,322.1L555.43,321.74L556.71,321.2L558,320.49L559.29,319.62L560.57,318.88L561.86,318.5L563.14,318.01L564.43,317.68L565.71,317.14L567,316.68L568.29,315.63L569.57,314.94L570.86,314.28L572.14,313.91L573.43,313.39L574.71,312.7L576,311.83L577.29,310.94L578.57,310.11L579.86,309.48L581.14,309.25L582.43,308.88L583.71,308.31L585,307.41L586.29,306.8L587.57,306.19L588.86,305.62L590.14,305.18L591.43,305.22L592.71,304.86L594,304.13L595.29,303.7L596.57,303.27L597.86,303.02L599.14,303.09L600.43,303.02L601.71,302.69L603,302.41L604.29,301.97L605.57,301.67L606.86,301.51L608.14,301.59L609.43,301.63L610.71,301.7L612,301.46L613.29,301.4L614.57,301.3L615.86,301.37L617.14,301.69L618.43,302.22L619.71,302.55L621,302.65L622.29,303.55L623.57,303.56L624.86,303.68L626.14,303.77L627.43,304.22L628.71,304.36L630,304.37" style="fill: rgb(31, 119, 180); fill-opacity: 1; stroke-width: 0;"/></g><g><path class="js-fill" d="M0,435L1.29,435L2.57,435L3.86,435L5.14,434.99L6.43,434.99L7.71,434.99L9,434.99L10.29,434.98L11.57,434.98L12.86,434.97L14.14,434.96L15.43,434.95L16.71,434.94L18,434.93L19.29,434.93L20.57,434.92L21.86,434.92L23.14,434.91L24.43,434.9L25.71,434.9L27,434.9L28.29,434.87L29.57,434.86L30.86,434.85L32.14,434.85L33.43,434.85L34.71,434.85L36,434.85L37.29,434.86L38.57,434.86L39.86,434.86L41.14,434.86L42.43,434.87L43.71,434.87L45,434.87L46.29,434.88L47.57,434.88L48.86,434.89L50.14,434.89L51.43,434.89L52.71,434.89L54,434.89L55.29,434.89L56.57,434.89L57.86,434.88L59.14,434.88L60.43,434.87L61.71,434.87L63,434.85L64.29,434.84L65.57,434.81L66.86,434.79L68.14,434.77L69.43,434.74L70.71,434.71L72,434.67L73.29,434.6L74.57,434.53L75.86,434.47L77.14,434.4L78.43,434.29L79.71,434.21L81,434.1L82.29,433.97L83.57,433.83L84.86,433.69L86.14,433.57L87.43,433.44L88.71,433.29L90,433.12L91.29,432.96L92.57,432.79L93.86,432.7L95.14,432.56L96.43,432.42L97.71,432.3L99,432.17L100.29,432.02L101.57,431.86L102.86,431.74L104.14,431.5L105.43,431.39L106.71,431.25L108,431.15L109.29,430.99L110.57,430.84L111.86,430.7L113.14,430.59L114.43,430.46L115.71,430.36L117,430.24L118.29,430.1L119.57,430.02L120.86,429.88L122.14,429.78L123.43,429.67L124.71,429.57L126,429.48L127.29,429.44L128.57,429.32L129.86,429.22L131.14,429.11L132.43,429.01L133.71,428.9L135,428.79L136.29,428.67L137.57,428.54L138.86,428.46L140.14,428.36L141.43,428.29L142.71,428.17L144,428.1L145.29,427.96L146.57,427.84L147.86,427.75L149.14,427.66L150.43,427.57L151.71,427.46L153,427.35L154.29,427.22L155.57,427.22L156.86,427.1L158.14,427.01L159.43,426.95L160.71,426.85L162,426.76L163.29,426.63L164.57,426.52L165.86,426.36L167.14,426.29L168.43,426.19L169.71,426.14L171,426.06L172.29,425.91L173.57,425.75L174.86,425.6L176.14,425.46L177.43,425.58L178.71,425.48L180,425.34L181.29,425.21L182.57,425.09L183.86,424.97L185.14,424.82L186.43,424.72L187.71,424.61L189,424.55L190.29,424.41L191.57,424.2L192.86,424.1L194.14,423.95L195.43,423.83L196.71,423.68L198,423.54L199.29,423.33L200.57,423.12L201.86,422.94L203.14,422.76L204.43,422.61L205.71,422.47L207,422.22L208.29,422.41L209.57,422.18L210.86,422.19L212.14,422.03L213.43,421.93L214.71,421.77L216,421.63L217.29,421.4L218.57,421.17L219.86,420.95L221.14,420.75L222.43,420.63L223.71,420.43L225,420.26L226.29,420.01L227.57,419.87L228.86,419.66L230.14,419.35L231.43,419.23L232.71,419.09L234,418.84L235.29,418.58L236.57,418.45L237.86,418.37L239.14,418.2L240.43,418.06L241.71,417.86L243,417.64L244.29,417.48L245.57,417.25L246.86,417.09L248.14,416.86L249.43,416.9L250.71,416.82L252,416.68L253.29,416.45L254.57,416.22L255.86,416.08L257.14,415.97L258.43,415.82L259.71,415.93L261,415.84L262.29,415.54L263.57,415.49L264.86,415.29L266.14,415.34L267.43,415.35L268.71,415.27L270,415.12L271.29,414.96L272.57,414.73L273.86,414.6L275.14,414.63L276.43,414.56L277.71,414.53L279,414.39L280.29,414.2L281.57,413.99L282.86,413.87L284.14,413.84L285.43,413.69L286.71,413.67L288,413.51L289.29,413.36L290.57,413.12L291.86,412.95L293.14,412.9L294.43,412.85L295.71,412.75L297,412.64L298.29,412.44L299.57,412.2L300.86,412.04L302.14,411.91L303.43,411.82L304.71,411.68L306,411.49L307.29,411.26L308.57,411.08L309.86,410.94L311.14,410.91L312.43,410.83L313.71,410.67L315,410.64L316.29,410.4L317.57,410.18L318.86,410.11L320.14,410.02L321.43,409.94L322.71,409.84L324,409.65L325.29,409.41L326.57,409.1L327.86,408.91L329.14,408.82L330.43,408.66L331.71,408.43L333,408.2L334.29,407.85L335.57,407.47L336.86,407.07L338.14,406.92L339.43,406.69L340.71,406.38L342,405.96L343.29,405.47L344.57,404.96L345.86,404.53L347.14,404.25L348.43,403.8L349.71,403.36L351,402.79L352.29,402.18L353.57,401.47L354.86,400.87L356.14,400.47L357.43,399.86L358.71,400.16L360,399.55L361.29,398.81L362.57,398.03L363.86,397.46L365.14,396.96L366.43,396.27L367.71,395.53L369,394.96L370.29,394.24L371.57,393.36L372.86,392.63L374.14,392.07L375.43,391.47L376.71,390.72L378,390.07L379.29,389.03L380.57,388.17L381.86,387.39L383.14,386.79L384.43,386.44L385.71,386L387,385.36L388.29,384.67L389.57,383.9L390.86,383.29L392.14,382.77L393.43,382.49L394.71,381.95L396,381.46L397.29,380.94L398.57,380.19L399.86,379.63L401.14,379.21L402.43,378.95L403.71,378.62L405,378.16L406.29,377.5L407.57,377.03L408.86,376.52L410.14,375.97L411.43,375.71L412.71,375.21L414,374.62L415.29,372.15L416.57,371.59L417.86,373.73L419.14,373.39L420.43,372.86L421.71,372.18L423,371.27L424.29,370.37L425.57,369.38L426.86,368.75L428.14,368.12L429.43,367.61L430.71,366.91L432,366L433.29,365.13L434.57,364.71L435.86,364.45L437.14,364.09L438.43,363.61L439.71,362.84L441,361.93L442.29,360.82L443.57,360.2L444.86,359.41L446.14,358.76L447.43,358.11L448.71,357.07L450,355.91L451.29,354.55L452.57,353.31L453.86,352.25L455.14,351.47L456.43,350.66L457.71,349.77L459,348.83L460.29,347.89L461.57,346.8L462.86,346.01L464.14,345.48L465.43,345L466.71,344.5L468,343.6L469.29,342.89L470.57,342.21L471.86,341.59L473.14,341.26L474.43,340.81L475.71,340.26L477,339.62L478.29,338.89L479.57,338.33L480.86,337.93L482.14,337.7L483.43,337.28L484.71,337.01L486,336.54L487.29,336.12L488.57,335.49L489.86,335.3L491.14,335.01L492.43,334.8L493.71,334.66L495,334.26L496.29,333.85L497.57,333.5L498.86,333.19L500.14,332.95L501.43,332.96L502.71,332.68L504,332.43L505.29,332.02L506.57,331.59L507.86,331.34L509.14,331.1L510.43,330.84L511.71,330.57L513,329.99L514.29,329.45L515.57,329L516.86,328.66L518.14,328.35L519.43,328.12L520.71,328.03L522,327.51L523.29,327.01L524.57,326.47L525.86,326.04L527.14,325.72L528.43,325.66L529.71,325.29L531,324.72L532.29,324.22L533.57,323.68L534.86,323.18L536.14,322.9L537.43,322.76L538.71,322.25L540,321.57L541.29,320.88L542.57,320.18L543.86,319.59L545.14,319.24L546.43,319.04L547.71,318.55L549,317.81L550.29,316.98L551.57,316.3L552.86,315.62L554.14,315.27L555.43,314.89L556.71,314.32L558,313.58L559.29,312.68L560.57,311.91L561.86,311.51L563.14,311.01L564.43,310.66L565.71,310.09L567,309.59L568.29,308.5L569.57,307.78L570.86,307.09L572.14,306.7L573.43,306.16L574.71,305.44L576,304.53L577.29,303.62L578.57,302.76L579.86,302.09L581.14,301.84L582.43,301.45L583.71,300.84L585,299.91L586.29,299.26L587.57,298.61L588.86,298.01L590.14,297.55L591.43,297.56L592.71,297.16L594,296.4L595.29,295.94L596.57,295.46L597.86,295.18L599.14,295.23L600.43,295.14L601.71,294.77L603,294.45L604.29,293.98L605.57,293.64L606.86,293.46L608.14,293.51L609.43,293.53L610.71,293.56L612,293.28L613.29,293.19L614.57,293.07L615.86,293.1L617.14,293.39L618.43,293.9L619.71,294.19L621,294.26L622.29,295.14L623.57,295.11L624.86,295.21L626.14,295.27L627.43,295.69L628.71,295.8L630,295.79L630,304.37L628.71,304.36L627.43,304.22L626.14,303.77L624.86,303.68L623.57,303.56L622.29,303.55L621,302.65L619.71,302.55L618.43,302.22L617.14,301.69L615.86,301.37L614.57,301.3L613.29,301.4L612,301.46L610.71,301.7L609.43,301.63L608.14,301.59L606.86,301.51L605.57,301.67L604.29,301.97L603,302.41L601.71,302.69L600.43,303.02L599.14,303.09L597.86,303.02L596.57,303.27L595.29,303.7L594,304.13L592.71,304.86L591.43,305.22L590.14,305.18L588.86,305.62L587.57,306.19L586.29,306.8L585,307.41L583.71,308.31L582.43,308.88L581.14,309.25L579.86,309.48L578.57,310.11L577.29,310.94L576,311.83L574.71,312.7L573.43,313.39L572.14,313.91L570.86,314.28L569.57,314.94L568.29,315.63L567,316.68L565.71,317.14L564.43,317.68L563.14,318.01L561.86,318.5L560.57,318.88L559.29,319.62L558,320.49L556.71,321.2L555.43,321.74L554.14,322.1L552.86,322.43L551.57,323.09L550.29,323.74L549,324.55L547.71,325.26L546.43,325.72L545.14,325.91L543.86,326.24L542.57,326.81L541.29,327.48L540,328.15L538.71,328.8L537.43,329.29L536.14,329.41L534.86,329.68L533.57,330.16L532.29,330.68L531,331.15L529.71,331.7L528.43,332.05L527.14,332.09L525.86,332.4L524.57,332.8L523.29,333.32L522,333.79L520.71,334.29L519.43,334.36L518.14,334.56L516.86,334.87L515.57,335.19L514.29,335.61L513,336.12L511.71,336.67L510.43,336.92L509.14,337.16L507.86,337.38L506.57,337.61L505.29,338.02L504,338.4L502.71,338.62L501.43,338.88L500.14,338.85L498.86,339.07L497.57,339.36L496.29,339.68L495,340.05L493.71,340.43L492.43,340.53L491.14,340.71L489.86,340.99L488.57,341.15L487.29,341.73L486,342.13L484.71,342.56L483.43,342.79L482.14,343.19L480.86,343.4L479.57,343.77L478.29,344.29L477,344.98L475.71,345.57L474.43,346.08L473.14,346.51L471.86,346.81L470.57,347.4L469.29,348.04L468,348.71L466.71,349.56L465.43,350.03L464.14,350.49L462.86,350.99L461.57,351.75L460.29,352.8L459,353.71L457.71,354.6L456.43,355.45L455.14,356.23L453.86,356.99L452.57,358.02L451.29,359.22L450,360.55L448.71,361.67L447.43,362.68L446.14,363.3L444.86,363.93L443.57,364.7L442.29,365.3L441,366.37L439.71,367.25L438.43,367.98L437.14,368.44L435.86,368.78L434.57,369.02L433.29,369.42L432,370.26L430.71,371.13L429.43,371.8L428.14,372.29L426.86,372.9L425.57,373.51L424.29,374.46L423,375.32L421.71,376.2L420.43,376.85L419.14,377.36L417.86,377.68L416.57,375.52L415.29,376.04L414,378.48L412.71,379.04L411.43,379.51L410.14,379.75L408.86,380.28L407.57,380.76L406.29,381.2L405,381.83L403.71,382.26L402.43,382.56L401.14,382.8L399.86,383.2L398.57,383.74L397.29,384.46L396,384.96L394.71,385.42L393.43,385.92L392.14,386.18L390.86,386.69L389.57,387.28L388.29,388.02L387,388.67L385.71,389.29L384.43,389.7L383.14,390.04L381.86,390.62L380.57,391.37L379.29,392.21L378,393.22L376.71,393.86L375.43,394.57L374.14,395.15L372.86,395.71L371.57,396.42L370.29,397.27L369,397.97L367.71,398.51L366.43,399.23L365.14,399.91L363.86,400.4L362.57,400.95L361.29,401.71L360,402.44L358.71,403.02L357.43,402.71L356.14,403.31L354.86,403.7L353.57,404.28L352.29,404.98L351,405.57L349.71,406.12L348.43,406.54L347.14,406.98L345.86,407.26L344.57,407.67L343.29,408.17L342,408.64L340.71,409.05L339.43,409.35L338.14,409.56L336.86,409.71L335.57,410.09L334.29,410.46L333,410.79L331.71,411.01L330.43,411.23L329.14,411.36L327.86,411.45L326.57,411.63L325.29,411.92L324,412.14L322.71,412.31L321.43,412.4L320.14,412.47L318.86,412.55L317.57,412.6L316.29,412.81L315,413.04L313.71,413.05L312.43,413.2L311.14,413.26L309.86,413.29L308.57,413.41L307.29,413.58L306,413.8L304.71,413.97L303.43,414.1L302.14,414.18L300.86,414.3L299.57,414.45L298.29,414.67L297,414.86L295.71,414.96L294.43,415.04L293.14,415.07L291.86,415.11L290.57,415.27L289.29,415.5L288,415.63L286.71,415.77L285.43,415.78L284.14,415.92L282.86,415.93L281.57,416.05L280.29,416.24L279,416.42L277.71,416.54L276.43,416.56L275.14,416.61L273.86,416.58L272.57,416.7L271.29,416.91L270,417.05L268.71,417.19L267.43,417.25L266.14,417.23L264.86,417.17L263.57,417.35L262.29,417.38L261,417.67L259.71,417.74L258.43,417.61L257.14,417.75L255.86,417.85L254.57,417.98L253.29,418.19L252,418.41L250.71,418.53L249.43,418.59L248.14,418.54L246.86,418.76L245.57,418.91L244.29,419.12L243,419.27L241.71,419.47L240.43,419.66L239.14,419.78L237.86,419.94L236.57,420.01L235.29,420.13L234,420.36L232.71,420.59L231.43,420.72L230.14,420.83L228.86,421.13L227.57,421.32L226.29,421.45L225,421.68L223.71,421.84L222.43,422.03L221.14,422.14L219.86,422.33L218.57,422.54L217.29,422.76L216,422.97L214.71,423.09L213.43,423.24L212.14,423.33L210.86,423.48L209.57,423.47L208.29,423.68L207,423.48L205.71,423.72L204.43,423.85L203.14,423.99L201.86,424.16L200.57,424.33L199.29,424.53L198,424.73L196.71,424.85L195.43,424.99L194.14,425.1L192.86,425.24L191.57,425.33L190.29,425.52L189,425.66L187.71,425.71L186.43,425.8L185.14,425.89L183.86,426.03L182.57,426.14L181.29,426.25L180,426.37L178.71,426.49L177.43,426.58L176.14,426.45L174.86,426.59L173.57,426.73L172.29,426.87L171,427.01L169.71,427.08L168.43,427.11L167.14,427.21L165.86,427.27L164.57,427.43L163.29,427.52L162,427.64L160.71,427.72L159.43,427.81L158.14,427.86L156.86,427.95L155.57,428.06L154.29,428.04L153,428.17L151.71,428.26L150.43,428.36L149.14,428.44L147.86,428.52L146.57,428.61L145.29,428.71L144,428.84L142.71,428.9L141.43,429L140.14,429.06L138.86,429.15L137.57,429.22L136.29,429.34L135,429.45L133.71,429.54L132.43,429.63L131.14,429.73L129.86,429.83L128.57,429.91L127.29,430.02L126,430.05L124.71,430.12L123.43,430.21L122.14,430.3L120.86,430.4L119.57,430.52L118.29,430.58L117,430.7L115.71,430.81L114.43,430.89L113.14,431.01L111.86,431.11L110.57,431.23L109.29,431.36L108,431.5L106.71,431.58L105.43,431.7L104.14,431.8L102.86,432.03L101.57,432.13L100.29,432.27L99,432.4L97.71,432.52L96.43,432.61L95.14,432.74L93.86,432.87L92.57,432.95L91.29,433.1L90,433.25L88.71,433.4L87.43,433.54L86.14,433.65L84.86,433.77L83.57,433.9L82.29,434.03L81,434.16L79.71,434.26L78.43,434.33L77.14,434.43L75.86,434.5L74.57,434.56L73.29,434.63L72,434.69L70.71,434.73L69.43,434.76L68.14,434.79L66.86,434.8L65.57,434.83L64.29,434.85L63,434.86L61.71,434.88L60.43,434.88L59.14,434.89L57.86,434.89L56.57,434.9L55.29,434.9L54,434.9L52.71,434.9L51.43,434.9L50.14,434.9L48.86,434.89L47.57,434.89L46.29,434.89L45,434.88L43.71,434.88L42.43,434.87L41.14,434.87L39.86,434.87L38.57,434.86L37.29,434.86L36,434.86L34.71,434.86L33.43,434.86L32.14,434.86L30.86,434.86L29.57,434.86L28.29,434.87L27,434.9L25.71,434.9L24.43,434.91L23.14,434.91L21.86,434.92L20.57,434.92L19.29,434.93L18,434.94L16.71,434.94L15.43,434.95L14.14,434.96L12.86,434.97L11.57,434.98L10.29,434.98L9,434.99L7.71,434.99L6.43,434.99L5.14,435L3.86,435L2.57,435L1.29,435L0,435Z" style="fill: rgb(228, 19, 23); fill-opacity: 1; stroke-width: 0;"/></g></g><g class="errorbars"/><g class="lines"/><g class="points"/><g class="text"/></g><g class="trace scatter traceb335af" style="stroke-miterlimit: 2;"><g class="fills"><g><path class="js-fill" d="M0,435L1.29,435L2.57,435L3.86,435L5.14,434.99L6.43,434.99L7.71,434.99L9,434.98L10.29,434.98L11.57,434.98L12.86,434.97L14.14,434.96L15.43,434.95L16.71,434.94L18,434.93L19.29,434.92L20.57,434.92L21.86,434.91L23.14,434.9L24.43,434.9L25.71,434.89L27,434.89L28.29,434.85L29.57,434.84L30.86,434.83L32.14,434.83L33.43,434.82L34.71,434.82L36,434.81L37.29,434.81L38.57,434.81L39.86,434.81L41.14,434.81L42.43,434.8L43.71,434.8L45,434.8L46.29,434.8L47.57,434.79L48.86,434.79L50.14,434.78L51.43,434.78L52.71,434.77L54,434.77L55.29,434.76L56.57,434.75L57.86,434.74L59.14,434.73L60.43,434.72L61.71,434.71L63,434.69L64.29,434.67L65.57,434.64L66.86,434.61L68.14,434.58L69.43,434.55L70.71,434.51L72,434.46L73.29,434.39L74.57,434.32L75.86,434.24L77.14,434.16L78.43,434.05L79.71,433.95L81,433.82L82.29,433.67L83.57,433.51L84.86,433.35L86.14,433.2L87.43,433.04L88.71,432.85L90,432.65L91.29,432.44L92.57,432.24L93.86,432.1L95.14,431.92L96.43,431.74L97.71,431.57L99,431.36L100.29,431.15L101.57,430.94L102.86,430.76L104.14,430.46L105.43,430.29L106.71,430.08L108,429.89L109.29,429.66L110.57,429.44L111.86,429.25L113.14,429.07L114.43,428.88L115.71,428.69L117,428.49L118.29,428.29L119.57,428.08L120.86,427.88L122.14,427.7L123.43,427.53L124.71,427.35L126,427.16L127.29,426.95L128.57,426.73L129.86,426.54L131.14,426.35L132.43,426.16L133.71,425.96L135,425.74L136.29,425.53L137.57,425.3L138.86,425.1L140.14,424.91L141.43,424.72L142.71,424.52L144,424.31L145.29,424.07L146.57,423.84L147.86,423.61L149.14,423.41L150.43,423.19L151.71,422.96L153,422.71L154.29,422.45L155.57,422.18L156.86,421.93L158.14,421.7L159.43,421.48L160.71,421.25L162,421L163.29,420.71L164.57,420.41L165.86,420.08L167.14,419.82L168.43,419.58L169.71,419.28L171,419L172.29,418.68L173.57,418.36L174.86,418.03L176.14,417.75L177.43,417.5L178.71,417.19L180,416.86L181.29,416.52L182.57,416.21L183.86,415.88L185.14,415.55L186.43,415.26L187.71,414.91L189,414.56L190.29,414.21L191.57,413.77L192.86,413.38L194.14,413.07L195.43,412.73L196.71,412.32L198,411.89L199.29,411.46L200.57,410.99L201.86,410.55L203.14,410.15L204.43,409.77L205.71,409.34L207,408.8L208.29,408.29L209.57,407.79L210.86,407.32L212.14,406.87L213.43,406.47L214.71,405.95L216,405.42L217.29,404.86L218.57,404.29L219.86,403.76L221.14,403.29L222.43,402.82L223.71,402.28L225,401.71L226.29,401.09L227.57,400.49L228.86,399.92L230.14,399.39L231.43,398.88L232.71,398.31L234,397.62L235.29,396.93L236.57,396.24L237.86,395.62L239.14,395.09L240.43,394.54L241.71,393.92L243,393.2L244.29,392.51L245.57,391.8L246.86,391.19L248.14,390.62L249.43,390.12L250.71,389.48L252,388.81L253.29,388.11L254.57,387.41L255.86,386.78L257.14,386.23L258.43,385.67L259.71,385.04L261,384.36L262.29,383.65L263.57,382.91L264.86,382.3L266.14,381.77L267.43,381.26L268.71,380.63L270,379.94L271.29,379.27L272.57,378.63L273.86,377.99L275.14,377.48L276.43,376.93L277.71,376.33L279,375.63L280.29,374.94L281.57,374.24L282.86,373.59L284.14,373.05L285.43,372.4L286.71,371.75L288,371.06L289.29,370.37L290.57,369.6L291.86,368.94L293.14,368.37L294.43,367.83L295.71,367.24L297,366.54L298.29,365.81L299.57,365.02L300.86,364.31L302.14,363.72L303.43,363.07L304.71,362.37L306,361.62L307.29,360.85L308.57,360.05L309.86,359.33L311.14,358.72L312.43,358.04L313.71,357.34L315,356.66L316.29,355.8L317.57,354.98L318.86,354.28L320.14,353.66L321.43,353.03L322.71,352.34L324,351.54L325.29,350.76L326.57,350.03L327.86,349.21L329.14,348.57L330.43,347.83L331.71,347.03L333,346.17L334.29,345.28L335.57,344.4L336.86,343.52L338.14,342.82L339.43,342.1L340.71,341.32L342,340.38L343.29,339.38L344.57,338.37L345.86,337.46L347.14,336.68L348.43,335.73L349.71,334.78L351,333.68L352.29,332.52L353.57,331.3L354.86,330.18L356.14,329.3L357.43,328.11L358.71,326.95L360,325.7L361.29,324.34L362.57,322.94L363.86,321.77L365.14,320.64L366.43,319.26L367.71,317.9L369,316.64L370.29,315.18L371.57,313.6L372.86,312.13L374.14,310.94L375.43,309.71L376.71,308.34L378,306.75L379.29,305.16L380.57,303.56L381.86,302.1L383.14,300.93L384.43,299.62L385.71,298.12L387,296.58L388.29,294.98L389.57,293.34L390.86,291.9L392.14,290.7L393.43,289.41L394.71,287.96L396,286.4L397.29,284.97L398.57,283.28L399.86,281.85L401.14,280.65L402.43,279.4L403.71,277.9L405,276.3L406.29,274.6L407.57,272.92L408.86,271.34L410.14,270.02L411.43,268.74L412.71,267.17L414,265.52L415.29,261.85L416.57,260.12L417.86,258.56L419.14,257.26L420.43,255.97L421.71,254.41L423,252.61L424.29,250.79L425.57,249.02L426.86,247.52L428.14,246.21L429.43,244.87L430.71,243.27L432,241.56L433.29,239.93L434.57,238.79L435.86,237.53L437.14,236.45L438.43,235.23L439.71,233.6L441,231.74L442.29,229.96L443.57,228.65L444.86,227.11L446.14,225.8L447.43,224.45L448.71,222.63L450,220.71L451.29,218.55L452.57,216.57L453.86,214.71L455.14,213.26L456.43,211.74L457.71,210.01L459,208.17L460.29,206.32L461.57,204.44L462.86,202.87L464.14,201.57L465.43,200.31L466.71,198.81L468,197.11L469.29,195.5L470.57,193.88L471.86,192.49L473.14,191.4L474.43,190.18L475.71,188.81L477,187.34L478.29,185.84L479.57,184.39L480.86,183.12L482.14,182.19L483.43,181.09L484.71,179.97L486,178.69L487.29,177.54L488.57,176.23L489.86,175.31L491.14,174.34L492.43,173.56L493.71,172.51L495,171.44L496.29,170.36L497.57,169.31L498.86,168.39L500.14,167.67L501.43,166.97L502.71,166.11L504,165.14L505.29,164.15L506.57,163.14L507.86,162.23L509.14,161.46L510.43,160.75L511.71,159.8L513,158.7L514.29,157.61L515.57,156.52L516.86,155.56L518.14,154.82L519.43,154.07L520.71,153.31L522,152.23L523.29,151.11L524.57,150.02L525.86,149.01L527.14,148.11L528.43,147.37L529.71,146.35L531,145.21L532.29,144.04L533.57,142.84L534.86,141.72L536.14,140.84L537.43,139.98L538.71,138.82L540,137.5L541.29,136.14L542.57,134.76L543.86,133.54L545.14,132.5L546.43,131.48L547.71,130.21L549,128.66L550.29,127.06L551.57,125.49L552.86,124.05L554.14,122.9L555.43,121.78L556.71,120.38L558,118.7L559.29,116.96L560.57,115.4L561.86,114.1L563.14,112.75L564.43,111.55L565.71,110.06L567,108.38L568.29,106.32L569.57,104.49L570.86,102.86L572.14,101.16L573.43,99.65L574.71,97.74L576,95.73L577.29,93.73L578.57,91.63L579.86,89.7L581.14,88.01L582.43,86.31L583.71,84.21L585,82.03L586.29,79.82L587.57,77.61L588.86,75.59L590.14,73.82L591.43,72.14L592.71,70.07L594,67.85L595.29,65.65L596.57,63.49L597.86,61.53L599.14,59.88L600.43,58.21L601.71,56.22L603,54.16L604.29,52.03L605.57,49.99L606.86,48.05L608.14,46.48L609.43,44.95L610.71,43.14L612,41.28L613.29,39.5L614.57,37.74L615.86,36.2L617.14,34.85L618.43,33.53L619.71,32L621,30.35L622.29,29.67L623.57,28.13L624.86,26.71L626.14,25.55L627.43,24.43L628.71,23.13L630,21.75L630,295.79L628.71,295.8L627.43,295.69L626.14,295.27L624.86,295.21L623.57,295.11L622.29,295.14L621,294.26L619.71,294.19L618.43,293.9L617.14,293.39L615.86,293.1L614.57,293.07L613.29,293.19L612,293.28L610.71,293.56L609.43,293.53L608.14,293.51L606.86,293.46L605.57,293.64L604.29,293.98L603,294.45L601.71,294.77L600.43,295.14L599.14,295.23L597.86,295.18L596.57,295.46L595.29,295.94L594,296.4L592.71,297.16L591.43,297.56L590.14,297.55L588.86,298.01L587.57,298.61L586.29,299.26L585,299.91L583.71,300.84L582.43,301.45L581.14,301.84L579.86,302.09L578.57,302.76L577.29,303.62L576,304.53L574.71,305.44L573.43,306.16L572.14,306.7L570.86,307.09L569.57,307.78L568.29,308.5L567,309.59L565.71,310.09L564.43,310.66L563.14,311.01L561.86,311.51L560.57,311.91L559.29,312.68L558,313.58L556.71,314.32L555.43,314.89L554.14,315.27L552.86,315.62L551.57,316.3L550.29,316.98L549,317.81L547.71,318.55L546.43,319.04L545.14,319.24L543.86,319.59L542.57,320.18L541.29,320.88L540,321.57L538.71,322.25L537.43,322.76L536.14,322.9L534.86,323.18L533.57,323.68L532.29,324.22L531,324.72L529.71,325.29L528.43,325.66L527.14,325.72L525.86,326.04L524.57,326.47L523.29,327.01L522,327.51L520.71,328.03L519.43,328.12L518.14,328.35L516.86,328.66L515.57,329L514.29,329.45L513,329.99L511.71,330.57L510.43,330.84L509.14,331.1L507.86,331.34L506.57,331.59L505.29,332.02L504,332.43L502.71,332.68L501.43,332.96L500.14,332.95L498.86,333.19L497.57,333.5L496.29,333.85L495,334.26L493.71,334.66L492.43,334.8L491.14,335.01L489.86,335.3L488.57,335.49L487.29,336.12L486,336.54L484.71,337.01L483.43,337.28L482.14,337.7L480.86,337.93L479.57,338.33L478.29,338.89L477,339.62L475.71,340.26L474.43,340.81L473.14,341.26L471.86,341.59L470.57,342.21L469.29,342.89L468,343.6L466.71,344.5L465.43,345L464.14,345.48L462.86,346.01L461.57,346.8L460.29,347.89L459,348.83L457.71,349.77L456.43,350.66L455.14,351.47L453.86,352.25L452.57,353.31L451.29,354.55L450,355.91L448.71,357.07L447.43,358.11L446.14,358.76L444.86,359.41L443.57,360.2L442.29,360.82L441,361.93L439.71,362.84L438.43,363.61L437.14,364.09L435.86,364.45L434.57,364.71L433.29,365.13L432,366L430.71,366.91L429.43,367.61L428.14,368.12L426.86,368.75L425.57,369.38L424.29,370.37L423,371.27L421.71,372.18L420.43,372.86L419.14,373.39L417.86,373.73L416.57,371.59L415.29,372.15L414,374.62L412.71,375.21L411.43,375.71L410.14,375.97L408.86,376.52L407.57,377.03L406.29,377.5L405,378.16L403.71,378.62L402.43,378.95L401.14,379.21L399.86,379.63L398.57,380.19L397.29,380.94L396,381.46L394.71,381.95L393.43,382.49L392.14,382.77L390.86,383.29L389.57,383.9L388.29,384.67L387,385.36L385.71,386L384.43,386.44L383.14,386.79L381.86,387.39L380.57,388.17L379.29,389.03L378,390.07L376.71,390.72L375.43,391.47L374.14,392.07L372.86,392.63L371.57,393.36L370.29,394.24L369,394.96L367.71,395.53L366.43,396.27L365.14,396.96L363.86,397.46L362.57,398.03L361.29,398.81L360,399.55L358.71,400.16L357.43,399.86L356.14,400.47L354.86,400.87L353.57,401.47L352.29,402.18L351,402.79L349.71,403.36L348.43,403.8L347.14,404.25L345.86,404.53L344.57,404.96L343.29,405.47L342,405.96L340.71,406.38L339.43,406.69L338.14,406.92L336.86,407.07L335.57,407.47L334.29,407.85L333,408.2L331.71,408.43L330.43,408.66L329.14,408.82L327.86,408.91L326.57,409.1L325.29,409.41L324,409.65L322.71,409.84L321.43,409.94L320.14,410.02L318.86,410.11L317.57,410.18L316.29,410.4L315,410.64L313.71,410.67L312.43,410.83L311.14,410.91L309.86,410.94L308.57,411.08L307.29,411.26L306,411.49L304.71,411.68L303.43,411.82L302.14,411.91L300.86,412.04L299.57,412.2L298.29,412.44L297,412.64L295.71,412.75L294.43,412.85L293.14,412.9L291.86,412.95L290.57,413.12L289.29,413.36L288,413.51L286.71,413.67L285.43,413.69L284.14,413.84L282.86,413.87L281.57,413.99L280.29,414.2L279,414.39L277.71,414.53L276.43,414.56L275.14,414.63L273.86,414.6L272.57,414.73L271.29,414.96L270,415.12L268.71,415.27L267.43,415.35L266.14,415.34L264.86,415.29L263.57,415.49L262.29,415.54L261,415.84L259.71,415.93L258.43,415.82L257.14,415.97L255.86,416.08L254.57,416.22L253.29,416.45L252,416.68L250.71,416.82L249.43,416.9L248.14,416.86L246.86,417.09L245.57,417.25L244.29,417.48L243,417.64L241.71,417.86L240.43,418.06L239.14,418.2L237.86,418.37L236.57,418.45L235.29,418.58L234,418.84L232.71,419.09L231.43,419.23L230.14,419.35L228.86,419.66L227.57,419.87L226.29,420.01L225,420.26L223.71,420.43L222.43,420.63L221.14,420.75L219.86,420.95L218.57,421.17L217.29,421.4L216,421.63L214.71,421.77L213.43,421.93L212.14,422.03L210.86,422.19L209.57,422.18L208.29,422.41L207,422.22L205.71,422.47L204.43,422.61L203.14,422.76L201.86,422.94L200.57,423.12L199.29,423.33L198,423.54L196.71,423.68L195.43,423.83L194.14,423.95L192.86,424.1L191.57,424.2L190.29,424.41L189,424.55L187.71,424.61L186.43,424.72L185.14,424.82L183.86,424.97L182.57,425.09L181.29,425.21L180,425.34L178.71,425.48L177.43,425.58L176.14,425.46L174.86,425.6L173.57,425.75L172.29,425.91L171,426.06L169.71,426.14L168.43,426.19L167.14,426.29L165.86,426.36L164.57,426.52L163.29,426.63L162,426.76L160.71,426.85L159.43,426.95L158.14,427.01L156.86,427.1L155.57,427.22L154.29,427.22L153,427.35L151.71,427.46L150.43,427.57L149.14,427.66L147.86,427.75L146.57,427.84L145.29,427.96L144,428.1L142.71,428.17L141.43,428.29L140.14,428.36L138.86,428.46L137.57,428.54L136.29,428.67L135,428.79L133.71,428.9L132.43,429.01L131.14,429.11L129.86,429.22L128.57,429.32L127.29,429.44L126,429.48L124.71,429.57L123.43,429.67L122.14,429.78L120.86,429.88L119.57,430.02L118.29,430.1L117,430.24L115.71,430.36L114.43,430.46L113.14,430.59L111.86,430.7L110.57,430.84L109.29,430.99L108,431.15L106.71,431.25L105.43,431.39L104.14,431.5L102.86,431.74L101.57,431.86L100.29,432.02L99,432.17L97.71,432.3L96.43,432.42L95.14,432.56L93.86,432.7L92.57,432.79L91.29,432.96L90,433.12L88.71,433.29L87.43,433.44L86.14,433.57L84.86,433.69L83.57,433.83L82.29,433.97L81,434.1L79.71,434.21L78.43,434.29L77.14,434.4L75.86,434.47L74.57,434.53L73.29,434.6L72,434.67L70.71,434.71L69.43,434.74L68.14,434.77L66.86,434.79L65.57,434.81L64.29,434.84L63,434.85L61.71,434.87L60.43,434.87L59.14,434.88L57.86,434.88L56.57,434.89L55.29,434.89L54,434.89L52.71,434.89L51.43,434.89L50.14,434.89L48.86,434.89L47.57,434.88L46.29,434.88L45,434.87L43.71,434.87L42.43,434.87L41.14,434.86L39.86,434.86L38.57,434.86L37.29,434.86L36,434.85L34.71,434.85L33.43,434.85L32.14,434.85L30.86,434.85L29.57,434.86L28.29,434.87L27,434.9L25.71,434.9L24.43,434.9L23.14,434.91L21.86,434.92L20.57,434.92L19.29,434.93L18,434.93L16.71,434.94L15.43,434.95L14.14,434.96L12.86,434.97L11.57,434.98L10.29,434.98L9,434.99L7.71,434.99L6.43,434.99L5.14,434.99L3.86,435L2.57,435L1.29,435L0,435Z" style="fill: rgb(34, 139, 34); fill-opacity: 1; stroke-width: 0;"/></g></g><g class="errorbars"/><g class="lines"/><g class="points"/><g class="text"/></g><g class="trace scatter tracecdcbc4" style="stroke-miterlimit: 2;"><g class="fills"/><g class="errorbars"/><g class="lines"/><g class="points"/><g class="text"/></g></g></g><g class="overplot"/><path class="xlines-above crisp" style="fill: none;" d="M0,0"/><path class="ylines-above crisp" style="fill: none;" d="M0,0"/><g class="overlines-above"/><g class="xaxislayer-above"><g class="xtick"><text text-anchor="middle" x="0" y="473" transform="translate(110.14,0)" style="font-family: 'Open Sans', verdana, arial, sans-serif; font-size: 12px; fill: rgb(68, 68, 68); fill-opacity: 1; white-space: pre;">Mar 2020</text></g><g class="xtick"><text text-anchor="middle" x="0" y="473" transform="translate(188.57,0)" style="font-family: 'Open Sans', verdana, arial, sans-serif; font-size: 12px; fill: rgb(68, 68, 68); fill-opacity: 1; white-space: pre;">May 2020</text></g><g class="xtick"><text text-anchor="middle" x="0" y="473" transform="translate(267,0)" style="font-family: 'Open Sans', verdana, arial, sans-serif; font-size: 12px; fill: rgb(68, 68, 68); fill-opacity: 1; white-space: pre;">Jul 2020</text></g><g class="xtick"><text text-anchor="middle" x="0" y="473" transform="translate(346.71,0)" style="font-family: 'Open Sans', verdana, arial, sans-serif; font-size: 12px; fill: rgb(68, 68, 68); fill-opacity: 1; white-space: pre;">Sep 2020</text></g><g class="xtick"><text text-anchor="middle" x="0" y="473" transform="translate(425.14,0)" style="font-family: 'Open Sans', verdana, arial, sans-serif; font-size: 12px; fill: rgb(68, 68, 68); fill-opacity: 1; white-space: pre;">Nov 2020</text></g><g class="xtick"><text text-anchor="middle" x="0" y="473" transform="translate(503.57,0)" style="font-family: 'Open Sans', verdana, arial, sans-serif; font-size: 12px; fill: rgb(68, 68, 68); fill-opacity: 1; white-space: pre;">Jan 2021</text></g><g class="xtick"><text text-anchor="middle" x="0" y="473" transform="translate(579.43,0)" style="font-family: 'Open Sans', verdana, arial, sans-serif; font-size: 12px; fill: rgb(68, 68, 68); fill-opacity: 1; white-space: pre;">Mar 2021</text></g><g class="xtick"><text text-anchor="middle" x="0" y="473" transform="translate(657.86,0)" style="font-family: 'Open Sans', verdana, arial, sans-serif; font-size: 12px; fill: rgb(68, 68, 68); fill-opacity: 1; white-space: pre;">May 2021</text></g></g><g class="yaxislayer-above"><g class="ytick"><text text-anchor="end" x="59" y="4.199999999999999" transform="translate(0,460)" style="font-family: 'Open Sans', verdana, arial, sans-serif; font-size: 12px; fill: rgb(68, 68, 68); fill-opacity: 1; white-space: pre;">0</text></g><g class="ytick"><text text-anchor="end" x="59" y="4.199999999999999" transform="translate(0,410.92)" style="font-family: 'Open Sans', verdana, arial, sans-serif; font-size: 12px; fill: rgb(68, 68, 68); fill-opacity: 1; white-space: pre;">20M</text></g><g class="ytick"><text text-anchor="end" x="59" y="4.199999999999999" transform="translate(0,361.85)" style="font-family: 'Open Sans', verdana, arial, sans-serif; font-size: 12px; fill: rgb(68, 68, 68); fill-opacity: 1; white-space: pre;">40M</text></g><g class="ytick"><text text-anchor="end" x="59" y="4.199999999999999" transform="translate(0,312.77)" style="font-family: 'Open Sans', verdana, arial, sans-serif; font-size: 12px; fill: rgb(68, 68, 68); fill-opacity: 1; white-space: pre;">60M</text></g><g class="ytick"><text text-anchor="end" x="59" y="4.199999999999999" transform="translate(0,263.69)" style="font-family: 'Open Sans', verdana, arial, sans-serif; font-size: 12px; fill: rgb(68, 68, 68); fill-opacity: 1; white-space: pre;">80M</text></g><g class="ytick"><text text-anchor="end" x="59" y="4.199999999999999" transform="translate(0,214.61)" style="font-family: 'Open Sans', verdana, arial, sans-serif; font-size: 12px; fill: rgb(68, 68, 68); fill-opacity: 1; white-space: pre;">100M</text></g><g class="ytick"><text text-anchor="end" x="59" y="4.199999999999999" transform="translate(0,165.54)" style="font-family: 'Open Sans', verdana, arial, sans-serif; font-size: 12px; fill: rgb(68, 68, 68); fill-opacity: 1; white-space: pre;">120M</text></g><g class="ytick"><text text-anchor="end" x="59" y="4.199999999999999" transform="translate(0,116.46)" style="font-family: 'Open Sans', verdana, arial, sans-serif; font-size: 12px; fill: rgb(68, 68, 68); fill-opacity: 1; white-space: pre;">140M</text></g><g class="ytick"><text text-anchor="end" x="59" y="4.199999999999999" transform="translate(0,67.38)" style="font-family: 'Open Sans', verdana, arial, sans-serif; font-size: 12px; fill: rgb(68, 68, 68); fill-opacity: 1; white-space: pre;">160M</text></g></g><g class="overaxes-above"/></g></g><g class="polarlayer"/><g class="ternarylayer"/><g class="geolayer"/><g class="funnelarealayer"/><g class="pielayer"/><g class="treemaplayer"/><g class="sunburstlayer"/><g class="glimages"/><defs id="topdefs-8f1da6"><g class="clips"/><clipPath id="legend8f1da6"><rect width="109" height="67" x="0" y="0"/></clipPath></defs><g class="layer-above"><g class="imagelayer"/><g class="shapelayer"/></g><g class="infolayer"><g class="legend" pointer-events="all" transform="translate(123, 68.5)"><rect class="bg" shape-rendering="crispEdges" style="stroke: rgb(68, 68, 68); stroke-opacity: 1; fill: rgb(255, 255, 255); fill-opacity: 1; stroke-width: 0px;" width="109" height="67" x="0" y="0"/><g class="scrollbox" transform="translate(0, 0)" clip-path="url('#legend8f1da6')"><g class="groups"><g class="traces" style="opacity: 1;" transform="translate(0, 14.5)"><text class="legendtext" text-anchor="start" x="40" y="4.680000000000001" style="font-family: 'Open Sans', verdana, arial, sans-serif; font-size: 12px; fill: rgb(68, 68, 68); fill-opacity: 1; white-space: pre;">Recovered</text><g class="layers"><g class="legendfill"><path class="js-fill" d="M5,-3h30v6h-30z" style="stroke-width: 0; fill: rgb(34, 139, 34); fill-opacity: 1;"/></g><g class="legendlines"/><g class="legendsymbols"><g class="legendpoints"/></g></g><rect class="legendtoggle" x="0" y="-9.5" width="103.03125" height="19" style="fill: rgb(0, 0, 0); fill-opacity: 0;"/></g><g class="traces" style="opacity: 1;" transform="translate(0, 33.5)"><text class="legendtext" text-anchor="start" x="40" y="4.680000000000001" style="font-family: 'Open Sans', verdana, arial, sans-serif; font-size: 12px; fill: rgb(68, 68, 68); fill-opacity: 1; white-space: pre;">Death</text><g class="layers"><g class="legendfill"><path class="js-fill" d="M5,-3h30v6h-30z" style="stroke-width: 0; fill: rgb(228, 19, 23); fill-opacity: 1;"/></g><g class="legendlines"/><g class="legendsymbols"><g class="legendpoints"/></g></g><rect class="legendtoggle" x="0" y="-9.5" width="103.03125" height="19" style="fill: rgb(0, 0, 0); fill-opacity: 0;"/></g><g class="traces" style="opacity: 1;" transform="translate(0, 52.5)"><text class="legendtext" text-anchor="start" x="40" y="4.680000000000001" style="font-family: 'Open Sans', verdana, arial, sans-serif; font-size: 12px; fill: rgb(68, 68, 68); fill-opacity: 1; white-space: pre;">Active</text><g class="layers"><g class="legendfill"><path class="js-fill" d="M5,-3h30v6h-30z" style="stroke-width: 0; fill: rgb(31, 119, 180); fill-opacity: 1;"/></g><g class="legendlines"/><g class="legendsymbols"><g class="legendpoints"/></g></g><rect class="legendtoggle" x="0" y="-9.5" width="103.03125" height="19" style="fill: rgb(0, 0, 0); fill-opacity: 0;"/></g></g></g><rect class="scrollbar" rx="20" ry="3" width="0" height="0" style="fill: rgb(128, 139, 164); fill-opacity: 1;" x="0" y="0"/></g><g class="g-gtitle"><text class="gtitle" x="350" y="12.5" text-anchor="middle" dy="0em" style="font-family: 'Open Sans', verdana, arial, sans-serif; font-size: 17px; fill: rgb(68, 68, 68); opacity: 1; font-weight: normal; white-space: pre;">Distribution of Covid19 Cases Worldwide</text></g><g class="g-xtitle" transform="translate(0,-15)"><text class="xtitle" x="375" y="512" text-anchor="middle" style="font-family: 'Open Sans', verdana, arial, sans-serif; font-size: 14px; fill: rgb(68, 68, 68); opacity: 1; font-weight: normal; white-space: pre;">Source: Johns Hopkins University Center for Systems Science and Engineering</text></g><g class="g-ytitle" transform="translate(-1,0)"><text class="ytitle" transform="rotate(-90,22,242.5)" x="22" y="242.5" text-anchor="middle" style="font-family: 'Open Sans', verdana, arial, sans-serif; font-size: 14px; fill: rgb(68, 68, 68); opacity: 1; font-weight: normal; white-space: pre;">Number of Cases</text></g></g></svg>