<svg class="main-svg" xmlns="http://www.w3.org/2000/svg" xmlns:xlink="http://www.w3.org/1999/xlink" width="700" height="500" style="" viewBox="0 0 700 500"><rect x="0" y="0" width="700" height="500" style="fill: rgb(255, 255, 255); fill-opacity: 1;"/><defs id="defs-d30529"><g class="clips"><clipPath id="clipd30529xyplot" class="plotclip"><rect width="630" height="435"/></clipPath><clipPath class="axesclip" id="clipd30529x"><rect x="60" y="0" width="630" height="500"/></clipPath><clipPath class="axesclip" id="clipd30529y"><rect x="0" y="25" width="700" height="435"/></clipPath><clipPath class="axesclip" id="clipd30529xy"><rect x="60" y="25" width="630" height="435"/></clipPath></g><g class="gradients"/></defs><g class="bglayer"/><g class="layer-below"><g class="imagelayer"/><g class="shapelayer"/></g><g class="cartesianlayer"><g class="subplot xy"><g class="layer-subplot"><g class="shapelayer"/><g class="imagelayer"/></g><g class="gridlayer"><g class="x"><path class="xgrid crisp" transform="translate(127.13,0)" d="M0,25v435" style="stroke: rgb(238, 238, 238); stroke-opacity: 1; stroke-width: 1px;"/><path class="xgrid crisp" transform="translate(232.13,0)" d="M0,25v435" style="stroke: rgb(238, 238, 238); stroke-opacity: 1; stroke-width: 1px;"/><path class="xgrid crisp" transform="translate(337.13,0)" d="M0,25v435" style="stroke: rgb(238, 238, 238); stroke-opacity: 1; stroke-width: 1px;"/><path class="xgrid crisp" transform="translate(443.85,0)" d="M0,25v435" style="stroke: rgb(238, 238, 238); stroke-opacity: 1; stroke-width: 1px;"/><path class="xgrid crisp" transform="translate(548.85,0)" d="M0,25v435" style="stroke: rgb(238, 238, 238); stroke-opacity: 1; stroke-width: 1px;"/><path class="xgrid crisp" transform="translate(653.85,0)" d="M0,25v435" style="stroke: rgb(238, 238, 238); stroke-opacity: 1; stroke-width: 1px;"/></g><g class="y"><path class="ygrid crisp" transform="translate(0,375.82)" d="M60,0h630" style="stroke: rgb(238, 238, 238); stroke-opacity: 1; stroke-width: 1px;"/><path class="ygrid crisp" transform="translate(0,291.63)" d="M60,0h630" style="stroke: rgb(238, 238, 238); stroke-opacity: 1; stroke-width: 1px;"/><path class="ygrid crisp" transform="translate(0,207.45)" d="M60,0h630" style="stroke: rgb(238, 238, 238); stroke-opacity: 1; stroke-width: 1px;"/><path class="ygrid crisp" transform="translate(0,123.26)" d="M60,0h630" style="stroke: rgb(238, 238, 238); stroke-opacity: 1; stroke-width: 1px;"/><path class="ygrid crisp" transform="translate(0,39.08)" d="M60,0h630" style="stroke: rgb(238, 238, 238); stroke-opacity: 1; stroke-width: 1px;"/></g></g><g class="zerolinelayer"><path class="yzl zl crisp" transform="translate(0,460)" d="M60,0h630" style="stroke: rgb(68, 68, 68); stroke-opacity: 1; stroke-width: 1px;"/></g><path class="xlines-below"/><path class="ylines-below"/><g class="overlines-below"/><g class="xaxislayer-below"/><g class="yaxislayer-below"/><g class="overaxes-below"/><g class="plot" transform="translate(60, 25)" clip-path="url('#clipd30529xyplot')"><g class="scatterlayer mlayer"><g class="trace scatter tracee7733c" style="stroke-miterlimit: 2;"><g class="fills"><g><path class="js-fill" d="M630,435L0,435L0,435L1.72,435L3.44,435L5.16,434.99L6.89,434.99L8.61,434.99L10.33,434.98L12.05,434.98L13.77,434.97L15.49,434.96L17.21,434.95L18.93,434.93L20.66,434.92L22.38,434.91L24.1,434.89L25.82,434.88L27.54,434.87L29.26,434.86L30.98,434.85L32.7,434.84L34.43,434.84L36.15,434.84L37.87,434.78L39.59,434.76L41.31,434.76L43.03,434.75L44.75,434.75L46.48,434.75L48.2,434.76L49.92,434.77L51.64,434.77L53.36,434.78L55.08,434.78L56.8,434.78L58.52,434.79L60.25,434.8L61.97,434.8L63.69,434.81L65.41,434.82L67.13,434.82L68.85,434.82L70.57,434.82L72.3,434.83L74.02,434.83L75.74,434.82L77.46,434.81L79.18,434.81L80.9,434.8L82.62,434.79L84.34,434.77L86.07,434.75L87.79,434.7L89.51,434.67L91.23,434.63L92.95,434.58L94.67,434.53L96.39,434.46L98.11,434.36L99.84,434.25L101.56,434.14L103.28,434.03L105,433.86L106.72,433.73L108.44,433.55L110.16,433.34L111.89,433.12L113.61,432.88L115.33,432.69L117.05,432.5L118.77,432.25L120.49,431.99L122.21,431.74L123.93,431.48L125.66,431.34L127.38,431.12L129.1,430.9L130.82,430.74L132.54,430.54L134.26,430.31L135.98,430.08L137.7,429.9L139.43,429.5L141.15,429.34L142.87,429.12L144.59,428.99L146.31,428.75L148.03,428.52L149.75,428.32L151.48,428.16L153.2,427.96L154.92,427.81L156.64,427.63L158.36,427.42L160.08,427.31L161.8,427.1L163.52,426.94L165.25,426.78L166.97,426.63L168.69,426.51L170.41,426.46L172.13,426.27L173.85,426.13L175.57,425.96L177.3,425.79L179.02,425.63L180.74,425.48L182.46,425.29L184.18,425.09L185.9,424.97L187.62,424.81L189.34,424.7L191.07,424.53L192.79,424.43L194.51,424.21L196.23,424.03L197.95,423.89L199.67,423.74L201.39,423.61L203.11,423.44L204.84,423.28L206.56,423.07L208.28,423.1L210,422.9L211.72,422.75L213.44,422.66L215.16,422.52L216.89,422.37L218.61,422.17L220.33,422.01L222.05,421.74L223.77,421.63L225.49,421.47L227.21,421.42L228.93,421.29L230.66,421.06L232.38,420.82L234.1,420.57L235.82,420.34L237.54,420.56L239.26,420.41L240.98,420.19L242.7,419.99L244.43,419.81L246.15,419.62L247.87,419.37L249.59,419.22L251.31,419.06L253.03,418.98L254.75,418.75L256.48,418.42L258.2,418.27L259.92,418.04L261.64,417.85L263.36,417.61L265.08,417.4L266.8,417.06L268.52,416.72L270.25,416.44L271.97,416.14L273.69,415.9L275.41,415.69L277.13,415.28L278.85,415.62L280.57,415.26L282.3,415.28L284.02,415.02L285.74,414.87L287.46,414.62L289.18,414.4L290.9,414.04L292.62,413.67L294.34,413.3L296.07,412.98L297.79,412.78L299.51,412.47L301.23,412.19L302.95,411.8L304.67,411.58L306.39,411.24L308.11,410.73L309.84,410.55L311.56,410.32L313.28,409.93L315,409.52L316.72,409.32L318.44,409.2L320.16,408.92L321.89,408.71L323.61,408.39L325.33,408.05L327.05,407.79L328.77,407.43L330.49,407.19L332.21,406.81L333.93,406.9L335.66,406.78L337.38,406.58L339.1,406.21L340.82,405.85L342.54,405.63L344.26,405.46L345.98,405.21L347.7,405.44L349.43,405.32L351.15,404.81L352.87,404.77L354.59,404.46L356.31,404.55L358.03,404.58L359.75,404.48L361.48,404.25L363.2,404L364.92,403.64L366.64,403.43L368.36,403.49L370.08,403.4L371.8,403.37L373.52,403.15L375.25,402.86L376.97,402.52L378.69,402.32L380.41,402.29L382.13,402.05L383.85,402.05L385.57,401.8L387.3,401.58L389.02,401.18L390.74,400.91L392.46,400.84L394.18,400.8L395.9,400.65L397.62,400.49L399.34,400.16L401.07,399.78L402.79,399.53L404.51,399.31L406.23,399.18L407.95,398.96L409.67,398.67L411.39,398.3L413.11,398.01L414.84,397.8L416.56,397.75L418.28,397.64L420,397.39L421.72,397.36L423.44,396.98L425.16,396.62L426.89,396.54L428.61,396.39L430.33,396.27L432.05,396.12L433.77,395.82L435.49,395.45L437.21,394.95L438.93,394.65L440.66,394.5L442.38,394.26L444.1,393.89L445.82,393.51L447.54,392.94L449.26,392.32L450.98,391.66L452.7,391.41L454.43,391.04L456.15,390.53L457.87,389.84L459.59,389.02L461.31,388.17L463.03,387.46L464.75,386.99L466.48,386.23L468.2,385.52L469.92,384.56L471.64,383.55L473.36,382.36L475.08,381.35L476.8,380.68L478.52,379.67L480.25,380.2L481.97,379.2L483.69,377.95L485.41,376.66L487.13,375.71L488.85,374.87L490.57,373.7L492.3,372.47L494.02,371.54L495.74,370.34L497.46,368.88L499.18,367.66L500.9,366.71L502.62,365.71L504.34,364.49L506.07,363.4L507.79,361.66L509.51,360.23L511.23,358.93L512.95,357.93L514.67,357.36L516.39,356.67L518.11,355.61L519.84,354.48L521.56,353.21L523.28,352.2L525,351.32L526.72,350.88L528.44,350.01L530.16,349.23L531.89,348.36L533.61,347.13L535.33,346.21L537.05,345.52L538.77,345.11L540.49,344.6L542.21,343.87L543.93,342.84L545.66,342.09L547.38,341.27L549.1,340.35L550.82,339.94L552.54,339.15L554.26,338.18L555.98,334L557.7,333.11L559.43,336.89L561.15,336.27L562.87,335.4L564.59,334.29L566.31,332.79L568.03,331.31L569.75,329.68L571.48,328.64L573.2,327.57L574.92,326.74L576.64,325.6L578.36,324.1L580.08,322.68L581.8,321.96L583.52,321.56L585.25,320.95L586.97,320.16L588.69,318.94L590.41,317.42L592.13,315.62L593.85,314.57L595.57,313.27L597.3,312.17L599.02,311.1L600.74,309.4L602.46,307.5L604.18,305.31L605.9,303.17L607.62,301.41L609.34,300.08L611.07,298.74L612.79,297.29L614.51,295.74L616.23,294.18L617.95,292.38L619.67,291.17L621.39,290.21L623.11,289.42L624.84,288.61L626.56,287.16L628.28,286.01L630,284.92" style="fill: rgb(31, 119, 180); fill-opacity: 1; stroke-width: 0;"/></g><g><path class="js-fill" d="M0,435L1.72,435L3.44,435L5.16,434.99L6.89,434.99L8.61,434.99L10.33,434.98L12.05,434.97L13.77,434.97L15.49,434.96L17.21,434.95L18.93,434.93L20.66,434.92L22.38,434.9L24.1,434.89L25.82,434.88L27.54,434.86L29.26,434.85L30.98,434.84L32.7,434.84L34.43,434.83L36.15,434.83L37.87,434.77L39.59,434.75L41.31,434.75L43.03,434.75L44.75,434.74L46.48,434.74L48.2,434.75L49.92,434.76L51.64,434.76L53.36,434.77L55.08,434.77L56.8,434.77L58.52,434.78L60.25,434.79L61.97,434.79L63.69,434.8L65.41,434.81L67.13,434.81L68.85,434.81L70.57,434.81L72.3,434.81L74.02,434.81L75.74,434.81L77.46,434.8L79.18,434.79L80.9,434.78L82.62,434.77L84.34,434.75L86.07,434.73L87.79,434.68L89.51,434.64L91.23,434.61L92.95,434.55L94.67,434.5L96.39,434.43L98.11,434.32L99.84,434.2L101.56,434.08L103.28,433.96L105,433.78L106.72,433.65L108.44,433.46L110.16,433.23L111.89,433L113.61,432.75L115.33,432.54L117.05,432.33L118.77,432.06L120.49,431.78L122.21,431.5L123.93,431.21L125.66,431.05L127.38,430.81L129.1,430.57L130.82,430.37L132.54,430.14L134.26,429.88L135.98,429.62L137.7,429.41L139.43,428.99L141.15,428.81L142.87,428.56L144.59,428.39L146.31,428.12L148.03,427.86L149.75,427.63L151.48,427.44L153.2,427.22L154.92,427.05L156.64,426.83L158.36,426.6L160.08,426.45L161.8,426.22L163.52,426.04L165.25,425.87L166.97,425.69L168.69,425.54L170.41,425.46L172.13,425.25L173.85,425.09L175.57,424.9L177.3,424.72L179.02,424.54L180.74,424.35L182.46,424.14L184.18,423.92L185.9,423.78L187.62,423.61L189.34,423.48L191.07,423.29L192.79,423.16L194.51,422.93L196.23,422.72L197.95,422.56L199.67,422.41L201.39,422.26L203.11,422.07L204.84,421.89L206.56,421.65L208.28,421.66L210,421.45L211.72,421.29L213.44,421.19L215.16,421.03L216.89,420.86L218.61,420.64L220.33,420.46L222.05,420.18L223.77,420.05L225.49,419.88L227.21,419.81L228.93,419.66L230.66,419.4L232.38,419.14L234.1,418.88L235.82,418.64L237.54,418.85L239.26,418.67L240.98,418.44L242.7,418.22L244.43,418.01L246.15,417.8L247.87,417.54L249.59,417.38L251.31,417.19L253.03,417.09L254.75,416.84L256.48,416.48L258.2,416.31L259.92,416.06L261.64,415.86L263.36,415.6L265.08,415.37L266.8,415.01L268.52,414.65L270.25,414.35L271.97,414.04L273.69,413.79L275.41,413.55L277.13,413.12L278.85,413.44L280.57,413.05L282.3,413.06L284.02,412.79L285.74,412.62L287.46,412.34L289.18,412.1L290.9,411.71L292.62,411.32L294.34,410.94L296.07,410.6L297.79,410.38L299.51,410.05L301.23,409.74L302.95,409.33L304.67,409.08L306.39,408.72L308.11,408.19L309.84,407.99L311.56,407.74L313.28,407.32L315,406.87L316.72,406.64L318.44,406.5L320.16,406.21L321.89,405.98L323.61,405.63L325.33,405.25L327.05,404.97L328.77,404.59L330.49,404.32L332.21,403.93L333.93,404L335.66,403.85L337.38,403.62L339.1,403.22L340.82,402.84L342.54,402.59L344.26,402.4L345.98,402.13L347.7,402.34L349.43,402.18L351.15,401.65L352.87,401.56L354.59,401.23L356.31,401.31L358.03,401.32L359.75,401.19L361.48,400.93L363.2,400.66L364.92,400.27L366.64,400.04L368.36,400.08L370.08,399.97L371.8,399.92L373.52,399.68L375.25,399.35L376.97,399L378.69,398.77L380.41,398.73L382.13,398.47L383.85,398.44L385.57,398.17L387.3,397.92L389.02,397.49L390.74,397.2L392.46,397.12L394.18,397.04L395.9,396.87L397.62,396.68L399.34,396.33L401.07,395.92L402.79,395.65L404.51,395.42L406.23,395.27L407.95,395.02L409.67,394.71L411.39,394.31L413.11,394L414.84,393.77L416.56,393.7L418.28,393.57L420,393.3L421.72,393.25L423.44,392.84L425.16,392.46L426.89,392.35L428.61,392.19L430.33,392.05L432.05,391.88L433.77,391.55L435.49,391.14L437.21,390.62L438.93,390.29L440.66,390.13L442.38,389.86L444.1,389.47L445.82,389.06L447.54,388.47L449.26,387.82L450.98,387.14L452.7,386.87L454.43,386.48L456.15,385.95L457.87,385.24L459.59,384.4L461.31,383.52L463.03,382.79L464.75,382.3L466.48,381.52L468.2,380.78L469.92,379.79L471.64,378.76L473.36,377.54L475.08,376.51L476.8,375.82L478.52,374.78L480.25,375.29L481.97,374.25L483.69,372.97L485.41,371.65L487.13,370.67L488.85,369.81L490.57,368.62L492.3,367.35L494.02,366.37L495.74,365.14L497.46,363.64L499.18,362.39L500.9,361.42L502.62,360.39L504.34,359.12L506.07,357.99L507.79,356.21L509.51,354.74L511.23,353.4L512.95,352.38L514.67,351.77L516.39,351.03L518.11,349.92L519.84,348.75L521.56,347.43L523.28,346.39L525,345.48L526.72,345L528.44,344.08L530.16,343.25L531.89,342.33L533.61,341.05L535.33,340.09L537.05,339.37L538.77,338.93L540.49,338.36L542.21,337.58L543.93,336.49L545.66,335.69L547.38,334.83L549.1,333.88L550.82,333.43L552.54,332.59L554.26,331.57L555.98,327.34L557.7,326.4L559.43,330.13L561.15,329.48L562.87,328.57L564.59,327.41L566.31,325.85L568.03,324.31L569.75,322.63L571.48,321.55L573.2,320.44L574.92,319.57L576.64,318.37L578.36,316.81L580.08,315.34L581.8,314.59L583.52,314.16L585.25,313.52L586.97,312.69L588.69,311.41L590.41,309.82L592.13,307.96L593.85,306.88L595.57,305.54L597.3,304.41L599.02,303.3L600.74,301.54L602.46,299.57L604.18,297.32L605.9,295.12L607.62,293.3L609.34,291.94L611.07,290.55L612.79,289.03L614.51,287.41L616.23,285.79L617.95,283.92L619.67,282.66L621.39,281.66L623.11,280.83L624.84,279.95L626.56,278.43L628.28,277.21L630,276.05L630,284.92L628.28,286.01L626.56,287.16L624.84,288.61L623.11,289.42L621.39,290.21L619.67,291.17L617.95,292.38L616.23,294.18L614.51,295.74L612.79,297.29L611.07,298.74L609.34,300.08L607.62,301.41L605.9,303.17L604.18,305.31L602.46,307.5L600.74,309.4L599.02,311.1L597.3,312.17L595.57,313.27L593.85,314.57L592.13,315.62L590.41,317.42L588.69,318.94L586.97,320.16L585.25,320.95L583.52,321.56L581.8,321.96L580.08,322.68L578.36,324.1L576.64,325.6L574.92,326.74L573.2,327.57L571.48,328.64L569.75,329.68L568.03,331.31L566.31,332.79L564.59,334.29L562.87,335.4L561.15,336.27L559.43,336.89L557.7,333.11L555.98,334L554.26,338.18L552.54,339.15L550.82,339.94L549.1,340.35L547.38,341.27L545.66,342.09L543.93,342.84L542.21,343.87L540.49,344.6L538.77,345.11L537.05,345.52L535.33,346.21L533.61,347.13L531.89,348.36L530.16,349.23L528.44,350.01L526.72,350.88L525,351.32L523.28,352.2L521.56,353.21L519.84,354.48L518.11,355.61L516.39,356.67L514.67,357.36L512.95,357.93L511.23,358.93L509.51,360.23L507.79,361.66L506.07,363.4L504.34,364.49L502.62,365.71L500.9,366.71L499.18,367.66L497.46,368.88L495.74,370.34L494.02,371.54L492.3,372.47L490.57,373.7L488.85,374.87L487.13,375.71L485.41,376.66L483.69,377.95L481.97,379.2L480.25,380.2L478.52,379.67L476.8,380.68L475.08,381.35L473.36,382.36L471.64,383.55L469.92,384.56L468.2,385.52L466.48,386.23L464.75,386.99L463.03,387.46L461.31,388.17L459.59,389.02L457.87,389.84L456.15,390.53L454.43,391.04L452.7,391.41L450.98,391.66L449.26,392.32L447.54,392.94L445.82,393.51L444.1,393.89L442.38,394.26L440.66,394.5L438.93,394.65L437.21,394.95L435.49,395.45L433.77,395.82L432.05,396.12L430.33,396.27L428.61,396.39L426.89,396.54L425.16,396.62L423.44,396.98L421.72,397.36L420,397.39L418.28,397.64L416.56,397.75L414.84,397.8L413.11,398.01L411.39,398.3L409.67,398.67L407.95,398.96L406.23,399.18L404.51,399.31L402.79,399.53L401.07,399.78L399.34,400.16L397.62,400.49L395.9,400.65L394.18,400.8L392.46,400.84L390.74,400.91L389.02,401.18L387.3,401.58L385.57,401.8L383.85,402.05L382.13,402.05L380.41,402.29L378.69,402.32L376.97,402.52L375.25,402.86L373.52,403.15L371.8,403.37L370.08,403.4L368.36,403.49L366.64,403.43L364.92,403.64L363.2,404L361.48,404.25L359.75,404.48L358.03,404.58L356.31,404.55L354.59,404.46L352.87,404.77L351.15,404.81L349.43,405.32L347.7,405.44L345.98,405.21L344.26,405.46L342.54,405.63L340.82,405.85L339.1,406.21L337.38,406.58L335.66,406.78L333.93,406.9L332.21,406.81L330.49,407.19L328.77,407.43L327.05,407.79L325.33,408.05L323.61,408.39L321.89,408.71L320.16,408.92L318.44,409.2L316.72,409.32L315,409.52L313.28,409.93L311.56,410.32L309.84,410.55L308.11,410.73L306.39,411.24L304.67,411.58L302.95,411.8L301.23,412.19L299.51,412.47L297.79,412.78L296.07,412.98L294.34,413.3L292.62,413.67L290.9,414.04L289.18,414.4L287.46,414.62L285.74,414.87L284.02,415.02L282.3,415.28L280.57,415.26L278.85,415.62L277.13,415.28L275.41,415.69L273.69,415.9L271.97,416.14L270.25,416.44L268.52,416.72L266.8,417.06L265.08,417.4L263.36,417.61L261.64,417.85L259.92,418.04L258.2,418.27L256.48,418.42L254.75,418.75L253.03,418.98L251.31,419.06L249.59,419.22L247.87,419.37L246.15,419.62L244.43,419.81L242.7,419.99L240.98,420.19L239.26,420.41L237.54,420.56L235.82,420.34L234.1,420.57L232.38,420.82L230.66,421.06L228.93,421.29L227.21,421.42L225.49,421.47L223.77,421.63L222.05,421.74L220.33,422.01L218.61,422.17L216.89,422.37L215.16,422.52L213.44,422.66L211.72,422.75L210,422.9L208.28,423.1L206.56,423.07L204.84,423.28L203.11,423.44L201.39,423.61L199.67,423.74L197.95,423.89L196.23,424.03L194.51,424.21L192.79,424.43L191.07,424.53L189.34,424.7L187.62,424.81L185.9,424.97L184.18,425.09L182.46,425.29L180.74,425.48L179.02,425.63L177.3,425.79L175.57,425.96L173.85,426.13L172.13,426.27L170.41,426.46L168.69,426.51L166.97,426.63L165.25,426.78L163.52,426.94L161.8,427.1L160.08,427.31L158.36,427.42L156.64,427.63L154.92,427.81L153.2,427.96L151.48,428.16L149.75,428.32L148.03,428.52L146.31,428.75L144.59,428.99L142.87,429.12L141.15,429.34L139.43,429.5L137.7,429.9L135.98,430.08L134.26,430.31L132.54,430.54L130.82,430.74L129.1,430.9L127.38,431.12L125.66,431.34L123.93,431.48L122.21,431.74L120.49,431.99L118.77,432.25L117.05,432.5L115.33,432.69L113.61,432.88L111.89,433.12L110.16,433.34L108.44,433.55L106.72,433.73L105,433.86L103.28,434.03L101.56,434.14L99.84,434.25L98.11,434.36L96.39,434.46L94.67,434.53L92.95,434.58L91.23,434.63L89.51,434.67L87.79,434.7L86.07,434.75L84.34,434.77L82.62,434.79L80.9,434.8L79.18,434.81L77.46,434.81L75.74,434.82L74.02,434.83L72.3,434.83L70.57,434.82L68.85,434.82L67.13,434.82L65.41,434.82L63.69,434.81L61.97,434.8L60.25,434.8L58.52,434.79L56.8,434.78L55.08,434.78L53.36,434.78L51.64,434.77L49.92,434.77L48.2,434.76L46.48,434.75L44.75,434.75L43.03,434.75L41.31,434.76L39.59,434.76L37.87,434.78L36.15,434.84L34.43,434.84L32.7,434.84L30.98,434.85L29.26,434.86L27.54,434.87L25.82,434.88L24.1,434.89L22.38,434.91L20.66,434.92L18.93,434.93L17.21,434.95L15.49,434.96L13.77,434.97L12.05,434.98L10.33,434.98L8.61,434.99L6.89,434.99L5.16,434.99L3.44,435L1.72,435L0,435Z" style="fill: rgb(228, 19, 23); fill-opacity: 1; stroke-width: 0;"/></g></g><g class="errorbars"/><g class="lines"/><g class="points"/><g class="text"/></g><g class="trace scatter trace463514" style="stroke-miterlimit: 2;"><g class="fills"><g><path class="js-fill" d="M0,435L1.72,435L3.44,435L5.16,434.99L6.89,434.99L8.61,434.99L10.33,434.98L12.05,434.97L13.77,434.97L15.49,434.96L17.21,434.95L18.93,434.93L20.66,434.92L22.38,434.9L24.1,434.88L25.82,434.87L27.54,434.86L29.26,434.84L30.98,434.83L32.7,434.82L34.43,434.81L36.15,434.81L37.87,434.75L39.59,434.72L41.31,434.71L43.03,434.7L44.75,434.69L46.48,434.68L48.2,434.68L49.92,434.68L51.64,434.68L53.36,434.67L55.08,434.67L56.8,434.67L58.52,434.66L60.25,434.66L61.97,434.65L63.69,434.65L65.41,434.64L67.13,434.63L68.85,434.62L70.57,434.61L72.3,434.6L74.02,434.59L75.74,434.57L77.46,434.55L79.18,434.54L80.9,434.52L82.62,434.5L84.34,434.47L86.07,434.44L87.79,434.38L89.51,434.34L91.23,434.29L92.95,434.23L94.67,434.16L96.39,434.08L98.11,433.96L99.84,433.83L101.56,433.7L103.28,433.55L105,433.37L106.72,433.2L108.44,432.98L110.16,432.72L111.89,432.44L113.61,432.16L115.33,431.91L117.05,431.64L118.77,431.31L120.49,430.97L122.21,430.62L123.93,430.26L125.66,430.02L127.38,429.71L129.1,429.4L130.82,429.11L132.54,428.76L134.26,428.39L135.98,428.03L137.7,427.72L139.43,427.22L141.15,426.92L142.87,426.57L144.59,426.24L146.31,425.84L148.03,425.47L149.75,425.14L151.48,424.82L153.2,424.5L154.92,424.18L156.64,423.84L158.36,423.49L160.08,423.13L161.8,422.79L163.52,422.48L165.25,422.19L166.97,421.87L168.69,421.55L170.41,421.2L172.13,420.82L173.85,420.49L175.57,420.17L177.3,419.84L179.02,419.5L180.74,419.13L182.46,418.75L184.18,418.37L185.9,418.01L187.62,417.7L189.34,417.37L191.07,417.02L192.79,416.66L194.51,416.26L196.23,415.85L197.95,415.46L199.67,415.13L201.39,414.75L203.11,414.35L204.84,413.92L206.56,413.47L208.28,413.02L210,412.58L211.72,412.18L213.44,411.82L215.16,411.42L216.89,410.99L218.61,410.49L220.33,409.98L222.05,409.4L223.77,408.95L225.49,408.55L227.21,408.04L228.93,407.56L230.66,407.01L232.38,406.45L234.1,405.89L235.82,405.42L237.54,404.99L239.26,404.46L240.98,403.89L242.7,403.31L244.43,402.77L246.15,402.2L247.87,401.64L249.59,401.14L251.31,400.54L253.03,399.94L254.75,399.35L256.48,398.59L258.2,397.93L259.92,397.4L261.64,396.81L263.36,396.11L265.08,395.39L266.8,394.64L268.52,393.84L270.25,393.09L271.97,392.4L273.69,391.75L275.41,391.02L277.13,390.1L278.85,389.22L280.57,388.37L282.3,387.56L284.02,386.78L285.74,386.09L287.46,385.2L289.18,384.3L290.9,383.34L292.62,382.37L294.34,381.45L296.07,380.64L297.79,379.84L299.51,378.9L301.23,377.93L302.95,376.87L304.67,375.85L306.39,374.85L308.11,373.95L309.84,373.08L311.56,372.1L313.28,370.92L315,369.73L316.72,368.54L318.44,367.47L320.16,366.58L321.89,365.62L323.61,364.56L325.33,363.33L327.05,362.15L328.77,360.93L330.49,359.88L332.21,358.91L333.93,358.04L335.66,356.96L337.38,355.79L339.1,354.59L340.82,353.4L342.54,352.32L344.26,351.37L345.98,350.41L347.7,349.33L349.43,348.17L351.15,346.95L352.87,345.67L354.59,344.62L356.31,343.72L358.03,342.84L359.75,341.76L361.48,340.58L363.2,339.43L364.92,338.33L366.64,337.22L368.36,336.35L370.08,335.4L371.8,334.38L373.52,333.18L375.25,331.99L376.97,330.79L378.69,329.68L380.41,328.75L382.13,327.64L383.85,326.53L385.57,325.33L387.3,324.15L389.02,322.83L390.74,321.69L392.46,320.72L394.18,319.8L395.9,318.79L397.62,317.59L399.34,316.32L401.07,314.97L402.79,313.77L404.51,312.74L406.23,311.64L407.95,310.43L409.67,309.15L411.39,307.83L413.11,306.46L414.84,305.23L416.56,304.17L418.28,303.01L420,301.81L421.72,300.65L423.44,299.16L425.16,297.77L426.89,296.56L428.61,295.5L430.33,294.43L432.05,293.24L433.77,291.87L435.49,290.53L437.21,289.27L438.93,287.88L440.66,286.77L442.38,285.51L444.1,284.13L445.82,282.66L447.54,281.14L449.26,279.62L450.98,278.12L452.7,276.91L454.43,275.68L456.15,274.34L457.87,272.73L459.59,271.02L461.31,269.29L463.03,267.72L464.75,266.38L466.48,264.76L468.2,263.12L469.92,261.25L471.64,259.26L473.36,257.17L475.08,255.24L476.8,253.73L478.52,251.68L480.25,249.7L481.97,247.55L483.69,245.23L485.41,242.83L487.13,240.83L488.85,238.88L490.57,236.51L492.3,234.18L494.02,232.03L495.74,229.52L497.46,226.81L499.18,224.3L500.9,222.26L502.62,220.15L504.34,217.8L506.07,215.07L507.79,212.34L509.51,209.6L511.23,207.09L512.95,205.1L514.67,202.85L516.39,200.29L518.11,197.65L519.84,194.9L521.56,192.09L523.28,189.62L525,187.56L526.72,185.36L528.44,182.88L530.16,180.2L531.89,177.75L533.61,174.86L535.33,172.39L537.05,170.34L538.77,168.21L540.49,165.64L542.21,162.91L543.93,159.99L545.66,157.13L547.38,154.42L549.1,152.15L550.82,149.97L552.54,147.27L554.26,144.46L555.98,138.17L557.7,135.21L559.43,132.6L561.15,130.3L562.87,128.1L564.59,125.43L566.31,122.35L568.03,119.25L569.75,116.22L571.48,113.64L573.2,111.39L574.92,109.08L576.64,106.36L578.36,103.44L580.08,100.63L581.8,98.66L583.52,96.51L585.25,94.66L586.97,92.58L588.69,89.81L590.41,86.61L592.13,83.58L593.85,81.32L595.57,78.69L597.3,76.44L599.02,74.13L600.74,71.03L602.46,67.75L604.18,64.14L605.9,60.68L607.62,57.47L609.34,54.98L611.07,52.38L612.79,49.41L614.51,46.26L616.23,43.08L617.95,39.85L619.67,37.25L621.39,34.93L623.11,32.77L624.84,30.21L626.56,27.29L628.28,24.52L630,21.75L630,276.05L628.28,277.21L626.56,278.43L624.84,279.95L623.11,280.83L621.39,281.66L619.67,282.66L617.95,283.92L616.23,285.79L614.51,287.41L612.79,289.03L611.07,290.55L609.34,291.94L607.62,293.3L605.9,295.12L604.18,297.32L602.46,299.57L600.74,301.54L599.02,303.3L597.3,304.41L595.57,305.54L593.85,306.88L592.13,307.96L590.41,309.82L588.69,311.41L586.97,312.69L585.25,313.52L583.52,314.16L581.8,314.59L580.08,315.34L578.36,316.81L576.64,318.37L574.92,319.57L573.2,320.44L571.48,321.55L569.75,322.63L568.03,324.31L566.31,325.85L564.59,327.41L562.87,328.57L561.15,329.48L559.43,330.13L557.7,326.4L555.98,327.34L554.26,331.57L552.54,332.59L550.82,333.43L549.1,333.88L547.38,334.83L545.66,335.69L543.93,336.49L542.21,337.58L540.49,338.36L538.77,338.93L537.05,339.37L535.33,340.09L533.61,341.05L531.89,342.33L530.16,343.25L528.44,344.08L526.72,345L525,345.48L523.28,346.39L521.56,347.43L519.84,348.75L518.11,349.92L516.39,351.03L514.67,351.77L512.95,352.38L511.23,353.4L509.51,354.74L507.79,356.21L506.07,357.99L504.34,359.12L502.62,360.39L500.9,361.42L499.18,362.39L497.46,363.64L495.74,365.14L494.02,366.37L492.3,367.35L490.57,368.62L488.85,369.81L487.13,370.67L485.41,371.65L483.69,372.97L481.97,374.25L480.25,375.29L478.52,374.78L476.8,375.82L475.08,376.51L473.36,377.54L471.64,378.76L469.92,379.79L468.2,380.78L466.48,381.52L464.75,382.3L463.03,382.79L461.31,383.52L459.59,384.4L457.87,385.24L456.15,385.95L454.43,386.48L452.7,386.87L450.98,387.14L449.26,387.82L447.54,388.47L445.82,389.06L444.1,389.47L442.38,389.86L440.66,390.13L438.93,390.29L437.21,390.62L435.49,391.14L433.77,391.55L432.05,391.88L430.33,392.05L428.61,392.19L426.89,392.35L425.16,392.46L423.44,392.84L421.72,393.25L420,393.3L418.28,393.57L416.56,393.7L414.84,393.77L413.11,394L411.39,394.31L409.67,394.71L407.95,395.02L406.23,395.27L404.51,395.42L402.79,395.65L401.07,395.92L399.34,396.33L397.62,396.68L395.9,396.87L394.18,397.04L392.46,397.12L390.74,397.2L389.02,397.49L387.3,397.92L385.57,398.17L383.85,398.44L382.13,398.47L380.41,398.73L378.69,398.77L376.97,399L375.25,399.35L373.52,399.68L371.8,399.92L370.08,399.97L368.36,400.08L366.64,400.04L364.92,400.27L363.2,400.66L361.48,400.93L359.75,401.19L358.03,401.32L356.31,401.31L354.59,401.23L352.87,401.56L351.15,401.65L349.43,402.18L347.7,402.34L345.98,402.13L344.26,402.4L342.54,402.59L340.82,402.84L339.1,403.22L337.38,403.62L335.66,403.85L333.93,404L332.21,403.93L330.49,404.32L328.77,404.59L327.05,404.97L325.33,405.25L323.61,405.63L321.89,405.98L320.16,406.21L318.44,406.5L316.72,406.64L315,406.87L313.28,407.32L311.56,407.74L309.84,407.99L308.11,408.19L306.39,408.72L304.67,409.08L302.95,409.33L301.23,409.74L299.51,410.05L297.79,410.38L296.07,410.6L294.34,410.94L292.62,411.32L290.9,411.71L289.18,412.1L287.46,412.34L285.74,412.62L284.02,412.79L282.3,413.06L280.57,413.05L278.85,413.44L277.13,413.12L275.41,413.55L273.69,413.79L271.97,414.04L270.25,414.35L268.52,414.65L266.8,415.01L265.08,415.37L263.36,415.6L261.64,415.86L259.92,416.06L258.2,416.31L256.48,416.48L254.75,416.84L253.03,417.09L251.31,417.19L249.59,417.38L247.87,417.54L246.15,417.8L244.43,418.01L242.7,418.22L240.98,418.44L239.26,418.67L237.54,418.85L235.82,418.64L234.1,418.88L232.38,419.14L230.66,419.4L228.93,419.66L227.21,419.81L225.49,419.88L223.77,420.05L222.05,420.18L220.33,420.46L218.61,420.64L216.89,420.86L215.16,421.03L213.44,421.19L211.72,421.29L210,421.45L208.28,421.66L206.56,421.65L204.84,421.89L203.11,422.07L201.39,422.26L199.67,422.41L197.95,422.56L196.23,422.72L194.51,422.93L192.79,423.16L191.07,423.29L189.34,423.48L187.62,423.61L185.9,423.78L184.18,423.92L182.46,424.14L180.74,424.35L179.02,424.54L177.3,424.72L175.57,424.9L173.85,425.09L172.13,425.25L170.41,425.46L168.69,425.54L166.97,425.69L165.25,425.87L163.52,426.04L161.8,426.22L160.08,426.45L158.36,426.6L156.64,426.83L154.92,427.05L153.2,427.22L151.48,427.44L149.75,427.63L148.03,427.86L146.31,428.12L144.59,428.39L142.87,428.56L141.15,428.81L139.43,428.99L137.7,429.41L135.98,429.62L134.26,429.88L132.54,430.14L130.82,430.37L129.1,430.57L127.38,430.81L125.66,431.05L123.93,431.21L122.21,431.5L120.49,431.78L118.77,432.06L117.05,432.33L115.33,432.54L113.61,432.75L111.89,433L110.16,433.23L108.44,433.46L106.72,433.65L105,433.78L103.28,433.96L101.56,434.08L99.84,434.2L98.11,434.32L96.39,434.43L94.67,434.5L92.95,434.55L91.23,434.61L89.51,434.64L87.79,434.68L86.07,434.73L84.34,434.75L82.62,434.77L80.9,434.78L79.18,434.79L77.46,434.8L75.74,434.81L74.02,434.81L72.3,434.81L70.57,434.81L68.85,434.81L67.13,434.81L65.41,434.81L63.69,434.8L61.97,434.79L60.25,434.79L58.52,434.78L56.8,434.77L55.08,434.77L53.36,434.77L51.64,434.76L49.92,434.76L48.2,434.75L46.48,434.74L44.75,434.74L43.03,434.75L41.31,434.75L39.59,434.75L37.87,434.77L36.15,434.83L34.43,434.83L32.7,434.84L30.98,434.84L29.26,434.85L27.54,434.86L25.82,434.88L24.1,434.89L22.38,434.9L20.66,434.92L18.93,434.93L17.21,434.95L15.49,434.96L13.77,434.97L12.05,434.97L10.33,434.98L8.61,434.99L6.89,434.99L5.16,434.99L3.44,435L1.72,435L0,435Z" style="fill: rgb(34, 139, 34); fill-opacity: 1; stroke-width: 0;"/></g></g><g class="errorbars"/><g class="lines"/><g class="points"/><g class="text"/></g><g class="trace scatter tracea6e198" style="stroke-miterlimit: 2;"><g class="fills"/><g class="errorbars"/><g class="lines"/><g class="points"/><g class="text"/></g></g></g><g class="overplot"/><path class="xlines-above crisp" style="fill: none;" d="M0,0"/><path class="ylines-above crisp" style="fill: none;" d="M0,0"/><g class="overlines-above"/><g class="xaxislayer-above"><g class="xtick"><text text-anchor="middle" x="0" y="473" transform="translate(127.13,0)" style="font-family: 'Open Sans', verdana, arial, sans-serif; font-size: 12px; fill: rgb(68, 68, 68); fill-opacity: 1; white-space: pre;">Mar 2020</text></g><g class="xtick"><text text-anchor="middle" x="0" y="473" transform="translate(232.13,0)" style="font-family: 'Open Sans', verdana, arial, sans-serif; font-size: 12px; fill: rgb(68, 68, 68); fill-opacity: 1; white-space: pre;">May 2020</text></g><g class="xtick"><text text-anchor="middle" x="0" y="473" transform="translate(337.13,0)" style="font-family: 'Open Sans', verdana, arial, sans-serif; font-size: 12px; fill: rgb(68, 68, 68); fill-opacity: 1; white-space: pre;">Jul 2020</text></g><g class="xtick"><text text-anchor="middle" x="0" y="473" transform="translate(443.85,0)" style="font-family: 'Open Sans', verdana, arial, sans-serif; font-size: 12px; fill: rgb(68, 68, 68); fill-opacity: 1; white-space: pre;">Sep 2020</text></g><g class="xtick"><text text-anchor="middle" x="0" y="473" transform="translate(548.85,0)" style="font-family: 'Open Sans', verdana, arial, sans-serif; font-size: 12px; fill: rgb(68, 68, 68); fill-opacity: 1; white-space: pre;">Nov 2020</text></g><g class="xtick"><text text-anchor="middle" x="0" y="473" transform="translate(653.85,0)" style="font-family: 'Open Sans', verdana, arial, sans-serif; font-size: 12px; fill: rgb(68, 68, 68); fill-opacity: 1; white-space: pre;">Jan 2021</text></g></g><g class="yaxislayer-above"><g class="ytick"><text text-anchor="end" x="59" y="4.199999999999999" transform="translate(0,460)" style="font-family: 'Open Sans', verdana, arial, sans-serif; font-size: 12px; fill: rgb(68, 68, 68); fill-opacity: 1; white-space: pre;">0</text></g><g class="ytick"><text text-anchor="end" x="59" y="4.199999999999999" transform="translate(0,375.82)" style="font-family: 'Open Sans', verdana, arial, sans-serif; font-size: 12px; fill: rgb(68, 68, 68); fill-opacity: 1; white-space: pre;">20M</text></g><g class="ytick"><text text-anchor="end" x="59" y="4.199999999999999" transform="translate(0,291.63)" style="font-family: 'Open Sans', verdana, arial, sans-serif; font-size: 12px; fill: rgb(68, 68, 68); fill-opacity: 1; white-space: pre;">40M</text></g><g class="ytick"><text text-anchor="end" x="59" y="4.199999999999999" transform="translate(0,207.45)" style="font-family: 'Open Sans', verdana, arial, sans-serif; font-size: 12px; fill: rgb(68, 68, 68); fill-opacity: 1; white-space: pre;">60M</text></g><g class="ytick"><text text-anchor="end" x="59" y="4.199999999999999" transform="translate(0,123.26)" style="font-family: 'Open Sans', verdana, arial, sans-serif; font-size: 12px; fill: rgb(68, 68, 68); fill-opacity: 1; white-space: pre;">80M</text></g><g class="ytick"><text text-anchor="end" x="59" y="4.199999999999999" transform="translate(0,39.08)" style="font-family: 'Open Sans', verdana, arial, sans-serif; font-size: 12px; fill: rgb(68, 68, 68); fill-opacity: 1; white-space: pre;">100M</text></g></g><g class="overaxes-above"/></g></g><g class="polarlayer"/><g class="ternarylayer"/><g class="geolayer"/><g class="funnelarealayer"/><g class="pielayer"/><g class="treemaplayer"/><g class="sunburstlayer"/><g class="glimages"/><defs id="topdefs-d30529"><g class="clips"/><clipPath id="legendd30529"><rect width="109" height="67" x="0" y="0"/></clipPath></defs><g class="layer-above"><g class="imagelayer"/><g class="shapelayer"/></g><g class="infolayer"><g class="legend" pointer-events="all" transform="translate(123, 68.5)"><rect class="bg" shape-rendering="crispEdges" style="stroke: rgb(68, 68, 68); stroke-opacity: 1; fill: rgb(255, 255, 255); fill-opacity: 1; stroke-width: 0px;" width="109" height="67" x="0" y="0"/><g class="scrollbox" transform="translate(0, 0)" clip-path="url('#legendd30529')"><g class="groups"><g class="traces" style="opacity: 1;" transform="translate(0, 14.5)"><text class="legendtext" text-anchor="start" x="40" y="4.680000000000001" style="font-family: 'Open Sans', verdana, arial, sans-serif; font-size: 12px; fill: rgb(68, 68, 68); fill-opacity: 1; white-space: pre;">Recovered</text><g class="layers"><g class="legendfill"><path class="js-fill" d="M5,-3h30v6h-30z" style="stroke-width: 0; fill: rgb(34, 139, 34); fill-opacity: 1;"/></g><g class="legendlines"/><g class="legendsymbols"><g class="legendpoints"/></g></g><rect class="legendtoggle" x="0" y="-9.5" width="103.03125" height="19" style="fill: rgb(0, 0, 0); fill-opacity: 0;"/></g><g class="traces" style="opacity: 1;" transform="translate(0, 33.5)"><text class="legendtext" text-anchor="start" x="40" y="4.680000000000001" style="font-family: 'Open Sans', verdana, arial, sans-serif; font-size: 12px; fill: rgb(68, 68, 68); fill-opacity: 1; white-space: pre;">Death</text><g class="layers"><g class="legendfill"><path class="js-fill" d="M5,-3h30v6h-30z" style="stroke-width: 0; fill: rgb(228, 19, 23); fill-opacity: 1;"/></g><g class="legendlines"/><g class="legendsymbols"><g class="legendpoints"/></g></g><rect class="legendtoggle" x="0" y="-9.5" width="103.03125" height="19" style="fill: rgb(0, 0, 0); fill-opacity: 0;"/></g><g class="traces" style="opacity: 1;" transform="translate(0, 52.5)"><text class="legendtext" text-anchor="start" x="40" y="4.680000000000001" style="font-family: 'Open Sans', verdana, arial, sans-serif; font-size: 12px; fill: rgb(68, 68, 68); fill-opacity: 1; white-space: pre;">Active</text><g class="layers"><g class="legendfill"><path class="js-fill" d="M5,-3h30v6h-30z" style="stroke-width: 0; fill: rgb(31, 119, 180); fill-opacity: 1;"/></g><g class="legendlines"/><g class="legendsymbols"><g class="legendpoints"/></g></g><rect class="legendtoggle" x="0" y="-9.5" width="103.03125" height="19" style="fill: rgb(0, 0, 0); fill-opacity: 0;"/></g></g></g><rect class="scrollbar" rx="20" ry="3" width="0" height="0" style="fill: rgb(128, 139, 164); fill-opacity: 1;" x="0" y="0"/></g><g class="g-gtitle"><text class="gtitle" x="350" y="12.5" text-anchor="middle" dy="0em" style="font-family: 'Open Sans', verdana, arial, sans-serif; font-size: 17px; fill: rgb(68, 68, 68); opacity: 1; font-weight: normal; white-space: pre;">Distribution of Covid19 Cases Worldwide</text></g><g class="g-xtitle" transform="translate(0,-15)"><text class="xtitle" x="375" y="512" text-anchor="middle" style="font-family: 'Open Sans', verdana, arial, sans-serif; font-size: 14px; fill: rgb(68, 68, 68); opacity: 1; font-weight: normal; white-space: pre;">Source: Johns Hopkins University Center for Systems Science and Engineering</text></g><g class="g-ytitle"><text class="ytitle" transform="rotate(-90,22,242.5)" x="22" y="242.5" text-anchor="middle" style="font-family: 'Open Sans', verdana, arial, sans-serif; font-size: 14px; fill: rgb(68, 68, 68); opacity: 1; font-weight: normal; white-space: pre;">Number of Cases</text></g></g></svg>